<svg width="125" height="100" viewBox="0 0 125 100" fill="none" xmlns="http://www.w3.org/2000/svg">
<path d="M59.793 41.8829V24.6475H63.148V38.8921H70.9318V41.8829H59.793Z" fill="#155880"/>
<path d="M73.6562 41.8829V24.6475H84.9868V27.6574H77.0113V31.6835H83.7981V34.6935H77.0113V38.8921H84.9868V41.8829H73.6562Z" fill="#155880"/>
<path d="M89.414 40.074C88.6472 39.3072 88.1487 38.3294 87.9378 37.1408C87.8036 36.4506 87.7461 35.1661 87.7461 33.2872C87.7461 31.4084 87.8036 30.1239 87.9378 29.4145C88.1487 28.245 88.628 27.2673 89.414 26.4812C90.6602 25.2351 92.1939 24.6216 94.0153 24.6216C95.8366 24.6216 97.3512 25.2351 98.5973 26.4812C99.3642 27.2481 99.8627 28.2259 100.074 29.4145C100.208 30.1431 100.284 31.4276 100.284 33.2872C100.284 35.1277 100.208 36.4122 100.074 37.1408C99.8627 38.3102 99.3834 39.288 98.5973 40.074C97.5429 41.1093 96.3159 41.7036 94.8972 41.8954V38.847C95.4148 38.6937 95.8174 38.4253 96.1242 38.0802C96.6801 37.4667 96.9485 35.8754 96.9485 33.3064C96.9485 30.7182 96.6801 29.127 96.1242 28.5135C95.5874 27.9191 94.878 27.6124 93.9961 27.6124C93.095 27.6124 92.3665 27.9191 91.8489 28.5135C91.2929 29.1078 91.0245 30.7182 91.0245 33.3064C91.0245 35.8946 91.2929 37.4858 91.8489 38.0802C92.0981 38.3869 92.4624 38.617 92.9033 38.7895V41.8954C91.5805 41.6461 90.3918 41.0518 89.414 40.074Z" fill="#155880"/>
<path d="M113.954 41.8761L107.148 31.3124V41.8761H103.793V24.6406H106.784L113.59 35.2043V24.6406H116.945V41.8761H113.954Z" fill="#155880"/>
<path d="M7.85698 68.2949H3.5625V46.9375H12.3815C14.5096 46.9375 16.1775 47.4743 17.3854 48.5671C18.574 49.6407 19.1683 51.0978 19.1683 52.9383C19.1683 54.0119 18.8424 54.9896 18.2097 55.8524C17.7113 56.5234 17.1361 57.041 16.4459 57.3478C18.459 58.268 19.4751 59.8593 19.4751 62.1407C19.4751 64.0771 18.8424 65.5916 17.5962 66.7036C16.3884 67.7581 14.7588 68.2949 12.7458 68.2949H10.5027V64.5755H12.324C13.2442 64.5755 13.9728 64.3263 14.4904 63.7895C14.9697 63.3102 15.1998 62.6967 15.1998 61.9298C15.1998 61.163 14.9697 60.5495 14.4904 60.0702C13.9728 59.5717 13.2634 59.3225 12.324 59.3225H10.4643V55.5648H12.0364C12.9183 55.5648 13.6277 55.3347 14.1262 54.8746C14.6246 54.4337 14.8738 53.8393 14.8738 53.1108C14.8738 52.3631 14.6246 51.788 14.1262 51.347C13.6085 50.8869 12.9183 50.6568 12.0364 50.6568H7.83781V68.2949H7.85698Z" fill="#155880"/>
<path d="M23.8828 68.2949V46.9375H38.3575V50.6568H28.1581V55.6607H36.8429V59.3992H28.1581V64.5755H38.3575V68.2949H23.8828Z" fill="#155880"/>
<path d="M46.8339 68.2949H42.5586V46.9375H51.1667C53.3523 46.9375 55.0969 47.5702 56.4198 48.8547C57.666 50.0817 58.2986 51.6154 58.2986 53.4751C58.2986 54.8938 57.896 56.1208 57.0908 57.1369C56.3623 58.038 55.442 58.6898 54.2917 59.0924L59.1997 68.2949H54.2342L50.7449 61.3355V56.2933H50.8983C51.8186 56.2933 52.5854 56.0441 53.1606 55.5073C53.7357 54.9896 54.0233 54.2995 54.0233 53.4751C54.0233 52.6315 53.7357 51.9605 53.1606 51.4429C52.5854 50.9252 51.8377 50.6568 50.8983 50.6568H46.8339V68.2949Z" fill="#155880"/>
<path d="M71.8334 46.9185L79.8663 68.295H75.3993L74.0956 64.5181H74.0573L70.2421 53.2068L67.4622 61.0097H70.1654L71.3732 64.5181H66.2544L64.9315 68.295H60.4453L68.4399 46.9185H71.8334Z" fill="#155880"/>
<path d="M86.7124 68.295H82.418V46.9376H91.0261C93.2117 46.9376 94.9563 47.5703 96.2792 48.8548C97.5253 50.0818 98.158 51.6155 98.158 53.4752C98.158 54.8939 97.7554 56.1209 96.9502 57.137C96.2408 58.0381 95.3014 58.6899 94.1511 59.0925L99.0591 68.295H94.0936L90.6043 61.3356V56.2935H90.7577C91.6779 56.2935 92.4256 56.0442 93.02 55.5074C93.5951 54.9898 93.8827 54.2996 93.8827 53.4752C93.8827 52.6316 93.5951 51.9606 93.02 51.443C92.4448 50.9254 91.6971 50.657 90.7577 50.657H86.7124V68.295ZM106.9 68.295H102.606V46.9185H110.543C113.035 46.9185 114.972 47.6086 116.371 48.9507C117.445 50.0051 118.116 51.3471 118.403 52.9384C118.518 53.6669 118.595 55.1815 118.595 57.5204C118.595 59.8786 118.538 61.4315 118.403 62.16C118.116 63.828 117.445 65.1892 116.371 66.2436C114.972 67.6048 113.035 68.2758 110.543 68.2758H109.489V64.5565H110.14C111.54 64.5565 112.614 64.1155 113.361 63.2336C113.994 62.4859 114.32 60.5879 114.32 57.5013C114.32 54.5296 113.994 52.67 113.361 51.9223C112.614 51.0404 111.559 50.5994 110.14 50.5994H106.9V68.295Z" fill="#155880"/>
<path d="M103.793 19.541H116.983V15.3232H103.793V19.541Z" fill="#E62273"/>
<path d="M26.1851 28.6285C26.0892 29.2228 25.84 29.6638 25.4566 30.0089C25.0731 30.3348 24.613 30.4882 24.0379 30.4882C23.4244 30.4882 22.8876 30.2773 22.4658 29.8555C22.2165 29.6063 22.0632 29.3187 21.9865 28.9736C21.929 28.6477 21.8906 28.1684 21.8906 27.5165C21.8906 26.8647 21.929 26.3854 21.9865 26.0595C22.044 25.7336 22.2165 25.4268 22.4658 25.1776C22.8876 24.7558 23.4244 24.5449 24.0379 24.5449C24.613 24.5449 25.0731 24.6983 25.4566 25.0242C25.84 25.3501 26.0892 25.8103 26.1851 26.4046H25.0348C24.9006 25.8486 24.5747 25.5802 24.057 25.5802C23.7311 25.5802 23.5011 25.6761 23.3285 25.8869C23.1368 26.0978 23.0409 26.6346 23.0409 27.5357C23.0409 28.4368 23.1368 28.9928 23.3285 29.1845C23.5011 29.3954 23.7311 29.4912 24.057 29.4912C24.5747 29.4912 24.9006 29.2228 25.0348 28.6669H26.1851V28.6285Z" fill="#155880"/>
<path d="M27.1641 30.4304V24.583H30.9984V25.5991H28.2952V26.9603H30.5958V27.9764H28.2952V29.4143H30.9984V30.4304H27.1641Z" fill="#155880"/>
<path d="M35.5603 30.4304L33.2597 26.8261V30.4304H32.1094V24.583H33.1255L35.4453 28.149V24.583H36.5764V30.4304H35.5603Z" fill="#155880"/>
<path d="M40.1613 25.5991V30.4304H39.0302V25.5991H37.5156V24.583H41.6951V25.5991H40.1613Z" fill="#155880"/>
<path d="M43.7639 30.4304H42.6328V24.583H44.9143C45.4894 24.583 45.9495 24.7556 46.3138 25.1006C46.6397 25.4266 46.8123 25.8483 46.8123 26.366C46.8123 26.7494 46.6972 27.0945 46.4863 27.3629C46.2946 27.6121 46.0454 27.7847 45.7386 27.8997L47.0423 30.4304H45.7195L44.7992 28.5324V27.152H44.8376C45.0868 27.152 45.2785 27.0753 45.4319 26.9411C45.5853 26.8069 45.662 26.6152 45.662 26.3852C45.662 26.1551 45.5853 25.9634 45.4319 25.8292C45.2785 25.695 45.0868 25.6183 44.8376 25.6183H43.7639V30.4304Z" fill="#155880"/>
<path d="M47.9844 30.4304V24.583H51.8187V25.5991H49.1155V26.9603H51.4161V27.9764H49.1155V29.4143H51.8187V30.4304H47.9844Z" fill="#155880"/>
<path d="M29.7907 36.1439H29.2539V32.6738H30.4617C30.8452 32.6738 31.1327 32.7889 31.3436 32.9998C31.5162 33.1723 31.612 33.3832 31.6504 33.6516C31.6696 33.7858 31.6887 34.035 31.6887 34.3993C31.6887 34.7636 31.6696 35.0128 31.6504 35.1662C31.612 35.4537 31.497 35.6646 31.3436 35.8372C31.1327 36.0481 30.826 36.1631 30.4617 36.1631H30.1742V35.6838H30.4234C30.6726 35.6838 30.8643 35.6071 30.9985 35.4537C31.1136 35.3195 31.1903 34.9744 31.1903 34.3993C31.1903 33.8625 31.1327 33.5366 30.9985 33.4024C30.8643 33.249 30.6726 33.1723 30.4234 33.1723H29.7907V36.1439Z" fill="#155880"/>
<path d="M32.7422 36.1439V32.6738H34.9469V33.1531H33.2598V34.1692H34.6977V34.6294H33.2598V35.6838H34.9469V36.1439H32.7422Z" fill="#155880"/>
<path d="M37.3242 36.1439V32.6738H37.861V35.6838H39.529V36.1439H37.3242Z" fill="#155880"/>
<path d="M42.7306 34.9744C42.7306 35.3387 42.6156 35.6263 42.3663 35.8372C42.1363 36.0672 41.8295 36.1631 41.4844 36.1631C41.1202 36.1631 40.8326 36.0481 40.6025 35.8372C40.3725 35.6071 40.2383 35.3195 40.2383 34.9744V32.6738H40.7559V34.9553C40.7559 35.1853 40.8134 35.377 40.9476 35.5113C41.0818 35.6455 41.2544 35.703 41.4653 35.703C41.6762 35.703 41.8487 35.6455 41.9829 35.5113C42.1171 35.377 42.1746 35.1853 42.1746 34.9553V32.6738H42.6923V34.9744H42.7306Z" fill="#155880"/>
<path d="M45.0114 33.1531V36.1439H44.4746V33.1531H43.5352V32.6738H45.9508V33.1531H45.0114Z" fill="#155880"/>
<path d="M47.9837 33.1531V36.1439H47.4469V33.1531H46.4883V32.6738H48.9231V33.1531H47.9837Z" fill="#155880"/>
<path d="M49.7656 36.1439V32.6738H51.9896V33.1531H50.3024V34.1692H51.7403V34.6294H50.3024V35.6838H51.9896V36.1439H49.7656Z" fill="#155880"/>
<path d="M6.05555 40.841C5.99804 41.1861 5.86383 41.4545 5.63377 41.627C5.42288 41.8187 5.15448 41.8954 4.82856 41.8954C4.46429 41.8954 4.15755 41.7804 3.92749 41.5311C3.77411 41.3778 3.67825 41.1861 3.63991 40.956C3.62074 40.8218 3.60156 40.5342 3.60156 40.1316C3.60156 39.729 3.62074 39.4606 3.63991 39.3072C3.67825 39.0772 3.77411 38.8854 3.92749 38.7321C4.17672 38.4828 4.48347 38.3678 4.82856 38.3678C5.15448 38.3678 5.42288 38.4637 5.63377 38.6362C5.86383 38.8279 5.99804 39.0963 6.05555 39.4414H5.51874C5.42288 39.0388 5.19282 38.8471 4.80939 38.8471C4.5985 38.8471 4.42595 38.9238 4.29175 39.058C4.15755 39.2114 4.08086 39.5756 4.08086 40.1508C4.08086 40.7259 4.15755 41.0902 4.29175 41.2436C4.42595 41.3778 4.5985 41.4545 4.80939 41.4545C5.19282 41.4545 5.42288 41.2627 5.51874 40.8601H6.05555V40.841ZM7.91521 41.8762C7.64681 41.8379 7.41675 41.7229 7.20586 41.512C7.05248 41.3586 6.95662 41.1669 6.91828 40.9368C6.89911 40.8026 6.87994 40.515 6.87994 40.1124C6.87994 39.7098 6.89911 39.4414 6.91828 39.288C6.95662 39.058 7.05248 38.8663 7.20586 38.7129C7.45509 38.4637 7.74267 38.3486 8.10693 38.3486C8.4712 38.3486 8.77794 38.4637 9.00801 38.7129C9.16138 38.8663 9.25724 39.058 9.29558 39.288C9.31475 39.4223 9.33393 39.7098 9.33393 40.1124C9.33393 40.515 9.31475 40.7834 9.29558 40.9368C9.25724 41.1669 9.16138 41.3586 9.00801 41.512C8.81629 41.7037 8.56705 41.8379 8.29865 41.8762V41.3969C8.43285 41.3586 8.52871 41.3011 8.6054 41.2052C8.68209 41.1094 8.7396 40.9943 8.77794 40.8601C8.79712 40.7259 8.81629 40.4767 8.81629 40.1316C8.81629 39.7865 8.79712 39.5373 8.77794 39.4031C8.75877 39.2689 8.70126 39.1538 8.6054 39.058C8.4712 38.9238 8.29865 38.8471 8.08776 38.8471C7.87687 38.8471 7.70432 38.9238 7.57012 39.058C7.49343 39.1538 7.43592 39.2689 7.39758 39.4031C7.3784 39.5373 7.35923 39.7865 7.35923 40.1316C7.35923 40.4767 7.3784 40.7259 7.39758 40.8601C7.41675 40.9943 7.47426 41.1094 7.57012 41.2052C7.64681 41.3011 7.76184 41.3586 7.87687 41.3969V41.8762H7.91521Z" fill="#155880"/>
<path d="M12.5148 41.876L10.9044 39.422V41.876H10.3867V38.3867H10.866L12.4573 40.8407V38.3867H12.9941V41.876H12.5148Z" fill="#155880"/>
<path d="M15.3161 38.866V41.876H14.7793V38.866H13.8398V38.3867H16.2555V38.866H15.3161Z" fill="#155880"/>
<path d="M18.2863 39.9588C18.478 39.9588 18.6314 39.9205 18.7656 39.8246C18.919 39.7287 18.9957 39.5945 18.9957 39.422C18.9957 39.2495 18.9381 39.1152 18.8231 39.0194C18.7081 38.9235 18.5739 38.866 18.4013 38.866H17.6153V39.8629V41.876H17.0977V38.3867H18.4397C18.7656 38.3867 19.034 38.4826 19.2257 38.6743C19.4174 38.866 19.5133 39.0961 19.5133 39.4028C19.5133 39.6521 19.4558 39.8438 19.3216 40.0163C19.2066 40.1697 19.034 40.2656 18.8231 40.3422L19.6283 41.876H19.0148L18.2863 40.4189V39.9588Z" fill="#155880"/>
<path d="M20.5312 41.876V38.3867H22.7552V38.866H21.0681V39.8821H22.5059V40.3614H21.0681V41.3967H22.7552V41.876H20.5312Z" fill="#155880"/>
<path d="M25.1289 41.876V38.3867H25.6465V41.3967H27.3145V41.876H25.1289Z" fill="#155880"/>
<path d="M28.1602 41.876V38.3867H30.3841V38.866H28.697V39.8821H30.1348V40.3614H28.697V41.3967H30.3841V41.876H28.1602Z" fill="#155880"/>
<path d="M35.0982 40.8408C35.0406 41.1859 34.9064 41.4543 34.6764 41.6269C34.4655 41.8186 34.1971 41.8953 33.8712 41.8953C33.5069 41.8953 33.2002 41.7803 32.9701 41.531C32.8167 41.3776 32.7209 41.1859 32.6633 40.9559C32.6442 40.8217 32.625 40.5341 32.625 40.1315C32.625 39.7289 32.6442 39.4605 32.6633 39.3071C32.7017 39.077 32.7975 38.8853 32.9701 38.7319C33.2193 38.4827 33.5261 38.3677 33.8712 38.3677C34.1971 38.3677 34.4655 38.4635 34.6764 38.6361C34.9064 38.8278 35.0406 39.0962 35.0982 39.4413H34.5613C34.4655 39.0387 34.2354 38.847 33.852 38.847C33.6411 38.847 33.4686 38.9237 33.3344 39.0579C33.2002 39.2112 33.1235 39.5755 33.1235 40.1506C33.1235 40.7258 33.2002 41.0901 33.3344 41.2434C33.4686 41.3776 33.6411 41.4543 33.852 41.4543C34.2354 41.4543 34.4655 41.2626 34.5613 40.86H35.0982V40.8408Z" fill="#155880"/>
<path d="M37.2844 38.3867L38.5498 41.876H37.9938L37.8404 41.4159L37.7637 41.1666L37.0735 39.1728L36.5367 40.7257H37.1694L37.3228 41.1666H36.3833L36.1533 41.876H35.5781L36.8626 38.3867H37.2844Z" fill="#155880"/>
<path d="M41.4093 41.876L39.8181 39.422V41.876H39.2812V38.3867H39.7605L41.371 40.8407V38.3867H41.8886V41.876H41.4093Z" fill="#155880"/>
<path d="M45.395 40.8408C45.3375 41.1859 45.1841 41.4543 44.9733 41.6269C44.7624 41.8186 44.494 41.8953 44.168 41.8953C43.8038 41.8953 43.497 41.7803 43.267 41.531C43.1136 41.3776 43.0177 41.1859 42.9602 40.9559C42.941 40.8217 42.9219 40.5341 42.9219 40.1315C42.9219 39.7289 42.941 39.4605 42.9602 39.3071C42.9986 39.077 43.0944 38.8853 43.267 38.7319C43.5162 38.4827 43.8229 38.3677 44.168 38.3677C44.494 38.3677 44.7624 38.4635 44.9733 38.6361C45.2033 38.8278 45.3375 39.0962 45.395 39.4413H44.8582C44.7624 39.0387 44.5323 38.847 44.1489 38.847C43.938 38.847 43.7654 38.9237 43.6312 39.0579C43.497 39.2112 43.4203 39.5755 43.4203 40.1506C43.4203 40.7258 43.497 41.0901 43.6312 41.2434C43.7654 41.3776 43.938 41.4543 44.1489 41.4543C44.5323 41.4543 44.7624 41.2626 44.8582 40.86H45.395V40.8408Z" fill="#155880"/>
<path d="M46.3359 41.876V38.3867H48.5599V38.866H46.8727V39.8821H48.3106V40.3614H46.8727V41.3967H48.5599V41.876H46.3359Z" fill="#155880"/>
<path d="M50.7043 39.9588C50.896 39.9588 51.0494 39.9205 51.1836 39.8246C51.3369 39.7287 51.4136 39.5945 51.4136 39.422C51.4136 39.2495 51.3561 39.1152 51.2411 39.0194C51.1261 38.9235 50.9919 38.866 50.8193 38.866H50.0333V39.8629V41.876H49.5156V38.3867H50.8576C51.1836 38.3867 51.452 38.4826 51.6437 38.6743C51.8354 38.866 51.9313 39.0961 51.9313 39.4028C51.9313 39.6521 51.8738 39.8438 51.7396 40.0163C51.6245 40.1697 51.452 40.2656 51.2411 40.3422L52.0463 41.876H51.4328L50.7043 40.4189V39.9588Z" fill="#155880"/>
<path d="M3.58203 77.6123H16.753V73.3945H3.58203V77.6123Z" fill="#1FAFE5"/>
</svg>
