<?xml version="1.0" encoding="utf-8"?>
<!-- Generator: $$$/GeneralStr/196=Adobe Illustrator 27.6.0, SVG Export Plug-In . SVG Version: 6.00 Build 0)  -->
<svg version="1.1" id="Capa_1" xmlns="http://www.w3.org/2000/svg" xmlns:xlink="http://www.w3.org/1999/xlink" x="0px" y="0px"
	 viewBox="0 0 715.5 300" style="enable-background:new 0 0 715.5 300;" xml:space="preserve">
<style type="text/css">
	.st0{display:none;}
	.st1{fill:#669AC5;}
	.st2{fill:#888B8D;}
	.st3{fill:#1D1E1C;}
</style>
<g id="Guías">
</g>
<g id="Capa_1_00000051377424567843932120000002803711787777645754_">
</g>
<g id="Capa-1" class="st0">
</g>
<g>
	<rect x="416.1" y="154" class="st1" width="6.9" height="36.2"/>
	<path class="st1" d="M447.4,190.2v-16.4c0-3.2-0.5-4.3-2.1-4.3c-1.4,0-3.3,1.4-6.1,4.4l-0.9,0.9v15.4h-6.6v-25.5h6.6v4.2
		c3.1-3.3,5.6-4.7,8.8-4.7c4.6,0,6.9,2.4,6.9,7.2v18.8H447.4z"/>
	<path class="st1" d="M478.1,171.8c-0.7-0.4-1.3-0.8-1.8-1.1c-1.8-1.1-4-1.8-5.9-1.8c-2.5,0-4.2,1-4.2,2.4c0,1.2,0.9,1.9,3.2,2.7
		c2.9,1,6.5,2.7,7.7,3.5c1.6,1.2,2.6,3.4,2.6,5.7c0,4.7-4.1,7.7-10.2,7.7c-1.3,0-2.6-0.2-4.2-0.5c-2.4-0.5-3.5-0.9-6.3-2.4l2.1-5.3
		c2.6,1.6,3.6,2.1,5.5,2.7c1,0.3,1.9,0.5,2.9,0.5c2.5,0,4-0.8,4-2.2c0-1.2-0.8-2-2.6-2.7l-4.4-1.7c-4.5-1.8-6.6-4.1-6.6-7.5
		c0-4.8,4.2-8,10.4-8c1.2,0,2.6,0.2,4.2,0.5c2.4,0.5,3.3,0.8,5.6,2.1L478.1,171.8z"/>
	<path class="st1" d="M496.8,189.2c-1.9,1.1-3.9,1.7-5.7,1.7c-3.4,0-5-1.8-5-5.5v-15.9h-3.8v-4.2l3.8-0.7v-7.6h6.2v7.6h5.5v4.8h-5.5
		v11.4c0,2.9,0.3,3.7,1.3,3.7c0.8,0,1.7-0.4,3.5-1.6l2.1,4.8C498.4,188.3,497.5,188.8,496.8,189.2"/>
	<path class="st1" d="M505.9,160c-2,0-3.7-2-3.7-4.4s1.7-4.4,3.7-4.4c2,0,3.7,2,3.7,4.4S507.9,160,505.9,160 M502.6,164.7h6.5v25.5
		h-6.5V164.7z"/>
	<path class="st1" d="M527.3,189.2c-1.9,1.1-3.9,1.7-5.7,1.7c-3.4,0-5-1.8-5-5.5v-15.9h-3.8v-4.2l3.8-0.7v-7.6h6.2v7.6h5.5v4.8h-5.5
		v11.4c0,2.9,0.3,3.7,1.3,3.7c0.8,0,1.7-0.4,3.5-1.6l2.1,4.8C528.8,188.3,528,188.8,527.3,189.2"/>
	<path class="st1" d="M549,190.2v-4.3c-3.1,3.4-5.6,4.7-8.8,4.7c-4.6,0-6.9-2.4-6.9-7.2v-18.8h6.6v16.4c0,3.1,0.6,4.3,2.1,4.3
		c1.4,0,3.3-1.4,6.2-4.4l0.9-0.9v-15.4h6.6v25.5H549z"/>
	<path class="st1" d="M574.2,189.2c-1.9,1.1-3.9,1.7-5.7,1.7c-3.4,0-5-1.8-5-5.5v-15.9h-3.8v-4.2l3.8-0.7v-7.6h6.2v7.6h5.5v4.8h-5.5
		v11.4c0,2.9,0.3,3.7,1.3,3.7c0.8,0,1.7-0.4,3.5-1.6l2.1,4.8C575.7,188.3,574.9,188.8,574.2,189.2"/>
	<path class="st1" d="M430.4,239.5v-3.5c-0.9,1.5-1.4,2-2.6,2.7c-1.5,0.9-3.1,1.4-4.8,1.4c-6,0-10.5-5.4-10.5-12.7
		c0-7.9,5.4-14.3,12.2-14.3c0.7,0,1.5,0.1,2.2,0.3c1.4,0.3,2,0.5,3.4,1.5v-15.5h6.5v40H430.4z M430.4,224.3c0-1.4-0.2-2.7-0.3-3.3
		c-0.4-1.4-2.2-2.4-4.3-2.4c-3.6,0-6.3,3.6-6.3,8.4c0,4.6,2.1,7.8,5.3,7.8c2,0,4.1-1.4,5.7-3.8V224.3z"/>
	<path class="st1" d="M447.2,219h-4c0.9-1.7,1.1-2.3,1.7-4.1c0.7-1.8,0.8-2.4,0.9-4.1l-3.1-7.3c2.1-1,2.9-1.3,4.7-1.3
		c3,0,4.4,1.5,4.4,4.6C451.8,210.1,450,214.8,447.2,219"/>
	<path class="st1" d="M475.1,240.3c-11.3,0-19.3-7.8-19.3-18.8c-0.1-11.2,7.8-18.8,19.3-18.8c11.4,0,19.2,7.6,19.2,18.8
		C494.4,232.5,486.4,240.3,475.1,240.3 M475.1,208.7c-6.9,0-11.9,5.5-11.9,12.8c0,7.3,5,12.8,11.9,12.8c6.8,0,11.9-5.4,11.9-12.8
		C487,214.1,482,208.7,475.1,208.7"/>
	<path class="st1" d="M515.7,239.5v-16.4c0-3.2-0.5-4.3-2.1-4.3c-1.4,0-3.3,1.4-6.1,4.4l-0.9,0.9v15.4h-6.6V214h6.6v4.2
		c3.1-3.3,5.6-4.7,8.8-4.7c4.6,0,6.9,2.4,6.9,7.2v18.8H515.7z"/>
	<path class="st1" d="M547.7,238.8c-2.4,1-4.9,1.5-7.5,1.5c-7.9,0-13-5.2-13-13.2c0-8.2,5.4-13.8,13.6-13.8c1.4,0,2.8,0.2,4.2,0.4
		c1.9,0.4,2.7,0.8,4.9,2.1l-3.1,5c-1.9-1.5-3.2-2-5.2-2c-4.3,0-7.4,3.4-7.4,8.2c0,4.6,2.7,7.7,6.7,7.7c2.2,0,3.8-0.5,6.6-2.2
		l2.4,5.3C548.9,238.2,548.2,238.6,547.7,238.8"/>
	<path class="st1" d="M564.4,240.3c-7.3,0-12.8-5.8-12.8-13.5c0-7.6,5.5-13.4,12.8-13.4c7.3,0,12.8,5.8,12.8,13.4
		C577.3,234.4,571.7,240.3,564.4,240.3 M564.4,218.5c-3.3,0-6,3.7-6,8.2c0,4.6,2.7,8.3,6,8.3c3.3,0,6-3.7,6-8.3
		C570.5,222.3,567.7,218.5,564.4,218.5"/>
	<rect x="581.9" y="199.6" class="st1" width="6.5" height="40"/>
	<path class="st1" d="M605.9,240.3c-7.3,0-12.8-5.8-12.8-13.5c0-7.6,5.5-13.4,12.8-13.4c7.3,0,12.8,5.8,12.8,13.4
		C618.7,234.4,613.2,240.3,605.9,240.3 M605.9,218.5c-3.3,0-6,3.7-6,8.2c0,4.6,2.7,8.3,6,8.3c3.3,0,6-3.7,6-8.3
		C611.9,222.3,609.2,218.5,605.9,218.5"/>
	<path class="st1" d="M642.9,219c0.9,1.3,1.2,2.1,1.2,3.8c0,5.8-4.5,9.7-11.2,9.7c-0.7,0-1,0-1.9-0.2c-1.7,1.3-2.5,2.1-2.5,2.7
		c0,0.5,0.4,0.7,1.7,0.7h8.9c5,0,7.4,2,7.4,6.1c0,6.4-6.1,11-14.7,11c-6.3,0-10.5-2.6-10.5-6.4c0-2,1.1-3.7,4.1-6.2
		c-2.5-0.9-3.6-1.9-3.6-3.5c0-1.5,0.9-2.6,3.3-4.3c0.3-0.3,0.9-0.6,1.6-1.2c-1.2-0.9-1.6-1.3-2.2-2c-1.5-1.8-2.3-3.8-2.3-6.3
		c0-6.1,4.2-9.8,10.9-9.8c1.9,0,2.9,0.2,5.3,1h3.8l5.2-0.3v4.9H642.9z M637.1,241.1h-8c-0.2,0.4-0.4,0.7-0.5,0.9
		c-0.8,1.3-1.2,2.2-1.2,2.9c0,1.6,2.4,2.9,5.4,2.9c2,0,4.1-0.7,5.7-2c1.2-0.9,1.9-2.1,1.9-3.1C640.4,241.6,639.3,241.1,637.1,241.1
		 M633.1,218c-2.3,0-4.2,2.2-4.2,4.8c0,2.6,1.9,4.7,4.2,4.7c2.4,0,4.2-2.1,4.2-4.7C637.4,220.2,635.5,218,633.1,218"/>
	<path class="st1" d="M654.6,209.3c-2,0-3.7-2-3.7-4.4c0-2.5,1.7-4.4,3.7-4.4c2,0,3.7,2,3.7,4.4
		C658.3,207.3,656.7,209.3,654.6,209.3 M651.3,214h6.5v25.5h-6.5V214z"/>
	<path class="st1" d="M684.7,239.9h-1.4c-3.3,0-4.3-0.5-5.5-2.8c-2.4,2.2-4.6,3.1-7.1,3.1c-4.3,0-7.4-2.9-7.4-6.9
		c0-0.9,0.2-1.8,0.4-2.6c0.9-2.4,2.4-3.6,6.1-4.7l7.2-2.1v-2.1c0-2.7-1-4-3.1-4c-2,0-3.6,1-3.6,2.3c0,0.2,0.1,0.3,0.2,0.7l-6.3,1.4
		c-0.3-0.8-0.3-1-0.3-1.8c0-4.5,3.9-7.1,10.9-7.1c6.1,0,8.8,2.5,8.8,8.1v10.6c0,2.3,0.3,2.7,2,2.9L684.7,239.9z M677.1,228.2
		l-6.5,2.1c-0.4,1-0.5,1.5-0.5,2.1c0,1.6,1,2.6,2.6,2.6c0.8,0,1.8-0.3,2.7-0.8c0.4-0.2,0.8-0.4,1.7-1.2V228.2z"/>
	<g>
		<path class="st1" d="M148.2,143.4l-3.8,0.3h-2.2h-0.6c0,0-2.4-0.2-2.9-0.2c-0.5,0-4-0.2-4.8,0c-0.8,0.2-3.3-0.2-4.1-0.2
			c-0.8,0-3.2,0-3.7,0l-1.9-0.6c0,0-1-1.4-0.6-2.1c0.3-0.6,0.3-1.9,1-2.7c0.6-0.8,0.6-1,0.8-1.4c0.2-0.5,0.5-3,0.5-3.5
			c0-0.5,0.2-1,0.2-2.1c0-1.1,0-2.9,0-2.9s0.3-0.5,0.3-1.3c0-0.8-0.6-0.2,0-2.2c0.6-2.1,1-2.6,1-3.5c0-1-3.4-2.9-3.4-2.9l-3-1.9
			l-1-1l-2.9-1.7l-1.6-0.8h-1.8c0,0-0.8,0.8-0.8,1.4c0,0.6,0,1.4,0,1.9c0,0.5,0,1.6-0.3,2.1c-0.3,0.5-1.8,2.7-1.9,3.3
			c-0.2,0.6-1,4.5-1,4.5v1.1c0,0-0.2,0-0.3,0.6c-0.2,0.6-0.6,0.9-0.6,1.4c0,0.5,0.2-0.5,0,0.5c-0.2,0.9-0.2,1.4-0.5,2.4
			c-0.3,1-1.7,2.4-1.7,2.9c0,0.5-0.2,1.3-0.2,1.8c0,0.5-0.3,1-0.6,2.2c-0.3,1.3-0.9,1.7-0.9,2.2c0,0.5-0.2,0.5-0.2,1.4
			c0,1-0.2,1.4-0.2,2.1c0,0.6,0.3-0.3,0,0.6c-0.3,1,0.2,2.2-1.3,3c0,0-5.4,2.4-5.9,2.4c-0.5,0-2.7,0-3.2,0c-0.5,0-4.1,0.3-5.1,0.6
			c-0.9,0.3-2.7,0-3,0.5c-0.3,0.5-1.9,0.8-2.4,0.8c-0.5,0-0.8,0.2-2.7,0.3c-1.9,0.2-3.2,0.2-4,0.3c-0.8,0.2-2.9,1-2.9,1
			s-0.5,1.1-0.5,1.6c0,0.5,1.6,3,1.8,3.5c0.2,0.5,3.2,4.9,3.7,5.4c0.5,0.5,4.1,3.8,4.1,3.8s4,0.2,4.6,0.2c0.6,0,2.6-0.2,3.7-0.2
			c1.1,0,2.5-0.8,3.2-0.8c0.6,0,1.8,0,1.8,0s-0.6,4.1-0.3,5.1c0.3,1-0.3,3.2-0.5,3.8c-0.2,0.6-1.1,2.9-1.1,3.3
			c0,0.5-0.8,2.9-0.8,3.3c0,0.5-0.3,1.4-0.3,1.4s-1.3,5.4-1.8,6.2c-0.5,0.8-1.4,8.4-1.4,8.4l-0.3,2.1l-0.6,3.5c0,0-1.3,1.4-1.3,2.1
			c0,0.6-0.8,4.5-0.8,4.5s-1.4-1.4-1.1,1.4c0.3,2.8,0.6,1.1,0.3,2.8c-0.3,1.8,0.2,5.7,0.2,5.7l1,0.2l0.8,0.6l1.1,1.1l1,0.6
			c0,0,1.9,0.2,2.2,0.6c0.3,0.5,1.6,1,1.6,1l1.3,0.1l1.3-0.6c0,0,1.3-1.6,1.3-2.1c0-0.5,0-1.6-0.3-2.1c-0.3-0.5-0.9-2.2-0.9-2.2
			s0.8-1.3,1.3-1.4c0.5-0.2,1.3-0.6,1.3-2.9c0-2.2-0.3-2.5,0.2-3c0.5-0.5,1.3-0.5,1.3-1.1c0-0.6,1.1-2.1,1.1-2.5
			c0-0.5,0.9-2.7,0.9-2.7s0.3,0.8,0.3-0.6c0-1.4-0.6-4.3-0.6-4.3s1.9-0.6,1.9-1.7c0-1.1,0.2-1.6,0.2-2.1c0-0.5-0.2,0.3,0-1.1
			c0.2-1.4,0-1.6,0.2-2.2c0.2-0.6,0.3-0.3,0.9-1.1c0.6-0.8-0.2,0,1.1-1.4c1.3-1.4,1.9-2.1,1.9-2.1s0.9-0.8,0.9-2.1
			c0-1.3-0.3-0.5,0.6-2.7c1-2.2,1.3-3.2,1.4-3.7c0.2-0.5,0.3-0.6,0.2-1.6c-0.2-1-0.3-1.1-0.2-1.9c0.2-0.8,0.3-1.6,0.3-2.1
			c0-0.5,0.8-1,1.3-2.2c0.5-1.3,0.5-0.3,0.5-1.3c0-0.9,0.5-1.3,0.5-2.2c0-1,0.5-1.1,1.1-2.5c0.6-1.4,0.8-1.1,1.3-1.8
			c0.5-0.6,1.1-1.1,1.1-1.1s2.1-0.8,2.6-1.1c0.5-0.3,5.4-1.6,6-1.6c0.6,0,1.3,0,1.8,0c0.5,0,2.5,0,6.5,0c4,0,12.4-0.5,12.4-0.5
			s1.7,1.7,1.6,2.4c-0.2,0.6-0.6,2.2-0.6,2.7c0,0.5,0.5,2.9-0.1,3.8c-0.6,1-1.3,4-1.3,4s-0.6,1.9-0.6,2.4c0,0.5-0.5,1.8-1,2.1
			c-0.5,0.3-0.6,3.7-0.6,3.7l-1.1,4.1c0,0,0-0.2-0.2,0.8c-0.2,1-1.1,1.8-1.1,1.8s-0.9,5.1-1.4,5.9c-0.5,0.8-0.5,1-0.5,1.6
			c0,0.6,0.2,1.4,0.3,1.9c0.1,0.5,0.8,1.1,1.1,1.6c0.3,0.5,1.1,1,1.6,1.6c0.5,0.6,0.6,0.8,1.3,2.2c0.6,1.4,3.7,3,4,3.7
			c0.3,0.6,1.3,1.3,1.3,1.3s1.9-0.2,3.5-0.8c1.6-0.6,2.5-1.3,2.5-1.3s1.1,1.6,1.3-0.8c0.2-2.4,0.5-4,0.5-4s0.3-2.5,0.5-3.5
			c0.2-1,0.6-3.2,0.8-3.7c0.2-0.5,0.3,4,1.3-2.2c1-6.2,1-6.2,1-6.2s0.5-1.1,0.5-1.6c0-0.5,0-1.3,0-1.9c0-0.6,0.3-1.3,0.3-2.2
			c0-1,0.5-1.8,0.5-1.8l0.5-0.8c0,0,0.2-1.1,0.3-1.6c0.2-0.5,1-2.4,1.1-3c0.2-0.6,0.2-0.6,0.2-0.6s0.6-1,0.8-1.4
			c0.2-0.5,0.3-1,0.3-1.6c0-0.6,0.1-1.3,0.1-1.3s0,0,0.2-1c0.2-1-0.7,0,0.2-1c0.8-1,1-1.3,1.1-1.8c0.2-0.5,0.3-1,0.6-1.8
			c0.3-0.8,0.8-2.1,1-2.5c0.2-0.5,0.2-0.5,0.2-0.5l1-0.3l4.1-0.3l1.9-0.2c0,0,0-0.2,0-0.8c0-0.6,1.1,0.3-0.5-2.1
			c-1.6-2.4-1-1.3-1.6-2.4c-0.6-1.1-0.3-0.5-0.6-1.1c-0.3-0.6,0-1.3-0.3-1.7c-0.3-0.5,0.2-1.4-0.2-3.8c-0.3-2.4,0-3,0-3l0.9-0.5
			c0,0,0.6,0,0.8-0.5c0.2-0.5,1-3,1-3.7c0-0.6,0-0.6,0-0.6l0.5-1.9c0,0-0.3-0.5,0.3-1.1c0.6-0.6,0.8-0.8,1-1.3
			c0.2-0.5,0.8-1.4,1.3-2.1c0.5-0.6,0.6-1,0.8-1.5c0.2-0.5,0.6-1.7,1.1-2.5c0.5-0.8,0.6-0.2,0.5-1.8c-0.1-1.6-0.1-1.8-0.1-2.7
			c0-0.9,0.6-0.8,0-1.9c-0.6-1.1-1.3-1.4-1.4-2.2c-0.1-0.8-0.6-1.4-0.6-1.4l-2.2-2.1l-3.3-1.7l-1.6-0.8c0,0-0.3-0.3-0.8-0.3
			c-0.5,0-1,0.6-1.3,0c-0.3-0.6-0.6-1.4-0.6-1.4s1.3-1.6-0.8-1c-2.1,0.6-2.1,0.6-2.1,0.6l-0.3,1.7l-0.2,1.3l-1.1,1l-0.6,1.1
			c0,0-1.3,2.2-1.3,3.5c0,1.3,0.2,1.9,0,2.4c-0.1,0.5-2.1,3.7-2.4,4.1c-0.3,0.5-0.3,0.8-0.3,1.4c0,0.6-0.8,1.6-0.8,2.1
			c0,0.5-1.3,0.6-1.3,2.4c0,1.7,0,1.7,0,1.7s-1,1.7-1.1,2.7c-0.2,1-0.2,1.8-0.2,2.2c0,0.5-0.1,1.6-0.5,2.2c-0.3,0.6-1.6,1.9-1.6,1.9
			l-2.4,0.6L148.2,143.4z"/>
		<path class="st1" d="M179.9,203.9c-0.3,1.1-0.6,2.1-1,2.9c-0.3,0.8-0.5,1.3-0.5,1.9c0,0.6-0.2,0.9-0.2,1.6c0,0.6,0.2,2.2,0.2,2.2
			s-0.3,0.8,0,2.1c0.3,1.3,1,2.1,1.6,2.9c0.6,0.8,1.6,1.3,1.6,1.3l5.6,2.7c0,0,0-0.6,0.8,0c0.8,0.6,2.4,0.6,2.7,1.3
			c0.3,0.6,0.3,0.8,1.1,0.8c0.8,0,0.6,0.5,1.4-0.3c0.8-0.8,1.1-1.4,1.1-1.4s1-0.9,1.1-2.1c0.2-1.1-0.1-2.1-0.1-4c0-1.9,0-1.7,0-3.7
			c0-1.9,1.6-10.3,2.1-11.9c0.5-1.6,0.8-0.8,1.6-2.7c0.8-1.9,1.1-2.4,1.1-3.5c0-1.1-0.1-1.3,0.2-1.9c0.3-0.6,0,0.8,0.3-0.6
			c0.3-1.4,0.3-2.5,0.3-4.3c0-1.8-0.6-0.8,0-1.8c0.6-1,0.3-0.5,0.6-1c0.3-0.5-0.5,4.6,0.3-0.5c0.8-5.1,1.7-7.3,1.7-7.3
			s0.3-0.5,0.5-0.9c0.2-0.5,0.5,0.3,0.6-1.9c0.2-2.2,0.7-2.7,1-3.3c0.3-0.6,0.3-1.4,1.1-2.4c0.8-1,1.1-1.1,1.3-2.4
			c0.2-1.3,0-2.2,0.5-3.2c0.5-0.9,1.3-2.1,1.6-3.2c0.3-1.1,0.6-1.3,0.8-2.4c0.2-1.1,0-2.5,0.8-3.3c0.8-0.8,2.4-1.9,2.4-2.4
			c0-0.5,0-0.3,0-1.1c0-0.8-0.3-1.4,0.6-2.7c0.9-1.3,1.3-1.6,1.4-2.6c0.2-1,0,0.3,0.3-1.7c0.3-2.1,0.5-2.4,0.8-3.3
			c0.3-1,0.6-1.4,1-2.1c0.3-0.6-0.6,0.5,0.3-0.6c0.9-1.1,1.1-1.6,1.3-2.2c0.2-0.6,0.2-1,0.5-1.4c0.3-0.5,0.3,0.8,0.3-0.5
			c0-1.3,0-0.6,0-1.9c0-1.3,0.5-1.8,0.3-2.1l-1-1.7c0,0-1.1-1.3-1.8-1.8c-0.6-0.5-2.2-1-3-1.7c-0.8-0.8-4.1-1.7-4.1-1.7s-2.5,0-3,0
			c-0.5,0-1.4,0.3-1.8,1c-0.3,0.6-2.1,3.5-2.7,4.9c-0.6,1.4-1.4,3.8-2.2,5.1c-0.8,1.3,0-3.7-1.9,2.7c-1.9,6.4-3.2,8.9-3.2,9.4
			c0,0.5-1,1.9-1,1.9l-1.9,7c0,0-0.3,2.2-0.5,2.9c-0.1,0.6-4.1,10-4.5,11.8c-0.3,1.8-0.5,2.7-0.5,3.3c0,0.6-0.5,2.9-0.6,3.3
			c-0.2,0.5-1,3-1,4.1c0,1.1-0.5,2.9-0.5,3.3c0,0.5-0.6,2.2-0.6,2.2s-0.8,1.9-1.1,2.4c-0.3,0.5-1.1,2.1-1.1,2.5c0,0.5-0.8,3.5-0.8,4
			c0,0.5,0,2.5-0.3,3.3c-0.3,0.8-1.3,1-1.4,2.2C180.3,200.6,180.2,202.8,179.9,203.9z"/>
		<path class="st1" d="M336.5,241.6c1,0,1.4,0,1.4,0s-0.4-0.8-1.2-0.8c-0.7,0-1.4-0.1-1.6,0c0,0,0,0,0,0c0.1-0.3,0.2-0.5,0.2-0.5
			h1.1l-0.4-1.6l-1.3-0.9l-4,0.3c-2.1-1.6-4.1-4.8-4.8-3.4c-0.7,1.4,1.3,0.4-0.7,1.4c-1.9,1.1-1.9,1.1-1.9,1.1l-2.2-1.4
			c0,0-2.2-0.9-2.9-0.5c-0.7,0.4-0.7,0.4-0.7,0.4h-0.7c0,0,0.2-1.4-0.5-1.1c-0.7,0.4,0.2-0.5-0.7,0.4c-0.9,0.9-3.2,0.5-3.2,0.5
			s-1.1-1.6-1.4-0.5c-0.4,1.1,0,1.4,0,2.2c0,0.7,0.2,2.1,0.2,2.1s0.3,0.2,0.6,0.4l-2.6-1.5c0,0,0.2,0.2-0.7-0.5
			c-0.9-0.7-1.3-2-1.3-2l0.9-0.5l0.4-0.7c0,0-0.4-0.4-1.8-0.2c0.1,0,0-0.1-0.7-0.2c-2-0.2-2-0.2-2-0.2s-0.4-2.5-2.2-2.2
			c-1.8,0.4-2.5-2.3-1.8,0.4c0.7,2.7,2.3,1.3,1.3,3.6c-1.1,2.3-1.1,2.3-1.1,2.3l-0.7,1.4c0,0-1.2-4.3-2-5c-0.7-0.7-0.7-0.7-0.7-0.7
			s-0.7-1.1-1.3-0.5c-0.5,0.5-1.1,1.2-1.1,1.2s-0.7,0.4-0.9,0.9c-0.2,0.5-0.3,0.4-0.9,0.7c-0.5,0.4-0.3-2.3-0.9-1.6
			c-0.5,0.7-0.2,2-2,2.3c-1.8,0.4-1.1-2.7-2.2-0.9c-1.1,1.8-3.6-0.5-3.6-0.5s-1.8-2.3-3.8-1.6c-2,0.7-3.1-3.1-3.1-3.1
			s-3.4-1.2-2.9,0.2c0.5,1.4,0.7,0.3,0.5,1.4c-0.2,1.1-0.2,1.1-0.2,1.1l-5.7,0.9l-2.5-1.6c-1.1,1.6-1.1,1.6-1.1,1.6s0.4-2.5-4.5-1.1
			c-4.9,1.4-7.2,0.7-7.2,0.7l-1.1-1.4l-0.9-0.6l-7-0.3c0,0,1.8-1.8-0.7,0c-2.5,1.8-6.8,0.7-6.8,0.7s-4.8-1.1-6.3-0.5
			c-1.4,0.5,2.3-1.4-1.4,0.5c-3.8,2-4.5,1.6-4.5,1.6l-3.2,0.2l-0.9-0.5l-4.1-0.7c0,0-5,0-5.6,0c-0.5,0-0.5,0-0.5,0l-4.1,0.4
			l-3.4,0.4l-2.7,1.8l-3-1.3h-1.6c0,0-0.5-0.4-1.1-0.4c-0.5,0-5.6-0.7-5.6-0.7h-4.5l-2.3,0.7c0,0-4.7,0.9-5.2,0.9
			c-0.5,0-6.1-0.7-6.1-0.7l-1.8-0.2h-2.7h-6.1l-6.6-1.6l-3,2.9c0,0-3.1,0-3.6,0c-0.5,0-5.7-0.4-6.4-0.2c-0.7,0.2-2.7,0.4-2.7,0.4
			l-2-1.1l-0.7-0.7h-1.4c0,0-0.2-0.2-0.9,0.2c-0.7,0.4-6.6,0-6.6,0s-2.5-1.4-3.6,0c-1.1,1.4-3,1.6-3,1.6l-7.2-0.4c0,0,0.4-0.9-1.8,0
			c-2.2,0.9-5.7,0.2-5.7,0.2s-4.3-0.4-4.9-0.4c-0.5,0-0.9-0.4-1.6,0.5c-0.7,0.9-0.7,0.9-0.7,0.9h-3.8l-2,0.5l-1.1,0.2h-1.1
			c-2.3,0.4-8.4,0.4-8.4,0.4s-2.3-0.7-2.5,0.2c-0.2,0.9,0.9,0.2-0.2,0.9c-1.1,0.7-3.4,0.2-4.1,0.2c-0.4,0-0.6,0-0.7,0
			c-0.1,0-0.1,0-0.1,0c-0.1,0-0.6,0-2,0c-2.5,0-9.3-2-9.3-2h-0.7h-1.1l-2.5,0.7l-3.4,0.9l-1.1,0.4h-3.4h-3h-1.8h-0.9l-4.1-0.9
			c0,0-0.4-0.2-2.5,0.4c-2.2,0.5-2.2,0.5-2.2,0.5h-4.5L30,238c0,0-0.5-0.5-1.1-0.2c-0.5,0.4-4.5,1.3-4.5,1.3l-0.9-0.7l-3.8-1.2
			l-2.5,0.2l-2.5,0.2c0,0-3.2,0.2-3.8,0.9c-0.5,0.7-0.9,0.9-1.4,1.4C9,240.3,8.7,241,8.7,241s-0.4,0.5-1.3,0.9
			c-0.9,0.4-0.9,0.4-0.9,0.4s-0.2,0.2-1.4,1.8c-1.3,1.6-1.6,2.2-1.8,2.7c-0.1,0.4-0.5,0.9-0.5,1.2c0,0,0.2,0.2,0.7,0.7
			c1.6,1.6,1.6,1.6,1.6,1.6s0.5,1.6,2.3,1.6c1.8,0,2.2,0.2,2.7,0.2c0.5,0,0.7-0.2,1.6,0c0.9,0.2,1.6,0.2,2.7,0.2c1.1,0,0.4,0,2.2,0
			c1.8,0,2.2,0,4.5,0.2c2.3,0.2,3,0.2,4.8,0.2c1.8,0,5.6,0,6.3,0c0.7,0,2.2-0.5,2.7-0.5c0.5,0,3.6,0,3.6,0s0.4-0.4,1.1-0.4
			c0.6,0,4.2-0.1,5.5,0c0.3,0,1,0,2.5,0c5,0.2,8.1,0.2,8.1,0.2s0.9-0.2,1.4,0c0.5,0.2-1.1-0.9,4.1-0.5c5.2,0.4,6.4,0,6.4,0l4.8-0.7
			l4.7-0.7h1.3c0,0,2.2,0.5,2.9,0.5c0.7,0,5.2-0.7,5.7-0.5c0.5,0.2,2,0.9,2.5,0.7c0.5-0.2,3.4-0.5,3.4-0.5l4.3,0.4
			c0,0,2.5-0.7,3-0.4c0.5,0.4,3.2,0.4,3.2,0.4l4.7-0.4l4.1,0.9c0,0,2.3,0,3.1,0c0.7,0,3.9-0.2,3.9-0.2s-0.4-1.3,1.4-1.3
			c1.8,0,4.5,0.4,4.5,0.4s0-1.1,2.7-0.2c2.7,0.9,3.8,0.7,3.8,0.7l2.5-0.4l0.5,1.1l1.8,1.3l4.3-0.9l3.1-1.3h2.9c0,0,2.1-0.4,3-0.2
			c0.9,0.2,5,0.4,5,0.4l2.7-0.2c0.7,1.1,5,2.2,5,2.2l0.9,0.2l3.8-1.8h2.3l5.6-0.9h0.7l1.8,0.7h2l1.6-0.7l6.3,0.4l3.4-0.7h3.4
			l3.9-0.2c0,0,0-0.7,3.1,0c3,0.7,8.4,0.7,8.4,0.7l4,0.2h5l5.2-0.2c0,0,6.5,0.2,7.2,0c0.7-0.2,6.8-0.7,6.8-0.7h5.2l2,0.4l3.1-0.4
			c0,0,4.1-2,5.2-0.9c1.1,1.1,1.6,0.5,1.1,1.1c-0.5,0.5,4.1-2,4.1-2l1.4,0.2c0,0,0.9-1.1,2.7-0.4c1.8,0.7,1.8,0.7,1.8,0.7l1.6-0.4
			l5.7-0.2c0,0,0.2-0.2,0.9-0.4c0.7-0.2,2.3,0.5,2.3,0.5l1.8,0.2c0,0-2.2-2,0.2-1.3c2.3,0.7,1.2,0.7,2.3,0.7c1.1,0,3.4,0,3.4,0
			l1.1-0.2c0,0,0.5-1.4,1.6-1.1c1.1,0.4,2.5,0.4,2.5,0.4v-0.7l3,0.4c0,0,1.3-1.3,2-1.3c0.7,0,4.5-0.2,4.5-0.2c2,0.9,2.3,0.9,2.9,0.9
			c0.5,0,3.6-1.4,3.6-1.4s-0.9-2,0.7-1.3c1.6,0.7,1.3,0.5,3,0.7c1.8,0.2,3.8,0.2,5.9,0.2c2.2,0,4.9,0,4.9,0l0.5-0.9
			c0,0,0-1.4,0.5-0.9c0.5,0.5,1.3,0.5,2.3,0.9c0.6,0.2,1.5,0.1,2.2,0c0,0.1,0,0.1,0,0.2c0,0.3,0.5,0.9,0.6,1c0.1,0,0.4,0.1,3.5,0.1
			c3.1-0.1,0.8-0.4,0.8-0.5c0-0.2,0-0.8,0-1c-0.1-0.2-1-0.8-1.1-0.8c-0.2-0.1-1-0.1-1.1-0.1c0,0-0.7-0.1-1.1-0.1l-1.2-2.2
			c0.1,0,0.4-0.1,0.8-0.2c1.3-0.5,4.1-1.1,4.8-1.1l0.2,1.1c0,0-0.7,0.9,0,0.9c0.7,0,0.5-0.7,0.7,0c0.2,0.7,0.2,0.7,0.2,0.7
			s0,0.2,0.5,0.7c0.1,0.1,0.1,0.1,0.2,0.2c0,0.1,0,0.1,0,0.2c-0.1,0.5-1.4-0.9-0.3,1c1.1,2,1.5,1.9,1.7,1.9c0.3,0,0.8,0.1,1,0.1
			c0.1,0,0.5-0.2,0.6-0.3c0.1-0.1,0.5-1,0.4-1.4c-0.1-0.4-0.2-0.6,0-0.7c0.2-0.1-0.2-0.5,0-0.6C335.5,241.7,335.5,241.6,336.5,241.6
			z"/>
		<path class="st1" d="M16.1,206.4l1.3,1.7l1.5,0.7l0.9,0.6l1.3,1.1l1.7,1.5c0,0,0,0.2,0.9,0.2c0.9,0,1.9,0,1.9,0l1.5-0.4
			c0.9-1.1,1.5,0,1.9-1.5c0.4-1.5,1.1-3.2,1.3-3.9c0.2-0.6-0.4,0.9,0.2-0.6c0.6-1.5,2.2-3.7,2.2-3.7s-0.2,3.2,1.7-1.5
			c1.9-4.7,1.9-4.7,1.9-4.7s0.7-0.6,1.3-1.5c0.6-0.9,1.5-2.2,1.5-2.2l0.2-1.1c0,0,0-0.2,0.2-0.9c0.2-0.6,0.6-1.7,1.3-2.4
			c0.7-0.6-0.2,0.9,0.7-0.6c0.9-1.5,2.4-4.5,2.4-4.5l0.9-1.1l1.7-1.3l0.6-1.9l1.5-1.3l0.2-0.9c0,0,0.4,0.2,0.9-0.6
			c0.4-0.9,1.1-0.6,2.8-2.1c1.7-1.5,1.7-1.5,1.7-1.5l1.7-1.7v-1.9c0.6-1.7-0.2-1.7,0.9-2.6c1.1-0.8,1.1-0.8,1.1-0.8l1.5-1.1
			c0,0,0.6,0.2,1.1-1.1c0.4-1.3,1.3-1.9,1.3-2.6c0-0.6,3-4.1,3-4.1l0.9-0.4c0,0,0,0,0.6-0.9c0.6-0.8,1.5-1.3,1.7-2.6
			c0.2-1.3,0.9-1.1,1.5-1.9c0.6-0.9,0.6-0.2,1.5-0.9c0.9-0.7,1.3-1.9,1.3-1.9s0.4-0.2,1.1-0.6c0.6-0.4,2.8-2.6,2.8-3.2
			c0-0.6,1.3-3.2,1.3-3.2s-0.2-0.9,0.4-1.1c0.6-0.2,1.5-1.1,1.5-1.1l1.5-1.5c0,0,0.2,0.2,0.7-0.9c0.4-1.1-0.9,2.4,0.4-1.1
			c1.3-3.5,1.3-3.5,1.3-3.5s2.1-0.9,2.6-1.5c0.4-0.7,1.9-2.2,2.2-2.8c0.2-0.6,0.2-0.6,0.2-0.6s-0.2,0.2,0.9-1.1
			c1.1-1.3,1.5-1.7,1.9-2.4c0.4-0.7,0.4-0.7,0.4-0.7s0.2-0.6,0.9-1.9c0.6-1.3,1.5-1.9,1.7-2.6c0.2-0.7,6.9-8.6,6.9-8.6l3.7-4.3
			c0,0,1.1-2.4,1.9-3c0.9-0.6,1.5-1.7,1.5-1.7s-0.9,0.4,1.1-1.5c1.9-1.9,6.5-6.7,6.5-6.7l3.9-3l0.9-2.4l1.1-0.9c0,0,0.9,0,1.1-0.9
			c0.2-0.9-1.3,0.6,0.2-0.9c1.5-1.5,1.3,0.2,1.5-1.5c0.2-1.7,1.3-2.6,2.6-3c1.3-0.4,2.8-1.1,2.8-1.1l1.1-2.8l1.1-1.1
			c0,0,0.9,0,1.1-0.6c0.2-0.6,0.2-0.6,0.2-0.6s0.7-2.2,1.3-2.4c0.6-0.2,0.6-0.2,0.6-0.2s1.9-0.6,1.9-1.3c0-0.6-0.4-1.9,0.4-2.4
			c0.9-0.4-0.4,0.9,0.9-0.4c1.3-1.3,1.9-2.2,1.9-2.2s0.4-0.6,1.3-1.7c0.9-1.1,2.4-2.8,2.6-3.4c0.2-0.6,1.3-1.1,1.3-1.1l1.5-3.2
			c0,0,1.5-1.3,1.7-1.9c0.2-0.6,1.3-1.7,1.7-2.6c0.4-0.9,1.3-2.8,1.3-2.8s-0.2-0.6-1.1,0c-0.9,0.6-0.6-0.4-0.9,0.6
			c0,0.1,0,0.2-0.1,0.3h-0.4l-1.9,1.2l-0.6,0.8h-1.4h-1.5l-0.9,0.2l-1.9,0.6c0,0-1.1-0.2-1.3,0.2c-0.1,0.2-0.3,0.5-0.6,0.8l-3,1.1
			l-0.2,1.5l-0.2,1.1l-1.9-0.9c0,0-2.2-0.9-2.2,0c0,0.9,1.3,1.3,1.3,1.3l-1.1,0.3l-0.8,0.4c0,0-0.8-0.6-0.9,0.3l-1.1,0.6l-1.9,1.3
			c0,0,0.2,0.7-0.4,0.9c-0.6,0.2-0.6,0.2-0.6,0.2l-2.8,1.3h-0.9l-0.4,1.5c0,0-2.6,1.3-1.7,1.7c0.2,0.1,0.3,0.1,0.4,0.2l-1.6,0.9
			c0,0-0.2,0.6-0.6,1.2c-0.4,0-0.7,0-1,0.2c-0.6,0.4-2.2,0.2-2.2,0.9c0,0.6-1.3,1.1-0.9,1.9c0.1,0.1,0.1,0.3,0.2,0.6l-0.2,0.4
			l-1.1,2.3l-0.8,1.4c0,0-1.1,0-1.3,0.4c0,0-0.2-0.6-0.9,0c-0.1,0.1-0.2,0.2-0.3,0.2c-0.6,0.1-1.2,0.3-1.6,0.9
			c-0.1,0.1-0.2,0.2-0.2,0.4c0,0.1-0.1,0.1-0.1,0.2c-0.4,0.4-1.6,0.7-1.6,2.4c0,0.4,0,0.8,0,1.1l-0.7,1l-1.2,1.1
			c0,0-1.4,1.1-1.3,1.2c0,0-0.6,0-1.3,0.4c-0.6,0.4-1.7,0.6-1.7,0.6l-1.1,1.1l-0.4,0.9c0,0,0.9-0.4-0.4,1.3
			c-1.3,1.7-1.3,1.7-1.3,1.7l-3.2,3.2L92,94.6l-0.6,2.2L89.8,98l-1.1,0.6c0,0-1.5-0.2-1.9,0.4c-0.3,0.4-1.2,2.2-1.7,3.3
			c-0.1,0-0.4,0.4-1.5,1.7c-2.6,3.2-2.6,3.2-2.6,3.2l-1.3,1.1c0,0-2.2,1.1-2.2,1.9c0,0.9-0.4,0.4-1.1,1.7c-0.6,1.3-1.5,1.1-1.7,2.2
			c-0.2,1.1-1.9,0.6-2.8,2.1c-0.9,1.5-2,0.9-2,1.9c0,0.4,0.1,0.9,0.2,1.5c-0.4,0.5-0.6,0.8-0.9,1c-0.5,0.3-0.5,0.9-0.5,0.9
			s-1,1-1.4,1.5c-0.3,0.5-1.5,0.9-1.5,0.9l-0.1,0.7c0,0-1.1,1.2-2.2,2.5c-0.4,0.1-0.8,0.4-0.8,0.7c0,0.2,0,0.3,0,0.3
			c-0.5,0.7-1,1.4-1.3,1.9c-1,1.9,0,0-0.5,0.7c-0.5,0.7-0.7,1.2-0.7,1.2l-0.2,0.2c-0.9,0.1-2.2,0.4-2.1,1.9c0,0.2,0,0.5,0,0.7
			l-0.3,0.5l-1.7,1.2c0,0-0.9,1.4-1.5,1.7l-0.1,0.1c-0.5,0.2-0.2,0.8-0.2,1.6c0,0.1,0,0.3,0,0.4l0,0.2c-0.2,0.7-1.2,0.4-1.2,0.4
			s0,0-2.2,2.9c-2.2,2.9-0.9,1.7-0.9,1.7l-0.7,0.9c0,0-0.5,0.7-1,1.7c-0.2,0.5-0.5,0.7-0.8,0.9c-0.4-0.1-1,0-1.2,0.4
			c-0.4,0.7-1.3,1.3-1.3,1.3l-1.4,1.4c0,0-1.6-0.2-1.3,0.9c0.2,0.5-0.2,1.3-0.7,2.1c-0.2,0.2-0.2,0.3-0.2,0.3s0,0,0,0.1
			c-0.4,0.7-0.7,1.4-0.7,1.9c0,1.3-1.2,2.9-1.2,2.9s-3.8,1.4-3.8,2.1c0,0.7,0,1.8,0,1.8l-2,2.1l-0.9,1.3l-2.1,0.5l-0.5-3.2l-0.4-2.5
			l-0.2-3.6c0,0,0-5,0-6.6c0-1.6,0-1.6,0-1.6s0.5-0.5,0.5-2c0-1.4,0-1.2,0-2.9c0-1.6-0.2-3.4-0.2-4.7c0-1.2,0.2-2,0-2.5
			c-0.2-0.5-0.4-0.7-0.4-1.8c0-1.1,0-0.9,0-2.2s0-1.4,0.2-2.7c0.2-1.3,0.4-1.4,0.4-2.7c0-1.3,0.2-1.6,0.2-2.3c0-0.7-1.1-3.2-1.1-3.2
			l-0.2-1.3l-0.9-2l-2.3-1.8c0,0-1.1-1.3-1.6-1.4c-0.5-0.2-2.7-1.3-2.7-1.3l-1.4-1.1l-0.7-0.7l-1.4-0.9l-1.1-0.4h-1.3
			c0,0-1.8,73.8,0,90.6L16.1,206.4z M121,65.1L121,65.1c-0.1,0-0.1,0-0.2-0.1C121,65.1,121,65.1,121,65.1z"/>
		<path class="st1" d="M223.3,161.9c0.5,1.3,0,1.4,0.3,2.5c0.3,1.1,0.5,1,0.5,1.8c0,0.8,0.3,0.3,1.1,1.6c0.8,1.3,1.3,2.4,1.3,2.4
			c-1.4,0.8-2.1-0.5-2.2,0.3c-0.2,0.8,0.6,0.9,1,2.4c0.3,1.4,0.6,0.2,1.1,3.7c0.5,3.5,0.8,4.1,1.3,5.9c0.5,1.8,0,2.2,1.6,3.5
			c1.6,1.3,0.3,0.6,2.7,2.4c2.4,1.7,3,2.2,5.3,3.3c2.2,1.1,6.1,3.2,6.7,3.7c0.6,0.5,2.7,1.8,4,2.6c1.3,0.8,1.8,1,3.8,1
			c2.1,0,5.3,0.1,6.2,0.1c1,0-0.3-0.3,3-0.5c3.3-0.2,6.4-0.5,7.5-0.5c1.1,0,4.8-1.6,6.7-2.2c1.9-0.6,1.9-0.6,1.9-0.6s0,0,0,0
			c1.4-0.4,2.6-0.9,3.6-1.3c0.2,0,0.3-0.1,0.4-0.2c0.2-0.1,0.4-0.2,0.6-0.3c0.1,0,0.3,0.1,0.5,0.1c0.8,0.2-0.5,0,0.8-0.6
			c1.3-0.6,2.7-1.1,2.7-1.6c0-0.4,0.7-1.4,1.1-2c0.2-0.2,0.4-0.4,0.5-0.5c0.1-0.1,0.3-0.3,0.5-0.5c0.8-0.8,1.7-1.6,2.7-2.5
			c0.4-0.3,0.7-0.6,1.1-1l2.9-0.5l-0.2-0.8v-0.8c0,0,1.1-1,1.8-1.4c0.6-0.5,2.1-0.3,2.1-1.3c0-0.9-1.8,0.6,0-0.9
			c1.7-1.6,1.7-1.6,1.7-1.6l0.6-1.6c1.4-1.6,2.7-3.2,3.5-4.4c0,0,0.1-0.1,0.1-0.1c1.3-0.2,2-0.4,2-0.4s0.3-0.2,1-0.3
			c0.6-0.2,1.3,1.6,1.3-1c0-2.6,0.2-2.6,0.2-3.5c0-1,0-0.6,0.6-1.4c0.6-0.8,0.2,2.4,1.3-1.4c1.1-3.8,1.6-3.8,2.1-4.1
			c0.5-0.3,0.5-0.3,0.5-0.3l0.9-1c0,0,0.8-0.3,0.8-1c0-0.6,0-0.9,0-1.7c0-0.8-0.2,0.3,0-0.8c0.1-1.1,0.8-2.2,0.8-2.2
			s-1.4-0.2-2.5-0.2c-1.1,0-1.1,0-1.1,0s-1.1-0.5,0.3-1.1c1.4-0.6,2.1-0.6,2.1-0.6l1,0.2c-1-0.8-1.4-1.7-1.4-1.7l1.8-1l0.8-0.5
			c0,0-4.6,0-3.2-1c1.4-0.9,2.1-0.9,2.1-0.9s1.8-0.2,1.1-0.2c-0.6,0-3-0.6-1.1-1.3c1.9-0.6,1.9-0.6,1.9-0.6s-0.6-1.7,0.5-0.9
			c1.1,0.8,0.9-1,0.9-1l-0.8-1c0,0-1.4-1.3-1.7-0.2c-0.3,1.1,0-0.6,0-0.6l1.3-0.6h1.1c1,0.5,1.3-0.3,1.3-0.3s1.3,0,0.8-1.3
			c-0.5-1.3-1.1-1.6-1.1-1.6c0-0.8,1.3-1.7,1.3-1.7s0.2-0.2,0.2-0.8c0-0.6-0.3,0,0-0.6c0.3-0.6,0.5-1.4,0.5-1.4
			c-0.3-0.8-0.3-0.8-0.3-0.8s-0.2-1.1-0.2-1.7c0-0.6,0.5,0,0-0.6c-0.5-0.6-1.1-0.2-0.5-0.6c0.6-0.5,0.6-0.6,0.6-1.1
			c0-0.5-0.3,0.3,0-0.5c0.3-0.8,1.4,0.3,0.3-0.8c-1.1-1.1,0.5,0.2-1.1-1.1c-1.6-1.3-1.6-1.3-1.6-1.3s-0.2-0.5,0.2-1.8
			c0.3-1.3,0.3-1.3,0.3-1.3c-0.6-0.6-1.3-0.6-1.3-0.6s-0.9-0.3-0.9-0.8c0-0.5,0-1.3,0-1.3s-0.5-0.5-1.3-1.3
			c-0.8-0.8-2.1-1.4-2.9-2.7c-0.8-1.3-2.2-2.7-3.2-3.5c-1-0.8-2.1-0.8-2.5-1.3c-0.5-0.5-3.8-1.9-3.8-1.9s-4.5-1.9-5.3-2.2
			c-0.8-0.3-3.7-2.1-4.3-2.2c-0.6-0.2-2.5-0.3-3.2-0.3c-0.6,0-4,0.2-4,0.2s-3.8,1.8-4.1,2.2c-0.3,0.5-2.9,3.2-2.9,3.2
			s-2.1,0.6-2.7,0.8c-0.6,0.2-3.3,0.8-3.3,0.8l-1.6,1.6h-2.1c0,0-4.1,0.2-4.8,0.2c-0.6,0-1.1,0.1-1.7,0.6c-0.6,0.5-3.8,0.8-4.3,1.3
			c-0.5,0.5-0.8,1-1.4,1.3c-0.6,0.3-1.9,0.2-2.4,0.6c-0.5,0.5-2.4,1.4-3,2.2c-0.6,0.8-3.3,4-3.3,4v1.4l-0.3,1.6l-0.3,0.8
			c0,0-0.2-0.6-0.8,0.3c-0.6,1-1.8,1.1-1.8,1.1l-3.7,2.6c0,0-0.5-0.8-0.8-0.2c-0.3,0.6-0.6,1.4-0.6,1.4l-0.3,1.3v0.6
			c0,0,0.2,0.3,0.2,1.1c0,0.8,0,0.8,0,0.8l-2.4,1.3c0,0-0.5,0.3-1,0.6c-0.5,0.3-1.9,0.6-1.9,1.1c0,0.5,0,0.5,0,0.5s-0.5,0.8-1,1.7
			c-0.5,1-1.3,1.6-1.3,1.6l-0.8,1.1c0,0-0.8,0.2-0.8,0.6c0,0.5-0.6,2.4-0.6,2.9c0,0.5-0.2,1.3-0.2,1.7c0,0.5-0.3-0.6-0.5,1.1
			c-0.1,1.8-0.3,1.6-0.5,2.7c-0.2,1.1-0.8,1.9-1.1,2.4c-0.3,0.5,0.6,1.1-0.3,0.5c-1-0.6,0-1.4-1-0.6c-1,0.8-1.3,1.4-1.4,2.4
			c-0.2,0.9-0.5,1.3-0.3,1.9c0.2,0.6,0.8,0.2,0,1.8C224.3,160,222.9,160.6,223.3,161.9z M241.5,176.8c0,0,0.8-0.1,0.9-0.6
			c0.2-0.5,0.3-2.1,0.3-2.9c0-0.8,0.1-1.6,0.1-3c0-1.4-0.3-4.6-0.3-4.6s0,0,5.7-13.1c5.7-13.1,18.6-21.2,20.9-22.4
			c2.2-1.3,2.9-1,4.2-1.9c1.3-1,3.2-1.8,4.4-2.7c1.3-0.9,2.7-1.4,3.7-1.9c0.9-0.5,4.8-2.5,6.1-3c1.3-0.5,2.5-0.8,3-1
			c0.5-0.2,2.1,0,4.9-0.2c1.7-0.1,2-0.1,2-0.1l3.3-0.7l-0.2-0.3c0,0,0,0,1.1,1.1c1.1,1.1,0,0,0,0.5c0,0.5,0.5,0.8,0.6,1.3
			c0.2,0.5,0.2,0.9,0.3,1.4c0.2,0.5,0,1.3,0,2.2c0,1,0,1.7,0,1.7s0.2,0.8-0.3,2.4c-0.5,1.6,0,0,0,0.5c0,0.5,0,1.9,0,2.7
			c0,0-1.6,6.4-6.7,16.9c-5.1,10.5-7.6,10.3-12.7,17.2c-5.1,6.8-2.5,2.5-3,3c-0.5,0.5-1.7,1.9-4,4.3c-2.2,2.4-1.8,1.6-4.3,3.3
			c-2.5,1.7-2.9,1.3-3.3,1.6c-0.5,0.3-1.1,0.6-5.9,3.4c-4.8,2.7-3.2,1.1-4.1,1.6c-0.9,0.5-5.7,0.9-5.7,0.9s-2.5-0.6-3.5-0.9
			c-1-0.3-1.9-0.8-2.7-1c-0.8-0.2-1,0-2.4-0.8c-1.4-0.8-0.5-0.8-0.8-1.6c-0.3-0.8-0.8-0.5-1.1-1c-0.3-0.5-0.8-0.5-0.8-1
			C241.2,177.8,241.5,176.8,241.5,176.8z"/>
	</g>
	<g>
		<path class="st2" d="M427.7,111.9l-5.9,18.3c-0.2,0.6-0.2,0.9-0.2,1.3c0-0.4-0.2-0.9-0.3-1.3l-6.2-18.3h-5.7l10.1,27.9h3.6
			l10.1-27.9H427.7z"/>
		<path class="st2" d="M441.1,111.9l-9.8,27.1h5.4l2.2-6.7h9.1l2.1,6.7h5.4l-9.8-27.1H441.1z M440.3,127.9l3.1-9.8l3.2,9.8H440.3z"
			/>
		<polygon class="st2" points="464.5,111.9 459.3,111.9 459.3,138.9 475.6,138.9 475.6,134.6 464.5,134.6 		"/>
		<polygon class="st2" points="484.8,111.9 479.6,111.9 479.6,138.9 495.9,138.9 495.9,134.6 484.8,134.6 		"/>
		<path class="st2" d="M526.3,111.9h-10.1v27.1h10c4.9,0,8.5-1.3,11-4c2.4-2.5,3.7-6,3.7-9.6c0-3.5-1.3-7-3.7-9.5
			C534.6,113,531.4,111.9,526.3,111.9z M525.8,134.4h-4.1v-18h4.1c3,0,5.1,0.5,6.5,1.6c1.9,1.4,3.1,4.3,3.1,7.3
			C535.4,131.1,531.9,134.4,525.8,134.4z"/>
		<path class="st2" d="M547.2,111c-1.3,0-1.9,0.2-3.5,0.9l2.3,5.5c-0.1,1.3-0.2,1.7-0.7,3c-0.5,1.4-0.7,1.8-1.3,3.1h3
			c2.1-3.1,3.4-6.6,3.4-9.1C550.5,112.1,549.5,111,547.2,111z"/>
		<polygon class="st2" points="575.1,122.7 561.2,122.7 561.2,111.9 556,111.9 556,138.9 561.2,138.9 561.2,127.3 575.1,127.3 
			575.1,138.9 580.2,138.9 580.2,111.9 575.1,111.9 		"/>
		<polygon class="st2" points="592.8,127.3 602.1,127.3 602.1,122.9 592.8,122.9 592.8,116.3 604.1,116.3 604.1,111.9 587.6,111.9 
			587.6,138.9 604.7,138.9 604.7,134.6 592.8,134.6 		"/>
		<path class="st2" d="M622.2,124.7c2.1-0.1,3.2-0.6,4.4-2c1-1.2,1.6-2.7,1.6-4.3c0-1.8-0.8-3.7-2.1-4.8c-1.5-1.4-3.2-1.8-6.8-1.8
			h-9.8v27.1h11c5.4,0,8.4-2.5,8.4-7.2C628.9,127.5,626.3,124.8,622.2,124.7z M614.9,116h3.4c2.6,0,4.2,1.3,4.2,3.4
			c0,2.3-1.6,3.5-4.5,3.5h-3.1V116z M621.4,134.3c-0.8,0.4-1.5,0.5-3.1,0.5h-3.4v-7.5h3.4c3.2,0,5,1.4,5,3.8
			C623.2,132.5,622.5,133.7,621.4,134.3z"/>
		<path class="st2" d="M651.1,124.8c1-1.3,1.5-3,1.5-5.1c0-2.5-0.7-4.5-2.2-5.9c-1.6-1.5-3.4-2-7.3-2h-9v27.1h5.2v-10.8h2.6
			l6.2,10.8h5.7l-6.7-11.6C649.1,126.7,650.1,126.1,651.1,124.8z M642.5,123.7h-3.4v-7.5h3.4c3.4,0,4.7,1,4.7,3.6
			C647.3,122.6,645.8,123.7,642.5,123.7z"/>
		<path class="st2" d="M669.9,111.4c-8.6,0-14.4,5.7-14.4,14c0,8.2,5.9,14.1,14.4,14.1c8.4,0,14.4-5.8,14.4-14.1
			C684.3,117,678.5,111.4,669.9,111.4z M669.9,135c-5.1,0-8.9-4.1-8.9-9.6c0-5.5,3.8-9.6,8.9-9.6c5.1,0,8.9,4.1,8.9,9.6
			C678.8,130.9,675,135,669.9,135z"/>
		<path class="st2" d="M707.9,111.9V132l-0.2-0.5l-0.2-0.7c0-0.1-0.1-0.2-0.2-0.5c-0.1-0.3-0.2-0.5-0.3-0.6l-11.4-17.8h-5.9v27.1
			h4.9v-19.9c0.1,0.5,0.2,0.6,0.4,0.9c0,0,0.2,0.2,0.3,0.6c0.3,0.6,0.5,0.9,0.6,1.1l11.6,17.5h5.4v-27.3H707.9z"/>
	</g>
	<g>
		<path class="st3" d="M345.7,110v68.5h39.2V110H345.7z M370.2,154.9l-6.4-13.8h-2.8v13.8h-8v-37.1h14.2c7.1,0,11.6,5,11.6,11.6
			c0,5-2.7,8.8-7.1,10.5l7.3,15H370.2z"/>
		<path class="st3" d="M365.6,125h-4.7v9h4.7c3.3,0,5.1-1.9,5.1-4.5C370.7,126.7,368.9,125,365.6,125z"/>
	</g>
</g>
</svg>
