<svg width="129" height="61" viewBox="0 0 129 61" fill="none" xmlns="http://www.w3.org/2000/svg">
<g style="mix-blend-mode:luminosity">
<path d="M5.22266 30.3161C5.22266 17.146 14.8619 6.46289 27.0533 6.46289C32.1773 6.46289 37.1441 8.47409 41.0705 12.1288V15.8052C37.4582 11.5666 32.4325 9.18774 27.1711 9.18774C16.4717 9.18774 8.12818 18.6166 8.12818 30.2296C8.12818 41.8426 16.4914 51.2715 27.1711 51.2715C32.4325 51.2715 37.4779 48.8926 41.0705 44.654V48.4818C37.1638 52.1581 32.1969 54.1477 27.0533 54.1477C14.8619 54.1477 5.22266 43.4862 5.22266 30.3161Z" fill="#6F6F6F"/>
<path d="M104.505 23.7419H108.176V22.0334H99.2242V23.7419H102.856V38.5772H104.525V23.7419H104.505ZM91.2144 22.0334H92.8831V38.5772H91.2144V22.0334ZM65.9089 33.8844H59.4893L57.6831 38.5772H55.8574L62.4733 22.0334L62.7874 21.2549L63.1015 22.0334L69.5408 38.5772H67.6954L65.9089 33.8844ZM65.2414 32.1759L62.7285 25.5584L60.1567 32.1759H65.2414ZM76.6868 23.7419V29.689H78.7874C80.7114 29.689 82.0463 28.7158 82.0463 26.6181C82.0463 24.5204 80.4954 23.7635 78.7678 23.7635H76.6868V23.7419ZM80.6525 31.073L84.304 38.5772H82.3604L78.9445 31.3109H76.6868V38.5772H75.0181V22.0334H78.9837C81.4574 22.0334 83.715 23.2877 83.715 26.5965C83.715 29.2565 82.2034 30.554 80.6525 31.073ZM114.203 38.5772H122.331V36.8687H115.872V30.381H121.408V28.6726H115.872V23.7635H122.076V22.0551H114.203V38.5772ZM118.974 16.0215L116.598 19.6114L117.6 20.2169L120.643 16.8433L118.974 16.0215ZM41.0745 28.7591H46.1788V30.4675H41.0745V38.5772H39.4058V22.0334H41.0745V28.7591ZM48.4365 22.0334H50.1052V38.5772H48.4365V22.0334ZM32.8095 23.3094C31.4942 22.2281 30.0218 21.7091 28.3727 21.7091C23.4844 21.7091 20.4414 25.7098 20.4414 30.381C20.4414 35.0305 23.5236 38.9232 28.3727 38.9232C29.9432 38.9232 31.5334 38.3393 32.8095 37.3229V35.117C31.6316 36.4146 30.0021 37.2796 28.3138 37.2796C24.6623 37.2796 22.2672 33.9709 22.2672 30.3377C22.2672 26.7262 24.623 23.3959 28.2745 23.3959C30.0021 23.3959 31.612 24.196 32.8095 25.5584V23.3094Z" fill="#6F6F6F"/>
<path d="M123.016 44.7402H109.902V48.7194H123.016V44.7402Z" fill="#C9C9C9"/>
<path d="M109.903 44.7402H96.7891V48.7194H109.903V44.7402Z" fill="#ACACAC"/>
<path d="M96.8094 44.7402H83.6953V48.7194H96.8094V44.7402Z" fill="#6F6F6F"/>
<path d="M83.6922 44.7402H70.5781V48.7194H83.6922V44.7402Z" fill="#CCCCCC"/>
<path d="M70.579 44.7402H57.4648V48.7194H70.579V44.7402Z" fill="#A4A4A4"/>
<path d="M57.4657 44.7402H44.3516V48.7194H57.4657V44.7402Z" fill="#6F6F6F"/>
</g>
</svg>
