<svg width="86" height="61" viewBox="0 0 86 61" fill="none" xmlns="http://www.w3.org/2000/svg">
<g style="mix-blend-mode:luminosity">
<path d="M53.3811 20.8565L49.0898 9.26562H51.4606L54.4194 17.4017L57.0291 9.26562H59.3171L55.5497 20.8565H53.3811Z" fill="#6F6F6F"/>
<path d="M72.2855 48.8113L68.1836 38.584H70.8999L75.0018 48.8113H72.2855Z" fill="#6F6F6F"/>
<path d="M7.19657 19.576C6.31939 20.5372 5.2649 20.8918 4.0891 20.8918C2.88531 20.8918 1.89614 20.4345 1.12161 19.6227C0.0111324 18.4562 0.039127 17.0098 0.039127 15.0128C0.039127 13.0158 0.0111324 11.5694 1.12161 10.4029C1.89614 9.59104 2.84798 9.13379 4.0891 9.13379C6.63667 9.13379 7.93378 10.8882 8.2324 12.8292H6.06743C5.82481 11.7373 5.19025 11.1401 4.0891 11.1401C3.5012 11.1401 3.02528 11.3827 2.71734 11.756C2.29741 12.2413 2.19476 12.7732 2.19476 15.0035C2.19476 17.2244 2.30674 17.7843 2.71734 18.2696C3.02528 18.6428 3.51053 18.8668 4.0891 18.8668C4.74232 18.8668 5.2649 18.6242 5.61951 18.2229C5.97411 17.803 6.11409 17.2804 6.11409 16.6832V16.2446H4.0891V14.3596H8.24173V16.0486C8.24173 17.719 7.97111 18.7268 7.19657 19.576Z" fill="#6F6F6F"/>
<path d="M15.4547 20.8917C13.1964 20.8917 11.4141 19.2866 11.4141 16.8324V9.23633H13.5604V16.7484C13.5604 18.0828 14.2976 18.876 15.464 18.876C16.6212 18.876 17.377 18.0828 17.377 16.7484V9.23633H19.5047V16.8324C19.5047 19.2773 17.713 20.8917 15.4547 20.8917Z" fill="#6F6F6F"/>
<path d="M26.083 20.8918C24.4126 20.8918 23.1435 20.5185 22.0703 19.3614L23.4607 17.8963C24.1606 18.6242 25.0938 18.8668 26.1203 18.8668C27.3894 18.8668 28.0706 18.3629 28.0706 17.439C28.0706 17.0284 27.9586 16.6925 27.7347 16.4685C27.52 16.2539 27.2681 16.1419 26.7642 16.0673L25.4391 15.8713C24.4966 15.722 23.806 15.4141 23.3114 14.9101C22.7889 14.3596 22.5276 13.613 22.5276 12.6425C22.5276 10.5802 23.9833 9.13379 26.3629 9.13379C27.8747 9.13379 28.9758 9.52572 29.9183 10.4869L28.5185 11.896C27.8187 11.1961 26.9881 11.1028 26.2603 11.1028C25.1125 11.1028 24.5619 11.7653 24.5619 12.5679C24.5619 12.8572 24.6552 13.1651 24.8885 13.3984C25.1031 13.613 25.4577 13.7903 25.9057 13.8557L27.2028 14.033C28.2106 14.1823 28.8452 14.4715 29.3024 14.9288C29.8903 15.5074 30.1516 16.3566 30.1516 17.3737C30.1609 19.6227 28.3786 20.8918 26.083 20.8918Z" fill="#6F6F6F"/>
<path d="M36.9424 11.2427V20.789H34.7961V11.2427H31.9219V9.23633H39.8165V11.2427H36.9424Z" fill="#6F6F6F"/>
<path d="M47.4248 20.7896L46.7809 18.7459H42.8709L42.2084 20.7896H39.9688L43.9721 9.22754H45.6611L49.6738 20.7896H47.4248ZM44.8679 12.643L43.4775 16.8422H46.2117L44.8679 12.643Z" fill="#6F6F6F"/>
<path d="M60.9336 20.789V9.23633H68.1844V11.2427H63.1172V13.9582H67.4285V15.9738H63.1172V18.7827H68.1844V20.789H60.9336Z" fill="#6F6F6F"/>
<path d="M6.72819 36.8866L4.25527 31.5862H2.47291V36.8866H0V23.5889H4.95515C7.53071 23.5889 9.06112 25.4366 9.06112 27.6575C9.06112 29.5239 7.97864 30.681 6.74685 31.1476L9.57437 36.8866H6.72819ZM4.80585 25.9031H2.47291V29.4119H4.80585C5.88833 29.4119 6.59754 28.684 6.59754 27.6575C6.59754 26.631 5.88833 25.9031 4.80585 25.9031Z" fill="#6F6F6F"/>
<path d="M21.3236 35.5429C20.4371 36.4761 19.3546 36.9987 17.9082 36.9987C16.4711 36.9987 15.3699 36.4761 14.4834 35.5429C13.205 34.1992 13.2423 32.5381 13.2423 30.2425C13.2423 27.9469 13.205 26.2859 14.4834 24.9421C15.3699 24.0089 16.4711 23.4863 17.9082 23.4863C19.3453 23.4863 20.4277 24.0089 21.3236 24.9421C22.602 26.2859 22.5834 27.9469 22.5834 30.2425C22.5834 32.5288 22.602 34.1898 21.3236 35.5429ZM19.4852 26.5005C19.1306 26.0712 18.5801 25.7913 17.8988 25.7913C17.227 25.7913 16.6577 26.0712 16.3031 26.5005C15.8272 27.0604 15.6965 27.6763 15.6965 30.2332C15.6965 32.7901 15.8179 33.406 16.3031 33.9659C16.6577 34.3951 17.227 34.6751 17.8988 34.6751C18.5801 34.6751 19.1306 34.3951 19.4852 33.9659C19.9612 33.406 20.1105 32.7901 20.1105 30.2332C20.1105 27.6763 19.9705 27.0604 19.4852 26.5005Z" fill="#6F6F6F"/>
<path d="M31.2034 36.9986C28.6092 36.9986 26.5469 35.1509 26.5469 32.3327V23.5982H29.0198V32.2301C29.0198 33.7605 29.869 34.675 31.2034 34.675C32.5379 34.675 33.4057 33.7605 33.4057 32.2301V23.5889H35.86V32.3234C35.8693 35.1416 33.807 36.9986 31.2034 36.9986Z" fill="#6F6F6F"/>
<path d="M43.8887 36.9987C41.9664 36.9987 40.5107 36.5694 39.2695 35.2443L40.8653 33.5646C41.6678 34.4045 42.7503 34.6844 43.9261 34.6844C45.3818 34.6844 46.1657 34.1059 46.1657 33.042C46.1657 32.5754 46.0444 32.1835 45.7738 31.9222C45.5218 31.6796 45.2418 31.549 44.6539 31.4556L43.1235 31.2317C42.0411 31.0637 41.2385 30.7091 40.6693 30.1305C40.0721 29.496 39.7641 28.6374 39.7641 27.5176C39.7641 25.1474 41.4345 23.4863 44.1687 23.4863C45.9137 23.4863 47.1735 23.9343 48.256 25.0354L46.6883 26.6591C45.8857 25.8566 44.9246 25.7446 44.094 25.7446C42.7783 25.7446 42.1344 26.5098 42.1344 27.4243C42.1344 27.7603 42.237 28.1149 42.5076 28.3762C42.7596 28.6188 43.1609 28.8241 43.6741 28.8987L45.1672 29.1227C46.3243 29.2907 47.0522 29.6266 47.5841 30.1492C48.256 30.8211 48.5639 31.7916 48.5639 32.9674C48.5826 35.5429 46.539 36.9987 43.8887 36.9987Z" fill="#6F6F6F"/>
<path d="M56.1192 36.9987C54.1969 36.9987 52.7411 36.5694 51.5 35.2443L53.1051 33.5646C53.9076 34.4045 54.9901 34.6844 56.1565 34.6844C57.6123 34.6844 58.3962 34.1059 58.3962 33.042C58.3962 32.5754 58.2748 32.1835 58.0042 31.9222C57.7523 31.6796 57.4723 31.549 56.8844 31.4556L55.354 31.2317C54.2715 31.0637 53.469 30.7091 52.8998 30.1305C52.2932 29.496 51.9946 28.6374 51.9946 27.5176C51.9946 25.1474 53.665 23.4863 56.3992 23.4863C58.1349 23.4863 59.404 23.9343 60.4865 25.0354L58.9281 26.6591C58.1255 25.8566 57.1644 25.7446 56.3338 25.7446C55.0181 25.7446 54.3742 26.5098 54.3742 27.4243C54.3742 27.7603 54.4768 28.1149 54.7474 28.3762C54.9994 28.6188 55.4007 28.8241 55.9232 28.8987L57.4163 29.1227C58.5735 29.2907 59.3013 29.6266 59.8332 30.1492C60.5051 30.8211 60.8131 31.7916 60.8131 32.9674C60.8131 35.5429 58.7694 36.9987 56.1192 36.9987Z" fill="#6F6F6F"/>
<path d="M1.49343 47.0114C1.06417 47.0114 0.709564 46.8527 0.429612 46.5541C0.0283473 46.1342 0.0470102 45.6209 0.0470102 44.9024C0.0470102 44.1932 0.037679 43.6706 0.429612 43.2507C0.700233 42.9614 1.05484 42.8027 1.49343 42.8027C2.23064 42.8027 2.79987 43.2413 2.93985 44.1092H2.16531C2.09066 43.7826 1.88536 43.5213 1.50276 43.5213C1.29746 43.5213 1.12016 43.6053 1.00818 43.7359C0.858871 43.9132 0.812211 44.1092 0.812211 44.9024C0.812211 45.6956 0.858871 45.8915 1.00818 46.0688C1.12016 46.1995 1.28813 46.2835 1.50276 46.2835C1.88536 46.2835 2.09066 46.0315 2.16531 45.6956H2.93985C2.79987 46.5728 2.22131 47.0114 1.49343 47.0114Z" fill="#6F6F6F"/>
<path d="M5.77435 46.9738L5.54105 46.2459H4.14129L3.908 46.9738H3.10547L4.53323 42.8398H5.13046L6.56755 46.9738H5.77435ZM4.85984 44.0623L4.36525 45.5647H5.34509L4.85984 44.0623Z" fill="#6F6F6F"/>
<path d="M9.39544 46.9742L7.83703 44.4453V46.9742H7.0625V42.8496H7.75305L9.31145 45.3785V42.8496H10.0767V46.9742H9.39544Z" fill="#6F6F6F"/>
<path d="M12.3059 47.0114C11.8767 47.0114 11.5221 46.8527 11.2421 46.5541C10.8408 46.1342 10.8595 45.6209 10.8595 44.9024C10.8595 44.1932 10.8502 43.6706 11.2421 43.2507C11.5221 42.9614 11.8767 42.8027 12.3059 42.8027C13.0431 42.8027 13.6124 43.2413 13.7523 44.1092H12.9778C12.9032 43.7826 12.6979 43.5213 12.3153 43.5213C12.11 43.5213 11.9327 43.6053 11.8207 43.7359C11.6714 43.9132 11.6247 44.1092 11.6247 44.9024C11.6247 45.6956 11.6714 45.8915 11.8207 46.0688C11.9327 46.1995 12.1006 46.2835 12.3153 46.2835C12.6979 46.2835 12.9032 46.0315 12.9778 45.6956H13.7523C13.6124 46.5728 13.0338 47.0114 12.3059 47.0114Z" fill="#6F6F6F"/>
<path d="M14.418 46.9742V42.8496H17.0029V43.5682H15.1832V44.5387H16.7322V45.2572H15.1832V46.2557H17.0029V46.9742H14.418Z" fill="#6F6F6F"/>
<path d="M19.8466 46.9742L19.0814 45.3319H18.5308V46.9742H17.7656V42.8496H19.3054C20.1079 42.8496 20.5838 43.4282 20.5838 44.1094C20.5838 44.688 20.2479 45.0519 19.8653 45.1919L20.7425 46.9742H19.8466ZM19.2494 43.5682H18.5308V44.66H19.2494C19.5853 44.66 19.8093 44.436 19.8093 44.1094C19.7999 43.7921 19.5853 43.5682 19.2494 43.5682Z" fill="#6F6F6F"/>
<path d="M23.9661 47.0114C23.5368 47.0114 23.1822 46.8527 22.9023 46.5541C22.501 46.1342 22.5197 45.6209 22.5197 44.9024C22.5197 44.1932 22.5103 43.6706 22.9023 43.2507C23.1822 42.9614 23.5368 42.8027 23.9661 42.8027C24.7033 42.8027 25.2725 43.2413 25.4125 44.1092H24.638C24.5633 43.7826 24.358 43.5213 23.9754 43.5213C23.7701 43.5213 23.5928 43.6053 23.4808 43.7359C23.3315 43.9132 23.2849 44.1092 23.2849 44.9024C23.2849 45.6956 23.3315 45.8915 23.4808 46.0688C23.5928 46.1995 23.7608 46.2835 23.9754 46.2835C24.358 46.2835 24.5633 46.0315 24.638 45.6956H25.4125C25.2725 46.5728 24.694 47.0114 23.9661 47.0114Z" fill="#6F6F6F"/>
<path d="M28.2587 46.9738L28.0254 46.2459H26.6257L26.3924 46.9738H25.5898L27.0176 42.8398H27.6242L29.0613 46.9738H28.2587ZM27.3442 44.0623L26.8496 45.5647H27.8295L27.3442 44.0623Z" fill="#6F6F6F"/>
<path d="M32.3332 46.9742V44.5667L31.5866 46.1344H31.064L30.3082 44.5667V46.9742H29.543V42.8496H30.2988L31.3253 45.0799L32.3425 42.8496H33.0984V46.9742H32.3332Z" fill="#6F6F6F"/>
<path d="M35.5445 45.4252H34.7886V46.9742H34.0234V42.8496H35.5445C36.3564 42.8496 36.8416 43.4375 36.8416 44.1374C36.8416 44.8373 36.3564 45.4252 35.5445 45.4252ZM35.5072 43.5682H34.7886V44.6973H35.5072C35.8525 44.6973 36.0764 44.4733 36.0764 44.1374C36.0764 43.8014 35.8525 43.5682 35.5072 43.5682Z" fill="#6F6F6F"/>
<path d="M38.8761 47.0116C38.0736 47.0116 37.4297 46.4423 37.4297 45.5651V42.8496H38.1949V45.5372C38.1949 46.0131 38.4562 46.293 38.8761 46.293C39.2867 46.293 39.5667 46.0131 39.5667 45.5372V42.8496H40.3319V45.5651C40.3225 46.4423 39.6786 47.0116 38.8761 47.0116Z" fill="#6F6F6F"/>
<path d="M42.2652 47.0112C41.668 47.0112 41.2107 46.8806 40.8281 46.47L41.3227 45.9474C41.5747 46.2087 41.9106 46.2927 42.2745 46.2927C42.7318 46.2927 42.9651 46.1154 42.9651 45.7795C42.9651 45.6301 42.9278 45.5088 42.8438 45.4342C42.7691 45.3595 42.6758 45.3222 42.4985 45.2942L42.0226 45.2289C41.6866 45.1729 41.4347 45.0609 41.2574 44.8836C41.0707 44.6876 40.9774 44.417 40.9774 44.0717C40.9774 43.3345 41.5 42.8213 42.3492 42.8213C42.8904 42.8213 43.2824 42.9613 43.6183 43.3065L43.1331 43.8105C42.8811 43.5585 42.5825 43.5305 42.3305 43.5305C41.9199 43.5305 41.724 43.7638 41.724 44.0531C41.724 44.1557 41.752 44.2677 41.836 44.3517C41.9106 44.4263 42.0413 44.4917 42.1999 44.5103L42.6665 44.5757C43.0304 44.6316 43.2544 44.7343 43.4223 44.8929C43.6276 45.0982 43.7303 45.4062 43.7303 45.7701C43.721 46.5633 43.0864 47.0112 42.2652 47.0112Z" fill="#6F6F6F"/>
<path d="M2.56688 52.3406C2.28693 52.6578 1.92299 52.8165 1.52172 52.8165C1.12979 52.8165 0.784515 52.6672 0.513895 52.3872C0.140625 51.9953 0.140625 51.594 0.140625 50.7168C0.140625 49.8396 0.140625 49.4384 0.513895 49.0464C0.775183 48.7665 1.12979 48.6172 1.52172 48.6172C2.26826 48.6172 2.78151 49.1304 2.89349 49.8583H2.47356C2.36158 49.3357 2.00697 49.0185 1.52172 49.0185C1.26043 49.0185 1.00848 49.1304 0.840506 49.3171C0.588549 49.5877 0.560553 49.8583 0.560553 50.7262C0.560553 51.594 0.588549 51.874 0.840506 52.1446C1.00848 52.3312 1.26043 52.4339 1.52172 52.4339C1.81101 52.4339 2.08163 52.3126 2.26826 52.0793C2.4269 51.874 2.49222 51.65 2.49222 51.3327V51.0248H1.52172V50.6142H2.90282V51.2674C2.89349 51.7433 2.80017 52.0606 2.56688 52.3406Z" fill="#6F6F6F"/>
<path d="M6.12938 52.7785L5.23353 50.9401H4.29102V52.7785H3.87109V48.6445H5.38284C6.06405 48.6445 6.5493 49.0738 6.5493 49.7923C6.5493 50.3989 6.20403 50.7908 5.69078 50.9028L6.62396 52.7785H6.12938ZM5.34551 49.0365H4.30035V50.5482H5.34551C5.80276 50.5482 6.12938 50.2963 6.12938 49.7923C6.12938 49.2978 5.80276 49.0365 5.34551 49.0365Z" fill="#6F6F6F"/>
<path d="M9.7878 52.7785L9.47052 51.8453H7.75348L7.43621 52.7785H6.98828L8.4347 48.6445H8.78931L10.2264 52.7785H9.7878ZM8.62134 49.2791L7.88413 51.4627H9.34921L8.62134 49.2791Z" fill="#6F6F6F"/>
<path d="M13.3813 52.7785L11.291 49.4657V52.7785H10.8711V48.6445H11.2724L13.3533 51.948V48.6445H13.7733V52.7785H13.3813Z" fill="#6F6F6F"/>
<path d="M17.2563 52.3959C17.0137 52.6478 16.6684 52.7785 16.2578 52.7785H14.9141V48.6445H16.2578C16.6684 48.6445 17.0137 48.7752 17.2563 49.0271C17.6669 49.4564 17.6389 50.091 17.6389 50.6602C17.6483 51.2388 17.6669 51.9666 17.2563 52.3959ZM16.967 49.3444C16.7617 49.1298 16.5005 49.0458 16.1925 49.0458H15.334V52.3866H16.1925C16.5005 52.3866 16.7617 52.3026 16.967 52.0879C17.2377 51.7893 17.2283 51.1734 17.2283 50.6695C17.2283 50.1563 17.2377 49.6337 16.967 49.3444Z" fill="#6F6F6F"/>
<path d="M21.4729 51.0801H20.4277V52.7785H20.0078V48.6445H21.4729C22.1914 48.6445 22.686 49.1111 22.686 49.8577C22.686 50.6042 22.1914 51.0801 21.4729 51.0801ZM21.4356 49.0365H20.4277V50.6789H21.4356C21.9302 50.6789 22.2661 50.3989 22.2661 49.8577C22.2661 49.3164 21.9208 49.0365 21.4356 49.0365Z" fill="#6F6F6F"/>
<path d="M25.5026 52.7785L25.1854 51.8453H23.4683L23.151 52.7785H22.7031L24.1495 48.6445H24.5042L25.9506 52.7785H25.5026ZM24.3362 49.2791L23.599 51.4627H25.0641L24.3362 49.2791Z" fill="#6F6F6F"/>
<path d="M28.8442 52.7785L27.9484 50.9401H27.0059V52.7785H26.5859V48.6445H28.0977C28.7789 48.6445 29.2641 49.0738 29.2641 49.7923C29.2641 50.3989 28.9189 50.7908 28.4056 50.9028L29.3388 52.7785H28.8442ZM28.051 49.0365H27.0059V50.5482H28.051C28.5083 50.5482 28.8349 50.2963 28.8349 49.7923C28.8349 49.2978 28.5083 49.0365 28.051 49.0365Z" fill="#6F6F6F"/>
<path d="M30.627 48.6445H30.207V52.7785H30.627V48.6445Z" fill="#6F6F6F"/>
<path d="M32.7735 52.8165C32.1856 52.8165 31.7936 52.6578 31.4297 52.2752L31.719 51.9766C32.0456 52.3219 32.3442 52.4245 32.7921 52.4245C33.3707 52.4245 33.7253 52.1446 33.7253 51.6593C33.7253 51.4447 33.66 51.2581 33.5387 51.1461C33.408 51.0341 33.3147 50.9968 33.0254 50.9501L32.5682 50.8755C32.2602 50.8195 32.0176 50.7168 31.8496 50.5582C31.6536 50.3716 31.551 50.1196 31.551 49.7837C31.551 49.0838 32.0362 48.6172 32.8108 48.6172C33.3147 48.6172 33.6413 48.7478 33.9773 49.0651L33.7066 49.3451C33.464 49.1118 33.2027 48.9905 32.7921 48.9905C32.2695 48.9905 31.9616 49.2984 31.9616 49.7557C31.9616 49.961 32.0176 50.1196 32.1389 50.2316C32.2602 50.3436 32.4655 50.4182 32.6708 50.4555L33.1001 50.5209C33.4733 50.5769 33.6506 50.6608 33.8186 50.8101C34.0332 50.9968 34.1546 51.2861 34.1546 51.6313C34.1266 52.3685 33.5853 52.8165 32.7735 52.8165Z" fill="#6F6F6F"/>
<path d="M65.9821 39.6953H63.2106L57.9102 52.7504H60.6723L65.9821 39.6953Z" fill="#6F6F6F"/>
<path d="M69.8202 23.4209L67.31 29.5892L64.8184 23.4302H62.0469L65.9382 32.9953L64.3238 36.9613H67.086L72.5824 23.4209H69.8202Z" fill="#6F6F6F"/>
<path d="M70.875 20.7987H73.6465L79.5908 6.15723H76.838L70.875 20.7987Z" fill="#6F6F6F"/>
<path d="M84.0809 29.5703H72.7242L71.707 32.0992H83.0731L84.0809 29.5703Z" fill="#6F6F6F"/>
</g>
</svg>
