<svg width="131" height="41" viewBox="0 0 131 41" fill="none" xmlns="http://www.w3.org/2000/svg">
<g clip-path="url(#clip0_1530_42750)">
<path d="M77.6052 21.7324H76.3516V28.3691H77.6052V21.7324Z" fill="#6F6F6F"/>
<path d="M82.0361 28.3702V25.3635C82.0361 24.7768 81.9453 24.5752 81.6546 24.5752C81.4002 24.5752 81.055 24.8318 80.5463 25.3818L80.3828 25.5468V28.3702H79.1836V23.6952H80.3828V24.4652C80.946 23.8602 81.4002 23.6035 81.9816 23.6035C82.8174 23.6035 83.2353 24.0435 83.2353 24.9235V28.3702H82.0361Z" fill="#6F6F6F"/>
<path d="M87.6148 24.996C87.4876 24.9226 87.3786 24.8493 87.2878 24.7943C86.9607 24.5926 86.561 24.4643 86.2158 24.4643C85.7616 24.4643 85.4527 24.6476 85.4527 24.9043C85.4527 25.1243 85.6162 25.2526 86.0341 25.3993C86.561 25.5826 87.2151 25.8943 87.4331 26.041C87.7238 26.261 87.9055 26.6643 87.9055 27.086C87.9055 27.9476 87.1606 28.4976 86.0523 28.4976C85.8161 28.4976 85.5799 28.461 85.2892 28.406C84.8531 28.3143 84.6533 28.241 84.1445 27.966L84.5261 26.9943C84.9985 27.2876 85.1802 27.3793 85.5254 27.4893C85.7071 27.5443 85.8706 27.581 86.0523 27.581C86.5065 27.581 86.7791 27.4343 86.7791 27.1776C86.7791 26.9576 86.6337 26.811 86.3067 26.6826L85.5072 26.371C84.6896 26.041 84.3081 25.6193 84.3081 24.996C84.3081 24.116 85.0712 23.5293 86.1976 23.5293C86.4157 23.5293 86.67 23.566 86.9607 23.621C87.3968 23.7126 87.5603 23.7676 87.9782 24.006L87.6148 24.996Z" fill="#6F6F6F"/>
<path d="M91.0134 28.1865C90.6682 28.3882 90.3048 28.4982 89.9778 28.4982C89.36 28.4982 89.0693 28.1682 89.0693 27.4899V24.5749H88.3789V23.8049L89.0693 23.6765V22.2832H90.1958V23.6765H91.1951V24.5565H90.1958V26.6465C90.1958 27.1782 90.2503 27.3249 90.432 27.3249C90.5774 27.3249 90.7409 27.2515 91.0679 27.0315L91.4495 27.9115C91.3041 28.0215 91.1406 28.1132 91.0134 28.1865Z" fill="#6F6F6F"/>
<path d="M92.6683 22.8321C92.305 22.8321 91.9961 22.4654 91.9961 22.0254C91.9961 21.5854 92.305 21.2188 92.6683 21.2188C93.0317 21.2188 93.3406 21.5854 93.3406 22.0254C93.3406 22.4654 93.0317 22.8321 92.6683 22.8321ZM92.0688 23.6937H93.2498V28.3687H92.0688V23.6937Z" fill="#6F6F6F"/>
<path d="M96.5564 28.1865C96.2112 28.3882 95.8478 28.4982 95.5208 28.4982C94.903 28.4982 94.6123 28.1682 94.6123 27.4899V24.5749H93.9219V23.8049L94.6123 23.6765V22.2832H95.7388V23.6765H96.7381V24.5565H95.7388V26.6465C95.7388 27.1782 95.7933 27.3249 95.975 27.3249C96.1203 27.3249 96.2839 27.2515 96.6109 27.0315L96.9925 27.9115C96.8289 28.0215 96.6836 28.1132 96.5564 28.1865Z" fill="#6F6F6F"/>
<path d="M100.497 28.3691V27.5808C99.9338 28.2041 99.4796 28.4424 98.8982 28.4424C98.0624 28.4424 97.6445 28.0024 97.6445 27.1224V23.6758H98.8437V26.6824C98.8437 27.2508 98.9527 27.4708 99.2252 27.4708C99.4796 27.4708 99.8248 27.2141 100.352 26.6641L100.515 26.4991V23.6758H101.714V28.3508H100.497V28.3691Z" fill="#6F6F6F"/>
<path d="M105.076 28.1865C104.731 28.3882 104.367 28.4982 104.04 28.4982C103.423 28.4982 103.132 28.1682 103.132 27.4899V24.5749H102.441V23.8049L103.132 23.6765V22.2832H104.258V23.6765H105.258V24.5565H104.258V26.6465C104.258 27.1782 104.313 27.3249 104.495 27.3249C104.64 27.3249 104.803 27.2515 105.13 27.0315L105.512 27.9115C105.348 28.0215 105.203 28.1132 105.076 28.1865Z" fill="#6F6F6F"/>
<path d="M78.9515 37.4083V36.7666C78.788 37.0416 78.6971 37.1333 78.4791 37.2616C78.2066 37.4266 77.9159 37.5183 77.607 37.5183C76.5168 37.5183 75.6992 36.5283 75.6992 35.19C75.6992 33.7416 76.6804 32.5683 77.9159 32.5683C78.043 32.5683 78.1884 32.5866 78.3156 32.6233C78.5699 32.6783 78.679 32.715 78.9333 32.8983V30.0566H80.1143V37.39H78.9515V37.4083ZM78.9515 34.6216C78.9515 34.365 78.9152 34.1266 78.897 34.0166C78.8243 33.76 78.4973 33.5766 78.1157 33.5766C77.4616 33.5766 76.9711 34.2366 76.9711 35.1166C76.9711 35.96 77.3526 36.5466 77.934 36.5466C78.2974 36.5466 78.679 36.29 78.9697 35.85V34.6216H78.9515Z" fill="#6F6F6F"/>
<path d="M82.0012 33.6493H81.2744C81.438 33.3377 81.4743 33.2277 81.5833 32.8977C81.7105 32.5677 81.7287 32.4577 81.7468 32.146L81.1836 30.8077C81.5651 30.6243 81.7105 30.5693 82.0375 30.5693C82.5826 30.5693 82.837 30.8443 82.837 31.4127C82.837 32.0177 82.5099 32.8793 82.0012 33.6493Z" fill="#6F6F6F"/>
<path d="M87.0732 37.5545C85.0201 37.5545 83.5666 36.1245 83.5666 34.1078C83.5484 32.0545 84.9838 30.6611 87.0732 30.6611C89.1445 30.6611 90.5617 32.0545 90.5617 34.1078C90.5799 36.1245 89.1263 37.5545 87.0732 37.5545ZM87.0732 31.7611C85.8196 31.7611 84.9111 32.7695 84.9111 34.1078C84.9111 35.4461 85.8196 36.4545 87.0732 36.4545C88.3087 36.4545 89.2353 35.4645 89.2353 34.1078C89.2353 32.7511 88.3269 31.7611 87.0732 31.7611Z" fill="#6F6F6F"/>
<path d="M94.4463 37.4083V34.4016C94.4463 33.8149 94.3555 33.6133 94.0647 33.6133C93.8104 33.6133 93.4652 33.8699 92.9564 34.4199L92.7929 34.5849V37.4083H91.5938V32.7333H92.7929V33.5033C93.3562 32.8983 93.8104 32.6416 94.3918 32.6416C95.2276 32.6416 95.6455 33.0816 95.6455 33.9616V37.4083H94.4463Z" fill="#6F6F6F"/>
<path d="M100.26 37.2805C99.8238 37.4638 99.3695 37.5555 98.8971 37.5555C97.4618 37.5555 96.5352 36.6021 96.5352 35.1355C96.5352 33.6321 97.5163 32.6055 99.0062 32.6055C99.2605 32.6055 99.5149 32.6421 99.7693 32.6788C100.114 32.7521 100.26 32.8255 100.66 33.0638L100.096 33.9805C99.7511 33.7055 99.5149 33.6138 99.1515 33.6138C98.3702 33.6138 97.807 34.2371 97.807 35.1171C97.807 35.9605 98.2976 36.5288 99.0243 36.5288C99.424 36.5288 99.7147 36.4371 100.223 36.1255L100.66 37.0971C100.478 37.1705 100.351 37.2438 100.26 37.2805Z" fill="#6F6F6F"/>
<path d="M103.298 37.5547C101.972 37.5547 100.973 36.4914 100.973 35.0797C100.973 33.6864 101.972 32.623 103.298 32.623C104.625 32.623 105.624 33.6864 105.624 35.0797C105.642 36.473 104.625 37.5547 103.298 37.5547ZM103.298 33.558C102.699 33.558 102.208 34.2364 102.208 35.0614C102.208 35.9047 102.699 36.583 103.298 36.583C103.898 36.583 104.388 35.9047 104.388 35.0614C104.407 34.2547 103.898 33.558 103.298 33.558Z" fill="#6F6F6F"/>
<path d="M107.658 30.0928H106.477V37.4261H107.658V30.0928Z" fill="#6F6F6F"/>
<path d="M110.833 37.5547C109.507 37.5547 108.508 36.4914 108.508 35.0797C108.508 33.6864 109.507 32.623 110.833 32.623C112.16 32.623 113.159 33.6864 113.159 35.0797C113.159 36.473 112.16 37.5547 110.833 37.5547ZM110.833 33.558C110.234 33.558 109.743 34.2364 109.743 35.0614C109.743 35.9047 110.234 36.583 110.833 36.583C111.433 36.583 111.924 35.9047 111.924 35.0614C111.924 34.2547 111.433 33.558 110.833 33.558Z" fill="#6F6F6F"/>
<path d="M117.557 33.649C117.721 33.8874 117.775 34.034 117.775 34.3457C117.775 35.409 116.958 36.124 115.74 36.124C115.613 36.124 115.559 36.124 115.395 36.0874C115.086 36.3257 114.941 36.4724 114.941 36.5824C114.941 36.674 115.014 36.7107 115.25 36.7107H116.867C117.775 36.7107 118.211 37.0774 118.211 37.829C118.211 39.0024 117.103 39.8457 115.541 39.8457C114.396 39.8457 113.633 39.369 113.633 38.6724C113.633 38.3057 113.833 37.994 114.378 37.5357C113.924 37.3707 113.724 37.1874 113.724 36.894C113.724 36.619 113.887 36.4174 114.323 36.1057C114.378 36.0507 114.487 35.9957 114.614 35.8857C114.396 35.7207 114.323 35.6474 114.214 35.519C113.942 35.189 113.796 34.8224 113.796 34.364C113.796 33.2457 114.559 32.5674 115.777 32.5674C116.122 32.5674 116.304 32.604 116.74 32.7507H117.43L118.375 32.6957V33.594H117.557V33.649ZM116.504 37.7007H115.05C115.014 37.774 114.977 37.829 114.959 37.8657C114.814 38.104 114.741 38.269 114.741 38.3974C114.741 38.6907 115.177 38.929 115.722 38.929C116.086 38.929 116.467 38.8007 116.758 38.5624C116.976 38.3974 117.103 38.1774 117.103 37.994C117.103 37.7924 116.903 37.7007 116.504 37.7007ZM115.777 33.4657C115.359 33.4657 115.014 33.869 115.014 34.3457C115.014 34.8224 115.359 35.2074 115.777 35.2074C116.213 35.2074 116.54 34.8224 116.54 34.3457C116.558 33.869 116.213 33.4657 115.777 33.4657Z" fill="#6F6F6F"/>
<path d="M119.684 31.8711C119.321 31.8711 119.012 31.5045 119.012 31.0645C119.012 30.6061 119.321 30.2578 119.684 30.2578C120.047 30.2578 120.356 30.6245 120.356 31.0645C120.356 31.5045 120.066 31.8711 119.684 31.8711ZM119.084 32.7328H120.265V37.4078H119.084V32.7328Z" fill="#6F6F6F"/>
<path d="M125.15 37.4821H124.896C124.296 37.4821 124.114 37.3905 123.896 36.9688C123.46 37.3721 123.06 37.5371 122.606 37.5371C121.825 37.5371 121.262 37.0055 121.262 36.2721C121.262 36.1071 121.298 35.9421 121.334 35.7955C121.498 35.3555 121.77 35.1355 122.443 34.9338L123.751 34.5488V34.1638C123.751 33.6688 123.569 33.4305 123.188 33.4305C122.824 33.4305 122.534 33.6138 122.534 33.8521C122.534 33.8888 122.552 33.9071 122.57 33.9805L121.425 34.2371C121.371 34.0905 121.371 34.0538 121.371 33.9071C121.371 33.0821 122.079 32.6055 123.351 32.6055C124.459 32.6055 124.95 33.0638 124.95 34.0905V36.0338C124.95 36.4555 125.005 36.5288 125.313 36.5655L125.15 37.4821ZM123.769 35.3371L122.588 35.7221C122.515 35.9055 122.497 35.9971 122.497 36.1071C122.497 36.4005 122.679 36.5838 122.97 36.5838C123.115 36.5838 123.297 36.5288 123.46 36.4371C123.533 36.4005 123.606 36.3638 123.769 36.2171V35.3371Z" fill="#6F6F6F"/>
<path d="M27.6739 19.7899L26.9835 19.8449H26.5837H26.4747C26.4747 19.8449 26.0387 19.8083 25.9478 19.8083C25.857 19.8083 25.2211 19.7716 25.0757 19.8083C24.9304 19.8449 24.4761 19.7716 24.3308 19.7716C24.1854 19.7716 23.7494 19.7716 23.6585 19.7716L23.3133 19.6616C23.3133 19.6616 23.1316 19.4049 23.2043 19.2766C23.2588 19.1666 23.2588 18.9283 23.386 18.7816C23.495 18.6349 23.495 18.5983 23.5313 18.5249C23.5677 18.4333 23.6222 17.9749 23.6222 17.8833C23.6222 17.7916 23.6585 17.6999 23.6585 17.4983C23.6585 17.2966 23.6585 16.9666 23.6585 16.9666C23.6585 16.9666 23.713 16.8749 23.713 16.7283C23.713 16.5816 23.604 16.6916 23.713 16.3249C23.822 15.9399 23.8947 15.8483 23.8947 15.6833C23.8947 15.4999 23.277 15.1516 23.277 15.1516L22.7319 14.8033L22.5502 14.6199L22.0233 14.3083L21.7326 14.1616H21.4055C21.4055 14.1616 21.2602 14.3083 21.2602 14.4183C21.2602 14.5283 21.2602 14.6749 21.2602 14.7666C21.2602 14.8583 21.2602 15.0599 21.2057 15.1516C21.1512 15.2433 20.8786 15.6466 20.8605 15.7566C20.8241 15.8666 20.6788 16.5816 20.6788 16.5816V16.7833C20.6788 16.7833 20.6424 16.7833 20.6243 16.8933C20.5879 17.0033 20.5153 17.0583 20.5153 17.1499C20.5153 17.2416 20.5516 17.0583 20.5153 17.2416C20.4789 17.4066 20.4789 17.4983 20.4244 17.6816C20.3699 17.8649 20.1155 18.1216 20.1155 18.2133C20.1155 18.3049 20.0792 18.4516 20.0792 18.5433C20.0792 18.6349 20.0247 18.7266 19.9702 18.9466C19.9157 19.1849 19.8067 19.2583 19.8067 19.3499C19.8067 19.4416 19.7703 19.4416 19.7703 19.6066C19.7703 19.7899 19.734 19.8633 19.734 19.9916C19.734 20.1016 19.7885 19.9366 19.734 20.1016C19.6795 20.2849 19.7703 20.5049 19.4978 20.6516C19.4978 20.6516 18.5167 21.0916 18.4258 21.0916C18.335 21.0916 17.9352 21.0916 17.8444 21.0916C17.7536 21.0916 17.0995 21.1466 16.9178 21.2016C16.7543 21.2566 16.4272 21.2016 16.3727 21.2933C16.3182 21.3849 16.0275 21.4399 15.9366 21.4399C15.8458 21.4399 15.7913 21.4766 15.4461 21.4949C15.1009 21.5316 14.8647 21.5316 14.7193 21.5499C14.574 21.5866 14.1924 21.7333 14.1924 21.7333C14.1924 21.7333 14.1016 21.9349 14.1016 22.0266C14.1016 22.1183 14.3923 22.5766 14.4286 22.6683C14.4649 22.7599 15.01 23.5666 15.1009 23.6583C15.1917 23.7499 15.8458 24.3549 15.8458 24.3549C15.8458 24.3549 16.5726 24.3916 16.6816 24.3916C16.7906 24.3916 17.154 24.3549 17.3538 24.3549C17.5537 24.3549 17.8081 24.2083 17.9352 24.2083C18.0443 24.2083 18.2623 24.2083 18.2623 24.2083C18.2623 24.2083 18.1533 24.9599 18.2078 25.1433C18.2623 25.3266 18.1533 25.7299 18.1169 25.8399C18.0806 25.9499 17.9171 26.3716 17.9171 26.4449C17.9171 26.5366 17.7717 26.9766 17.7717 27.0499C17.7717 27.1416 17.7172 27.3066 17.7172 27.3066C17.7172 27.3066 17.481 28.2966 17.3902 28.4433C17.2993 28.5899 17.1358 29.9833 17.1358 29.9833L17.0813 30.3683L16.9723 31.0099C16.9723 31.0099 16.7361 31.2666 16.7361 31.3949C16.7361 31.5049 16.5907 32.2199 16.5907 32.2199C16.5907 32.2199 16.3364 31.9633 16.3909 32.4766C16.4454 32.9899 16.4999 32.6783 16.4454 32.9899C16.3909 33.3199 16.4817 34.0349 16.4817 34.0349L16.6634 34.0716L16.8088 34.1816L17.0086 34.3833L17.1903 34.4933C17.1903 34.4933 17.5355 34.5299 17.59 34.6033C17.6445 34.6949 17.8807 34.7866 17.8807 34.7866L18.1169 34.8049L18.3531 34.6949C18.3531 34.6949 18.5893 34.4016 18.5893 34.3099C18.5893 34.2183 18.5893 34.0166 18.5348 33.9249C18.4803 33.8333 18.3713 33.5216 18.3713 33.5216C18.3713 33.5216 18.5167 33.2833 18.6075 33.2649C18.6983 33.2283 18.8437 33.1549 18.8437 32.7333C18.8437 32.3299 18.7892 32.2749 18.88 32.1833C18.9709 32.0916 19.1162 32.0916 19.1162 31.9816C19.1162 31.8716 19.3161 31.5966 19.3161 31.5233C19.3161 31.4316 19.4796 31.0283 19.4796 31.0283C19.4796 31.0283 19.5341 31.1749 19.5341 30.9183C19.5341 30.6616 19.4251 30.1299 19.4251 30.1299C19.4251 30.1299 19.7703 30.0199 19.7703 29.8183C19.7703 29.6166 19.8067 29.5249 19.8067 29.4333C19.8067 29.3416 19.7703 29.4883 19.8067 29.2316C19.843 28.9749 19.8067 28.9383 19.843 28.8283C19.8793 28.7183 19.8975 28.7733 20.0065 28.6266C20.1155 28.4799 19.9702 28.6266 20.2064 28.3699C20.4426 28.1133 20.5516 27.9849 20.5516 27.9849C20.5516 27.9849 20.7151 27.8383 20.7151 27.5999C20.7151 27.3616 20.6606 27.5083 20.8241 27.1049C21.0058 26.7016 21.0603 26.5183 21.0785 26.4266C21.1148 26.3349 21.133 26.3166 21.1148 26.1333C21.0785 25.9499 21.0603 25.9316 21.0785 25.7849C21.1148 25.6383 21.133 25.4916 21.133 25.3999C21.133 25.3083 21.2784 25.2166 21.3692 24.9966C21.4601 24.7583 21.4601 24.9416 21.4601 24.7583C21.4601 24.5933 21.5509 24.5199 21.5509 24.3549C21.5509 24.1716 21.6417 24.1533 21.7508 23.8966C21.8598 23.6399 21.8961 23.6949 21.987 23.5666C22.0778 23.4566 22.1868 23.3649 22.1868 23.3649C22.1868 23.3649 22.5684 23.2183 22.6592 23.1633C22.7501 23.1083 23.6403 22.8699 23.7494 22.8699C23.8584 22.8699 23.9856 22.8699 24.0764 22.8699C24.1672 22.8699 24.5306 22.8699 25.2574 22.8699C25.9842 22.8699 27.5104 22.7783 27.5104 22.7783C27.5104 22.7783 27.8192 23.0899 27.8011 23.2183C27.7647 23.3283 27.6921 23.6216 27.6921 23.7133C27.6921 23.8049 27.7829 24.2449 27.6739 24.4099C27.5649 24.5933 27.4377 25.1433 27.4377 25.1433C27.4377 25.1433 27.3287 25.4916 27.3287 25.5833C27.3287 25.6749 27.2378 25.9133 27.147 25.9683C27.0561 26.0233 27.038 26.6466 27.038 26.6466L26.8381 27.3983C26.8381 27.3983 26.8381 27.3616 26.8018 27.5449C26.7654 27.7283 26.6019 27.8749 26.6019 27.8749C26.6019 27.8749 26.4384 28.8099 26.3475 28.9566C26.2567 29.1033 26.2567 29.1399 26.2567 29.2499C26.2567 29.3599 26.293 29.5066 26.3112 29.5983C26.3294 29.6899 26.4566 29.7999 26.5111 29.8916C26.5656 29.9833 26.7109 30.0749 26.8018 30.1849C26.8926 30.2949 26.9108 30.3316 27.038 30.5883C27.147 30.8449 27.7102 31.1383 27.7647 31.2666C27.8192 31.3766 28.0009 31.5049 28.0009 31.5049C28.0009 31.5049 28.3461 31.4683 28.6369 31.3583C28.9276 31.2483 29.0911 31.1199 29.0911 31.1199C29.0911 31.1199 29.2909 31.4133 29.3273 30.9733C29.3636 30.5333 29.4181 30.2399 29.4181 30.2399C29.4181 30.2399 29.4726 29.7816 29.509 29.5983C29.5453 29.4149 29.618 29.0116 29.6543 28.9199C29.6907 28.8283 29.7088 29.6533 29.8905 28.5166C30.0722 27.3799 30.0722 27.3799 30.0722 27.3799C30.0722 27.3799 30.1631 27.1783 30.1631 27.0866C30.1631 26.9949 30.1631 26.8483 30.1631 26.7383C30.1631 26.6283 30.2176 26.4999 30.2176 26.3349C30.2176 26.1516 30.3084 26.0049 30.3084 26.0049L30.3993 25.8583C30.3993 25.8583 30.4356 25.6566 30.4538 25.5649C30.4901 25.4733 30.6355 25.1249 30.6536 25.0149C30.69 24.9049 30.69 24.9049 30.69 24.9049C30.69 24.9049 30.799 24.7216 30.8353 24.6483C30.8717 24.5566 30.8898 24.4649 30.8898 24.3549C30.8898 24.2449 30.908 24.1166 30.908 24.1166C30.908 24.1166 30.908 24.1166 30.9443 23.9333C30.9807 23.7499 30.8171 23.9333 30.9807 23.7499C31.126 23.5666 31.1624 23.5116 31.1805 23.4199C31.2169 23.3283 31.235 23.2366 31.2895 23.0899C31.3441 22.9433 31.4349 22.7049 31.4712 22.6316C31.5076 22.5399 31.5076 22.5399 31.5076 22.5399L31.6893 22.4849L32.4342 22.4299L32.7794 22.3933C32.7794 22.3933 32.7794 22.3566 32.7794 22.2466C32.7794 22.1366 32.9793 22.3016 32.6886 21.8616C32.3979 21.4216 32.5069 21.6233 32.3979 21.4216C32.2888 21.2199 32.3434 21.3299 32.2888 21.2199C32.2343 21.1099 32.2888 20.9816 32.2343 20.9083C32.1798 20.8166 32.2707 20.6516 32.198 20.2116C32.1435 19.7716 32.198 19.6616 32.198 19.6616L32.3615 19.5699C32.3615 19.5699 32.4705 19.5699 32.5069 19.4783C32.5432 19.3866 32.6886 18.9283 32.6886 18.7999C32.6886 18.6899 32.6886 18.6899 32.6886 18.6899L32.7794 18.3416C32.7794 18.3416 32.7249 18.2499 32.8339 18.1399C32.9429 18.0299 32.9793 17.9933 33.0156 17.9016C33.0519 17.8099 33.161 17.6449 33.2518 17.5166C33.3427 17.4066 33.3608 17.3333 33.3972 17.2416C33.4335 17.1499 33.5062 16.9299 33.597 16.7833C33.6879 16.6366 33.706 16.7466 33.6879 16.4533C33.6697 16.1599 33.6697 16.1233 33.6697 15.9583C33.6697 15.7933 33.7787 15.8116 33.6697 15.6099C33.5607 15.4083 33.4335 15.3533 33.4153 15.2066C33.3972 15.0599 33.3063 14.9499 33.3063 14.9499L32.9066 14.5649L32.307 14.2533L32.0163 14.1066C32.0163 14.1066 31.9618 14.0516 31.871 14.0516C31.7801 14.0516 31.6893 14.1616 31.6348 14.0516C31.5802 13.9416 31.5257 13.7949 31.5257 13.7949C31.5257 13.7949 31.7619 13.5016 31.3804 13.6116C30.9988 13.7216 30.9988 13.7216 30.9988 13.7216L30.9443 14.0333L30.908 14.2716L30.7081 14.4549L30.5991 14.6566C30.5991 14.6566 30.3629 15.0599 30.3629 15.2983C30.3629 15.5366 30.3993 15.6466 30.3629 15.7383C30.3447 15.8299 29.9814 16.4166 29.9269 16.4899C29.8724 16.5816 29.8724 16.6366 29.8724 16.7466C29.8724 16.8566 29.727 17.0399 29.727 17.1316C29.727 17.2233 29.4908 17.2416 29.4908 17.5716C29.4908 17.8833 29.4908 17.8833 29.4908 17.8833C29.4908 17.8833 29.3091 18.1949 29.2909 18.3783C29.2546 18.5616 29.2546 18.7083 29.2546 18.7816C29.2546 18.8733 29.2364 19.0749 29.1638 19.1849C29.1092 19.2949 28.8731 19.5333 28.8731 19.5333L28.437 19.6433L27.6739 19.7899Z" fill="#6F6F6F"/>
<path d="M33.4378 30.8814C33.3833 31.0831 33.3288 31.2664 33.2561 31.4131C33.2016 31.5598 33.1652 31.6514 33.1652 31.7614C33.1652 31.8714 33.1289 31.9264 33.1289 32.0548C33.1289 32.1648 33.1652 32.4581 33.1652 32.4581C33.1652 32.4581 33.1107 32.6048 33.1652 32.8431C33.2198 33.0814 33.3469 33.2281 33.456 33.3748C33.565 33.5214 33.7467 33.6131 33.7467 33.6131L34.7641 34.1081C34.7641 34.1081 34.7641 33.9981 34.9095 34.1081C35.0548 34.2181 35.3455 34.2181 35.4 34.3464C35.4546 34.4564 35.4546 34.4931 35.5999 34.4931C35.7453 34.4931 35.7089 34.5848 35.8543 34.4381C35.9996 34.2914 36.0541 34.1814 36.0541 34.1814C36.0541 34.1814 36.2358 34.0164 36.254 33.7964C36.2903 33.5948 36.2358 33.4114 36.2358 33.0631C36.2358 32.7148 36.2358 32.7514 36.2358 32.3848C36.2358 32.0364 36.5265 30.4964 36.6174 30.2031C36.7082 29.9098 36.7627 30.0564 36.9081 29.7081C37.0534 29.3598 37.1079 29.2681 37.1079 29.0664C37.1079 28.8648 37.0898 28.8281 37.1443 28.7181C37.1988 28.6081 37.1443 28.8648 37.1988 28.6081C37.2533 28.3514 37.2533 28.1498 37.2533 27.8198C37.2533 27.4898 37.1443 27.6731 37.2533 27.4898C37.3623 27.3064 37.3078 27.3981 37.3623 27.3064C37.4168 27.2148 37.2715 28.1498 37.4168 27.2148C37.5622 26.2798 37.7257 25.8764 37.7257 25.8764C37.7257 25.8764 37.7802 25.7848 37.8165 25.7114C37.8529 25.6198 37.9074 25.7664 37.9256 25.3631C37.9619 24.9598 38.0527 24.8681 38.1072 24.7581C38.1618 24.6481 38.1617 24.5014 38.3071 24.3181C38.4525 24.1348 38.507 24.1164 38.5433 23.8781C38.5796 23.6398 38.5433 23.4748 38.6341 23.2914C38.725 23.1264 38.8703 22.9064 38.9249 22.7048C38.9794 22.5031 39.0339 22.4664 39.0702 22.2648C39.1065 22.0631 39.0702 21.8064 39.2156 21.6598C39.3609 21.5131 39.6516 21.3114 39.6516 21.2198C39.6516 21.1281 39.6516 21.1648 39.6516 21.0181C39.6516 20.8714 39.5971 20.7614 39.7606 20.5231C39.9242 20.2848 39.9968 20.2298 40.015 20.0464C40.0513 19.8631 40.015 20.1014 40.0695 19.7348C40.124 19.3498 40.1604 19.2948 40.2149 19.1298C40.2694 18.9464 40.3239 18.8731 40.3966 18.7448C40.4511 18.6348 40.2875 18.8364 40.4511 18.6348C40.6146 18.4331 40.6509 18.3414 40.6873 18.2314C40.7236 18.1214 40.7236 18.0481 40.7781 17.9748C40.8326 17.8831 40.8326 18.1214 40.8326 17.8831C40.8326 17.6448 40.8326 17.7731 40.8326 17.5348C40.8326 17.2964 40.9235 17.2048 40.8871 17.1498L40.7054 16.8381C40.7054 16.8381 40.5056 16.5998 40.3784 16.5081C40.2694 16.4164 39.9787 16.3248 39.8333 16.1964C39.688 16.0498 39.0884 15.8848 39.0884 15.8848C39.0884 15.8848 38.6341 15.8848 38.5433 15.8848C38.4525 15.8848 38.2889 15.9398 38.2163 16.0681C38.1617 16.1781 37.8347 16.7098 37.7257 16.9664C37.6167 17.2231 37.4713 17.6631 37.326 17.9014C37.1806 18.1398 37.326 17.2231 36.9808 18.3964C36.6355 19.5698 36.3993 20.0281 36.3993 20.1198C36.3993 20.2114 36.2177 20.4681 36.2177 20.4681L35.8724 21.7514C35.8724 21.7514 35.8179 22.1548 35.7816 22.2831C35.7634 22.3931 35.0367 24.1164 34.964 24.4464C34.9095 24.7764 34.8731 24.9414 34.8731 25.0514C34.8731 25.1614 34.7823 25.5831 34.7641 25.6564C34.7278 25.7481 34.5824 26.2064 34.5824 26.4081C34.5824 26.6098 34.4916 26.9398 34.4916 27.0131C34.4916 27.1048 34.3826 27.4164 34.3826 27.4164C34.3826 27.4164 34.2372 27.7648 34.1827 27.8564C34.1282 27.9481 33.9829 28.2414 33.9829 28.3148C33.9829 28.4064 33.8375 28.9564 33.8375 29.0481C33.8375 29.1398 33.8375 29.5064 33.783 29.6531C33.7285 29.7998 33.5468 29.8364 33.5286 30.0564C33.5105 30.2764 33.4923 30.6798 33.4378 30.8814Z" fill="#6F6F6F"/>
<path d="M61.8881 37.7939C62.0698 37.7939 62.1425 37.7939 62.1425 37.7939C62.1425 37.7939 62.0698 37.6472 61.9245 37.6472C61.7973 37.6472 61.6701 37.6289 61.6338 37.6472C61.652 37.5922 61.6701 37.5555 61.6701 37.5555H61.87L61.7973 37.2622L61.5611 37.0972L60.8343 37.1522C60.4528 36.8589 60.0894 36.2722 59.9622 36.5289C59.835 36.7855 60.1984 36.6022 59.835 36.7855C59.4898 36.9872 59.4898 36.9872 59.4898 36.9872L59.0901 36.7305C59.0901 36.7305 58.6904 36.5655 58.5632 36.6389C58.436 36.7122 58.436 36.7122 58.436 36.7122H58.3088C58.3088 36.7122 58.3452 36.4555 58.218 36.5105C58.0908 36.5839 58.2543 36.4189 58.0908 36.5839C57.9273 36.7489 57.5094 36.6755 57.5094 36.6755C57.5094 36.6755 57.3095 36.3822 57.255 36.5839C57.1823 36.7855 57.255 36.8405 57.255 36.9872C57.255 37.1155 57.2914 37.3722 57.2914 37.3722C57.2914 37.3722 57.3459 37.4089 57.4004 37.4455L56.928 37.1705C56.928 37.1705 56.9643 37.2072 56.8008 37.0789C56.6373 36.9505 56.5646 36.7122 56.5646 36.7122L56.7281 36.6205L56.8008 36.4922C56.8008 36.4922 56.7281 36.4189 56.4738 36.4555C56.4919 36.4555 56.4738 36.4372 56.3466 36.4189C55.9832 36.3822 55.9832 36.3822 55.9832 36.3822C55.9832 36.3822 55.9105 35.9239 55.5835 35.9789C55.2564 36.0522 55.1292 35.5572 55.2564 36.0522C55.3836 36.5472 55.6743 36.2905 55.4926 36.7122C55.2928 37.1339 55.2928 37.1339 55.2928 37.1339L55.1656 37.3905C55.1656 37.3905 54.9475 36.6022 54.8022 36.4739C54.675 36.3455 54.675 36.3455 54.675 36.3455C54.675 36.3455 54.5478 36.1439 54.4388 36.2539C54.348 36.3455 54.239 36.4739 54.239 36.4739C54.239 36.4739 54.1118 36.5472 54.0754 36.6389C54.0391 36.7305 54.0209 36.7122 53.9119 36.7672C53.8211 36.8405 53.8574 36.3455 53.7484 36.4739C53.6575 36.6022 53.712 36.8405 53.385 36.8955C53.058 36.9689 53.1851 36.4005 52.9853 36.7305C52.7854 37.0605 52.3312 36.6389 52.3312 36.6389C52.3312 36.6389 52.0042 36.2172 51.6408 36.3455C51.2774 36.4739 51.0775 35.7772 51.0775 35.7772C51.0775 35.7772 50.4598 35.5572 50.5506 35.8139C50.6415 36.0705 50.6778 35.8689 50.6415 36.0705C50.6051 36.2722 50.6051 36.2722 50.6051 36.2722L49.5695 36.4372L49.1153 36.1439C48.9154 36.4372 48.9154 36.4372 48.9154 36.4372C48.9154 36.4372 48.9881 35.9789 48.0978 36.2355C47.2075 36.4922 46.7896 36.3639 46.7896 36.3639L46.5898 36.1072L46.4262 35.9972L45.1544 35.9422C45.1544 35.9422 45.4814 35.6122 45.0272 35.9422C44.573 36.2722 43.7917 36.0705 43.7917 36.0705C43.7917 36.0705 42.9196 35.8689 42.6471 35.9789C42.3927 36.0705 43.0649 35.7222 42.3927 36.0705C41.7023 36.4372 41.5751 36.3639 41.5751 36.3639L40.9937 36.4005L40.8301 36.3089L40.0852 36.1805C40.0852 36.1805 39.1768 36.1805 39.0677 36.1805C38.9769 36.1805 38.9769 36.1805 38.9769 36.1805L38.232 36.2539L37.6142 36.3272L37.1236 36.6572L36.5786 36.4189H36.2879C36.2879 36.4189 36.197 36.3455 36.088 36.3455C35.9972 36.3455 35.0705 36.2172 35.0705 36.2172H34.2529L33.835 36.3455C33.835 36.3455 32.9811 36.5105 32.8902 36.5105C32.7994 36.5105 31.7819 36.3822 31.7819 36.3822L31.4549 36.3455H30.9643H29.856L28.6568 36.0522L28.1118 36.5839C28.1118 36.5839 27.5485 36.5839 27.4577 36.5839C27.3668 36.5839 26.422 36.5105 26.2949 36.5472C26.1677 36.5839 25.8043 36.6205 25.8043 36.6205L25.4409 36.4189L25.3137 36.2905H25.0594C25.0594 36.2905 25.023 36.2539 24.8958 36.3272C24.7686 36.4005 23.6967 36.3272 23.6967 36.3272C23.6967 36.3272 23.2424 36.0705 23.0426 36.3272C22.8427 36.5839 22.4975 36.6205 22.4975 36.6205L21.1893 36.5472C21.1893 36.5472 21.262 36.3822 20.8623 36.5472C20.4626 36.7122 19.8266 36.5839 19.8266 36.5839C19.8266 36.5839 19.0454 36.5105 18.9364 36.5105C18.8455 36.5105 18.7728 36.4372 18.6457 36.6022C18.5185 36.7672 18.5185 36.7672 18.5185 36.7672H17.828L17.4647 36.8589L17.2648 36.8955H17.0649C16.6471 36.9689 15.5387 36.9689 15.5387 36.9689C15.5387 36.9689 15.1208 36.8405 15.0845 37.0055C15.0482 37.1705 15.248 37.0422 15.0482 37.1705C14.8483 37.2989 14.4304 37.2072 14.3032 37.2072C14.2306 37.2072 14.1942 37.2072 14.1761 37.2072C14.1579 37.2072 14.1579 37.2072 14.1579 37.2072C14.1397 37.2072 14.0489 37.2072 13.7945 37.2072C13.3403 37.2072 12.1048 36.8405 12.1048 36.8405H11.9776H11.7777L11.3235 36.9689L10.7058 37.1339L10.5059 37.2072H9.88814H9.34307H9.01602H8.8525L8.10757 37.0422C8.10757 37.0422 8.03489 37.0055 7.65334 37.1155C7.25362 37.2072 7.25362 37.2072 7.25362 37.2072H6.43601L6.19981 37.1339C6.19981 37.1339 6.10897 37.0422 5.99995 37.0972C5.90911 37.1705 5.18234 37.3355 5.18234 37.3355L5.01882 37.2072L4.32839 36.9872L3.87417 37.0239L3.41994 37.0605C3.41994 37.0605 2.83853 37.0972 2.72951 37.2255C2.63867 37.3539 2.56599 37.3905 2.47514 37.4822C2.3843 37.5555 2.32979 37.6839 2.32979 37.6839C2.32979 37.6839 2.25711 37.7755 2.09359 37.8489C1.93007 37.9222 1.93007 37.9222 1.93007 37.9222C1.93007 37.9222 1.89373 37.9589 1.6757 38.2522C1.4395 38.5455 1.385 38.6555 1.34866 38.7472C1.33049 38.8205 1.25781 38.9122 1.25781 38.9672C1.25781 38.9672 1.29415 39.0039 1.385 39.0955C1.6757 39.3889 1.6757 39.3889 1.6757 39.3889C1.6757 39.3889 1.76655 39.6822 2.09359 39.6822C2.42064 39.6822 2.49331 39.7189 2.58416 39.7189C2.675 39.7189 2.71134 39.6822 2.87486 39.7189C3.03839 39.7555 3.16557 39.7555 3.36543 39.7555C3.56529 39.7555 3.43811 39.7555 3.76515 39.7555C4.09219 39.7555 4.16487 39.7555 4.58276 39.7922C5.00065 39.8289 5.12783 39.8289 5.45488 39.8289C5.78192 39.8289 6.47235 39.8289 6.59953 39.8289C6.72672 39.8289 6.99925 39.7372 7.0901 39.7372C7.18094 39.7372 7.74419 39.7372 7.74419 39.7372C7.74419 39.7372 7.81686 39.6639 7.94405 39.6639C8.05306 39.6639 8.70715 39.6455 8.94335 39.6639C8.99785 39.6639 9.12504 39.6639 9.39758 39.6639C10.306 39.7005 10.8693 39.7005 10.8693 39.7005C10.8693 39.7005 11.0328 39.6639 11.1236 39.7005C11.2145 39.7372 10.9238 39.5355 11.8686 39.6089C12.8134 39.6822 13.0314 39.6089 13.0314 39.6089L13.9035 39.4805L14.7575 39.3522H14.9937C14.9937 39.3522 15.3934 39.4439 15.5206 39.4439C15.6478 39.4439 16.4654 39.3155 16.5562 39.3522C16.6471 39.3889 16.9196 39.5172 17.0104 39.4805C17.1013 39.4439 17.6282 39.3889 17.6282 39.3889L18.4095 39.4622C18.4095 39.4622 18.8637 39.3339 18.9545 39.3889C19.0454 39.4622 19.5359 39.4622 19.5359 39.4622L20.3899 39.3889L21.1348 39.5539C21.1348 39.5539 21.5527 39.5539 21.6981 39.5539C21.8252 39.5539 22.4067 39.5172 22.4067 39.5172C22.4067 39.5172 22.334 39.2789 22.661 39.2789C22.9881 39.2789 23.4786 39.3522 23.4786 39.3522C23.4786 39.3522 23.4786 39.1505 23.9692 39.3155C24.4598 39.4805 24.6596 39.4439 24.6596 39.4439L25.1139 39.3705L25.2047 39.5722L25.5317 39.8105L26.313 39.6455L26.8763 39.4072H27.4032C27.4032 39.4072 27.7847 39.3339 27.9482 39.3705C28.1118 39.4072 28.8567 39.4439 28.8567 39.4439L29.3473 39.4072C29.4744 39.6089 30.2557 39.8105 30.2557 39.8105L30.4192 39.8472L31.1097 39.5172H31.5276L32.545 39.3522H32.6722L32.9993 39.4805H33.3626L33.6533 39.3522L34.798 39.4255L35.4157 39.2972H36.0335L36.7421 39.2605C36.7421 39.2605 36.7421 39.1322 37.3053 39.2605C37.8504 39.3889 38.8315 39.3889 38.8315 39.3889L39.5583 39.4255H40.4668L41.4116 39.3889C41.4116 39.3889 42.5925 39.4255 42.7197 39.3889C42.8469 39.3522 43.9552 39.2605 43.9552 39.2605H44.9L45.2634 39.3339L45.8266 39.2605C45.8266 39.2605 46.5716 38.8939 46.7714 39.0955C46.9713 39.2972 47.0621 39.1872 46.9713 39.2972C46.8805 39.3889 47.7162 38.9305 47.7162 38.9305L47.9706 38.9672C47.9706 38.9672 48.1341 38.7655 48.4612 38.8939C48.7882 39.0222 48.7882 39.0222 48.7882 39.0222L49.0789 38.9489L50.1146 38.9122C50.1146 38.9122 50.1509 38.8755 50.2781 38.8389C50.4053 38.8022 50.696 38.9305 50.696 38.9305L51.023 38.9672C51.023 38.9672 50.6233 38.6005 51.0594 38.7289C51.4772 38.8572 51.2774 38.8572 51.4772 38.8572C51.6771 38.8572 52.095 38.8572 52.095 38.8572L52.2949 38.8205C52.2949 38.8205 52.3857 38.5639 52.5856 38.6189C52.7854 38.6922 53.0398 38.6922 53.0398 38.6922V38.5639L53.5849 38.6372C53.5849 38.6372 53.8211 38.3989 53.9482 38.3989C54.0754 38.3989 54.7659 38.3622 54.7659 38.3622C55.1292 38.5272 55.1837 38.5272 55.2928 38.5272C55.3836 38.5272 55.9468 38.2705 55.9468 38.2705C55.9468 38.2705 55.7833 37.9039 56.074 38.0322C56.3647 38.1605 56.3102 38.1239 56.6191 38.1605C56.9461 38.1972 57.3095 38.1972 57.6911 38.1972C58.0908 38.1972 58.5814 38.1972 58.5814 38.1972L58.6722 38.0322C58.6722 38.0322 58.6722 37.7755 58.7631 37.8672C58.8539 37.9589 58.9993 37.9589 59.181 38.0322C59.29 38.0689 59.4535 38.0505 59.5807 38.0322C59.5807 38.0505 59.5807 38.0505 59.5807 38.0689C59.5807 38.1239 59.6715 38.2339 59.6897 38.2522C59.7079 38.2522 59.7624 38.2705 60.3256 38.2705C60.8888 38.2522 60.471 38.1972 60.471 38.1789C60.471 38.1422 60.471 38.0322 60.471 37.9955C60.4528 37.9589 60.2893 37.8489 60.2711 37.8489C60.2348 37.8305 60.0894 37.8305 60.0712 37.8305C60.0712 37.8305 59.9441 37.8122 59.8714 37.8122L59.6533 37.4089C59.6715 37.4089 59.726 37.3905 59.7987 37.3722C60.0349 37.2805 60.5436 37.1705 60.6708 37.1705L60.7072 37.3722C60.7072 37.3722 60.58 37.5372 60.7072 37.5372C60.8343 37.5372 60.798 37.4089 60.8343 37.5372C60.8707 37.6655 60.8707 37.6655 60.8707 37.6655C60.8707 37.6655 60.8707 37.7022 60.9615 37.7939C60.9797 37.8122 60.9797 37.8122 60.9979 37.8305C60.9979 37.8489 60.9979 37.8489 60.9979 37.8672C60.9797 37.9589 60.7435 37.7022 60.9434 38.0505C61.1432 38.4172 61.2159 38.3989 61.2522 38.3989C61.3067 38.3989 61.3976 38.4172 61.4339 38.4172C61.4521 38.4172 61.5248 38.3805 61.5429 38.3622C61.5611 38.3439 61.6338 38.1789 61.6156 38.1055C61.5974 38.0322 61.5793 37.9955 61.6156 37.9772C61.6519 37.9589 61.5793 37.8855 61.6156 37.8672C61.7065 37.8122 61.7065 37.7939 61.8881 37.7939Z" fill="#6F6F6F"/>
<path d="M3.67488 31.3397L3.91108 31.6514L4.18362 31.7797L4.34714 31.8897L4.58334 32.0914L4.89221 32.3664C4.89221 32.3664 4.89221 32.4031 5.05573 32.4031C5.21926 32.4031 5.40095 32.4031 5.40095 32.4031L5.67348 32.3297C5.83701 32.1281 5.94602 32.3297 6.0187 32.0547C6.09137 31.7797 6.21856 31.4681 6.25489 31.3397C6.29123 31.2297 6.18222 31.5047 6.29123 31.2297C6.40025 30.9547 6.69095 30.5514 6.69095 30.5514C6.69095 30.5514 6.65462 31.1381 6.99983 30.2764C7.34504 29.4147 7.34504 29.4147 7.34504 29.4147C7.34504 29.4147 7.47222 29.3047 7.58124 29.1397C7.69025 28.9747 7.85378 28.7364 7.85378 28.7364L7.89011 28.5347C7.89011 28.5347 7.89011 28.4981 7.92645 28.3697C7.96279 28.2597 8.03547 28.0581 8.16265 27.9297C8.28984 27.8197 8.12631 28.0947 8.28984 27.8197C8.45336 27.5447 8.72589 26.9947 8.72589 26.9947L8.88942 26.7931L9.19829 26.5547L9.30731 26.2064L9.57984 25.9681L9.61618 25.8031C9.61618 25.8031 9.68886 25.8397 9.7797 25.6931C9.85238 25.5281 9.97956 25.5831 10.2884 25.3081C10.5973 25.0331 10.5973 25.0331 10.5973 25.0331L10.9062 24.7214V24.3731C11.0152 24.0614 10.8698 24.0614 11.0697 23.8964C11.2696 23.7497 11.2696 23.7497 11.2696 23.7497L11.5421 23.5481C11.5421 23.5481 11.6511 23.5847 11.742 23.3464C11.8146 23.1081 11.9782 22.9981 11.9782 22.8697C11.9782 22.7597 12.5232 22.1181 12.5232 22.1181L12.6868 22.0447C12.6868 22.0447 12.6868 22.0447 12.7958 21.8797C12.9048 21.7331 13.0683 21.6414 13.1047 21.4031C13.141 21.1647 13.2682 21.2014 13.3772 21.0547C13.4862 20.8897 13.4862 21.0181 13.6497 20.8897C13.8132 20.7614 13.8859 20.5414 13.8859 20.5414C13.8859 20.5414 13.9586 20.5047 14.0858 20.4314C14.1948 20.3581 14.5945 19.9547 14.5945 19.8447C14.5945 19.7347 14.8307 19.2581 14.8307 19.2581C14.8307 19.2581 14.7944 19.0931 14.9034 19.0564C15.0124 19.0197 15.1759 18.8547 15.1759 18.8547L15.4485 18.5797C15.4485 18.5797 15.4848 18.6164 15.5757 18.4147C15.6483 18.2131 15.4121 18.8547 15.6483 18.2131C15.8845 17.5714 15.8845 17.5714 15.8845 17.5714C15.8845 17.5714 16.2661 17.4064 16.3569 17.2964C16.4296 17.1681 16.7021 16.8931 16.7566 16.7831C16.793 16.6731 16.793 16.6731 16.793 16.6731C16.793 16.6731 16.7566 16.7097 16.9565 16.4714C17.1564 16.2331 17.229 16.1597 17.3017 16.0314C17.3744 15.9031 17.3744 15.9031 17.3744 15.9031C17.3744 15.9031 17.4107 15.7931 17.5379 15.5547C17.6469 15.3164 17.8105 15.2064 17.8468 15.0781C17.8831 14.9497 19.1005 13.5014 19.1005 13.5014L19.7727 12.7131C19.7727 12.7131 19.9726 12.2731 20.1179 12.1631C20.2815 12.0531 20.3905 11.8514 20.3905 11.8514C20.3905 11.8514 20.2269 11.9247 20.5903 11.5764C20.9355 11.2281 21.7713 10.3481 21.7713 10.3481L22.4799 9.79807L22.6434 9.35807L22.8433 9.19307C22.8433 9.19307 23.0068 9.19307 23.0432 9.02807C23.0795 8.86307 22.807 9.13807 23.0795 8.86307C23.352 8.58807 23.3157 8.89974 23.352 8.58807C23.3884 8.2764 23.5882 8.1114 23.8244 8.03807C24.0606 7.96474 24.3332 7.8364 24.3332 7.8364L24.533 7.32307L24.7329 7.1214C24.7329 7.1214 24.8964 7.1214 24.9327 7.0114C24.9691 6.9014 24.9691 6.9014 24.9691 6.9014C24.9691 6.9014 25.0963 6.49807 25.2053 6.4614C25.3143 6.42473 25.3143 6.42473 25.3143 6.42473C25.3143 6.42473 25.6595 6.31473 25.6595 6.1864C25.6595 6.0764 25.5868 5.83807 25.7322 5.7464C25.8957 5.67307 25.6595 5.9114 25.8957 5.67307C26.1319 5.43474 26.2409 5.26973 26.2409 5.26973C26.2409 5.26973 26.3136 5.15974 26.4771 4.95807C26.6406 4.7564 26.9132 4.44473 26.9495 4.33473C26.9859 4.22473 27.1857 4.13307 27.1857 4.13307L27.4582 3.5464C27.4582 3.5464 27.7308 3.30807 27.7671 3.19807C27.8035 3.08807 28.0033 2.8864 28.076 2.7214C28.1487 2.5564 28.3122 2.20807 28.3122 2.20807C28.3122 2.20807 28.2759 2.09807 28.1123 2.20807C27.9488 2.31807 28.0033 2.13473 27.9488 2.31807C27.9488 2.3364 27.9488 2.35474 27.9306 2.37307H27.858L27.5128 2.59307L27.4037 2.73974H27.1494H26.8768L26.7133 2.7764L26.3681 2.8864C26.3681 2.8864 26.1682 2.84974 26.1319 2.92307C26.1137 2.95974 26.0774 3.01474 26.0229 3.06974L25.4778 3.2714L25.4415 3.5464L25.4051 3.74807L25.0599 3.58307C25.0599 3.58307 24.6602 3.41807 24.6602 3.58307C24.6602 3.74807 24.8964 3.8214 24.8964 3.8214L24.6965 3.8764L24.5512 3.94974C24.5512 3.94974 24.4058 3.83973 24.3877 4.00473L24.1878 4.11474L23.8426 4.35307C23.8426 4.35307 23.8789 4.4814 23.7699 4.51807C23.6609 4.55473 23.6609 4.55473 23.6609 4.55473L23.1522 4.79307H22.9886L22.916 5.06807C22.916 5.06807 22.4436 5.3064 22.6071 5.37974C22.6434 5.39807 22.6616 5.39807 22.6798 5.4164L22.3891 5.5814C22.3891 5.5814 22.3527 5.6914 22.2801 5.8014C22.2074 5.8014 22.1529 5.8014 22.0984 5.83807C21.9893 5.9114 21.6986 5.87473 21.6986 6.00307C21.6986 6.11307 21.4624 6.20473 21.5351 6.3514C21.5533 6.36973 21.5533 6.4064 21.5715 6.4614L21.5351 6.53473L21.3353 6.9564L21.1899 7.21307C21.1899 7.21307 20.99 7.21307 20.9537 7.2864C20.9537 7.2864 20.9174 7.1764 20.7902 7.2864C20.772 7.30473 20.7538 7.32307 20.7357 7.32307C20.6267 7.3414 20.5176 7.37807 20.445 7.48807C20.4268 7.5064 20.4086 7.52473 20.4086 7.5614C20.4086 7.57973 20.3905 7.57974 20.3905 7.59807C20.3178 7.6714 20.0998 7.7264 20.0998 8.03807C20.0998 8.1114 20.0998 8.18474 20.0998 8.23974L19.9726 8.42307L19.7545 8.62473C19.7545 8.62473 19.5002 8.8264 19.5183 8.84473C19.5183 8.84473 19.4093 8.84473 19.2821 8.91807C19.1731 8.9914 18.9733 9.02807 18.9733 9.02807L18.7734 9.22974L18.7007 9.39473C18.7007 9.39473 18.8643 9.3214 18.6281 9.63307C18.3919 9.94473 18.3919 9.94473 18.3919 9.94473L17.8105 10.5314L17.4652 10.8431L17.3562 11.2464L17.0655 11.4664L16.8657 11.5764C16.8657 11.5764 16.5931 11.5397 16.5204 11.6497C16.4659 11.7231 16.3024 12.0531 16.2116 12.2547C16.1934 12.2547 16.1389 12.3281 15.939 12.5664C15.4666 13.1531 15.4666 13.1531 15.4666 13.1531L15.2304 13.3547C15.2304 13.3547 14.8307 13.5564 14.8307 13.7031C14.8307 13.8681 14.758 13.7764 14.6309 14.0147C14.5218 14.2531 14.3583 14.2164 14.322 14.4181C14.2856 14.6197 13.9768 14.5281 13.8132 14.8031C13.6497 15.0781 13.4499 14.9681 13.4499 15.1514C13.4499 15.2247 13.468 15.3164 13.4862 15.4264C13.4135 15.5181 13.3772 15.5731 13.3227 15.6097C13.2318 15.6647 13.2318 15.7747 13.2318 15.7747C13.2318 15.7747 13.0501 15.9581 12.9775 16.0497C12.923 16.1414 12.7049 16.2147 12.7049 16.2147L12.6868 16.3431C12.6868 16.3431 12.4869 16.5631 12.287 16.8014C12.2144 16.8197 12.1417 16.8747 12.1417 16.9297C12.1417 16.9664 12.1417 16.9847 12.1417 16.9847C12.0508 17.1131 11.96 17.2414 11.9055 17.3331C11.7238 17.6814 11.9055 17.3331 11.8146 17.4614C11.7238 17.5897 11.6875 17.6814 11.6875 17.6814L11.6511 17.7181C11.4876 17.7364 11.2514 17.7914 11.2696 18.0664C11.2696 18.1031 11.2696 18.1581 11.2696 18.1947L11.2151 18.2864L10.9062 18.5064C10.9062 18.5064 10.7427 18.7631 10.6337 18.8181L10.6155 18.8364C10.5246 18.8731 10.5791 18.9831 10.5791 19.1297C10.5791 19.1481 10.5791 19.1847 10.5791 19.2031V19.2397C10.5428 19.3681 10.3611 19.3131 10.3611 19.3131C10.3611 19.3131 10.3611 19.3131 9.96139 19.8447C9.56167 20.3764 9.79787 20.1564 9.79787 20.1564L9.67069 20.3214C9.67069 20.3214 9.57984 20.4497 9.489 20.6331C9.45266 20.7247 9.39815 20.7614 9.34364 20.7981C9.27097 20.7797 9.16195 20.7981 9.12561 20.8714C9.05294 20.9997 8.88942 21.1097 8.88942 21.1097L8.63505 21.3664C8.63505 21.3664 8.34434 21.3297 8.39885 21.5314C8.43519 21.6231 8.36251 21.7697 8.27167 21.9164C8.23533 21.9531 8.23533 21.9714 8.23533 21.9714C8.23533 21.9714 8.23533 21.9714 8.23533 21.9897C8.16265 22.1181 8.10814 22.2464 8.10814 22.3381C8.10814 22.5764 7.89011 22.8697 7.89011 22.8697C7.89011 22.8697 7.19969 23.1264 7.19969 23.2547C7.19969 23.3831 7.19969 23.5847 7.19969 23.5847L6.83631 23.9697L6.67278 24.2081L6.29123 24.2997L6.20039 23.7131L6.12771 23.2547L6.09137 22.5947C6.09137 22.5947 6.09137 21.6781 6.09137 21.3847C6.09137 21.0914 6.09137 21.0914 6.09137 21.0914C6.09137 21.0914 6.18222 20.9997 6.18222 20.7247C6.18222 20.4681 6.18222 20.5047 6.18222 20.1931C6.18222 19.8997 6.14588 19.5697 6.14588 19.3314C6.14588 19.1114 6.18222 18.9647 6.14588 18.8731C6.10954 18.7814 6.0732 18.7447 6.0732 18.5431C6.0732 18.3414 6.0732 18.3781 6.0732 18.1397C6.0732 17.9014 6.0732 17.8831 6.10954 17.6447C6.14588 17.4064 6.18222 17.3881 6.18222 17.1497C6.18222 16.9114 6.21856 16.8564 6.21856 16.7281C6.21856 16.5997 6.0187 16.1414 6.0187 16.1414L5.98236 15.9031L5.81884 15.5364L5.40095 15.2064C5.40095 15.2064 5.20109 14.9681 5.11024 14.9497C5.01939 14.9131 4.61967 14.7114 4.61967 14.7114L4.36531 14.5097L4.23812 14.3814L3.98376 14.2164L3.7839 14.1431H3.5477C3.5477 14.1431 3.22065 27.6731 3.5477 30.7531L3.67488 31.3397ZM22.7343 5.43473C22.7161 5.43473 22.7161 5.43474 22.6979 5.4164C22.7343 5.43474 22.7343 5.43473 22.7343 5.43473Z" fill="#6F6F6F"/>
<path d="M41.3173 23.1814C41.4082 23.4198 41.3173 23.4381 41.3718 23.6398C41.4263 23.8414 41.4627 23.8231 41.4627 23.9698C41.4627 24.1164 41.5172 24.0248 41.6625 24.2631C41.8079 24.5014 41.8987 24.7031 41.8987 24.7031C41.6444 24.8498 41.5172 24.6114 41.499 24.7581C41.4627 24.9048 41.608 24.9231 41.6807 25.1981C41.7352 25.4548 41.7897 25.2348 41.8806 25.8764C41.9714 26.5181 42.0259 26.6281 42.1168 26.9581C42.2076 27.2881 42.1168 27.3614 42.4075 27.5998C42.6982 27.8381 42.462 27.7098 42.898 28.0397C43.3341 28.3514 43.4431 28.4431 43.861 28.6448C44.2607 28.8464 44.9693 29.2314 45.0783 29.3231C45.1873 29.4147 45.5689 29.6531 45.8051 29.7998C46.0413 29.9464 46.1321 29.9831 46.4955 29.9831C46.8771 29.9831 47.4585 30.0014 47.622 30.0014C47.8037 30.0014 47.5675 29.9464 48.1671 29.9098C48.7667 29.8731 49.3299 29.8181 49.5298 29.8181C49.7296 29.8181 50.4019 29.5247 50.7471 29.4147C51.0923 29.3047 51.0923 29.3048 51.0923 29.3048C51.3467 29.2314 51.5647 29.1398 51.7464 29.0664C51.7827 29.0664 51.8009 29.0481 51.8191 29.0298C51.8554 29.0114 51.8917 28.9931 51.9281 28.9748C51.9463 28.9748 51.9826 28.9931 52.0189 28.9931C52.1643 29.0298 51.9281 28.9931 52.1643 28.8831C52.4005 28.7731 52.6548 28.6814 52.6548 28.5897C52.6548 28.5164 52.782 28.3331 52.8547 28.2231C52.891 28.1864 52.9274 28.1497 52.9456 28.1314C52.9637 28.1131 53.0001 28.0764 53.0364 28.0397C53.1817 27.8931 53.3453 27.7464 53.527 27.5814C53.5996 27.5264 53.6541 27.4714 53.7268 27.3981L54.2537 27.3064L54.2174 27.1598V27.0131C54.2174 27.0131 54.4173 26.8298 54.5444 26.7564C54.6535 26.6648 54.926 26.7014 54.926 26.5181C54.926 26.3531 54.5989 26.6281 54.926 26.3531C55.2349 26.0598 55.2349 26.0598 55.2349 26.0598L55.3439 25.7664C55.5982 25.4731 55.8344 25.1798 55.9798 24.9598L55.998 24.9414C56.2342 24.9048 56.3613 24.8681 56.3613 24.8681C56.3613 24.8681 56.4159 24.8314 56.543 24.8131C56.6521 24.7764 56.7792 25.1064 56.7792 24.6298C56.7792 24.1531 56.8156 24.1531 56.8156 23.9881C56.8156 23.8048 56.8156 23.8781 56.9246 23.7314C57.0336 23.5848 56.9609 24.1714 57.1608 23.4748C57.3606 22.7781 57.4515 22.7781 57.5423 22.7231C57.6332 22.6681 57.6332 22.6681 57.6332 22.6681L57.7967 22.4848C57.7967 22.4848 57.9421 22.4298 57.9421 22.3014C57.9421 22.1914 57.9421 22.1364 57.9421 21.9898C57.9421 21.8431 57.9057 22.0448 57.9421 21.8431C57.9602 21.6414 58.0874 21.4398 58.0874 21.4398C58.0874 21.4398 57.833 21.4031 57.6332 21.4031C57.4333 21.4031 57.4333 21.4031 57.4333 21.4031C57.4333 21.4031 57.2335 21.3114 57.4878 21.2014C57.7422 21.0914 57.8694 21.0914 57.8694 21.0914L58.0511 21.1281C57.8694 20.9814 57.7967 20.8164 57.7967 20.8164L58.1237 20.6331L58.2691 20.5414C58.2691 20.5414 57.4333 20.5414 57.6877 20.3581C57.9421 20.1931 58.0692 20.1931 58.0692 20.1931C58.0692 20.1931 58.3963 20.1564 58.2691 20.1564C58.1601 20.1564 57.724 20.0464 58.0692 19.9181C58.4145 19.8081 58.4145 19.8081 58.4145 19.8081C58.4145 19.8081 58.3054 19.4964 58.5053 19.6431C58.7052 19.7898 58.6688 19.4598 58.6688 19.4598L58.5235 19.2764C58.5235 19.2764 58.2691 19.0381 58.2146 19.2398C58.1601 19.4414 58.2146 19.1298 58.2146 19.1298L58.4508 19.0198H58.6507C58.8323 19.1114 58.8869 18.9648 58.8869 18.9648C58.8869 18.9648 59.123 18.9648 59.0322 18.7264C58.9414 18.4881 58.8323 18.4331 58.8323 18.4331C58.8323 18.2864 59.0685 18.1214 59.0685 18.1214C59.0685 18.1214 59.1049 18.0848 59.1049 17.9748C59.1049 17.8648 59.0504 17.9748 59.1049 17.8648C59.1594 17.7548 59.1957 17.6081 59.1957 17.6081C59.1412 17.4614 59.1412 17.4614 59.1412 17.4614C59.1412 17.4614 59.1049 17.2598 59.1049 17.1498C59.1049 17.0398 59.1957 17.1498 59.1049 17.0398C59.014 16.9298 58.905 17.0031 59.014 16.9298C59.1231 16.8381 59.123 16.8198 59.123 16.7281C59.123 16.6364 59.0685 16.7831 59.123 16.6364C59.1776 16.4898 59.3774 16.6914 59.1776 16.4898C58.9777 16.2881 59.2684 16.5264 58.9777 16.2881C58.687 16.0498 58.687 16.0498 58.687 16.0498C58.687 16.0498 58.6507 15.9581 58.7233 15.7198C58.7778 15.4814 58.7778 15.4814 58.7778 15.4814C58.6688 15.3714 58.5416 15.3714 58.5416 15.3714C58.5416 15.3714 58.3781 15.3164 58.3781 15.2248C58.3781 15.1331 58.3781 14.9864 58.3781 14.9864C58.3781 14.9864 58.2873 14.8948 58.1419 14.7481C57.9966 14.6014 57.7604 14.4914 57.615 14.2531C57.4697 14.0148 57.2153 13.7581 57.0336 13.6114C56.8519 13.4648 56.652 13.4648 56.5794 13.3731C56.4885 13.2814 55.8889 13.0248 55.8889 13.0248C55.8889 13.0248 55.0713 12.6764 54.926 12.6214C54.7806 12.5664 54.2537 12.2364 54.1447 12.2181C54.0357 12.1814 53.6905 12.1631 53.5633 12.1631C53.4543 12.1631 52.8365 12.1998 52.8365 12.1998C52.8365 12.1998 52.1461 12.5298 52.0916 12.6031C52.0371 12.6948 51.5647 13.1898 51.5647 13.1898C51.5647 13.1898 51.1831 13.2998 51.0741 13.3364C50.9651 13.3731 50.4746 13.4831 50.4746 13.4831L50.1838 13.7764H49.8023C49.8023 13.7764 49.0574 13.8131 48.9302 13.8131C48.8212 13.8131 48.7303 13.8314 48.6213 13.9231C48.5123 14.0148 47.9309 14.0698 47.84 14.1614C47.7492 14.2531 47.6947 14.3448 47.5857 14.3998C47.4766 14.4548 47.2405 14.4364 47.1496 14.5098C47.0588 14.6014 46.7135 14.7664 46.6045 14.9131C46.4955 15.0598 46.005 15.6464 46.005 15.6464V15.9031L45.9504 16.1964L45.8959 16.3431C45.8959 16.3431 45.8596 16.2331 45.7506 16.3981C45.6416 16.5814 45.4235 16.5998 45.4235 16.5998L44.7513 17.0764C44.7513 17.0764 44.6604 16.9298 44.6059 17.0398C44.5514 17.1498 44.4969 17.2964 44.4969 17.2964L44.4424 17.5348V17.6448C44.4424 17.6448 44.4787 17.6998 44.4787 17.8464C44.4787 17.9931 44.4787 17.9931 44.4787 17.9931L44.0427 18.2314C44.0427 18.2314 43.9518 18.2864 43.861 18.3414C43.7702 18.3964 43.5158 18.4514 43.5158 18.5431C43.5158 18.6348 43.5158 18.6348 43.5158 18.6348C43.5158 18.6348 43.4249 18.7814 43.3341 18.9464C43.2432 19.1298 43.0979 19.2398 43.0979 19.2398L42.9525 19.4414C42.9525 19.4414 42.8072 19.4781 42.8072 19.5514C42.8072 19.6431 42.6982 19.9914 42.6982 20.0831C42.6982 20.1748 42.6618 20.3214 42.6618 20.3948C42.6618 20.4864 42.6073 20.2848 42.571 20.5964C42.5528 20.9264 42.5165 20.8898 42.4801 21.0914C42.4438 21.2931 42.3348 21.4398 42.2803 21.5314C42.2258 21.6231 42.3893 21.7331 42.2258 21.6231C42.0441 21.5131 42.2258 21.3664 42.0441 21.5131C41.8624 21.6598 41.8079 21.7698 41.7897 21.9531C41.7534 22.1181 41.6989 22.1914 41.7352 22.3014C41.7715 22.4114 41.8806 22.3381 41.7352 22.6314C41.499 22.8331 41.2446 22.9431 41.3173 23.1814ZM44.6241 25.9131C44.6241 25.9131 44.7695 25.8948 44.7876 25.8031C44.824 25.7114 44.8421 25.4181 44.8421 25.2714C44.8421 25.1248 44.8603 24.9781 44.8603 24.7214C44.8603 24.4648 44.8058 23.8781 44.8058 23.8781C44.8058 23.8781 44.8058 23.8781 45.8414 21.4764C46.8771 19.0748 49.2209 17.5898 49.6388 17.3698C50.0385 17.1314 50.1657 17.1864 50.4019 17.0214C50.6381 16.8381 50.9833 16.6914 51.2013 16.5264C51.4375 16.3614 51.6919 16.2698 51.8736 16.1781C52.0371 16.0864 52.7457 15.7198 52.9819 15.6281C53.2181 15.5364 53.4361 15.4814 53.527 15.4448C53.6178 15.4081 53.9085 15.4448 54.4172 15.4081C54.7261 15.3898 54.7806 15.3898 54.7806 15.3898L55.3802 15.2614L55.3439 15.2064C55.3439 15.2064 55.3439 15.2064 55.5437 15.4081C55.7436 15.6098 55.5437 15.4081 55.5437 15.4998C55.5437 15.5914 55.6346 15.6464 55.6528 15.7381C55.6891 15.8298 55.6891 15.9031 55.7073 15.9948C55.7436 16.0864 55.7073 16.2331 55.7073 16.3981C55.7073 16.5814 55.7073 16.7098 55.7073 16.7098C55.7073 16.7098 55.7436 16.8564 55.6528 17.1498C55.5619 17.4431 55.6528 17.1498 55.6528 17.2414C55.6528 17.3331 55.6528 17.5898 55.6528 17.7364C55.6528 17.7364 55.362 18.9098 54.4354 20.8348C53.5088 22.7598 53.0546 22.7231 52.1279 23.9881C51.2013 25.2348 51.6737 24.4464 51.5829 24.5381C51.492 24.6298 51.274 24.8864 50.8561 25.3264C50.4564 25.7664 50.5291 25.6198 50.0748 25.9314C49.6206 26.2431 49.5479 26.1698 49.4753 26.2248C49.3844 26.2798 49.2754 26.3348 48.4033 26.8481C47.5312 27.3431 47.8219 27.0498 47.6583 27.1414C47.4948 27.2331 46.6227 27.3064 46.6227 27.3064C46.6227 27.3064 46.1685 27.1964 45.9868 27.1414C45.8051 27.0864 45.6416 26.9948 45.4962 26.9581C45.3509 26.9214 45.3145 26.9581 45.0602 26.8114C44.8058 26.6648 44.9693 26.6648 44.9148 26.5181C44.8603 26.3714 44.7695 26.4264 44.7149 26.3348C44.6604 26.2431 44.5696 26.2431 44.5696 26.1514C44.5696 26.0964 44.6241 25.9131 44.6241 25.9131Z" fill="#6F6F6F"/>
<path d="M78.4578 14.0137L77.3858 17.3687C77.3494 17.4787 77.3494 17.5337 77.3494 17.607C77.3494 17.5337 77.3131 17.442 77.2949 17.3687L76.1685 14.0137H75.1328L76.9679 19.1287H77.622L79.4571 14.0137H78.4578Z" fill="#6F6F6F"/>
<path d="M80.89 14.0137L79.1094 18.982H80.0905L80.4902 17.7537H82.1436L82.5252 18.982H83.5063L81.7257 14.0137H80.89ZM80.7446 16.947L81.3078 15.1503L81.8893 16.947H80.7446Z" fill="#6F6F6F"/>
<path d="M85.144 14.0137H84.1992V18.9637H87.1608V18.1753H85.144V14.0137Z" fill="#6F6F6F"/>
<path d="M88.8315 14.0137H87.8867V18.9637H90.8483V18.1753H88.8315V14.0137Z" fill="#6F6F6F"/>
<path d="M96.3702 14.0137H94.5352V18.982H96.3521C97.2424 18.982 97.8964 18.7437 98.3507 18.2487C98.7867 17.7903 99.0229 17.1487 99.0229 16.4887C99.0229 15.847 98.7867 15.2053 98.3507 14.747C97.8783 14.2153 97.2969 14.0137 96.3702 14.0137ZM96.2794 18.1387H95.5345V14.8387H96.2794C96.8245 14.8387 97.206 14.9303 97.4604 15.132C97.8056 15.3887 98.0236 15.9203 98.0236 16.4703C98.0236 17.5337 97.3877 18.1387 96.2794 18.1387Z" fill="#6F6F6F"/>
<path d="M100.171 13.8496C99.9349 13.8496 99.8259 13.8863 99.5352 14.0146L99.953 15.0229C99.9349 15.2613 99.9167 15.3346 99.8259 15.5729C99.735 15.8296 99.6987 15.9029 99.5897 16.1413H100.135C100.516 15.5729 100.752 14.9313 100.752 14.4729C100.771 14.0513 100.589 13.8496 100.171 13.8496Z" fill="#6F6F6F"/>
<path d="M105.24 15.9937H102.714V14.0137H101.77V18.9637H102.714V16.837H105.24V18.9637H106.166V14.0137H105.24V15.9937Z" fill="#6F6F6F"/>
<path d="M108.457 16.837H110.146V16.0303H108.457V14.8203H110.51V14.0137H107.512V18.9637H110.619V18.1753H108.457V16.837Z" fill="#6F6F6F"/>
<path d="M113.8 16.3611C114.181 16.3428 114.381 16.2511 114.599 15.9944C114.781 15.7744 114.89 15.4994 114.89 15.2061C114.89 14.8761 114.744 14.5278 114.508 14.3261C114.236 14.0694 113.927 13.9961 113.273 13.9961H111.492V18.9644H113.491C114.472 18.9644 115.017 18.5061 115.017 17.6444C115.017 16.8744 114.545 16.3794 113.8 16.3611ZM112.473 14.7661H113.091C113.563 14.7661 113.854 15.0044 113.854 15.3894C113.854 15.8111 113.563 16.0311 113.037 16.0311H112.473V14.7661ZM113.654 18.1211C113.509 18.1944 113.382 18.2128 113.091 18.2128H112.473V16.8378H113.091C113.672 16.8378 114 17.0944 114 17.5344C113.981 17.7911 113.854 18.0111 113.654 18.1211Z" fill="#6F6F6F"/>
<path d="M119.05 16.3794C119.231 16.1411 119.322 15.8294 119.322 15.4444C119.322 14.9861 119.195 14.6194 118.923 14.3628C118.632 14.0878 118.305 13.9961 117.596 13.9961H115.961V18.9644H116.906V16.9844H117.378L118.505 18.9644H119.54L118.323 16.8378C118.686 16.7278 118.868 16.6178 119.05 16.3794ZM117.487 16.1778H116.869V14.8028H117.487C118.105 14.8028 118.341 14.9861 118.341 15.4628C118.359 15.9761 118.087 16.1778 117.487 16.1778Z" fill="#6F6F6F"/>
<path d="M122.464 13.9219C120.901 13.9219 119.848 14.9669 119.848 16.4885C119.848 17.9919 120.92 19.0735 122.464 19.0735C123.99 19.0735 125.08 18.0102 125.08 16.4885C125.08 14.9485 124.027 13.9219 122.464 13.9219ZM122.464 18.2485C121.537 18.2485 120.847 17.4969 120.847 16.4885C120.847 15.4802 121.537 14.7285 122.464 14.7285C123.391 14.7285 124.081 15.4802 124.081 16.4885C124.081 17.4969 123.391 18.2485 122.464 18.2485Z" fill="#6F6F6F"/>
<path d="M129.369 14.0137V17.6987L129.333 17.607L129.297 17.4787C129.297 17.4603 129.278 17.442 129.26 17.387C129.242 17.332 129.224 17.2953 129.206 17.277L127.134 14.0137H126.062V18.982H126.953V15.3337C126.971 15.4253 126.989 15.4437 127.025 15.4987C127.025 15.4987 127.062 15.5353 127.08 15.6087C127.134 15.7187 127.171 15.7737 127.189 15.8103L129.297 19.0187H130.278V14.0137H129.369Z" fill="#6F6F6F"/>
<path d="M63.5586 13.666V26.2243H70.6809V13.666H63.5586ZM68.01 21.8977L66.8472 19.3677H66.3385V21.8977H64.8849V15.096H67.465C68.755 15.096 69.5726 16.0127 69.5726 17.2227C69.5726 18.1393 69.082 18.836 68.2826 19.1477L69.6089 21.8977H68.01Z" fill="#6F6F6F"/>
<path d="M67.1743 16.415H66.3203V18.065H67.1743C67.7738 18.065 68.1009 17.7167 68.1009 17.24C68.1009 16.7267 67.7738 16.415 67.1743 16.415Z" fill="#6F6F6F"/>
</g>
<defs>
<clipPath id="clip0_1530_42750">
<rect width="130" height="40" fill="white" transform="translate(0.9375 0.5)"/>
</clipPath>
</defs>
</svg>
