<svg width="126" height="100" viewBox="0 0 126 100" fill="none" xmlns="http://www.w3.org/2000/svg">
<path d="M5.48438 49.9233C5.48438 38.2477 14.8977 28.7769 26.8034 28.7769C31.8072 28.7769 36.6577 30.5598 40.492 33.7999V37.0591C36.9644 33.3014 32.0565 31.1925 26.9184 31.1925C16.4698 31.1925 8.3218 39.5514 8.3218 49.8466C8.3218 60.1419 16.489 68.5008 26.9184 68.5008C32.0565 68.5008 36.9836 66.3919 40.492 62.6342V66.0276C36.6769 69.2868 31.8264 71.0506 26.8034 71.0506C14.8977 71.0506 5.48438 61.5989 5.48438 49.9233Z" fill="#6C757D"/>
<path d="M102.437 44.0953H106.022V42.5807H97.2801V44.0953H100.827V57.2471H102.456V44.0953H102.437ZM89.458 42.5807H91.0876V57.2471H89.458V42.5807ZM64.7456 53.0869H58.4764L56.7126 57.2471H54.9296L61.3905 42.5807L61.6973 41.8905L62.004 42.5807L68.2924 57.2471H66.4902L64.7456 53.0869ZM64.0938 51.5723L61.6398 45.7057L59.1283 51.5723H64.0938ZM75.2709 44.0953V49.3675H77.3223C79.2011 49.3675 80.5048 48.5048 80.5048 46.6451C80.5048 44.7855 78.9902 44.1145 77.3031 44.1145H75.2709V44.0953ZM79.1436 50.5945L82.7095 57.2471H80.8115L77.4757 50.8054H75.2709V57.2471H73.6413V42.5807H77.514C79.9296 42.5807 82.1344 43.6927 82.1344 46.626C82.1344 48.9841 80.6582 50.1344 79.1436 50.5945ZM111.908 57.2471H119.845V55.7326H113.538V49.981H118.944V48.4665H113.538V44.1145H119.596V42.5999H111.908V57.2471ZM116.567 37.251L114.247 40.4335L115.225 40.9703L118.197 37.9795L116.567 37.251ZM40.4933 48.5432H45.478V50.0577H40.4933V57.2471H38.8637V42.5807H40.4933V48.5432ZM47.6827 42.5807H49.3123V57.2471H47.6827V42.5807ZM32.422 43.7119C31.1375 42.7533 29.6996 42.2932 28.0891 42.2932C23.3154 42.2932 20.3438 45.8399 20.3438 49.981C20.3438 54.103 23.3537 57.5539 28.0891 57.5539C29.6229 57.5539 31.1758 57.0363 32.422 56.1352V54.1797C31.2717 55.33 29.6804 56.0968 28.0316 56.0968C24.4657 56.0968 22.1267 53.1636 22.1267 49.9427C22.1267 46.741 24.4273 43.7886 27.9933 43.7886C29.6804 43.7886 31.2525 44.4979 32.422 45.7057V43.7119Z" fill="black"/>
<path d="M120.514 62.7109H107.707V66.2385H120.514V62.7109Z" fill="#750787"/>
<path d="M107.709 62.7109H94.9023V66.2385H107.709V62.7109Z" fill="#004DFF"/>
<path d="M94.9239 62.7109H82.1172V66.2385H94.9239V62.7109Z" fill="#008026"/>
<path d="M82.1114 62.7109H69.3047V66.2385H82.1114V62.7109Z" fill="#FFED00"/>
<path d="M69.3067 62.7109H56.5V66.2385H69.3067V62.7109Z" fill="#FF8C00"/>
<path d="M56.5021 62.7109H43.6953V66.2385H56.5021V62.7109Z" fill="#E40303"/>
</svg>
