<svg width="88" height="61" viewBox="0 0 88 61" fill="none" xmlns="http://www.w3.org/2000/svg">
<g style="mix-blend-mode:luminosity">
<path d="M41.9414 24.7386V12.7139H44.2821V22.652H49.7127V24.7386H41.9414Z" fill="#6F6F6F"/>
<path d="M51.6133 24.7386V12.7139H59.5183V14.8138H53.954V17.6227H58.689V19.7227H53.954V22.652H59.5183V24.7386H51.6133Z" fill="#6F6F6F"/>
<path d="M62.609 23.4771C62.074 22.942 61.7262 22.2599 61.5791 21.4306C61.4854 20.9491 61.4453 20.0529 61.4453 18.7421C61.4453 17.4313 61.4854 16.5351 61.5791 16.0402C61.7262 15.2243 62.0606 14.5421 62.609 13.9937C63.4784 13.1243 64.5485 12.6963 65.8192 12.6963C67.0898 12.6963 68.1465 13.1243 69.0159 13.9937C69.551 14.5288 69.8987 15.2109 70.0459 16.0402C70.1395 16.5485 70.193 17.4447 70.193 18.7421C70.193 20.0262 70.1395 20.9223 70.0459 21.4306C69.8987 22.2465 69.5643 22.9287 69.0159 23.4771C68.2803 24.1994 67.4242 24.614 66.4344 24.7478V22.621C66.7956 22.514 67.0765 22.3268 67.2905 22.086C67.6784 21.658 67.8656 20.5478 67.8656 18.7555C67.8656 16.9497 67.6784 15.8396 67.2905 15.4115C66.916 14.9969 66.4211 14.7829 65.8058 14.7829C65.1771 14.7829 64.6688 14.9969 64.3077 15.4115C63.9198 15.8262 63.7326 16.9497 63.7326 18.7555C63.7326 20.5612 63.9198 21.6714 64.3077 22.086C64.4816 22.3 64.7357 22.4605 65.0434 22.5809V24.7478C64.1204 24.5739 63.2912 24.1592 62.609 23.4771Z" fill="#6F6F6F"/>
<path d="M79.7297 24.7347L74.9814 17.3647V24.7347H72.6406V12.71H74.7272L79.4756 20.08V12.71H81.8163V24.7347H79.7297Z" fill="#6F6F6F"/>
<path d="M5.70709 43.1661H2.71094V28.2656H8.86374C10.3484 28.2656 11.5121 28.6401 12.3548 29.4026C13.1841 30.1516 13.5987 31.1681 13.5987 32.4522C13.5987 33.2012 13.3713 33.8834 12.9299 34.4853C12.5822 34.9535 12.1809 35.3146 11.6994 35.5286C13.1038 36.1706 13.8127 37.2808 13.8127 38.8725C13.8127 40.2235 13.3713 41.2801 12.5019 42.0559C11.6593 42.7916 10.5223 43.1661 9.11788 43.1661H7.55293V40.5712H8.82362C9.46565 40.5712 9.97392 40.3973 10.3351 40.0228C10.6695 39.6884 10.83 39.2604 10.83 38.7254C10.83 38.1904 10.6695 37.7623 10.3351 37.428C9.97392 37.0802 9.47902 36.9063 8.82362 36.9063H7.52618V34.2847H8.62298C9.23826 34.2847 9.73316 34.1242 10.0809 33.8032C10.4287 33.4955 10.6026 33.0809 10.6026 32.5726C10.6026 32.0509 10.4287 31.6497 10.0809 31.342C9.71978 31.021 9.23826 30.8605 8.62298 30.8605H5.69371V43.1661H5.70709Z" fill="#6F6F6F"/>
<path d="M16.8867 43.1661V28.2656H26.9853V30.8605H19.8695V34.3515H25.9287V36.9598H19.8695V40.5712H26.9853V43.1661H16.8867Z" fill="#6F6F6F"/>
<path d="M32.9007 43.1661H29.918V28.2656H35.9236C37.4485 28.2656 38.6657 28.707 39.5886 29.6032C40.458 30.4592 40.8994 31.5293 40.8994 32.8267C40.8994 33.8165 40.6185 34.6726 40.0567 35.3815C39.5484 36.0101 38.9064 36.4649 38.1039 36.7458L41.528 43.1661H38.0637L35.6294 38.3107V34.7929H35.7364C36.3784 34.7929 36.9134 34.6191 37.3147 34.2445C37.716 33.8834 37.9166 33.4019 37.9166 32.8267C37.9166 32.2382 37.716 31.77 37.3147 31.4089C36.9134 31.0478 36.3918 30.8605 35.7364 30.8605H32.9007V43.1661Z" fill="#6F6F6F"/>
<path d="M50.3436 28.252L55.948 43.1658H52.8315L51.9219 40.5308H51.8952L49.2334 32.6392L47.2939 38.0831H49.1799L50.0226 40.5308H46.4513L45.5283 43.1658H42.3984L47.9761 28.252H50.3436Z" fill="#6F6F6F"/>
<path d="M60.7227 43.1658H57.7266V28.2653H63.7322C65.2571 28.2653 66.4742 28.7067 67.3972 29.6029C68.2666 30.4589 68.708 31.529 68.708 32.8264C68.708 33.8162 68.4271 34.6723 67.8653 35.3812C67.3704 36.0098 66.715 36.4646 65.9125 36.7455L69.3366 43.1658H65.8723L63.438 38.3104V34.7926H63.545C64.187 34.7926 64.7087 34.6188 65.1233 34.2442C65.5246 33.8831 65.7252 33.4016 65.7252 32.8264C65.7252 32.2379 65.5246 31.7697 65.1233 31.4086C64.722 31.0475 64.2004 30.8602 63.545 30.8602H60.7227V43.1658ZM74.8073 43.1658H71.8111V28.252H77.3487C79.0875 28.252 80.4384 28.7335 81.4149 29.6698C82.1639 30.4054 82.632 31.3417 82.8327 32.4519C82.9129 32.9602 82.9664 34.0169 82.9664 35.6487C82.9664 37.2939 82.9263 38.3773 82.8327 38.8856C82.632 40.0493 82.1639 40.999 81.4149 41.7346C80.4384 42.6843 79.0875 43.1524 77.3487 43.1524H76.613V40.5576H77.0678C78.0442 40.5576 78.7932 40.2499 79.3149 39.6346C79.7563 39.113 79.9837 37.7888 79.9837 35.6353C79.9837 33.5621 79.7563 32.2646 79.3149 31.743C78.7932 31.1277 78.0576 30.8201 77.0678 30.8201H74.8073V43.1658Z" fill="#6F6F6F"/>
<path d="M72.6406 9.15163H81.8431V6.20898H72.6406V9.15163Z" fill="#6F6F6F"/>
<path d="M18.4961 15.4916C18.4293 15.9062 18.2554 16.2139 17.9879 16.4546C17.7204 16.682 17.3993 16.789 16.9981 16.789C16.5701 16.789 16.1955 16.6419 15.9013 16.3476C15.7274 16.1738 15.6204 15.9731 15.5669 15.7324C15.5268 15.505 15.5 15.1706 15.5 14.7158C15.5 14.261 15.5268 13.9266 15.5669 13.6993C15.607 13.4719 15.7274 13.2579 15.9013 13.084C16.1955 12.7897 16.5701 12.6426 16.9981 12.6426C17.3993 12.6426 17.7204 12.7496 17.9879 12.977C18.2554 13.2044 18.4293 13.5254 18.4961 13.94H17.6936C17.6 13.5521 17.3726 13.3649 17.0114 13.3649C16.7841 13.3649 16.6236 13.4317 16.5032 13.5789C16.3694 13.726 16.3025 14.1005 16.3025 14.7292C16.3025 15.3578 16.3694 15.7457 16.5032 15.8795C16.6236 16.0266 16.7841 16.0935 17.0114 16.0935C17.3726 16.0935 17.6 15.9062 17.6936 15.5183H18.4961V15.4916Z" fill="#6F6F6F"/>
<path d="M19.1758 16.7485V12.6689H21.8509V13.3779H19.9649V14.3275H21.57V15.0364H19.9649V16.0396H21.8509V16.7485H19.1758Z" fill="#6F6F6F"/>
<path d="M25.0365 16.7485L23.4314 14.2339V16.7485H22.6289V12.6689H23.3378L24.9563 15.1568V12.6689H25.7454V16.7485H25.0365Z" fill="#6F6F6F"/>
<path d="M28.2443 13.3779V16.7485H27.4551V13.3779H26.3984V12.6689H29.3143V13.3779H28.2443Z" fill="#6F6F6F"/>
<path d="M30.7579 16.7485H29.9688V12.6689H31.5605C31.9617 12.6689 32.2827 12.7893 32.5369 13.0301C32.7643 13.2575 32.8846 13.5517 32.8846 13.9129C32.8846 14.1804 32.8044 14.4212 32.6573 14.6084C32.5235 14.7823 32.3496 14.9027 32.1356 14.9829L33.0452 16.7485H32.1222L31.4802 15.4243V14.4613H31.507C31.6808 14.4613 31.8146 14.4078 31.9216 14.3142C32.0286 14.2205 32.0821 14.0868 32.0821 13.9263C32.0821 13.7658 32.0286 13.632 31.9216 13.5384C31.8146 13.4447 31.6808 13.3912 31.507 13.3912H30.7579V16.7485Z" fill="#6F6F6F"/>
<path d="M33.7031 16.7485V12.6689H36.3783V13.3779H34.4923V14.3275H36.0974V15.0364H34.4923V16.0396H36.3783V16.7485H33.7031Z" fill="#6F6F6F"/>
<path d="M21.0112 20.7354H20.6367V18.3145H21.4794C21.7469 18.3145 21.9475 18.3947 22.0947 18.5418C22.215 18.6622 22.2819 18.8094 22.3087 18.9966C22.3221 19.0902 22.3354 19.2641 22.3354 19.5183C22.3354 19.7724 22.3221 19.9463 22.3087 20.0533C22.2819 20.2539 22.2017 20.4011 22.0947 20.5214C21.9475 20.6686 21.7335 20.7488 21.4794 20.7488H21.2788V20.4144H21.4526C21.6265 20.4144 21.7603 20.3609 21.8539 20.2539C21.9342 20.1603 21.9877 19.9195 21.9877 19.5183C21.9877 19.1437 21.9475 18.9164 21.8539 18.8227C21.7603 18.7157 21.6265 18.6622 21.4526 18.6622H21.0112V20.7354Z" fill="#6F6F6F"/>
<path d="M23.0703 20.7345V18.3135H24.6085V18.6479H23.4315V19.3568H24.4346V19.6778H23.4315V20.4135H24.6085V20.7345H23.0703Z" fill="#6F6F6F"/>
<path d="M26.2656 20.7345V18.3135H26.6401V20.4135H27.8038V20.7345H26.2656Z" fill="#6F6F6F"/>
<path d="M30.0357 19.9186C30.0357 20.1727 29.9555 20.3733 29.7816 20.5205C29.6211 20.681 29.4071 20.7478 29.1663 20.7478C28.9122 20.7478 28.7115 20.6676 28.551 20.5205C28.3905 20.36 28.2969 20.1593 28.2969 19.9186V18.3135H28.658V19.9052C28.658 20.0657 28.6981 20.1994 28.7918 20.2931C28.8854 20.3867 29.0058 20.4268 29.1529 20.4268C29.3 20.4268 29.4204 20.3867 29.5141 20.2931C29.6077 20.1994 29.6478 20.0657 29.6478 19.9052V18.3135H30.009V19.9186H30.0357Z" fill="#6F6F6F"/>
<path d="M31.6276 18.6488V20.7354H31.2531V18.6488H30.5977V18.3145H32.283V18.6488H31.6276Z" fill="#6F6F6F"/>
<path d="M33.7035 18.6479V20.7345H33.3289V18.6479H32.6602V18.3135H34.3589V18.6479H33.7035Z" fill="#6F6F6F"/>
<path d="M34.9453 20.7354V18.3145H36.4969V18.6488H35.3198V19.3578H36.323V19.6788H35.3198V20.4144H36.4969V20.7354H34.9453Z" fill="#6F6F6F"/>
<path d="M4.45037 24.0123C4.41024 24.253 4.31661 24.4403 4.1561 24.5607C4.00897 24.6944 3.82171 24.7479 3.59432 24.7479C3.34019 24.7479 3.12618 24.6677 2.96567 24.4938C2.85866 24.3868 2.79179 24.253 2.76503 24.0925C2.75166 23.9989 2.73828 23.7983 2.73828 23.5174C2.73828 23.2365 2.75166 23.0492 2.76503 22.9422C2.79179 22.7817 2.85866 22.648 2.96567 22.541C3.13955 22.3671 3.35356 22.2868 3.59432 22.2868C3.82171 22.2868 4.00897 22.3537 4.1561 22.4741C4.31661 22.6078 4.41024 22.7951 4.45037 23.0358H4.07585C4.00897 22.755 3.84846 22.6212 3.58095 22.6212C3.43382 22.6212 3.31344 22.6747 3.21981 22.7683C3.12618 22.8753 3.07267 23.1295 3.07267 23.5307C3.07267 23.932 3.12618 24.1862 3.21981 24.2932C3.31344 24.3868 3.43382 24.4403 3.58095 24.4403C3.84846 24.4403 4.00897 24.3065 4.07585 24.0256H4.45037V24.0123ZM5.74781 24.7346C5.56055 24.7078 5.40004 24.6276 5.25291 24.4804C5.1459 24.3734 5.07902 24.2397 5.05227 24.0792C5.0389 23.9855 5.02552 23.7849 5.02552 23.504C5.02552 23.2231 5.0389 23.0358 5.05227 22.9288C5.07902 22.7683 5.1459 22.6346 5.25291 22.5276C5.42679 22.3537 5.62742 22.2734 5.88156 22.2734C6.1357 22.2734 6.34971 22.3537 6.51022 22.5276C6.61722 22.6346 6.6841 22.7683 6.71085 22.9288C6.72423 23.0225 6.7376 23.2231 6.7376 23.504C6.7376 23.7849 6.72423 23.9721 6.71085 24.0792C6.6841 24.2397 6.61722 24.3734 6.51022 24.4804C6.37646 24.6142 6.20258 24.7078 6.01532 24.7346V24.4002C6.10895 24.3734 6.17583 24.3333 6.22933 24.2664C6.28283 24.1995 6.32296 24.1193 6.34971 24.0256C6.36309 23.932 6.37646 23.7581 6.37646 23.5174C6.37646 23.2766 6.36309 23.1027 6.34971 23.0091C6.33633 22.9155 6.29621 22.8352 6.22933 22.7683C6.1357 22.6747 6.01532 22.6212 5.86819 22.6212C5.72105 22.6212 5.60067 22.6747 5.50704 22.7683C5.45354 22.8352 5.41341 22.9155 5.38666 23.0091C5.37329 23.1027 5.35991 23.2766 5.35991 23.5174C5.35991 23.7581 5.37329 23.932 5.38666 24.0256C5.40004 24.1193 5.44017 24.1995 5.50704 24.2664C5.56055 24.3333 5.6408 24.3734 5.72105 24.4002V24.7346H5.74781Z" fill="#6F6F6F"/>
<path d="M8.95735 24.7342L7.8338 23.0221V24.7342H7.47266V22.2998H7.80705L8.91723 24.0119V22.2998H9.29175V24.7342H8.95735Z" fill="#6F6F6F"/>
<path d="M10.9127 22.6342V24.7342H10.5382V22.6342H9.88281V22.2998H11.5681V22.6342H10.9127Z" fill="#6F6F6F"/>
<path d="M12.9816 23.3966C13.1154 23.3966 13.2224 23.3699 13.316 23.303C13.423 23.2361 13.4765 23.1425 13.4765 23.0221C13.4765 22.9017 13.4364 22.8081 13.3562 22.7412C13.2759 22.6743 13.1823 22.6342 13.0619 22.6342H12.5135V23.3297V24.7342H12.1523V22.2998H13.0886C13.316 22.2998 13.5033 22.3667 13.637 22.5004C13.7708 22.6342 13.8377 22.7947 13.8377 23.0087C13.8377 23.1826 13.7975 23.3164 13.7039 23.4367C13.6237 23.5437 13.5033 23.6106 13.3562 23.6641L13.9179 24.7342H13.4899L12.9816 23.7176V23.3966Z" fill="#6F6F6F"/>
<path d="M14.5508 24.7342V22.2998H16.1024V22.6342H14.9253V23.3431H15.9285V23.6775H14.9253V24.3998H16.1024V24.7342H14.5508Z" fill="#6F6F6F"/>
<path d="M17.7578 24.7342V22.2998H18.119V24.3998H19.2826V24.7342H17.7578Z" fill="#6F6F6F"/>
<path d="M19.8711 24.7342V22.2998H21.4227V22.6342H20.2456V23.3431H21.2488V23.6775H20.2456V24.3998H21.4227V24.7342H19.8711Z" fill="#6F6F6F"/>
<path d="M24.7137 24.0116C24.6736 24.2524 24.58 24.4396 24.4195 24.56C24.2723 24.6938 24.0851 24.7473 23.8577 24.7473C23.6036 24.7473 23.3896 24.667 23.229 24.4931C23.122 24.3861 23.0552 24.2524 23.015 24.0918C23.0017 23.9982 22.9883 23.7976 22.9883 23.5167C22.9883 23.2358 23.0017 23.0485 23.015 22.9415C23.0418 22.781 23.1087 22.6473 23.229 22.5403C23.4029 22.3664 23.6169 22.2861 23.8577 22.2861C24.0851 22.2861 24.2723 22.353 24.4195 22.4734C24.58 22.6071 24.6736 22.7944 24.7137 23.0352H24.3392C24.2723 22.7543 24.1118 22.6205 23.8443 22.6205C23.6972 22.6205 23.5768 22.674 23.4832 22.7677C23.3896 22.8747 23.336 23.1288 23.336 23.5301C23.336 23.9313 23.3896 24.1855 23.4832 24.2925C23.5768 24.3861 23.6972 24.4396 23.8443 24.4396C24.1118 24.4396 24.2723 24.3059 24.3392 24.025H24.7137V24.0116Z" fill="#6F6F6F"/>
<path d="M26.2373 22.2998L27.1201 24.7342H26.7322L26.6252 24.4132L26.5717 24.2393L26.0902 22.8482L25.7157 23.9316H26.1571L26.2641 24.2393H25.6087L25.4481 24.7342H25.0469L25.943 22.2998H26.2373Z" fill="#6F6F6F"/>
<path d="M29.1175 24.7342L28.0073 23.0221V24.7342H27.6328V22.2998H27.9672L29.0908 24.0119V22.2998H29.4519V24.7342H29.1175Z" fill="#6F6F6F"/>
<path d="M31.8973 24.0116C31.8572 24.2524 31.7502 24.4396 31.6031 24.56C31.4559 24.6938 31.2687 24.7473 31.0413 24.7473C30.7872 24.7473 30.5731 24.667 30.4126 24.4931C30.3056 24.3861 30.2388 24.2524 30.1986 24.0918C30.1853 23.9982 30.1719 23.7976 30.1719 23.5167C30.1719 23.2358 30.1853 23.0485 30.1986 22.9415C30.2254 22.781 30.2923 22.6473 30.4126 22.5403C30.5865 22.3664 30.8005 22.2861 31.0413 22.2861C31.2687 22.2861 31.4559 22.353 31.6031 22.4734C31.7636 22.6071 31.8572 22.7944 31.8973 23.0352H31.5228C31.4559 22.7543 31.2954 22.6205 31.0279 22.6205C30.8808 22.6205 30.7604 22.674 30.6668 22.7677C30.5731 22.8747 30.5196 23.1288 30.5196 23.5301C30.5196 23.9313 30.5731 24.1855 30.6668 24.2925C30.7604 24.3861 30.8808 24.4396 31.0279 24.4396C31.2954 24.4396 31.4559 24.3059 31.5228 24.025H31.8973V24.0116Z" fill="#6F6F6F"/>
<path d="M32.5547 24.7342V22.2998H34.1063V22.6342H32.9292V23.3431H33.9324V23.6775H32.9292V24.3998H34.1063V24.7342H32.5547Z" fill="#6F6F6F"/>
<path d="M35.5988 23.3966C35.7326 23.3966 35.8396 23.3699 35.9332 23.303C36.0402 23.2361 36.0937 23.1425 36.0937 23.0221C36.0937 22.9017 36.0536 22.8081 35.9733 22.7412C35.8931 22.6743 35.7995 22.6342 35.6791 22.6342H35.1307V23.3297V24.7342H34.7695V22.2998H35.7058C35.9332 22.2998 36.1205 22.3667 36.2542 22.5004C36.388 22.6342 36.4549 22.7947 36.4549 23.0087C36.4549 23.1826 36.4147 23.3164 36.3211 23.4367C36.2409 23.5437 36.1205 23.6106 35.9733 23.6641L36.5351 24.7342H36.1071L35.5988 23.7176V23.3966Z" fill="#6F6F6F"/>
<path d="M2.72266 49.6663H11.9117V46.7236H2.72266V49.6663Z" fill="#6F6F6F"/>
</g>
</svg>
