<svg width="125" height="100" viewBox="0 0 125 100" fill="none" xmlns="http://www.w3.org/2000/svg">
<path d="M78.2938 36L72 19H75.4771L79.8167 30.933L83.6442 19H87L81.4744 36H78.2938Z" fill="#5C504B"/>
<path d="M106.016 77L100 62H103.984L110 77H106.016Z" fill="#D30E84"/>
<path d="M10.5524 34.1209C9.26583 35.5306 7.71925 36.0507 5.99475 36.0507C4.22918 36.0507 2.77841 35.3801 1.64242 34.1894C0.0137234 32.4785 0.0547821 30.3571 0.0547821 27.4282C0.0547821 24.4993 0.0137234 22.3779 1.64242 20.667C2.77841 19.4763 4.17443 18.8057 5.99475 18.8057C9.73117 18.8057 11.6336 21.3787 12.0716 24.2255H8.8963C8.54045 22.6242 7.60976 21.7483 5.99475 21.7483C5.13249 21.7483 4.43448 22.1041 3.98282 22.6516C3.36693 23.3633 3.21638 24.1434 3.21638 27.4145C3.21638 30.6719 3.38061 31.4931 3.98282 32.2048C4.43448 32.7523 5.14618 33.0807 5.99475 33.0807C6.9528 33.0807 7.71925 32.7249 8.23934 32.1364C8.75943 31.5205 8.96473 30.754 8.96473 29.8781V29.2348H5.99475V26.4701H12.0853V28.9474C12.0853 31.3973 11.6884 32.8754 10.5524 34.1209Z" fill="#5C504B"/>
<path d="M22.6646 36.0511C19.3524 36.0511 16.7383 33.697 16.7383 30.0974V18.9565H19.8862V29.9742C19.8862 31.9314 20.9674 33.0948 22.6782 33.0948C24.3754 33.0948 25.484 31.9314 25.484 29.9742V18.9565H28.6045V30.0974C28.6045 33.6833 25.9767 36.0511 22.6646 36.0511Z" fill="#5C504B"/>
<path d="M38.2524 36.0507C35.8025 36.0507 33.9411 35.5033 32.3672 33.8061L34.4065 31.6573C35.433 32.7249 36.8016 33.0807 38.3072 33.0807C40.1685 33.0807 41.1676 32.3417 41.1676 30.9867C41.1676 30.3845 41.0034 29.8918 40.6749 29.5633C40.3601 29.2485 39.9906 29.0843 39.2515 28.9748L37.308 28.6874C35.9257 28.4684 34.9129 28.0167 34.1875 27.2776C33.4211 26.4701 33.0378 25.3752 33.0378 23.9518C33.0378 20.9271 35.1729 18.8057 38.663 18.8057C40.8802 18.8057 42.4952 19.3805 43.8776 20.7902L41.8246 22.8569C40.7981 21.8304 39.58 21.6935 38.5125 21.6935C36.829 21.6935 36.0215 22.6653 36.0215 23.8423C36.0215 24.2666 36.1584 24.7183 36.5005 25.0604C36.8153 25.3752 37.3354 25.6353 37.9924 25.7311L39.8948 25.9911C41.3729 26.2101 42.3036 26.6344 42.9743 27.305C43.8365 28.1536 44.2197 29.3991 44.2197 30.8909C44.2334 34.1894 41.6193 36.0507 38.2524 36.0507Z" fill="#5C504B"/>
<path d="M54.1837 21.8992V35.9005H51.0358V21.8992H46.8203V18.9565H58.3991V21.8992H54.1837Z" fill="#5C504B"/>
<path d="M69.5567 35.9005L68.6123 32.9032H62.8776L61.9059 35.9005H58.6211L64.4926 18.9429H66.9699L72.8551 35.9005H69.5567ZM65.8065 23.9521L63.7672 30.1111H67.7774L65.8065 23.9521Z" fill="#5C504B"/>
<path d="M89.3711 35.9005V18.9565H100.006V21.8992H92.5737V25.8819H98.8969V28.8382H92.5737V32.9579H100.006V35.9005H89.3711Z" fill="#5C504B"/>
<path d="M9.86801 59.5097L6.24107 51.7357H3.62694V59.5097H0V40.0063H7.26756C11.045 40.0063 13.2896 42.7163 13.2896 45.9737C13.2896 48.711 11.702 50.4081 9.89538 51.0925L14.0424 59.5097H9.86801ZM7.04858 43.4006H3.62694V48.5468H7.04858C8.63622 48.5468 9.67639 47.4792 9.67639 45.9737C9.67639 44.4682 8.63622 43.4006 7.04858 43.4006Z" fill="#5C504B"/>
<path d="M31.2746 57.539C29.9744 58.9076 28.3867 59.6741 26.2653 59.6741C24.1576 59.6741 22.5426 58.9076 21.2424 57.539C19.3673 55.5681 19.422 53.1319 19.422 49.765C19.422 46.3981 19.3673 43.9619 21.2424 41.9911C22.5426 40.6224 24.1576 39.856 26.2653 39.856C28.373 39.856 29.9607 40.6224 31.2746 41.9911C33.1497 43.9619 33.1223 46.3981 33.1223 49.765C33.1223 53.1182 33.1497 55.5544 31.2746 57.539ZM28.5783 44.2767C28.0583 43.6471 27.2508 43.2365 26.2516 43.2365C25.2662 43.2365 24.4313 43.6471 23.9112 44.2767C23.2132 45.0979 23.0216 46.0012 23.0216 49.7513C23.0216 53.5015 23.1995 54.4048 23.9112 55.226C24.4313 55.8555 25.2662 56.2661 26.2516 56.2661C27.2508 56.2661 28.0583 55.8555 28.5783 55.226C29.2764 54.4048 29.4953 53.5015 29.4953 49.7513C29.4953 46.0012 29.29 45.0979 28.5783 44.2767Z" fill="#5C504B"/>
<path d="M45.7671 59.6739C41.9622 59.6739 38.9375 56.964 38.9375 52.8307V40.02H42.5644V52.6801C42.5644 54.9247 43.8099 56.266 45.7671 56.266C47.7243 56.266 48.9971 54.9247 48.9971 52.6801V40.0063H52.5967V52.817C52.6104 56.9503 49.5856 59.6739 45.7671 59.6739Z" fill="#5C504B"/>
<path d="M64.3686 59.6741C61.5492 59.6741 59.4141 59.0445 57.5938 57.101L59.9342 54.6374C61.1112 55.8692 62.6988 56.2798 64.4233 56.2798C66.5584 56.2798 67.7081 55.4313 67.7081 53.871C67.7081 53.1867 67.5302 52.6118 67.1333 52.2286C66.7637 51.8728 66.3531 51.6811 65.4909 51.5443L63.2463 51.2158C61.6587 50.9694 60.4816 50.4493 59.6467 49.6008C58.7708 48.6701 58.3191 47.4109 58.3191 45.7685C58.3191 42.2922 60.769 39.856 64.7792 39.856C67.3386 39.856 69.1863 40.5129 70.7739 42.1279L68.4746 44.5094C67.2975 43.3323 65.8878 43.1681 64.6697 43.1681C62.7399 43.1681 61.7955 44.2904 61.7955 45.6317C61.7955 46.1244 61.9461 46.6445 62.343 47.0277C62.7125 47.3836 63.301 47.6847 64.0538 47.7942L66.2437 48.1226C67.9408 48.369 69.0083 48.8617 69.7885 49.6282C70.7739 50.6136 71.2256 52.037 71.2256 53.7615C71.2529 57.539 68.2556 59.6741 64.3686 59.6741Z" fill="#5C504B"/>
<path d="M82.31 59.6741C79.4906 59.6741 77.3555 59.0445 75.5352 57.101L77.8892 54.6374C79.0663 55.8692 80.6539 56.2798 82.3647 56.2798C84.4998 56.2798 85.6495 55.4313 85.6495 53.871C85.6495 53.1867 85.4716 52.6118 85.0747 52.2286C84.7051 51.8728 84.2946 51.6811 83.4323 51.5443L81.1877 51.2158C79.6001 50.9694 78.423 50.4493 77.5881 49.6008C76.6985 48.6701 76.2605 47.4109 76.2605 45.7685C76.2605 42.2922 78.7104 39.856 82.7206 39.856C85.2663 39.856 87.1277 40.5129 88.7153 42.1279L86.4297 44.5094C85.2526 43.3323 83.8429 43.1681 82.6248 43.1681C80.695 43.1681 79.7506 44.2904 79.7506 45.6317C79.7506 46.1244 79.9012 46.6445 80.2981 47.0277C80.6676 47.3836 81.2561 47.6847 82.0226 47.7942L84.2124 48.1226C85.9096 48.369 86.9771 48.8617 87.7572 49.6282C88.7427 50.6136 89.1943 52.037 89.1943 53.7615C89.1943 57.539 86.197 59.6741 82.31 59.6741Z" fill="#5C504B"/>
<path d="M2.18802 74.3596C1.55844 74.3596 1.03835 74.127 0.627754 73.689C0.0392322 73.0731 0.0666045 72.3204 0.0666045 71.2665C0.0666045 70.2263 0.0529188 69.4599 0.627754 68.844C1.02466 68.4197 1.54475 68.187 2.18802 68.187C3.26926 68.187 4.10414 68.8303 4.30944 70.1031H3.17345C3.06396 69.6241 2.76286 69.2409 2.20171 69.2409C1.9006 69.2409 1.64056 69.3641 1.47632 69.5557C1.25733 69.8157 1.1889 70.1031 1.1889 71.2665C1.1889 72.4298 1.25733 72.7173 1.47632 72.9773C1.64056 73.1689 1.88692 73.2921 2.20171 73.2921C2.76286 73.2921 3.06396 72.9226 3.17345 72.4298H4.30944C4.10414 73.7164 3.25557 74.3596 2.18802 74.3596Z" fill="#5C504B"/>
<path d="M8.46904 74.3048L8.12688 73.2373H6.0739L5.73173 74.3048H4.55469L6.64873 68.2417H7.52467L9.6324 74.3048H8.46904ZM7.12776 70.0346L6.40237 72.2382H7.83946L7.12776 70.0346Z" fill="#5C504B"/>
<path d="M13.781 74.3053L11.4954 70.5963V74.3053H10.3594V68.2559H11.3722L13.6578 71.9649V68.2559H14.7801V74.3053H13.781Z" fill="#5C504B"/>
<path d="M18.0513 74.3596C17.4217 74.3596 16.9016 74.127 16.491 73.689C15.9025 73.0731 15.9299 72.3204 15.9299 71.2665C15.9299 70.2263 15.9162 69.4599 16.491 68.844C16.9016 68.4197 17.4217 68.187 18.0513 68.187C19.1325 68.187 19.9674 68.8303 20.1727 70.1031H19.0367C18.9272 69.6241 18.6261 69.2409 18.065 69.2409C17.7639 69.2409 17.5038 69.3641 17.3396 69.5557C17.1206 69.8157 17.0522 70.1031 17.0522 71.2665C17.0522 72.4298 17.1206 72.7173 17.3396 72.9773C17.5038 73.1689 17.7502 73.2921 18.065 73.2921C18.6261 73.2921 18.9272 72.9226 19.0367 72.4298H20.1727C19.9674 73.7164 19.1189 74.3596 18.0513 74.3596Z" fill="#5C504B"/>
<path d="M21.1445 74.3053V68.2559H24.9357V69.3097H22.2668V70.7331H24.5388V71.787H22.2668V73.2515H24.9357V74.3053H21.1445Z" fill="#5C504B"/>
<path d="M29.1107 74.3053L27.9884 71.8965H27.1809V74.3053H26.0586V68.2559H28.3169C29.4939 68.2559 30.1919 69.1044 30.1919 70.1035C30.1919 70.9521 29.6992 71.4859 29.1381 71.6912L30.4246 74.3053H29.1107ZM28.2348 69.3097H27.1809V70.9111H28.2348C28.7275 70.9111 29.0559 70.5826 29.0559 70.1035C29.0423 69.6382 28.7275 69.3097 28.2348 69.3097Z" fill="#5C504B"/>
<path d="M35.149 74.3596C34.5194 74.3596 33.9993 74.127 33.5887 73.689C33.0002 73.0731 33.0275 72.3204 33.0275 71.2665C33.0275 70.2263 33.0139 69.4599 33.5887 68.844C33.9993 68.4197 34.5194 68.187 35.149 68.187C36.2302 68.187 37.0651 68.8303 37.2704 70.1031H36.1344C36.0249 69.6241 35.7238 69.2409 35.1626 69.2409C34.8615 69.2409 34.6015 69.3641 34.4373 69.5557C34.2183 69.8157 34.1498 70.1031 34.1498 71.2665C34.1498 72.4298 34.2183 72.7173 34.4373 72.9773C34.6015 73.1689 34.8479 73.2921 35.1626 73.2921C35.7238 73.2921 36.0249 72.9226 36.1344 72.4298H37.2704C37.0651 73.7164 36.2165 74.3596 35.149 74.3596Z" fill="#5C504B"/>
<path d="M41.4456 74.3048L41.1034 73.2373H39.0505L38.7083 74.3048H37.5312L39.6253 68.2417H40.5149L42.6226 74.3048H41.4456ZM40.1043 70.0346L39.3789 72.2382H40.816L40.1043 70.0346Z" fill="#5C504B"/>
<path d="M47.4243 74.3053V70.7742L46.3294 73.0735H45.5629L44.4543 70.7742V74.3053H43.332V68.2559H44.4406L45.9462 71.5269L47.438 68.2559H48.5466V74.3053H47.4243Z" fill="#5C504B"/>
<path d="M52.1293 72.0333H51.0207V74.3053H49.8984V68.2559H52.1293C53.3201 68.2559 54.0318 69.1181 54.0318 70.1446C54.0318 71.1711 53.3201 72.0333 52.1293 72.0333ZM52.0746 69.3097H51.0207V70.9658H52.0746C52.581 70.9658 52.9095 70.6373 52.9095 70.1446C52.9095 69.6519 52.581 69.3097 52.0746 69.3097Z" fill="#5C504B"/>
<path d="M57.0199 74.3601C55.8428 74.3601 54.8984 73.5252 54.8984 72.2386V68.2559H56.0207V72.1976C56.0207 72.8956 56.404 73.3062 57.0199 73.3062C57.6221 73.3062 58.0327 72.8956 58.0327 72.1976V68.2559H59.155V72.2386C59.1413 73.5252 58.1969 74.3601 57.0199 74.3601Z" fill="#5C504B"/>
<path d="M61.9866 74.3596C61.1107 74.3596 60.4401 74.168 59.8789 73.5658L60.6043 72.7994C60.9738 73.1826 61.4665 73.3058 62.0003 73.3058C62.671 73.3058 63.0131 73.0457 63.0131 72.553C63.0131 72.334 62.9584 72.1561 62.8352 72.0466C62.7257 71.9371 62.5888 71.8824 62.3288 71.8413L61.6308 71.7455C61.1381 71.6634 60.7685 71.4991 60.5085 71.2391C60.2348 70.9517 60.0979 70.5548 60.0979 70.0484C60.0979 68.9671 60.8643 68.2144 62.1098 68.2144C62.9036 68.2144 63.4785 68.4197 63.9712 68.9261L63.2595 69.6651C62.8899 69.2956 62.452 69.2545 62.0824 69.2545C61.4802 69.2545 61.1928 69.5967 61.1928 70.021C61.1928 70.1715 61.2339 70.3358 61.3571 70.4589C61.4665 70.5684 61.6582 70.6642 61.8908 70.6916L62.5752 70.7874C63.1089 70.8695 63.4374 71.0201 63.6838 71.2528C63.9849 71.5539 64.1354 72.0055 64.1354 72.5393C64.1217 73.7027 63.1911 74.3596 61.9866 74.3596Z" fill="#5C504B"/>
<path d="M3.76554 82.1748C3.35494 82.6401 2.82116 82.8728 2.23264 82.8728C1.6578 82.8728 1.1514 82.6538 0.754493 82.2432C0.207031 81.6684 0.207031 81.0799 0.207031 79.7933C0.207031 78.5068 0.207031 77.9183 0.754493 77.3434C1.13772 76.9329 1.6578 76.7139 2.23264 76.7139C3.32756 76.7139 4.08033 77.4666 4.24456 78.5342H3.62867C3.46443 77.7677 2.94434 77.3024 2.23264 77.3024C1.84942 77.3024 1.47988 77.4666 1.23352 77.7404C0.863986 78.1373 0.822926 78.5342 0.822926 79.807C0.822926 81.0799 0.863986 81.4905 1.23352 81.8874C1.47988 82.1611 1.84942 82.3117 2.23264 82.3117C2.65692 82.3117 3.05383 82.1337 3.32756 81.7916C3.56024 81.4905 3.65604 81.162 3.65604 80.6967V80.245H2.23264V79.6428H4.25825V80.6008C4.24456 81.2989 4.1077 81.7642 3.76554 82.1748Z" fill="#5C504B"/>
<path d="M8.99183 82.818L7.67792 80.1218H6.29558V82.818H5.67969V76.7549H7.89691C8.89603 76.7549 9.60773 77.3845 9.60773 78.4383C9.60773 79.328 9.10133 79.9028 8.34857 80.067L9.71722 82.818H8.99183ZM7.84216 77.3297H6.30927V79.5469H7.84216C8.5128 79.5469 8.99183 79.1774 8.99183 78.4383C8.99183 77.7129 8.5128 77.3297 7.84216 77.3297Z" fill="#5C504B"/>
<path d="M14.356 82.818L13.8906 81.4494H11.3723L10.907 82.818H10.25L12.3714 76.7549H12.8915L14.9992 82.818H14.356ZM12.6451 77.6856L11.5639 80.8882H13.7127L12.6451 77.6856Z" fill="#5C504B"/>
<path d="M19.627 82.818L16.5612 77.9593V82.818H15.9453V76.7549H16.5338L19.5859 81.5999V76.7549H20.2018V82.818H19.627Z" fill="#5C504B"/>
<path d="M25.3064 82.2569C24.9506 82.6264 24.4442 82.818 23.842 82.818H21.8711V76.7549H23.842C24.4442 76.7549 24.9506 76.9465 25.3064 77.316C25.9086 77.9456 25.8676 78.8763 25.8676 79.7112C25.8813 80.5597 25.9086 81.6273 25.3064 82.2569ZM24.8821 77.7814C24.581 77.4666 24.1978 77.3434 23.7462 77.3434H22.487V82.2432H23.7462C24.1978 82.2432 24.581 82.12 24.8821 81.8052C25.279 81.3673 25.2654 80.4639 25.2654 79.7249C25.2654 78.9721 25.279 78.2057 24.8821 77.7814Z" fill="#5C504B"/>
<path d="M31.4925 80.3271H29.9596V82.818H29.3438V76.7549H31.4925C32.5464 76.7549 33.2718 77.4392 33.2718 78.5341C33.2718 79.6291 32.5464 80.3271 31.4925 80.3271ZM31.4378 77.3297H29.9596V79.7386H31.4378C32.1632 79.7386 32.6559 79.328 32.6559 78.5341C32.6559 77.7403 32.1495 77.3297 31.4378 77.3297Z" fill="#5C504B"/>
<path d="M37.4067 82.818L36.9414 81.4494H34.4231L33.9577 82.818H33.3008L35.4222 76.7549H35.9423L38.0637 82.818H37.4067ZM35.6959 77.6856L34.6147 80.8882H36.7635L35.6959 77.6856Z" fill="#5C504B"/>
<path d="M42.3043 82.818L40.9904 80.1218H39.6081V82.818H38.9922V76.7549H41.2094C42.2085 76.7549 42.9202 77.3845 42.9202 78.4383C42.9202 79.328 42.4138 79.9028 41.6611 80.067L43.0297 82.818H42.3043ZM41.141 77.3297H39.6081V79.5469H41.141C41.8116 79.5469 42.2906 79.1774 42.2906 78.4383C42.2906 77.7129 41.8116 77.3297 41.141 77.3297Z" fill="#5C504B"/>
<path d="M44.9206 76.7549H44.3047V82.818H44.9206V76.7549Z" fill="#5C504B"/>
<path d="M48.0685 82.8728C47.2063 82.8728 46.6314 82.6401 46.0977 82.079L46.5219 81.641C47.001 82.1474 47.4389 82.298 48.0959 82.298C48.9445 82.298 49.4645 81.8874 49.4645 81.1757C49.4645 80.8609 49.3687 80.5872 49.1908 80.4229C48.9992 80.2587 48.8623 80.2039 48.4381 80.1355L47.7674 80.026C47.3158 79.9439 46.9599 79.7933 46.7136 79.5607C46.4261 79.2869 46.2756 78.9174 46.2756 78.4247C46.2756 77.3982 46.9873 76.7139 48.1233 76.7139C48.8623 76.7139 49.3414 76.9055 49.8341 77.3708L49.4372 77.7814C49.0813 77.4393 48.6981 77.2613 48.0959 77.2613C47.3294 77.2613 46.8778 77.713 46.8778 78.3836C46.8778 78.6847 46.9599 78.9174 47.1378 79.0816C47.3158 79.2459 47.6169 79.3554 47.918 79.4101L48.5475 79.5059C49.095 79.588 49.3551 79.7112 49.6014 79.9302C49.9162 80.2039 50.0941 80.6282 50.0941 81.1346C50.0531 82.2159 49.2593 82.8728 48.0685 82.8728Z" fill="#5C504B"/>
<path d="M96.7764 63.6294H92.7115L84.9375 82.7769H88.9887L96.7764 63.6294Z" fill="#00ACA8"/>
<path d="M102.401 39.7598L98.7192 48.8066L95.0649 39.7735H91L96.7073 53.8022L94.3395 59.619H98.3907L106.452 39.7598H102.401Z" fill="#5C504B"/>
<path d="M103.949 35.9141H108.014L116.732 14.4399H112.695L103.949 35.9141Z" fill="#EA5B02"/>
<path d="M123.316 48.7798H106.66L105.168 52.4888H121.838L123.316 48.7798Z" fill="#CAD800"/>
</svg>
