<svg width="351" height="418" viewBox="0 0 351 418" fill="none" xmlns="http://www.w3.org/2000/svg">
<rect y="62.6064" width="351" height="355" rx="15" fill="#FEFAF6"/>
<path opacity="0.7" d="M0 0.606445H351V38.6064C351 46.8907 344.284 53.6064 336 53.6064H15C6.71573 53.6064 0 46.8907 0 38.6064V0.606445Z" fill="url(#paint0_linear_429_867)"/>
<mask id="mask0_429_867" style="mask-type:alpha" maskUnits="userSpaceOnUse" x="38" y="111" width="279" height="132">
<path fill-rule="evenodd" clip-rule="evenodd" d="M82.528 115.606H310.76C312.53 115.606 313.427 117.737 312.191 119.003L280.37 151.606H82.528C80.9115 151.606 79.3633 152.259 78.2342 153.416L72.9448 158.835H44.2403C42.4701 158.835 41.5726 156.705 42.809 155.438L81.0968 116.21C81.4731 115.824 81.9892 115.606 82.528 115.606ZM69.0407 162.835H44.2403C38.9299 162.835 36.2373 156.444 39.9464 152.644L78.2342 113.416C79.3633 112.259 80.9115 111.606 82.528 111.606H310.76C316.07 111.606 318.763 117.997 315.054 121.797L285.959 151.606H310.76C316.07 151.606 318.763 157.997 315.054 161.797L285.959 191.606H289.117V192.606V193.606H285.182V192.606V192.403L276.766 201.026C275.637 202.183 274.088 202.835 272.472 202.835H44.2403C38.9299 202.835 36.2373 196.444 39.9464 192.644L69.0407 162.835ZM284.007 153.606H310.76C314.3 153.606 316.095 157.867 313.622 160.4L281.247 193.571V192.606V191.606H277.312V192.606V193.606H281.213L275.334 199.629C274.582 200.4 273.55 200.835 272.472 200.835H73.7875L75.5632 199.016L74.8476 198.317L74.132 197.619L71.3971 200.421L71.8216 200.835H44.2403C40.7 200.835 38.9049 196.575 41.3777 194.041L71.8354 162.835H272.472C274.088 162.835 275.637 162.183 276.766 161.026L284.007 153.606ZM278.418 153.606L273.903 158.232C273.527 158.618 273.011 158.835 272.472 158.835H75.7395L79.6655 154.813C80.4182 154.041 81.4503 153.606 82.528 153.606H278.418ZM42.5016 242.59L42.7829 241.631L43.0642 240.671C43.4193 240.775 43.8113 240.835 44.2403 240.835H46.2078V241.835V242.835H44.2403C43.6234 242.835 43.0419 242.749 42.5016 242.59ZM270.504 242.835V241.835V240.835H272.472C272.74 240.835 273.005 240.808 273.264 240.756L273.462 241.736L273.66 242.716C273.272 242.795 272.874 242.835 272.472 242.835H270.504ZM275.851 241.793L275.288 240.967L274.724 240.141C274.943 239.992 275.147 239.821 275.334 239.629L276.702 238.228L277.418 238.926L278.133 239.625L276.766 241.026C276.485 241.314 276.178 241.57 275.851 241.793ZM280.868 236.823L280.152 236.124L279.437 235.426L282.172 232.624L282.887 233.322L283.603 234.021L280.868 236.823ZM286.338 231.219L285.622 230.52L284.906 229.822L287.641 227.02L288.357 227.718L289.073 228.417L286.338 231.219ZM291.807 225.615L291.092 224.916L290.376 224.218L293.111 221.416L293.827 222.114L294.542 222.813L291.807 225.615ZM297.277 220.011L296.561 219.312L295.846 218.614L298.581 215.812L299.296 216.51L300.012 217.209L297.277 220.011ZM302.747 214.406L302.031 213.708L301.315 213.01L304.05 210.207L304.766 210.906L305.482 211.604L302.747 214.406ZM308.216 208.802L307.501 208.104L306.785 207.405L309.52 204.603L310.236 205.302L310.951 206L308.216 208.802ZM313.686 203.198L312.97 202.5L312.255 201.801L313.622 200.4C313.922 200.093 314.153 199.771 314.326 199.444L315.21 199.913L316.093 200.382C315.829 200.879 315.484 201.356 315.054 201.797L313.686 203.198ZM316.734 196.974L315.74 197.086L314.746 197.199C314.657 196.411 314.338 195.652 313.836 195.038L314.61 194.406L315.385 193.773C316.13 194.684 316.602 195.805 316.734 196.974ZM84.4956 191.606V192.606V193.606H82.528C82.2598 193.606 81.9946 193.633 81.7358 193.686L81.5377 192.705L81.3396 191.725C81.7279 191.647 82.1259 191.606 82.528 191.606H84.4956ZM79.1493 192.648L79.7124 193.475L80.2755 194.301C80.0574 194.45 79.8529 194.621 79.6655 194.813L78.2981 196.214L77.5824 195.515L76.8668 194.817L78.2342 193.416C78.5151 193.128 78.822 192.871 79.1493 192.648ZM68.6623 203.223L69.3779 203.921L70.0936 204.62L67.3587 207.422L66.6431 206.723L65.9274 206.025L68.6623 203.223ZM63.1926 208.827L63.9082 209.525L64.6239 210.224L61.889 213.026L61.1734 212.327L60.4578 211.629L63.1926 208.827ZM57.7229 214.431L58.4386 215.129L59.1542 215.828L56.4193 218.63L55.7037 217.931L54.9881 217.233L57.7229 214.431ZM52.2532 220.035L52.9689 220.733L53.6845 221.432L50.9497 224.234L50.234 223.536L49.5184 222.837L52.2532 220.035ZM41.3139 231.243L42.0295 231.942L42.7451 232.64L41.3777 234.041C41.0781 234.348 40.8471 234.67 40.6735 234.997L39.7903 234.528L38.9071 234.059C39.1711 233.562 39.5156 233.086 39.9464 232.644L41.3139 231.243ZM38.2663 237.467L39.26 237.355L40.2537 237.243C40.3427 238.031 40.6624 238.789 41.1639 239.403L40.3895 240.036L39.6151 240.669C38.8704 239.757 38.3985 238.637 38.2663 237.467ZM44.0487 228.441L44.7643 229.14L45.48 229.838L48.2148 227.036L47.4992 226.338L46.7835 225.639L44.0487 228.441ZM88.4306 191.606V192.606V193.606H92.3656V192.606V191.606H88.4306ZM96.3006 191.606V192.606V193.606H100.236V192.606V191.606H96.3006ZM104.171 191.606V192.606V193.606H108.106V192.606V191.606H104.171ZM112.041 191.606V192.606V193.606H115.976V192.606V191.606H112.041ZM119.911 191.606V192.606V193.606H123.846V192.606V191.606H119.911ZM127.781 191.606V192.606V193.606H131.716V192.606V191.606H127.781ZM135.651 191.606V192.606V193.606H139.586V192.606V191.606H135.651ZM143.521 191.606V192.606V193.606H147.456V192.606V191.606H143.521ZM151.391 191.606V192.606V193.606H155.326V192.606V191.606H151.391ZM159.261 191.606V192.606V193.606H163.196V192.606V191.606H159.261ZM167.131 191.606V192.606V193.606H171.066V192.606V191.606H167.131ZM175.001 191.606V192.606V193.606H178.936V192.606V191.606H175.001ZM182.871 191.606V192.606V193.606H186.806V192.606V191.606H182.871ZM190.741 191.606V192.606V193.606H194.676V192.606V191.606H190.741ZM198.611 191.606V192.606V193.606H202.546V192.606V191.606H198.611ZM206.481 191.606V192.606V193.606H210.416V192.606V191.606H206.481ZM214.351 191.606V192.606V193.606H218.287V192.606V191.606H214.351ZM222.222 191.606V192.606V193.606H226.157V192.606V191.606H222.222ZM230.092 191.606V192.606V193.606H234.027V192.606V191.606H230.092ZM237.962 191.606V192.606V193.606H241.897V192.606V191.606H237.962ZM245.832 191.606V192.606V193.606H249.767V192.606V191.606H245.832ZM253.702 191.606V192.606V193.606H257.637V192.606V191.606H253.702ZM261.572 191.606V192.606V193.606H265.507V192.606V191.606H261.572ZM269.442 191.606V192.606V193.606H273.377V192.606V191.606H269.442ZM293.052 191.606V192.606V193.606H296.987V192.606V191.606H293.052ZM300.922 191.606V192.606V193.606H304.857V192.606V191.606H300.922ZM308.792 191.606V192.606V193.606H310.76C311.189 193.606 311.581 193.666 311.936 193.77L312.217 192.811L312.498 191.851C311.958 191.693 311.377 191.606 310.76 191.606H308.792ZM266.569 242.835V241.835V240.835H262.634V241.835V242.835H266.569ZM258.699 242.835V241.835V240.835H254.764V241.835V242.835H258.699ZM250.829 242.835V241.835V240.835H246.894V241.835V242.835H250.829ZM242.959 242.835V241.835V240.835H239.024V241.835V242.835H242.959ZM235.089 242.835V241.835V240.835H231.154V241.835V242.835H235.089ZM227.219 242.835V241.835V240.835H223.284V241.835V242.835H227.219ZM219.349 242.835V241.835V240.835H215.414V241.835V242.835H219.349ZM211.479 242.835V241.835V240.835H207.544V241.835V242.835H211.479ZM203.609 242.835V241.835V240.835H199.674V241.835V242.835H203.609ZM195.739 242.835V241.835V240.835H191.804V241.835V242.835H195.739ZM187.869 242.835V241.835V240.835H183.934V241.835V242.835H187.869ZM179.999 242.835V241.835V240.835H176.064V241.835V242.835H179.999ZM172.129 242.835V241.835V240.835H168.194V241.835V242.835H172.129ZM164.259 242.835V241.835V240.835H160.324V241.835V242.835H164.259ZM156.389 242.835V241.835V240.835H152.454V241.835V242.835H156.389ZM148.519 242.835V241.835V240.835H144.584V241.835V242.835H148.519ZM140.648 242.835V241.835V240.835H136.713V241.835V242.835H140.648ZM132.778 242.835V241.835V240.835H128.843V241.835V242.835H132.778ZM124.908 242.835V241.835V240.835H120.973V241.835V242.835H124.908ZM117.038 242.835V241.835V240.835H113.103V241.835V242.835H117.038ZM109.168 242.835V241.835V240.835H105.233V241.835V242.835H109.168ZM101.298 242.835V241.835V240.835H97.3632V241.835V242.835H101.298ZM93.4282 242.835V241.835V240.835H89.4931V241.835V242.835H93.4282ZM85.5581 242.835V241.835V240.835H81.6231V241.835V242.835H85.5581ZM77.6881 242.835V241.835V240.835H73.753V241.835V242.835H77.6881ZM69.818 242.835V241.835V240.835H65.883V241.835V242.835H69.818ZM61.9479 242.835V241.835V240.835H58.0129V241.835V242.835H61.9479ZM54.0779 242.835V241.835V240.835H50.1429V241.835V242.835H54.0779Z" fill="black"/>
</mask>
<g mask="url(#mask0_429_867)">
<rect x="3" y="65.4482" width="330" height="220" fill="#D9D9D9"/>
<rect x="3" y="65.4482" width="330" height="220" fill="url(#paint1_linear_429_867)"/>
</g>
<line x1="175" y1="226.606" x2="175" y2="276.606" stroke="black" stroke-width="2"/>
<circle cx="175" cy="224.606" r="6" fill="#2F2F2F"/>
<path d="M28.287 301.606L24.201 289.114H25.893L29.133 299.302H28.647L31.833 289.114H33.057L36.243 299.302H35.775L39.015 289.114H40.689L36.621 301.606H35.415L32.211 291.436H32.679L29.493 301.606H28.287ZM45.1207 301.786C44.2687 301.786 43.5007 301.594 42.8167 301.21C42.1327 300.814 41.5927 300.28 41.1967 299.608C40.8007 298.936 40.6027 298.174 40.6027 297.322C40.6027 296.482 40.7947 295.726 41.1787 295.054C41.5747 294.382 42.1027 293.854 42.7627 293.47C43.4347 293.074 44.1847 292.876 45.0127 292.876C45.8047 292.876 46.5007 293.056 47.1007 293.416C47.7127 293.776 48.1867 294.274 48.5227 294.91C48.8707 295.546 49.0447 296.266 49.0447 297.07C49.0447 297.19 49.0387 297.322 49.0267 297.466C49.0147 297.598 48.9907 297.754 48.9547 297.934H41.7367V296.584H48.0907L47.4967 297.106C47.4967 296.53 47.3947 296.044 47.1907 295.648C46.9867 295.24 46.6987 294.928 46.3267 294.712C45.9547 294.484 45.5047 294.37 44.9767 294.37C44.4247 294.37 43.9387 294.49 43.5187 294.73C43.0987 294.97 42.7747 295.306 42.5467 295.738C42.3187 296.17 42.2047 296.68 42.2047 297.268C42.2047 297.868 42.3247 298.396 42.5647 298.852C42.8047 299.296 43.1467 299.644 43.5907 299.896C44.0347 300.136 44.5447 300.256 45.1207 300.256C45.6007 300.256 46.0387 300.172 46.4347 300.004C46.8427 299.836 47.1907 299.584 47.4787 299.248L48.5227 300.31C48.1147 300.79 47.6107 301.156 47.0107 301.408C46.4227 301.66 45.7927 301.786 45.1207 301.786ZM58.1732 301.786C57.3812 301.786 56.6732 301.594 56.0492 301.21C55.4252 300.814 54.9272 300.28 54.5552 299.608C54.1952 298.936 54.0152 298.18 54.0152 297.34C54.0152 296.5 54.1952 295.744 54.5552 295.072C54.9272 294.4 55.4252 293.866 56.0492 293.47C56.6732 293.074 57.3812 292.876 58.1732 292.876C58.8092 292.876 59.3852 293.014 59.9012 293.29C60.4172 293.554 60.8312 293.926 61.1432 294.406C61.4672 294.874 61.6472 295.42 61.6832 296.044V298.618C61.6472 299.23 61.4732 299.776 61.1612 300.256C60.8492 300.736 60.4352 301.114 59.9192 301.39C59.4032 301.654 58.8212 301.786 58.1732 301.786ZM58.4432 300.256C58.9832 300.256 59.4512 300.13 59.8472 299.878C60.2552 299.626 60.5732 299.284 60.8012 298.852C61.0292 298.408 61.1432 297.904 61.1432 297.34C61.1432 296.752 61.0232 296.242 60.7832 295.81C60.5552 295.378 60.2372 295.036 59.8292 294.784C59.4332 294.532 58.9652 294.406 58.4252 294.406C57.8852 294.406 57.4112 294.532 57.0032 294.784C56.5952 295.036 56.2712 295.384 56.0312 295.828C55.8032 296.26 55.6892 296.758 55.6892 297.322C55.6892 297.898 55.8032 298.408 56.0312 298.852C56.2712 299.284 56.5952 299.626 57.0032 299.878C57.4232 300.13 57.9032 300.256 58.4432 300.256ZM62.6732 301.606H61.0352V299.302L61.3412 297.214L61.0352 295.144V288.754H62.6732V301.606ZM68.9918 301.786C68.1398 301.786 67.3718 301.594 66.6878 301.21C66.0038 300.814 65.4638 300.28 65.0678 299.608C64.6718 298.936 64.4738 298.174 64.4738 297.322C64.4738 296.482 64.6658 295.726 65.0498 295.054C65.4458 294.382 65.9738 293.854 66.6338 293.47C67.3058 293.074 68.0558 292.876 68.8838 292.876C69.6758 292.876 70.3718 293.056 70.9718 293.416C71.5838 293.776 72.0578 294.274 72.3938 294.91C72.7418 295.546 72.9158 296.266 72.9158 297.07C72.9158 297.19 72.9098 297.322 72.8978 297.466C72.8858 297.598 72.8618 297.754 72.8258 297.934H65.6078V296.584H71.9618L71.3678 297.106C71.3678 296.53 71.2658 296.044 71.0618 295.648C70.8578 295.24 70.5698 294.928 70.1978 294.712C69.8258 294.484 69.3758 294.37 68.8478 294.37C68.2958 294.37 67.8098 294.49 67.3898 294.73C66.9698 294.97 66.6458 295.306 66.4178 295.738C66.1898 296.17 66.0758 296.68 66.0758 297.268C66.0758 297.868 66.1958 298.396 66.4358 298.852C66.6758 299.296 67.0178 299.644 67.4618 299.896C67.9058 300.136 68.4158 300.256 68.9918 300.256C69.4718 300.256 69.9098 300.172 70.3058 300.004C70.7138 299.836 71.0618 299.584 71.3498 299.248L72.3938 300.31C71.9858 300.79 71.4818 301.156 70.8818 301.408C70.2938 301.66 69.6638 301.786 68.9918 301.786ZM77.4755 301.606L73.5515 293.056H75.3515L78.5015 300.274H77.4575L80.6255 293.056H82.3535L78.4295 301.606H77.4755ZM87.3609 301.786C86.5089 301.786 85.7409 301.594 85.0569 301.21C84.3729 300.814 83.8329 300.28 83.4369 299.608C83.0409 298.936 82.8429 298.174 82.8429 297.322C82.8429 296.482 83.0349 295.726 83.4189 295.054C83.8149 294.382 84.3429 293.854 85.0029 293.47C85.6749 293.074 86.4249 292.876 87.2529 292.876C88.0449 292.876 88.7409 293.056 89.3409 293.416C89.9529 293.776 90.4269 294.274 90.7629 294.91C91.1109 295.546 91.2849 296.266 91.2849 297.07C91.2849 297.19 91.2789 297.322 91.2669 297.466C91.2549 297.598 91.2309 297.754 91.1949 297.934H83.9769V296.584H90.3309L89.7369 297.106C89.7369 296.53 89.6349 296.044 89.4309 295.648C89.2269 295.24 88.9389 294.928 88.5669 294.712C88.1949 294.484 87.7449 294.37 87.2169 294.37C86.6649 294.37 86.1789 294.49 85.7589 294.73C85.3389 294.97 85.0149 295.306 84.7869 295.738C84.5589 296.17 84.4449 296.68 84.4449 297.268C84.4449 297.868 84.5649 298.396 84.8049 298.852C85.0449 299.296 85.3869 299.644 85.8309 299.896C86.2749 300.136 86.7849 300.256 87.3609 300.256C87.8409 300.256 88.2789 300.172 88.6749 300.004C89.0829 299.836 89.4309 299.584 89.7189 299.248L90.7629 300.31C90.3549 300.79 89.8509 301.156 89.2509 301.408C88.6629 301.66 88.0329 301.786 87.3609 301.786ZM93.0513 301.606V288.754H94.6713V301.606H93.0513ZM100.948 301.786C100.108 301.786 99.3515 301.588 98.6795 301.192C98.0075 300.796 97.4735 300.262 97.0775 299.59C96.6815 298.906 96.4835 298.144 96.4835 297.304C96.4835 296.476 96.6815 295.732 97.0775 295.072C97.4735 294.4 98.0075 293.866 98.6795 293.47C99.3515 293.074 100.108 292.876 100.948 292.876C101.776 292.876 102.526 293.074 103.198 293.47C103.882 293.854 104.422 294.382 104.818 295.054C105.214 295.726 105.412 296.476 105.412 297.304C105.412 298.144 105.214 298.906 104.818 299.59C104.422 300.262 103.882 300.796 103.198 301.192C102.526 301.588 101.776 301.786 100.948 301.786ZM100.948 300.22C101.488 300.22 101.968 300.094 102.388 299.842C102.808 299.59 103.138 299.248 103.378 298.816C103.618 298.372 103.738 297.868 103.738 297.304C103.738 296.752 103.612 296.26 103.36 295.828C103.12 295.396 102.79 295.06 102.37 294.82C101.962 294.568 101.488 294.442 100.948 294.442C100.408 294.442 99.9275 294.568 99.5075 294.82C99.0875 295.06 98.7575 295.396 98.5175 295.828C98.2775 296.26 98.1575 296.752 98.1575 297.304C98.1575 297.868 98.2775 298.372 98.5175 298.816C98.7575 299.248 99.0875 299.59 99.5075 299.842C99.9275 300.094 100.408 300.22 100.948 300.22ZM111.737 301.786C111.089 301.786 110.501 301.654 109.973 301.39C109.457 301.114 109.043 300.736 108.731 300.256C108.419 299.776 108.245 299.23 108.209 298.618V296.044C108.245 295.42 108.419 294.874 108.731 294.406C109.055 293.926 109.475 293.554 109.991 293.29C110.519 293.014 111.101 292.876 111.737 292.876C112.517 292.876 113.219 293.074 113.843 293.47C114.479 293.866 114.977 294.4 115.337 295.072C115.697 295.744 115.877 296.5 115.877 297.34C115.877 298.18 115.697 298.936 115.337 299.608C114.977 300.28 114.479 300.814 113.843 301.21C113.219 301.594 112.517 301.786 111.737 301.786ZM111.467 300.256C112.007 300.256 112.481 300.13 112.889 299.878C113.297 299.626 113.621 299.284 113.861 298.852C114.101 298.408 114.221 297.898 114.221 297.322C114.221 296.758 114.101 296.254 113.861 295.81C113.621 295.366 113.297 295.024 112.889 294.784C112.481 294.532 112.013 294.406 111.485 294.406C110.945 294.406 110.471 294.532 110.063 294.784C109.655 295.024 109.337 295.366 109.109 295.81C108.881 296.254 108.767 296.764 108.767 297.34C108.767 297.904 108.875 298.408 109.091 298.852C109.319 299.284 109.637 299.626 110.045 299.878C110.465 300.13 110.939 300.256 111.467 300.256ZM107.237 305.188V293.056H108.857V295.306L108.551 297.376L108.857 299.464V305.188H107.237ZM125.958 301.786C125.31 301.786 124.722 301.654 124.194 301.39C123.678 301.114 123.264 300.736 122.952 300.256C122.64 299.776 122.466 299.23 122.43 298.618V296.044C122.466 295.42 122.64 294.874 122.952 294.406C123.276 293.926 123.696 293.554 124.212 293.29C124.74 293.014 125.322 292.876 125.958 292.876C126.738 292.876 127.44 293.074 128.064 293.47C128.7 293.866 129.198 294.4 129.558 295.072C129.918 295.744 130.098 296.5 130.098 297.34C130.098 298.18 129.918 298.936 129.558 299.608C129.198 300.28 128.7 300.814 128.064 301.21C127.44 301.594 126.738 301.786 125.958 301.786ZM125.688 300.256C126.228 300.256 126.702 300.13 127.11 299.878C127.518 299.626 127.842 299.284 128.082 298.852C128.322 298.408 128.442 297.898 128.442 297.322C128.442 296.758 128.322 296.254 128.082 295.81C127.842 295.366 127.518 295.024 127.11 294.784C126.702 294.532 126.234 294.406 125.706 294.406C125.166 294.406 124.692 294.532 124.284 294.784C123.876 295.024 123.558 295.366 123.33 295.81C123.102 296.254 122.988 296.764 122.988 297.34C122.988 297.904 123.096 298.408 123.312 298.852C123.54 299.284 123.858 299.626 124.266 299.878C124.686 300.13 125.16 300.256 125.688 300.256ZM121.458 305.188V293.056H123.078V295.306L122.772 297.376L123.078 299.464V305.188H121.458ZM131.934 301.606V293.056H133.554V301.606H131.934ZM133.554 296.728L132.942 296.458C132.942 295.366 133.194 294.496 133.698 293.848C134.202 293.2 134.928 292.876 135.876 292.876C136.308 292.876 136.698 292.954 137.046 293.11C137.394 293.254 137.718 293.5 138.018 293.848L136.956 294.946C136.776 294.754 136.578 294.616 136.362 294.532C136.146 294.448 135.894 294.406 135.606 294.406C135.006 294.406 134.514 294.598 134.13 294.982C133.746 295.366 133.554 295.948 133.554 296.728ZM142.837 301.786C141.985 301.786 141.217 301.594 140.533 301.21C139.849 300.814 139.309 300.28 138.913 299.608C138.517 298.936 138.319 298.174 138.319 297.322C138.319 296.482 138.511 295.726 138.895 295.054C139.291 294.382 139.819 293.854 140.479 293.47C141.151 293.074 141.901 292.876 142.729 292.876C143.521 292.876 144.217 293.056 144.817 293.416C145.429 293.776 145.903 294.274 146.239 294.91C146.587 295.546 146.761 296.266 146.761 297.07C146.761 297.19 146.755 297.322 146.743 297.466C146.731 297.598 146.707 297.754 146.671 297.934H139.453V296.584H145.807L145.213 297.106C145.213 296.53 145.111 296.044 144.907 295.648C144.703 295.24 144.415 294.928 144.043 294.712C143.671 294.484 143.221 294.37 142.693 294.37C142.141 294.37 141.655 294.49 141.235 294.73C140.815 294.97 140.491 295.306 140.263 295.738C140.035 296.17 139.921 296.68 139.921 297.268C139.921 297.868 140.041 298.396 140.281 298.852C140.521 299.296 140.863 299.644 141.307 299.896C141.751 300.136 142.261 300.256 142.837 300.256C143.317 300.256 143.755 300.172 144.151 300.004C144.559 299.836 144.907 299.584 145.195 299.248L146.239 300.31C145.831 300.79 145.327 301.156 144.727 301.408C144.139 301.66 143.509 301.786 142.837 301.786ZM152.434 301.786C151.594 301.786 150.832 301.588 150.148 301.192C149.476 300.796 148.942 300.262 148.546 299.59C148.162 298.906 147.97 298.15 147.97 297.322C147.97 296.482 148.162 295.726 148.546 295.054C148.942 294.382 149.476 293.854 150.148 293.47C150.832 293.074 151.594 292.876 152.434 292.876C153.094 292.876 153.706 293.002 154.27 293.254C154.834 293.494 155.32 293.848 155.728 294.316L154.648 295.396C154.384 295.084 154.06 294.85 153.676 294.694C153.304 294.526 152.89 294.442 152.434 294.442C151.894 294.442 151.414 294.568 150.994 294.82C150.574 295.06 150.244 295.396 150.004 295.828C149.764 296.26 149.644 296.758 149.644 297.322C149.644 297.886 149.764 298.384 150.004 298.816C150.244 299.248 150.574 299.59 150.994 299.842C151.414 300.094 151.894 300.22 152.434 300.22C152.89 300.22 153.304 300.142 153.676 299.986C154.06 299.818 154.39 299.578 154.666 299.266L155.728 300.346C155.332 300.802 154.846 301.156 154.27 301.408C153.706 301.66 153.094 301.786 152.434 301.786ZM157.352 301.606V293.056H158.972V301.606H157.352ZM158.162 291.346C157.862 291.346 157.616 291.25 157.424 291.058C157.232 290.854 157.136 290.602 157.136 290.302C157.136 290.014 157.232 289.774 157.424 289.582C157.616 289.378 157.862 289.276 158.162 289.276C158.462 289.276 158.708 289.378 158.9 289.582C159.092 289.774 159.188 290.014 159.188 290.302C159.188 290.602 159.092 290.854 158.9 291.058C158.708 291.25 158.462 291.346 158.162 291.346ZM164.078 301.786C163.598 301.786 163.142 301.726 162.71 301.606C162.29 301.474 161.9 301.294 161.54 301.066C161.18 300.826 160.868 300.544 160.604 300.22L161.648 299.176C161.96 299.56 162.32 299.848 162.728 300.04C163.136 300.22 163.592 300.31 164.096 300.31C164.6 300.31 164.99 300.226 165.266 300.058C165.542 299.878 165.68 299.632 165.68 299.32C165.68 299.008 165.566 298.768 165.338 298.6C165.122 298.42 164.84 298.276 164.492 298.168C164.144 298.048 163.772 297.934 163.376 297.826C162.992 297.706 162.626 297.556 162.278 297.376C161.93 297.196 161.642 296.95 161.414 296.638C161.198 296.326 161.09 295.912 161.09 295.396C161.09 294.88 161.216 294.436 161.468 294.064C161.72 293.68 162.068 293.386 162.512 293.182C162.968 292.978 163.514 292.876 164.15 292.876C164.822 292.876 165.416 292.996 165.932 293.236C166.46 293.464 166.892 293.812 167.228 294.28L166.184 295.324C165.944 295.012 165.644 294.772 165.284 294.604C164.936 294.436 164.54 294.352 164.096 294.352C163.628 294.352 163.268 294.436 163.016 294.604C162.776 294.76 162.656 294.982 162.656 295.27C162.656 295.558 162.764 295.78 162.98 295.936C163.196 296.092 163.478 296.224 163.826 296.332C164.186 296.44 164.558 296.554 164.942 296.674C165.326 296.782 165.692 296.932 166.04 297.124C166.388 297.316 166.67 297.574 166.886 297.898C167.114 298.222 167.228 298.648 167.228 299.176C167.228 299.98 166.94 300.616 166.364 301.084C165.8 301.552 165.038 301.786 164.078 301.786ZM169.06 301.606V293.056H170.68V301.606H169.06ZM169.87 291.346C169.57 291.346 169.324 291.25 169.132 291.058C168.94 290.854 168.844 290.602 168.844 290.302C168.844 290.014 168.94 289.774 169.132 289.582C169.324 289.378 169.57 289.276 169.87 289.276C170.17 289.276 170.416 289.378 170.608 289.582C170.8 289.774 170.896 290.014 170.896 290.302C170.896 290.602 170.8 290.854 170.608 291.058C170.416 291.25 170.17 291.346 169.87 291.346ZM176.973 301.786C176.133 301.786 175.377 301.588 174.705 301.192C174.033 300.796 173.499 300.262 173.103 299.59C172.707 298.906 172.509 298.144 172.509 297.304C172.509 296.476 172.707 295.732 173.103 295.072C173.499 294.4 174.033 293.866 174.705 293.47C175.377 293.074 176.133 292.876 176.973 292.876C177.801 292.876 178.551 293.074 179.223 293.47C179.907 293.854 180.447 294.382 180.843 295.054C181.239 295.726 181.437 296.476 181.437 297.304C181.437 298.144 181.239 298.906 180.843 299.59C180.447 300.262 179.907 300.796 179.223 301.192C178.551 301.588 177.801 301.786 176.973 301.786ZM176.973 300.22C177.513 300.22 177.993 300.094 178.413 299.842C178.833 299.59 179.163 299.248 179.403 298.816C179.643 298.372 179.763 297.868 179.763 297.304C179.763 296.752 179.637 296.26 179.385 295.828C179.145 295.396 178.815 295.06 178.395 294.82C177.987 294.568 177.513 294.442 176.973 294.442C176.433 294.442 175.953 294.568 175.533 294.82C175.113 295.06 174.783 295.396 174.543 295.828C174.303 296.26 174.183 296.752 174.183 297.304C174.183 297.868 174.303 298.372 174.543 298.816C174.783 299.248 175.113 299.59 175.533 299.842C175.953 300.094 176.433 300.22 176.973 300.22ZM189.31 301.606V296.62C189.31 295.972 189.106 295.438 188.698 295.018C188.29 294.598 187.762 294.388 187.114 294.388C186.682 294.388 186.298 294.484 185.962 294.676C185.626 294.868 185.362 295.132 185.17 295.468C184.978 295.804 184.882 296.188 184.882 296.62L184.216 296.242C184.216 295.594 184.36 295.018 184.648 294.514C184.936 294.01 185.338 293.614 185.854 293.326C186.37 293.026 186.952 292.876 187.6 292.876C188.248 292.876 188.818 293.038 189.31 293.362C189.814 293.686 190.21 294.112 190.498 294.64C190.786 295.156 190.93 295.708 190.93 296.296V301.606H189.31ZM183.262 301.606V293.056H184.882V301.606H183.262ZM196.868 301.606V293.056H198.488V301.606H196.868ZM202.646 301.606V296.44C202.646 295.804 202.448 295.306 202.052 294.946C201.668 294.574 201.182 294.388 200.594 294.388C200.198 294.388 199.844 294.472 199.532 294.64C199.22 294.808 198.968 295.042 198.776 295.342C198.584 295.642 198.488 296.002 198.488 296.422L197.822 296.098C197.822 295.45 197.96 294.886 198.236 294.406C198.524 293.926 198.914 293.554 199.406 293.29C199.898 293.014 200.45 292.876 201.062 292.876C201.662 292.876 202.202 293.008 202.682 293.272C203.174 293.536 203.558 293.908 203.834 294.388C204.122 294.868 204.266 295.438 204.266 296.098V301.606H202.646ZM208.424 301.606V296.44C208.424 295.804 208.226 295.306 207.83 294.946C207.446 294.574 206.966 294.388 206.39 294.388C205.994 294.388 205.634 294.472 205.31 294.64C204.998 294.808 204.746 295.042 204.554 295.342C204.362 295.642 204.266 296.002 204.266 296.422L203.348 296.098C203.384 295.438 203.558 294.874 203.87 294.406C204.194 293.926 204.608 293.554 205.112 293.29C205.616 293.014 206.168 292.876 206.768 292.876C207.392 292.876 207.95 293.008 208.442 293.272C208.934 293.536 209.324 293.908 209.612 294.388C209.912 294.868 210.062 295.444 210.062 296.116V301.606H208.424ZM216.226 301.786C215.374 301.786 214.606 301.594 213.922 301.21C213.238 300.814 212.698 300.28 212.302 299.608C211.906 298.936 211.708 298.174 211.708 297.322C211.708 296.482 211.9 295.726 212.284 295.054C212.68 294.382 213.208 293.854 213.868 293.47C214.54 293.074 215.29 292.876 216.118 292.876C216.91 292.876 217.606 293.056 218.206 293.416C218.818 293.776 219.292 294.274 219.628 294.91C219.976 295.546 220.15 296.266 220.15 297.07C220.15 297.19 220.144 297.322 220.132 297.466C220.12 297.598 220.096 297.754 220.06 297.934H212.842V296.584H219.196L218.602 297.106C218.602 296.53 218.5 296.044 218.296 295.648C218.092 295.24 217.804 294.928 217.432 294.712C217.06 294.484 216.61 294.37 216.082 294.37C215.53 294.37 215.044 294.49 214.624 294.73C214.204 294.97 213.88 295.306 213.652 295.738C213.424 296.17 213.31 296.68 213.31 297.268C213.31 297.868 213.43 298.396 213.67 298.852C213.91 299.296 214.252 299.644 214.696 299.896C215.14 300.136 215.65 300.256 216.226 300.256C216.706 300.256 217.144 300.172 217.54 300.004C217.948 299.836 218.296 299.584 218.584 299.248L219.628 300.31C219.22 300.79 218.716 301.156 218.116 301.408C217.528 301.66 216.898 301.786 216.226 301.786ZM225.535 301.786C224.743 301.786 224.035 301.594 223.411 301.21C222.787 300.814 222.289 300.28 221.917 299.608C221.557 298.936 221.377 298.18 221.377 297.34C221.377 296.5 221.557 295.744 221.917 295.072C222.289 294.4 222.787 293.866 223.411 293.47C224.035 293.074 224.743 292.876 225.535 292.876C226.171 292.876 226.747 293.014 227.263 293.29C227.779 293.554 228.193 293.926 228.505 294.406C228.829 294.874 229.009 295.42 229.045 296.044V298.618C229.009 299.23 228.835 299.776 228.523 300.256C228.211 300.736 227.797 301.114 227.281 301.39C226.765 301.654 226.183 301.786 225.535 301.786ZM225.805 300.256C226.345 300.256 226.813 300.13 227.209 299.878C227.617 299.626 227.935 299.284 228.163 298.852C228.391 298.408 228.505 297.904 228.505 297.34C228.505 296.752 228.385 296.242 228.145 295.81C227.917 295.378 227.599 295.036 227.191 294.784C226.795 294.532 226.327 294.406 225.787 294.406C225.247 294.406 224.773 294.532 224.365 294.784C223.957 295.036 223.633 295.384 223.393 295.828C223.165 296.26 223.051 296.758 223.051 297.322C223.051 297.898 223.165 298.408 223.393 298.852C223.633 299.284 223.957 299.626 224.365 299.878C224.785 300.13 225.265 300.256 225.805 300.256ZM230.035 301.606H228.397V299.302L228.703 297.214L228.397 295.144V288.754H230.035V301.606ZM232.411 301.606V293.056H234.031V301.606H232.411ZM233.221 291.346C232.921 291.346 232.675 291.25 232.483 291.058C232.291 290.854 232.195 290.602 232.195 290.302C232.195 290.014 232.291 289.774 232.483 289.582C232.675 289.378 232.921 289.276 233.221 289.276C233.521 289.276 233.767 289.378 233.959 289.582C234.151 289.774 234.247 290.014 234.247 290.302C234.247 290.602 234.151 290.854 233.959 291.058C233.767 291.25 233.521 291.346 233.221 291.346ZM240.324 301.786C239.484 301.786 238.722 301.588 238.038 301.192C237.366 300.796 236.832 300.262 236.436 299.59C236.052 298.906 235.86 298.15 235.86 297.322C235.86 296.482 236.052 295.726 236.436 295.054C236.832 294.382 237.366 293.854 238.038 293.47C238.722 293.074 239.484 292.876 240.324 292.876C240.984 292.876 241.596 293.002 242.16 293.254C242.724 293.494 243.21 293.848 243.618 294.316L242.538 295.396C242.274 295.084 241.95 294.85 241.566 294.694C241.194 294.526 240.78 294.442 240.324 294.442C239.784 294.442 239.304 294.568 238.884 294.82C238.464 295.06 238.134 295.396 237.894 295.828C237.654 296.26 237.534 296.758 237.534 297.322C237.534 297.886 237.654 298.384 237.894 298.816C238.134 299.248 238.464 299.59 238.884 299.842C239.304 300.094 239.784 300.22 240.324 300.22C240.78 300.22 241.194 300.142 241.566 299.986C241.95 299.818 242.28 299.578 242.556 299.266L243.618 300.346C243.222 300.802 242.736 301.156 242.16 301.408C241.596 301.66 240.984 301.786 240.324 301.786ZM245.243 301.606V293.056H246.863V301.606H245.243ZM246.053 291.346C245.753 291.346 245.507 291.25 245.315 291.058C245.123 290.854 245.027 290.602 245.027 290.302C245.027 290.014 245.123 289.774 245.315 289.582C245.507 289.378 245.753 289.276 246.053 289.276C246.353 289.276 246.599 289.378 246.791 289.582C246.983 289.774 247.079 290.014 247.079 290.302C247.079 290.602 246.983 290.854 246.791 291.058C246.599 291.25 246.353 291.346 246.053 291.346ZM255.299 301.606V296.62C255.299 295.972 255.095 295.438 254.687 295.018C254.279 294.598 253.751 294.388 253.103 294.388C252.671 294.388 252.287 294.484 251.951 294.676C251.615 294.868 251.351 295.132 251.159 295.468C250.967 295.804 250.871 296.188 250.871 296.62L250.205 296.242C250.205 295.594 250.349 295.018 250.637 294.514C250.925 294.01 251.327 293.614 251.843 293.326C252.359 293.026 252.941 292.876 253.589 292.876C254.237 292.876 254.807 293.038 255.299 293.362C255.803 293.686 256.199 294.112 256.487 294.64C256.775 295.156 256.919 295.708 256.919 296.296V301.606H255.299ZM249.25 301.606V293.056H250.871V301.606H249.25ZM263.072 301.786C262.22 301.786 261.452 301.594 260.768 301.21C260.084 300.814 259.544 300.28 259.148 299.608C258.752 298.936 258.554 298.174 258.554 297.322C258.554 296.482 258.746 295.726 259.13 295.054C259.526 294.382 260.054 293.854 260.714 293.47C261.386 293.074 262.136 292.876 262.964 292.876C263.756 292.876 264.452 293.056 265.052 293.416C265.664 293.776 266.138 294.274 266.474 294.91C266.822 295.546 266.996 296.266 266.996 297.07C266.996 297.19 266.99 297.322 266.978 297.466C266.966 297.598 266.942 297.754 266.906 297.934H259.688V296.584H266.042L265.448 297.106C265.448 296.53 265.346 296.044 265.142 295.648C264.938 295.24 264.65 294.928 264.278 294.712C263.906 294.484 263.456 294.37 262.928 294.37C262.376 294.37 261.89 294.49 261.47 294.73C261.05 294.97 260.726 295.306 260.498 295.738C260.27 296.17 260.156 296.68 260.156 297.268C260.156 297.868 260.276 298.396 260.516 298.852C260.756 299.296 261.098 299.644 261.542 299.896C261.986 300.136 262.496 300.256 263.072 300.256C263.552 300.256 263.99 300.172 264.386 300.004C264.794 299.836 265.142 299.584 265.43 299.248L266.474 300.31C266.066 300.79 265.562 301.156 264.962 301.408C264.374 301.66 263.744 301.786 263.072 301.786ZM273.82 301.606V289.474H275.44V301.606H273.82ZM271.714 294.532V293.056H277.546V294.532H271.714ZM282.776 301.786C281.936 301.786 281.18 301.588 280.508 301.192C279.836 300.796 279.302 300.262 278.906 299.59C278.51 298.906 278.312 298.144 278.312 297.304C278.312 296.476 278.51 295.732 278.906 295.072C279.302 294.4 279.836 293.866 280.508 293.47C281.18 293.074 281.936 292.876 282.776 292.876C283.604 292.876 284.354 293.074 285.026 293.47C285.71 293.854 286.25 294.382 286.646 295.054C287.042 295.726 287.24 296.476 287.24 297.304C287.24 298.144 287.042 298.906 286.646 299.59C286.25 300.262 285.71 300.796 285.026 301.192C284.354 301.588 283.604 301.786 282.776 301.786ZM282.776 300.22C283.316 300.22 283.796 300.094 284.216 299.842C284.636 299.59 284.966 299.248 285.206 298.816C285.446 298.372 285.566 297.868 285.566 297.304C285.566 296.752 285.44 296.26 285.188 295.828C284.948 295.396 284.618 295.06 284.198 294.82C283.79 294.568 283.316 294.442 282.776 294.442C282.236 294.442 281.756 294.568 281.336 294.82C280.916 295.06 280.586 295.396 280.346 295.828C280.106 296.26 279.986 296.752 279.986 297.304C279.986 297.868 280.106 298.372 280.346 298.816C280.586 299.248 280.916 299.59 281.336 299.842C281.756 300.094 282.236 300.22 282.776 300.22ZM292.971 301.786C292.131 301.786 291.375 301.588 290.703 301.192C290.031 300.796 289.497 300.262 289.101 299.59C288.705 298.906 288.507 298.144 288.507 297.304C288.507 296.476 288.705 295.732 289.101 295.072C289.497 294.4 290.031 293.866 290.703 293.47C291.375 293.074 292.131 292.876 292.971 292.876C293.799 292.876 294.549 293.074 295.221 293.47C295.905 293.854 296.445 294.382 296.841 295.054C297.237 295.726 297.435 296.476 297.435 297.304C297.435 298.144 297.237 298.906 296.841 299.59C296.445 300.262 295.905 300.796 295.221 301.192C294.549 301.588 293.799 301.786 292.971 301.786ZM292.971 300.22C293.511 300.22 293.991 300.094 294.411 299.842C294.831 299.59 295.161 299.248 295.401 298.816C295.641 298.372 295.761 297.868 295.761 297.304C295.761 296.752 295.635 296.26 295.383 295.828C295.143 295.396 294.813 295.06 294.393 294.82C293.985 294.568 293.511 294.442 292.971 294.442C292.431 294.442 291.951 294.568 291.531 294.82C291.111 295.06 290.781 295.396 290.541 295.828C290.301 296.26 290.181 296.752 290.181 297.304C290.181 297.868 290.301 298.372 290.541 298.816C290.781 299.248 291.111 299.59 291.531 299.842C291.951 300.094 292.431 300.22 292.971 300.22ZM299.26 301.606V288.754H300.88V301.606H299.26ZM305.969 301.786C305.489 301.786 305.033 301.726 304.601 301.606C304.181 301.474 303.791 301.294 303.431 301.066C303.071 300.826 302.759 300.544 302.495 300.22L303.539 299.176C303.851 299.56 304.211 299.848 304.619 300.04C305.027 300.22 305.483 300.31 305.987 300.31C306.491 300.31 306.881 300.226 307.157 300.058C307.433 299.878 307.571 299.632 307.571 299.32C307.571 299.008 307.457 298.768 307.229 298.6C307.013 298.42 306.731 298.276 306.383 298.168C306.035 298.048 305.663 297.934 305.267 297.826C304.883 297.706 304.517 297.556 304.169 297.376C303.821 297.196 303.533 296.95 303.305 296.638C303.089 296.326 302.981 295.912 302.981 295.396C302.981 294.88 303.107 294.436 303.359 294.064C303.611 293.68 303.959 293.386 304.403 293.182C304.859 292.978 305.405 292.876 306.041 292.876C306.713 292.876 307.307 292.996 307.823 293.236C308.351 293.464 308.783 293.812 309.119 294.28L308.075 295.324C307.835 295.012 307.535 294.772 307.175 294.604C306.827 294.436 306.431 294.352 305.987 294.352C305.519 294.352 305.159 294.436 304.907 294.604C304.667 294.76 304.547 294.982 304.547 295.27C304.547 295.558 304.655 295.78 304.871 295.936C305.087 296.092 305.369 296.224 305.717 296.332C306.077 296.44 306.449 296.554 306.833 296.674C307.217 296.782 307.583 296.932 307.931 297.124C308.279 297.316 308.561 297.574 308.777 297.898C309.005 298.222 309.119 298.648 309.119 299.176C309.119 299.98 308.831 300.616 308.255 301.084C307.691 301.552 306.929 301.786 305.969 301.786ZM314.694 301.606V293.056H316.314V301.606H314.694ZM315.504 291.346C315.204 291.346 314.958 291.25 314.766 291.058C314.574 290.854 314.478 290.602 314.478 290.302C314.478 290.014 314.574 289.774 314.766 289.582C314.958 289.378 315.204 289.276 315.504 289.276C315.804 289.276 316.05 289.378 316.242 289.582C316.434 289.774 316.53 290.014 316.53 290.302C316.53 290.602 316.434 290.854 316.242 291.058C316.05 291.25 315.804 291.346 315.504 291.346ZM324.75 301.606V296.62C324.75 295.972 324.546 295.438 324.138 295.018C323.73 294.598 323.202 294.388 322.554 294.388C322.122 294.388 321.738 294.484 321.402 294.676C321.066 294.868 320.802 295.132 320.61 295.468C320.418 295.804 320.322 296.188 320.322 296.62L319.656 296.242C319.656 295.594 319.8 295.018 320.088 294.514C320.376 294.01 320.778 293.614 321.294 293.326C321.81 293.026 322.392 292.876 323.04 292.876C323.688 292.876 324.258 293.038 324.75 293.362C325.254 293.686 325.65 294.112 325.938 294.64C326.226 295.156 326.37 295.708 326.37 296.296V301.606H324.75ZM318.702 301.606V293.056H320.322V301.606H318.702ZM29.0442 324.786C28.2042 324.786 27.4482 324.588 26.7762 324.192C26.1042 323.796 25.5702 323.262 25.1742 322.59C24.7782 321.906 24.5802 321.144 24.5802 320.304C24.5802 319.476 24.7782 318.732 25.1742 318.072C25.5702 317.4 26.1042 316.866 26.7762 316.47C27.4482 316.074 28.2042 315.876 29.0442 315.876C29.8722 315.876 30.6222 316.074 31.2942 316.47C31.9782 316.854 32.5182 317.382 32.9142 318.054C33.3102 318.726 33.5082 319.476 33.5082 320.304C33.5082 321.144 33.3102 321.906 32.9142 322.59C32.5182 323.262 31.9782 323.796 31.2942 324.192C30.6222 324.588 29.8722 324.786 29.0442 324.786ZM29.0442 323.22C29.5842 323.22 30.0642 323.094 30.4842 322.842C30.9042 322.59 31.2342 322.248 31.4742 321.816C31.7142 321.372 31.8342 320.868 31.8342 320.304C31.8342 319.752 31.7082 319.26 31.4562 318.828C31.2162 318.396 30.8862 318.06 30.4662 317.82C30.0582 317.568 29.5842 317.442 29.0442 317.442C28.5042 317.442 28.0242 317.568 27.6042 317.82C27.1842 318.06 26.8542 318.396 26.6142 318.828C26.3742 319.26 26.2542 319.752 26.2542 320.304C26.2542 320.868 26.3742 321.372 26.6142 321.816C26.8542 322.248 27.1842 322.59 27.6042 322.842C28.0242 323.094 28.5042 323.22 29.0442 323.22ZM35.3335 324.606V316.056H36.9535V324.606H35.3335ZM36.9535 319.728L36.3415 319.458C36.3415 318.366 36.5935 317.496 37.0975 316.848C37.6015 316.2 38.3275 315.876 39.2755 315.876C39.7075 315.876 40.0975 315.954 40.4455 316.11C40.7935 316.254 41.1175 316.5 41.4175 316.848L40.3555 317.946C40.1755 317.754 39.9775 317.616 39.7615 317.532C39.5455 317.448 39.2935 317.406 39.0055 317.406C38.4055 317.406 37.9135 317.598 37.5295 317.982C37.1455 318.366 36.9535 318.948 36.9535 319.728ZM45.8949 324.786C45.1029 324.786 44.3949 324.594 43.7709 324.21C43.1469 323.814 42.6489 323.28 42.2769 322.608C41.9169 321.936 41.7369 321.18 41.7369 320.34C41.7369 319.5 41.9169 318.744 42.2769 318.072C42.6489 317.4 43.1469 316.866 43.7709 316.47C44.3949 316.074 45.1029 315.876 45.8949 315.876C46.5309 315.876 47.1069 316.014 47.6229 316.29C48.1389 316.554 48.5529 316.926 48.8649 317.406C49.1889 317.874 49.3689 318.42 49.4049 319.044V321.618C49.3689 322.23 49.1949 322.776 48.8829 323.256C48.5709 323.736 48.1569 324.114 47.6409 324.39C47.1249 324.654 46.5429 324.786 45.8949 324.786ZM46.1649 323.256C46.7049 323.256 47.1729 323.13 47.5689 322.878C47.9769 322.626 48.2949 322.284 48.5229 321.852C48.7509 321.408 48.8649 320.904 48.8649 320.34C48.8649 319.752 48.7449 319.242 48.5049 318.81C48.2769 318.378 47.9589 318.036 47.5509 317.784C47.1549 317.532 46.6869 317.406 46.1469 317.406C45.6069 317.406 45.1329 317.532 44.7249 317.784C44.3169 318.036 43.9929 318.384 43.7529 318.828C43.5249 319.26 43.4109 319.758 43.4109 320.322C43.4109 320.898 43.5249 321.408 43.7529 321.852C43.9929 322.284 44.3169 322.626 44.7249 322.878C45.1449 323.13 45.6249 323.256 46.1649 323.256ZM50.3949 324.606H48.7569V322.302L49.0629 320.214L48.7569 318.144V311.754H50.3949V324.606ZM56.7134 324.786C55.8614 324.786 55.0934 324.594 54.4094 324.21C53.7254 323.814 53.1854 323.28 52.7894 322.608C52.3934 321.936 52.1954 321.174 52.1954 320.322C52.1954 319.482 52.3874 318.726 52.7714 318.054C53.1674 317.382 53.6954 316.854 54.3554 316.47C55.0274 316.074 55.7774 315.876 56.6054 315.876C57.3974 315.876 58.0934 316.056 58.6934 316.416C59.3054 316.776 59.7794 317.274 60.1154 317.91C60.4634 318.546 60.6374 319.266 60.6374 320.07C60.6374 320.19 60.6314 320.322 60.6194 320.466C60.6074 320.598 60.5834 320.754 60.5474 320.934H53.3294V319.584H59.6834L59.0894 320.106C59.0894 319.53 58.9874 319.044 58.7834 318.648C58.5794 318.24 58.2914 317.928 57.9194 317.712C57.5474 317.484 57.0974 317.37 56.5694 317.37C56.0174 317.37 55.5314 317.49 55.1114 317.73C54.6914 317.97 54.3674 318.306 54.1394 318.738C53.9114 319.17 53.7974 319.68 53.7974 320.268C53.7974 320.868 53.9174 321.396 54.1574 321.852C54.3974 322.296 54.7394 322.644 55.1834 322.896C55.6274 323.136 56.1374 323.256 56.7134 323.256C57.1934 323.256 57.6314 323.172 58.0274 323.004C58.4354 322.836 58.7834 322.584 59.0714 322.248L60.1154 323.31C59.7074 323.79 59.2034 324.156 58.6034 324.408C58.0154 324.66 57.3854 324.786 56.7134 324.786ZM62.4038 324.606V316.056H64.0238V324.606H62.4038ZM64.0238 319.728L63.4118 319.458C63.4118 318.366 63.6638 317.496 64.1678 316.848C64.6718 316.2 65.3978 315.876 66.3458 315.876C66.7778 315.876 67.1678 315.954 67.5158 316.11C67.8638 316.254 68.1878 316.5 68.4878 316.848L67.4258 317.946C67.2458 317.754 67.0478 317.616 66.8318 317.532C66.6158 317.448 66.3638 317.406 66.0758 317.406C65.4758 317.406 64.9838 317.598 64.5998 317.982C64.2158 318.366 64.0238 318.948 64.0238 319.728ZM75.003 324.606V312.474H76.623V324.606H75.003ZM72.897 317.532V316.056H78.729V317.532H72.897ZM83.9583 324.786C83.1183 324.786 82.3623 324.588 81.6903 324.192C81.0183 323.796 80.4843 323.262 80.0883 322.59C79.6923 321.906 79.4943 321.144 79.4943 320.304C79.4943 319.476 79.6923 318.732 80.0883 318.072C80.4843 317.4 81.0183 316.866 81.6903 316.47C82.3623 316.074 83.1183 315.876 83.9583 315.876C84.7863 315.876 85.5363 316.074 86.2083 316.47C86.8923 316.854 87.4323 317.382 87.8283 318.054C88.2243 318.726 88.4223 319.476 88.4223 320.304C88.4223 321.144 88.2243 321.906 87.8283 322.59C87.4323 323.262 86.8923 323.796 86.2083 324.192C85.5363 324.588 84.7863 324.786 83.9583 324.786ZM83.9583 323.22C84.4983 323.22 84.9783 323.094 85.3983 322.842C85.8183 322.59 86.1483 322.248 86.3883 321.816C86.6283 321.372 86.7483 320.868 86.7483 320.304C86.7483 319.752 86.6223 319.26 86.3703 318.828C86.1303 318.396 85.8003 318.06 85.3803 317.82C84.9723 317.568 84.4983 317.442 83.9583 317.442C83.4183 317.442 82.9383 317.568 82.5183 317.82C82.0983 318.06 81.7683 318.396 81.5283 318.828C81.2883 319.26 81.1683 319.752 81.1683 320.304C81.1683 320.868 81.2883 321.372 81.5283 321.816C81.7683 322.248 82.0983 322.59 82.5183 322.842C82.9383 323.094 83.4183 323.22 83.9583 323.22ZM97.6097 324.786C96.8177 324.786 96.1097 324.594 95.4857 324.21C94.8617 323.814 94.3637 323.28 93.9917 322.608C93.6317 321.936 93.4517 321.18 93.4517 320.34C93.4517 319.5 93.6317 318.744 93.9917 318.072C94.3637 317.4 94.8617 316.866 95.4857 316.47C96.1097 316.074 96.8177 315.876 97.6097 315.876C98.2457 315.876 98.8217 316.014 99.3377 316.29C99.8537 316.554 100.268 316.926 100.58 317.406C100.904 317.874 101.084 318.42 101.12 319.044V321.618C101.084 322.23 100.91 322.776 100.598 323.256C100.286 323.736 99.8717 324.114 99.3557 324.39C98.8397 324.654 98.2577 324.786 97.6097 324.786ZM97.8797 323.256C98.4197 323.256 98.8877 323.13 99.2837 322.878C99.6917 322.626 100.01 322.284 100.238 321.852C100.466 321.408 100.58 320.904 100.58 320.34C100.58 319.752 100.46 319.242 100.22 318.81C99.9917 318.378 99.6737 318.036 99.2657 317.784C98.8697 317.532 98.4017 317.406 97.8617 317.406C97.3217 317.406 96.8477 317.532 96.4397 317.784C96.0317 318.036 95.7077 318.384 95.4677 318.828C95.2397 319.26 95.1257 319.758 95.1257 320.322C95.1257 320.898 95.2397 321.408 95.4677 321.852C95.7077 322.284 96.0317 322.626 96.4397 322.878C96.8597 323.13 97.3397 323.256 97.8797 323.256ZM102.11 324.606H100.472V322.302L100.778 320.214L100.472 318.144V311.754H102.11V324.606ZM108.428 324.786C107.576 324.786 106.808 324.594 106.124 324.21C105.44 323.814 104.9 323.28 104.504 322.608C104.108 321.936 103.91 321.174 103.91 320.322C103.91 319.482 104.102 318.726 104.486 318.054C104.882 317.382 105.41 316.854 106.07 316.47C106.742 316.074 107.492 315.876 108.32 315.876C109.112 315.876 109.808 316.056 110.408 316.416C111.02 316.776 111.494 317.274 111.83 317.91C112.178 318.546 112.352 319.266 112.352 320.07C112.352 320.19 112.346 320.322 112.334 320.466C112.322 320.598 112.298 320.754 112.262 320.934H105.044V319.584H111.398L110.804 320.106C110.804 319.53 110.702 319.044 110.498 318.648C110.294 318.24 110.006 317.928 109.634 317.712C109.262 317.484 108.812 317.37 108.284 317.37C107.732 317.37 107.246 317.49 106.826 317.73C106.406 317.97 106.082 318.306 105.854 318.738C105.626 319.17 105.512 319.68 105.512 320.268C105.512 320.868 105.632 321.396 105.872 321.852C106.112 322.296 106.454 322.644 106.898 322.896C107.342 323.136 107.852 323.256 108.428 323.256C108.908 323.256 109.346 323.172 109.742 323.004C110.15 322.836 110.498 322.584 110.786 322.248L111.83 323.31C111.422 323.79 110.918 324.156 110.318 324.408C109.73 324.66 109.1 324.786 108.428 324.786ZM114.119 324.606V311.754H115.739V324.606H114.119ZM118.127 324.606V316.056H119.747V324.606H118.127ZM118.937 314.346C118.637 314.346 118.391 314.25 118.199 314.058C118.007 313.854 117.911 313.602 117.911 313.302C117.911 313.014 118.007 312.774 118.199 312.582C118.391 312.378 118.637 312.276 118.937 312.276C119.237 312.276 119.483 312.378 119.675 312.582C119.867 312.774 119.963 313.014 119.963 313.302C119.963 313.602 119.867 313.854 119.675 314.058C119.483 314.25 119.237 314.346 118.937 314.346ZM125.068 324.606L121.144 316.056H122.944L126.094 323.274H125.05L128.218 316.056H129.946L126.022 324.606H125.068ZM134.954 324.786C134.102 324.786 133.334 324.594 132.65 324.21C131.966 323.814 131.426 323.28 131.03 322.608C130.634 321.936 130.436 321.174 130.436 320.322C130.436 319.482 130.628 318.726 131.012 318.054C131.408 317.382 131.936 316.854 132.596 316.47C133.268 316.074 134.018 315.876 134.846 315.876C135.638 315.876 136.334 316.056 136.934 316.416C137.546 316.776 138.02 317.274 138.356 317.91C138.704 318.546 138.878 319.266 138.878 320.07C138.878 320.19 138.872 320.322 138.86 320.466C138.848 320.598 138.824 320.754 138.788 320.934H131.57V319.584H137.924L137.33 320.106C137.33 319.53 137.228 319.044 137.024 318.648C136.82 318.24 136.532 317.928 136.16 317.712C135.788 317.484 135.338 317.37 134.81 317.37C134.258 317.37 133.772 317.49 133.352 317.73C132.932 317.97 132.608 318.306 132.38 318.738C132.152 319.17 132.038 319.68 132.038 320.268C132.038 320.868 132.158 321.396 132.398 321.852C132.638 322.296 132.98 322.644 133.424 322.896C133.868 323.136 134.378 323.256 134.954 323.256C135.434 323.256 135.872 323.172 136.268 323.004C136.676 322.836 137.024 322.584 137.312 322.248L138.356 323.31C137.948 323.79 137.444 324.156 136.844 324.408C136.256 324.66 135.626 324.786 134.954 324.786ZM140.644 324.606V316.056H142.264V324.606H140.644ZM142.264 319.728L141.652 319.458C141.652 318.366 141.904 317.496 142.408 316.848C142.912 316.2 143.638 315.876 144.586 315.876C145.018 315.876 145.408 315.954 145.756 316.11C146.104 316.254 146.428 316.5 146.728 316.848L145.666 317.946C145.486 317.754 145.288 317.616 145.072 317.532C144.856 317.448 144.604 317.406 144.316 317.406C143.716 317.406 143.224 317.598 142.84 317.982C142.456 318.366 142.264 318.948 142.264 319.728ZM155.565 324.786C154.785 324.786 154.077 324.594 153.441 324.21C152.805 323.814 152.301 323.28 151.929 322.608C151.569 321.936 151.389 321.18 151.389 320.34C151.389 319.5 151.569 318.744 151.929 318.072C152.301 317.4 152.799 316.866 153.423 316.47C154.059 316.074 154.773 315.876 155.565 315.876C156.213 315.876 156.789 316.014 157.293 316.29C157.809 316.554 158.223 316.926 158.535 317.406C158.847 317.874 159.021 318.42 159.057 319.044V321.618C159.021 322.23 158.847 322.776 158.535 323.256C158.235 323.736 157.827 324.114 157.311 324.39C156.807 324.654 156.225 324.786 155.565 324.786ZM155.835 323.256C156.639 323.256 157.287 322.986 157.779 322.446C158.271 321.894 158.517 321.192 158.517 320.34C158.517 319.752 158.403 319.242 158.175 318.81C157.959 318.366 157.647 318.024 157.239 317.784C156.831 317.532 156.357 317.406 155.817 317.406C155.277 317.406 154.797 317.532 154.377 317.784C153.969 318.036 153.645 318.384 153.405 318.828C153.177 319.26 153.063 319.758 153.063 320.322C153.063 320.898 153.177 321.408 153.405 321.852C153.645 322.284 153.975 322.626 154.395 322.878C154.815 323.13 155.295 323.256 155.835 323.256ZM158.409 324.606V322.302L158.715 320.214L158.409 318.144V316.056H160.047V324.606H158.409ZM166.312 324.786C165.472 324.786 164.71 324.588 164.026 324.192C163.354 323.796 162.82 323.262 162.424 322.59C162.04 321.906 161.848 321.15 161.848 320.322C161.848 319.482 162.04 318.726 162.424 318.054C162.82 317.382 163.354 316.854 164.026 316.47C164.71 316.074 165.472 315.876 166.312 315.876C166.972 315.876 167.584 316.002 168.148 316.254C168.712 316.494 169.198 316.848 169.606 317.316L168.526 318.396C168.262 318.084 167.938 317.85 167.554 317.694C167.182 317.526 166.768 317.442 166.312 317.442C165.772 317.442 165.292 317.568 164.872 317.82C164.452 318.06 164.122 318.396 163.882 318.828C163.642 319.26 163.522 319.758 163.522 320.322C163.522 320.886 163.642 321.384 163.882 321.816C164.122 322.248 164.452 322.59 164.872 322.842C165.292 323.094 165.772 323.22 166.312 323.22C166.768 323.22 167.182 323.142 167.554 322.986C167.938 322.818 168.268 322.578 168.544 322.266L169.606 323.346C169.21 323.802 168.724 324.156 168.148 324.408C167.584 324.66 166.972 324.786 166.312 324.786ZM172.421 324.606V312.474H174.041V324.606H172.421ZM170.315 317.532V316.056H176.147V317.532H170.315ZM177.752 324.606V316.056H179.372V324.606H177.752ZM178.562 314.346C178.262 314.346 178.016 314.25 177.824 314.058C177.632 313.854 177.536 313.602 177.536 313.302C177.536 313.014 177.632 312.774 177.824 312.582C178.016 312.378 178.262 312.276 178.562 312.276C178.862 312.276 179.108 312.378 179.3 312.582C179.492 312.774 179.588 313.014 179.588 313.302C179.588 313.602 179.492 313.854 179.3 314.058C179.108 314.25 178.862 314.346 178.562 314.346ZM185.665 324.786C184.825 324.786 184.069 324.588 183.397 324.192C182.725 323.796 182.191 323.262 181.795 322.59C181.399 321.906 181.201 321.144 181.201 320.304C181.201 319.476 181.399 318.732 181.795 318.072C182.191 317.4 182.725 316.866 183.397 316.47C184.069 316.074 184.825 315.876 185.665 315.876C186.493 315.876 187.243 316.074 187.915 316.47C188.599 316.854 189.139 317.382 189.535 318.054C189.931 318.726 190.129 319.476 190.129 320.304C190.129 321.144 189.931 321.906 189.535 322.59C189.139 323.262 188.599 323.796 187.915 324.192C187.243 324.588 186.493 324.786 185.665 324.786ZM185.665 323.22C186.205 323.22 186.685 323.094 187.105 322.842C187.525 322.59 187.855 322.248 188.095 321.816C188.335 321.372 188.455 320.868 188.455 320.304C188.455 319.752 188.329 319.26 188.077 318.828C187.837 318.396 187.507 318.06 187.087 317.82C186.679 317.568 186.205 317.442 185.665 317.442C185.125 317.442 184.645 317.568 184.225 317.82C183.805 318.06 183.475 318.396 183.235 318.828C182.995 319.26 182.875 319.752 182.875 320.304C182.875 320.868 182.995 321.372 183.235 321.816C183.475 322.248 183.805 322.59 184.225 322.842C184.645 323.094 185.125 323.22 185.665 323.22ZM198.003 324.606V319.62C198.003 318.972 197.799 318.438 197.391 318.018C196.983 317.598 196.455 317.388 195.807 317.388C195.375 317.388 194.991 317.484 194.655 317.676C194.319 317.868 194.055 318.132 193.863 318.468C193.671 318.804 193.575 319.188 193.575 319.62L192.909 319.242C192.909 318.594 193.053 318.018 193.341 317.514C193.629 317.01 194.031 316.614 194.547 316.326C195.063 316.026 195.645 315.876 196.293 315.876C196.941 315.876 197.511 316.038 198.003 316.362C198.507 316.686 198.903 317.112 199.191 317.64C199.479 318.156 199.623 318.708 199.623 319.296V324.606H198.003ZM191.955 324.606V316.056H193.575V324.606H191.955ZM205.452 324.786C204.672 324.786 203.964 324.594 203.328 324.21C202.692 323.814 202.188 323.28 201.816 322.608C201.456 321.936 201.276 321.18 201.276 320.34C201.276 319.5 201.456 318.744 201.816 318.072C202.188 317.4 202.686 316.866 203.31 316.47C203.946 316.074 204.66 315.876 205.452 315.876C206.1 315.876 206.676 316.014 207.18 316.29C207.696 316.554 208.11 316.926 208.422 317.406C208.734 317.874 208.908 318.42 208.944 319.044V321.618C208.908 322.23 208.734 322.776 208.422 323.256C208.122 323.736 207.714 324.114 207.198 324.39C206.694 324.654 206.112 324.786 205.452 324.786ZM205.722 323.256C206.526 323.256 207.174 322.986 207.666 322.446C208.158 321.894 208.404 321.192 208.404 320.34C208.404 319.752 208.29 319.242 208.062 318.81C207.846 318.366 207.534 318.024 207.126 317.784C206.718 317.532 206.244 317.406 205.704 317.406C205.164 317.406 204.684 317.532 204.264 317.784C203.856 318.036 203.532 318.384 203.292 318.828C203.064 319.26 202.95 319.758 202.95 320.322C202.95 320.898 203.064 321.408 203.292 321.852C203.532 322.284 203.862 322.626 204.282 322.878C204.702 323.13 205.182 323.256 205.722 323.256ZM208.296 324.606V322.302L208.602 320.214L208.296 318.144V316.056H209.934V324.606H208.296ZM216.792 324.786C216.144 324.786 215.556 324.654 215.028 324.39C214.512 324.114 214.098 323.736 213.786 323.256C213.474 322.776 213.3 322.23 213.264 321.618V319.044C213.3 318.42 213.474 317.874 213.786 317.406C214.11 316.926 214.53 316.554 215.046 316.29C215.574 316.014 216.156 315.876 216.792 315.876C217.572 315.876 218.274 316.074 218.898 316.47C219.534 316.866 220.032 317.4 220.392 318.072C220.752 318.744 220.932 319.5 220.932 320.34C220.932 321.18 220.752 321.936 220.392 322.608C220.032 323.28 219.534 323.814 218.898 324.21C218.274 324.594 217.572 324.786 216.792 324.786ZM216.522 323.256C217.062 323.256 217.536 323.13 217.944 322.878C218.352 322.626 218.676 322.284 218.916 321.852C219.156 321.408 219.276 320.898 219.276 320.322C219.276 319.758 219.156 319.254 218.916 318.81C218.676 318.366 218.352 318.024 217.944 317.784C217.536 317.532 217.068 317.406 216.54 317.406C216 317.406 215.526 317.532 215.118 317.784C214.71 318.024 214.392 318.366 214.164 318.81C213.936 319.254 213.822 319.764 213.822 320.34C213.822 320.904 213.93 321.408 214.146 321.852C214.374 322.284 214.692 322.626 215.1 322.878C215.52 323.13 215.994 323.256 216.522 323.256ZM212.292 324.606V311.754H213.912V318.144L213.606 320.214L213.912 322.302V324.606H212.292ZM222.769 324.606V311.754H224.389V324.606H222.769ZM230.719 324.786C229.867 324.786 229.099 324.594 228.415 324.21C227.731 323.814 227.191 323.28 226.795 322.608C226.399 321.936 226.201 321.174 226.201 320.322C226.201 319.482 226.393 318.726 226.777 318.054C227.173 317.382 227.701 316.854 228.361 316.47C229.033 316.074 229.783 315.876 230.611 315.876C231.403 315.876 232.099 316.056 232.699 316.416C233.311 316.776 233.785 317.274 234.121 317.91C234.469 318.546 234.643 319.266 234.643 320.07C234.643 320.19 234.637 320.322 234.625 320.466C234.613 320.598 234.589 320.754 234.553 320.934H227.335V319.584H233.689L233.095 320.106C233.095 319.53 232.993 319.044 232.789 318.648C232.585 318.24 232.297 317.928 231.925 317.712C231.553 317.484 231.103 317.37 230.575 317.37C230.023 317.37 229.537 317.49 229.117 317.73C228.697 317.97 228.373 318.306 228.145 318.738C227.917 319.17 227.803 319.68 227.803 320.268C227.803 320.868 227.923 321.396 228.163 321.852C228.403 322.296 228.745 322.644 229.189 322.896C229.633 323.136 230.143 323.256 230.719 323.256C231.199 323.256 231.637 323.172 232.033 323.004C232.441 322.836 232.789 322.584 233.077 322.248L234.121 323.31C233.713 323.79 233.209 324.156 232.609 324.408C232.021 324.66 231.391 324.786 230.719 324.786ZM240.172 324.606V316.056H241.792V324.606H240.172ZM240.982 314.346C240.682 314.346 240.436 314.25 240.244 314.058C240.052 313.854 239.956 313.602 239.956 313.302C239.956 313.014 240.052 312.774 240.244 312.582C240.436 312.378 240.682 312.276 240.982 312.276C241.282 312.276 241.528 312.378 241.72 312.582C241.912 312.774 242.008 313.014 242.008 313.302C242.008 313.602 241.912 313.854 241.72 314.058C241.528 314.25 241.282 314.346 240.982 314.346ZM250.227 324.606V319.62C250.227 318.972 250.023 318.438 249.615 318.018C249.207 317.598 248.679 317.388 248.031 317.388C247.599 317.388 247.215 317.484 246.879 317.676C246.543 317.868 246.279 318.132 246.087 318.468C245.895 318.804 245.799 319.188 245.799 319.62L245.133 319.242C245.133 318.594 245.277 318.018 245.565 317.514C245.853 317.01 246.255 316.614 246.771 316.326C247.287 316.026 247.869 315.876 248.517 315.876C249.165 315.876 249.735 316.038 250.227 316.362C250.731 316.686 251.127 317.112 251.415 317.64C251.703 318.156 251.847 318.708 251.847 319.296V324.606H250.227ZM244.179 324.606V316.056H245.799V324.606H244.179ZM256.759 324.786C256.279 324.786 255.823 324.726 255.391 324.606C254.971 324.474 254.581 324.294 254.221 324.066C253.861 323.826 253.549 323.544 253.285 323.22L254.329 322.176C254.641 322.56 255.001 322.848 255.409 323.04C255.817 323.22 256.273 323.31 256.777 323.31C257.281 323.31 257.671 323.226 257.947 323.058C258.223 322.878 258.361 322.632 258.361 322.32C258.361 322.008 258.247 321.768 258.019 321.6C257.803 321.42 257.521 321.276 257.173 321.168C256.825 321.048 256.453 320.934 256.057 320.826C255.673 320.706 255.307 320.556 254.959 320.376C254.611 320.196 254.323 319.95 254.095 319.638C253.879 319.326 253.771 318.912 253.771 318.396C253.771 317.88 253.897 317.436 254.149 317.064C254.401 316.68 254.749 316.386 255.193 316.182C255.649 315.978 256.195 315.876 256.831 315.876C257.503 315.876 258.097 315.996 258.613 316.236C259.141 316.464 259.573 316.812 259.909 317.28L258.865 318.324C258.625 318.012 258.325 317.772 257.965 317.604C257.617 317.436 257.221 317.352 256.777 317.352C256.309 317.352 255.949 317.436 255.697 317.604C255.457 317.76 255.337 317.982 255.337 318.27C255.337 318.558 255.445 318.78 255.661 318.936C255.877 319.092 256.159 319.224 256.507 319.332C256.867 319.44 257.239 319.554 257.623 319.674C258.007 319.782 258.373 319.932 258.721 320.124C259.069 320.316 259.351 320.574 259.567 320.898C259.795 321.222 259.909 321.648 259.909 322.176C259.909 322.98 259.621 323.616 259.045 324.084C258.481 324.552 257.719 324.786 256.759 324.786ZM261.74 324.606V316.056H263.36V324.606H261.74ZM262.55 314.346C262.25 314.346 262.004 314.25 261.812 314.058C261.62 313.854 261.524 313.602 261.524 313.302C261.524 313.014 261.62 312.774 261.812 312.582C262.004 312.378 262.25 312.276 262.55 312.276C262.85 312.276 263.096 312.378 263.288 312.582C263.48 312.774 263.576 313.014 263.576 313.302C263.576 313.602 263.48 313.854 263.288 314.058C263.096 314.25 262.85 314.346 262.55 314.346ZM269.294 328.368C268.418 328.368 267.638 328.206 266.954 327.882C266.282 327.558 265.742 327.102 265.334 326.514L266.378 325.452C266.726 325.896 267.14 326.232 267.62 326.46C268.1 326.7 268.67 326.82 269.33 326.82C270.206 326.82 270.896 326.586 271.4 326.118C271.916 325.662 272.174 325.044 272.174 324.264V322.14L272.462 320.214L272.174 318.306V316.056H273.794V324.264C273.794 325.08 273.602 325.794 273.218 326.406C272.846 327.018 272.318 327.498 271.634 327.846C270.962 328.194 270.182 328.368 269.294 328.368ZM269.294 324.462C268.514 324.462 267.812 324.276 267.188 323.904C266.576 323.532 266.09 323.022 265.73 322.374C265.37 321.714 265.19 320.976 265.19 320.16C265.19 319.344 265.37 318.618 265.73 317.982C266.09 317.334 266.576 316.824 267.188 316.452C267.812 316.068 268.514 315.876 269.294 315.876C269.966 315.876 270.56 316.008 271.076 316.272C271.592 316.536 272 316.908 272.3 317.388C272.612 317.856 272.78 318.408 272.804 319.044V321.312C272.768 321.936 272.594 322.488 272.282 322.968C271.982 323.436 271.574 323.802 271.058 324.066C270.542 324.33 269.954 324.462 269.294 324.462ZM269.618 322.932C270.146 322.932 270.608 322.818 271.004 322.59C271.412 322.362 271.724 322.044 271.94 321.636C272.156 321.216 272.264 320.73 272.264 320.178C272.264 319.626 272.15 319.146 271.922 318.738C271.706 318.318 271.4 317.994 271.004 317.766C270.608 317.526 270.14 317.406 269.6 317.406C269.06 317.406 268.586 317.526 268.178 317.766C267.77 317.994 267.446 318.318 267.206 318.738C266.978 319.146 266.864 319.62 266.864 320.16C266.864 320.7 266.978 321.18 267.206 321.6C267.446 322.02 267.77 322.35 268.178 322.59C268.598 322.818 269.078 322.932 269.618 322.932ZM282.219 324.606V319.62C282.219 318.972 282.015 318.438 281.607 318.018C281.199 317.598 280.671 317.388 280.023 317.388C279.591 317.388 279.207 317.484 278.871 317.676C278.535 317.868 278.271 318.132 278.079 318.468C277.887 318.804 277.791 319.188 277.791 319.62L277.125 319.242C277.125 318.594 277.269 318.018 277.557 317.514C277.845 317.01 278.247 316.614 278.763 316.326C279.279 316.026 279.861 315.876 280.509 315.876C281.157 315.876 281.727 316.02 282.219 316.308C282.723 316.596 283.119 316.998 283.407 317.514C283.695 318.03 283.839 318.624 283.839 319.296V324.606H282.219ZM276.171 324.606V311.754H277.791V324.606H276.171ZM287.241 324.606V312.474H288.861V324.606H287.241ZM285.135 317.532V316.056H290.967V317.532H285.135ZM295.096 324.786C294.616 324.786 294.16 324.726 293.728 324.606C293.308 324.474 292.918 324.294 292.558 324.066C292.198 323.826 291.886 323.544 291.622 323.22L292.666 322.176C292.978 322.56 293.338 322.848 293.746 323.04C294.154 323.22 294.61 323.31 295.114 323.31C295.618 323.31 296.008 323.226 296.284 323.058C296.56 322.878 296.698 322.632 296.698 322.32C296.698 322.008 296.584 321.768 296.356 321.6C296.14 321.42 295.858 321.276 295.51 321.168C295.162 321.048 294.79 320.934 294.394 320.826C294.01 320.706 293.644 320.556 293.296 320.376C292.948 320.196 292.66 319.95 292.432 319.638C292.216 319.326 292.108 318.912 292.108 318.396C292.108 317.88 292.234 317.436 292.486 317.064C292.738 316.68 293.086 316.386 293.53 316.182C293.986 315.978 294.532 315.876 295.168 315.876C295.84 315.876 296.434 315.996 296.95 316.236C297.478 316.464 297.91 316.812 298.246 317.28L297.202 318.324C296.962 318.012 296.662 317.772 296.302 317.604C295.954 317.436 295.558 317.352 295.114 317.352C294.646 317.352 294.286 317.436 294.034 317.604C293.794 317.76 293.674 317.982 293.674 318.27C293.674 318.558 293.782 318.78 293.998 318.936C294.214 319.092 294.496 319.224 294.844 319.332C295.204 319.44 295.576 319.554 295.96 319.674C296.344 319.782 296.71 319.932 297.058 320.124C297.406 320.316 297.688 320.574 297.904 320.898C298.132 321.222 298.246 321.648 298.246 322.176C298.246 322.98 297.958 323.616 297.382 324.084C296.818 324.552 296.056 324.786 295.096 324.786ZM305.028 324.606V314.778C305.028 314.142 305.166 313.59 305.442 313.122C305.718 312.642 306.096 312.264 306.576 311.988C307.068 311.712 307.638 311.574 308.286 311.574C308.778 311.574 309.204 311.658 309.564 311.826C309.924 311.994 310.254 312.24 310.554 312.564L309.492 313.608C309.336 313.44 309.162 313.314 308.97 313.23C308.778 313.134 308.544 313.086 308.268 313.086C307.752 313.086 307.35 313.236 307.062 313.536C306.786 313.836 306.648 314.25 306.648 314.778V324.606H305.028ZM302.922 317.532V316.056H309.366V317.532H302.922ZM314.407 324.786C313.567 324.786 312.811 324.588 312.139 324.192C311.467 323.796 310.933 323.262 310.537 322.59C310.141 321.906 309.943 321.144 309.943 320.304C309.943 319.476 310.141 318.732 310.537 318.072C310.933 317.4 311.467 316.866 312.139 316.47C312.811 316.074 313.567 315.876 314.407 315.876C315.235 315.876 315.985 316.074 316.657 316.47C317.341 316.854 317.881 317.382 318.277 318.054C318.673 318.726 318.871 319.476 318.871 320.304C318.871 321.144 318.673 321.906 318.277 322.59C317.881 323.262 317.341 323.796 316.657 324.192C315.985 324.588 315.235 324.786 314.407 324.786ZM314.407 323.22C314.947 323.22 315.427 323.094 315.847 322.842C316.267 322.59 316.597 322.248 316.837 321.816C317.077 321.372 317.197 320.868 317.197 320.304C317.197 319.752 317.071 319.26 316.819 318.828C316.579 318.396 316.249 318.06 315.829 317.82C315.421 317.568 314.947 317.442 314.407 317.442C313.867 317.442 313.387 317.568 312.967 317.82C312.547 318.06 312.217 318.396 311.977 318.828C311.737 319.26 311.617 319.752 311.617 320.304C311.617 320.868 311.737 321.372 311.977 321.816C312.217 322.248 312.547 322.59 312.967 322.842C313.387 323.094 313.867 323.22 314.407 323.22ZM320.697 324.606V316.056H322.317V324.606H320.697ZM322.317 319.728L321.705 319.458C321.705 318.366 321.957 317.496 322.461 316.848C322.965 316.2 323.691 315.876 324.639 315.876C325.071 315.876 325.461 315.954 325.809 316.11C326.157 316.254 326.481 316.5 326.781 316.848L325.719 317.946C325.539 317.754 325.341 317.616 325.125 317.532C324.909 317.448 324.657 317.406 324.369 317.406C323.769 317.406 323.277 317.598 322.893 317.982C322.509 318.366 322.317 318.948 322.317 319.728ZM70.8765 347.786C70.2285 347.786 69.6405 347.654 69.1125 347.39C68.5965 347.114 68.1825 346.736 67.8705 346.256C67.5585 345.776 67.3845 345.23 67.3485 344.618V342.044C67.3845 341.42 67.5585 340.874 67.8705 340.406C68.1945 339.926 68.6145 339.554 69.1305 339.29C69.6585 339.014 70.2405 338.876 70.8765 338.876C71.6565 338.876 72.3585 339.074 72.9825 339.47C73.6185 339.866 74.1165 340.4 74.4765 341.072C74.8365 341.744 75.0165 342.5 75.0165 343.34C75.0165 344.18 74.8365 344.936 74.4765 345.608C74.1165 346.28 73.6185 346.814 72.9825 347.21C72.3585 347.594 71.6565 347.786 70.8765 347.786ZM70.6065 346.256C71.1465 346.256 71.6205 346.13 72.0285 345.878C72.4365 345.626 72.7605 345.284 73.0005 344.852C73.2405 344.408 73.3605 343.898 73.3605 343.322C73.3605 342.758 73.2405 342.254 73.0005 341.81C72.7605 341.366 72.4365 341.024 72.0285 340.784C71.6205 340.532 71.1525 340.406 70.6245 340.406C70.0845 340.406 69.6105 340.532 69.2025 340.784C68.7945 341.024 68.4765 341.366 68.2485 341.81C68.0205 342.254 67.9065 342.764 67.9065 343.34C67.9065 343.904 68.0145 344.408 68.2305 344.852C68.4585 345.284 68.7765 345.626 69.1845 345.878C69.6045 346.13 70.0785 346.256 70.6065 346.256ZM66.3765 351.188V339.056H67.9965V341.306L67.6905 343.376L67.9965 345.464V351.188H66.3765ZM82.901 347.606V342.62C82.901 341.972 82.697 341.438 82.289 341.018C81.881 340.598 81.353 340.388 80.705 340.388C80.273 340.388 79.889 340.484 79.553 340.676C79.217 340.868 78.953 341.132 78.761 341.468C78.569 341.804 78.473 342.188 78.473 342.62L77.807 342.242C77.807 341.594 77.951 341.018 78.239 340.514C78.527 340.01 78.929 339.614 79.445 339.326C79.961 339.026 80.543 338.876 81.191 338.876C81.839 338.876 82.409 339.02 82.901 339.308C83.405 339.596 83.801 339.998 84.089 340.514C84.377 341.03 84.521 341.624 84.521 342.296V347.606H82.901ZM76.853 347.606V334.754H78.473V347.606H76.853ZM90.3504 347.786C89.5704 347.786 88.8624 347.594 88.2264 347.21C87.5904 346.814 87.0864 346.28 86.7144 345.608C86.3544 344.936 86.1744 344.18 86.1744 343.34C86.1744 342.5 86.3544 341.744 86.7144 341.072C87.0864 340.4 87.5844 339.866 88.2084 339.47C88.8444 339.074 89.5584 338.876 90.3504 338.876C90.9984 338.876 91.5744 339.014 92.0784 339.29C92.5944 339.554 93.0084 339.926 93.3204 340.406C93.6324 340.874 93.8064 341.42 93.8424 342.044V344.618C93.8064 345.23 93.6324 345.776 93.3204 346.256C93.0204 346.736 92.6124 347.114 92.0964 347.39C91.5924 347.654 91.0104 347.786 90.3504 347.786ZM90.6204 346.256C91.4244 346.256 92.0724 345.986 92.5644 345.446C93.0564 344.894 93.3024 344.192 93.3024 343.34C93.3024 342.752 93.1884 342.242 92.9604 341.81C92.7444 341.366 92.4324 341.024 92.0244 340.784C91.6164 340.532 91.1424 340.406 90.6024 340.406C90.0624 340.406 89.5824 340.532 89.1624 340.784C88.7544 341.036 88.4304 341.384 88.1904 341.828C87.9624 342.26 87.8484 342.758 87.8484 343.322C87.8484 343.898 87.9624 344.408 88.1904 344.852C88.4304 345.284 88.7604 345.626 89.1804 345.878C89.6004 346.13 90.0804 346.256 90.6204 346.256ZM93.1944 347.606V345.302L93.5004 343.214L93.1944 341.144V339.056H94.8324V347.606H93.1944ZM97.1909 347.606V339.056H98.8109V347.606H97.1909ZM98.8109 342.728L98.1989 342.458C98.1989 341.366 98.4509 340.496 98.9549 339.848C99.4589 339.2 100.185 338.876 101.133 338.876C101.565 338.876 101.955 338.954 102.303 339.11C102.651 339.254 102.975 339.5 103.275 339.848L102.213 340.946C102.033 340.754 101.835 340.616 101.619 340.532C101.403 340.448 101.151 340.406 100.863 340.406C100.263 340.406 99.7709 340.598 99.3869 340.982C99.0029 341.366 98.8109 341.948 98.8109 342.728ZM104.451 347.606V339.056H106.071V347.606H104.451ZM110.229 347.606V342.44C110.229 341.804 110.031 341.306 109.635 340.946C109.251 340.574 108.765 340.388 108.177 340.388C107.781 340.388 107.427 340.472 107.115 340.64C106.803 340.808 106.551 341.042 106.359 341.342C106.167 341.642 106.071 342.002 106.071 342.422L105.405 342.098C105.405 341.45 105.543 340.886 105.819 340.406C106.107 339.926 106.497 339.554 106.989 339.29C107.481 339.014 108.033 338.876 108.645 338.876C109.245 338.876 109.785 339.008 110.265 339.272C110.757 339.536 111.141 339.908 111.417 340.388C111.705 340.868 111.849 341.438 111.849 342.098V347.606H110.229ZM116.007 347.606V342.44C116.007 341.804 115.809 341.306 115.413 340.946C115.029 340.574 114.549 340.388 113.973 340.388C113.577 340.388 113.217 340.472 112.893 340.64C112.581 340.808 112.329 341.042 112.137 341.342C111.945 341.642 111.849 342.002 111.849 342.422L110.931 342.098C110.967 341.438 111.141 340.874 111.453 340.406C111.777 339.926 112.191 339.554 112.695 339.29C113.199 339.014 113.751 338.876 114.351 338.876C114.975 338.876 115.533 339.008 116.025 339.272C116.517 339.536 116.907 339.908 117.195 340.388C117.495 340.868 117.645 341.444 117.645 342.116V347.606H116.007ZM123.485 347.786C122.705 347.786 121.997 347.594 121.361 347.21C120.725 346.814 120.221 346.28 119.849 345.608C119.489 344.936 119.309 344.18 119.309 343.34C119.309 342.5 119.489 341.744 119.849 341.072C120.221 340.4 120.719 339.866 121.343 339.47C121.979 339.074 122.693 338.876 123.485 338.876C124.133 338.876 124.709 339.014 125.213 339.29C125.729 339.554 126.143 339.926 126.455 340.406C126.767 340.874 126.941 341.42 126.977 342.044V344.618C126.941 345.23 126.767 345.776 126.455 346.256C126.155 346.736 125.747 347.114 125.231 347.39C124.727 347.654 124.145 347.786 123.485 347.786ZM123.755 346.256C124.559 346.256 125.207 345.986 125.699 345.446C126.191 344.894 126.437 344.192 126.437 343.34C126.437 342.752 126.323 342.242 126.095 341.81C125.879 341.366 125.567 341.024 125.159 340.784C124.751 340.532 124.277 340.406 123.737 340.406C123.197 340.406 122.717 340.532 122.297 340.784C121.889 341.036 121.565 341.384 121.325 341.828C121.097 342.26 120.983 342.758 120.983 343.322C120.983 343.898 121.097 344.408 121.325 344.852C121.565 345.284 121.895 345.626 122.315 345.878C122.735 346.13 123.215 346.256 123.755 346.256ZM126.329 347.606V345.302L126.635 343.214L126.329 341.144V339.056H127.967V347.606H126.329ZM134.232 347.786C133.392 347.786 132.63 347.588 131.946 347.192C131.274 346.796 130.74 346.262 130.344 345.59C129.96 344.906 129.768 344.15 129.768 343.322C129.768 342.482 129.96 341.726 130.344 341.054C130.74 340.382 131.274 339.854 131.946 339.47C132.63 339.074 133.392 338.876 134.232 338.876C134.892 338.876 135.504 339.002 136.068 339.254C136.632 339.494 137.118 339.848 137.526 340.316L136.446 341.396C136.182 341.084 135.858 340.85 135.474 340.694C135.102 340.526 134.688 340.442 134.232 340.442C133.692 340.442 133.212 340.568 132.792 340.82C132.372 341.06 132.042 341.396 131.802 341.828C131.562 342.26 131.442 342.758 131.442 343.322C131.442 343.886 131.562 344.384 131.802 344.816C132.042 345.248 132.372 345.59 132.792 345.842C133.212 346.094 133.692 346.22 134.232 346.22C134.688 346.22 135.102 346.142 135.474 345.986C135.858 345.818 136.188 345.578 136.464 345.266L137.526 346.346C137.13 346.802 136.644 347.156 136.068 347.408C135.504 347.66 134.892 347.786 134.232 347.786ZM142.917 347.786C142.065 347.786 141.297 347.594 140.613 347.21C139.929 346.814 139.389 346.28 138.993 345.608C138.597 344.936 138.399 344.174 138.399 343.322C138.399 342.482 138.591 341.726 138.975 341.054C139.371 340.382 139.899 339.854 140.559 339.47C141.231 339.074 141.981 338.876 142.809 338.876C143.601 338.876 144.297 339.056 144.897 339.416C145.509 339.776 145.983 340.274 146.319 340.91C146.667 341.546 146.841 342.266 146.841 343.07C146.841 343.19 146.835 343.322 146.823 343.466C146.811 343.598 146.787 343.754 146.751 343.934H139.533V342.584H145.887L145.293 343.106C145.293 342.53 145.191 342.044 144.987 341.648C144.783 341.24 144.495 340.928 144.123 340.712C143.751 340.484 143.301 340.37 142.773 340.37C142.221 340.37 141.735 340.49 141.315 340.73C140.895 340.97 140.571 341.306 140.343 341.738C140.115 342.17 140.001 342.68 140.001 343.268C140.001 343.868 140.121 344.396 140.361 344.852C140.601 345.296 140.943 345.644 141.387 345.896C141.831 346.136 142.341 346.256 142.917 346.256C143.397 346.256 143.835 346.172 144.231 346.004C144.639 345.836 144.987 345.584 145.275 345.248L146.319 346.31C145.911 346.79 145.407 347.156 144.807 347.408C144.219 347.66 143.589 347.786 142.917 347.786ZM152.045 347.786C151.349 347.786 150.719 347.63 150.155 347.318C149.603 346.994 149.171 346.55 148.859 345.986C148.547 345.422 148.391 344.768 148.391 344.024V339.056H150.011V343.952C150.011 344.42 150.089 344.828 150.245 345.176C150.413 345.512 150.653 345.77 150.965 345.95C151.277 346.13 151.643 346.22 152.063 346.22C152.699 346.22 153.197 346.022 153.557 345.626C153.917 345.218 154.097 344.66 154.097 343.952V339.056H155.717V344.024C155.717 344.768 155.561 345.422 155.249 345.986C154.937 346.55 154.505 346.994 153.953 347.318C153.413 347.63 152.777 347.786 152.045 347.786ZM159.202 347.606V335.474H160.822V347.606H159.202ZM157.096 340.532V339.056H162.928V340.532H157.096ZM164.533 347.606V339.056H166.153V347.606H164.533ZM165.343 337.346C165.043 337.346 164.797 337.25 164.605 337.058C164.413 336.854 164.317 336.602 164.317 336.302C164.317 336.014 164.413 335.774 164.605 335.582C164.797 335.378 165.043 335.276 165.343 335.276C165.643 335.276 165.889 335.378 166.081 335.582C166.273 335.774 166.369 336.014 166.369 336.302C166.369 336.602 166.273 336.854 166.081 337.058C165.889 337.25 165.643 337.346 165.343 337.346ZM172.447 347.786C171.607 347.786 170.845 347.588 170.161 347.192C169.489 346.796 168.955 346.262 168.559 345.59C168.175 344.906 167.983 344.15 167.983 343.322C167.983 342.482 168.175 341.726 168.559 341.054C168.955 340.382 169.489 339.854 170.161 339.47C170.845 339.074 171.607 338.876 172.447 338.876C173.107 338.876 173.719 339.002 174.283 339.254C174.847 339.494 175.333 339.848 175.741 340.316L174.661 341.396C174.397 341.084 174.073 340.85 173.689 340.694C173.317 340.526 172.903 340.442 172.447 340.442C171.907 340.442 171.427 340.568 171.007 340.82C170.587 341.06 170.257 341.396 170.017 341.828C169.777 342.26 169.657 342.758 169.657 343.322C169.657 343.886 169.777 344.384 170.017 344.816C170.257 345.248 170.587 345.59 171.007 345.842C171.427 346.094 171.907 346.22 172.447 346.22C172.903 346.22 173.317 346.142 173.689 345.986C174.073 345.818 174.403 345.578 174.679 345.266L175.741 346.346C175.345 346.802 174.859 347.156 174.283 347.408C173.719 347.66 173.107 347.786 172.447 347.786ZM180.807 347.786C180.027 347.786 179.319 347.594 178.683 347.21C178.047 346.814 177.543 346.28 177.171 345.608C176.811 344.936 176.631 344.18 176.631 343.34C176.631 342.5 176.811 341.744 177.171 341.072C177.543 340.4 178.041 339.866 178.665 339.47C179.301 339.074 180.015 338.876 180.807 338.876C181.455 338.876 182.031 339.014 182.535 339.29C183.051 339.554 183.465 339.926 183.777 340.406C184.089 340.874 184.263 341.42 184.299 342.044V344.618C184.263 345.23 184.089 345.776 183.777 346.256C183.477 346.736 183.069 347.114 182.553 347.39C182.049 347.654 181.467 347.786 180.807 347.786ZM181.077 346.256C181.881 346.256 182.529 345.986 183.021 345.446C183.513 344.894 183.759 344.192 183.759 343.34C183.759 342.752 183.645 342.242 183.417 341.81C183.201 341.366 182.889 341.024 182.481 340.784C182.073 340.532 181.599 340.406 181.059 340.406C180.519 340.406 180.039 340.532 179.619 340.784C179.211 341.036 178.887 341.384 178.647 341.828C178.419 342.26 178.305 342.758 178.305 343.322C178.305 343.898 178.419 344.408 178.647 344.852C178.887 345.284 179.217 345.626 179.637 345.878C180.057 346.13 180.537 346.256 181.077 346.256ZM183.651 347.606V345.302L183.957 343.214L183.651 341.144V339.056H185.289V347.606H183.651ZM187.648 347.606V334.754H189.268V347.606H187.648ZM199.288 347.786C198.448 347.786 197.686 347.588 197.002 347.192C196.33 346.796 195.796 346.262 195.4 345.59C195.016 344.906 194.824 344.15 194.824 343.322C194.824 342.482 195.016 341.726 195.4 341.054C195.796 340.382 196.33 339.854 197.002 339.47C197.686 339.074 198.448 338.876 199.288 338.876C199.948 338.876 200.56 339.002 201.124 339.254C201.688 339.494 202.174 339.848 202.582 340.316L201.502 341.396C201.238 341.084 200.914 340.85 200.53 340.694C200.158 340.526 199.744 340.442 199.288 340.442C198.748 340.442 198.268 340.568 197.848 340.82C197.428 341.06 197.098 341.396 196.858 341.828C196.618 342.26 196.498 342.758 196.498 343.322C196.498 343.886 196.618 344.384 196.858 344.816C197.098 345.248 197.428 345.59 197.848 345.842C198.268 346.094 198.748 346.22 199.288 346.22C199.744 346.22 200.158 346.142 200.53 345.986C200.914 345.818 201.244 345.578 201.52 345.266L202.582 346.346C202.186 346.802 201.7 347.156 201.124 347.408C200.56 347.66 199.948 347.786 199.288 347.786ZM207.919 347.786C207.079 347.786 206.323 347.588 205.651 347.192C204.979 346.796 204.445 346.262 204.049 345.59C203.653 344.906 203.455 344.144 203.455 343.304C203.455 342.476 203.653 341.732 204.049 341.072C204.445 340.4 204.979 339.866 205.651 339.47C206.323 339.074 207.079 338.876 207.919 338.876C208.747 338.876 209.497 339.074 210.169 339.47C210.853 339.854 211.393 340.382 211.789 341.054C212.185 341.726 212.383 342.476 212.383 343.304C212.383 344.144 212.185 344.906 211.789 345.59C211.393 346.262 210.853 346.796 210.169 347.192C209.497 347.588 208.747 347.786 207.919 347.786ZM207.919 346.22C208.459 346.22 208.939 346.094 209.359 345.842C209.779 345.59 210.109 345.248 210.349 344.816C210.589 344.372 210.709 343.868 210.709 343.304C210.709 342.752 210.583 342.26 210.331 341.828C210.091 341.396 209.761 341.06 209.341 340.82C208.933 340.568 208.459 340.442 207.919 340.442C207.379 340.442 206.899 340.568 206.479 340.82C206.059 341.06 205.729 341.396 205.489 341.828C205.249 342.26 205.129 342.752 205.129 343.304C205.129 343.868 205.249 344.372 205.489 344.816C205.729 345.248 206.059 345.59 206.479 345.842C206.899 346.094 207.379 346.22 207.919 346.22ZM214.209 347.606V339.056H215.829V347.606H214.209ZM219.987 347.606V342.44C219.987 341.804 219.789 341.306 219.393 340.946C219.009 340.574 218.523 340.388 217.935 340.388C217.539 340.388 217.185 340.472 216.873 340.64C216.561 340.808 216.309 341.042 216.117 341.342C215.925 341.642 215.829 342.002 215.829 342.422L215.163 342.098C215.163 341.45 215.301 340.886 215.577 340.406C215.865 339.926 216.255 339.554 216.747 339.29C217.239 339.014 217.791 338.876 218.403 338.876C219.003 338.876 219.543 339.008 220.023 339.272C220.515 339.536 220.899 339.908 221.175 340.388C221.463 340.868 221.607 341.438 221.607 342.098V347.606H219.987ZM225.765 347.606V342.44C225.765 341.804 225.567 341.306 225.171 340.946C224.787 340.574 224.307 340.388 223.731 340.388C223.335 340.388 222.975 340.472 222.651 340.64C222.339 340.808 222.087 341.042 221.895 341.342C221.703 341.642 221.607 342.002 221.607 342.422L220.689 342.098C220.725 341.438 220.899 340.874 221.211 340.406C221.535 339.926 221.949 339.554 222.453 339.29C222.957 339.014 223.509 338.876 224.109 338.876C224.733 338.876 225.291 339.008 225.783 339.272C226.275 339.536 226.665 339.908 226.953 340.388C227.253 340.868 227.403 341.444 227.403 342.116V347.606H225.765ZM234.107 347.786C233.459 347.786 232.871 347.654 232.343 347.39C231.827 347.114 231.413 346.736 231.101 346.256C230.789 345.776 230.615 345.23 230.579 344.618V342.044C230.615 341.42 230.789 340.874 231.101 340.406C231.425 339.926 231.845 339.554 232.361 339.29C232.889 339.014 233.471 338.876 234.107 338.876C234.887 338.876 235.589 339.074 236.213 339.47C236.849 339.866 237.347 340.4 237.707 341.072C238.067 341.744 238.247 342.5 238.247 343.34C238.247 344.18 238.067 344.936 237.707 345.608C237.347 346.28 236.849 346.814 236.213 347.21C235.589 347.594 234.887 347.786 234.107 347.786ZM233.837 346.256C234.377 346.256 234.851 346.13 235.259 345.878C235.667 345.626 235.991 345.284 236.231 344.852C236.471 344.408 236.591 343.898 236.591 343.322C236.591 342.758 236.471 342.254 236.231 341.81C235.991 341.366 235.667 341.024 235.259 340.784C234.851 340.532 234.383 340.406 233.855 340.406C233.315 340.406 232.841 340.532 232.433 340.784C232.025 341.024 231.707 341.366 231.479 341.81C231.251 342.254 231.137 342.764 231.137 343.34C231.137 343.904 231.245 344.408 231.461 344.852C231.689 345.284 232.007 345.626 232.415 345.878C232.835 346.13 233.309 346.256 233.837 346.256ZM229.607 351.188V339.056H231.227V341.306L230.921 343.376L231.227 345.464V351.188H229.607ZM243.72 347.786C242.94 347.786 242.232 347.594 241.596 347.21C240.96 346.814 240.456 346.28 240.084 345.608C239.724 344.936 239.544 344.18 239.544 343.34C239.544 342.5 239.724 341.744 240.084 341.072C240.456 340.4 240.954 339.866 241.578 339.47C242.214 339.074 242.928 338.876 243.72 338.876C244.368 338.876 244.944 339.014 245.448 339.29C245.964 339.554 246.378 339.926 246.69 340.406C247.002 340.874 247.176 341.42 247.212 342.044V344.618C247.176 345.23 247.002 345.776 246.69 346.256C246.39 346.736 245.982 347.114 245.466 347.39C244.962 347.654 244.38 347.786 243.72 347.786ZM243.99 346.256C244.794 346.256 245.442 345.986 245.934 345.446C246.426 344.894 246.672 344.192 246.672 343.34C246.672 342.752 246.558 342.242 246.33 341.81C246.114 341.366 245.802 341.024 245.394 340.784C244.986 340.532 244.512 340.406 243.972 340.406C243.432 340.406 242.952 340.532 242.532 340.784C242.124 341.036 241.8 341.384 241.56 341.828C241.332 342.26 241.218 342.758 241.218 343.322C241.218 343.898 241.332 344.408 241.56 344.852C241.8 345.284 242.13 345.626 242.55 345.878C242.97 346.13 243.45 346.256 243.99 346.256ZM246.564 347.606V345.302L246.87 343.214L246.564 341.144V339.056H248.202V347.606H246.564ZM256.608 347.606V342.62C256.608 341.972 256.404 341.438 255.996 341.018C255.588 340.598 255.06 340.388 254.412 340.388C253.98 340.388 253.596 340.484 253.26 340.676C252.924 340.868 252.66 341.132 252.468 341.468C252.276 341.804 252.18 342.188 252.18 342.62L251.514 342.242C251.514 341.594 251.658 341.018 251.946 340.514C252.234 340.01 252.636 339.614 253.152 339.326C253.668 339.026 254.25 338.876 254.898 338.876C255.546 338.876 256.116 339.038 256.608 339.362C257.112 339.686 257.508 340.112 257.796 340.64C258.084 341.156 258.228 341.708 258.228 342.296V347.606H256.608ZM250.56 347.606V339.056H252.18V347.606H250.56ZM260.439 347.606V339.056H262.059V347.606H260.439ZM261.249 337.346C260.949 337.346 260.703 337.25 260.511 337.058C260.319 336.854 260.223 336.602 260.223 336.302C260.223 336.014 260.319 335.774 260.511 335.582C260.703 335.378 260.949 335.276 261.249 335.276C261.549 335.276 261.795 335.378 261.987 335.582C262.179 335.774 262.275 336.014 262.275 336.302C262.275 336.602 262.179 336.854 261.987 337.058C261.795 337.25 261.549 337.346 261.249 337.346ZM268.407 347.786C267.555 347.786 266.787 347.594 266.103 347.21C265.419 346.814 264.879 346.28 264.483 345.608C264.087 344.936 263.889 344.174 263.889 343.322C263.889 342.482 264.081 341.726 264.465 341.054C264.861 340.382 265.389 339.854 266.049 339.47C266.721 339.074 267.471 338.876 268.299 338.876C269.091 338.876 269.787 339.056 270.387 339.416C270.999 339.776 271.473 340.274 271.809 340.91C272.157 341.546 272.331 342.266 272.331 343.07C272.331 343.19 272.325 343.322 272.313 343.466C272.301 343.598 272.277 343.754 272.241 343.934H265.023V342.584H271.377L270.783 343.106C270.783 342.53 270.681 342.044 270.477 341.648C270.273 341.24 269.985 340.928 269.613 340.712C269.241 340.484 268.791 340.37 268.263 340.37C267.711 340.37 267.225 340.49 266.805 340.73C266.385 340.97 266.061 341.306 265.833 341.738C265.605 342.17 265.491 342.68 265.491 343.268C265.491 343.868 265.611 344.396 265.851 344.852C266.091 345.296 266.433 345.644 266.877 345.896C267.321 346.136 267.831 346.256 268.407 346.256C268.887 346.256 269.325 346.172 269.721 346.004C270.129 345.836 270.477 345.584 270.765 345.248L271.809 346.31C271.401 346.79 270.897 347.156 270.297 347.408C269.709 347.66 269.079 347.786 268.407 347.786ZM276.815 347.786C276.335 347.786 275.879 347.726 275.447 347.606C275.027 347.474 274.637 347.294 274.277 347.066C273.917 346.826 273.605 346.544 273.341 346.22L274.385 345.176C274.697 345.56 275.057 345.848 275.465 346.04C275.873 346.22 276.329 346.31 276.833 346.31C277.337 346.31 277.727 346.226 278.003 346.058C278.279 345.878 278.417 345.632 278.417 345.32C278.417 345.008 278.303 344.768 278.075 344.6C277.859 344.42 277.577 344.276 277.229 344.168C276.881 344.048 276.509 343.934 276.113 343.826C275.729 343.706 275.363 343.556 275.015 343.376C274.667 343.196 274.379 342.95 274.151 342.638C273.935 342.326 273.827 341.912 273.827 341.396C273.827 340.88 273.953 340.436 274.205 340.064C274.457 339.68 274.805 339.386 275.249 339.182C275.705 338.978 276.251 338.876 276.887 338.876C277.559 338.876 278.153 338.996 278.669 339.236C279.197 339.464 279.629 339.812 279.965 340.28L278.921 341.324C278.681 341.012 278.381 340.772 278.021 340.604C277.673 340.436 277.277 340.352 276.833 340.352C276.365 340.352 276.005 340.436 275.753 340.604C275.513 340.76 275.393 340.982 275.393 341.27C275.393 341.558 275.501 341.78 275.717 341.936C275.933 342.092 276.215 342.224 276.563 342.332C276.923 342.44 277.295 342.554 277.679 342.674C278.063 342.782 278.429 342.932 278.777 343.124C279.125 343.316 279.407 343.574 279.623 343.898C279.851 344.222 279.965 344.648 279.965 345.176C279.965 345.98 279.677 346.616 279.101 347.084C278.537 347.552 277.775 347.786 276.815 347.786ZM283.201 347.786C282.865 347.786 282.583 347.672 282.355 347.444C282.139 347.204 282.031 346.922 282.031 346.598C282.031 346.262 282.139 345.986 282.355 345.77C282.583 345.542 282.865 345.428 283.201 345.428C283.537 345.428 283.813 345.542 284.029 345.77C284.257 345.986 284.371 346.262 284.371 346.598C284.371 346.922 284.257 347.204 284.029 347.444C283.813 347.672 283.537 347.786 283.201 347.786Z" fill="black"/>
<defs>
<linearGradient id="paint0_linear_429_867" x1="123.5" y1="53.6065" x2="123.5" y2="0.606445" gradientUnits="userSpaceOnUse">
<stop stop-color="#FEFAF6"/>
<stop offset="1" stop-color="#FEFAF6" stop-opacity="0"/>
</linearGradient>
<linearGradient id="paint1_linear_429_867" x1="168" y1="65.4482" x2="168" y2="285.448" gradientUnits="userSpaceOnUse">
<stop stop-color="#F05801"/>
<stop offset="1" stop-color="#4F0FFF"/>
</linearGradient>
</defs>
</svg>
