<svg width="351" height="419" viewBox="0 0 351 419" fill="none" xmlns="http://www.w3.org/2000/svg">
<rect y="0.303223" width="351" height="355" rx="15" fill="#FEFAF6"/>
<path opacity="0.8" d="M351 418.303L0 418.303L3.32207e-06 380.303C4.0463e-06 372.019 6.71573 365.303 15 365.303L336 365.303C344.284 365.303 351 372.019 351 380.303L351 418.303Z" fill="url(#paint0_linear_429_1252)"/>
<mask id="mask0_429_1252" style="mask-type:alpha" maskUnits="userSpaceOnUse" x="38" y="129" width="279" height="52">
<path fill-rule="evenodd" clip-rule="evenodd" d="M42.5017 180.287L42.783 179.328L43.0643 178.368C43.4194 178.472 43.8113 178.532 44.2403 178.532H46.2078V179.532V180.532H44.2403C43.6235 180.532 43.0419 180.446 42.5017 180.287ZM270.504 180.532V179.532V178.532H272.472C272.74 178.532 273.005 178.505 273.264 178.453L273.462 179.433L273.66 180.413C273.272 180.491 272.874 180.532 272.472 180.532H270.504ZM275.851 179.49L275.288 178.664L274.724 177.837C274.943 177.689 275.147 177.518 275.335 177.326L276.702 175.925L277.418 176.623L278.133 177.322L276.766 178.723C276.485 179.01 276.178 179.267 275.851 179.49ZM280.868 174.52L280.152 173.821L279.437 173.123L282.172 170.321L282.887 171.019L283.603 171.718L280.868 174.52ZM286.338 168.915L285.622 168.217L284.906 167.519L287.641 164.716L288.357 165.415L289.073 166.113L286.338 168.915ZM291.807 163.311L291.092 162.613L290.376 161.914L293.111 159.112L293.827 159.811L294.542 160.509L291.807 163.311ZM297.277 157.707L296.561 157.009L295.846 156.31L298.581 153.508L299.296 154.207L300.012 154.905L297.277 157.707ZM302.747 152.103L302.031 151.405L301.316 150.706L304.05 147.904L304.766 148.603L305.482 149.301L302.747 152.103ZM308.216 146.499L307.501 145.801L306.785 145.102L309.52 142.3L310.236 142.999L310.951 143.697L308.216 146.499ZM313.686 140.895L312.971 140.197L312.255 139.498L313.622 138.097C313.922 137.79 314.153 137.468 314.326 137.141L315.21 137.61L316.093 138.079C315.829 138.576 315.484 139.053 315.054 139.494L313.686 140.895ZM316.734 134.671L315.74 134.783L314.746 134.895C314.657 134.108 314.338 133.349 313.836 132.735L314.61 132.102L315.385 131.47C316.13 132.381 316.602 133.501 316.734 134.671ZM84.4956 129.303V130.303V131.303H82.5281C82.2598 131.303 81.9946 131.33 81.7358 131.382L81.5377 130.402L81.3397 129.422C81.728 129.344 82.1259 129.303 82.5281 129.303H84.4956ZM79.1494 130.345L79.7125 131.171L80.2756 131.998C80.0574 132.146 79.8529 132.317 79.6655 132.509L78.2981 133.91L77.5825 133.212L76.8668 132.513L78.2342 131.112C78.5152 130.825 78.822 130.568 79.1494 130.345ZM74.132 135.315L74.8476 136.014L75.5633 136.712L72.8284 139.514L72.1128 138.816L71.3971 138.117L74.132 135.315ZM68.6623 140.92L69.3779 141.618L70.0936 142.316L67.3587 145.119L66.6431 144.42L65.9275 143.722L68.6623 140.92ZM63.1926 146.524L63.9083 147.222L64.6239 147.921L61.889 150.723L61.1734 150.024L60.4578 149.326L63.1926 146.524ZM57.7229 152.128L58.4386 152.826L59.1542 153.525L56.4194 156.327L55.7037 155.628L54.9881 154.93L57.7229 152.128ZM52.2533 157.732L52.9689 158.43L53.6845 159.129L50.9497 161.931L50.234 161.232L49.5184 160.534L52.2533 157.732ZM41.3139 168.94L42.0295 169.638L42.7452 170.337L41.3777 171.738C41.0781 172.045 40.8471 172.367 40.6736 172.694L39.7903 172.225L38.9071 171.756C39.1712 171.259 39.5156 170.782 39.9465 170.341L41.3139 168.94ZM38.2664 175.164L39.26 175.052L40.2537 174.94C40.3427 175.727 40.6624 176.486 41.164 177.1L40.3896 177.733L39.6152 178.365C38.8704 177.454 38.3985 176.334 38.2664 175.164ZM44.0487 166.138L44.7644 166.836L45.48 167.535L48.2148 164.733L47.4992 164.034L46.7836 163.336L44.0487 166.138ZM88.4306 129.303V130.303V131.303H92.3656V130.303V129.303H88.4306ZM96.3007 129.303V130.303V131.303H100.236V130.303V129.303H96.3007ZM104.171 129.303V130.303V131.303H108.106V130.303V129.303H104.171ZM112.041 129.303V130.303V131.303H115.976V130.303V129.303H112.041ZM119.911 129.303V130.303V131.303H123.846V130.303V129.303H119.911ZM127.781 129.303V130.303V131.303H131.716V130.303V129.303H127.781ZM135.651 129.303V130.303V131.303H139.586V130.303V129.303H135.651ZM143.521 129.303V130.303V131.303H147.456V130.303V129.303H143.521ZM151.391 129.303V130.303V131.303H155.326V130.303V129.303H151.391ZM159.261 129.303V130.303V131.303H163.196V130.303V129.303H159.261ZM167.131 129.303V130.303V131.303H171.066V130.303V129.303H167.131ZM175.001 129.303V130.303V131.303H178.936V130.303V129.303H175.001ZM182.871 129.303V130.303V131.303H186.806V130.303V129.303H182.871ZM190.741 129.303V130.303V131.303H194.676V130.303V129.303H190.741ZM198.611 129.303V130.303V131.303H202.546V130.303V129.303H198.611ZM206.481 129.303V130.303V131.303H210.416V130.303V129.303H206.481ZM214.352 129.303V130.303V131.303H218.287V130.303V129.303H214.352ZM222.222 129.303V130.303V131.303H226.157V130.303V129.303H222.222ZM230.092 129.303V130.303V131.303H234.027V130.303V129.303H230.092ZM237.962 129.303V130.303V131.303H241.897V130.303V129.303H237.962ZM245.832 129.303V130.303V131.303H249.767V130.303V129.303H245.832ZM253.702 129.303V130.303V131.303H257.637V130.303V129.303H253.702ZM261.572 129.303V130.303V131.303H265.507V130.303V129.303H261.572ZM269.442 129.303V130.303V131.303H273.377V130.303V129.303H269.442ZM277.312 129.303V130.303V131.303H281.247V130.303V129.303H277.312ZM285.182 129.303V130.303V131.303H289.117V130.303V129.303H285.182ZM293.052 129.303V130.303V131.303H296.987V130.303V129.303H293.052ZM300.922 129.303V130.303V131.303H304.857V130.303V129.303H300.922ZM308.792 129.303V130.303V131.303H310.76C311.189 131.303 311.581 131.363 311.936 131.467L312.217 130.507L312.498 129.548C311.958 129.389 311.377 129.303 310.76 129.303H308.792ZM266.569 180.532V179.532V178.532H262.634V179.532V180.532H266.569ZM258.699 180.532V179.532V178.532H254.764V179.532V180.532H258.699ZM250.829 180.532V179.532V178.532H246.894V179.532V180.532H250.829ZM242.959 180.532V179.532V178.532H239.024V179.532V180.532H242.959ZM235.089 180.532V179.532V178.532H231.154V179.532V180.532H235.089ZM227.219 180.532V179.532V178.532H223.284V179.532V180.532H227.219ZM219.349 180.532V179.532V178.532H215.414V179.532V180.532H219.349ZM211.479 180.532V179.532V178.532H207.544V179.532V180.532H211.479ZM203.609 180.532V179.532V178.532H199.674V179.532V180.532H203.609ZM195.739 180.532V179.532V178.532H191.804V179.532V180.532H195.739ZM187.869 180.532V179.532V178.532H183.934V179.532V180.532H187.869ZM179.999 180.532V179.532V178.532H176.064V179.532V180.532H179.999ZM172.129 180.532V179.532V178.532H168.194V179.532V180.532H172.129ZM164.259 180.532V179.532V178.532H160.324V179.532V180.532H164.259ZM156.389 180.532V179.532V178.532H152.454V179.532V180.532H156.389ZM148.519 180.532V179.532V178.532H144.584V179.532V180.532H148.519ZM140.649 180.532V179.532V178.532H136.714V179.532V180.532H140.649ZM132.778 180.532V179.532V178.532H128.843V179.532V180.532H132.778ZM124.908 180.532V179.532V178.532H120.973V179.532V180.532H124.908ZM117.038 180.532V179.532V178.532H113.103V179.532V180.532H117.038ZM109.168 180.532V179.532V178.532H105.233V179.532V180.532H109.168ZM101.298 180.532V179.532V178.532H97.3632V179.532V180.532H101.298ZM93.4282 180.532V179.532V178.532H89.4931V179.532V180.532H93.4282ZM85.5581 180.532V179.532V178.532H81.6231V179.532V180.532H85.5581ZM77.6881 180.532V179.532V178.532H73.753V179.532V180.532H77.6881ZM69.818 180.532V179.532V178.532H65.883V179.532V180.532H69.818ZM61.948 180.532V179.532V178.532H58.0129V179.532V180.532H61.948ZM54.0779 180.532V179.532V178.532H50.1429V179.532V180.532H54.0779Z" fill="black"/>
</mask>
<g mask="url(#mask0_429_1252)">
<rect x="3" y="3.14502" width="330" height="220" fill="#D9D9D9"/>
<rect x="3" y="3.14502" width="330" height="220" fill="url(#paint1_linear_429_1252)"/>
</g>
<line x1="175" y1="164.303" x2="175" y2="214.303" stroke="black" stroke-width="2"/>
<circle cx="175" cy="162.303" r="6" fill="#2F2F2F"/>
<path d="M37.2694 239.303L33.1834 226.811H34.8754L38.1154 236.999H37.6294L40.8154 226.811H42.0394L45.2254 236.999H44.7574L47.9974 226.811H49.6714L45.6034 239.303H44.3974L41.1934 229.133H41.6614L38.4754 239.303H37.2694ZM54.1031 239.483C53.2511 239.483 52.4831 239.291 51.7991 238.907C51.1151 238.511 50.5751 237.977 50.1791 237.305C49.7831 236.633 49.5851 235.871 49.5851 235.019C49.5851 234.179 49.7771 233.423 50.1611 232.751C50.5571 232.079 51.0851 231.551 51.7451 231.167C52.4171 230.771 53.1671 230.573 53.9951 230.573C54.7871 230.573 55.4831 230.753 56.0831 231.113C56.6951 231.473 57.1691 231.971 57.5051 232.607C57.8531 233.243 58.0271 233.963 58.0271 234.767C58.0271 234.887 58.0211 235.019 58.0091 235.163C57.9971 235.295 57.9731 235.451 57.9371 235.631H50.7191V234.281H57.0731L56.4791 234.803C56.4791 234.227 56.3771 233.741 56.1731 233.345C55.9691 232.937 55.6811 232.625 55.3091 232.409C54.9371 232.181 54.4871 232.067 53.9591 232.067C53.4071 232.067 52.9211 232.187 52.5011 232.427C52.0811 232.667 51.7571 233.003 51.5291 233.435C51.3011 233.867 51.1871 234.377 51.1871 234.965C51.1871 235.565 51.3071 236.093 51.5471 236.549C51.7871 236.993 52.1291 237.341 52.5731 237.593C53.0171 237.833 53.5271 237.953 54.1031 237.953C54.5831 237.953 55.0211 237.869 55.4171 237.701C55.8251 237.533 56.1731 237.281 56.4611 236.945L57.5051 238.007C57.0971 238.487 56.5931 238.853 55.9931 239.105C55.4051 239.357 54.7751 239.483 54.1031 239.483ZM67.1736 239.483C66.3936 239.483 65.6856 239.291 65.0496 238.907C64.4136 238.511 63.9096 237.977 63.5376 237.305C63.1776 236.633 62.9976 235.877 62.9976 235.037C62.9976 234.197 63.1776 233.441 63.5376 232.769C63.9096 232.097 64.4076 231.563 65.0316 231.167C65.6676 230.771 66.3816 230.573 67.1736 230.573C67.8216 230.573 68.3976 230.711 68.9016 230.987C69.4176 231.251 69.8316 231.623 70.1436 232.103C70.4556 232.571 70.6296 233.117 70.6656 233.741V236.315C70.6296 236.927 70.4556 237.473 70.1436 237.953C69.8436 238.433 69.4356 238.811 68.9196 239.087C68.4156 239.351 67.8336 239.483 67.1736 239.483ZM67.4436 237.953C68.2476 237.953 68.8956 237.683 69.3876 237.143C69.8796 236.591 70.1256 235.889 70.1256 235.037C70.1256 234.449 70.0116 233.939 69.7836 233.507C69.5676 233.063 69.2556 232.721 68.8476 232.481C68.4396 232.229 67.9656 232.103 67.4256 232.103C66.8856 232.103 66.4056 232.229 65.9856 232.481C65.5776 232.733 65.2536 233.081 65.0136 233.525C64.7856 233.957 64.6716 234.455 64.6716 235.019C64.6716 235.595 64.7856 236.105 65.0136 236.549C65.2536 236.981 65.5836 237.323 66.0036 237.575C66.4236 237.827 66.9036 237.953 67.4436 237.953ZM70.0176 239.303V236.999L70.3236 234.911L70.0176 232.841V230.753H71.6556V239.303H70.0176ZM74.0142 239.303V230.753H75.6342V239.303H74.0142ZM75.6342 234.425L75.0222 234.155C75.0222 233.063 75.2742 232.193 75.7782 231.545C76.2822 230.897 77.0082 230.573 77.9562 230.573C78.3882 230.573 78.7782 230.651 79.1262 230.807C79.4742 230.951 79.7982 231.197 80.0982 231.545L79.0362 232.643C78.8562 232.451 78.6582 232.313 78.4422 232.229C78.2262 232.145 77.9742 232.103 77.6862 232.103C77.0862 232.103 76.5942 232.295 76.2102 232.679C75.8262 233.063 75.6342 233.645 75.6342 234.425ZM84.9175 239.483C84.0655 239.483 83.2975 239.291 82.6135 238.907C81.9295 238.511 81.3895 237.977 80.9935 237.305C80.5975 236.633 80.3995 235.871 80.3995 235.019C80.3995 234.179 80.5915 233.423 80.9755 232.751C81.3715 232.079 81.8995 231.551 82.5595 231.167C83.2315 230.771 83.9815 230.573 84.8095 230.573C85.6015 230.573 86.2975 230.753 86.8975 231.113C87.5095 231.473 87.9835 231.971 88.3195 232.607C88.6675 233.243 88.8415 233.963 88.8415 234.767C88.8415 234.887 88.8355 235.019 88.8235 235.163C88.8115 235.295 88.7875 235.451 88.7515 235.631H81.5335V234.281H87.8875L87.2935 234.803C87.2935 234.227 87.1915 233.741 86.9875 233.345C86.7835 232.937 86.4955 232.625 86.1235 232.409C85.7515 232.181 85.3015 232.067 84.7735 232.067C84.2215 232.067 83.7355 232.187 83.3155 232.427C82.8955 232.667 82.5715 233.003 82.3435 233.435C82.1155 233.867 82.0015 234.377 82.0015 234.965C82.0015 235.565 82.1215 236.093 82.3615 236.549C82.6015 236.993 82.9435 237.341 83.3875 237.593C83.8315 237.833 84.3415 237.953 84.9175 237.953C85.3975 237.953 85.8355 237.869 86.2315 237.701C86.6395 237.533 86.9875 237.281 87.2755 236.945L88.3195 238.007C87.9115 238.487 87.4075 238.853 86.8075 239.105C86.2195 239.357 85.5895 239.483 84.9175 239.483ZM98.8521 239.483C98.2041 239.483 97.6161 239.351 97.0881 239.087C96.5721 238.811 96.1581 238.433 95.8461 237.953C95.5341 237.473 95.3601 236.927 95.3241 236.315V233.741C95.3601 233.117 95.5341 232.571 95.8461 232.103C96.1701 231.623 96.5901 231.251 97.1061 230.987C97.6341 230.711 98.2161 230.573 98.8521 230.573C99.6321 230.573 100.334 230.771 100.958 231.167C101.594 231.563 102.092 232.097 102.452 232.769C102.812 233.441 102.992 234.197 102.992 235.037C102.992 235.877 102.812 236.633 102.452 237.305C102.092 237.977 101.594 238.511 100.958 238.907C100.334 239.291 99.6321 239.483 98.8521 239.483ZM98.5821 237.953C99.1221 237.953 99.5961 237.827 100.004 237.575C100.412 237.323 100.736 236.981 100.976 236.549C101.216 236.105 101.336 235.595 101.336 235.019C101.336 234.455 101.216 233.951 100.976 233.507C100.736 233.063 100.412 232.721 100.004 232.481C99.5961 232.229 99.1281 232.103 98.6001 232.103C98.0601 232.103 97.5861 232.229 97.1781 232.481C96.7701 232.721 96.4521 233.063 96.2241 233.507C95.9961 233.951 95.8821 234.461 95.8821 235.037C95.8821 235.601 95.9901 236.105 96.2061 236.549C96.4341 236.981 96.7521 237.323 97.1601 237.575C97.5801 237.827 98.0541 237.953 98.5821 237.953ZM94.3521 239.303V226.451H95.9721V232.841L95.6661 234.911L95.9721 236.999V239.303H94.3521ZM108.267 239.483C107.571 239.483 106.941 239.327 106.377 239.015C105.825 238.691 105.393 238.247 105.081 237.683C104.769 237.119 104.613 236.465 104.613 235.721V230.753H106.233V235.649C106.233 236.117 106.311 236.525 106.467 236.873C106.635 237.209 106.875 237.467 107.187 237.647C107.499 237.827 107.865 237.917 108.285 237.917C108.921 237.917 109.419 237.719 109.779 237.323C110.139 236.915 110.319 236.357 110.319 235.649V230.753H111.939V235.721C111.939 236.465 111.783 237.119 111.471 237.683C111.159 238.247 110.727 238.691 110.175 239.015C109.635 239.327 108.999 239.483 108.267 239.483ZM114.128 239.303V230.753H115.748V239.303H114.128ZM114.938 229.043C114.638 229.043 114.392 228.947 114.2 228.755C114.008 228.551 113.912 228.299 113.912 227.999C113.912 227.711 114.008 227.471 114.2 227.279C114.392 227.075 114.638 226.973 114.938 226.973C115.238 226.973 115.484 227.075 115.676 227.279C115.868 227.471 115.964 227.711 115.964 227.999C115.964 228.299 115.868 228.551 115.676 228.755C115.484 228.947 115.238 229.043 114.938 229.043ZM118.135 239.303V226.451H119.755V239.303H118.135ZM125.744 239.483C124.952 239.483 124.244 239.291 123.62 238.907C122.996 238.511 122.498 237.977 122.125 237.305C121.766 236.633 121.586 235.877 121.586 235.037C121.586 234.197 121.766 233.441 122.125 232.769C122.498 232.097 122.996 231.563 123.62 231.167C124.244 230.771 124.952 230.573 125.744 230.573C126.38 230.573 126.956 230.711 127.472 230.987C127.988 231.251 128.402 231.623 128.714 232.103C129.038 232.571 129.218 233.117 129.254 233.741V236.315C129.218 236.927 129.044 237.473 128.732 237.953C128.42 238.433 128.006 238.811 127.49 239.087C126.974 239.351 126.392 239.483 125.744 239.483ZM126.014 237.953C126.554 237.953 127.022 237.827 127.418 237.575C127.826 237.323 128.144 236.981 128.372 236.549C128.6 236.105 128.714 235.601 128.714 235.037C128.714 234.449 128.594 233.939 128.354 233.507C128.126 233.075 127.808 232.733 127.4 232.481C127.004 232.229 126.536 232.103 125.996 232.103C125.456 232.103 124.982 232.229 124.574 232.481C124.166 232.733 123.842 233.081 123.602 233.525C123.374 233.957 123.26 234.455 123.26 235.019C123.26 235.595 123.374 236.105 123.602 236.549C123.842 236.981 124.166 237.323 124.574 237.575C124.994 237.827 125.474 237.953 126.014 237.953ZM130.244 239.303H128.606V236.999L128.912 234.911L128.606 232.841V226.451H130.244V239.303ZM132.62 239.303V230.753H134.24V239.303H132.62ZM133.43 229.043C133.13 229.043 132.884 228.947 132.692 228.755C132.5 228.551 132.404 228.299 132.404 227.999C132.404 227.711 132.5 227.471 132.692 227.279C132.884 227.075 133.13 226.973 133.43 226.973C133.73 226.973 133.976 227.075 134.168 227.279C134.36 227.471 134.456 227.711 134.456 227.999C134.456 228.299 134.36 228.551 134.168 228.755C133.976 228.947 133.73 229.043 133.43 229.043ZM142.675 239.303V234.317C142.675 233.669 142.471 233.135 142.063 232.715C141.655 232.295 141.127 232.085 140.479 232.085C140.047 232.085 139.663 232.181 139.327 232.373C138.991 232.565 138.727 232.829 138.535 233.165C138.343 233.501 138.247 233.885 138.247 234.317L137.581 233.939C137.581 233.291 137.725 232.715 138.013 232.211C138.301 231.707 138.703 231.311 139.219 231.023C139.735 230.723 140.317 230.573 140.965 230.573C141.613 230.573 142.183 230.735 142.675 231.059C143.179 231.383 143.575 231.809 143.863 232.337C144.151 232.853 144.295 233.405 144.295 233.993V239.303H142.675ZM136.627 239.303V230.753H138.247V239.303H136.627ZM150.035 243.065C149.159 243.065 148.379 242.903 147.695 242.579C147.023 242.255 146.483 241.799 146.075 241.211L147.119 240.149C147.467 240.593 147.881 240.929 148.361 241.157C148.841 241.397 149.411 241.517 150.071 241.517C150.947 241.517 151.637 241.283 152.141 240.815C152.657 240.359 152.915 239.741 152.915 238.961V236.837L153.203 234.911L152.915 233.003V230.753H154.535V238.961C154.535 239.777 154.343 240.491 153.959 241.103C153.587 241.715 153.059 242.195 152.375 242.543C151.703 242.891 150.923 243.065 150.035 243.065ZM150.035 239.159C149.255 239.159 148.553 238.973 147.929 238.601C147.317 238.229 146.831 237.719 146.471 237.071C146.111 236.411 145.931 235.673 145.931 234.857C145.931 234.041 146.111 233.315 146.471 232.679C146.831 232.031 147.317 231.521 147.929 231.149C148.553 230.765 149.255 230.573 150.035 230.573C150.707 230.573 151.301 230.705 151.817 230.969C152.333 231.233 152.741 231.605 153.041 232.085C153.353 232.553 153.521 233.105 153.545 233.741V236.009C153.509 236.633 153.335 237.185 153.023 237.665C152.723 238.133 152.315 238.499 151.799 238.763C151.283 239.027 150.695 239.159 150.035 239.159ZM150.359 237.629C150.887 237.629 151.349 237.515 151.745 237.287C152.153 237.059 152.465 236.741 152.681 236.333C152.897 235.913 153.005 235.427 153.005 234.875C153.005 234.323 152.891 233.843 152.663 233.435C152.447 233.015 152.141 232.691 151.745 232.463C151.349 232.223 150.881 232.103 150.341 232.103C149.801 232.103 149.327 232.223 148.919 232.463C148.511 232.691 148.187 233.015 147.947 233.435C147.719 233.843 147.605 234.317 147.605 234.857C147.605 235.397 147.719 235.877 147.947 236.297C148.187 236.717 148.511 237.047 148.919 237.287C149.339 237.515 149.819 237.629 150.359 237.629ZM164.293 239.483C163.513 239.483 162.805 239.291 162.169 238.907C161.533 238.511 161.029 237.977 160.657 237.305C160.297 236.633 160.117 235.877 160.117 235.037C160.117 234.197 160.297 233.441 160.657 232.769C161.029 232.097 161.527 231.563 162.151 231.167C162.787 230.771 163.501 230.573 164.293 230.573C164.941 230.573 165.517 230.711 166.021 230.987C166.537 231.251 166.951 231.623 167.263 232.103C167.575 232.571 167.749 233.117 167.785 233.741V236.315C167.749 236.927 167.575 237.473 167.263 237.953C166.963 238.433 166.555 238.811 166.039 239.087C165.535 239.351 164.953 239.483 164.293 239.483ZM164.563 237.953C165.367 237.953 166.015 237.683 166.507 237.143C166.999 236.591 167.245 235.889 167.245 235.037C167.245 234.449 167.131 233.939 166.903 233.507C166.687 233.063 166.375 232.721 165.967 232.481C165.559 232.229 165.085 232.103 164.545 232.103C164.005 232.103 163.525 232.229 163.105 232.481C162.697 232.733 162.373 233.081 162.133 233.525C161.905 233.957 161.791 234.455 161.791 235.019C161.791 235.595 161.905 236.105 162.133 236.549C162.373 236.981 162.703 237.323 163.123 237.575C163.543 237.827 164.023 237.953 164.563 237.953ZM167.137 239.303V236.999L167.443 234.911L167.137 232.841V230.753H168.775V239.303H167.137ZM178.315 239.483C177.619 239.483 176.989 239.327 176.425 239.015C175.873 238.691 175.441 238.247 175.129 237.683C174.817 237.119 174.661 236.465 174.661 235.721V230.753H176.281V235.649C176.281 236.117 176.359 236.525 176.515 236.873C176.683 237.209 176.923 237.467 177.235 237.647C177.547 237.827 177.913 237.917 178.333 237.917C178.969 237.917 179.467 237.719 179.827 237.323C180.187 236.915 180.367 236.357 180.367 235.649V230.753H181.987V235.721C181.987 236.465 181.831 237.119 181.519 237.683C181.207 238.247 180.775 238.691 180.223 239.015C179.683 239.327 179.047 239.483 178.315 239.483ZM190.207 239.303V234.317C190.207 233.669 190.003 233.135 189.595 232.715C189.187 232.295 188.659 232.085 188.011 232.085C187.579 232.085 187.195 232.181 186.859 232.373C186.523 232.565 186.259 232.829 186.067 233.165C185.875 233.501 185.779 233.885 185.779 234.317L185.113 233.939C185.113 233.291 185.257 232.715 185.545 232.211C185.833 231.707 186.235 231.311 186.751 231.023C187.267 230.723 187.849 230.573 188.497 230.573C189.145 230.573 189.715 230.735 190.207 231.059C190.711 231.383 191.107 231.809 191.395 232.337C191.683 232.853 191.827 233.405 191.827 233.993V239.303H190.207ZM184.159 239.303V230.753H185.779V239.303H184.159ZM194.038 239.303V230.753H195.658V239.303H194.038ZM194.848 229.043C194.548 229.043 194.302 228.947 194.11 228.755C193.918 228.551 193.822 228.299 193.822 227.999C193.822 227.711 193.918 227.471 194.11 227.279C194.302 227.075 194.548 226.973 194.848 226.973C195.148 226.973 195.394 227.075 195.586 227.279C195.778 227.471 195.874 227.711 195.874 227.999C195.874 228.299 195.778 228.551 195.586 228.755C195.394 228.947 195.148 229.043 194.848 229.043ZM201.699 239.483C200.907 239.483 200.193 239.291 199.557 238.907C198.921 238.511 198.417 237.977 198.045 237.305C197.685 236.633 197.505 235.877 197.505 235.037C197.505 234.197 197.685 233.441 198.045 232.769C198.417 232.097 198.921 231.563 199.557 231.167C200.193 230.771 200.901 230.573 201.681 230.573C202.341 230.573 202.923 230.711 203.427 230.987C203.943 231.251 204.351 231.623 204.651 232.103C204.963 232.571 205.137 233.117 205.173 233.741V236.315C205.137 236.927 204.963 237.473 204.651 237.953C204.351 238.433 203.943 238.811 203.427 239.087C202.923 239.351 202.347 239.483 201.699 239.483ZM201.951 237.953C202.755 237.953 203.403 237.683 203.895 237.143C204.387 236.591 204.633 235.889 204.633 235.037C204.633 234.449 204.519 233.939 204.291 233.507C204.075 233.063 203.763 232.721 203.355 232.481C202.959 232.229 202.491 232.103 201.951 232.103C201.411 232.103 200.931 232.229 200.511 232.481C200.103 232.733 199.779 233.081 199.539 233.525C199.299 233.957 199.179 234.455 199.179 235.019C199.179 235.595 199.299 236.105 199.539 236.549C199.779 236.981 200.103 237.323 200.511 237.575C200.931 237.827 201.411 237.953 201.951 237.953ZM204.543 242.885V237.161L204.831 235.073L204.543 233.003V230.753H206.163V242.885H204.543ZM211.978 239.483C211.282 239.483 210.652 239.327 210.088 239.015C209.536 238.691 209.104 238.247 208.792 237.683C208.48 237.119 208.324 236.465 208.324 235.721V230.753H209.944V235.649C209.944 236.117 210.022 236.525 210.178 236.873C210.346 237.209 210.586 237.467 210.898 237.647C211.21 237.827 211.576 237.917 211.996 237.917C212.632 237.917 213.13 237.719 213.49 237.323C213.85 236.915 214.03 236.357 214.03 235.649V230.753H215.65V235.721C215.65 236.465 215.494 237.119 215.182 237.683C214.87 238.247 214.438 238.691 213.886 239.015C213.346 239.327 212.71 239.483 211.978 239.483ZM221.781 239.483C220.929 239.483 220.161 239.291 219.477 238.907C218.793 238.511 218.253 237.977 217.857 237.305C217.461 236.633 217.263 235.871 217.263 235.019C217.263 234.179 217.455 233.423 217.839 232.751C218.235 232.079 218.763 231.551 219.423 231.167C220.095 230.771 220.845 230.573 221.673 230.573C222.465 230.573 223.161 230.753 223.761 231.113C224.373 231.473 224.847 231.971 225.183 232.607C225.531 233.243 225.705 233.963 225.705 234.767C225.705 234.887 225.699 235.019 225.687 235.163C225.675 235.295 225.651 235.451 225.615 235.631H218.397V234.281H224.751L224.157 234.803C224.157 234.227 224.055 233.741 223.851 233.345C223.647 232.937 223.359 232.625 222.987 232.409C222.615 232.181 222.165 232.067 221.637 232.067C221.085 232.067 220.599 232.187 220.179 232.427C219.759 232.667 219.435 233.003 219.207 233.435C218.979 233.867 218.865 234.377 218.865 234.965C218.865 235.565 218.985 236.093 219.225 236.549C219.465 236.993 219.807 237.341 220.251 237.593C220.695 237.833 221.205 237.953 221.781 237.953C222.261 237.953 222.699 237.869 223.095 237.701C223.503 237.533 223.851 237.281 224.139 236.945L225.183 238.007C224.775 238.487 224.271 238.853 223.671 239.105C223.083 239.357 222.453 239.483 221.781 239.483ZM235.121 239.483C234.281 239.483 233.519 239.285 232.835 238.889C232.163 238.493 231.629 237.959 231.233 237.287C230.849 236.603 230.657 235.847 230.657 235.019C230.657 234.179 230.849 233.423 231.233 232.751C231.629 232.079 232.163 231.551 232.835 231.167C233.519 230.771 234.281 230.573 235.121 230.573C235.781 230.573 236.393 230.699 236.957 230.951C237.521 231.191 238.007 231.545 238.415 232.013L237.335 233.093C237.071 232.781 236.747 232.547 236.363 232.391C235.991 232.223 235.577 232.139 235.121 232.139C234.581 232.139 234.101 232.265 233.681 232.517C233.261 232.757 232.931 233.093 232.691 233.525C232.451 233.957 232.331 234.455 232.331 235.019C232.331 235.583 232.451 236.081 232.691 236.513C232.931 236.945 233.261 237.287 233.681 237.539C234.101 237.791 234.581 237.917 235.121 237.917C235.577 237.917 235.991 237.839 236.363 237.683C236.747 237.515 237.077 237.275 237.353 236.963L238.415 238.043C238.019 238.499 237.533 238.853 236.957 239.105C236.393 239.357 235.781 239.483 235.121 239.483ZM240.022 239.303V226.451H241.642V239.303H240.022ZM244.03 239.303V230.753H245.65V239.303H244.03ZM244.84 229.043C244.54 229.043 244.294 228.947 244.102 228.755C243.91 228.551 243.814 228.299 243.814 227.999C243.814 227.711 243.91 227.471 244.102 227.279C244.294 227.075 244.54 226.973 244.84 226.973C245.14 226.973 245.386 227.075 245.578 227.279C245.77 227.471 245.866 227.711 245.866 227.999C245.866 228.299 245.77 228.551 245.578 228.755C245.386 228.947 245.14 229.043 244.84 229.043ZM254.086 239.303V234.317C254.086 233.669 253.882 233.135 253.474 232.715C253.066 232.295 252.538 232.085 251.89 232.085C251.458 232.085 251.074 232.181 250.738 232.373C250.402 232.565 250.138 232.829 249.946 233.165C249.754 233.501 249.658 233.885 249.658 234.317L248.992 233.939C248.992 233.291 249.136 232.715 249.424 232.211C249.712 231.707 250.114 231.311 250.63 231.023C251.146 230.723 251.728 230.573 252.376 230.573C253.024 230.573 253.594 230.735 254.086 231.059C254.59 231.383 254.986 231.809 255.274 232.337C255.562 232.853 255.706 233.405 255.706 233.993V239.303H254.086ZM248.038 239.303V230.753H249.658V239.303H248.038ZM257.917 239.303V230.753H259.537V239.303H257.917ZM258.727 229.043C258.427 229.043 258.181 228.947 257.989 228.755C257.797 228.551 257.701 228.299 257.701 227.999C257.701 227.711 257.797 227.471 257.989 227.279C258.181 227.075 258.427 226.973 258.727 226.973C259.027 226.973 259.273 227.075 259.465 227.279C259.657 227.471 259.753 227.711 259.753 227.999C259.753 228.299 259.657 228.551 259.465 228.755C259.273 228.947 259.027 229.043 258.727 229.043ZM265.83 239.483C264.99 239.483 264.228 239.285 263.544 238.889C262.872 238.493 262.338 237.959 261.942 237.287C261.558 236.603 261.366 235.847 261.366 235.019C261.366 234.179 261.558 233.423 261.942 232.751C262.338 232.079 262.872 231.551 263.544 231.167C264.228 230.771 264.99 230.573 265.83 230.573C266.49 230.573 267.102 230.699 267.666 230.951C268.23 231.191 268.716 231.545 269.124 232.013L268.044 233.093C267.78 232.781 267.456 232.547 267.072 232.391C266.7 232.223 266.286 232.139 265.83 232.139C265.29 232.139 264.81 232.265 264.39 232.517C263.97 232.757 263.64 233.093 263.4 233.525C263.16 233.957 263.04 234.455 263.04 235.019C263.04 235.583 263.16 236.081 263.4 236.513C263.64 236.945 263.97 237.287 264.39 237.539C264.81 237.791 265.29 237.917 265.83 237.917C266.286 237.917 266.7 237.839 267.072 237.683C267.456 237.515 267.786 237.275 268.062 236.963L269.124 238.043C268.728 238.499 268.242 238.853 267.666 239.105C267.102 239.357 266.49 239.483 265.83 239.483ZM274.191 239.483C273.411 239.483 272.703 239.291 272.067 238.907C271.431 238.511 270.927 237.977 270.555 237.305C270.195 236.633 270.015 235.877 270.015 235.037C270.015 234.197 270.195 233.441 270.555 232.769C270.927 232.097 271.425 231.563 272.049 231.167C272.685 230.771 273.399 230.573 274.191 230.573C274.839 230.573 275.415 230.711 275.919 230.987C276.435 231.251 276.849 231.623 277.161 232.103C277.473 232.571 277.647 233.117 277.683 233.741V236.315C277.647 236.927 277.473 237.473 277.161 237.953C276.861 238.433 276.453 238.811 275.937 239.087C275.433 239.351 274.851 239.483 274.191 239.483ZM274.461 237.953C275.265 237.953 275.913 237.683 276.405 237.143C276.897 236.591 277.143 235.889 277.143 235.037C277.143 234.449 277.029 233.939 276.801 233.507C276.585 233.063 276.273 232.721 275.865 232.481C275.457 232.229 274.983 232.103 274.443 232.103C273.903 232.103 273.423 232.229 273.003 232.481C272.595 232.733 272.271 233.081 272.031 233.525C271.803 233.957 271.689 234.455 271.689 235.019C271.689 235.595 271.803 236.105 272.031 236.549C272.271 236.981 272.601 237.323 273.021 237.575C273.441 237.827 273.921 237.953 274.461 237.953ZM277.035 239.303V236.999L277.341 234.911L277.035 232.841V230.753H278.673V239.303H277.035ZM281.032 239.303V226.451H282.652V239.303H281.032ZM292.402 239.483C291.622 239.483 290.914 239.291 290.278 238.907C289.642 238.511 289.138 237.977 288.766 237.305C288.406 236.633 288.226 235.877 288.226 235.037C288.226 234.197 288.406 233.441 288.766 232.769C289.138 232.097 289.636 231.563 290.26 231.167C290.896 230.771 291.61 230.573 292.402 230.573C293.05 230.573 293.626 230.711 294.13 230.987C294.646 231.251 295.06 231.623 295.372 232.103C295.684 232.571 295.858 233.117 295.894 233.741V236.315C295.858 236.927 295.684 237.473 295.372 237.953C295.072 238.433 294.664 238.811 294.148 239.087C293.644 239.351 293.062 239.483 292.402 239.483ZM292.672 237.953C293.476 237.953 294.124 237.683 294.616 237.143C295.108 236.591 295.354 235.889 295.354 235.037C295.354 234.449 295.24 233.939 295.012 233.507C294.796 233.063 294.484 232.721 294.076 232.481C293.668 232.229 293.194 232.103 292.654 232.103C292.114 232.103 291.634 232.229 291.214 232.481C290.806 232.733 290.482 233.081 290.242 233.525C290.014 233.957 289.9 234.455 289.9 235.019C289.9 235.595 290.014 236.105 290.242 236.549C290.482 236.981 290.812 237.323 291.232 237.575C291.652 237.827 292.132 237.953 292.672 237.953ZM295.246 239.303V236.999L295.552 234.911L295.246 232.841V230.753H296.884V239.303H295.246ZM305.291 239.303V234.317C305.291 233.669 305.087 233.135 304.679 232.715C304.271 232.295 303.743 232.085 303.095 232.085C302.663 232.085 302.279 232.181 301.943 232.373C301.607 232.565 301.343 232.829 301.151 233.165C300.959 233.501 300.863 233.885 300.863 234.317L300.197 233.939C300.197 233.291 300.341 232.715 300.629 232.211C300.917 231.707 301.319 231.311 301.835 231.023C302.351 230.723 302.933 230.573 303.581 230.573C304.229 230.573 304.799 230.735 305.291 231.059C305.795 231.383 306.191 231.809 306.479 232.337C306.767 232.853 306.911 233.405 306.911 233.993V239.303H305.291ZM299.243 239.303V230.753H300.863V239.303H299.243ZM312.722 239.483C311.93 239.483 311.222 239.291 310.598 238.907C309.974 238.511 309.476 237.977 309.104 237.305C308.744 236.633 308.564 235.877 308.564 235.037C308.564 234.197 308.744 233.441 309.104 232.769C309.476 232.097 309.974 231.563 310.598 231.167C311.222 230.771 311.93 230.573 312.722 230.573C313.358 230.573 313.934 230.711 314.45 230.987C314.966 231.251 315.38 231.623 315.692 232.103C316.016 232.571 316.196 233.117 316.232 233.741V236.315C316.196 236.927 316.022 237.473 315.71 237.953C315.398 238.433 314.984 238.811 314.468 239.087C313.952 239.351 313.37 239.483 312.722 239.483ZM312.992 237.953C313.532 237.953 314 237.827 314.396 237.575C314.804 237.323 315.122 236.981 315.35 236.549C315.578 236.105 315.692 235.601 315.692 235.037C315.692 234.449 315.572 233.939 315.332 233.507C315.104 233.075 314.786 232.733 314.378 232.481C313.982 232.229 313.514 232.103 312.974 232.103C312.434 232.103 311.96 232.229 311.552 232.481C311.144 232.733 310.82 233.081 310.58 233.525C310.352 233.957 310.238 234.455 310.238 235.019C310.238 235.595 310.352 236.105 310.58 236.549C310.82 236.981 311.144 237.323 311.552 237.575C311.972 237.827 312.452 237.953 312.992 237.953ZM317.222 239.303H315.584V236.999L315.89 234.911L315.584 232.841V226.451H317.222V239.303ZM18.4321 262.303V253.753H20.0521V262.303H18.4321ZM24.2101 262.303V257.137C24.2101 256.501 24.0121 256.003 23.6161 255.643C23.2321 255.271 22.7461 255.085 22.1581 255.085C21.7621 255.085 21.4081 255.169 21.0961 255.337C20.7841 255.505 20.5321 255.739 20.3401 256.039C20.1481 256.339 20.0521 256.699 20.0521 257.119L19.3861 256.795C19.3861 256.147 19.5241 255.583 19.8001 255.103C20.0881 254.623 20.4781 254.251 20.9701 253.987C21.4621 253.711 22.0141 253.573 22.6261 253.573C23.2261 253.573 23.7661 253.705 24.2461 253.969C24.7381 254.233 25.1221 254.605 25.3981 255.085C25.6861 255.565 25.8301 256.135 25.8301 256.795V262.303H24.2101ZM29.9881 262.303V257.137C29.9881 256.501 29.7901 256.003 29.3941 255.643C29.0101 255.271 28.5301 255.085 27.9541 255.085C27.5581 255.085 27.1981 255.169 26.8741 255.337C26.5621 255.505 26.3101 255.739 26.1181 256.039C25.9261 256.339 25.8301 256.699 25.8301 257.119L24.9121 256.795C24.9481 256.135 25.1221 255.571 25.4341 255.103C25.7581 254.623 26.1721 254.251 26.6761 253.987C27.1801 253.711 27.7321 253.573 28.3321 253.573C28.9561 253.573 29.5141 253.705 30.0061 253.969C30.4981 254.233 30.8881 254.605 31.1761 255.085C31.4761 255.565 31.6261 256.141 31.6261 256.813V262.303H29.9881ZM37.2686 262.483C36.5726 262.483 35.9426 262.327 35.3786 262.015C34.8266 261.691 34.3946 261.247 34.0826 260.683C33.7706 260.119 33.6146 259.465 33.6146 258.721V253.753H35.2346V258.649C35.2346 259.117 35.3126 259.525 35.4686 259.873C35.6366 260.209 35.8766 260.467 36.1886 260.647C36.5006 260.827 36.8666 260.917 37.2866 260.917C37.9226 260.917 38.4206 260.719 38.7806 260.323C39.1406 259.915 39.3206 259.357 39.3206 258.649V253.753H40.9406V258.721C40.9406 259.465 40.7846 260.119 40.4726 260.683C40.1606 261.247 39.7286 261.691 39.1766 262.015C38.6366 262.327 38.0006 262.483 37.2686 262.483ZM43.1118 262.303V249.451H44.7318V262.303H43.1118ZM48.4161 262.303V250.171H50.0361V262.303H48.4161ZM46.3101 255.229V253.753H52.1421V255.229H46.3101ZM53.747 262.303V253.753H55.367V262.303H53.747ZM54.557 252.043C54.257 252.043 54.011 251.947 53.819 251.755C53.627 251.551 53.531 251.299 53.531 250.999C53.531 250.711 53.627 250.471 53.819 250.279C54.011 250.075 54.257 249.973 54.557 249.973C54.857 249.973 55.103 250.075 55.295 250.279C55.487 250.471 55.583 250.711 55.583 250.999C55.583 251.299 55.487 251.551 55.295 251.755C55.103 251.947 54.857 252.043 54.557 252.043ZM57.7544 258.487V256.957H63.6764V258.487H57.7544ZM70.2385 262.483C69.3985 262.483 68.6425 262.285 67.9705 261.889C67.2985 261.493 66.7645 260.959 66.3685 260.287C65.9725 259.603 65.7745 258.841 65.7745 258.001C65.7745 257.173 65.9725 256.429 66.3685 255.769C66.7645 255.097 67.2985 254.563 67.9705 254.167C68.6425 253.771 69.3985 253.573 70.2385 253.573C71.0665 253.573 71.8165 253.771 72.4885 254.167C73.1725 254.551 73.7125 255.079 74.1085 255.751C74.5045 256.423 74.7025 257.173 74.7025 258.001C74.7025 258.841 74.5045 259.603 74.1085 260.287C73.7125 260.959 73.1725 261.493 72.4885 261.889C71.8165 262.285 71.0665 262.483 70.2385 262.483ZM70.2385 260.917C70.7785 260.917 71.2585 260.791 71.6785 260.539C72.0985 260.287 72.4285 259.945 72.6685 259.513C72.9085 259.069 73.0285 258.565 73.0285 258.001C73.0285 257.449 72.9025 256.957 72.6505 256.525C72.4105 256.093 72.0805 255.757 71.6605 255.517C71.2525 255.265 70.7785 255.139 70.2385 255.139C69.6985 255.139 69.2185 255.265 68.7985 255.517C68.3785 255.757 68.0485 256.093 67.8085 256.525C67.5685 256.957 67.4485 257.449 67.4485 258.001C67.4485 258.565 67.5685 259.069 67.8085 259.513C68.0485 259.945 68.3785 260.287 68.7985 260.539C69.2185 260.791 69.6985 260.917 70.2385 260.917ZM76.5278 262.303V253.753H78.1478V262.303H76.5278ZM82.3058 262.303V257.137C82.3058 256.501 82.1078 256.003 81.7118 255.643C81.3278 255.271 80.8418 255.085 80.2538 255.085C79.8578 255.085 79.5038 255.169 79.1918 255.337C78.8798 255.505 78.6278 255.739 78.4358 256.039C78.2438 256.339 78.1478 256.699 78.1478 257.119L77.4818 256.795C77.4818 256.147 77.6198 255.583 77.8958 255.103C78.1838 254.623 78.5738 254.251 79.0658 253.987C79.5578 253.711 80.1098 253.573 80.7218 253.573C81.3218 253.573 81.8618 253.705 82.3418 253.969C82.8338 254.233 83.2178 254.605 83.4938 255.085C83.7818 255.565 83.9258 256.135 83.9258 256.795V262.303H82.3058ZM88.0838 262.303V257.137C88.0838 256.501 87.8858 256.003 87.4898 255.643C87.1058 255.271 86.6258 255.085 86.0498 255.085C85.6538 255.085 85.2938 255.169 84.9698 255.337C84.6578 255.505 84.4058 255.739 84.2138 256.039C84.0218 256.339 83.9258 256.699 83.9258 257.119L83.0078 256.795C83.0438 256.135 83.2178 255.571 83.5298 255.103C83.8538 254.623 84.2678 254.251 84.7718 253.987C85.2758 253.711 85.8278 253.573 86.4278 253.573C87.0518 253.573 87.6098 253.705 88.1018 253.969C88.5938 254.233 88.9838 254.605 89.2718 255.085C89.5718 255.565 89.7218 256.141 89.7218 256.813V262.303H88.0838ZM91.9443 262.303V253.753H93.5643V262.303H91.9443ZM92.7543 252.043C92.4543 252.043 92.2083 251.947 92.0163 251.755C91.8243 251.551 91.7283 251.299 91.7283 250.999C91.7283 250.711 91.8243 250.471 92.0163 250.279C92.2083 250.075 92.4543 249.973 92.7543 249.973C93.0543 249.973 93.3003 250.075 93.4923 250.279C93.6843 250.471 93.7803 250.711 93.7803 250.999C93.7803 251.299 93.6843 251.551 93.4923 251.755C93.3003 251.947 93.0543 252.043 92.7543 252.043ZM99.8577 262.483C99.0177 262.483 98.2557 262.285 97.5717 261.889C96.8997 261.493 96.3657 260.959 95.9697 260.287C95.5857 259.603 95.3937 258.847 95.3937 258.019C95.3937 257.179 95.5857 256.423 95.9697 255.751C96.3657 255.079 96.8997 254.551 97.5717 254.167C98.2557 253.771 99.0177 253.573 99.8577 253.573C100.518 253.573 101.13 253.699 101.694 253.951C102.258 254.191 102.744 254.545 103.152 255.013L102.072 256.093C101.808 255.781 101.484 255.547 101.1 255.391C100.728 255.223 100.314 255.139 99.8577 255.139C99.3177 255.139 98.8377 255.265 98.4177 255.517C97.9977 255.757 97.6677 256.093 97.4277 256.525C97.1877 256.957 97.0677 257.455 97.0677 258.019C97.0677 258.583 97.1877 259.081 97.4277 259.513C97.6677 259.945 97.9977 260.287 98.4177 260.539C98.8377 260.791 99.3177 260.917 99.8577 260.917C100.314 260.917 100.728 260.839 101.1 260.683C101.484 260.515 101.814 260.275 102.09 259.963L103.152 261.043C102.756 261.499 102.27 261.853 101.694 262.105C101.13 262.357 100.518 262.483 99.8577 262.483ZM107.476 262.483C106.996 262.483 106.54 262.423 106.108 262.303C105.688 262.171 105.298 261.991 104.938 261.763C104.578 261.523 104.266 261.241 104.002 260.917L105.046 259.873C105.358 260.257 105.718 260.545 106.126 260.737C106.534 260.917 106.99 261.007 107.494 261.007C107.998 261.007 108.388 260.923 108.664 260.755C108.94 260.575 109.078 260.329 109.078 260.017C109.078 259.705 108.964 259.465 108.736 259.297C108.52 259.117 108.238 258.973 107.89 258.865C107.542 258.745 107.17 258.631 106.774 258.523C106.39 258.403 106.024 258.253 105.676 258.073C105.328 257.893 105.04 257.647 104.812 257.335C104.596 257.023 104.488 256.609 104.488 256.093C104.488 255.577 104.614 255.133 104.866 254.761C105.118 254.377 105.466 254.083 105.91 253.879C106.366 253.675 106.912 253.573 107.548 253.573C108.22 253.573 108.814 253.693 109.33 253.933C109.858 254.161 110.29 254.509 110.626 254.977L109.582 256.021C109.342 255.709 109.042 255.469 108.682 255.301C108.334 255.133 107.938 255.049 107.494 255.049C107.026 255.049 106.666 255.133 106.414 255.301C106.174 255.457 106.054 255.679 106.054 255.967C106.054 256.255 106.162 256.477 106.378 256.633C106.594 256.789 106.876 256.921 107.224 257.029C107.584 257.137 107.956 257.251 108.34 257.371C108.724 257.479 109.09 257.629 109.438 257.821C109.786 258.013 110.068 258.271 110.284 258.595C110.512 258.919 110.626 259.345 110.626 259.873C110.626 260.677 110.338 261.313 109.762 261.781C109.198 262.249 108.436 262.483 107.476 262.483ZM119.802 262.483C119.01 262.483 118.302 262.291 117.678 261.907C117.054 261.511 116.556 260.977 116.184 260.305C115.824 259.633 115.644 258.877 115.644 258.037C115.644 257.197 115.824 256.441 116.184 255.769C116.556 255.097 117.054 254.563 117.678 254.167C118.302 253.771 119.01 253.573 119.802 253.573C120.438 253.573 121.014 253.711 121.53 253.987C122.046 254.251 122.46 254.623 122.772 255.103C123.096 255.571 123.276 256.117 123.312 256.741V259.315C123.276 259.927 123.102 260.473 122.79 260.953C122.478 261.433 122.064 261.811 121.548 262.087C121.032 262.351 120.45 262.483 119.802 262.483ZM120.072 260.953C120.612 260.953 121.08 260.827 121.476 260.575C121.884 260.323 122.202 259.981 122.43 259.549C122.658 259.105 122.772 258.601 122.772 258.037C122.772 257.449 122.652 256.939 122.412 256.507C122.184 256.075 121.866 255.733 121.458 255.481C121.062 255.229 120.594 255.103 120.054 255.103C119.514 255.103 119.04 255.229 118.632 255.481C118.224 255.733 117.9 256.081 117.66 256.525C117.432 256.957 117.318 257.455 117.318 258.019C117.318 258.595 117.432 259.105 117.66 259.549C117.9 259.981 118.224 260.323 118.632 260.575C119.052 260.827 119.532 260.953 120.072 260.953ZM124.302 262.303H122.664V259.999L122.97 257.911L122.664 255.841V249.451H124.302V262.303ZM130.297 262.483C129.517 262.483 128.809 262.291 128.173 261.907C127.537 261.511 127.033 260.977 126.661 260.305C126.301 259.633 126.121 258.877 126.121 258.037C126.121 257.197 126.301 256.441 126.661 255.769C127.033 255.097 127.531 254.563 128.155 254.167C128.791 253.771 129.505 253.573 130.297 253.573C130.945 253.573 131.521 253.711 132.025 253.987C132.541 254.251 132.955 254.623 133.267 255.103C133.579 255.571 133.753 256.117 133.789 256.741V259.315C133.753 259.927 133.579 260.473 133.267 260.953C132.967 261.433 132.559 261.811 132.043 262.087C131.539 262.351 130.957 262.483 130.297 262.483ZM130.567 260.953C131.371 260.953 132.019 260.683 132.511 260.143C133.003 259.591 133.249 258.889 133.249 258.037C133.249 257.449 133.135 256.939 132.907 256.507C132.691 256.063 132.379 255.721 131.971 255.481C131.563 255.229 131.089 255.103 130.549 255.103C130.009 255.103 129.529 255.229 129.109 255.481C128.701 255.733 128.377 256.081 128.137 256.525C127.909 256.957 127.795 257.455 127.795 258.019C127.795 258.595 127.909 259.105 128.137 259.549C128.377 259.981 128.707 260.323 129.127 260.575C129.547 260.827 130.027 260.953 130.567 260.953ZM133.141 262.303V259.999L133.447 257.911L133.141 255.841V253.753H134.779V262.303H133.141ZM138.416 262.303V250.171H140.036V262.303H138.416ZM136.31 255.229V253.753H142.142V255.229H136.31ZM147.101 262.483C146.321 262.483 145.613 262.291 144.977 261.907C144.341 261.511 143.837 260.977 143.465 260.305C143.105 259.633 142.925 258.877 142.925 258.037C142.925 257.197 143.105 256.441 143.465 255.769C143.837 255.097 144.335 254.563 144.959 254.167C145.595 253.771 146.309 253.573 147.101 253.573C147.749 253.573 148.325 253.711 148.829 253.987C149.345 254.251 149.759 254.623 150.071 255.103C150.383 255.571 150.557 256.117 150.593 256.741V259.315C150.557 259.927 150.383 260.473 150.071 260.953C149.771 261.433 149.363 261.811 148.847 262.087C148.343 262.351 147.761 262.483 147.101 262.483ZM147.371 260.953C148.175 260.953 148.823 260.683 149.315 260.143C149.807 259.591 150.053 258.889 150.053 258.037C150.053 257.449 149.939 256.939 149.711 256.507C149.495 256.063 149.183 255.721 148.775 255.481C148.367 255.229 147.893 255.103 147.353 255.103C146.813 255.103 146.333 255.229 145.913 255.481C145.505 255.733 145.181 256.081 144.941 256.525C144.713 256.957 144.599 257.455 144.599 258.019C144.599 258.595 144.713 259.105 144.941 259.549C145.181 259.981 145.511 260.323 145.931 260.575C146.351 260.827 146.831 260.953 147.371 260.953ZM149.945 262.303V259.999L150.251 257.911L149.945 255.841V253.753H151.583V262.303H149.945ZM158.442 262.483C157.794 262.483 157.206 262.351 156.678 262.087C156.162 261.811 155.748 261.433 155.436 260.953C155.124 260.473 154.95 259.927 154.914 259.315V256.741C154.95 256.117 155.124 255.571 155.436 255.103C155.76 254.623 156.18 254.251 156.696 253.987C157.224 253.711 157.806 253.573 158.442 253.573C159.222 253.573 159.924 253.771 160.548 254.167C161.184 254.563 161.682 255.097 162.042 255.769C162.402 256.441 162.582 257.197 162.582 258.037C162.582 258.877 162.402 259.633 162.042 260.305C161.682 260.977 161.184 261.511 160.548 261.907C159.924 262.291 159.222 262.483 158.442 262.483ZM158.172 260.953C158.712 260.953 159.186 260.827 159.594 260.575C160.002 260.323 160.326 259.981 160.566 259.549C160.806 259.105 160.926 258.595 160.926 258.019C160.926 257.455 160.806 256.951 160.566 256.507C160.326 256.063 160.002 255.721 159.594 255.481C159.186 255.229 158.718 255.103 158.19 255.103C157.65 255.103 157.176 255.229 156.768 255.481C156.36 255.721 156.042 256.063 155.814 256.507C155.586 256.951 155.472 257.461 155.472 258.037C155.472 258.601 155.58 259.105 155.796 259.549C156.024 259.981 156.342 260.323 156.75 260.575C157.17 260.827 157.644 260.953 158.172 260.953ZM153.942 262.303V249.451H155.562V255.841L155.256 257.911L155.562 259.999V262.303H153.942ZM168.054 262.483C167.274 262.483 166.566 262.291 165.93 261.907C165.294 261.511 164.79 260.977 164.418 260.305C164.058 259.633 163.878 258.877 163.878 258.037C163.878 257.197 164.058 256.441 164.418 255.769C164.79 255.097 165.288 254.563 165.912 254.167C166.548 253.771 167.262 253.573 168.054 253.573C168.702 253.573 169.278 253.711 169.782 253.987C170.298 254.251 170.712 254.623 171.024 255.103C171.336 255.571 171.51 256.117 171.546 256.741V259.315C171.51 259.927 171.336 260.473 171.024 260.953C170.724 261.433 170.316 261.811 169.8 262.087C169.296 262.351 168.714 262.483 168.054 262.483ZM168.324 260.953C169.128 260.953 169.776 260.683 170.268 260.143C170.76 259.591 171.006 258.889 171.006 258.037C171.006 257.449 170.892 256.939 170.664 256.507C170.448 256.063 170.136 255.721 169.728 255.481C169.32 255.229 168.846 255.103 168.306 255.103C167.766 255.103 167.286 255.229 166.866 255.481C166.458 255.733 166.134 256.081 165.894 256.525C165.666 256.957 165.552 257.455 165.552 258.019C165.552 258.595 165.666 259.105 165.894 259.549C166.134 259.981 166.464 260.323 166.884 260.575C167.304 260.827 167.784 260.953 168.324 260.953ZM170.898 262.303V259.999L171.204 257.911L170.898 255.841V253.753H172.536V262.303H170.898ZM177.613 262.483C177.133 262.483 176.677 262.423 176.245 262.303C175.825 262.171 175.435 261.991 175.075 261.763C174.715 261.523 174.403 261.241 174.139 260.917L175.183 259.873C175.495 260.257 175.855 260.545 176.263 260.737C176.671 260.917 177.127 261.007 177.631 261.007C178.135 261.007 178.525 260.923 178.801 260.755C179.077 260.575 179.215 260.329 179.215 260.017C179.215 259.705 179.101 259.465 178.873 259.297C178.657 259.117 178.375 258.973 178.027 258.865C177.679 258.745 177.307 258.631 176.911 258.523C176.527 258.403 176.161 258.253 175.813 258.073C175.465 257.893 175.177 257.647 174.949 257.335C174.733 257.023 174.625 256.609 174.625 256.093C174.625 255.577 174.751 255.133 175.003 254.761C175.255 254.377 175.603 254.083 176.047 253.879C176.503 253.675 177.049 253.573 177.685 253.573C178.357 253.573 178.951 253.693 179.467 253.933C179.995 254.161 180.427 254.509 180.763 254.977L179.719 256.021C179.479 255.709 179.179 255.469 178.819 255.301C178.471 255.133 178.075 255.049 177.631 255.049C177.163 255.049 176.803 255.133 176.551 255.301C176.311 255.457 176.191 255.679 176.191 255.967C176.191 256.255 176.299 256.477 176.515 256.633C176.731 256.789 177.013 256.921 177.361 257.029C177.721 257.137 178.093 257.251 178.477 257.371C178.861 257.479 179.227 257.629 179.575 257.821C179.923 258.013 180.205 258.271 180.421 258.595C180.649 258.919 180.763 259.345 180.763 259.873C180.763 260.677 180.475 261.313 179.899 261.781C179.335 262.249 178.573 262.483 177.613 262.483ZM186.537 262.483C185.685 262.483 184.917 262.291 184.233 261.907C183.549 261.511 183.009 260.977 182.613 260.305C182.217 259.633 182.019 258.871 182.019 258.019C182.019 257.179 182.211 256.423 182.595 255.751C182.991 255.079 183.519 254.551 184.179 254.167C184.851 253.771 185.601 253.573 186.429 253.573C187.221 253.573 187.917 253.753 188.517 254.113C189.129 254.473 189.603 254.971 189.939 255.607C190.287 256.243 190.461 256.963 190.461 257.767C190.461 257.887 190.455 258.019 190.443 258.163C190.431 258.295 190.407 258.451 190.371 258.631H183.153V257.281H189.507L188.913 257.803C188.913 257.227 188.811 256.741 188.607 256.345C188.403 255.937 188.115 255.625 187.743 255.409C187.371 255.181 186.921 255.067 186.393 255.067C185.841 255.067 185.355 255.187 184.935 255.427C184.515 255.667 184.191 256.003 183.963 256.435C183.735 256.867 183.621 257.377 183.621 257.965C183.621 258.565 183.741 259.093 183.981 259.549C184.221 259.993 184.563 260.341 185.007 260.593C185.451 260.833 185.961 260.953 186.537 260.953C187.017 260.953 187.455 260.869 187.851 260.701C188.259 260.533 188.607 260.281 188.895 259.945L189.939 261.007C189.531 261.487 189.027 261.853 188.427 262.105C187.839 262.357 187.209 262.483 186.537 262.483ZM199.877 262.483C199.037 262.483 198.281 262.285 197.609 261.889C196.937 261.493 196.403 260.959 196.007 260.287C195.611 259.603 195.413 258.841 195.413 258.001C195.413 257.173 195.611 256.429 196.007 255.769C196.403 255.097 196.937 254.563 197.609 254.167C198.281 253.771 199.037 253.573 199.877 253.573C200.705 253.573 201.455 253.771 202.127 254.167C202.811 254.551 203.351 255.079 203.747 255.751C204.143 256.423 204.341 257.173 204.341 258.001C204.341 258.841 204.143 259.603 203.747 260.287C203.351 260.959 202.811 261.493 202.127 261.889C201.455 262.285 200.705 262.483 199.877 262.483ZM199.877 260.917C200.417 260.917 200.897 260.791 201.317 260.539C201.737 260.287 202.067 259.945 202.307 259.513C202.547 259.069 202.667 258.565 202.667 258.001C202.667 257.449 202.541 256.957 202.289 256.525C202.049 256.093 201.719 255.757 201.299 255.517C200.891 255.265 200.417 255.139 199.877 255.139C199.337 255.139 198.857 255.265 198.437 255.517C198.017 255.757 197.687 256.093 197.447 256.525C197.207 256.957 197.087 257.449 197.087 258.001C197.087 258.565 197.207 259.069 197.447 259.513C197.687 259.945 198.017 260.287 198.437 260.539C198.857 260.791 199.337 260.917 199.877 260.917ZM207.127 262.303V252.475C207.127 251.839 207.265 251.287 207.541 250.819C207.817 250.339 208.195 249.961 208.675 249.685C209.167 249.409 209.737 249.271 210.385 249.271C210.877 249.271 211.303 249.355 211.663 249.523C212.023 249.691 212.353 249.937 212.653 250.261L211.591 251.305C211.435 251.137 211.261 251.011 211.069 250.927C210.877 250.831 210.643 250.783 210.367 250.783C209.851 250.783 209.449 250.933 209.161 251.233C208.885 251.533 208.747 251.947 208.747 252.475V262.303H207.127ZM205.021 255.229V253.753H211.465V255.229H205.021ZM222.812 262.483C221.924 262.483 221.096 262.321 220.328 261.997C219.56 261.661 218.888 261.199 218.312 260.611C217.736 260.011 217.286 259.321 216.962 258.541C216.65 257.761 216.494 256.927 216.494 256.039C216.494 255.139 216.65 254.305 216.962 253.537C217.286 252.757 217.73 252.073 218.294 251.485C218.87 250.897 219.536 250.441 220.292 250.117C221.06 249.793 221.888 249.631 222.776 249.631C223.664 249.631 224.486 249.793 225.242 250.117C226.01 250.441 226.682 250.897 227.258 251.485C227.834 252.073 228.284 252.757 228.608 253.537C228.932 254.317 229.094 255.157 229.094 256.057C229.094 256.945 228.932 257.779 228.608 258.559C228.284 259.339 227.834 260.023 227.258 260.611C226.694 261.199 226.028 261.661 225.26 261.997C224.504 262.321 223.688 262.483 222.812 262.483ZM222.776 260.863C223.676 260.863 224.462 260.659 225.134 260.251C225.818 259.831 226.358 259.261 226.754 258.541C227.15 257.809 227.348 256.975 227.348 256.039C227.348 255.343 227.234 254.707 227.006 254.131C226.778 253.543 226.46 253.033 226.052 252.601C225.644 252.169 225.164 251.839 224.612 251.611C224.06 251.371 223.448 251.251 222.776 251.251C221.888 251.251 221.102 251.455 220.418 251.863C219.746 252.271 219.212 252.835 218.816 253.555C218.432 254.275 218.24 255.103 218.24 256.039C218.24 256.735 218.348 257.383 218.564 257.983C218.792 258.571 219.104 259.081 219.5 259.513C219.908 259.933 220.388 260.263 220.94 260.503C221.504 260.743 222.116 260.863 222.776 260.863ZM234.565 262.483C233.869 262.483 233.239 262.327 232.675 262.015C232.123 261.691 231.691 261.247 231.379 260.683C231.067 260.119 230.911 259.465 230.911 258.721V253.753H232.531V258.649C232.531 259.117 232.609 259.525 232.765 259.873C232.933 260.209 233.173 260.467 233.485 260.647C233.797 260.827 234.163 260.917 234.583 260.917C235.219 260.917 235.717 260.719 236.077 260.323C236.437 259.915 236.617 259.357 236.617 258.649V253.753H238.237V258.721C238.237 259.465 238.081 260.119 237.769 260.683C237.457 261.247 237.025 261.691 236.473 262.015C235.933 262.327 235.297 262.483 234.565 262.483ZM241.723 262.303V250.171H243.343V262.303H241.723ZM239.617 255.229V253.753H245.449V255.229H239.617ZM247.036 262.303V249.451H248.656V262.303H247.036ZM251.044 262.303V253.753H252.664V262.303H251.044ZM251.854 252.043C251.554 252.043 251.308 251.947 251.116 251.755C250.924 251.551 250.828 251.299 250.828 250.999C250.828 250.711 250.924 250.471 251.116 250.279C251.308 250.075 251.554 249.973 251.854 249.973C252.154 249.973 252.4 250.075 252.592 250.279C252.784 250.471 252.88 250.711 252.88 250.999C252.88 251.299 252.784 251.551 252.592 251.755C252.4 251.947 252.154 252.043 251.854 252.043ZM259.011 262.483C258.159 262.483 257.391 262.291 256.707 261.907C256.023 261.511 255.483 260.977 255.087 260.305C254.691 259.633 254.493 258.871 254.493 258.019C254.493 257.179 254.685 256.423 255.069 255.751C255.465 255.079 255.993 254.551 256.653 254.167C257.325 253.771 258.075 253.573 258.903 253.573C259.695 253.573 260.391 253.753 260.991 254.113C261.603 254.473 262.077 254.971 262.413 255.607C262.761 256.243 262.935 256.963 262.935 257.767C262.935 257.887 262.929 258.019 262.917 258.163C262.905 258.295 262.881 258.451 262.845 258.631H255.627V257.281H261.981L261.387 257.803C261.387 257.227 261.285 256.741 261.081 256.345C260.877 255.937 260.589 255.625 260.217 255.409C259.845 255.181 259.395 255.067 258.867 255.067C258.315 255.067 257.829 255.187 257.409 255.427C256.989 255.667 256.665 256.003 256.437 256.435C256.209 256.867 256.095 257.377 256.095 257.965C256.095 258.565 256.215 259.093 256.455 259.549C256.695 259.993 257.037 260.341 257.481 260.593C257.925 260.833 258.435 260.953 259.011 260.953C259.491 260.953 259.929 260.869 260.325 260.701C260.733 260.533 261.081 260.281 261.369 259.945L262.413 261.007C262.005 261.487 261.501 261.853 260.901 262.105C260.313 262.357 259.683 262.483 259.011 262.483ZM264.702 262.303V253.753H266.322V262.303H264.702ZM266.322 257.425L265.71 257.155C265.71 256.063 265.962 255.193 266.466 254.545C266.97 253.897 267.696 253.573 268.644 253.573C269.076 253.573 269.466 253.651 269.814 253.807C270.162 253.951 270.486 254.197 270.786 254.545L269.724 255.643C269.544 255.451 269.346 255.313 269.13 255.229C268.914 255.145 268.662 255.103 268.374 255.103C267.774 255.103 267.282 255.295 266.898 255.679C266.514 256.063 266.322 256.645 266.322 257.425ZM274.451 262.483C273.971 262.483 273.515 262.423 273.083 262.303C272.663 262.171 272.273 261.991 271.913 261.763C271.553 261.523 271.241 261.241 270.977 260.917L272.021 259.873C272.333 260.257 272.693 260.545 273.101 260.737C273.509 260.917 273.965 261.007 274.469 261.007C274.973 261.007 275.363 260.923 275.639 260.755C275.915 260.575 276.053 260.329 276.053 260.017C276.053 259.705 275.939 259.465 275.711 259.297C275.495 259.117 275.213 258.973 274.865 258.865C274.517 258.745 274.145 258.631 273.749 258.523C273.365 258.403 272.999 258.253 272.651 258.073C272.303 257.893 272.015 257.647 271.787 257.335C271.571 257.023 271.463 256.609 271.463 256.093C271.463 255.577 271.589 255.133 271.841 254.761C272.093 254.377 272.441 254.083 272.885 253.879C273.341 253.675 273.887 253.573 274.523 253.573C275.195 253.573 275.789 253.693 276.305 253.933C276.833 254.161 277.265 254.509 277.601 254.977L276.557 256.021C276.317 255.709 276.017 255.469 275.657 255.301C275.309 255.133 274.913 255.049 274.469 255.049C274.001 255.049 273.641 255.133 273.389 255.301C273.149 255.457 273.029 255.679 273.029 255.967C273.029 256.255 273.137 256.477 273.353 256.633C273.569 256.789 273.851 256.921 274.199 257.029C274.559 257.137 274.931 257.251 275.315 257.371C275.699 257.479 276.065 257.629 276.413 257.821C276.761 258.013 277.043 258.271 277.259 258.595C277.487 258.919 277.601 259.345 277.601 259.873C277.601 260.677 277.313 261.313 276.737 261.781C276.173 262.249 275.411 262.483 274.451 262.483ZM286.795 262.483C286.015 262.483 285.307 262.291 284.671 261.907C284.035 261.511 283.531 260.977 283.159 260.305C282.799 259.633 282.619 258.877 282.619 258.037C282.619 257.197 282.799 256.441 283.159 255.769C283.531 255.097 284.029 254.563 284.653 254.167C285.289 253.771 286.003 253.573 286.795 253.573C287.443 253.573 288.019 253.711 288.523 253.987C289.039 254.251 289.453 254.623 289.765 255.103C290.077 255.571 290.251 256.117 290.287 256.741V259.315C290.251 259.927 290.077 260.473 289.765 260.953C289.465 261.433 289.057 261.811 288.541 262.087C288.037 262.351 287.455 262.483 286.795 262.483ZM287.065 260.953C287.869 260.953 288.517 260.683 289.009 260.143C289.501 259.591 289.747 258.889 289.747 258.037C289.747 257.449 289.633 256.939 289.405 256.507C289.189 256.063 288.877 255.721 288.469 255.481C288.061 255.229 287.587 255.103 287.047 255.103C286.507 255.103 286.027 255.229 285.607 255.481C285.199 255.733 284.875 256.081 284.635 256.525C284.407 256.957 284.293 257.455 284.293 258.019C284.293 258.595 284.407 259.105 284.635 259.549C284.875 259.981 285.205 260.323 285.625 260.575C286.045 260.827 286.525 260.953 287.065 260.953ZM289.639 262.303V259.999L289.945 257.911L289.639 255.841V253.753H291.277V262.303H289.639ZM297.541 262.483C296.701 262.483 295.939 262.285 295.255 261.889C294.583 261.493 294.049 260.959 293.653 260.287C293.269 259.603 293.077 258.847 293.077 258.019C293.077 257.179 293.269 256.423 293.653 255.751C294.049 255.079 294.583 254.551 295.255 254.167C295.939 253.771 296.701 253.573 297.541 253.573C298.201 253.573 298.813 253.699 299.377 253.951C299.941 254.191 300.427 254.545 300.835 255.013L299.755 256.093C299.491 255.781 299.167 255.547 298.783 255.391C298.411 255.223 297.997 255.139 297.541 255.139C297.001 255.139 296.521 255.265 296.101 255.517C295.681 255.757 295.351 256.093 295.111 256.525C294.871 256.957 294.751 257.455 294.751 258.019C294.751 258.583 294.871 259.081 295.111 259.513C295.351 259.945 295.681 260.287 296.101 260.539C296.521 260.791 297.001 260.917 297.541 260.917C297.997 260.917 298.411 260.839 298.783 260.683C299.167 260.515 299.497 260.275 299.773 259.963L300.835 261.043C300.439 261.499 299.953 261.853 299.377 262.105C298.813 262.357 298.201 262.483 297.541 262.483ZM302.442 262.303V253.753H304.062V262.303H302.442ZM304.062 257.425L303.45 257.155C303.45 256.063 303.702 255.193 304.206 254.545C304.71 253.897 305.436 253.573 306.384 253.573C306.816 253.573 307.206 253.651 307.554 253.807C307.902 253.951 308.226 254.197 308.526 254.545L307.464 255.643C307.284 255.451 307.086 255.313 306.87 255.229C306.654 255.145 306.402 255.103 306.114 255.103C305.514 255.103 305.022 255.295 304.638 255.679C304.254 256.063 304.062 256.645 304.062 257.425ZM313.291 262.483C312.451 262.483 311.695 262.285 311.023 261.889C310.351 261.493 309.817 260.959 309.421 260.287C309.025 259.603 308.827 258.841 308.827 258.001C308.827 257.173 309.025 256.429 309.421 255.769C309.817 255.097 310.351 254.563 311.023 254.167C311.695 253.771 312.451 253.573 313.291 253.573C314.119 253.573 314.869 253.771 315.541 254.167C316.225 254.551 316.765 255.079 317.161 255.751C317.557 256.423 317.755 257.173 317.755 258.001C317.755 258.841 317.557 259.603 317.161 260.287C316.765 260.959 316.225 261.493 315.541 261.889C314.869 262.285 314.119 262.483 313.291 262.483ZM313.291 260.917C313.831 260.917 314.311 260.791 314.731 260.539C315.151 260.287 315.481 259.945 315.721 259.513C315.961 259.069 316.081 258.565 316.081 258.001C316.081 257.449 315.955 256.957 315.703 256.525C315.463 256.093 315.133 255.757 314.713 255.517C314.305 255.265 313.831 255.139 313.291 255.139C312.751 255.139 312.271 255.265 311.851 255.517C311.431 255.757 311.101 256.093 310.861 256.525C310.621 256.957 310.501 257.449 310.501 258.001C310.501 258.565 310.621 259.069 310.861 259.513C311.101 259.945 311.431 260.287 311.851 260.539C312.271 260.791 312.751 260.917 313.291 260.917ZM322.299 262.483C321.819 262.483 321.363 262.423 320.931 262.303C320.511 262.171 320.121 261.991 319.761 261.763C319.401 261.523 319.089 261.241 318.825 260.917L319.869 259.873C320.181 260.257 320.541 260.545 320.949 260.737C321.357 260.917 321.813 261.007 322.317 261.007C322.821 261.007 323.211 260.923 323.487 260.755C323.763 260.575 323.901 260.329 323.901 260.017C323.901 259.705 323.787 259.465 323.559 259.297C323.343 259.117 323.061 258.973 322.713 258.865C322.365 258.745 321.993 258.631 321.597 258.523C321.213 258.403 320.847 258.253 320.499 258.073C320.151 257.893 319.863 257.647 319.635 257.335C319.419 257.023 319.311 256.609 319.311 256.093C319.311 255.577 319.437 255.133 319.689 254.761C319.941 254.377 320.289 254.083 320.733 253.879C321.189 253.675 321.735 253.573 322.371 253.573C323.043 253.573 323.637 253.693 324.153 253.933C324.681 254.161 325.113 254.509 325.449 254.977L324.405 256.021C324.165 255.709 323.865 255.469 323.505 255.301C323.157 255.133 322.761 255.049 322.317 255.049C321.849 255.049 321.489 255.133 321.237 255.301C320.997 255.457 320.877 255.679 320.877 255.967C320.877 256.255 320.985 256.477 321.201 256.633C321.417 256.789 321.699 256.921 322.047 257.029C322.407 257.137 322.779 257.251 323.163 257.371C323.547 257.479 323.913 257.629 324.261 257.821C324.609 258.013 324.891 258.271 325.107 258.595C325.335 258.919 325.449 259.345 325.449 259.873C325.449 260.677 325.161 261.313 324.585 261.781C324.021 262.249 323.259 262.483 322.299 262.483ZM329.98 262.483C329.5 262.483 329.044 262.423 328.612 262.303C328.192 262.171 327.802 261.991 327.442 261.763C327.082 261.523 326.77 261.241 326.506 260.917L327.55 259.873C327.862 260.257 328.222 260.545 328.63 260.737C329.038 260.917 329.494 261.007 329.998 261.007C330.502 261.007 330.892 260.923 331.168 260.755C331.444 260.575 331.582 260.329 331.582 260.017C331.582 259.705 331.468 259.465 331.24 259.297C331.024 259.117 330.742 258.973 330.394 258.865C330.046 258.745 329.674 258.631 329.278 258.523C328.894 258.403 328.528 258.253 328.18 258.073C327.832 257.893 327.544 257.647 327.316 257.335C327.1 257.023 326.992 256.609 326.992 256.093C326.992 255.577 327.118 255.133 327.37 254.761C327.622 254.377 327.97 254.083 328.414 253.879C328.87 253.675 329.416 253.573 330.052 253.573C330.724 253.573 331.318 253.693 331.834 253.933C332.362 254.161 332.794 254.509 333.13 254.977L332.086 256.021C331.846 255.709 331.546 255.469 331.186 255.301C330.838 255.133 330.442 255.049 329.998 255.049C329.53 255.049 329.17 255.133 328.918 255.301C328.678 255.457 328.558 255.679 328.558 255.967C328.558 256.255 328.666 256.477 328.882 256.633C329.098 256.789 329.38 256.921 329.728 257.029C330.088 257.137 330.46 257.251 330.844 257.371C331.228 257.479 331.594 257.629 331.942 257.821C332.29 258.013 332.572 258.271 332.788 258.595C333.016 258.919 333.13 259.345 333.13 259.873C333.13 260.677 332.842 261.313 332.266 261.781C331.702 262.249 330.94 262.483 329.98 262.483ZM125.296 285.483C124.516 285.483 123.808 285.291 123.172 284.907C122.536 284.511 122.032 283.977 121.66 283.305C121.3 282.633 121.12 281.877 121.12 281.037C121.12 280.197 121.3 279.441 121.66 278.769C122.032 278.097 122.53 277.563 123.154 277.167C123.79 276.771 124.504 276.573 125.296 276.573C125.944 276.573 126.52 276.711 127.024 276.987C127.54 277.251 127.954 277.623 128.266 278.103C128.578 278.571 128.752 279.117 128.788 279.741V282.315C128.752 282.927 128.578 283.473 128.266 283.953C127.966 284.433 127.558 284.811 127.042 285.087C126.538 285.351 125.956 285.483 125.296 285.483ZM125.566 283.953C126.37 283.953 127.018 283.683 127.51 283.143C128.002 282.591 128.248 281.889 128.248 281.037C128.248 280.449 128.134 279.939 127.906 279.507C127.69 279.063 127.378 278.721 126.97 278.481C126.562 278.229 126.088 278.103 125.548 278.103C125.008 278.103 124.528 278.229 124.108 278.481C123.7 278.733 123.376 279.081 123.136 279.525C122.908 279.957 122.794 280.455 122.794 281.019C122.794 281.595 122.908 282.105 123.136 282.549C123.376 282.981 123.706 283.323 124.126 283.575C124.546 283.827 125.026 283.953 125.566 283.953ZM128.14 285.303V282.999L128.446 280.911L128.14 278.841V276.753H129.778V285.303H128.14ZM132.136 285.303V272.451H133.756V285.303H132.136ZM136.126 285.303V272.451H137.746V285.303H136.126ZM147.767 285.483C146.927 285.483 146.165 285.285 145.481 284.889C144.809 284.493 144.275 283.959 143.879 283.287C143.495 282.603 143.303 281.847 143.303 281.019C143.303 280.179 143.495 279.423 143.879 278.751C144.275 278.079 144.809 277.551 145.481 277.167C146.165 276.771 146.927 276.573 147.767 276.573C148.427 276.573 149.039 276.699 149.603 276.951C150.167 277.191 150.653 277.545 151.061 278.013L149.981 279.093C149.717 278.781 149.393 278.547 149.009 278.391C148.637 278.223 148.223 278.139 147.767 278.139C147.227 278.139 146.747 278.265 146.327 278.517C145.907 278.757 145.577 279.093 145.337 279.525C145.097 279.957 144.977 280.455 144.977 281.019C144.977 281.583 145.097 282.081 145.337 282.513C145.577 282.945 145.907 283.287 146.327 283.539C146.747 283.791 147.227 283.917 147.767 283.917C148.223 283.917 148.637 283.839 149.009 283.683C149.393 283.515 149.723 283.275 149.999 282.963L151.061 284.043C150.665 284.499 150.179 284.853 149.603 285.105C149.039 285.357 148.427 285.483 147.767 285.483ZM156.398 285.483C155.558 285.483 154.802 285.285 154.13 284.889C153.458 284.493 152.924 283.959 152.528 283.287C152.132 282.603 151.934 281.841 151.934 281.001C151.934 280.173 152.132 279.429 152.528 278.769C152.924 278.097 153.458 277.563 154.13 277.167C154.802 276.771 155.558 276.573 156.398 276.573C157.226 276.573 157.976 276.771 158.648 277.167C159.332 277.551 159.872 278.079 160.268 278.751C160.664 279.423 160.862 280.173 160.862 281.001C160.862 281.841 160.664 282.603 160.268 283.287C159.872 283.959 159.332 284.493 158.648 284.889C157.976 285.285 157.226 285.483 156.398 285.483ZM156.398 283.917C156.938 283.917 157.418 283.791 157.838 283.539C158.258 283.287 158.588 282.945 158.828 282.513C159.068 282.069 159.188 281.565 159.188 281.001C159.188 280.449 159.062 279.957 158.81 279.525C158.57 279.093 158.24 278.757 157.82 278.517C157.412 278.265 156.938 278.139 156.398 278.139C155.858 278.139 155.378 278.265 154.958 278.517C154.538 278.757 154.208 279.093 153.968 279.525C153.728 279.957 153.608 280.449 153.608 281.001C153.608 281.565 153.728 282.069 153.968 282.513C154.208 282.945 154.538 283.287 154.958 283.539C155.378 283.791 155.858 283.917 156.398 283.917ZM168.735 285.303V280.317C168.735 279.669 168.531 279.135 168.123 278.715C167.715 278.295 167.187 278.085 166.539 278.085C166.107 278.085 165.723 278.181 165.387 278.373C165.051 278.565 164.787 278.829 164.595 279.165C164.403 279.501 164.307 279.885 164.307 280.317L163.641 279.939C163.641 279.291 163.785 278.715 164.073 278.211C164.361 277.707 164.763 277.311 165.279 277.023C165.795 276.723 166.377 276.573 167.025 276.573C167.673 276.573 168.243 276.735 168.735 277.059C169.239 277.383 169.635 277.809 169.923 278.337C170.211 278.853 170.355 279.405 170.355 279.993V285.303H168.735ZM162.687 285.303V276.753H164.307V285.303H162.687ZM173.757 285.303V273.171H175.377V285.303H173.757ZM171.651 278.229V276.753H177.483V278.229H171.651ZM179.088 285.303V276.753H180.708V285.303H179.088ZM179.898 275.043C179.598 275.043 179.352 274.947 179.16 274.755C178.968 274.551 178.872 274.299 178.872 273.999C178.872 273.711 178.968 273.471 179.16 273.279C179.352 273.075 179.598 272.973 179.898 272.973C180.198 272.973 180.444 273.075 180.636 273.279C180.828 273.471 180.924 273.711 180.924 273.999C180.924 274.299 180.828 274.551 180.636 274.755C180.444 274.947 180.198 275.043 179.898 275.043ZM189.143 285.303V280.317C189.143 279.669 188.939 279.135 188.531 278.715C188.123 278.295 187.595 278.085 186.947 278.085C186.515 278.085 186.131 278.181 185.795 278.373C185.459 278.565 185.195 278.829 185.003 279.165C184.811 279.501 184.715 279.885 184.715 280.317L184.049 279.939C184.049 279.291 184.193 278.715 184.481 278.211C184.769 277.707 185.171 277.311 185.687 277.023C186.203 276.723 186.785 276.573 187.433 276.573C188.081 276.573 188.651 276.735 189.143 277.059C189.647 277.383 190.043 277.809 190.331 278.337C190.619 278.853 190.763 279.405 190.763 279.993V285.303H189.143ZM183.095 285.303V276.753H184.715V285.303H183.095ZM196.917 285.483C196.065 285.483 195.297 285.291 194.613 284.907C193.929 284.511 193.389 283.977 192.993 283.305C192.597 282.633 192.399 281.871 192.399 281.019C192.399 280.179 192.591 279.423 192.975 278.751C193.371 278.079 193.899 277.551 194.559 277.167C195.231 276.771 195.981 276.573 196.809 276.573C197.601 276.573 198.297 276.753 198.897 277.113C199.509 277.473 199.983 277.971 200.319 278.607C200.667 279.243 200.841 279.963 200.841 280.767C200.841 280.887 200.835 281.019 200.823 281.163C200.811 281.295 200.787 281.451 200.751 281.631H193.533V280.281H199.887L199.293 280.803C199.293 280.227 199.191 279.741 198.987 279.345C198.783 278.937 198.495 278.625 198.123 278.409C197.751 278.181 197.301 278.067 196.773 278.067C196.221 278.067 195.735 278.187 195.315 278.427C194.895 278.667 194.571 279.003 194.343 279.435C194.115 279.867 194.001 280.377 194.001 280.965C194.001 281.565 194.121 282.093 194.361 282.549C194.601 282.993 194.943 283.341 195.387 283.593C195.831 283.833 196.341 283.953 196.917 283.953C197.397 283.953 197.835 283.869 198.231 283.701C198.639 283.533 198.987 283.281 199.275 282.945L200.319 284.007C199.911 284.487 199.407 284.853 198.807 285.105C198.219 285.357 197.589 285.483 196.917 285.483ZM208.655 285.303V280.317C208.655 279.669 208.451 279.135 208.043 278.715C207.635 278.295 207.107 278.085 206.459 278.085C206.027 278.085 205.643 278.181 205.307 278.373C204.971 278.565 204.707 278.829 204.515 279.165C204.323 279.501 204.227 279.885 204.227 280.317L203.561 279.939C203.561 279.291 203.705 278.715 203.993 278.211C204.281 277.707 204.683 277.311 205.199 277.023C205.715 276.723 206.297 276.573 206.945 276.573C207.593 276.573 208.163 276.735 208.655 277.059C209.159 277.383 209.555 277.809 209.843 278.337C210.131 278.853 210.275 279.405 210.275 279.993V285.303H208.655ZM202.607 285.303V276.753H204.227V285.303H202.607ZM213.677 285.303V273.171H215.297V285.303H213.677ZM211.571 278.229V276.753H217.403V278.229H211.571ZM221.532 285.483C221.052 285.483 220.596 285.423 220.164 285.303C219.744 285.171 219.354 284.991 218.994 284.763C218.634 284.523 218.322 284.241 218.058 283.917L219.102 282.873C219.414 283.257 219.774 283.545 220.182 283.737C220.59 283.917 221.046 284.007 221.55 284.007C222.054 284.007 222.444 283.923 222.72 283.755C222.996 283.575 223.134 283.329 223.134 283.017C223.134 282.705 223.02 282.465 222.792 282.297C222.576 282.117 222.294 281.973 221.946 281.865C221.598 281.745 221.226 281.631 220.83 281.523C220.446 281.403 220.08 281.253 219.732 281.073C219.384 280.893 219.096 280.647 218.868 280.335C218.652 280.023 218.544 279.609 218.544 279.093C218.544 278.577 218.67 278.133 218.922 277.761C219.174 277.377 219.522 277.083 219.966 276.879C220.422 276.675 220.968 276.573 221.604 276.573C222.276 276.573 222.87 276.693 223.386 276.933C223.914 277.161 224.346 277.509 224.682 277.977L223.638 279.021C223.398 278.709 223.098 278.469 222.738 278.301C222.39 278.133 221.994 278.049 221.55 278.049C221.082 278.049 220.722 278.133 220.47 278.301C220.23 278.457 220.11 278.679 220.11 278.967C220.11 279.255 220.218 279.477 220.434 279.633C220.65 279.789 220.932 279.921 221.28 280.029C221.64 280.137 222.012 280.251 222.396 280.371C222.78 280.479 223.146 280.629 223.494 280.821C223.842 281.013 224.124 281.271 224.34 281.595C224.568 281.919 224.682 282.345 224.682 282.873C224.682 283.677 224.394 284.313 223.818 284.781C223.254 285.249 222.492 285.483 221.532 285.483ZM227.918 285.483C227.582 285.483 227.3 285.369 227.072 285.141C226.856 284.901 226.748 284.619 226.748 284.295C226.748 283.959 226.856 283.683 227.072 283.467C227.3 283.239 227.582 283.125 227.918 283.125C228.254 283.125 228.53 283.239 228.746 283.467C228.974 283.683 229.088 283.959 229.088 284.295C229.088 284.619 228.974 284.901 228.746 285.141C228.53 285.369 228.254 285.483 227.918 285.483Z" fill="black"/>
<defs>
<linearGradient id="paint0_linear_429_1252" x1="227.5" y1="365.303" x2="227.5" y2="418.303" gradientUnits="userSpaceOnUse">
<stop stop-color="#FEFAF6"/>
<stop offset="1" stop-color="#FEFAF6" stop-opacity="0"/>
</linearGradient>
<linearGradient id="paint1_linear_429_1252" x1="168" y1="3.14502" x2="168" y2="223.145" gradientUnits="userSpaceOnUse">
<stop stop-color="#F05801"/>
<stop offset="1" stop-color="#4F0FFF"/>
</linearGradient>
</defs>
</svg>
