<svg width="164" height="56" viewBox="0 0 164 56" fill="none" xmlns="http://www.w3.org/2000/svg">
<g clip-path="url(#clip0_1168_48549)">
<path d="M133.185 28.2204H136.11L136.638 28.787V31.441L136.11 32H132.602V31.3738H135.873L136.054 31.1725V29.048L135.873 28.8467H133.185H132.602V28.2204V25.6262V25.328V25H136.638V25.6262H133.185V28.2204Z" stroke="#F96300" stroke-width="1.16226" stroke-miterlimit="8"/>
<path fill-rule="evenodd" clip-rule="evenodd" d="M162.669 31.3738V25H162.086V26.8115H160.266V27.4378H162.086V31.3738H161.245V32H163.517V31.3738H162.669Z" stroke="#F96300" stroke-width="1.48052" stroke-miterlimit="8"/>
<path d="M46.9648 2V36.5347C46.9648 45.9393 54.0708 53.5649 62.8346 53.5649C71.5983 53.5649 78.7042 45.9393 78.7042 36.5347V2" stroke="#F96300" stroke-width="3.5762" stroke-miterlimit="8"/>
<path d="M33.3019 36.7279C33.3019 46.1325 26.196 53.7581 17.4322 53.7581C8.66843 53.7581 1.5625 46.1325 1.5625 36.7279V33" stroke="#F96300" stroke-width="3.5762" stroke-miterlimit="8"/>
<path d="M33.3019 20.7721C33.3019 11.3675 26.196 3.74186 17.4322 3.74186C8.66843 3.74186 1.5625 11.3675 1.5625 20.7721V24.5" stroke="#F96300" stroke-width="3.5762" stroke-miterlimit="8"/>
<path d="M92.3789 3.7666H106.04C114.804 3.7666 121.91 11.3922 121.91 20.7968C121.91 30.2015 114.804 37.8271 106.04 37.8271H92.3789" stroke="#F96300" stroke-width="3.5762" stroke-miterlimit="8"/>
<path d="M108.379 37.8281L121.909 53.565" stroke="#F96300" stroke-width="3.5762" stroke-miterlimit="8"/>
<path d="M141.75 28.5H155.75" stroke="#F96300" stroke-width="3.5762" stroke-miterlimit="8"/>
<path d="M132.152 53.5H163.892" stroke="#F96300" stroke-width="3.5762" stroke-miterlimit="8"/>
<path d="M132.152 3.7998H163.892" stroke="#F96300" stroke-width="3.5762" stroke-miterlimit="8"/>
</g>
<defs>
<clipPath id="clip0_1168_48549">
<rect width="164" height="56" fill="white"/>
</clipPath>
</defs>
</svg>
