<svg width="53" height="51" viewBox="0 0 53 51" fill="none" xmlns="http://www.w3.org/2000/svg">
<g id="Frame 1067">
<g id="Group">
<path id="Vector" d="M52.739 22.4652C52.739 20.3706 51.7417 18.4075 50.0423 17.1009C50.1162 16.7664 50.1529 16.445 50.1529 16.1287C50.1529 13.5195 48.1175 11.3524 45.473 10.9792C45.5338 10.6794 45.5626 10.3854 45.5626 10.0925C45.5626 7.3146 43.253 5.04497 40.3598 4.9008C40.3123 4.89339 40.2642 4.88712 40.2143 4.88712C40.1902 4.88712 40.1668 4.88997 40.1422 4.89054C40.1181 4.88997 40.0947 4.88712 40.07 4.88712C39.7947 4.88712 39.5176 4.91049 39.2248 4.95892C38.7163 2.40323 36.3676 0.5 33.5519 0.5C30.3592 0.5 27.7617 2.96224 27.7617 5.98918V43.5513C27.7617 47.3822 31.0493 50.4981 35.0902 50.4981C37.7713 50.4981 40.2047 49.1231 41.4899 46.9389C41.7779 46.9982 42.0544 47.0346 42.3321 47.0517C44.0772 47.1571 45.7766 46.6152 47.0967 45.5172C48.4168 44.4191 49.2067 42.8994 49.3209 41.2377C49.3684 40.5454 49.2867 39.8508 49.0787 39.1647C51.3606 37.6313 52.7017 35.2032 52.7017 32.5427C52.7017 30.6138 51.9689 28.7619 50.6308 27.2866C51.9774 25.9942 52.739 24.2653 52.739 22.4652ZM50.8995 32.5438C50.8995 34.5291 49.9485 36.3503 48.3176 37.5692C47.1105 35.748 44.9693 34.585 42.6507 34.585C42.153 34.585 41.749 34.9679 41.749 35.4397C41.749 35.9115 42.153 36.2945 42.6507 36.2945C44.6591 36.2945 46.4884 37.4871 47.2085 39.2621C47.455 39.8821 47.5644 40.5095 47.5217 41.1278C47.4388 42.3335 46.8659 43.4361 45.9077 44.2328C44.9495 45.03 43.7189 45.426 42.4499 45.3462C42.0929 45.324 41.7237 45.2511 41.2879 45.1171C40.8431 44.9792 40.3616 45.1878 40.1782 45.5958C39.3096 47.5355 37.312 48.7891 35.0896 48.7891C32.043 48.7891 29.5645 46.4397 29.5645 43.5518V5.98975C29.5645 3.90588 31.3529 2.21006 33.5513 2.21006C35.5939 2.21006 37.2747 3.66997 37.4935 5.57662C35.8398 6.47467 34.7211 8.1608 34.7211 10.0931C34.7211 10.5655 35.1251 10.9478 35.6228 10.9478C36.1205 10.9478 36.5245 10.5655 36.5245 10.0931C36.5245 8.18815 38.141 6.63707 40.141 6.60003C42.1409 6.63707 43.7574 8.18815 43.7574 10.0925C43.7574 10.447 43.6871 10.8139 43.5416 11.2157C43.5073 11.3103 43.4911 11.4094 43.4929 11.5091C43.4935 11.5325 43.4947 11.5541 43.4971 11.5747C43.4935 11.5866 43.4911 11.5946 43.4911 11.5946C43.4202 11.8596 43.4875 12.1411 43.672 12.3513C43.8566 12.5616 44.1319 12.6756 44.4241 12.6579C44.4866 12.6539 44.5491 12.6465 44.6597 12.6317C46.6934 12.6317 48.3483 14.2004 48.3483 16.1282C48.3483 16.4541 48.2864 16.7886 48.1547 17.1818C48.0327 17.5436 48.1776 17.9385 48.51 18.1505C49.9732 19.0844 50.8598 20.6173 50.923 22.2772C50.923 22.2795 50.9224 22.2818 50.9224 22.284C50.9224 25.1503 48.4625 27.4826 45.4388 27.4826C42.4151 27.4826 39.9546 25.1503 39.9546 22.284C39.9546 21.8117 39.5506 21.4293 39.0529 21.4293C38.5552 21.4293 38.1512 21.8117 38.1512 22.284C38.1512 26.0934 41.4202 29.1921 45.4388 29.1921C46.7781 29.1921 48.0297 28.8417 49.1093 28.2416C50.2635 29.4326 50.8995 30.9557 50.8995 32.5438Z" fill="#F96F29"/>
<path id="Vector_2" d="M19.1859 0.500977C16.3702 0.500977 14.0221 2.40421 13.5142 4.9599C13.2208 4.91146 12.9437 4.8881 12.6684 4.8881C12.6443 4.8881 12.6209 4.89095 12.5962 4.89152C12.5722 4.89095 12.5488 4.8881 12.5241 4.8881C12.4742 4.8881 12.4261 4.89437 12.3786 4.90178C9.48536 5.04594 7.17639 7.31558 7.17639 10.0935C7.17639 10.3864 7.20584 10.6804 7.26596 10.9802C4.62155 11.3534 2.5861 13.5205 2.5861 16.1297C2.5861 16.4454 2.62277 16.7668 2.69671 17.1018C0.997288 18.4085 0 20.3715 0 22.4662C0 24.2663 0.761041 25.9952 2.10699 27.2887C0.768254 28.764 0.0354672 30.6159 0.0354672 32.5448C0.0354672 35.2053 1.37661 37.6328 3.65853 39.1668C3.44993 39.8529 3.36878 40.5475 3.41687 41.2404C3.53109 42.9015 4.32038 44.4212 5.64048 45.5193C6.96058 46.6179 8.65519 47.1598 10.4051 47.0538C10.6786 47.0367 10.9575 46.9991 11.2467 46.9404C12.5319 49.1252 14.9653 50.5002 17.6464 50.5002C21.6873 50.5002 24.9749 47.3838 24.9749 43.5534V5.99015C24.9761 2.96321 22.3786 0.500977 19.1859 0.500977ZM23.1727 43.5522C23.1727 46.4401 20.6942 48.7895 17.6476 48.7895C15.4252 48.7895 13.4276 47.5359 12.5596 45.5962C12.4147 45.2731 12.0829 45.0754 11.7294 45.0754C11.6368 45.0754 11.5425 45.0885 11.4499 45.1175C11.0147 45.2515 10.6456 45.3244 10.2879 45.3466C9.01407 45.4258 7.78834 45.0298 6.83073 44.2332C5.87252 43.4365 5.29963 42.3339 5.21668 41.1282C5.17099 40.4672 5.29182 39.797 5.57616 39.1366C5.58036 39.1269 5.57916 39.1161 5.58277 39.1064C6.3895 37.365 8.12258 36.284 10.1496 36.284C10.648 36.284 11.0513 35.9011 11.0513 35.4293C11.0513 34.9575 10.648 34.5745 10.1496 34.5745C7.78233 34.5745 5.64048 35.7182 4.40995 37.5599C2.78628 36.341 1.83888 34.5244 1.83888 32.5442C1.83888 30.9561 2.47609 29.433 3.62907 28.2426C4.70871 28.8426 5.96089 29.1931 7.30022 29.1931C11.3188 29.1931 14.5878 26.0943 14.5878 22.285C14.5878 21.8126 14.1845 21.4303 13.6861 21.4303C13.1878 21.4303 12.7844 21.8126 12.7844 22.285C12.7844 25.1513 10.3245 27.4836 7.30022 27.4836C4.27589 27.4836 1.81604 25.1513 1.81604 22.285C1.81604 22.2839 1.81544 22.2827 1.81544 22.2816C1.87735 20.6205 2.76403 19.0866 4.2278 18.1515C4.56023 17.9395 4.70451 17.5452 4.58308 17.1833C4.45083 16.7896 4.38951 16.4551 4.38951 16.1291C4.38951 14.2054 6.03723 12.6389 8.11356 12.6389C8.11777 12.6389 8.12258 12.6389 8.12679 12.6389C8.1887 12.6469 8.25062 12.6543 8.31374 12.6583C8.60529 12.6754 8.88362 12.5609 9.06757 12.3495C9.25212 12.1375 9.31824 11.8548 9.2443 11.5893C9.2443 11.5887 9.2425 11.5813 9.23949 11.5716C9.2413 11.5517 9.2431 11.5335 9.2437 11.5175C9.24671 11.4149 9.23048 11.3129 9.19501 11.2161C9.04953 10.8132 8.9792 10.4457 8.9792 10.0924C8.9792 8.18799 10.5951 6.63634 12.5956 6.59987C14.5962 6.63691 16.2121 8.18799 16.2121 10.0929C16.2121 10.5653 16.6155 10.9477 17.1138 10.9477C17.6121 10.9477 18.0155 10.5653 18.0155 10.0929C18.0155 8.16063 16.8968 6.47451 15.2431 5.57645C15.4619 3.6698 17.1427 2.2099 19.1853 2.2099C21.3837 2.2099 23.1721 3.90571 23.1721 5.98958L23.1727 43.5522Z" fill="#F96F29"/>
</g>
</g>
</svg>
