<svg width="56" height="51" viewBox="0 0 56 51" fill="none" xmlns="http://www.w3.org/2000/svg">
<g id="Frame 1068">
<path id="Vector" d="M53.7135 0.5L53.3356 0.927679C49.4729 5.29643 44.1535 8.18839 38.3568 9.07143C36.6988 9.32411 35.058 9.73304 33.4794 10.2875L23.2455 13.8821C23.3799 13.3438 23.4529 12.7446 23.4529 12.1071C23.4529 9.56161 22.2893 7.64286 20.7468 7.64286C15.4787 7.64286 10.4001 9.93571 6.44728 14.0982C2.05153 18.7286 -0.343441 25.1482 0.0399349 31.2723C0.703852 41.8589 9.62885 50.3027 20.3598 50.4964C20.4834 50.4991 20.606 50.5 20.7296 50.5C27.1848 50.5 33.5154 47.4527 37.4322 42.4643H46.0045C47.547 42.4643 48.7107 40.5455 48.7107 38C48.7107 35.4545 47.547 33.5357 46.0045 33.5357H32.1741C32.3653 32.6714 32.4736 31.7768 32.4736 30.8571V28.8223L39.0694 26.6464C43.3596 25.2304 47.1718 22.6759 50.0935 19.2589C53.8551 14.858 55.9272 9.25982 55.9272 3.49464V0.5H53.7135ZM34.0828 11.9705C35.5541 11.4536 37.0849 11.0723 38.631 10.8357C38.834 10.8045 39.0316 10.7536 39.2336 10.7179L36.2902 14.2134L37.6758 15.3562L39.5033 13.1848L42.1103 15.7652C36.5401 19.3402 29.9821 22.2437 26.5001 23.6821L24.355 21.5589V18.3571H22.5509V22.2982L24.6879 24.4134C24.4272 24.5152 24.2377 24.5875 24.1349 24.6268L19.2917 25.2259C17.6112 25.4339 16.0642 26.3223 15.0466 27.6634C14.3295 28.6098 13.2822 29.2241 12.0987 29.3911L9.06055 29.8205C9.28426 26.7812 10.4849 23.9473 12.3991 21.6857L13.9326 24.7214L19.1185 23.6946L18.764 21.9438L14.9294 22.7027L13.7242 20.317C15.1179 19.0554 16.7687 18.0491 18.6197 17.3991L21.1734 16.5018C21.2817 16.4759 21.3854 16.4366 21.4883 16.3911L25.6702 14.9223L27.0594 17.6723V21.0357H28.8635V18.3571H32.4718V16.5714H28.5189L27.3832 14.3232L34.0828 11.9705ZM18.4736 39.2812L18.7965 41.5196C13.5736 41.0205 9.43491 36.8321 9.05875 31.6268L12.3549 31.1607C14.0156 30.9259 15.4841 30.0652 16.4899 28.7375C17.2152 27.7812 18.3175 27.1482 19.5154 27L23.4529 26.5116V29.2571C23.4529 30.5759 22.8657 31.8161 21.8428 32.6607L20.671 33.6277C18.985 35.017 18.1642 37.1304 18.4736 39.2812ZM21.6488 12.1071C21.6488 13.575 21.1626 14.4741 20.8776 14.7143L20.7134 14.7714C20.4653 14.6991 19.8447 13.767 19.8447 12.1071C19.8447 10.3786 20.5222 9.42857 20.7468 9.42857C20.9714 9.42857 21.6488 10.3786 21.6488 12.1071ZM46.9066 38C46.9066 39.7286 46.2291 40.6786 46.0045 40.6786C45.7799 40.6786 45.1024 39.7286 45.1024 38C45.1024 36.2714 45.7799 35.3214 46.0045 35.3214C46.2291 35.3214 46.9066 36.2714 46.9066 38ZM43.8206 35.3214C43.4941 36.0589 43.2983 36.9741 43.2983 38C43.2983 39.0259 43.4941 39.9411 43.8206 40.6786H36.5292L36.2586 41.0402C32.6359 45.883 26.5876 48.8321 20.3932 48.7107C10.5959 48.5348 2.44664 40.8259 1.84135 31.1616C1.48684 25.5196 3.7014 19.5991 7.76158 15.3214C10.7934 12.1286 14.5361 10.1598 18.4799 9.60625C18.2011 10.3116 18.0406 11.1652 18.0406 12.1071C18.0406 13.4482 18.3689 14.6045 18.9002 15.4089L18.018 15.7188C11.5566 17.9875 7.21584 24.0714 7.21584 30.8571C7.21584 37.75 12.8808 43.3571 19.8447 43.3571C25.2183 43.3571 29.8053 40.0125 31.6265 35.3214H43.8206ZM38.4984 24.9518L30.6694 27.5348V30.8571C30.6694 36.5054 26.2277 41.1357 20.6214 41.5321L20.2597 39.0277C20.0386 37.4946 20.6241 35.9884 21.8256 34.9982L22.9974 34.0312C24.0456 33.167 24.7627 32.0054 25.0758 30.7223L27.422 32.4643L28.5045 31.0357L25.2571 28.625V26.1134C27.1604 25.3795 33.2656 22.9321 39.3247 19.5312L41.0982 20.233L39.2868 21.1295L40.0942 22.7268L42.3962 21.5875V23.2402C41.1568 23.9241 39.856 24.5036 38.4984 24.9518ZM54.1231 3.49464C54.1231 8.8375 52.2035 14.0259 48.7161 18.1045C47.3937 19.6518 45.8719 21.0036 44.2004 22.1393V19.5375L41.2984 18.3884C43.1071 17.3027 44.8643 16.1357 46.46 14.9125L46.9336 16.7866L48.6836 16.3536L48.0035 13.6625C49.7517 12.1661 51.2166 10.5991 52.1899 8.99464L50.6429 8.07589C49.2375 10.3937 46.654 12.6652 43.6348 14.7491L40.6634 11.808L42.1608 10.0295C46.7153 8.69018 50.8621 6.18661 54.1222 2.72768L54.1231 3.49464Z" fill="#F96F29"/>
</g>
</svg>
