<svg width="51" height="51" viewBox="0 0 51 51" fill="none" xmlns="http://www.w3.org/2000/svg">
<g id="5975173_corona_coronavirus_disease_lungs_pain_icon 1" clip-path="url(#clip0_1053_36302)">
<g id="Group">
<path id="Vector" d="M34.5174 13.6252C33.3598 12.896 31.7812 12.7918 30.5183 13.4168C29.4659 14.0418 28.7292 15.0835 28.7292 16.2293V21.8543L26.3086 19.5627V1.021H24.2038V19.5627L21.6781 21.8543V16.2293C21.6781 15.0835 21.0466 14.0418 19.889 13.4168C18.6261 12.7918 17.0475 12.7918 15.8898 13.6252C-0.211976 24.2502 0.524709 36.5418 0.524709 36.9585V46.7502C0.524709 47.7918 1.05091 48.8335 1.99808 49.3543C2.62952 49.771 3.3662 49.9793 4.10289 49.9793C4.62909 49.9793 5.26053 49.8752 5.6815 49.6668L19.7837 43.2085C20.9414 42.6877 21.7833 41.5418 21.7833 40.2918V24.5627L21.8885 24.6668L25.3615 21.4377L28.8344 24.6668L28.9397 24.5627V40.2918C28.9397 41.5418 29.6763 42.5835 30.9392 43.2085L44.9362 49.6668C45.4624 49.8752 45.9886 49.9793 46.5148 49.9793C47.2515 49.9793 47.9882 49.771 48.6196 49.3543C49.5668 48.7293 50.093 47.7918 50.093 46.7502V37.0627C49.9878 36.5418 50.7244 24.2502 34.5174 13.6252ZM18.8366 41.2293L4.83957 47.6877C4.20813 48.0002 3.57668 47.896 3.15572 47.6877C2.94524 47.5835 2.62952 47.271 2.62952 46.7502V36.9585C2.62952 36.8543 1.99808 25.2918 17.1527 15.396C17.7842 14.9793 18.5208 15.0835 18.9418 15.2918C19.1523 15.396 19.5732 15.7085 19.5732 16.2293V21.4377L14.7322 26.3335H11.575L7.68107 29.5627L9.04919 31.1252L12.4169 28.4168H14.206V31.021L10.1016 33.8335L9.78588 35.9168L3.78717 37.7918L4.41861 39.771L9.36491 38.2085L9.04919 40.2918L11.154 40.6043L11.8907 35.0835L13.6798 33.8335L15.7846 36.5418L17.4684 35.2918L15.3636 32.6877L15.9951 32.1668V27.896L19.3628 24.5627V40.396C19.5732 40.7085 19.3628 41.021 18.8366 41.2293ZM47.883 36.9585V46.7502C47.883 47.271 47.5672 47.4793 47.3568 47.6877C46.9358 47.896 46.3044 48.1043 45.6729 47.7918L31.6759 41.3335C31.2549 41.1252 30.9392 40.7085 30.9392 40.2918V24.4585L34.3069 27.7918V32.0627L34.9384 32.5835L32.8336 35.1877L34.5174 36.4377L36.6222 33.7293L38.4113 34.9793L39.148 40.5002L41.2528 40.1877L40.9371 38.1043L45.8834 39.6668L46.5148 37.6877L40.6214 35.9168L40.3056 33.8335L36.3065 30.9168V28.3127H38.0956L41.4633 31.021L42.8314 29.4585L38.9375 26.3335H35.7803L30.9392 21.5418V16.3335C30.9392 15.8127 31.3602 15.5002 31.5707 15.396C31.7812 15.2918 32.0969 15.1877 32.4126 15.1877C32.7283 15.1877 33.044 15.2918 33.3598 15.5002C48.5144 25.2918 47.883 36.8543 47.883 36.9585Z" fill="#F96F29"/>
</g>
</g>
<defs>
<clipPath id="clip0_1053_36302">
<rect width="50.5155" height="50" fill="white" transform="translate(0 0.5)"/>
</clipPath>
</defs>
</svg>
