<svg width="105" height="40" viewBox="0 0 105 40" fill="none" xmlns="http://www.w3.org/2000/svg">
<path d="M20.5898 0V9.72656M15.7266 4.86328L25.4531 4.86329" stroke="#F05801" stroke-width="1.94531"/>
<path d="M36.3164 0V9.72656M31.4531 4.86328L41.1797 4.86329" stroke="#F05801" stroke-width="1.94531"/>
<path d="M52.043 0V9.72656M47.1797 4.86328L56.9062 4.86329" stroke="#F05801" stroke-width="1.94531"/>
<path d="M67.7695 0V9.72656M62.9062 4.86328L72.6328 4.86329" stroke="#F05801" stroke-width="1.94531"/>
<path d="M83.4961 0V9.72656M78.6328 4.86328L88.3594 4.86329" stroke="#F05801" stroke-width="1.94531"/>
<path d="M4.86328 14.7266V24.4531M0 19.5898L9.72656 19.5898" stroke="#F05801" stroke-width="1.94531"/>
<path d="M20.5898 14.7266V24.4531M15.7266 19.5898L25.4531 19.5898" stroke="#F05801" stroke-width="1.94531"/>
<path d="M36.3164 14.7266V24.4531M31.4531 19.5898L41.1797 19.5898" stroke="#F05801" stroke-width="1.94531"/>
<path d="M52.043 14.7266V24.4531M47.1797 19.5898L56.9062 19.5898" stroke="#F05801" stroke-width="1.94531"/>
<path d="M67.7695 14.7266V24.4531M62.9062 19.5898L72.6328 19.5898" stroke="#F05801" stroke-width="1.94531"/>
<path d="M83.4961 14.7266V24.4531M78.6328 19.5898L88.3594 19.5898" stroke="#F05801" stroke-width="1.94531"/>
<path d="M99.2227 14.7266V24.4531M94.3594 19.5898L104.086 19.5898" stroke="#F05801" stroke-width="1.94531"/>
<path d="M4.86328 29.4531V39.1797M0 34.3164L9.72656 34.3164" stroke="#F05801" stroke-width="1.94531"/>
<path d="M20.5898 29.4531V39.1797M15.7266 34.3164L25.4531 34.3164" stroke="#F05801" stroke-width="1.94531"/>
<path d="M36.3164 29.4531V39.1797M31.4531 34.3164L41.1797 34.3164" stroke="#F05801" stroke-width="1.94531"/>
<path d="M52.043 29.4531V39.1797M47.1797 34.3164L56.9062 34.3164" stroke="#F05801" stroke-width="1.94531"/>
<path d="M67.7695 29.4531V39.1797M62.9062 34.3164L72.6328 34.3164" stroke="#F05801" stroke-width="1.94531"/>
<path d="M83.4961 29.4531V39.1797M78.6328 34.3164L88.3594 34.3164" stroke="#F05801" stroke-width="1.94531"/>
<path d="M99.2227 29.4531V39.1797M94.3594 34.3164L104.086 34.3164" stroke="#F05801" stroke-width="1.94531"/>
</svg>
