<?xml version="1.0" encoding="utf-8"?>
<!-- Generator: Adobe Illustrator 28.2.0, SVG Export Plug-In . SVG Version: 6.00 Build 0)  -->
<svg version="1.1" id="Calque_1" xmlns="http://www.w3.org/2000/svg" xmlns:xlink="http://www.w3.org/1999/xlink" x="0px" y="0px"
	 viewBox="0 0 835 422" style="enable-background:new 0 0 835 422;" xml:space="preserve">
<style type="text/css">
	.st0{opacity:0.2;}
	.st1{fill-rule:evenodd;clip-rule:evenodd;fill:#F05801;}
</style>
<g class="st0">
	<path class="st1" d="M421.9,191.6c0,1.2-1,2.2-2.2,2.2c-1.2,0-2.2-1-2.2-2.2c0-1.2,1-2.2,2.2-2.2
		C420.9,189.4,421.9,190.4,421.9,191.6z"/>
	<path class="st1" d="M421.9,198.2c0,1.2-1,2.2-2.2,2.2c-1.2,0-2.2-1-2.2-2.2c0-1.2,1-2.2,2.2-2.2C420.9,196,421.9,197,421.9,198.2z
		"/>
	<path class="st1" d="M428.5,191.6c0,1.2-1,2.2-2.2,2.2c-1.2,0-2.2-1-2.2-2.2c0-1.2,1-2.2,2.2-2.2
		C427.5,189.4,428.5,190.4,428.5,191.6z"/>
	<path class="st1" d="M428.5,198.2c0,1.2-1,2.2-2.2,2.2c-1.2,0-2.2-1-2.2-2.2c0-1.2,1-2.2,2.2-2.2C427.5,196,428.5,197,428.5,198.2z
		"/>
	<path class="st1" d="M433.9,191.6c0,1.2-1,2.2-2.2,2.2s-2.2-1-2.2-2.2c0-1.2,1-2.2,2.2-2.2S433.9,190.4,433.9,191.6z"/>
	<path class="st1" d="M433.9,198.2c0,1.2-1,2.2-2.2,2.2s-2.2-1-2.2-2.2c0-1.2,1-2.2,2.2-2.2S433.9,197,433.9,198.2z"/>
	<path class="st1" d="M440.5,191.6c0,1.2-1,2.2-2.2,2.2c-1.2,0-2.2-1-2.2-2.2c0-1.2,1-2.2,2.2-2.2
		C439.5,189.4,440.5,190.4,440.5,191.6z"/>
	<path class="st1" d="M440.5,198.2c0,1.2-1,2.2-2.2,2.2c-1.2,0-2.2-1-2.2-2.2c0-1.2,1-2.2,2.2-2.2C439.5,196,440.5,197,440.5,198.2z
		"/>
	<path class="st1" d="M447.1,191.6c0,1.2-1,2.2-2.2,2.2c-1.2,0-2.2-1-2.2-2.2c0-1.2,1-2.2,2.2-2.2
		C446.1,189.4,447.1,190.4,447.1,191.6z"/>
	<path class="st1" d="M447.1,198.2c0,1.2-1,2.2-2.2,2.2c-1.2,0-2.2-1-2.2-2.2c0-1.2,1-2.2,2.2-2.2C446.1,196,447.1,197,447.1,198.2z
		"/>
	<path class="st1" d="M421.9,204.8c0,1.2-1,2.2-2.2,2.2c-1.2,0-2.2-1-2.2-2.2c0-1.2,1-2.2,2.2-2.2
		C420.9,202.6,421.9,203.6,421.9,204.8z"/>
	<path class="st1" d="M421.9,211.3c0,1.2-1,2.2-2.2,2.2c-1.2,0-2.2-1-2.2-2.2c0-1.2,1-2.2,2.2-2.2
		C420.9,209.1,421.9,210.1,421.9,211.3z"/>
	<path class="st1" d="M428.5,204.8c0,1.2-1,2.2-2.2,2.2c-1.2,0-2.2-1-2.2-2.2c0-1.2,1-2.2,2.2-2.2
		C427.5,202.6,428.5,203.6,428.5,204.8z"/>
	<path class="st1" d="M428.5,211.3c0,1.2-1,2.2-2.2,2.2c-1.2,0-2.2-1-2.2-2.2c0-1.2,1-2.2,2.2-2.2
		C427.5,209.1,428.5,210.1,428.5,211.3z"/>
	<path class="st1" d="M433.9,204.8c0,1.2-1,2.2-2.2,2.2s-2.2-1-2.2-2.2c0-1.2,1-2.2,2.2-2.2S433.9,203.6,433.9,204.8z"/>
	<path class="st1" d="M433.9,211.3c0,1.2-1,2.2-2.2,2.2s-2.2-1-2.2-2.2c0-1.2,1-2.2,2.2-2.2S433.9,210.1,433.9,211.3z"/>
	<path class="st1" d="M440.5,204.8c0,1.2-1,2.2-2.2,2.2c-1.2,0-2.2-1-2.2-2.2c0-1.2,1-2.2,2.2-2.2
		C439.5,202.6,440.5,203.6,440.5,204.8z"/>
	<path class="st1" d="M440.5,211.3c0,1.2-1,2.2-2.2,2.2c-1.2,0-2.2-1-2.2-2.2c0-1.2,1-2.2,2.2-2.2
		C439.5,209.1,440.5,210.1,440.5,211.3z"/>
	<path class="st1" d="M447.1,204.8c0,1.2-1,2.2-2.2,2.2c-1.2,0-2.2-1-2.2-2.2c0-1.2,1-2.2,2.2-2.2
		C446.1,202.6,447.1,203.6,447.1,204.8z"/>
	<path class="st1" d="M447.1,211.3c0,1.2-1,2.2-2.2,2.2c-1.2,0-2.2-1-2.2-2.2c0-1.2,1-2.2,2.2-2.2
		C446.1,209.1,447.1,210.1,447.1,211.3z"/>
	<path class="st1" d="M421.9,216.8c0,1.2-1,2.2-2.2,2.2c-1.2,0-2.2-1-2.2-2.2c0-1.2,1-2.2,2.2-2.2
		C420.9,214.6,421.9,215.6,421.9,216.8z"/>
	<path class="st1" d="M421.9,223.4c0,1.2-1,2.2-2.2,2.2c-1.2,0-2.2-1-2.2-2.2c0-1.2,1-2.2,2.2-2.2
		C420.9,221.2,421.9,222.2,421.9,223.4z"/>
	<path class="st1" d="M428.5,216.8c0,1.2-1,2.2-2.2,2.2c-1.2,0-2.2-1-2.2-2.2c0-1.2,1-2.2,2.2-2.2
		C427.5,214.6,428.5,215.6,428.5,216.8z"/>
	<path class="st1" d="M428.5,223.4c0,1.2-1,2.2-2.2,2.2c-1.2,0-2.2-1-2.2-2.2c0-1.2,1-2.2,2.2-2.2
		C427.5,221.2,428.5,222.2,428.5,223.4z"/>
	<path class="st1" d="M433.9,216.8c0,1.2-1,2.2-2.2,2.2s-2.2-1-2.2-2.2c0-1.2,1-2.2,2.2-2.2S433.9,215.6,433.9,216.8z"/>
	<path class="st1" d="M433.9,223.4c0,1.2-1,2.2-2.2,2.2s-2.2-1-2.2-2.2c0-1.2,1-2.2,2.2-2.2S433.9,222.2,433.9,223.4z"/>
	<path class="st1" d="M440.5,216.8c0,1.2-1,2.2-2.2,2.2c-1.2,0-2.2-1-2.2-2.2c0-1.2,1-2.2,2.2-2.2
		C439.5,214.6,440.5,215.6,440.5,216.8z"/>
	<path class="st1" d="M440.5,223.4c0,1.2-1,2.2-2.2,2.2c-1.2,0-2.2-1-2.2-2.2c0-1.2,1-2.2,2.2-2.2
		C439.5,221.2,440.5,222.2,440.5,223.4z"/>
	<path class="st1" d="M447.1,216.8c0,1.2-1,2.2-2.2,2.2c-1.2,0-2.2-1-2.2-2.2c0-1.2,1-2.2,2.2-2.2
		C446.1,214.6,447.1,215.6,447.1,216.8z"/>
	<path class="st1" d="M447.1,223.4c0,1.2-1,2.2-2.2,2.2c-1.2,0-2.2-1-2.2-2.2c0-1.2,1-2.2,2.2-2.2
		C446.1,221.2,447.1,222.2,447.1,223.4z"/>
	<path class="st1" d="M421.9,230c0,1.2-1,2.2-2.2,2.2c-1.2,0-2.2-1-2.2-2.2c0-1.2,1-2.2,2.2-2.2C420.9,227.8,421.9,228.8,421.9,230z
		"/>
	<path class="st1" d="M421.9,236.5c0,1.2-1,2.2-2.2,2.2c-1.2,0-2.2-1-2.2-2.2c0-1.2,1-2.2,2.2-2.2
		C420.9,234.4,421.9,235.3,421.9,236.5z"/>
	<path class="st1" d="M428.5,230c0,1.2-1,2.2-2.2,2.2c-1.2,0-2.2-1-2.2-2.2c0-1.2,1-2.2,2.2-2.2C427.5,227.8,428.5,228.8,428.5,230z
		"/>
	<path class="st1" d="M428.5,236.5c0,1.2-1,2.2-2.2,2.2c-1.2,0-2.2-1-2.2-2.2c0-1.2,1-2.2,2.2-2.2
		C427.5,234.4,428.5,235.3,428.5,236.5z"/>
	<path class="st1" d="M433.9,230c0,1.2-1,2.2-2.2,2.2s-2.2-1-2.2-2.2c0-1.2,1-2.2,2.2-2.2S433.9,228.8,433.9,230z"/>
	<path class="st1" d="M433.9,236.5c0,1.2-1,2.2-2.2,2.2s-2.2-1-2.2-2.2c0-1.2,1-2.2,2.2-2.2S433.9,235.3,433.9,236.5z"/>
	<path class="st1" d="M440.5,230c0,1.2-1,2.2-2.2,2.2c-1.2,0-2.2-1-2.2-2.2c0-1.2,1-2.2,2.2-2.2C439.5,227.8,440.5,228.8,440.5,230z
		"/>
	<path class="st1" d="M440.5,236.5c0,1.2-1,2.2-2.2,2.2c-1.2,0-2.2-1-2.2-2.2c0-1.2,1-2.2,2.2-2.2
		C439.5,234.4,440.5,235.3,440.5,236.5z"/>
	<path class="st1" d="M447.1,230c0,1.2-1,2.2-2.2,2.2c-1.2,0-2.2-1-2.2-2.2c0-1.2,1-2.2,2.2-2.2C446.1,227.8,447.1,228.8,447.1,230z
		"/>
	<path class="st1" d="M447.1,236.5c0,1.2-1,2.2-2.2,2.2c-1.2,0-2.2-1-2.2-2.2c0-1.2,1-2.2,2.2-2.2
		C446.1,234.4,447.1,235.3,447.1,236.5z"/>
	<path class="st1" d="M390.1,191.6c0,1.2-1,2.2-2.2,2.2c-1.2,0-2.2-1-2.2-2.2c0-1.2,1-2.2,2.2-2.2
		C389.1,189.4,390.1,190.4,390.1,191.6z"/>
	<path class="st1" d="M390.1,198.2c0,1.2-1,2.2-2.2,2.2c-1.2,0-2.2-1-2.2-2.2c0-1.2,1-2.2,2.2-2.2C389.1,196,390.1,197,390.1,198.2z
		"/>
	<path class="st1" d="M396.7,191.6c0,1.2-1,2.2-2.2,2.2c-1.2,0-2.2-1-2.2-2.2c0-1.2,1-2.2,2.2-2.2
		C395.7,189.4,396.7,190.4,396.7,191.6z"/>
	<path class="st1" d="M396.7,198.2c0,1.2-1,2.2-2.2,2.2c-1.2,0-2.2-1-2.2-2.2c0-1.2,1-2.2,2.2-2.2C395.7,196,396.7,197,396.7,198.2z
		"/>
	<path class="st1" d="M403.2,191.6c0,1.2-1,2.2-2.2,2.2c-1.2,0-2.2-1-2.2-2.2c0-1.2,1-2.2,2.2-2.2
		C402.3,189.4,403.2,190.4,403.2,191.6z"/>
	<path class="st1" d="M403.2,198.2c0,1.2-1,2.2-2.2,2.2c-1.2,0-2.2-1-2.2-2.2c0-1.2,1-2.2,2.2-2.2C402.3,196,403.2,197,403.2,198.2z
		"/>
	<path class="st1" d="M408.7,191.6c0,1.2-1,2.2-2.2,2.2s-2.2-1-2.2-2.2c0-1.2,1-2.2,2.2-2.2S408.7,190.4,408.7,191.6z"/>
	<path class="st1" d="M408.7,198.2c0,1.2-1,2.2-2.2,2.2s-2.2-1-2.2-2.2c0-1.2,1-2.2,2.2-2.2S408.7,197,408.7,198.2z"/>
	<path class="st1" d="M415.3,191.6c0,1.2-1,2.2-2.2,2.2c-1.2,0-2.2-1-2.2-2.2c0-1.2,1-2.2,2.2-2.2
		C414.3,189.4,415.3,190.4,415.3,191.6z"/>
	<path class="st1" d="M415.3,198.2c0,1.2-1,2.2-2.2,2.2c-1.2,0-2.2-1-2.2-2.2c0-1.2,1-2.2,2.2-2.2C414.3,196,415.3,197,415.3,198.2z
		"/>
	<path class="st1" d="M390.1,204.8c0,1.2-1,2.2-2.2,2.2c-1.2,0-2.2-1-2.2-2.2c0-1.2,1-2.2,2.2-2.2
		C389.1,202.6,390.1,203.6,390.1,204.8z"/>
	<path class="st1" d="M390.1,211.3c0,1.2-1,2.2-2.2,2.2c-1.2,0-2.2-1-2.2-2.2c0-1.2,1-2.2,2.2-2.2
		C389.1,209.1,390.1,210.1,390.1,211.3z"/>
	<path class="st1" d="M396.7,204.8c0,1.2-1,2.2-2.2,2.2c-1.2,0-2.2-1-2.2-2.2c0-1.2,1-2.2,2.2-2.2
		C395.7,202.6,396.7,203.6,396.7,204.8z"/>
	<path class="st1" d="M396.7,211.3c0,1.2-1,2.2-2.2,2.2c-1.2,0-2.2-1-2.2-2.2c0-1.2,1-2.2,2.2-2.2
		C395.7,209.1,396.7,210.1,396.7,211.3z"/>
	<path class="st1" d="M403.2,204.8c0,1.2-1,2.2-2.2,2.2c-1.2,0-2.2-1-2.2-2.2c0-1.2,1-2.2,2.2-2.2
		C402.3,202.6,403.2,203.6,403.2,204.8z"/>
	<path class="st1" d="M403.2,211.3c0,1.2-1,2.2-2.2,2.2c-1.2,0-2.2-1-2.2-2.2c0-1.2,1-2.2,2.2-2.2
		C402.3,209.1,403.2,210.1,403.2,211.3z"/>
	<path class="st1" d="M408.7,204.8c0,1.2-1,2.2-2.2,2.2s-2.2-1-2.2-2.2c0-1.2,1-2.2,2.2-2.2S408.7,203.6,408.7,204.8z"/>
	<path class="st1" d="M408.7,211.3c0,1.2-1,2.2-2.2,2.2s-2.2-1-2.2-2.2c0-1.2,1-2.2,2.2-2.2S408.7,210.1,408.7,211.3z"/>
	<path class="st1" d="M415.3,204.8c0,1.2-1,2.2-2.2,2.2c-1.2,0-2.2-1-2.2-2.2c0-1.2,1-2.2,2.2-2.2
		C414.3,202.6,415.3,203.6,415.3,204.8z"/>
	<path class="st1" d="M415.3,211.3c0,1.2-1,2.2-2.2,2.2c-1.2,0-2.2-1-2.2-2.2c0-1.2,1-2.2,2.2-2.2
		C414.3,209.1,415.3,210.1,415.3,211.3z"/>
	<path class="st1" d="M390.1,216.8c0,1.2-1,2.2-2.2,2.2c-1.2,0-2.2-1-2.2-2.2c0-1.2,1-2.2,2.2-2.2
		C389.1,214.6,390.1,215.6,390.1,216.8z"/>
	<path class="st1" d="M390.1,223.4c0,1.2-1,2.2-2.2,2.2c-1.2,0-2.2-1-2.2-2.2c0-1.2,1-2.2,2.2-2.2
		C389.1,221.2,390.1,222.2,390.1,223.4z"/>
	<path class="st1" d="M396.7,216.8c0,1.2-1,2.2-2.2,2.2c-1.2,0-2.2-1-2.2-2.2c0-1.2,1-2.2,2.2-2.2
		C395.7,214.6,396.7,215.6,396.7,216.8z"/>
	<path class="st1" d="M396.7,223.4c0,1.2-1,2.2-2.2,2.2c-1.2,0-2.2-1-2.2-2.2c0-1.2,1-2.2,2.2-2.2
		C395.7,221.2,396.7,222.2,396.7,223.4z"/>
	<path class="st1" d="M403.2,216.8c0,1.2-1,2.2-2.2,2.2c-1.2,0-2.2-1-2.2-2.2c0-1.2,1-2.2,2.2-2.2
		C402.3,214.6,403.2,215.6,403.2,216.8z"/>
	<path class="st1" d="M403.2,223.4c0,1.2-1,2.2-2.2,2.2c-1.2,0-2.2-1-2.2-2.2c0-1.2,1-2.2,2.2-2.2
		C402.3,221.2,403.2,222.2,403.2,223.4z"/>
	<path class="st1" d="M408.7,216.8c0,1.2-1,2.2-2.2,2.2s-2.2-1-2.2-2.2c0-1.2,1-2.2,2.2-2.2S408.7,215.6,408.7,216.8z"/>
	<path class="st1" d="M408.7,223.4c0,1.2-1,2.2-2.2,2.2s-2.2-1-2.2-2.2c0-1.2,1-2.2,2.2-2.2S408.7,222.2,408.7,223.4z"/>
	<path class="st1" d="M415.3,216.8c0,1.2-1,2.2-2.2,2.2c-1.2,0-2.2-1-2.2-2.2c0-1.2,1-2.2,2.2-2.2
		C414.3,214.6,415.3,215.6,415.3,216.8z"/>
	<path class="st1" d="M415.3,223.4c0,1.2-1,2.2-2.2,2.2c-1.2,0-2.2-1-2.2-2.2c0-1.2,1-2.2,2.2-2.2
		C414.3,221.2,415.3,222.2,415.3,223.4z"/>
	<path class="st1" d="M371.5,191.6c0,1.2-1,2.2-2.2,2.2c-1.2,0-2.2-1-2.2-2.2c0-1.2,1-2.2,2.2-2.2
		C370.5,189.4,371.5,190.4,371.5,191.6z"/>
	<path class="st1" d="M371.5,198.2c0,1.2-1,2.2-2.2,2.2c-1.2,0-2.2-1-2.2-2.2c0-1.2,1-2.2,2.2-2.2C370.5,196,371.5,197,371.5,198.2z
		"/>
	<path class="st1" d="M376.9,191.6c0,1.2-1,2.2-2.2,2.2c-1.2,0-2.2-1-2.2-2.2c0-1.2,1-2.2,2.2-2.2
		C376,189.4,376.9,190.4,376.9,191.6z"/>
	<path class="st1" d="M376.9,198.2c0,1.2-1,2.2-2.2,2.2c-1.2,0-2.2-1-2.2-2.2c0-1.2,1-2.2,2.2-2.2C376,196,376.9,197,376.9,198.2z"
		/>
	<path class="st1" d="M383.5,191.6c0,1.2-1,2.2-2.2,2.2c-1.2,0-2.2-1-2.2-2.2c0-1.2,1-2.2,2.2-2.2
		C382.5,189.4,383.5,190.4,383.5,191.6z"/>
	<path class="st1" d="M383.5,198.2c0,1.2-1,2.2-2.2,2.2c-1.2,0-2.2-1-2.2-2.2c0-1.2,1-2.2,2.2-2.2C382.5,196,383.5,197,383.5,198.2z
		"/>
	<path class="st1" d="M371.5,204.8c0,1.2-1,2.2-2.2,2.2c-1.2,0-2.2-1-2.2-2.2c0-1.2,1-2.2,2.2-2.2
		C370.5,202.6,371.5,203.6,371.5,204.8z"/>
	<path class="st1" d="M371.5,211.3c0,1.2-1,2.2-2.2,2.2c-1.2,0-2.2-1-2.2-2.2c0-1.2,1-2.2,2.2-2.2
		C370.5,209.1,371.5,210.1,371.5,211.3z"/>
	<path class="st1" d="M376.9,204.8c0,1.2-1,2.2-2.2,2.2c-1.2,0-2.2-1-2.2-2.2c0-1.2,1-2.2,2.2-2.2
		C376,202.6,376.9,203.6,376.9,204.8z"/>
	<path class="st1" d="M376.9,211.3c0,1.2-1,2.2-2.2,2.2c-1.2,0-2.2-1-2.2-2.2c0-1.2,1-2.2,2.2-2.2
		C376,209.1,376.9,210.1,376.9,211.3z"/>
	<path class="st1" d="M383.5,204.8c0,1.2-1,2.2-2.2,2.2c-1.2,0-2.2-1-2.2-2.2c0-1.2,1-2.2,2.2-2.2
		C382.5,202.6,383.5,203.6,383.5,204.8z"/>
	<path class="st1" d="M383.5,211.3c0,1.2-1,2.2-2.2,2.2c-1.2,0-2.2-1-2.2-2.2c0-1.2,1-2.2,2.2-2.2
		C382.5,209.1,383.5,210.1,383.5,211.3z"/>
	<path class="st1" d="M371.5,216.8c0,1.2-1,2.2-2.2,2.2c-1.2,0-2.2-1-2.2-2.2c0-1.2,1-2.2,2.2-2.2
		C370.5,214.6,371.5,215.6,371.5,216.8z"/>
	<path class="st1" d="M371.5,223.4c0,1.2-1,2.2-2.2,2.2c-1.2,0-2.2-1-2.2-2.2c0-1.2,1-2.2,2.2-2.2
		C370.5,221.2,371.5,222.2,371.5,223.4z"/>
	<path class="st1" d="M376.9,216.8c0,1.2-1,2.2-2.2,2.2c-1.2,0-2.2-1-2.2-2.2c0-1.2,1-2.2,2.2-2.2
		C376,214.6,376.9,215.6,376.9,216.8z"/>
	<path class="st1" d="M376.9,223.4c0,1.2-1,2.2-2.2,2.2c-1.2,0-2.2-1-2.2-2.2c0-1.2,1-2.2,2.2-2.2
		C376,221.2,376.9,222.2,376.9,223.4z"/>
	<path class="st1" d="M383.5,216.8c0,1.2-1,2.2-2.2,2.2c-1.2,0-2.2-1-2.2-2.2c0-1.2,1-2.2,2.2-2.2
		C382.5,214.6,383.5,215.6,383.5,216.8z"/>
	<path class="st1" d="M383.5,223.4c0,1.2-1,2.2-2.2,2.2c-1.2,0-2.2-1-2.2-2.2c0-1.2,1-2.2,2.2-2.2
		C382.5,221.2,383.5,222.2,383.5,223.4z"/>
	<path class="st1" d="M339.7,191.6c0,1.2-1,2.2-2.2,2.2c-1.2,0-2.2-1-2.2-2.2c0-1.2,1-2.2,2.2-2.2
		C338.7,189.4,339.7,190.4,339.7,191.6z"/>
	<path class="st1" d="M339.7,198.2c0,1.2-1,2.2-2.2,2.2c-1.2,0-2.2-1-2.2-2.2c0-1.2,1-2.2,2.2-2.2C338.7,196,339.7,197,339.7,198.2z
		"/>
	<path class="st1" d="M346.2,191.6c0,1.2-1,2.2-2.2,2.2c-1.2,0-2.2-1-2.2-2.2c0-1.2,1-2.2,2.2-2.2
		C345.3,189.4,346.2,190.4,346.2,191.6z"/>
	<path class="st1" d="M346.2,198.2c0,1.2-1,2.2-2.2,2.2c-1.2,0-2.2-1-2.2-2.2c0-1.2,1-2.2,2.2-2.2C345.3,196,346.2,197,346.2,198.2z
		"/>
	<path class="st1" d="M351.7,191.6c0,1.2-1,2.2-2.2,2.2c-1.2,0-2.2-1-2.2-2.2c0-1.2,1-2.2,2.2-2.2
		C350.7,189.4,351.7,190.4,351.7,191.6z"/>
	<path class="st1" d="M351.7,198.2c0,1.2-1,2.2-2.2,2.2c-1.2,0-2.2-1-2.2-2.2c0-1.2,1-2.2,2.2-2.2C350.7,196,351.7,197,351.7,198.2z
		"/>
	<path class="st1" d="M358.3,191.6c0,1.2-1,2.2-2.2,2.2c-1.2,0-2.2-1-2.2-2.2c0-1.2,1-2.2,2.2-2.2
		C357.3,189.4,358.3,190.4,358.3,191.6z"/>
	<path class="st1" d="M358.3,198.2c0,1.2-1,2.2-2.2,2.2c-1.2,0-2.2-1-2.2-2.2c0-1.2,1-2.2,2.2-2.2C357.3,196,358.3,197,358.3,198.2z
		"/>
	<path class="st1" d="M364.9,191.6c0,1.2-1,2.2-2.2,2.2c-1.2,0-2.2-1-2.2-2.2c0-1.2,1-2.2,2.2-2.2
		C363.9,189.4,364.9,190.4,364.9,191.6z"/>
	<path class="st1" d="M364.9,198.2c0,1.2-1,2.2-2.2,2.2c-1.2,0-2.2-1-2.2-2.2c0-1.2,1-2.2,2.2-2.2C363.9,196,364.9,197,364.9,198.2z
		"/>
	<path class="st1" d="M339.7,204.8c0,1.2-1,2.2-2.2,2.2c-1.2,0-2.2-1-2.2-2.2c0-1.2,1-2.2,2.2-2.2
		C338.7,202.6,339.7,203.6,339.7,204.8z"/>
	<path class="st1" d="M339.7,211.3c0,1.2-1,2.2-2.2,2.2c-1.2,0-2.2-1-2.2-2.2c0-1.2,1-2.2,2.2-2.2
		C338.7,209.1,339.7,210.1,339.7,211.3z"/>
	<path class="st1" d="M334.2,191.6c0,1.2-1,2.2-2.2,2.2s-2.2-1-2.2-2.2c0-1.2,1-2.2,2.2-2.2S334.2,190.4,334.2,191.6z"/>
	<path class="st1" d="M334.2,198.2c0,1.2-1,2.2-2.2,2.2s-2.2-1-2.2-2.2c0-1.2,1-2.2,2.2-2.2S334.2,197,334.2,198.2z"/>
	<path class="st1" d="M326.5,198.2c0,1.2-1,2.2-2.2,2.2c-1.2,0-2.2-1-2.2-2.2c0-1.2,1-2.2,2.2-2.2C325.5,196,326.5,197,326.5,198.2z
		"/>
	<path class="st1" d="M334.2,204.8c0,1.2-1,2.2-2.2,2.2s-2.2-1-2.2-2.2c0-1.2,1-2.2,2.2-2.2S334.2,203.6,334.2,204.8z"/>
	<path class="st1" d="M334.2,211.3c0,1.2-1,2.2-2.2,2.2s-2.2-1-2.2-2.2c0-1.2,1-2.2,2.2-2.2S334.2,210.1,334.2,211.3z"/>
	<path class="st1" d="M346.2,204.8c0,1.2-1,2.2-2.2,2.2c-1.2,0-2.2-1-2.2-2.2c0-1.2,1-2.2,2.2-2.2
		C345.3,202.6,346.2,203.6,346.2,204.8z"/>
	<path class="st1" d="M346.2,211.3c0,1.2-1,2.2-2.2,2.2c-1.2,0-2.2-1-2.2-2.2c0-1.2,1-2.2,2.2-2.2
		C345.3,209.1,346.2,210.1,346.2,211.3z"/>
	<path class="st1" d="M351.7,204.8c0,1.2-1,2.2-2.2,2.2c-1.2,0-2.2-1-2.2-2.2c0-1.2,1-2.2,2.2-2.2
		C350.7,202.6,351.7,203.6,351.7,204.8z"/>
	<path class="st1" d="M351.7,211.3c0,1.2-1,2.2-2.2,2.2c-1.2,0-2.2-1-2.2-2.2c0-1.2,1-2.2,2.2-2.2
		C350.7,209.1,351.7,210.1,351.7,211.3z"/>
	<path class="st1" d="M358.3,204.8c0,1.2-1,2.2-2.2,2.2c-1.2,0-2.2-1-2.2-2.2c0-1.2,1-2.2,2.2-2.2
		C357.3,202.6,358.3,203.6,358.3,204.8z"/>
	<path class="st1" d="M358.3,211.3c0,1.2-1,2.2-2.2,2.2c-1.2,0-2.2-1-2.2-2.2c0-1.2,1-2.2,2.2-2.2
		C357.3,209.1,358.3,210.1,358.3,211.3z"/>
	<path class="st1" d="M364.9,204.8c0,1.2-1,2.2-2.2,2.2c-1.2,0-2.2-1-2.2-2.2c0-1.2,1-2.2,2.2-2.2
		C363.9,202.6,364.9,203.6,364.9,204.8z"/>
	<path class="st1" d="M364.9,211.3c0,1.2-1,2.2-2.2,2.2c-1.2,0-2.2-1-2.2-2.2c0-1.2,1-2.2,2.2-2.2
		C363.9,209.1,364.9,210.1,364.9,211.3z"/>
	<path class="st1" d="M339.7,216.8c0,1.2-1,2.2-2.2,2.2c-1.2,0-2.2-1-2.2-2.2c0-1.2,1-2.2,2.2-2.2
		C338.7,214.6,339.7,215.6,339.7,216.8z"/>
	<path class="st1" d="M339.7,223.4c0,1.2-1,2.2-2.2,2.2c-1.2,0-2.2-1-2.2-2.2c0-1.2,1-2.2,2.2-2.2
		C338.7,221.2,339.7,222.2,339.7,223.4z"/>
	<path class="st1" d="M346.2,216.8c0,1.2-1,2.2-2.2,2.2c-1.2,0-2.2-1-2.2-2.2c0-1.2,1-2.2,2.2-2.2
		C345.3,214.6,346.2,215.6,346.2,216.8z"/>
	<path class="st1" d="M346.2,223.4c0,1.2-1,2.2-2.2,2.2c-1.2,0-2.2-1-2.2-2.2c0-1.2,1-2.2,2.2-2.2
		C345.3,221.2,346.2,222.2,346.2,223.4z"/>
	<path class="st1" d="M351.7,216.8c0,1.2-1,2.2-2.2,2.2c-1.2,0-2.2-1-2.2-2.2c0-1.2,1-2.2,2.2-2.2
		C350.7,214.6,351.7,215.6,351.7,216.8z"/>
	<path class="st1" d="M351.7,223.4c0,1.2-1,2.2-2.2,2.2c-1.2,0-2.2-1-2.2-2.2c0-1.2,1-2.2,2.2-2.2
		C350.7,221.2,351.7,222.2,351.7,223.4z"/>
	<path class="st1" d="M358.3,216.8c0,1.2-1,2.2-2.2,2.2c-1.2,0-2.2-1-2.2-2.2c0-1.2,1-2.2,2.2-2.2
		C357.3,214.6,358.3,215.6,358.3,216.8z"/>
	<path class="st1" d="M358.3,223.4c0,1.2-1,2.2-2.2,2.2c-1.2,0-2.2-1-2.2-2.2c0-1.2,1-2.2,2.2-2.2
		C357.3,221.2,358.3,222.2,358.3,223.4z"/>
	<path class="st1" d="M364.9,216.8c0,1.2-1,2.2-2.2,2.2c-1.2,0-2.2-1-2.2-2.2c0-1.2,1-2.2,2.2-2.2
		C363.9,214.6,364.9,215.6,364.9,216.8z"/>
	<path class="st1" d="M364.9,223.4c0,1.2-1,2.2-2.2,2.2c-1.2,0-2.2-1-2.2-2.2c0-1.2,1-2.2,2.2-2.2
		C363.9,221.2,364.9,222.2,364.9,223.4z"/>
	<path class="st1" d="M371.5,230c0,1.2-1,2.2-2.2,2.2c-1.2,0-2.2-1-2.2-2.2s1-2.2,2.2-2.2C370.5,227.8,371.5,228.8,371.5,230z"/>
	<path class="st1" d="M346.2,230c0,1.2-1,2.2-2.2,2.2c-1.2,0-2.2-1-2.2-2.2s1-2.2,2.2-2.2C345.3,227.8,346.2,228.8,346.2,230z"/>
	<path class="st1" d="M351.7,230c0,1.2-1,2.2-2.2,2.2c-1.2,0-2.2-1-2.2-2.2s1-2.2,2.2-2.2C350.7,227.8,351.7,228.8,351.7,230z"/>
	<path class="st1" d="M358.3,230c0,1.2-1,2.2-2.2,2.2c-1.2,0-2.2-1-2.2-2.2s1-2.2,2.2-2.2C357.3,227.8,358.3,228.8,358.3,230z"/>
	<path class="st1" d="M364.9,230c0,1.2-1,2.2-2.2,2.2c-1.2,0-2.2-1-2.2-2.2s1-2.2,2.2-2.2C363.9,227.8,364.9,228.8,364.9,230z"/>
	<path class="st1" d="M390.1,230c0,1.2-1,2.2-2.2,2.2c-1.2,0-2.2-1-2.2-2.2c0-1.2,1-2.2,2.2-2.2C389.1,227.8,390.1,228.8,390.1,230z
		"/>
	<path class="st1" d="M396.7,230c0,1.2-1,2.2-2.2,2.2c-1.2,0-2.2-1-2.2-2.2c0-1.2,1-2.2,2.2-2.2C395.7,227.8,396.7,228.8,396.7,230z
		"/>
	<path class="st1" d="M403.2,230c0,1.2-1,2.2-2.2,2.2c-1.2,0-2.2-1-2.2-2.2c0-1.2,1-2.2,2.2-2.2C402.3,227.8,403.2,228.8,403.2,230z
		"/>
	<path class="st1" d="M403.2,236.5c0,1.2-1,2.2-2.2,2.2c-1.2,0-2.2-1-2.2-2.2c0-1.2,1-2.2,2.2-2.2
		C402.3,234.4,403.2,235.3,403.2,236.5z"/>
	<path class="st1" d="M408.7,230c0,1.2-1,2.2-2.2,2.2s-2.2-1-2.2-2.2c0-1.2,1-2.2,2.2-2.2S408.7,228.8,408.7,230z"/>
	<path class="st1" d="M408.7,236.5c0,1.2-1,2.2-2.2,2.2s-2.2-1-2.2-2.2c0-1.2,1-2.2,2.2-2.2S408.7,235.3,408.7,236.5z"/>
	<path class="st1" d="M415.3,230c0,1.2-1,2.2-2.2,2.2c-1.2,0-2.2-1-2.2-2.2c0-1.2,1-2.2,2.2-2.2C414.3,227.8,415.3,228.8,415.3,230z
		"/>
	<path class="st1" d="M415.3,236.5c0,1.2-1,2.2-2.2,2.2c-1.2,0-2.2-1-2.2-2.2c0-1.2,1-2.2,2.2-2.2
		C414.3,234.4,415.3,235.3,415.3,236.5z"/>
	<path class="st1" d="M421.9,243.1c0,1.2-1,2.2-2.2,2.2c-1.2,0-2.2-1-2.2-2.2s1-2.2,2.2-2.2C420.9,240.9,421.9,241.9,421.9,243.1z"
		/>
	<path class="st1" d="M421.9,248.6c0,1.2-1,2.2-2.2,2.2c-1.2,0-2.2-1-2.2-2.2c0-1.2,1-2.2,2.2-2.2
		C420.9,246.4,421.9,247.4,421.9,248.6z"/>
	<path class="st1" d="M428.5,243.1c0,1.2-1,2.2-2.2,2.2c-1.2,0-2.2-1-2.2-2.2s1-2.2,2.2-2.2C427.5,240.9,428.5,241.9,428.5,243.1z"
		/>
	<path class="st1" d="M428.5,248.6c0,1.2-1,2.2-2.2,2.2c-1.2,0-2.2-1-2.2-2.2c0-1.2,1-2.2,2.2-2.2
		C427.5,246.4,428.5,247.4,428.5,248.6z"/>
	<path class="st1" d="M433.9,243.1c0,1.2-1,2.2-2.2,2.2s-2.2-1-2.2-2.2s1-2.2,2.2-2.2S433.9,241.9,433.9,243.1z"/>
	<path class="st1" d="M433.9,248.6c0,1.2-1,2.2-2.2,2.2s-2.2-1-2.2-2.2c0-1.2,1-2.2,2.2-2.2S433.9,247.4,433.9,248.6z"/>
	<path class="st1" d="M440.5,243.1c0,1.2-1,2.2-2.2,2.2c-1.2,0-2.2-1-2.2-2.2s1-2.2,2.2-2.2C439.5,240.9,440.5,241.9,440.5,243.1z"
		/>
	<path class="st1" d="M440.5,248.6c0,1.2-1,2.2-2.2,2.2c-1.2,0-2.2-1-2.2-2.2c0-1.2,1-2.2,2.2-2.2
		C439.5,246.4,440.5,247.4,440.5,248.6z"/>
	<path class="st1" d="M447.1,243.1c0,1.2-1,2.2-2.2,2.2c-1.2,0-2.2-1-2.2-2.2s1-2.2,2.2-2.2C446.1,240.9,447.1,241.9,447.1,243.1z"
		/>
	<path class="st1" d="M447.1,248.6c0,1.2-1,2.2-2.2,2.2c-1.2,0-2.2-1-2.2-2.2c0-1.2,1-2.2,2.2-2.2
		C446.1,246.4,447.1,247.4,447.1,248.6z"/>
	<path class="st1" d="M421.9,255.2c0,1.2-1,2.2-2.2,2.2c-1.2,0-2.2-1-2.2-2.2s1-2.2,2.2-2.2C420.9,253,421.9,254,421.9,255.2z"/>
	<path class="st1" d="M421.9,261.7c0,1.2-1,2.2-2.2,2.2c-1.2,0-2.2-1-2.2-2.2c0-1.2,1-2.2,2.2-2.2
		C420.9,259.6,421.9,260.5,421.9,261.7z"/>
	<path class="st1" d="M428.5,255.2c0,1.2-1,2.2-2.2,2.2c-1.2,0-2.2-1-2.2-2.2s1-2.2,2.2-2.2C427.5,253,428.5,254,428.5,255.2z"/>
	<path class="st1" d="M428.5,261.7c0,1.2-1,2.2-2.2,2.2c-1.2,0-2.2-1-2.2-2.2c0-1.2,1-2.2,2.2-2.2
		C427.5,259.6,428.5,260.5,428.5,261.7z"/>
	<path class="st1" d="M433.9,255.2c0,1.2-1,2.2-2.2,2.2s-2.2-1-2.2-2.2s1-2.2,2.2-2.2S433.9,254,433.9,255.2z"/>
	<path class="st1" d="M433.9,261.7c0,1.2-1,2.2-2.2,2.2s-2.2-1-2.2-2.2c0-1.2,1-2.2,2.2-2.2S433.9,260.5,433.9,261.7z"/>
	<path class="st1" d="M440.5,255.2c0,1.2-1,2.2-2.2,2.2c-1.2,0-2.2-1-2.2-2.2s1-2.2,2.2-2.2C439.5,253,440.5,254,440.5,255.2z"/>
	<path class="st1" d="M440.5,261.7c0,1.2-1,2.2-2.2,2.2c-1.2,0-2.2-1-2.2-2.2c0-1.2,1-2.2,2.2-2.2
		C439.5,259.6,440.5,260.5,440.5,261.7z"/>
	<path class="st1" d="M403.2,248.6c0,1.2-1,2.2-2.2,2.2c-1.2,0-2.2-1-2.2-2.2c0-1.2,1-2.2,2.2-2.2
		C402.3,246.4,403.2,247.4,403.2,248.6z"/>
	<path class="st1" d="M408.7,243.1c0,1.2-1,2.2-2.2,2.2c-1.2,0-2.2-1-2.2-2.2s1-2.2,2.2-2.2C407.7,240.9,408.7,241.9,408.7,243.1z"
		/>
	<path class="st1" d="M408.7,248.6c0,1.2-1,2.2-2.2,2.2c-1.2,0-2.2-1-2.2-2.2c0-1.2,1-2.2,2.2-2.2
		C407.7,246.4,408.7,247.4,408.7,248.6z"/>
	<path class="st1" d="M415.3,243.1c0,1.2-1,2.2-2.2,2.2c-1.2,0-2.2-1-2.2-2.2s1-2.2,2.2-2.2C414.3,240.9,415.3,241.9,415.3,243.1z"
		/>
	<path class="st1" d="M415.3,248.6c0,1.2-1,2.2-2.2,2.2c-1.2,0-2.2-1-2.2-2.2c0-1.2,1-2.2,2.2-2.2
		C414.3,246.4,415.3,247.4,415.3,248.6z"/>
	<path class="st1" d="M403.2,255.2c0,1.2-1,2.2-2.2,2.2c-1.2,0-2.2-1-2.2-2.2s1-2.2,2.2-2.2C402.3,253,403.2,254,403.2,255.2z"/>
	<path class="st1" d="M408.7,255.2c0,1.2-1,2.2-2.2,2.2c-1.2,0-2.2-1-2.2-2.2s1-2.2,2.2-2.2C407.7,253,408.7,254,408.7,255.2z"/>
	<path class="st1" d="M408.7,261.7c0,1.2-1,2.2-2.2,2.2c-1.2,0-2.2-1-2.2-2.2c0-1.2,1-2.2,2.2-2.2
		C407.7,259.6,408.7,260.5,408.7,261.7z"/>
	<path class="st1" d="M415.3,255.2c0,1.2-1,2.2-2.2,2.2c-1.2,0-2.2-1-2.2-2.2s1-2.2,2.2-2.2C414.3,253,415.3,254,415.3,255.2z"/>
	<path class="st1" d="M415.3,261.7c0,1.2-1,2.2-2.2,2.2c-1.2,0-2.2-1-2.2-2.2c0-1.2,1-2.2,2.2-2.2
		C414.3,259.6,415.3,260.5,415.3,261.7z"/>
	<path class="st1" d="M447.1,255.2c0,1.2-1,2.2-2.2,2.2c-1.2,0-2.2-1-2.2-2.2s1-2.2,2.2-2.2C446.1,253,447.1,254,447.1,255.2z"/>
	<path class="st1" d="M447.1,261.7c0,1.2-1,2.2-2.2,2.2c-1.2,0-2.2-1-2.2-2.2c0-1.2,1-2.2,2.2-2.2
		C446.1,259.6,447.1,260.5,447.1,261.7z"/>
	<path class="st1" d="M453.7,191.6c0,1.2-1,2.2-2.2,2.2c-1.2,0-2.2-1-2.2-2.2c0-1.2,1-2.2,2.2-2.2
		C452.7,189.4,453.7,190.4,453.7,191.6z"/>
	<path class="st1" d="M453.7,198.2c0,1.2-1,2.2-2.2,2.2c-1.2,0-2.2-1-2.2-2.2c0-1.2,1-2.2,2.2-2.2C452.7,196,453.7,197,453.7,198.2z
		"/>
	<path class="st1" d="M459.2,191.6c0,1.2-1,2.2-2.2,2.2c-1.2,0-2.2-1-2.2-2.2c0-1.2,1-2.2,2.2-2.2
		C458.2,189.4,459.2,190.4,459.2,191.6z"/>
	<path class="st1" d="M459.2,198.2c0,1.2-1,2.2-2.2,2.2c-1.2,0-2.2-1-2.2-2.2c0-1.2,1-2.2,2.2-2.2C458.2,196,459.2,197,459.2,198.2z
		"/>
	<path class="st1" d="M465.7,191.6c0,1.2-1,2.2-2.2,2.2c-1.2,0-2.2-1-2.2-2.2c0-1.2,1-2.2,2.2-2.2
		C464.8,189.4,465.7,190.4,465.7,191.6z"/>
	<path class="st1" d="M465.7,198.2c0,1.2-1,2.2-2.2,2.2c-1.2,0-2.2-1-2.2-2.2c0-1.2,1-2.2,2.2-2.2C464.8,196,465.7,197,465.7,198.2z
		"/>
	<path class="st1" d="M472.3,191.6c0,1.2-1,2.2-2.2,2.2c-1.2,0-2.2-1-2.2-2.2c0-1.2,1-2.2,2.2-2.2
		C471.3,189.4,472.3,190.4,472.3,191.6z"/>
	<path class="st1" d="M472.3,198.2c0,1.2-1,2.2-2.2,2.2c-1.2,0-2.2-1-2.2-2.2c0-1.2,1-2.2,2.2-2.2C471.3,196,472.3,197,472.3,198.2z
		"/>
	<path class="st1" d="M478.9,191.6c0,1.2-1,2.2-2.2,2.2s-2.2-1-2.2-2.2c0-1.2,1-2.2,2.2-2.2S478.9,190.4,478.9,191.6z"/>
	<path class="st1" d="M478.9,198.2c0,1.2-1,2.2-2.2,2.2s-2.2-1-2.2-2.2c0-1.2,1-2.2,2.2-2.2S478.9,197,478.9,198.2z"/>
	<path class="st1" d="M453.7,204.8c0,1.2-1,2.2-2.2,2.2c-1.2,0-2.2-1-2.2-2.2c0-1.2,1-2.2,2.2-2.2
		C452.7,202.6,453.7,203.6,453.7,204.8z"/>
	<path class="st1" d="M453.7,211.3c0,1.2-1,2.2-2.2,2.2c-1.2,0-2.2-1-2.2-2.2c0-1.2,1-2.2,2.2-2.2
		C452.7,209.1,453.7,210.1,453.7,211.3z"/>
	<path class="st1" d="M459.2,204.8c0,1.2-1,2.2-2.2,2.2c-1.2,0-2.2-1-2.2-2.2c0-1.2,1-2.2,2.2-2.2
		C458.2,202.6,459.2,203.6,459.2,204.8z"/>
	<path class="st1" d="M459.2,211.3c0,1.2-1,2.2-2.2,2.2c-1.2,0-2.2-1-2.2-2.2c0-1.2,1-2.2,2.2-2.2
		C458.2,209.1,459.2,210.1,459.2,211.3z"/>
	<path class="st1" d="M465.7,204.8c0,1.2-1,2.2-2.2,2.2c-1.2,0-2.2-1-2.2-2.2c0-1.2,1-2.2,2.2-2.2
		C464.8,202.6,465.7,203.6,465.7,204.8z"/>
	<path class="st1" d="M465.7,211.3c0,1.2-1,2.2-2.2,2.2c-1.2,0-2.2-1-2.2-2.2c0-1.2,1-2.2,2.2-2.2
		C464.8,209.1,465.7,210.1,465.7,211.3z"/>
	<path class="st1" d="M472.3,204.8c0,1.2-1,2.2-2.2,2.2c-1.2,0-2.2-1-2.2-2.2c0-1.2,1-2.2,2.2-2.2
		C471.3,202.6,472.3,203.6,472.3,204.8z"/>
	<path class="st1" d="M472.3,211.3c0,1.2-1,2.2-2.2,2.2c-1.2,0-2.2-1-2.2-2.2c0-1.2,1-2.2,2.2-2.2
		C471.3,209.1,472.3,210.1,472.3,211.3z"/>
	<path class="st1" d="M478.9,204.8c0,1.2-1,2.2-2.2,2.2s-2.2-1-2.2-2.2c0-1.2,1-2.2,2.2-2.2S478.9,203.6,478.9,204.8z"/>
	<path class="st1" d="M478.9,211.3c0,1.2-1,2.2-2.2,2.2s-2.2-1-2.2-2.2c0-1.2,1-2.2,2.2-2.2S478.9,210.1,478.9,211.3z"/>
	<path class="st1" d="M453.7,216.8c0,1.2-1,2.2-2.2,2.2c-1.2,0-2.2-1-2.2-2.2c0-1.2,1-2.2,2.2-2.2
		C452.7,214.6,453.7,215.6,453.7,216.8z"/>
	<path class="st1" d="M453.7,223.4c0,1.2-1,2.2-2.2,2.2c-1.2,0-2.2-1-2.2-2.2c0-1.2,1-2.2,2.2-2.2
		C452.7,221.2,453.7,222.2,453.7,223.4z"/>
	<path class="st1" d="M459.2,216.8c0,1.2-1,2.2-2.2,2.2c-1.2,0-2.2-1-2.2-2.2c0-1.2,1-2.2,2.2-2.2
		C458.2,214.6,459.2,215.6,459.2,216.8z"/>
	<path class="st1" d="M459.2,223.4c0,1.2-1,2.2-2.2,2.2c-1.2,0-2.2-1-2.2-2.2c0-1.2,1-2.2,2.2-2.2
		C458.2,221.2,459.2,222.2,459.2,223.4z"/>
	<path class="st1" d="M465.7,216.8c0,1.2-1,2.2-2.2,2.2c-1.2,0-2.2-1-2.2-2.2c0-1.2,1-2.2,2.2-2.2
		C464.8,214.6,465.7,215.6,465.7,216.8z"/>
	<path class="st1" d="M465.7,223.4c0,1.2-1,2.2-2.2,2.2c-1.2,0-2.2-1-2.2-2.2c0-1.2,1-2.2,2.2-2.2
		C464.8,221.2,465.7,222.2,465.7,223.4z"/>
	<path class="st1" d="M472.3,216.8c0,1.2-1,2.2-2.2,2.2c-1.2,0-2.2-1-2.2-2.2c0-1.2,1-2.2,2.2-2.2
		C471.3,214.6,472.3,215.6,472.3,216.8z"/>
	<path class="st1" d="M472.3,223.4c0,1.2-1,2.2-2.2,2.2c-1.2,0-2.2-1-2.2-2.2c0-1.2,1-2.2,2.2-2.2
		C471.3,221.2,472.3,222.2,472.3,223.4z"/>
	<path class="st1" d="M478.9,216.8c0,1.2-1,2.2-2.2,2.2s-2.2-1-2.2-2.2c0-1.2,1-2.2,2.2-2.2S478.9,215.6,478.9,216.8z"/>
	<path class="st1" d="M478.9,223.4c0,1.2-1,2.2-2.2,2.2s-2.2-1-2.2-2.2c0-1.2,1-2.2,2.2-2.2S478.9,222.2,478.9,223.4z"/>
	<path class="st1" d="M453.7,230c0,1.2-1,2.2-2.2,2.2c-1.2,0-2.2-1-2.2-2.2c0-1.2,1-2.2,2.2-2.2C452.7,227.8,453.7,228.8,453.7,230z
		"/>
	<path class="st1" d="M453.7,236.5c0,1.2-1,2.2-2.2,2.2c-1.2,0-2.2-1-2.2-2.2c0-1.2,1-2.2,2.2-2.2
		C452.7,234.4,453.7,235.3,453.7,236.5z"/>
	<path class="st1" d="M459.2,230c0,1.2-1,2.2-2.2,2.2c-1.2,0-2.2-1-2.2-2.2c0-1.2,1-2.2,2.2-2.2C458.2,227.8,459.2,228.8,459.2,230z
		"/>
	<path class="st1" d="M459.2,236.5c0,1.2-1,2.2-2.2,2.2c-1.2,0-2.2-1-2.2-2.2c0-1.2,1-2.2,2.2-2.2
		C458.2,234.4,459.2,235.3,459.2,236.5z"/>
	<path class="st1" d="M465.7,230c0,1.2-1,2.2-2.2,2.2c-1.2,0-2.2-1-2.2-2.2c0-1.2,1-2.2,2.2-2.2C464.8,227.8,465.7,228.8,465.7,230z
		"/>
	<path class="st1" d="M465.7,236.5c0,1.2-1,2.2-2.2,2.2c-1.2,0-2.2-1-2.2-2.2c0-1.2,1-2.2,2.2-2.2
		C464.8,234.4,465.7,235.3,465.7,236.5z"/>
	<path class="st1" d="M472.3,230c0,1.2-1,2.2-2.2,2.2c-1.2,0-2.2-1-2.2-2.2c0-1.2,1-2.2,2.2-2.2C471.3,227.8,472.3,228.8,472.3,230z
		"/>
	<path class="st1" d="M472.3,236.5c0,1.2-1,2.2-2.2,2.2c-1.2,0-2.2-1-2.2-2.2c0-1.2,1-2.2,2.2-2.2
		C471.3,234.4,472.3,235.3,472.3,236.5z"/>
	<path class="st1" d="M478.9,230c0,1.2-1,2.2-2.2,2.2s-2.2-1-2.2-2.2c0-1.2,1-2.2,2.2-2.2S478.9,228.8,478.9,230z"/>
	<path class="st1" d="M478.9,236.5c0,1.2-1,2.2-2.2,2.2s-2.2-1-2.2-2.2c0-1.2,1-2.2,2.2-2.2S478.9,235.3,478.9,236.5z"/>
	<path class="st1" d="M453.7,243.1c0,1.2-1,2.2-2.2,2.2c-1.2,0-2.2-1-2.2-2.2s1-2.2,2.2-2.2C452.7,240.9,453.7,241.9,453.7,243.1z"
		/>
	<path class="st1" d="M453.7,248.6c0,1.2-1,2.2-2.2,2.2c-1.2,0-2.2-1-2.2-2.2c0-1.2,1-2.2,2.2-2.2
		C452.7,246.4,453.7,247.4,453.7,248.6z"/>
	<path class="st1" d="M459.2,243.1c0,1.2-1,2.2-2.2,2.2c-1.2,0-2.2-1-2.2-2.2s1-2.2,2.2-2.2C458.2,240.9,459.2,241.9,459.2,243.1z"
		/>
	<path class="st1" d="M459.2,248.6c0,1.2-1,2.2-2.2,2.2c-1.2,0-2.2-1-2.2-2.2c0-1.2,1-2.2,2.2-2.2
		C458.2,246.4,459.2,247.4,459.2,248.6z"/>
	<path class="st1" d="M465.7,243.1c0,1.2-1,2.2-2.2,2.2c-1.2,0-2.2-1-2.2-2.2s1-2.2,2.2-2.2C464.8,240.9,465.7,241.9,465.7,243.1z"
		/>
	<path class="st1" d="M465.7,248.6c0,1.2-1,2.2-2.2,2.2c-1.2,0-2.2-1-2.2-2.2c0-1.2,1-2.2,2.2-2.2
		C464.8,246.4,465.7,247.4,465.7,248.6z"/>
	<path class="st1" d="M472.3,243.1c0,1.2-1,2.2-2.2,2.2c-1.2,0-2.2-1-2.2-2.2s1-2.2,2.2-2.2C471.3,240.9,472.3,241.9,472.3,243.1z"
		/>
	<path class="st1" d="M472.3,248.6c0,1.2-1,2.2-2.2,2.2c-1.2,0-2.2-1-2.2-2.2c0-1.2,1-2.2,2.2-2.2
		C471.3,246.4,472.3,247.4,472.3,248.6z"/>
	<path class="st1" d="M478.9,243.1c0,1.2-1,2.2-2.2,2.2s-2.2-1-2.2-2.2s1-2.2,2.2-2.2S478.9,241.9,478.9,243.1z"/>
	<path class="st1" d="M478.9,248.6c0,1.2-1,2.2-2.2,2.2s-2.2-1-2.2-2.2c0-1.2,1-2.2,2.2-2.2S478.9,247.4,478.9,248.6z"/>
	<path class="st1" d="M453.7,255.2c0,1.2-1,2.2-2.2,2.2c-1.2,0-2.2-1-2.2-2.2s1-2.2,2.2-2.2C452.7,253,453.7,254,453.7,255.2z"/>
	<path class="st1" d="M453.7,261.7c0,1.2-1,2.2-2.2,2.2c-1.2,0-2.2-1-2.2-2.2c0-1.2,1-2.2,2.2-2.2
		C452.7,259.6,453.7,260.5,453.7,261.7z"/>
	<path class="st1" d="M459.2,255.2c0,1.2-1,2.2-2.2,2.2c-1.2,0-2.2-1-2.2-2.2s1-2.2,2.2-2.2C458.2,253,459.2,254,459.2,255.2z"/>
	<path class="st1" d="M459.2,261.7c0,1.2-1,2.2-2.2,2.2c-1.2,0-2.2-1-2.2-2.2c0-1.2,1-2.2,2.2-2.2
		C458.2,259.6,459.2,260.5,459.2,261.7z"/>
	<path class="st1" d="M465.7,255.2c0,1.2-1,2.2-2.2,2.2c-1.2,0-2.2-1-2.2-2.2s1-2.2,2.2-2.2C464.8,253,465.7,254,465.7,255.2z"/>
	<path class="st1" d="M465.7,261.7c0,1.2-1,2.2-2.2,2.2c-1.2,0-2.2-1-2.2-2.2c0-1.2,1-2.2,2.2-2.2
		C464.8,259.6,465.7,260.5,465.7,261.7z"/>
	<path class="st1" d="M472.3,255.2c0,1.2-1,2.2-2.2,2.2c-1.2,0-2.2-1-2.2-2.2s1-2.2,2.2-2.2C471.3,253,472.3,254,472.3,255.2z"/>
	<path class="st1" d="M472.3,261.7c0,1.2-1,2.2-2.2,2.2c-1.2,0-2.2-1-2.2-2.2c0-1.2,1-2.2,2.2-2.2
		C471.3,259.6,472.3,260.5,472.3,261.7z"/>
	<path class="st1" d="M478.9,255.2c0,1.2-1,2.2-2.2,2.2s-2.2-1-2.2-2.2s1-2.2,2.2-2.2S478.9,254,478.9,255.2z"/>
	<path class="st1" d="M478.9,261.7c0,1.2-1,2.2-2.2,2.2s-2.2-1-2.2-2.2c0-1.2,1-2.2,2.2-2.2S478.9,260.5,478.9,261.7z"/>
	<path class="st1" d="M453.7,268.3c0,1.2-1,2.2-2.2,2.2c-1.2,0-2.2-1-2.2-2.2c0-1.2,1-2.2,2.2-2.2
		C452.7,266.1,453.7,267.1,453.7,268.3z"/>
	<path class="st1" d="M453.7,274.9c0,1.2-1,2.2-2.2,2.2c-1.2,0-2.2-1-2.2-2.2c0-1.2,1-2.2,2.2-2.2
		C452.7,272.7,453.7,273.7,453.7,274.9z"/>
	<path class="st1" d="M459.2,268.3c0,1.2-1,2.2-2.2,2.2c-1.2,0-2.2-1-2.2-2.2c0-1.2,1-2.2,2.2-2.2
		C458.2,266.1,459.2,267.1,459.2,268.3z"/>
	<path class="st1" d="M459.2,274.9c0,1.2-1,2.2-2.2,2.2c-1.2,0-2.2-1-2.2-2.2c0-1.2,1-2.2,2.2-2.2
		C458.2,272.7,459.2,273.7,459.2,274.9z"/>
	<path class="st1" d="M465.7,268.3c0,1.2-1,2.2-2.2,2.2c-1.2,0-2.2-1-2.2-2.2c0-1.2,1-2.2,2.2-2.2
		C464.8,266.1,465.7,267.1,465.7,268.3z"/>
	<path class="st1" d="M465.7,274.9c0,1.2-1,2.2-2.2,2.2c-1.2,0-2.2-1-2.2-2.2c0-1.2,1-2.2,2.2-2.2
		C464.8,272.7,465.7,273.7,465.7,274.9z"/>
	<path class="st1" d="M472.3,268.3c0,1.2-1,2.2-2.2,2.2c-1.2,0-2.2-1-2.2-2.2c0-1.2,1-2.2,2.2-2.2
		C471.3,266.1,472.3,267.1,472.3,268.3z"/>
	<path class="st1" d="M472.3,274.9c0,1.2-1,2.2-2.2,2.2c-1.2,0-2.2-1-2.2-2.2c0-1.2,1-2.2,2.2-2.2
		C471.3,272.7,472.3,273.7,472.3,274.9z"/>
	<path class="st1" d="M478.9,268.3c0,1.2-1,2.2-2.2,2.2s-2.2-1-2.2-2.2c0-1.2,1-2.2,2.2-2.2S478.9,267.1,478.9,268.3z"/>
	<path class="st1" d="M478.9,274.9c0,1.2-1,2.2-2.2,2.2s-2.2-1-2.2-2.2c0-1.2,1-2.2,2.2-2.2S478.9,273.7,478.9,274.9z"/>
	<path class="st1" d="M453.7,280.4c0,1.2-1,2.2-2.2,2.2c-1.2,0-2.2-1-2.2-2.2c0-1.2,1-2.2,2.2-2.2
		C452.7,278.2,453.7,279.2,453.7,280.4z"/>
	<path class="st1" d="M453.7,287c0,1.2-1,2.2-2.2,2.2c-1.2,0-2.2-1-2.2-2.2c0-1.2,1-2.2,2.2-2.2C452.7,284.8,453.7,285.7,453.7,287z
		"/>
	<path class="st1" d="M459.2,280.4c0,1.2-1,2.2-2.2,2.2c-1.2,0-2.2-1-2.2-2.2c0-1.2,1-2.2,2.2-2.2
		C458.2,278.2,459.2,279.2,459.2,280.4z"/>
	<path class="st1" d="M459.2,287c0,1.2-1,2.2-2.2,2.2c-1.2,0-2.2-1-2.2-2.2c0-1.2,1-2.2,2.2-2.2C458.2,284.8,459.2,285.7,459.2,287z
		"/>
	<path class="st1" d="M465.7,280.4c0,1.2-1,2.2-2.2,2.2c-1.2,0-2.2-1-2.2-2.2c0-1.2,1-2.2,2.2-2.2
		C464.8,278.2,465.7,279.2,465.7,280.4z"/>
	<path class="st1" d="M465.7,287c0,1.2-1,2.2-2.2,2.2c-1.2,0-2.2-1-2.2-2.2c0-1.2,1-2.2,2.2-2.2C464.8,284.8,465.7,285.7,465.7,287z
		"/>
	<path class="st1" d="M472.3,280.4c0,1.2-1,2.2-2.2,2.2c-1.2,0-2.2-1-2.2-2.2c0-1.2,1-2.2,2.2-2.2
		C471.3,278.2,472.3,279.2,472.3,280.4z"/>
	<path class="st1" d="M472.3,287c0,1.2-1,2.2-2.2,2.2c-1.2,0-2.2-1-2.2-2.2c0-1.2,1-2.2,2.2-2.2C471.3,284.8,472.3,285.7,472.3,287z
		"/>
	<path class="st1" d="M478.9,280.4c0,1.2-1,2.2-2.2,2.2s-2.2-1-2.2-2.2c0-1.2,1-2.2,2.2-2.2S478.9,279.2,478.9,280.4z"/>
	<path class="st1" d="M478.9,287c0,1.2-1,2.2-2.2,2.2s-2.2-1-2.2-2.2c0-1.2,1-2.2,2.2-2.2S478.9,285.7,478.9,287z"/>
	<path class="st1" d="M453.7,293.5c0,1.2-1,2.2-2.2,2.2c-1.2,0-2.2-1-2.2-2.2c0-1.2,1-2.2,2.2-2.2
		C452.7,291.3,453.7,292.3,453.7,293.5z"/>
	<path class="st1" d="M453.7,300.1c0,1.2-1,2.2-2.2,2.2c-1.2,0-2.2-1-2.2-2.2c0-1.2,1-2.2,2.2-2.2
		C452.7,297.9,453.7,298.9,453.7,300.1z"/>
	<path class="st1" d="M459.2,293.5c0,1.2-1,2.2-2.2,2.2c-1.2,0-2.2-1-2.2-2.2c0-1.2,1-2.2,2.2-2.2
		C458.2,291.3,459.2,292.3,459.2,293.5z"/>
	<path class="st1" d="M459.2,300.1c0,1.2-1,2.2-2.2,2.2c-1.2,0-2.2-1-2.2-2.2c0-1.2,1-2.2,2.2-2.2
		C458.2,297.9,459.2,298.9,459.2,300.1z"/>
	<path class="st1" d="M465.7,293.5c0,1.2-1,2.2-2.2,2.2c-1.2,0-2.2-1-2.2-2.2c0-1.2,1-2.2,2.2-2.2
		C464.8,291.3,465.7,292.3,465.7,293.5z"/>
	<path class="st1" d="M465.7,300.1c0,1.2-1,2.2-2.2,2.2c-1.2,0-2.2-1-2.2-2.2c0-1.2,1-2.2,2.2-2.2
		C464.8,297.9,465.7,298.9,465.7,300.1z"/>
	<path class="st1" d="M472.3,293.5c0,1.2-1,2.2-2.2,2.2c-1.2,0-2.2-1-2.2-2.2c0-1.2,1-2.2,2.2-2.2
		C471.3,291.3,472.3,292.3,472.3,293.5z"/>
	<path class="st1" d="M472.3,300.1c0,1.2-1,2.2-2.2,2.2c-1.2,0-2.2-1-2.2-2.2c0-1.2,1-2.2,2.2-2.2
		C471.3,297.9,472.3,298.9,472.3,300.1z"/>
	<path class="st1" d="M478.9,293.5c0,1.2-1,2.2-2.2,2.2s-2.2-1-2.2-2.2c0-1.2,1-2.2,2.2-2.2S478.9,292.3,478.9,293.5z"/>
	<path class="st1" d="M478.9,300.1c0,1.2-1,2.2-2.2,2.2s-2.2-1-2.2-2.2c0-1.2,1-2.2,2.2-2.2S478.9,298.9,478.9,300.1z"/>
	<path class="st1" d="M453.7,305.6c0,1.2-1,2.2-2.2,2.2c-1.2,0-2.2-1-2.2-2.2c0-1.2,1-2.2,2.2-2.2
		C452.7,303.4,453.7,304.4,453.7,305.6z"/>
	<path class="st1" d="M453.7,312.2c0,1.2-1,2.2-2.2,2.2c-1.2,0-2.2-1-2.2-2.2c0-1.2,1-2.2,2.2-2.2C452.7,310,453.7,311,453.7,312.2z
		"/>
	<path class="st1" d="M459.2,305.6c0,1.2-1,2.2-2.2,2.2c-1.2,0-2.2-1-2.2-2.2c0-1.2,1-2.2,2.2-2.2
		C458.2,303.4,459.2,304.4,459.2,305.6z"/>
	<path class="st1" d="M459.2,312.2c0,1.2-1,2.2-2.2,2.2c-1.2,0-2.2-1-2.2-2.2c0-1.2,1-2.2,2.2-2.2C458.2,310,459.2,311,459.2,312.2z
		"/>
	<path class="st1" d="M465.7,305.6c0,1.2-1,2.2-2.2,2.2c-1.2,0-2.2-1-2.2-2.2c0-1.2,1-2.2,2.2-2.2
		C464.8,303.4,465.7,304.4,465.7,305.6z"/>
	<path class="st1" d="M465.7,312.2c0,1.2-1,2.2-2.2,2.2c-1.2,0-2.2-1-2.2-2.2c0-1.2,1-2.2,2.2-2.2C464.8,310,465.7,311,465.7,312.2z
		"/>
	<path class="st1" d="M472.3,305.6c0,1.2-1,2.2-2.2,2.2c-1.2,0-2.2-1-2.2-2.2c0-1.2,1-2.2,2.2-2.2
		C471.3,303.4,472.3,304.4,472.3,305.6z"/>
	<path class="st1" d="M472.3,312.2c0,1.2-1,2.2-2.2,2.2c-1.2,0-2.2-1-2.2-2.2c0-1.2,1-2.2,2.2-2.2C471.3,310,472.3,311,472.3,312.2z
		"/>
	<path class="st1" d="M478.9,305.6c0,1.2-1,2.2-2.2,2.2s-2.2-1-2.2-2.2c0-1.2,1-2.2,2.2-2.2S478.9,304.4,478.9,305.6z"/>
	<path class="st1" d="M484.4,191.6c0,1.2-1,2.2-2.2,2.2c-1.2,0-2.2-1-2.2-2.2c0-1.2,1-2.2,2.2-2.2
		C483.4,189.4,484.4,190.4,484.4,191.6z"/>
	<path class="st1" d="M484.4,198.2c0,1.2-1,2.2-2.2,2.2c-1.2,0-2.2-1-2.2-2.2c0-1.2,1-2.2,2.2-2.2C483.4,196,484.4,197,484.4,198.2z
		"/>
	<path class="st1" d="M421.9,179.6c0,1.2-1,2.2-2.2,2.2c-1.2,0-2.2-1-2.2-2.2c0-1.2,1-2.2,2.2-2.2
		C420.9,177.4,421.9,178.3,421.9,179.6z"/>
	<path class="st1" d="M421.9,186.1c0,1.2-1,2.2-2.2,2.2c-1.2,0-2.2-1-2.2-2.2c0-1.2,1-2.2,2.2-2.2
		C420.9,183.9,421.9,184.9,421.9,186.1z"/>
	<path class="st1" d="M428.5,179.6c0,1.2-1,2.2-2.2,2.2c-1.2,0-2.2-1-2.2-2.2c0-1.2,1-2.2,2.2-2.2
		C427.5,177.4,428.5,178.3,428.5,179.6z"/>
	<path class="st1" d="M428.5,186.1c0,1.2-1,2.2-2.2,2.2c-1.2,0-2.2-1-2.2-2.2c0-1.2,1-2.2,2.2-2.2
		C427.5,183.9,428.5,184.9,428.5,186.1z"/>
	<path class="st1" d="M433.9,179.6c0,1.2-1,2.2-2.2,2.2s-2.2-1-2.2-2.2c0-1.2,1-2.2,2.2-2.2S433.9,178.3,433.9,179.6z"/>
	<path class="st1" d="M433.9,186.1c0,1.2-1,2.2-2.2,2.2s-2.2-1-2.2-2.2c0-1.2,1-2.2,2.2-2.2S433.9,184.9,433.9,186.1z"/>
	<path class="st1" d="M440.5,179.6c0,1.2-1,2.2-2.2,2.2c-1.2,0-2.2-1-2.2-2.2c0-1.2,1-2.2,2.2-2.2
		C439.5,177.4,440.5,178.3,440.5,179.6z"/>
	<path class="st1" d="M440.5,186.1c0,1.2-1,2.2-2.2,2.2c-1.2,0-2.2-1-2.2-2.2c0-1.2,1-2.2,2.2-2.2
		C439.5,183.9,440.5,184.9,440.5,186.1z"/>
	<path class="st1" d="M447.1,179.6c0,1.2-1,2.2-2.2,2.2c-1.2,0-2.2-1-2.2-2.2c0-1.2,1-2.2,2.2-2.2
		C446.1,177.4,447.1,178.3,447.1,179.6z"/>
	<path class="st1" d="M447.1,186.1c0,1.2-1,2.2-2.2,2.2c-1.2,0-2.2-1-2.2-2.2c0-1.2,1-2.2,2.2-2.2
		C446.1,183.9,447.1,184.9,447.1,186.1z"/>
	<path class="st1" d="M390.1,179.6c0,1.2-1,2.2-2.2,2.2c-1.2,0-2.2-1-2.2-2.2c0-1.2,1-2.2,2.2-2.2
		C389.1,177.4,390.1,178.3,390.1,179.6z"/>
	<path class="st1" d="M390.1,186.1c0,1.2-1,2.2-2.2,2.2c-1.2,0-2.2-1-2.2-2.2c0-1.2,1-2.2,2.2-2.2
		C389.1,183.9,390.1,184.9,390.1,186.1z"/>
	<path class="st1" d="M396.7,179.6c0,1.2-1,2.2-2.2,2.2c-1.2,0-2.2-1-2.2-2.2c0-1.2,1-2.2,2.2-2.2
		C395.7,177.4,396.7,178.3,396.7,179.6z"/>
	<path class="st1" d="M396.7,186.1c0,1.2-1,2.2-2.2,2.2c-1.2,0-2.2-1-2.2-2.2c0-1.2,1-2.2,2.2-2.2
		C395.7,183.9,396.7,184.9,396.7,186.1z"/>
	<path class="st1" d="M403.2,179.6c0,1.2-1,2.2-2.2,2.2c-1.2,0-2.2-1-2.2-2.2c0-1.2,1-2.2,2.2-2.2
		C402.3,177.4,403.2,178.3,403.2,179.6z"/>
	<path class="st1" d="M403.2,186.1c0,1.2-1,2.2-2.2,2.2c-1.2,0-2.2-1-2.2-2.2c0-1.2,1-2.2,2.2-2.2
		C402.3,183.9,403.2,184.9,403.2,186.1z"/>
	<path class="st1" d="M408.7,179.6c0,1.2-1,2.2-2.2,2.2s-2.2-1-2.2-2.2c0-1.2,1-2.2,2.2-2.2S408.7,178.3,408.7,179.6z"/>
	<path class="st1" d="M408.7,186.1c0,1.2-1,2.2-2.2,2.2s-2.2-1-2.2-2.2c0-1.2,1-2.2,2.2-2.2S408.7,184.9,408.7,186.1z"/>
	<path class="st1" d="M415.3,179.6c0,1.2-1,2.2-2.2,2.2c-1.2,0-2.2-1-2.2-2.2c0-1.2,1-2.2,2.2-2.2
		C414.3,177.4,415.3,178.3,415.3,179.6z"/>
	<path class="st1" d="M415.3,186.1c0,1.2-1,2.2-2.2,2.2c-1.2,0-2.2-1-2.2-2.2c0-1.2,1-2.2,2.2-2.2
		C414.3,183.9,415.3,184.9,415.3,186.1z"/>
	<path class="st1" d="M371.5,179.6c0,1.2-1,2.2-2.2,2.2c-1.2,0-2.2-1-2.2-2.2c0-1.2,1-2.2,2.2-2.2
		C370.5,177.4,371.5,178.3,371.5,179.6z"/>
	<path class="st1" d="M371.5,186.1c0,1.2-1,2.2-2.2,2.2c-1.2,0-2.2-1-2.2-2.2c0-1.2,1-2.2,2.2-2.2
		C370.5,183.9,371.5,184.9,371.5,186.1z"/>
	<path class="st1" d="M376.9,179.6c0,1.2-1,2.2-2.2,2.2c-1.2,0-2.2-1-2.2-2.2c0-1.2,1-2.2,2.2-2.2
		C376,177.4,376.9,178.3,376.9,179.6z"/>
	<path class="st1" d="M376.9,186.1c0,1.2-1,2.2-2.2,2.2c-1.2,0-2.2-1-2.2-2.2c0-1.2,1-2.2,2.2-2.2
		C376,183.9,376.9,184.9,376.9,186.1z"/>
	<path class="st1" d="M383.5,179.6c0,1.2-1,2.2-2.2,2.2c-1.2,0-2.2-1-2.2-2.2c0-1.2,1-2.2,2.2-2.2
		C382.5,177.4,383.5,178.3,383.5,179.6z"/>
	<path class="st1" d="M383.5,186.1c0,1.2-1,2.2-2.2,2.2c-1.2,0-2.2-1-2.2-2.2c0-1.2,1-2.2,2.2-2.2
		C382.5,183.9,383.5,184.9,383.5,186.1z"/>
	<path class="st1" d="M339.7,179.6c0,1.2-1,2.2-2.2,2.2c-1.2,0-2.2-1-2.2-2.2c0-1.2,1-2.2,2.2-2.2
		C338.7,177.4,339.7,178.3,339.7,179.6z"/>
	<path class="st1" d="M339.7,186.1c0,1.2-1,2.2-2.2,2.2c-1.2,0-2.2-1-2.2-2.2c0-1.2,1-2.2,2.2-2.2
		C338.7,183.9,339.7,184.9,339.7,186.1z"/>
	<path class="st1" d="M346.2,179.6c0,1.2-1,2.2-2.2,2.2c-1.2,0-2.2-1-2.2-2.2c0-1.2,1-2.2,2.2-2.2
		C345.3,177.4,346.2,178.3,346.2,179.6z"/>
	<path class="st1" d="M346.2,186.1c0,1.2-1,2.2-2.2,2.2c-1.2,0-2.2-1-2.2-2.2c0-1.2,1-2.2,2.2-2.2
		C345.3,183.9,346.2,184.9,346.2,186.1z"/>
	<path class="st1" d="M351.7,179.6c0,1.2-1,2.2-2.2,2.2c-1.2,0-2.2-1-2.2-2.2c0-1.2,1-2.2,2.2-2.2
		C350.7,177.4,351.7,178.3,351.7,179.6z"/>
	<path class="st1" d="M351.7,186.1c0,1.2-1,2.2-2.2,2.2c-1.2,0-2.2-1-2.2-2.2c0-1.2,1-2.2,2.2-2.2
		C350.7,183.9,351.7,184.9,351.7,186.1z"/>
	<path class="st1" d="M358.3,179.6c0,1.2-1,2.2-2.2,2.2c-1.2,0-2.2-1-2.2-2.2c0-1.2,1-2.2,2.2-2.2
		C357.3,177.4,358.3,178.3,358.3,179.6z"/>
	<path class="st1" d="M358.3,186.1c0,1.2-1,2.2-2.2,2.2c-1.2,0-2.2-1-2.2-2.2c0-1.2,1-2.2,2.2-2.2
		C357.3,183.9,358.3,184.9,358.3,186.1z"/>
	<path class="st1" d="M364.9,179.6c0,1.2-1,2.2-2.2,2.2c-1.2,0-2.2-1-2.2-2.2c0-1.2,1-2.2,2.2-2.2
		C363.9,177.4,364.9,178.3,364.9,179.6z"/>
	<path class="st1" d="M364.9,186.1c0,1.2-1,2.2-2.2,2.2c-1.2,0-2.2-1-2.2-2.2c0-1.2,1-2.2,2.2-2.2
		C363.9,183.9,364.9,184.9,364.9,186.1z"/>
	<path class="st1" d="M334.2,179.6c0,1.2-1,2.2-2.2,2.2s-2.2-1-2.2-2.2c0-1.2,1-2.2,2.2-2.2S334.2,178.3,334.2,179.6z"/>
	<path class="st1" d="M334.2,186.1c0,1.2-1,2.2-2.2,2.2s-2.2-1-2.2-2.2c0-1.2,1-2.2,2.2-2.2S334.2,184.9,334.2,186.1z"/>
	<path class="st1" d="M453.7,179.6c0,1.2-1,2.2-2.2,2.2c-1.2,0-2.2-1-2.2-2.2c0-1.2,1-2.2,2.2-2.2
		C452.7,177.4,453.7,178.3,453.7,179.6z"/>
	<path class="st1" d="M453.7,186.1c0,1.2-1,2.2-2.2,2.2c-1.2,0-2.2-1-2.2-2.2c0-1.2,1-2.2,2.2-2.2
		C452.7,183.9,453.7,184.9,453.7,186.1z"/>
	<path class="st1" d="M459.2,179.6c0,1.2-1,2.2-2.2,2.2c-1.2,0-2.2-1-2.2-2.2c0-1.2,1-2.2,2.2-2.2
		C458.2,177.4,459.2,178.3,459.2,179.6z"/>
	<path class="st1" d="M459.2,186.1c0,1.2-1,2.2-2.2,2.2c-1.2,0-2.2-1-2.2-2.2c0-1.2,1-2.2,2.2-2.2
		C458.2,183.9,459.2,184.9,459.2,186.1z"/>
	<path class="st1" d="M465.7,179.6c0,1.2-1,2.2-2.2,2.2c-1.2,0-2.2-1-2.2-2.2c0-1.2,1-2.2,2.2-2.2
		C464.8,177.4,465.7,178.3,465.7,179.6z"/>
	<path class="st1" d="M465.7,186.1c0,1.2-1,2.2-2.2,2.2c-1.2,0-2.2-1-2.2-2.2c0-1.2,1-2.2,2.2-2.2
		C464.8,183.9,465.7,184.9,465.7,186.1z"/>
	<path class="st1" d="M472.3,179.6c0,1.2-1,2.2-2.2,2.2c-1.2,0-2.2-1-2.2-2.2c0-1.2,1-2.2,2.2-2.2
		C471.3,177.4,472.3,178.3,472.3,179.6z"/>
	<path class="st1" d="M472.3,186.1c0,1.2-1,2.2-2.2,2.2c-1.2,0-2.2-1-2.2-2.2c0-1.2,1-2.2,2.2-2.2
		C471.3,183.9,472.3,184.9,472.3,186.1z"/>
	<path class="st1" d="M478.9,179.6c0,1.2-1,2.2-2.2,2.2s-2.2-1-2.2-2.2c0-1.2,1-2.2,2.2-2.2S478.9,178.3,478.9,179.6z"/>
	<path class="st1" d="M478.9,186.1c0,1.2-1,2.2-2.2,2.2s-2.2-1-2.2-2.2c0-1.2,1-2.2,2.2-2.2S478.9,184.9,478.9,186.1z"/>
	<path class="st1" d="M421.9,166.4c0,1.2-1,2.2-2.2,2.2c-1.2,0-2.2-1-2.2-2.2c0-1.2,1-2.2,2.2-2.2
		C420.9,164.2,421.9,165.2,421.9,166.4z"/>
	<path class="st1" d="M421.9,173c0,1.2-1,2.2-2.2,2.2c-1.2,0-2.2-1-2.2-2.2c0-1.2,1-2.2,2.2-2.2C420.9,170.8,421.9,171.8,421.9,173z
		"/>
	<path class="st1" d="M428.5,166.4c0,1.2-1,2.2-2.2,2.2c-1.2,0-2.2-1-2.2-2.2c0-1.2,1-2.2,2.2-2.2
		C427.5,164.2,428.5,165.2,428.5,166.4z"/>
	<path class="st1" d="M428.5,173c0,1.2-1,2.2-2.2,2.2c-1.2,0-2.2-1-2.2-2.2c0-1.2,1-2.2,2.2-2.2C427.5,170.8,428.5,171.8,428.5,173z
		"/>
	<path class="st1" d="M433.9,166.4c0,1.2-1,2.2-2.2,2.2s-2.2-1-2.2-2.2c0-1.2,1-2.2,2.2-2.2S433.9,165.2,433.9,166.4z"/>
	<path class="st1" d="M433.9,173c0,1.2-1,2.2-2.2,2.2s-2.2-1-2.2-2.2c0-1.2,1-2.2,2.2-2.2S433.9,171.8,433.9,173z"/>
	<path class="st1" d="M440.5,166.4c0,1.2-1,2.2-2.2,2.2c-1.2,0-2.2-1-2.2-2.2c0-1.2,1-2.2,2.2-2.2
		C439.5,164.2,440.5,165.2,440.5,166.4z"/>
	<path class="st1" d="M440.5,173c0,1.2-1,2.2-2.2,2.2c-1.2,0-2.2-1-2.2-2.2c0-1.2,1-2.2,2.2-2.2C439.5,170.8,440.5,171.8,440.5,173z
		"/>
	<path class="st1" d="M447.1,166.4c0,1.2-1,2.2-2.2,2.2c-1.2,0-2.2-1-2.2-2.2c0-1.2,1-2.2,2.2-2.2
		C446.1,164.2,447.1,165.2,447.1,166.4z"/>
	<path class="st1" d="M447.1,173c0,1.2-1,2.2-2.2,2.2c-1.2,0-2.2-1-2.2-2.2c0-1.2,1-2.2,2.2-2.2C446.1,170.8,447.1,171.8,447.1,173z
		"/>
	<path class="st1" d="M390.1,166.4c0,1.2-1,2.2-2.2,2.2c-1.2,0-2.2-1-2.2-2.2c0-1.2,1-2.2,2.2-2.2
		C389.1,164.2,390.1,165.2,390.1,166.4z"/>
	<path class="st1" d="M390.1,173c0,1.2-1,2.2-2.2,2.2c-1.2,0-2.2-1-2.2-2.2c0-1.2,1-2.2,2.2-2.2C389.1,170.8,390.1,171.8,390.1,173z
		"/>
	<path class="st1" d="M396.7,166.4c0,1.2-1,2.2-2.2,2.2c-1.2,0-2.2-1-2.2-2.2c0-1.2,1-2.2,2.2-2.2
		C395.7,164.2,396.7,165.2,396.7,166.4z"/>
	<path class="st1" d="M396.7,173c0,1.2-1,2.2-2.2,2.2c-1.2,0-2.2-1-2.2-2.2c0-1.2,1-2.2,2.2-2.2C395.7,170.8,396.7,171.8,396.7,173z
		"/>
	<path class="st1" d="M403.2,166.4c0,1.2-1,2.2-2.2,2.2c-1.2,0-2.2-1-2.2-2.2c0-1.2,1-2.2,2.2-2.2
		C402.3,164.2,403.2,165.2,403.2,166.4z"/>
	<path class="st1" d="M403.2,173c0,1.2-1,2.2-2.2,2.2c-1.2,0-2.2-1-2.2-2.2c0-1.2,1-2.2,2.2-2.2C402.3,170.8,403.2,171.8,403.2,173z
		"/>
	<path class="st1" d="M408.7,166.4c0,1.2-1,2.2-2.2,2.2s-2.2-1-2.2-2.2c0-1.2,1-2.2,2.2-2.2S408.7,165.2,408.7,166.4z"/>
	<path class="st1" d="M408.7,173c0,1.2-1,2.2-2.2,2.2s-2.2-1-2.2-2.2c0-1.2,1-2.2,2.2-2.2S408.7,171.8,408.7,173z"/>
	<path class="st1" d="M415.3,166.4c0,1.2-1,2.2-2.2,2.2c-1.2,0-2.2-1-2.2-2.2c0-1.2,1-2.2,2.2-2.2
		C414.3,164.2,415.3,165.2,415.3,166.4z"/>
	<path class="st1" d="M415.3,173c0,1.2-1,2.2-2.2,2.2c-1.2,0-2.2-1-2.2-2.2c0-1.2,1-2.2,2.2-2.2C414.3,170.8,415.3,171.8,415.3,173z
		"/>
	<path class="st1" d="M371.5,166.4c0,1.2-1,2.2-2.2,2.2c-1.2,0-2.2-1-2.2-2.2c0-1.2,1-2.2,2.2-2.2
		C370.5,164.2,371.5,165.2,371.5,166.4z"/>
	<path class="st1" d="M371.5,173c0,1.2-1,2.2-2.2,2.2c-1.2,0-2.2-1-2.2-2.2c0-1.2,1-2.2,2.2-2.2C370.5,170.8,371.5,171.8,371.5,173z
		"/>
	<path class="st1" d="M376.9,166.4c0,1.2-1,2.2-2.2,2.2c-1.2,0-2.2-1-2.2-2.2c0-1.2,1-2.2,2.2-2.2
		C376,164.2,376.9,165.2,376.9,166.4z"/>
	<path class="st1" d="M376.9,173c0,1.2-1,2.2-2.2,2.2c-1.2,0-2.2-1-2.2-2.2c0-1.2,1-2.2,2.2-2.2C376,170.8,376.9,171.8,376.9,173z"
		/>
	<path class="st1" d="M383.5,166.4c0,1.2-1,2.2-2.2,2.2c-1.2,0-2.2-1-2.2-2.2c0-1.2,1-2.2,2.2-2.2
		C382.5,164.2,383.5,165.2,383.5,166.4z"/>
	<path class="st1" d="M383.5,173c0,1.2-1,2.2-2.2,2.2c-1.2,0-2.2-1-2.2-2.2c0-1.2,1-2.2,2.2-2.2C382.5,170.8,383.5,171.8,383.5,173z
		"/>
	<path class="st1" d="M339.7,166.4c0,1.2-1,2.2-2.2,2.2c-1.2,0-2.2-1-2.2-2.2c0-1.2,1-2.2,2.2-2.2
		C338.7,164.2,339.7,165.2,339.7,166.4z"/>
	<path class="st1" d="M339.7,173c0,1.2-1,2.2-2.2,2.2c-1.2,0-2.2-1-2.2-2.2c0-1.2,1-2.2,2.2-2.2C338.7,170.8,339.7,171.8,339.7,173z
		"/>
	<path class="st1" d="M346.2,166.4c0,1.2-1,2.2-2.2,2.2c-1.2,0-2.2-1-2.2-2.2c0-1.2,1-2.2,2.2-2.2
		C345.3,164.2,346.2,165.2,346.2,166.4z"/>
	<path class="st1" d="M346.2,173c0,1.2-1,2.2-2.2,2.2c-1.2,0-2.2-1-2.2-2.2c0-1.2,1-2.2,2.2-2.2C345.3,170.8,346.2,171.8,346.2,173z
		"/>
	<path class="st1" d="M351.7,166.4c0,1.2-1,2.2-2.2,2.2c-1.2,0-2.2-1-2.2-2.2c0-1.2,1-2.2,2.2-2.2
		C350.7,164.2,351.7,165.2,351.7,166.4z"/>
	<path class="st1" d="M351.7,173c0,1.2-1,2.2-2.2,2.2c-1.2,0-2.2-1-2.2-2.2c0-1.2,1-2.2,2.2-2.2C350.7,170.8,351.7,171.8,351.7,173z
		"/>
	<path class="st1" d="M358.3,166.4c0,1.2-1,2.2-2.2,2.2c-1.2,0-2.2-1-2.2-2.2c0-1.2,1-2.2,2.2-2.2
		C357.3,164.2,358.3,165.2,358.3,166.4z"/>
	<path class="st1" d="M358.3,173c0,1.2-1,2.2-2.2,2.2c-1.2,0-2.2-1-2.2-2.2c0-1.2,1-2.2,2.2-2.2C357.3,170.8,358.3,171.8,358.3,173z
		"/>
	<path class="st1" d="M364.9,166.4c0,1.2-1,2.2-2.2,2.2c-1.2,0-2.2-1-2.2-2.2c0-1.2,1-2.2,2.2-2.2
		C363.9,164.2,364.9,165.2,364.9,166.4z"/>
	<path class="st1" d="M364.9,173c0,1.2-1,2.2-2.2,2.2c-1.2,0-2.2-1-2.2-2.2c0-1.2,1-2.2,2.2-2.2C363.9,170.8,364.9,171.8,364.9,173z
		"/>
	<path class="st1" d="M334.2,173c0,1.2-1,2.2-2.2,2.2s-2.2-1-2.2-2.2c0-1.2,1-2.2,2.2-2.2S334.2,171.8,334.2,173z"/>
	<path class="st1" d="M453.7,166.4c0,1.2-1,2.2-2.2,2.2c-1.2,0-2.2-1-2.2-2.2c0-1.2,1-2.2,2.2-2.2
		C452.7,164.2,453.7,165.2,453.7,166.4z"/>
	<path class="st1" d="M453.7,173c0,1.2-1,2.2-2.2,2.2c-1.2,0-2.2-1-2.2-2.2c0-1.2,1-2.2,2.2-2.2C452.7,170.8,453.7,171.8,453.7,173z
		"/>
	<path class="st1" d="M459.2,166.4c0,1.2-1,2.2-2.2,2.2c-1.2,0-2.2-1-2.2-2.2c0-1.2,1-2.2,2.2-2.2
		C458.2,164.2,459.2,165.2,459.2,166.4z"/>
	<path class="st1" d="M459.2,173c0,1.2-1,2.2-2.2,2.2c-1.2,0-2.2-1-2.2-2.2c0-1.2,1-2.2,2.2-2.2C458.2,170.8,459.2,171.8,459.2,173z
		"/>
	<path class="st1" d="M465.7,166.4c0,1.2-1,2.2-2.2,2.2c-1.2,0-2.2-1-2.2-2.2c0-1.2,1-2.2,2.2-2.2
		C464.8,164.2,465.7,165.2,465.7,166.4z"/>
	<path class="st1" d="M465.7,173c0,1.2-1,2.2-2.2,2.2c-1.2,0-2.2-1-2.2-2.2c0-1.2,1-2.2,2.2-2.2C464.8,170.8,465.7,171.8,465.7,173z
		"/>
	<path class="st1" d="M472.3,166.4c0,1.2-1,2.2-2.2,2.2c-1.2,0-2.2-1-2.2-2.2c0-1.2,1-2.2,2.2-2.2
		C471.3,164.2,472.3,165.2,472.3,166.4z"/>
	<path class="st1" d="M421.9,160.9c0,1.2-1,2.2-2.2,2.2c-1.2,0-2.2-1-2.2-2.2c0-1.2,1-2.2,2.2-2.2
		C420.9,158.7,421.9,159.7,421.9,160.9z"/>
	<path class="st1" d="M428.5,160.9c0,1.2-1,2.2-2.2,2.2c-1.2,0-2.2-1-2.2-2.2c0-1.2,1-2.2,2.2-2.2
		C427.5,158.7,428.5,159.7,428.5,160.9z"/>
	<path class="st1" d="M433.9,160.9c0,1.2-1,2.2-2.2,2.2s-2.2-1-2.2-2.2c0-1.2,1-2.2,2.2-2.2S433.9,159.7,433.9,160.9z"/>
	<path class="st1" d="M440.5,160.9c0,1.2-1,2.2-2.2,2.2c-1.2,0-2.2-1-2.2-2.2c0-1.2,1-2.2,2.2-2.2
		C439.5,158.7,440.5,159.7,440.5,160.9z"/>
	<path class="st1" d="M447.1,160.9c0,1.2-1,2.2-2.2,2.2c-1.2,0-2.2-1-2.2-2.2c0-1.2,1-2.2,2.2-2.2
		C446.1,158.7,447.1,159.7,447.1,160.9z"/>
	<path class="st1" d="M390.1,160.9c0,1.2-1,2.2-2.2,2.2c-1.2,0-2.2-1-2.2-2.2c0-1.2,1-2.2,2.2-2.2
		C389.1,158.7,390.1,159.7,390.1,160.9z"/>
	<path class="st1" d="M396.7,160.9c0,1.2-1,2.2-2.2,2.2c-1.2,0-2.2-1-2.2-2.2c0-1.2,1-2.2,2.2-2.2
		C395.7,158.7,396.7,159.7,396.7,160.9z"/>
	<path class="st1" d="M403.2,160.9c0,1.2-1,2.2-2.2,2.2c-1.2,0-2.2-1-2.2-2.2c0-1.2,1-2.2,2.2-2.2
		C402.3,158.7,403.2,159.7,403.2,160.9z"/>
	<path class="st1" d="M408.7,160.9c0,1.2-1,2.2-2.2,2.2s-2.2-1-2.2-2.2c0-1.2,1-2.2,2.2-2.2S408.7,159.7,408.7,160.9z"/>
	<path class="st1" d="M415.3,160.9c0,1.2-1,2.2-2.2,2.2c-1.2,0-2.2-1-2.2-2.2c0-1.2,1-2.2,2.2-2.2
		C414.3,158.7,415.3,159.7,415.3,160.9z"/>
	<path class="st1" d="M371.5,160.9c0,1.2-1,2.2-2.2,2.2c-1.2,0-2.2-1-2.2-2.2c0-1.2,1-2.2,2.2-2.2
		C370.5,158.7,371.5,159.7,371.5,160.9z"/>
	<path class="st1" d="M376.9,160.9c0,1.2-1,2.2-2.2,2.2c-1.2,0-2.2-1-2.2-2.2c0-1.2,1-2.2,2.2-2.2
		C376,158.7,376.9,159.7,376.9,160.9z"/>
	<path class="st1" d="M383.5,160.9c0,1.2-1,2.2-2.2,2.2c-1.2,0-2.2-1-2.2-2.2c0-1.2,1-2.2,2.2-2.2
		C382.5,158.7,383.5,159.7,383.5,160.9z"/>
	<path class="st1" d="M339.7,160.9c0,1.2-1,2.2-2.2,2.2c-1.2,0-2.2-1-2.2-2.2c0-1.2,1-2.2,2.2-2.2
		C338.7,158.7,339.7,159.7,339.7,160.9z"/>
	<path class="st1" d="M346.2,160.9c0,1.2-1,2.2-2.2,2.2c-1.2,0-2.2-1-2.2-2.2c0-1.2,1-2.2,2.2-2.2
		C345.3,158.7,346.2,159.7,346.2,160.9z"/>
	<path class="st1" d="M351.7,160.9c0,1.2-1,2.2-2.2,2.2c-1.2,0-2.2-1-2.2-2.2c0-1.2,1-2.2,2.2-2.2
		C350.7,158.7,351.7,159.7,351.7,160.9z"/>
	<path class="st1" d="M358.3,160.9c0,1.2-1,2.2-2.2,2.2c-1.2,0-2.2-1-2.2-2.2c0-1.2,1-2.2,2.2-2.2
		C357.3,158.7,358.3,159.7,358.3,160.9z"/>
	<path class="st1" d="M364.9,160.9c0,1.2-1,2.2-2.2,2.2c-1.2,0-2.2-1-2.2-2.2c0-1.2,1-2.2,2.2-2.2
		C363.9,158.7,364.9,159.7,364.9,160.9z"/>
	<path class="st1" d="M453.7,160.9c0,1.2-1,2.2-2.2,2.2c-1.2,0-2.2-1-2.2-2.2c0-1.2,1-2.2,2.2-2.2
		C452.7,158.7,453.7,159.7,453.7,160.9z"/>
	<path class="st1" d="M459.2,160.9c0,1.2-1,2.2-2.2,2.2c-1.2,0-2.2-1-2.2-2.2c0-1.2,1-2.2,2.2-2.2
		C458.2,158.7,459.2,159.7,459.2,160.9z"/>
	<path class="st1" d="M465.7,160.9c0,1.2-1,2.2-2.2,2.2c-1.2,0-2.2-1-2.2-2.2c0-1.2,1-2.2,2.2-2.2
		C464.8,158.7,465.7,159.7,465.7,160.9z"/>
	<path class="st1" d="M421.9,154.4c0,1.2-1,2.2-2.2,2.2c-1.2,0-2.2-1-2.2-2.2c0-1.2,1-2.2,2.2-2.2
		C420.9,152.2,421.9,153.1,421.9,154.4z"/>
	<path class="st1" d="M428.5,154.4c0,1.2-1,2.2-2.2,2.2c-1.2,0-2.2-1-2.2-2.2c0-1.2,1-2.2,2.2-2.2
		C427.5,152.2,428.5,153.1,428.5,154.4z"/>
	<path class="st1" d="M433.9,154.4c0,1.2-1,2.2-2.2,2.2s-2.2-1-2.2-2.2c0-1.2,1-2.2,2.2-2.2S433.9,153.1,433.9,154.4z"/>
	<path class="st1" d="M440.5,154.4c0,1.2-1,2.2-2.2,2.2c-1.2,0-2.2-1-2.2-2.2c0-1.2,1-2.2,2.2-2.2
		C439.5,152.2,440.5,153.1,440.5,154.4z"/>
	<path class="st1" d="M447.1,154.4c0,1.2-1,2.2-2.2,2.2c-1.2,0-2.2-1-2.2-2.2c0-1.2,1-2.2,2.2-2.2
		C446.1,152.2,447.1,153.1,447.1,154.4z"/>
	<path class="st1" d="M390.1,154.4c0,1.2-1,2.2-2.2,2.2c-1.2,0-2.2-1-2.2-2.2c0-1.2,1-2.2,2.2-2.2
		C389.1,152.2,390.1,153.1,390.1,154.4z"/>
	<path class="st1" d="M396.7,154.4c0,1.2-1,2.2-2.2,2.2c-1.2,0-2.2-1-2.2-2.2c0-1.2,1-2.2,2.2-2.2
		C395.7,152.2,396.7,153.1,396.7,154.4z"/>
	<path class="st1" d="M403.2,154.4c0,1.2-1,2.2-2.2,2.2c-1.2,0-2.2-1-2.2-2.2c0-1.2,1-2.2,2.2-2.2
		C402.3,152.2,403.2,153.1,403.2,154.4z"/>
	<path class="st1" d="M408.7,154.4c0,1.2-1,2.2-2.2,2.2s-2.2-1-2.2-2.2c0-1.2,1-2.2,2.2-2.2S408.7,153.1,408.7,154.4z"/>
	<path class="st1" d="M415.3,154.4c0,1.2-1,2.2-2.2,2.2c-1.2,0-2.2-1-2.2-2.2c0-1.2,1-2.2,2.2-2.2
		C414.3,152.2,415.3,153.1,415.3,154.4z"/>
	<path class="st1" d="M371.5,154.4c0,1.2-1,2.2-2.2,2.2c-1.2,0-2.2-1-2.2-2.2c0-1.2,1-2.2,2.2-2.2
		C370.5,152.2,371.5,153.1,371.5,154.4z"/>
	<path class="st1" d="M376.9,154.4c0,1.2-1,2.2-2.2,2.2c-1.2,0-2.2-1-2.2-2.2c0-1.2,1-2.2,2.2-2.2
		C376,152.2,376.9,153.1,376.9,154.4z"/>
	<path class="st1" d="M383.5,154.4c0,1.2-1,2.2-2.2,2.2c-1.2,0-2.2-1-2.2-2.2c0-1.2,1-2.2,2.2-2.2
		C382.5,152.2,383.5,153.1,383.5,154.4z"/>
	<path class="st1" d="M351.7,154.4c0,1.2-1,2.2-2.2,2.2c-1.2,0-2.2-1-2.2-2.2c0-1.2,1-2.2,2.2-2.2
		C350.7,152.2,351.7,153.1,351.7,154.4z"/>
	<path class="st1" d="M358.3,154.4c0,1.2-1,2.2-2.2,2.2c-1.2,0-2.2-1-2.2-2.2c0-1.2,1-2.2,2.2-2.2
		C357.3,152.2,358.3,153.1,358.3,154.4z"/>
	<path class="st1" d="M364.9,154.4c0,1.2-1,2.2-2.2,2.2c-1.2,0-2.2-1-2.2-2.2c0-1.2,1-2.2,2.2-2.2
		C363.9,152.2,364.9,153.1,364.9,154.4z"/>
	<path class="st1" d="M390.1,147.8c0,1.2-1,2.2-2.2,2.2c-1.2,0-2.2-1-2.2-2.2c0-1.2,1-2.2,2.2-2.2
		C389.1,145.6,390.1,146.6,390.1,147.8z"/>
	<path class="st1" d="M396.7,147.8c0,1.2-1,2.2-2.2,2.2c-1.2,0-2.2-1-2.2-2.2c0-1.2,1-2.2,2.2-2.2
		C395.7,145.6,396.7,146.6,396.7,147.8z"/>
	<path class="st1" d="M403.2,147.8c0,1.2-1,2.2-2.2,2.2c-1.2,0-2.2-1-2.2-2.2c0-1.2,1-2.2,2.2-2.2
		C402.3,145.6,403.2,146.6,403.2,147.8z"/>
	<path class="st1" d="M408.7,147.8c0,1.2-1,2.2-2.2,2.2s-2.2-1-2.2-2.2c0-1.2,1-2.2,2.2-2.2S408.7,146.6,408.7,147.8z"/>
	<path class="st1" d="M415.3,147.8c0,1.2-1,2.2-2.2,2.2c-1.2,0-2.2-1-2.2-2.2c0-1.2,1-2.2,2.2-2.2
		C414.3,145.6,415.3,146.6,415.3,147.8z"/>
	<path class="st1" d="M371.5,147.8c0,1.2-1,2.2-2.2,2.2c-1.2,0-2.2-1-2.2-2.2c0-1.2,1-2.2,2.2-2.2
		C370.5,145.6,371.5,146.6,371.5,147.8z"/>
	<path class="st1" d="M376.9,147.8c0,1.2-1,2.2-2.2,2.2c-1.2,0-2.2-1-2.2-2.2c0-1.2,1-2.2,2.2-2.2
		C376,145.6,376.9,146.6,376.9,147.8z"/>
	<path class="st1" d="M383.5,147.8c0,1.2-1,2.2-2.2,2.2c-1.2,0-2.2-1-2.2-2.2c0-1.2,1-2.2,2.2-2.2
		C382.5,145.6,383.5,146.6,383.5,147.8z"/>
	<path class="st1" d="M351.7,147.8c0,1.2-1,2.2-2.2,2.2c-1.2,0-2.2-1-2.2-2.2c0-1.2,1-2.2,2.2-2.2
		C350.7,145.6,351.7,146.6,351.7,147.8z"/>
	<path class="st1" d="M358.3,147.8c0,1.2-1,2.2-2.2,2.2c-1.2,0-2.2-1-2.2-2.2c0-1.2,1-2.2,2.2-2.2
		C357.3,145.6,358.3,146.6,358.3,147.8z"/>
	<path class="st1" d="M364.9,147.8c0,1.2-1,2.2-2.2,2.2c-1.2,0-2.2-1-2.2-2.2c0-1.2,1-2.2,2.2-2.2
		C363.9,145.6,364.9,146.6,364.9,147.8z"/>
	<path class="st1" d="M390.1,141.2c0,1.2-1,2.2-2.2,2.2c-1.2,0-2.2-1-2.2-2.2c0-1.2,1-2.2,2.2-2.2C389.1,139,390.1,140,390.1,141.2z
		"/>
	<path class="st1" d="M396.7,141.2c0,1.2-1,2.2-2.2,2.2c-1.2,0-2.2-1-2.2-2.2c0-1.2,1-2.2,2.2-2.2C395.7,139,396.7,140,396.7,141.2z
		"/>
	<path class="st1" d="M403.2,141.2c0,1.2-1,2.2-2.2,2.2c-1.2,0-2.2-1-2.2-2.2c0-1.2,1-2.2,2.2-2.2C402.3,139,403.2,140,403.2,141.2z
		"/>
	<path class="st1" d="M371.5,141.2c0,1.2-1,2.2-2.2,2.2c-1.2,0-2.2-1-2.2-2.2c0-1.2,1-2.2,2.2-2.2C370.5,139,371.5,140,371.5,141.2z
		"/>
	<path class="st1" d="M376.9,141.2c0,1.2-1,2.2-2.2,2.2c-1.2,0-2.2-1-2.2-2.2c0-1.2,1-2.2,2.2-2.2C376,139,376.9,140,376.9,141.2z"
		/>
	<path class="st1" d="M383.5,141.2c0,1.2-1,2.2-2.2,2.2c-1.2,0-2.2-1-2.2-2.2c0-1.2,1-2.2,2.2-2.2C382.5,139,383.5,140,383.5,141.2z
		"/>
	<path class="st1" d="M390.1,135.7c0,1.2-1,2.2-2.2,2.2c-1.2,0-2.2-1-2.2-2.2c0-1.2,1-2.2,2.2-2.2
		C389.1,133.5,390.1,134.5,390.1,135.7z"/>
	<path class="st1" d="M396.7,135.7c0,1.2-1,2.2-2.2,2.2c-1.2,0-2.2-1-2.2-2.2c0-1.2,1-2.2,2.2-2.2
		C395.7,133.5,396.7,134.5,396.7,135.7z"/>
	<path class="st1" d="M403.2,135.7c0,1.2-1,2.2-2.2,2.2c-1.2,0-2.2-1-2.2-2.2c0-1.2,1-2.2,2.2-2.2
		C402.3,133.5,403.2,134.5,403.2,135.7z"/>
	<path class="st1" d="M376.9,135.7c0,1.2-1,2.2-2.2,2.2c-1.2,0-2.2-1-2.2-2.2c0-1.2,1-2.2,2.2-2.2
		C376,133.5,376.9,134.5,376.9,135.7z"/>
	<path class="st1" d="M383.5,135.7c0,1.2-1,2.2-2.2,2.2c-1.2,0-2.2-1-2.2-2.2c0-1.2,1-2.2,2.2-2.2
		C382.5,133.5,383.5,134.5,383.5,135.7z"/>
	<path class="st1" d="M358.3,141.2c0,1.2-1,2.2-2.2,2.2c-1.2,0-2.2-1-2.2-2.2c0-1.2,1-2.2,2.2-2.2C357.3,139,358.3,140,358.3,141.2z
		"/>
	<path class="st1" d="M364.9,141.2c0,1.2-1,2.2-2.2,2.2c-1.2,0-2.2-1-2.2-2.2c0-1.2,1-2.2,2.2-2.2C363.9,139,364.9,140,364.9,141.2z
		"/>
	<path class="st1" d="M453.7,154.4c0,1.2-1,2.2-2.2,2.2c-1.2,0-2.2-1-2.2-2.2c0-1.2,1-2.2,2.2-2.2
		C452.7,152.2,453.7,153.1,453.7,154.4z"/>
	<path class="st1" d="M459.2,154.4c0,1.2-1,2.2-2.2,2.2c-1.2,0-2.2-1-2.2-2.2c0-1.2,1-2.2,2.2-2.2
		C458.2,152.2,459.2,153.1,459.2,154.4z"/>
	<path class="st1" d="M465.7,154.4c0,1.2-1,2.2-2.2,2.2c-1.2,0-2.2-1-2.2-2.2c0-1.2,1-2.2,2.2-2.2
		C464.8,152.2,465.7,153.1,465.7,154.4z"/>
	<path class="st1" d="M471.2,154.4c0,1.2-1,2.2-2.2,2.2c-1.2,0-2.2-1-2.2-2.2c0-1.2,1-2.2,2.2-2.2
		C470.2,152.2,471.2,153.1,471.2,154.4z"/>
	<path class="st1" d="M472.3,173c0,1.2-1,2.2-2.2,2.2c-1.2,0-2.2-1-2.2-2.2c0-1.2,1-2.2,2.2-2.2C471.3,170.8,472.3,171.8,472.3,173z
		"/>
	<path class="st1" d="M447.1,135.7c0,1.2-1,2.2-2.2,2.2c-1.2,0-2.2-1-2.2-2.2c0-1.2,1-2.2,2.2-2.2
		C446.1,133.5,447.1,134.5,447.1,135.7z"/>
	<path class="st1" d="M433.9,147.8c0,1.2-1,2.2-2.2,2.2s-2.2-1-2.2-2.2c0-1.2,1-2.2,2.2-2.2S433.9,146.6,433.9,147.8z"/>
	<path class="st1" d="M440.5,147.8c0,1.2-1,2.2-2.2,2.2c-1.2,0-2.2-1-2.2-2.2c0-1.2,1-2.2,2.2-2.2
		C439.5,145.6,440.5,146.6,440.5,147.8z"/>
	<path class="st1" d="M484.4,204.8c0,1.2-1,2.2-2.2,2.2c-1.2,0-2.2-1-2.2-2.2c0-1.2,1-2.2,2.2-2.2
		C483.4,202.6,484.4,203.6,484.4,204.8z"/>
	<path class="st1" d="M484.4,211.3c0,1.2-1,2.2-2.2,2.2c-1.2,0-2.2-1-2.2-2.2c0-1.2,1-2.2,2.2-2.2
		C483.4,209.1,484.4,210.1,484.4,211.3z"/>
	<path class="st1" d="M484.4,216.8c0,1.2-1,2.2-2.2,2.2c-1.2,0-2.2-1-2.2-2.2c0-1.2,1-2.2,2.2-2.2
		C483.4,214.6,484.4,215.6,484.4,216.8z"/>
	<path class="st1" d="M484.4,223.4c0,1.2-1,2.2-2.2,2.2c-1.2,0-2.2-1-2.2-2.2c0-1.2,1-2.2,2.2-2.2
		C483.4,221.2,484.4,222.2,484.4,223.4z"/>
	<path class="st1" d="M484.4,230c0,1.2-1,2.2-2.2,2.2c-1.2,0-2.2-1-2.2-2.2c0-1.2,1-2.2,2.2-2.2C483.4,227.8,484.4,228.8,484.4,230z
		"/>
	<path class="st1" d="M484.4,236.5c0,1.2-1,2.2-2.2,2.2c-1.2,0-2.2-1-2.2-2.2c0-1.2,1-2.2,2.2-2.2
		C483.4,234.4,484.4,235.3,484.4,236.5z"/>
	<path class="st1" d="M484.4,243.1c0,1.2-1,2.2-2.2,2.2c-1.2,0-2.2-1-2.2-2.2s1-2.2,2.2-2.2C483.4,240.9,484.4,241.9,484.4,243.1z"
		/>
	<path class="st1" d="M484.4,248.6c0,1.2-1,2.2-2.2,2.2c-1.2,0-2.2-1-2.2-2.2c0-1.2,1-2.2,2.2-2.2
		C483.4,246.4,484.4,247.4,484.4,248.6z"/>
	<path class="st1" d="M484.4,255.2c0,1.2-1,2.2-2.2,2.2c-1.2,0-2.2-1-2.2-2.2s1-2.2,2.2-2.2C483.4,253,484.4,254,484.4,255.2z"/>
	<path class="st1" d="M484.4,261.7c0,1.2-1,2.2-2.2,2.2c-1.2,0-2.2-1-2.2-2.2c0-1.2,1-2.2,2.2-2.2
		C483.4,259.6,484.4,260.5,484.4,261.7z"/>
	<path class="st1" d="M484.4,268.3c0,1.2-1,2.2-2.2,2.2c-1.2,0-2.2-1-2.2-2.2c0-1.2,1-2.2,2.2-2.2
		C483.4,266.1,484.4,267.1,484.4,268.3z"/>
	<path class="st1" d="M484.4,274.9c0,1.2-1,2.2-2.2,2.2c-1.2,0-2.2-1-2.2-2.2c0-1.2,1-2.2,2.2-2.2
		C483.4,272.7,484.4,273.7,484.4,274.9z"/>
	<path class="st1" d="M484.4,280.4c0,1.2-1,2.2-2.2,2.2c-1.2,0-2.2-1-2.2-2.2c0-1.2,1-2.2,2.2-2.2
		C483.4,278.2,484.4,279.2,484.4,280.4z"/>
	<path class="st1" d="M484.4,287c0,1.2-1,2.2-2.2,2.2c-1.2,0-2.2-1-2.2-2.2c0-1.2,1-2.2,2.2-2.2C483.4,284.8,484.4,285.7,484.4,287z
		"/>
	<path class="st1" d="M484.4,293.5c0,1.2-1,2.2-2.2,2.2c-1.2,0-2.2-1-2.2-2.2c0-1.2,1-2.2,2.2-2.2
		C483.4,291.3,484.4,292.3,484.4,293.5z"/>
	<path class="st1" d="M484.4,300.1c0,1.2-1,2.2-2.2,2.2c-1.2,0-2.2-1-2.2-2.2c0-1.2,1-2.2,2.2-2.2
		C483.4,297.9,484.4,298.9,484.4,300.1z"/>
	<path class="st1" d="M490.9,204.8c0,1.2-1,2.2-2.2,2.2c-1.2,0-2.2-1-2.2-2.2c0-1.2,1-2.2,2.2-2.2
		C490,202.6,490.9,203.6,490.9,204.8z"/>
	<path class="st1" d="M490.9,211.3c0,1.2-1,2.2-2.2,2.2c-1.2,0-2.2-1-2.2-2.2c0-1.2,1-2.2,2.2-2.2
		C490,209.1,490.9,210.1,490.9,211.3z"/>
	<path class="st1" d="M490.9,216.8c0,1.2-1,2.2-2.2,2.2c-1.2,0-2.2-1-2.2-2.2c0-1.2,1-2.2,2.2-2.2
		C490,214.6,490.9,215.6,490.9,216.8z"/>
	<path class="st1" d="M490.9,223.4c0,1.2-1,2.2-2.2,2.2c-1.2,0-2.2-1-2.2-2.2c0-1.2,1-2.2,2.2-2.2
		C490,221.2,490.9,222.2,490.9,223.4z"/>
	<path class="st1" d="M490.9,230c0,1.2-1,2.2-2.2,2.2c-1.2,0-2.2-1-2.2-2.2c0-1.2,1-2.2,2.2-2.2C490,227.8,490.9,228.8,490.9,230z"
		/>
	<path class="st1" d="M490.9,236.5c0,1.2-1,2.2-2.2,2.2c-1.2,0-2.2-1-2.2-2.2c0-1.2,1-2.2,2.2-2.2
		C490,234.4,490.9,235.3,490.9,236.5z"/>
	<path class="st1" d="M490.9,243.1c0,1.2-1,2.2-2.2,2.2c-1.2,0-2.2-1-2.2-2.2s1-2.2,2.2-2.2C490,240.9,490.9,241.9,490.9,243.1z"/>
	<path class="st1" d="M490.9,248.6c0,1.2-1,2.2-2.2,2.2c-1.2,0-2.2-1-2.2-2.2c0-1.2,1-2.2,2.2-2.2
		C490,246.4,490.9,247.4,490.9,248.6z"/>
	<path class="st1" d="M490.9,255.2c0,1.2-1,2.2-2.2,2.2c-1.2,0-2.2-1-2.2-2.2s1-2.2,2.2-2.2C490,253,490.9,254,490.9,255.2z"/>
	<path class="st1" d="M497.5,204.8c0,1.2-1,2.2-2.2,2.2c-1.2,0-2.2-1-2.2-2.2c0-1.2,1-2.2,2.2-2.2
		C496.5,202.6,497.5,203.6,497.5,204.8z"/>
	<path class="st1" d="M497.5,211.3c0,1.2-1,2.2-2.2,2.2c-1.2,0-2.2-1-2.2-2.2c0-1.2,1-2.2,2.2-2.2
		C496.5,209.1,497.5,210.1,497.5,211.3z"/>
	<path class="st1" d="M497.5,216.8c0,1.2-1,2.2-2.2,2.2c-1.2,0-2.2-1-2.2-2.2c0-1.2,1-2.2,2.2-2.2
		C496.5,214.6,497.5,215.6,497.5,216.8z"/>
	<path class="st1" d="M497.5,223.4c0,1.2-1,2.2-2.2,2.2c-1.2,0-2.2-1-2.2-2.2c0-1.2,1-2.2,2.2-2.2
		C496.5,221.2,497.5,222.2,497.5,223.4z"/>
	<path class="st1" d="M497.5,230c0,1.2-1,2.2-2.2,2.2c-1.2,0-2.2-1-2.2-2.2c0-1.2,1-2.2,2.2-2.2C496.5,227.8,497.5,228.8,497.5,230z
		"/>
	<path class="st1" d="M497.5,236.5c0,1.2-1,2.2-2.2,2.2c-1.2,0-2.2-1-2.2-2.2c0-1.2,1-2.2,2.2-2.2
		C496.5,234.4,497.5,235.3,497.5,236.5z"/>
	<path class="st1" d="M497.5,243.1c0,1.2-1,2.2-2.2,2.2c-1.2,0-2.2-1-2.2-2.2s1-2.2,2.2-2.2C496.5,240.9,497.5,241.9,497.5,243.1z"
		/>
	<path class="st1" d="M497.5,248.6c0,1.2-1,2.2-2.2,2.2c-1.2,0-2.2-1-2.2-2.2c0-1.2,1-2.2,2.2-2.2
		C496.5,246.4,497.5,247.4,497.5,248.6z"/>
	<path class="st1" d="M503,204.8c0,1.2-1,2.2-2.2,2.2c-1.2,0-2.2-1-2.2-2.2c0-1.2,1-2.2,2.2-2.2C502,202.6,503,203.6,503,204.8z"/>
	<path class="st1" d="M503,216.8c0,1.2-1,2.2-2.2,2.2c-1.2,0-2.2-1-2.2-2.2c0-1.2,1-2.2,2.2-2.2C502,214.6,503,215.6,503,216.8z"/>
	<path class="st1" d="M503,223.4c0,1.2-1,2.2-2.2,2.2c-1.2,0-2.2-1-2.2-2.2c0-1.2,1-2.2,2.2-2.2C502,221.2,503,222.2,503,223.4z"/>
	<path class="st1" d="M503,230c0,1.2-1,2.2-2.2,2.2c-1.2,0-2.2-1-2.2-2.2c0-1.2,1-2.2,2.2-2.2C502,227.8,503,228.8,503,230z"/>
	<path class="st1" d="M503,236.5c0,1.2-1,2.2-2.2,2.2c-1.2,0-2.2-1-2.2-2.2c0-1.2,1-2.2,2.2-2.2C502,234.4,503,235.3,503,236.5z"/>
	<path class="st1" d="M503,243.1c0,1.2-1,2.2-2.2,2.2c-1.2,0-2.2-1-2.2-2.2s1-2.2,2.2-2.2C502,240.9,503,241.9,503,243.1z"/>
	<path class="st1" d="M509.6,204.8c0,1.2-1,2.2-2.2,2.2c-1.2,0-2.2-1-2.2-2.2c0-1.2,1-2.2,2.2-2.2
		C508.6,202.6,509.6,203.6,509.6,204.8z"/>
	<path class="st1" d="M509.6,216.8c0,1.2-1,2.2-2.2,2.2c-1.2,0-2.2-1-2.2-2.2c0-1.2,1-2.2,2.2-2.2
		C508.6,214.6,509.6,215.6,509.6,216.8z"/>
	<path class="st1" d="M509.6,223.4c0,1.2-1,2.2-2.2,2.2c-1.2,0-2.2-1-2.2-2.2c0-1.2,1-2.2,2.2-2.2
		C508.6,221.2,509.6,222.2,509.6,223.4z"/>
	<path class="st1" d="M509.6,230c0,1.2-1,2.2-2.2,2.2c-1.2,0-2.2-1-2.2-2.2c0-1.2,1-2.2,2.2-2.2C508.6,227.8,509.6,228.8,509.6,230z
		"/>
	<path class="st1" d="M509.6,236.5c0,1.2-1,2.2-2.2,2.2c-1.2,0-2.2-1-2.2-2.2c0-1.2,1-2.2,2.2-2.2
		C508.6,234.4,509.6,235.3,509.6,236.5z"/>
	<path class="st1" d="M516.2,216.8c0,1.2-1,2.2-2.2,2.2c-1.2,0-2.2-1-2.2-2.2c0-1.2,1-2.2,2.2-2.2
		C515.2,214.6,516.2,215.6,516.2,216.8z"/>
	<path class="st1" d="M516.2,223.4c0,1.2-1,2.2-2.2,2.2c-1.2,0-2.2-1-2.2-2.2c0-1.2,1-2.2,2.2-2.2
		C515.2,221.2,516.2,222.2,516.2,223.4z"/>
	<path class="st1" d="M516.2,230c0,1.2-1,2.2-2.2,2.2c-1.2,0-2.2-1-2.2-2.2c0-1.2,1-2.2,2.2-2.2C515.2,227.8,516.2,228.8,516.2,230z
		"/>
	<path class="st1" d="M522.7,216.8c0,1.2-1,2.2-2.2,2.2c-1.2,0-2.2-1-2.2-2.2c0-1.2,1-2.2,2.2-2.2
		C521.8,214.6,522.7,215.6,522.7,216.8z"/>
	<path class="st1" d="M490.9,280.4c0,1.2-1,2.2-2.2,2.2c-1.2,0-2.2-1-2.2-2.2c0-1.2,1-2.2,2.2-2.2
		C490,278.2,490.9,279.2,490.9,280.4z"/>
	<path class="st1" d="M490.9,287c0,1.2-1,2.2-2.2,2.2c-1.2,0-2.2-1-2.2-2.2c0-1.2,1-2.2,2.2-2.2C490,284.8,490.9,285.7,490.9,287z"
		/>
	<path class="st1" d="M490.9,293.5c0,1.2-1,2.2-2.2,2.2c-1.2,0-2.2-1-2.2-2.2c0-1.2,1-2.2,2.2-2.2
		C490,291.3,490.9,292.3,490.9,293.5z"/>
	<path class="st1" d="M490.9,300.1c0,1.2-1,2.2-2.2,2.2c-1.2,0-2.2-1-2.2-2.2c0-1.2,1-2.2,2.2-2.2
		C490,297.9,490.9,298.9,490.9,300.1z"/>
	<path class="st1" d="M453.7,318.7c0,1.2-1,2.2-2.2,2.2c-1.2,0-2.2-1-2.2-2.2c0-1.2,1-2.2,2.2-2.2
		C452.7,316.5,453.7,317.5,453.7,318.7z"/>
	<path class="st1" d="M453.7,325.3c0,1.2-1,2.2-2.2,2.2c-1.2,0-2.2-1-2.2-2.2c0-1.2,1-2.2,2.2-2.2
		C452.7,323.1,453.7,324.1,453.7,325.3z"/>
	<path class="st1" d="M459.2,318.7c0,1.2-1,2.2-2.2,2.2c-1.2,0-2.2-1-2.2-2.2c0-1.2,1-2.2,2.2-2.2
		C458.2,316.5,459.2,317.5,459.2,318.7z"/>
	<path class="st1" d="M459.2,325.3c0,1.2-1,2.2-2.2,2.2c-1.2,0-2.2-1-2.2-2.2c0-1.2,1-2.2,2.2-2.2
		C458.2,323.1,459.2,324.1,459.2,325.3z"/>
	<path class="st1" d="M465.7,318.7c0,1.2-1,2.2-2.2,2.2c-1.2,0-2.2-1-2.2-2.2c0-1.2,1-2.2,2.2-2.2
		C464.8,316.5,465.7,317.5,465.7,318.7z"/>
	<path class="st1" d="M465.7,325.3c0,1.2-1,2.2-2.2,2.2c-1.2,0-2.2-1-2.2-2.2c0-1.2,1-2.2,2.2-2.2
		C464.8,323.1,465.7,324.1,465.7,325.3z"/>
	<path class="st1" d="M472.3,318.7c0,1.2-1,2.2-2.2,2.2c-1.2,0-2.2-1-2.2-2.2c0-1.2,1-2.2,2.2-2.2
		C471.3,316.5,472.3,317.5,472.3,318.7z"/>
	<path class="st1" d="M472.3,325.3c0,1.2-1,2.2-2.2,2.2c-1.2,0-2.2-1-2.2-2.2c0-1.2,1-2.2,2.2-2.2
		C471.3,323.1,472.3,324.1,472.3,325.3z"/>
	<path class="st1" d="M509.6,300.1c0,1.2-1,2.2-2.2,2.2c-1.2,0-2.2-1-2.2-2.2c0-1.2,1-2.2,2.2-2.2
		C508.6,297.9,509.6,298.9,509.6,300.1z"/>
	<path class="st1" d="M504.1,305.6c0,1.2-1,2.2-2.2,2.2c-1.2,0-2.2-1-2.2-2.2c0-1.2,1-2.2,2.2-2.2
		C503.1,303.4,504.1,304.4,504.1,305.6z"/>
	<path class="st1" d="M504.1,312.2c0,1.2-1,2.2-2.2,2.2c-1.2,0-2.2-1-2.2-2.2c0-1.2,1-2.2,2.2-2.2C503.1,310,504.1,311,504.1,312.2z
		"/>
	<path class="st1" d="M509.6,305.6c0,1.2-1,2.2-2.2,2.2c-1.2,0-2.2-1-2.2-2.2c0-1.2,1-2.2,2.2-2.2
		C508.6,303.4,509.6,304.4,509.6,305.6z"/>
	<path class="st1" d="M509.6,312.2c0,1.2-1,2.2-2.2,2.2c-1.2,0-2.2-1-2.2-2.2c0-1.2,1-2.2,2.2-2.2C508.6,310,509.6,311,509.6,312.2z
		"/>
	<path class="st1" d="M509.6,318.7c0,1.2-1,2.2-2.2,2.2c-1.2,0-2.2-1-2.2-2.2c0-1.2,1-2.2,2.2-2.2
		C508.6,316.5,509.6,317.5,509.6,318.7z"/>
	<path class="st1" d="M509.6,324.2c0,1.2-1,2.2-2.2,2.2c-1.2,0-2.2-1-2.2-2.2c0-1.2,1-2.2,2.2-2.2C508.6,322,509.6,323,509.6,324.2z
		"/>
	<path class="st1" d="M516.2,293.5c0,1.2-1,2.2-2.2,2.2c-1.2,0-2.2-1-2.2-2.2c0-1.2,1-2.2,2.2-2.2
		C515.2,291.3,516.2,292.3,516.2,293.5z"/>
	<path class="st1" d="M516.2,300.1c0,1.2-1,2.2-2.2,2.2c-1.2,0-2.2-1-2.2-2.2c0-1.2,1-2.2,2.2-2.2
		C515.2,297.9,516.2,298.9,516.2,300.1z"/>
	<path class="st1" d="M516.2,305.6c0,1.2-1,2.2-2.2,2.2c-1.2,0-2.2-1-2.2-2.2c0-1.2,1-2.2,2.2-2.2
		C515.2,303.4,516.2,304.4,516.2,305.6z"/>
	<path class="st1" d="M504.1,318.7c0,1.2-1,2.2-2.2,2.2c-1.2,0-2.2-1-2.2-2.2c0-1.2,1-2.2,2.2-2.2
		C503.1,316.5,504.1,317.5,504.1,318.7z"/>
	<path class="st1" d="M504.1,325.3c0,1.2-1,2.2-2.2,2.2c-1.2,0-2.2-1-2.2-2.2c0-1.2,1-2.2,2.2-2.2
		C503.1,323.1,504.1,324.1,504.1,325.3z"/>
	<path class="st1" d="M453.7,331.9c0,1.2-1,2.2-2.2,2.2c-1.2,0-2.2-1-2.2-2.2c0-1.2,1-2.2,2.2-2.2
		C452.7,329.7,453.7,330.7,453.7,331.9z"/>
	<path class="st1" d="M453.7,337.4c0,1.2-1,2.2-2.2,2.2c-1.2,0-2.2-1-2.2-2.2c0-1.2,1-2.2,2.2-2.2
		C452.7,335.2,453.7,336.2,453.7,337.4z"/>
	<path class="st1" d="M459.2,331.9c0,1.2-1,2.2-2.2,2.2c-1.2,0-2.2-1-2.2-2.2c0-1.2,1-2.2,2.2-2.2
		C458.2,329.7,459.2,330.7,459.2,331.9z"/>
	<path class="st1" d="M459.2,337.4c0,1.2-1,2.2-2.2,2.2c-1.2,0-2.2-1-2.2-2.2c0-1.2,1-2.2,2.2-2.2
		C458.2,335.2,459.2,336.2,459.2,337.4z"/>
	<path class="st1" d="M465.7,331.9c0,1.2-1,2.2-2.2,2.2c-1.2,0-2.2-1-2.2-2.2c0-1.2,1-2.2,2.2-2.2
		C464.8,329.7,465.7,330.7,465.7,331.9z"/>
	<path class="st1" d="M465.7,337.4c0,1.2-1,2.2-2.2,2.2c-1.2,0-2.2-1-2.2-2.2c0-1.2,1-2.2,2.2-2.2
		C464.8,335.2,465.7,336.2,465.7,337.4z"/>
	<path class="st1" d="M433.9,268.3c0,1.2-1,2.2-2.2,2.2c-1.2,0-2.2-1-2.2-2.2c0-1.2,1-2.2,2.2-2.2
		C433,266.1,433.9,267.1,433.9,268.3z"/>
	<path class="st1" d="M433.9,274.9c0,1.2-1,2.2-2.2,2.2c-1.2,0-2.2-1-2.2-2.2c0-1.2,1-2.2,2.2-2.2
		C433,272.7,433.9,273.7,433.9,274.9z"/>
	<path class="st1" d="M440.5,268.3c0,1.2-1,2.2-2.2,2.2c-1.2,0-2.2-1-2.2-2.2c0-1.2,1-2.2,2.2-2.2
		C439.5,266.1,440.5,267.1,440.5,268.3z"/>
	<path class="st1" d="M440.5,274.9c0,1.2-1,2.2-2.2,2.2c-1.2,0-2.2-1-2.2-2.2c0-1.2,1-2.2,2.2-2.2
		C439.5,272.7,440.5,273.7,440.5,274.9z"/>
	<path class="st1" d="M447.1,268.3c0,1.2-1,2.2-2.2,2.2c-1.2,0-2.2-1-2.2-2.2c0-1.2,1-2.2,2.2-2.2
		C446.1,266.1,447.1,267.1,447.1,268.3z"/>
	<path class="st1" d="M415.3,268.3c0,1.2-1,2.2-2.2,2.2s-2.2-1-2.2-2.2c0-1.2,1-2.2,2.2-2.2S415.3,267.1,415.3,268.3z"/>
	<path class="st1" d="M421.9,268.3c0,1.2-1,2.2-2.2,2.2c-1.2,0-2.2-1-2.2-2.2c0-1.2,1-2.2,2.2-2.2
		C420.9,266.1,421.9,267.1,421.9,268.3z"/>
	<path class="st1" d="M428.5,268.3c0,1.2-1,2.2-2.2,2.2c-1.2,0-2.2-1-2.2-2.2c0-1.2,1-2.2,2.2-2.2
		C427.5,266.1,428.5,267.1,428.5,268.3z"/>
	<path class="st1" d="M447.1,274.9c0,1.2-1,2.2-2.2,2.2c-1.2,0-2.2-1-2.2-2.2c0-1.2,1-2.2,2.2-2.2
		C446.1,272.7,447.1,273.7,447.1,274.9z"/>
	<path class="st1" d="M433.9,280.4c0,1.2-1,2.2-2.2,2.2c-1.2,0-2.2-1-2.2-2.2c0-1.2,1-2.2,2.2-2.2
		C433,278.2,433.9,279.2,433.9,280.4z"/>
	<path class="st1" d="M433.9,287c0,1.2-1,2.2-2.2,2.2c-1.2,0-2.2-1-2.2-2.2c0-1.2,1-2.2,2.2-2.2C433,284.8,433.9,285.7,433.9,287z"
		/>
	<path class="st1" d="M440.5,280.4c0,1.2-1,2.2-2.2,2.2c-1.2,0-2.2-1-2.2-2.2c0-1.2,1-2.2,2.2-2.2
		C439.5,278.2,440.5,279.2,440.5,280.4z"/>
	<path class="st1" d="M440.5,287c0,1.2-1,2.2-2.2,2.2c-1.2,0-2.2-1-2.2-2.2c0-1.2,1-2.2,2.2-2.2C439.5,284.8,440.5,285.7,440.5,287z
		"/>
	<path class="st1" d="M447.1,280.4c0,1.2-1,2.2-2.2,2.2c-1.2,0-2.2-1-2.2-2.2c0-1.2,1-2.2,2.2-2.2
		C446.1,278.2,447.1,279.2,447.1,280.4z"/>
	<path class="st1" d="M447.1,287c0,1.2-1,2.2-2.2,2.2c-1.2,0-2.2-1-2.2-2.2c0-1.2,1-2.2,2.2-2.2C446.1,284.8,447.1,285.7,447.1,287z
		"/>
	<path class="st1" d="M433.9,293.5c0,1.2-1,2.2-2.2,2.2c-1.2,0-2.2-1-2.2-2.2c0-1.2,1-2.2,2.2-2.2
		C433,291.3,433.9,292.3,433.9,293.5z"/>
	<path class="st1" d="M433.9,300.1c0,1.2-1,2.2-2.2,2.2c-1.2,0-2.2-1-2.2-2.2c0-1.2,1-2.2,2.2-2.2
		C433,297.9,433.9,298.9,433.9,300.1z"/>
	<path class="st1" d="M440.5,293.5c0,1.2-1,2.2-2.2,2.2c-1.2,0-2.2-1-2.2-2.2c0-1.2,1-2.2,2.2-2.2
		C439.5,291.3,440.5,292.3,440.5,293.5z"/>
	<path class="st1" d="M440.5,300.1c0,1.2-1,2.2-2.2,2.2c-1.2,0-2.2-1-2.2-2.2c0-1.2,1-2.2,2.2-2.2
		C439.5,297.9,440.5,298.9,440.5,300.1z"/>
	<path class="st1" d="M447.1,293.5c0,1.2-1,2.2-2.2,2.2c-1.2,0-2.2-1-2.2-2.2c0-1.2,1-2.2,2.2-2.2
		C446.1,291.3,447.1,292.3,447.1,293.5z"/>
	<path class="st1" d="M447.1,300.1c0,1.2-1,2.2-2.2,2.2c-1.2,0-2.2-1-2.2-2.2c0-1.2,1-2.2,2.2-2.2
		C446.1,297.9,447.1,298.9,447.1,300.1z"/>
	<path class="st1" d="M433.9,305.6c0,1.2-1,2.2-2.2,2.2c-1.2,0-2.2-1-2.2-2.2c0-1.2,1-2.2,2.2-2.2
		C433,303.4,433.9,304.4,433.9,305.6z"/>
	<path class="st1" d="M433.9,312.2c0,1.2-1,2.2-2.2,2.2c-1.2,0-2.2-1-2.2-2.2c0-1.2,1-2.2,2.2-2.2C433,310,433.9,311,433.9,312.2z"
		/>
	<path class="st1" d="M440.5,305.6c0,1.2-1,2.2-2.2,2.2c-1.2,0-2.2-1-2.2-2.2c0-1.2,1-2.2,2.2-2.2
		C439.5,303.4,440.5,304.4,440.5,305.6z"/>
	<path class="st1" d="M440.5,312.2c0,1.2-1,2.2-2.2,2.2c-1.2,0-2.2-1-2.2-2.2c0-1.2,1-2.2,2.2-2.2C439.5,310,440.5,311,440.5,312.2z
		"/>
	<path class="st1" d="M447.1,305.6c0,1.2-1,2.2-2.2,2.2c-1.2,0-2.2-1-2.2-2.2c0-1.2,1-2.2,2.2-2.2
		C446.1,303.4,447.1,304.4,447.1,305.6z"/>
	<path class="st1" d="M447.1,312.2c0,1.2-1,2.2-2.2,2.2c-1.2,0-2.2-1-2.2-2.2c0-1.2,1-2.2,2.2-2.2C446.1,310,447.1,311,447.1,312.2z
		"/>
	<path class="st1" d="M433.9,318.7c0,1.2-1,2.2-2.2,2.2c-1.2,0-2.2-1-2.2-2.2c0-1.2,1-2.2,2.2-2.2
		C433,316.5,433.9,317.5,433.9,318.7z"/>
	<path class="st1" d="M433.9,325.3c0,1.2-1,2.2-2.2,2.2c-1.2,0-2.2-1-2.2-2.2c0-1.2,1-2.2,2.2-2.2
		C433,323.1,433.9,324.1,433.9,325.3z"/>
	<path class="st1" d="M440.5,318.7c0,1.2-1,2.2-2.2,2.2c-1.2,0-2.2-1-2.2-2.2c0-1.2,1-2.2,2.2-2.2
		C439.5,316.5,440.5,317.5,440.5,318.7z"/>
	<path class="st1" d="M440.5,325.3c0,1.2-1,2.2-2.2,2.2c-1.2,0-2.2-1-2.2-2.2c0-1.2,1-2.2,2.2-2.2
		C439.5,323.1,440.5,324.1,440.5,325.3z"/>
	<path class="st1" d="M447.1,318.7c0,1.2-1,2.2-2.2,2.2c-1.2,0-2.2-1-2.2-2.2c0-1.2,1-2.2,2.2-2.2
		C446.1,316.5,447.1,317.5,447.1,318.7z"/>
	<path class="st1" d="M447.1,325.3c0,1.2-1,2.2-2.2,2.2c-1.2,0-2.2-1-2.2-2.2c0-1.2,1-2.2,2.2-2.2
		C446.1,323.1,447.1,324.1,447.1,325.3z"/>
	<path class="st1" d="M433.9,331.9c0,1.2-1,2.2-2.2,2.2c-1.2,0-2.2-1-2.2-2.2c0-1.2,1-2.2,2.2-2.2
		C433,329.7,433.9,330.7,433.9,331.9z"/>
	<path class="st1" d="M433.9,337.4c0,1.2-1,2.2-2.2,2.2c-1.2,0-2.2-1-2.2-2.2c0-1.2,1-2.2,2.2-2.2
		C433,335.2,433.9,336.2,433.9,337.4z"/>
	<path class="st1" d="M440.5,331.9c0,1.2-1,2.2-2.2,2.2c-1.2,0-2.2-1-2.2-2.2c0-1.2,1-2.2,2.2-2.2
		C439.5,329.7,440.5,330.7,440.5,331.9z"/>
	<path class="st1" d="M440.5,337.4c0,1.2-1,2.2-2.2,2.2c-1.2,0-2.2-1-2.2-2.2c0-1.2,1-2.2,2.2-2.2
		C439.5,335.2,440.5,336.2,440.5,337.4z"/>
	<path class="st1" d="M447.1,331.9c0,1.2-1,2.2-2.2,2.2c-1.2,0-2.2-1-2.2-2.2c0-1.2,1-2.2,2.2-2.2
		C446.1,329.7,447.1,330.7,447.1,331.9z"/>
	<path class="st1" d="M447.1,337.4c0,1.2-1,2.2-2.2,2.2c-1.2,0-2.2-1-2.2-2.2c0-1.2,1-2.2,2.2-2.2
		C446.1,335.2,447.1,336.2,447.1,337.4z"/>
	<path class="st1" d="M415.3,274.9c0,1.2-1,2.2-2.2,2.2c-1.2,0-2.2-1-2.2-2.2c0-1.2,1-2.2,2.2-2.2
		C414.3,272.7,415.3,273.7,415.3,274.9z"/>
	<path class="st1" d="M421.9,274.9c0,1.2-1,2.2-2.2,2.2c-1.2,0-2.2-1-2.2-2.2c0-1.2,1-2.2,2.2-2.2
		C420.9,272.7,421.9,273.7,421.9,274.9z"/>
	<path class="st1" d="M428.5,274.9c0,1.2-1,2.2-2.2,2.2c-1.2,0-2.2-1-2.2-2.2c0-1.2,1-2.2,2.2-2.2
		C427.5,272.7,428.5,273.7,428.5,274.9z"/>
	<path class="st1" d="M415.3,280.4c0,1.2-1,2.2-2.2,2.2c-1.2,0-2.2-1-2.2-2.2c0-1.2,1-2.2,2.2-2.2
		C414.3,278.2,415.3,279.2,415.3,280.4z"/>
	<path class="st1" d="M415.3,287c0,1.2-1,2.2-2.2,2.2c-1.2,0-2.2-1-2.2-2.2c0-1.2,1-2.2,2.2-2.2C414.3,284.8,415.3,285.7,415.3,287z
		"/>
	<path class="st1" d="M421.9,280.4c0,1.2-1,2.2-2.2,2.2c-1.2,0-2.2-1-2.2-2.2c0-1.2,1-2.2,2.2-2.2
		C420.9,278.2,421.9,279.2,421.9,280.4z"/>
	<path class="st1" d="M421.9,287c0,1.2-1,2.2-2.2,2.2c-1.2,0-2.2-1-2.2-2.2c0-1.2,1-2.2,2.2-2.2C420.9,284.8,421.9,285.7,421.9,287z
		"/>
	<path class="st1" d="M428.5,280.4c0,1.2-1,2.2-2.2,2.2c-1.2,0-2.2-1-2.2-2.2c0-1.2,1-2.2,2.2-2.2
		C427.5,278.2,428.5,279.2,428.5,280.4z"/>
	<path class="st1" d="M428.5,287c0,1.2-1,2.2-2.2,2.2c-1.2,0-2.2-1-2.2-2.2c0-1.2,1-2.2,2.2-2.2C427.5,284.8,428.5,285.7,428.5,287z
		"/>
	<path class="st1" d="M415.3,293.5c0,1.2-1,2.2-2.2,2.2c-1.2,0-2.2-1-2.2-2.2c0-1.2,1-2.2,2.2-2.2
		C414.3,291.3,415.3,292.3,415.3,293.5z"/>
	<path class="st1" d="M415.3,300.1c0,1.2-1,2.2-2.2,2.2c-1.2,0-2.2-1-2.2-2.2c0-1.2,1-2.2,2.2-2.2
		C414.3,297.9,415.3,298.9,415.3,300.1z"/>
	<path class="st1" d="M409.8,300.1c0,1.2-1,2.2-2.2,2.2c-1.2,0-2.2-1-2.2-2.2c0-1.2,1-2.2,2.2-2.2
		C408.8,297.9,409.8,298.9,409.8,300.1z"/>
	<path class="st1" d="M421.9,293.5c0,1.2-1,2.2-2.2,2.2c-1.2,0-2.2-1-2.2-2.2c0-1.2,1-2.2,2.2-2.2
		C420.9,291.3,421.9,292.3,421.9,293.5z"/>
	<path class="st1" d="M421.9,300.1c0,1.2-1,2.2-2.2,2.2c-1.2,0-2.2-1-2.2-2.2c0-1.2,1-2.2,2.2-2.2
		C420.9,297.9,421.9,298.9,421.9,300.1z"/>
	<path class="st1" d="M428.5,293.5c0,1.2-1,2.2-2.2,2.2c-1.2,0-2.2-1-2.2-2.2c0-1.2,1-2.2,2.2-2.2
		C427.5,291.3,428.5,292.3,428.5,293.5z"/>
	<path class="st1" d="M428.5,300.1c0,1.2-1,2.2-2.2,2.2c-1.2,0-2.2-1-2.2-2.2c0-1.2,1-2.2,2.2-2.2
		C427.5,297.9,428.5,298.9,428.5,300.1z"/>
	<path class="st1" d="M415.3,305.6c0,1.2-1,2.2-2.2,2.2c-1.2,0-2.2-1-2.2-2.2c0-1.2,1-2.2,2.2-2.2
		C414.3,303.4,415.3,304.4,415.3,305.6z"/>
	<path class="st1" d="M415.3,312.2c0,1.2-1,2.2-2.2,2.2c-1.2,0-2.2-1-2.2-2.2c0-1.2,1-2.2,2.2-2.2C414.3,310,415.3,311,415.3,312.2z
		"/>
	<path class="st1" d="M421.9,305.6c0,1.2-1,2.2-2.2,2.2c-1.2,0-2.2-1-2.2-2.2c0-1.2,1-2.2,2.2-2.2
		C420.9,303.4,421.9,304.4,421.9,305.6z"/>
	<path class="st1" d="M421.9,312.2c0,1.2-1,2.2-2.2,2.2c-1.2,0-2.2-1-2.2-2.2c0-1.2,1-2.2,2.2-2.2C420.9,310,421.9,311,421.9,312.2z
		"/>
	<path class="st1" d="M428.5,305.6c0,1.2-1,2.2-2.2,2.2c-1.2,0-2.2-1-2.2-2.2c0-1.2,1-2.2,2.2-2.2
		C427.5,303.4,428.5,304.4,428.5,305.6z"/>
	<path class="st1" d="M428.5,312.2c0,1.2-1,2.2-2.2,2.2c-1.2,0-2.2-1-2.2-2.2c0-1.2,1-2.2,2.2-2.2C427.5,310,428.5,311,428.5,312.2z
		"/>
	<path class="st1" d="M421.9,318.7c0,1.2-1,2.2-2.2,2.2c-1.2,0-2.2-1-2.2-2.2c0-1.2,1-2.2,2.2-2.2
		C420.9,316.5,421.9,317.5,421.9,318.7z"/>
	<path class="st1" d="M421.9,325.3c0,1.2-1,2.2-2.2,2.2c-1.2,0-2.2-1-2.2-2.2c0-1.2,1-2.2,2.2-2.2
		C420.9,323.1,421.9,324.1,421.9,325.3z"/>
	<path class="st1" d="M428.5,318.7c0,1.2-1,2.2-2.2,2.2c-1.2,0-2.2-1-2.2-2.2c0-1.2,1-2.2,2.2-2.2
		C427.5,316.5,428.5,317.5,428.5,318.7z"/>
	<path class="st1" d="M428.5,325.3c0,1.2-1,2.2-2.2,2.2c-1.2,0-2.2-1-2.2-2.2c0-1.2,1-2.2,2.2-2.2
		C427.5,323.1,428.5,324.1,428.5,325.3z"/>
	<path class="st1" d="M421.9,331.9c0,1.2-1,2.2-2.2,2.2c-1.2,0-2.2-1-2.2-2.2c0-1.2,1-2.2,2.2-2.2
		C420.9,329.7,421.9,330.7,421.9,331.9z"/>
	<path class="st1" d="M421.9,337.4c0,1.2-1,2.2-2.2,2.2c-1.2,0-2.2-1-2.2-2.2c0-1.2,1-2.2,2.2-2.2
		C420.9,335.2,421.9,336.2,421.9,337.4z"/>
	<path class="st1" d="M428.5,331.9c0,1.2-1,2.2-2.2,2.2c-1.2,0-2.2-1-2.2-2.2c0-1.2,1-2.2,2.2-2.2
		C427.5,329.7,428.5,330.7,428.5,331.9z"/>
	<path class="st1" d="M428.5,337.4c0,1.2-1,2.2-2.2,2.2c-1.2,0-2.2-1-2.2-2.2c0-1.2,1-2.2,2.2-2.2
		C427.5,335.2,428.5,336.2,428.5,337.4z"/>
	<path class="st1" d="M453.7,343.9c0,1.2-1,2.2-2.2,2.2c-1.2,0-2.2-1-2.2-2.2c0-1.2,1-2.2,2.2-2.2
		C452.7,341.8,453.7,342.7,453.7,343.9z"/>
	<path class="st1" d="M453.7,350.5c0,1.2-1,2.2-2.2,2.2c-1.2,0-2.2-1-2.2-2.2c0-1.2,1-2.2,2.2-2.2
		C452.7,348.3,453.7,349.3,453.7,350.5z"/>
	<path class="st1" d="M459.2,343.9c0,1.2-1,2.2-2.2,2.2c-1.2,0-2.2-1-2.2-2.2c0-1.2,1-2.2,2.2-2.2
		C458.2,341.8,459.2,342.7,459.2,343.9z"/>
	<path class="st1" d="M433.9,343.9c0,1.2-1,2.2-2.2,2.2c-1.2,0-2.2-1-2.2-2.2c0-1.2,1-2.2,2.2-2.2
		C433,341.8,433.9,342.7,433.9,343.9z"/>
	<path class="st1" d="M433.9,350.5c0,1.2-1,2.2-2.2,2.2c-1.2,0-2.2-1-2.2-2.2c0-1.2,1-2.2,2.2-2.2
		C433,348.3,433.9,349.3,433.9,350.5z"/>
	<path class="st1" d="M440.5,343.9c0,1.2-1,2.2-2.2,2.2c-1.2,0-2.2-1-2.2-2.2c0-1.2,1-2.2,2.2-2.2
		C439.5,341.8,440.5,342.7,440.5,343.9z"/>
	<path class="st1" d="M440.5,350.5c0,1.2-1,2.2-2.2,2.2c-1.2,0-2.2-1-2.2-2.2c0-1.2,1-2.2,2.2-2.2
		C439.5,348.3,440.5,349.3,440.5,350.5z"/>
	<path class="st1" d="M447.1,343.9c0,1.2-1,2.2-2.2,2.2c-1.2,0-2.2-1-2.2-2.2c0-1.2,1-2.2,2.2-2.2
		C446.1,341.8,447.1,342.7,447.1,343.9z"/>
	<path class="st1" d="M447.1,350.5c0,1.2-1,2.2-2.2,2.2c-1.2,0-2.2-1-2.2-2.2c0-1.2,1-2.2,2.2-2.2
		C446.1,348.3,447.1,349.3,447.1,350.5z"/>
	<path class="st1" d="M433.9,356c0,1.2-1,2.2-2.2,2.2c-1.2,0-2.2-1-2.2-2.2c0-1.2,1-2.2,2.2-2.2C433,353.8,433.9,354.8,433.9,356z"
		/>
	<path class="st1" d="M440.5,356c0,1.2-1,2.2-2.2,2.2c-1.2,0-2.2-1-2.2-2.2c0-1.2,1-2.2,2.2-2.2C439.5,353.8,440.5,354.8,440.5,356z
		"/>
	<path class="st1" d="M447.1,356c0,1.2-1,2.2-2.2,2.2c-1.2,0-2.2-1-2.2-2.2c0-1.2,1-2.2,2.2-2.2C446.1,353.8,447.1,354.8,447.1,356z
		"/>
	<path class="st1" d="M428.5,343.9c0,1.2-1,2.2-2.2,2.2c-1.2,0-2.2-1-2.2-2.2c0-1.2,1-2.2,2.2-2.2
		C427.5,341.8,428.5,342.7,428.5,343.9z"/>
	<path class="st1" d="M428.5,350.5c0,1.2-1,2.2-2.2,2.2c-1.2,0-2.2-1-2.2-2.2c0-1.2,1-2.2,2.2-2.2
		C427.5,348.3,428.5,349.3,428.5,350.5z"/>
	<path class="st1" d="M428.5,356c0,1.2-1,2.2-2.2,2.2c-1.2,0-2.2-1-2.2-2.2c0-1.2,1-2.2,2.2-2.2C427.5,353.8,428.5,354.8,428.5,356z
		"/>
</g>
</svg>
