<?xml version="1.0" encoding="utf-8"?>
<!-- Generator: Adobe Illustrator 28.2.0, SVG Export Plug-In . SVG Version: 6.00 Build 0)  -->
<svg version="1.1" id="Calque_1" xmlns="http://www.w3.org/2000/svg" xmlns:xlink="http://www.w3.org/1999/xlink" x="0px" y="0px"
	 viewBox="0 0 835 422" style="enable-background:new 0 0 835 422;" xml:space="preserve">
<style type="text/css">
	.st0{opacity:0.2;}
	.st1{fill-rule:evenodd;clip-rule:evenodd;fill:#F05801;}
</style>
<g class="st0">
	<path class="st1" d="M504.1,122.6c0,1.2-1,2.2-2.2,2.2s-2.2-1-2.2-2.2s1-2.2,2.2-2.2S504.1,121.4,504.1,122.6z"/>
	<path class="st1" d="M490.9,141.2c0,1.2-1,2.2-2.2,2.2s-2.2-1-2.2-2.2s1-2.2,2.2-2.2C490,139,490.9,140,490.9,141.2z"/>
	<path class="st1" d="M497.5,141.2c0,1.2-1,2.2-2.2,2.2s-2.2-1-2.2-2.2s1-2.2,2.2-2.2S497.5,140,497.5,141.2z"/>
	<path class="st1" d="M490.9,135.7c0,1.2-1,2.2-2.2,2.2s-2.2-1-2.2-2.2s1-2.2,2.2-2.2C490,133.5,490.9,134.5,490.9,135.7z"/>
	<path class="st1" d="M497.5,135.7c0,1.2-1,2.2-2.2,2.2s-2.2-1-2.2-2.2s1-2.2,2.2-2.2S497.5,134.5,497.5,135.7z"/>
	<path class="st1" d="M490.9,129.1c0,1.2-1,2.2-2.2,2.2s-2.2-1-2.2-2.2s1-2.2,2.2-2.2C490,127,490.9,127.9,490.9,129.1z"/>
	<path class="st1" d="M497.5,129.1c0,1.2-1,2.2-2.2,2.2s-2.2-1-2.2-2.2s1-2.2,2.2-2.2C496.5,127,497.5,127.9,497.5,129.1z"/>
	<path class="st1" d="M485.5,141.2c0,1.2-1,2.2-2.2,2.2s-2.2-1-2.2-2.2s1-2.2,2.2-2.2S485.5,140,485.5,141.2z"/>
	<path class="st1" d="M485.5,135.7c0,1.2-1,2.2-2.2,2.2s-2.2-1-2.2-2.2s1-2.2,2.2-2.2S485.5,134.5,485.5,135.7z"/>
	<path class="st1" d="M490.9,154.4c0,1.2-1,2.2-2.2,2.2s-2.2-1-2.2-2.2s1-2.2,2.2-2.2C490,152.2,490.9,153.1,490.9,154.4z"/>
	<path class="st1" d="M497.5,154.4c0,1.2-1,2.2-2.2,2.2s-2.2-1-2.2-2.2s1-2.2,2.2-2.2S497.5,153.1,497.5,154.4z"/>
	<path class="st1" d="M490.9,147.8c0,1.2-1,2.2-2.2,2.2s-2.2-1-2.2-2.2s1-2.2,2.2-2.2C490,145.6,490.9,146.6,490.9,147.8z"/>
	<path class="st1" d="M497.5,147.8c0,1.2-1,2.2-2.2,2.2s-2.2-1-2.2-2.2s1-2.2,2.2-2.2S497.5,146.6,497.5,147.8z"/>
	<path class="st1" d="M485.5,154.4c0,1.2-1,2.2-2.2,2.2s-2.2-1-2.2-2.2s1-2.2,2.2-2.2S485.5,153.1,485.5,154.4z"/>
	<path class="st1" d="M485.5,147.8c0,1.2-1,2.2-2.2,2.2s-2.2-1-2.2-2.2s1-2.2,2.2-2.2S485.5,146.6,485.5,147.8z"/>
	<path class="st1" d="M490.9,166.4c0,1.2-1,2.2-2.2,2.2s-2.2-1-2.2-2.2s1-2.2,2.2-2.2C490,164.2,490.9,165.2,490.9,166.4z"/>
	<path class="st1" d="M484.4,166.4c0,1.2-1,2.2-2.2,2.2s-2.2-1-2.2-2.2s1-2.2,2.2-2.2S484.4,165.2,484.4,166.4z"/>
	<path class="st1" d="M497.5,166.4c0,1.2-1,2.2-2.2,2.2s-2.2-1-2.2-2.2s1-2.2,2.2-2.2S497.5,165.2,497.5,166.4z"/>
	<path class="st1" d="M490.9,160.9c0,1.2-1,2.2-2.2,2.2s-2.2-1-2.2-2.2s1-2.2,2.2-2.2C490,158.7,490.9,159.7,490.9,160.9z"/>
	<path class="st1" d="M497.5,160.9c0,1.2-1,2.2-2.2,2.2s-2.2-1-2.2-2.2s1-2.2,2.2-2.2S497.5,159.7,497.5,160.9z"/>
	<path class="st1" d="M485.5,160.9c0,1.2-1,2.2-2.2,2.2s-2.2-1-2.2-2.2s1-2.2,2.2-2.2S485.5,159.7,485.5,160.9z"/>
	<path class="st1" d="M478.9,160.9c0,1.2-1,2.2-2.2,2.2s-2.2-1-2.2-2.2s1-2.2,2.2-2.2S478.9,159.7,478.9,160.9z"/>
	<path class="st1" d="M490.9,179.6c0,1.2-1,2.2-2.2,2.2s-2.2-1-2.2-2.2s1-2.2,2.2-2.2C490,177.4,490.9,178.3,490.9,179.6z"/>
	<path class="st1" d="M490.9,186.1c0,1.2-1,2.2-2.2,2.2s-2.2-1-2.2-2.2s1-2.2,2.2-2.2C490,183.9,490.9,184.9,490.9,186.1z"/>
	<path class="st1" d="M497.5,179.6c0,1.2-1,2.2-2.2,2.2s-2.2-1-2.2-2.2s1-2.2,2.2-2.2C496.5,177.4,497.5,178.3,497.5,179.6z"/>
	<path class="st1" d="M490.9,173c0,1.2-1,2.2-2.2,2.2s-2.2-1-2.2-2.2s1-2.2,2.2-2.2C490,170.8,490.9,171.8,490.9,173z"/>
	<path class="st1" d="M497.5,173c0,1.2-1,2.2-2.2,2.2s-2.2-1-2.2-2.2s1-2.2,2.2-2.2S497.5,171.8,497.5,173z"/>
	<path class="st1" d="M485.5,173c0,1.2-1,2.2-2.2,2.2s-2.2-1-2.2-2.2s1-2.2,2.2-2.2S485.5,171.8,485.5,173z"/>
	<path class="st1" d="M485.5,129.1c0,1.2-1,2.2-2.2,2.2s-2.2-1-2.2-2.2s1-2.2,2.2-2.2C484.5,127,485.5,127.9,485.5,129.1z"/>
	<path class="st1" d="M490.9,122.6c0,1.2-1,2.2-2.2,2.2s-2.2-1-2.2-2.2s1-2.2,2.2-2.2C490,120.4,490.9,121.4,490.9,122.6z"/>
	<path class="st1" d="M497.5,122.6c0,1.2-1,2.2-2.2,2.2s-2.2-1-2.2-2.2s1-2.2,2.2-2.2S497.5,121.4,497.5,122.6z"/>
	<path class="st1" d="M485.5,122.6c0,1.2-1,2.2-2.2,2.2s-2.2-1-2.2-2.2s1-2.2,2.2-2.2S485.5,121.4,485.5,122.6z"/>
	<path class="st1" d="M478.9,153.3c0,1.2-1,2.2-2.2,2.2s-2.2-1-2.2-2.2s1-2.2,2.2-2.2S478.9,152,478.9,153.3z"/>
	<path class="st1" d="M478.9,147.8c0,1.2-1,2.2-2.2,2.2s-2.2-1-2.2-2.2s1-2.2,2.2-2.2S478.9,146.6,478.9,147.8z"/>
	<path class="st1" d="M478.9,141.2c0,1.2-1,2.2-2.2,2.2s-2.2-1-2.2-2.2s1-2.2,2.2-2.2S478.9,140,478.9,141.2z"/>
	<path class="st1" d="M478.9,134.6c0,1.2-1,2.2-2.2,2.2s-2.2-1-2.2-2.2s1-2.2,2.2-2.2C477.9,132.4,478.9,133.4,478.9,134.6z"/>
	<path class="st1" d="M478.9,129.1c0,1.2-1,2.2-2.2,2.2s-2.2-1-2.2-2.2s1-2.2,2.2-2.2C477.9,127,478.9,127.9,478.9,129.1z"/>
	<path class="st1" d="M478.9,122.6c0,1.2-1,2.2-2.2,2.2s-2.2-1-2.2-2.2s1-2.2,2.2-2.2S478.9,121.4,478.9,122.6z"/>
	<path class="st1" d="M598.4,122.6c0,1.2-1,2.2-2.2,2.2s-2.2-1-2.2-2.2s1-2.2,2.2-2.2S598.4,121.4,598.4,122.6z"/>
	<path class="st1" d="M598.4,129.1c0,1.2-1,2.2-2.2,2.2s-2.2-1-2.2-2.2s1-2.2,2.2-2.2C597.4,127,598.4,127.9,598.4,129.1z"/>
	<path class="st1" d="M603.9,122.6c0,1.2-1,2.2-2.2,2.2s-2.2-1-2.2-2.2s1-2.2,2.2-2.2S603.9,121.4,603.9,122.6z"/>
	<path class="st1" d="M603.9,129.1c0,1.2-1,2.2-2.2,2.2s-2.2-1-2.2-2.2s1-2.2,2.2-2.2C602.9,127,603.9,127.9,603.9,129.1z"/>
	<path class="st1" d="M610.4,122.6c0,1.2-1,2.2-2.2,2.2s-2.2-1-2.2-2.2s1-2.2,2.2-2.2S610.4,121.4,610.4,122.6z"/>
	<path class="st1" d="M610.4,129.1c0,1.2-1,2.2-2.2,2.2s-2.2-1-2.2-2.2s1-2.2,2.2-2.2S610.4,127.9,610.4,129.1z"/>
	<path class="st1" d="M617,122.6c0,1.2-1,2.2-2.2,2.2s-2.2-1-2.2-2.2s1-2.2,2.2-2.2S617,121.4,617,122.6z"/>
	<path class="st1" d="M617,129.1c0,1.2-1,2.2-2.2,2.2s-2.2-1-2.2-2.2s1-2.2,2.2-2.2C616,127,617,127.9,617,129.1z"/>
	<path class="st1" d="M623.6,122.6c0,1.2-1,2.2-2.2,2.2s-2.2-1-2.2-2.2s1-2.2,2.2-2.2S623.6,121.4,623.6,122.6z"/>
	<path class="st1" d="M623.6,129.1c0,1.2-1,2.2-2.2,2.2s-2.2-1-2.2-2.2s1-2.2,2.2-2.2C622.6,127,623.6,127.9,623.6,129.1z"/>
	<path class="st1" d="M598.4,135.7c0,1.2-1,2.2-2.2,2.2s-2.2-1-2.2-2.2s1-2.2,2.2-2.2S598.4,134.5,598.4,135.7z"/>
	<path class="st1" d="M598.4,142.3c0,1.2-1,2.2-2.2,2.2s-2.2-1-2.2-2.2s1-2.2,2.2-2.2S598.4,141.1,598.4,142.3z"/>
	<path class="st1" d="M603.9,135.7c0,1.2-1,2.2-2.2,2.2s-2.2-1-2.2-2.2s1-2.2,2.2-2.2S603.9,134.5,603.9,135.7z"/>
	<path class="st1" d="M603.9,142.3c0,1.2-1,2.2-2.2,2.2s-2.2-1-2.2-2.2s1-2.2,2.2-2.2S603.9,141.1,603.9,142.3z"/>
	<path class="st1" d="M610.4,135.7c0,1.2-1,2.2-2.2,2.2s-2.2-1-2.2-2.2s1-2.2,2.2-2.2S610.4,134.5,610.4,135.7z"/>
	<path class="st1" d="M610.4,142.3c0,1.2-1,2.2-2.2,2.2s-2.2-1-2.2-2.2s1-2.2,2.2-2.2S610.4,141.1,610.4,142.3z"/>
	<path class="st1" d="M617,135.7c0,1.2-1,2.2-2.2,2.2s-2.2-1-2.2-2.2s1-2.2,2.2-2.2S617,134.5,617,135.7z"/>
	<path class="st1" d="M617,142.3c0,1.2-1,2.2-2.2,2.2s-2.2-1-2.2-2.2s1-2.2,2.2-2.2S617,141.1,617,142.3z"/>
	<path class="st1" d="M623.6,135.7c0,1.2-1,2.2-2.2,2.2s-2.2-1-2.2-2.2s1-2.2,2.2-2.2S623.6,134.5,623.6,135.7z"/>
	<path class="st1" d="M623.6,142.3c0,1.2-1,2.2-2.2,2.2s-2.2-1-2.2-2.2s1-2.2,2.2-2.2S623.6,141.1,623.6,142.3z"/>
	<path class="st1" d="M598.4,147.8c0,1.2-1,2.2-2.2,2.2s-2.2-1-2.2-2.2s1-2.2,2.2-2.2S598.4,146.6,598.4,147.8z"/>
	<path class="st1" d="M598.4,154.3c0,1.2-1,2.2-2.2,2.2s-2.2-1-2.2-2.2s1-2.2,2.2-2.2C597.4,152.2,598.4,153.1,598.4,154.3z"/>
	<path class="st1" d="M603.9,147.8c0,1.2-1,2.2-2.2,2.2s-2.2-1-2.2-2.2s1-2.2,2.2-2.2S603.9,146.6,603.9,147.8z"/>
	<path class="st1" d="M603.9,154.3c0,1.2-1,2.2-2.2,2.2s-2.2-1-2.2-2.2s1-2.2,2.2-2.2C602.9,152.2,603.9,153.1,603.9,154.3z"/>
	<path class="st1" d="M610.4,147.8c0,1.2-1,2.2-2.2,2.2s-2.2-1-2.2-2.2s1-2.2,2.2-2.2S610.4,146.6,610.4,147.8z"/>
	<path class="st1" d="M610.4,154.3c0,1.2-1,2.2-2.2,2.2s-2.2-1-2.2-2.2s1-2.2,2.2-2.2S610.4,153.1,610.4,154.3z"/>
	<path class="st1" d="M617,147.8c0,1.2-1,2.2-2.2,2.2s-2.2-1-2.2-2.2s1-2.2,2.2-2.2S617,146.6,617,147.8z"/>
	<path class="st1" d="M617,154.3c0,1.2-1,2.2-2.2,2.2s-2.2-1-2.2-2.2s1-2.2,2.2-2.2C616,152.2,617,153.1,617,154.3z"/>
	<path class="st1" d="M623.6,147.8c0,1.2-1,2.2-2.2,2.2s-2.2-1-2.2-2.2s1-2.2,2.2-2.2S623.6,146.6,623.6,147.8z"/>
	<path class="st1" d="M623.6,154.3c0,1.2-1,2.2-2.2,2.2s-2.2-1-2.2-2.2s1-2.2,2.2-2.2C622.6,152.2,623.6,153.1,623.6,154.3z"/>
	<path class="st1" d="M598.4,160.9c0,1.2-1,2.2-2.2,2.2s-2.2-1-2.2-2.2s1-2.2,2.2-2.2S598.4,159.7,598.4,160.9z"/>
	<path class="st1" d="M598.4,167.5c0,1.2-1,2.2-2.2,2.2s-2.2-1-2.2-2.2s1-2.2,2.2-2.2S598.4,166.3,598.4,167.5z"/>
	<path class="st1" d="M603.9,160.9c0,1.2-1,2.2-2.2,2.2s-2.2-1-2.2-2.2s1-2.2,2.2-2.2S603.9,159.7,603.9,160.9z"/>
	<path class="st1" d="M603.9,167.5c0,1.2-1,2.2-2.2,2.2s-2.2-1-2.2-2.2s1-2.2,2.2-2.2S603.9,166.3,603.9,167.5z"/>
	<path class="st1" d="M610.4,160.9c0,1.2-1,2.2-2.2,2.2s-2.2-1-2.2-2.2s1-2.2,2.2-2.2S610.4,159.7,610.4,160.9z"/>
	<path class="st1" d="M610.4,167.5c0,1.2-1,2.2-2.2,2.2s-2.2-1-2.2-2.2s1-2.2,2.2-2.2S610.4,166.3,610.4,167.5z"/>
	<path class="st1" d="M617,160.9c0,1.2-1,2.2-2.2,2.2s-2.2-1-2.2-2.2s1-2.2,2.2-2.2S617,159.7,617,160.9z"/>
	<path class="st1" d="M617,167.5c0,1.2-1,2.2-2.2,2.2s-2.2-1-2.2-2.2s1-2.2,2.2-2.2S617,166.3,617,167.5z"/>
	<path class="st1" d="M623.6,160.9c0,1.2-1,2.2-2.2,2.2s-2.2-1-2.2-2.2s1-2.2,2.2-2.2S623.6,159.7,623.6,160.9z"/>
	<path class="st1" d="M623.6,167.5c0,1.2-1,2.2-2.2,2.2s-2.2-1-2.2-2.2s1-2.2,2.2-2.2S623.6,166.3,623.6,167.5z"/>
	<path class="st1" d="M566.6,122.6c0,1.2-1,2.2-2.2,2.2s-2.2-1-2.2-2.2s1-2.2,2.2-2.2S566.6,121.4,566.6,122.6z"/>
	<path class="st1" d="M566.6,129.1c0,1.2-1,2.2-2.2,2.2s-2.2-1-2.2-2.2s1-2.2,2.2-2.2C565.6,127,566.6,127.9,566.6,129.1z"/>
	<path class="st1" d="M573.2,122.6c0,1.2-1,2.2-2.2,2.2s-2.2-1-2.2-2.2s1-2.2,2.2-2.2S573.2,121.4,573.2,122.6z"/>
	<path class="st1" d="M573.2,129.1c0,1.2-1,2.2-2.2,2.2s-2.2-1-2.2-2.2s1-2.2,2.2-2.2C572.2,127,573.2,127.9,573.2,129.1z"/>
	<path class="st1" d="M578.6,122.6c0,1.2-1,2.2-2.2,2.2s-2.2-1-2.2-2.2s1-2.2,2.2-2.2C577.7,120.4,578.6,121.4,578.6,122.6z"/>
	<path class="st1" d="M578.6,129.1c0,1.2-1,2.2-2.2,2.2s-2.2-1-2.2-2.2s1-2.2,2.2-2.2C577.7,127,578.6,127.9,578.6,129.1z"/>
	<path class="st1" d="M585.2,122.6c0,1.2-1,2.2-2.2,2.2s-2.2-1-2.2-2.2s1-2.2,2.2-2.2S585.2,121.4,585.2,122.6z"/>
	<path class="st1" d="M585.2,129.1c0,1.2-1,2.2-2.2,2.2s-2.2-1-2.2-2.2s1-2.2,2.2-2.2C584.2,127,585.2,127.9,585.2,129.1z"/>
	<path class="st1" d="M591.8,122.6c0,1.2-1,2.2-2.2,2.2s-2.2-1-2.2-2.2s1-2.2,2.2-2.2S591.8,121.4,591.8,122.6z"/>
	<path class="st1" d="M591.8,129.1c0,1.2-1,2.2-2.2,2.2s-2.2-1-2.2-2.2s1-2.2,2.2-2.2C590.8,127,591.8,127.9,591.8,129.1z"/>
	<path class="st1" d="M566.6,135.7c0,1.2-1,2.2-2.2,2.2s-2.2-1-2.2-2.2s1-2.2,2.2-2.2S566.6,134.5,566.6,135.7z"/>
	<path class="st1" d="M566.6,142.3c0,1.2-1,2.2-2.2,2.2s-2.2-1-2.2-2.2s1-2.2,2.2-2.2S566.6,141.1,566.6,142.3z"/>
	<path class="st1" d="M573.2,135.7c0,1.2-1,2.2-2.2,2.2s-2.2-1-2.2-2.2s1-2.2,2.2-2.2S573.2,134.5,573.2,135.7z"/>
	<path class="st1" d="M573.2,142.3c0,1.2-1,2.2-2.2,2.2s-2.2-1-2.2-2.2s1-2.2,2.2-2.2S573.2,141.1,573.2,142.3z"/>
	<path class="st1" d="M578.6,135.7c0,1.2-1,2.2-2.2,2.2s-2.2-1-2.2-2.2s1-2.2,2.2-2.2C577.7,133.5,578.6,134.5,578.6,135.7z"/>
	<path class="st1" d="M578.6,142.3c0,1.2-1,2.2-2.2,2.2s-2.2-1-2.2-2.2s1-2.2,2.2-2.2C577.7,140.1,578.6,141.1,578.6,142.3z"/>
	<path class="st1" d="M585.2,135.7c0,1.2-1,2.2-2.2,2.2s-2.2-1-2.2-2.2s1-2.2,2.2-2.2S585.2,134.5,585.2,135.7z"/>
	<path class="st1" d="M585.2,142.3c0,1.2-1,2.2-2.2,2.2s-2.2-1-2.2-2.2s1-2.2,2.2-2.2S585.2,141.1,585.2,142.3z"/>
	<path class="st1" d="M591.8,135.7c0,1.2-1,2.2-2.2,2.2s-2.2-1-2.2-2.2s1-2.2,2.2-2.2S591.8,134.5,591.8,135.7z"/>
	<path class="st1" d="M591.8,142.3c0,1.2-1,2.2-2.2,2.2s-2.2-1-2.2-2.2s1-2.2,2.2-2.2S591.8,141.1,591.8,142.3z"/>
	<path class="st1" d="M566.6,147.8c0,1.2-1,2.2-2.2,2.2s-2.2-1-2.2-2.2s1-2.2,2.2-2.2S566.6,146.6,566.6,147.8z"/>
	<path class="st1" d="M566.6,154.3c0,1.2-1,2.2-2.2,2.2s-2.2-1-2.2-2.2s1-2.2,2.2-2.2C565.6,152.2,566.6,153.1,566.6,154.3z"/>
	<path class="st1" d="M573.2,147.8c0,1.2-1,2.2-2.2,2.2s-2.2-1-2.2-2.2s1-2.2,2.2-2.2S573.2,146.6,573.2,147.8z"/>
	<path class="st1" d="M573.2,154.3c0,1.2-1,2.2-2.2,2.2s-2.2-1-2.2-2.2s1-2.2,2.2-2.2C572.2,152.2,573.2,153.1,573.2,154.3z"/>
	<path class="st1" d="M578.6,147.8c0,1.2-1,2.2-2.2,2.2s-2.2-1-2.2-2.2s1-2.2,2.2-2.2C577.7,145.6,578.6,146.6,578.6,147.8z"/>
	<path class="st1" d="M578.6,154.3c0,1.2-1,2.2-2.2,2.2s-2.2-1-2.2-2.2s1-2.2,2.2-2.2C577.7,152.2,578.6,153.1,578.6,154.3z"/>
	<path class="st1" d="M585.2,147.8c0,1.2-1,2.2-2.2,2.2s-2.2-1-2.2-2.2s1-2.2,2.2-2.2S585.2,146.6,585.2,147.8z"/>
	<path class="st1" d="M585.2,154.3c0,1.2-1,2.2-2.2,2.2s-2.2-1-2.2-2.2s1-2.2,2.2-2.2C584.2,152.2,585.2,153.1,585.2,154.3z"/>
	<path class="st1" d="M591.8,147.8c0,1.2-1,2.2-2.2,2.2s-2.2-1-2.2-2.2s1-2.2,2.2-2.2S591.8,146.6,591.8,147.8z"/>
	<path class="st1" d="M591.8,154.3c0,1.2-1,2.2-2.2,2.2s-2.2-1-2.2-2.2s1-2.2,2.2-2.2C590.8,152.2,591.8,153.1,591.8,154.3z"/>
	<path class="st1" d="M548,122.6c0,1.2-1,2.2-2.2,2.2s-2.2-1-2.2-2.2s1-2.2,2.2-2.2S548,121.4,548,122.6z"/>
	<path class="st1" d="M548,129.1c0,1.2-1,2.2-2.2,2.2s-2.2-1-2.2-2.2s1-2.2,2.2-2.2C547,127,548,127.9,548,129.1z"/>
	<path class="st1" d="M553.4,122.6c0,1.2-1,2.2-2.2,2.2s-2.2-1-2.2-2.2s1-2.2,2.2-2.2C552.5,120.4,553.4,121.4,553.4,122.6z"/>
	<path class="st1" d="M553.4,129.1c0,1.2-1,2.2-2.2,2.2s-2.2-1-2.2-2.2s1-2.2,2.2-2.2C552.5,127,553.4,127.9,553.4,129.1z"/>
	<path class="st1" d="M560,122.6c0,1.2-1,2.2-2.2,2.2s-2.2-1-2.2-2.2s1-2.2,2.2-2.2S560,121.4,560,122.6z"/>
	<path class="st1" d="M560,129.1c0,1.2-1,2.2-2.2,2.2s-2.2-1-2.2-2.2s1-2.2,2.2-2.2C559,127,560,127.9,560,129.1z"/>
	<path class="st1" d="M548,135.7c0,1.2-1,2.2-2.2,2.2s-2.2-1-2.2-2.2s1-2.2,2.2-2.2S548,134.5,548,135.7z"/>
	<path class="st1" d="M548,142.3c0,1.2-1,2.2-2.2,2.2s-2.2-1-2.2-2.2s1-2.2,2.2-2.2S548,141.1,548,142.3z"/>
	<path class="st1" d="M553.4,135.7c0,1.2-1,2.2-2.2,2.2s-2.2-1-2.2-2.2s1-2.2,2.2-2.2C552.5,133.5,553.4,134.5,553.4,135.7z"/>
	<path class="st1" d="M553.4,142.3c0,1.2-1,2.2-2.2,2.2s-2.2-1-2.2-2.2s1-2.2,2.2-2.2C552.5,140.1,553.4,141.1,553.4,142.3z"/>
	<path class="st1" d="M560,135.7c0,1.2-1,2.2-2.2,2.2s-2.2-1-2.2-2.2s1-2.2,2.2-2.2S560,134.5,560,135.7z"/>
	<path class="st1" d="M560,142.3c0,1.2-1,2.2-2.2,2.2s-2.2-1-2.2-2.2s1-2.2,2.2-2.2S560,141.1,560,142.3z"/>
	<path class="st1" d="M548,147.8c0,1.2-1,2.2-2.2,2.2s-2.2-1-2.2-2.2s1-2.2,2.2-2.2S548,146.6,548,147.8z"/>
	<path class="st1" d="M548,154.3c0,1.2-1,2.2-2.2,2.2s-2.2-1-2.2-2.2s1-2.2,2.2-2.2C547,152.2,548,153.1,548,154.3z"/>
	<path class="st1" d="M553.4,147.8c0,1.2-1,2.2-2.2,2.2s-2.2-1-2.2-2.2s1-2.2,2.2-2.2C552.5,145.6,553.4,146.6,553.4,147.8z"/>
	<path class="st1" d="M553.4,154.3c0,1.2-1,2.2-2.2,2.2s-2.2-1-2.2-2.2s1-2.2,2.2-2.2C552.5,152.2,553.4,153.1,553.4,154.3z"/>
	<path class="st1" d="M560,147.8c0,1.2-1,2.2-2.2,2.2s-2.2-1-2.2-2.2s1-2.2,2.2-2.2S560,146.6,560,147.8z"/>
	<path class="st1" d="M560,154.3c0,1.2-1,2.2-2.2,2.2s-2.2-1-2.2-2.2s1-2.2,2.2-2.2C559,152.2,560,153.1,560,154.3z"/>
	<path class="st1" d="M553.4,160.9c0,1.2-1,2.2-2.2,2.2s-2.2-1-2.2-2.2s1-2.2,2.2-2.2C552.5,158.7,553.4,159.7,553.4,160.9z"/>
	<path class="st1" d="M553.4,167.5c0,1.2-1,2.2-2.2,2.2s-2.2-1-2.2-2.2s1-2.2,2.2-2.2C552.5,165.3,553.4,166.3,553.4,167.5z"/>
	<path class="st1" d="M560,160.9c0,1.2-1,2.2-2.2,2.2s-2.2-1-2.2-2.2s1-2.2,2.2-2.2S560,159.7,560,160.9z"/>
	<path class="st1" d="M560,167.5c0,1.2-1,2.2-2.2,2.2s-2.2-1-2.2-2.2s1-2.2,2.2-2.2S560,166.3,560,167.5z"/>
	<path class="st1" d="M516.2,122.6c0,1.2-1,2.2-2.2,2.2s-2.2-1-2.2-2.2s1-2.2,2.2-2.2S516.2,121.4,516.2,122.6z"/>
	<path class="st1" d="M516.2,129.1c0,1.2-1,2.2-2.2,2.2s-2.2-1-2.2-2.2s1-2.2,2.2-2.2C515.2,127,516.2,127.9,516.2,129.1z"/>
	<path class="st1" d="M522.7,122.6c0,1.2-1,2.2-2.2,2.2s-2.2-1-2.2-2.2s1-2.2,2.2-2.2C521.8,120.4,522.7,121.4,522.7,122.6z"/>
	<path class="st1" d="M522.7,129.1c0,1.2-1,2.2-2.2,2.2s-2.2-1-2.2-2.2s1-2.2,2.2-2.2C521.8,127,522.7,127.9,522.7,129.1z"/>
	<path class="st1" d="M528.2,122.6c0,1.2-1,2.2-2.2,2.2s-2.2-1-2.2-2.2s1-2.2,2.2-2.2S528.2,121.4,528.2,122.6z"/>
	<path class="st1" d="M528.2,129.1c0,1.2-1,2.2-2.2,2.2s-2.2-1-2.2-2.2s1-2.2,2.2-2.2C527.2,127,528.2,127.9,528.2,129.1z"/>
	<path class="st1" d="M534.8,122.6c0,1.2-1,2.2-2.2,2.2s-2.2-1-2.2-2.2s1-2.2,2.2-2.2S534.8,121.4,534.8,122.6z"/>
	<path class="st1" d="M534.8,129.1c0,1.2-1,2.2-2.2,2.2s-2.2-1-2.2-2.2s1-2.2,2.2-2.2C533.8,127,534.8,127.9,534.8,129.1z"/>
	<path class="st1" d="M541.4,122.6c0,1.2-1,2.2-2.2,2.2s-2.2-1-2.2-2.2s1-2.2,2.2-2.2S541.4,121.4,541.4,122.6z"/>
	<path class="st1" d="M541.4,129.1c0,1.2-1,2.2-2.2,2.2s-2.2-1-2.2-2.2s1-2.2,2.2-2.2C540.4,127,541.4,127.9,541.4,129.1z"/>
	<path class="st1" d="M516.2,135.7c0,1.2-1,2.2-2.2,2.2s-2.2-1-2.2-2.2s1-2.2,2.2-2.2S516.2,134.5,516.2,135.7z"/>
	<path class="st1" d="M516.2,142.3c0,1.2-1,2.2-2.2,2.2s-2.2-1-2.2-2.2s1-2.2,2.2-2.2S516.2,141.1,516.2,142.3z"/>
	<path class="st1" d="M509.6,122.6c0,1.2-1,2.2-2.2,2.2s-2.2-1-2.2-2.2s1-2.2,2.2-2.2S509.6,121.4,509.6,122.6z"/>
	<path class="st1" d="M509.6,129.1c0,1.2-1,2.2-2.2,2.2s-2.2-1-2.2-2.2s1-2.2,2.2-2.2C508.6,127,509.6,127.9,509.6,129.1z"/>
	<path class="st1" d="M504.1,129.1c0,1.2-1,2.2-2.2,2.2s-2.2-1-2.2-2.2s1-2.2,2.2-2.2C503.1,127,504.1,127.9,504.1,129.1z"/>
	<path class="st1" d="M504.1,154.4c0,1.2-1,2.2-2.2,2.2s-2.2-1-2.2-2.2s1-2.2,2.2-2.2S504.1,153.1,504.1,154.4z"/>
	<path class="st1" d="M504.1,147.8c0,1.2-1,2.2-2.2,2.2s-2.2-1-2.2-2.2s1-2.2,2.2-2.2S504.1,146.6,504.1,147.8z"/>
	<path class="st1" d="M504.1,166.4c0,1.2-1,2.2-2.2,2.2s-2.2-1-2.2-2.2s1-2.2,2.2-2.2S504.1,165.2,504.1,166.4z"/>
	<path class="st1" d="M504.1,160.9c0,1.2-1,2.2-2.2,2.2s-2.2-1-2.2-2.2s1-2.2,2.2-2.2S504.1,159.7,504.1,160.9z"/>
	<path class="st1" d="M504.1,179.6c0,1.2-1,2.2-2.2,2.2s-2.2-1-2.2-2.2s1-2.2,2.2-2.2C503.1,177.4,504.1,178.3,504.1,179.6z"/>
	<path class="st1" d="M504.1,186.1c0,1.2-1,2.2-2.2,2.2s-2.2-1-2.2-2.2s1-2.2,2.2-2.2C503.1,183.9,504.1,184.9,504.1,186.1z"/>
	<path class="st1" d="M504.1,173c0,1.2-1,2.2-2.2,2.2s-2.2-1-2.2-2.2s1-2.2,2.2-2.2S504.1,171.8,504.1,173z"/>
	<path class="st1" d="M504.1,141.2c0,1.2-1,2.2-2.2,2.2s-2.2-1-2.2-2.2s1-2.2,2.2-2.2S504.1,140,504.1,141.2z"/>
	<path class="st1" d="M504.1,135.7c0,1.2-1,2.2-2.2,2.2s-2.2-1-2.2-2.2s1-2.2,2.2-2.2S504.1,134.5,504.1,135.7z"/>
	<path class="st1" d="M504.1,191.6c0,1.2-1,2.2-2.2,2.2s-2.2-1-2.2-2.2s1-2.2,2.2-2.2C503.1,189.4,504.1,190.4,504.1,191.6z"/>
	<path class="st1" d="M497.5,186.1c0,1.2-1,2.2-2.2,2.2s-2.2-1-2.2-2.2s1-2.2,2.2-2.2C496.5,183.9,497.5,184.9,497.5,186.1z"/>
	<path class="st1" d="M497.5,191.8c-0.1,1.2-1.2,2.1-2.4,2c-1.2-0.1-2.1-1.2-2-2.4s1.2-2.1,2.4-2
		C496.8,189.6,497.6,190.6,497.5,191.8z"/>
	<path class="st1" d="M509.6,135.7c0,1.2-1,2.2-2.2,2.2s-2.2-1-2.2-2.2s1-2.2,2.2-2.2S509.6,134.5,509.6,135.7z"/>
	<path class="st1" d="M509.6,142.3c0,1.2-1,2.2-2.2,2.2s-2.2-1-2.2-2.2s1-2.2,2.2-2.2S509.6,141.1,509.6,142.3z"/>
	<path class="st1" d="M522.7,135.7c0,1.2-1,2.2-2.2,2.2s-2.2-1-2.2-2.2s1-2.2,2.2-2.2C521.8,133.5,522.7,134.5,522.7,135.7z"/>
	<path class="st1" d="M522.7,142.3c0,1.2-1,2.2-2.2,2.2s-2.2-1-2.2-2.2s1-2.2,2.2-2.2C521.8,140.1,522.7,141.1,522.7,142.3z"/>
	<path class="st1" d="M528.2,135.7c0,1.2-1,2.2-2.2,2.2s-2.2-1-2.2-2.2s1-2.2,2.2-2.2S528.2,134.5,528.2,135.7z"/>
	<path class="st1" d="M528.2,142.3c0,1.2-1,2.2-2.2,2.2s-2.2-1-2.2-2.2s1-2.2,2.2-2.2S528.2,141.1,528.2,142.3z"/>
	<path class="st1" d="M534.8,135.7c0,1.2-1,2.2-2.2,2.2s-2.2-1-2.2-2.2s1-2.2,2.2-2.2S534.8,134.5,534.8,135.7z"/>
	<path class="st1" d="M534.8,142.3c0,1.2-1,2.2-2.2,2.2s-2.2-1-2.2-2.2s1-2.2,2.2-2.2S534.8,141.1,534.8,142.3z"/>
	<path class="st1" d="M541.4,135.7c0,1.2-1,2.2-2.2,2.2s-2.2-1-2.2-2.2s1-2.2,2.2-2.2S541.4,134.5,541.4,135.7z"/>
	<path class="st1" d="M541.4,142.3c0,1.2-1,2.2-2.2,2.2s-2.2-1-2.2-2.2s1-2.2,2.2-2.2S541.4,141.1,541.4,142.3z"/>
	<path class="st1" d="M516.2,147.8c0,1.2-1,2.2-2.2,2.2s-2.2-1-2.2-2.2s1-2.2,2.2-2.2S516.2,146.6,516.2,147.8z"/>
	<path class="st1" d="M522.7,147.8c0,1.2-1,2.2-2.2,2.2s-2.2-1-2.2-2.2s1-2.2,2.2-2.2C521.8,145.6,522.7,146.6,522.7,147.8z"/>
	<path class="st1" d="M522.7,154.3c0,1.2-1,2.2-2.2,2.2s-2.2-1-2.2-2.2s1-2.2,2.2-2.2C521.8,152.2,522.7,153.1,522.7,154.3z"/>
	<path class="st1" d="M528.2,147.8c0,1.2-1,2.2-2.2,2.2s-2.2-1-2.2-2.2s1-2.2,2.2-2.2S528.2,146.6,528.2,147.8z"/>
	<path class="st1" d="M528.2,154.3c0,1.2-1,2.2-2.2,2.2s-2.2-1-2.2-2.2s1-2.2,2.2-2.2C527.2,152.2,528.2,153.1,528.2,154.3z"/>
	<path class="st1" d="M534.8,147.8c0,1.2-1,2.2-2.2,2.2s-2.2-1-2.2-2.2s1-2.2,2.2-2.2S534.8,146.6,534.8,147.8z"/>
	<path class="st1" d="M534.8,154.3c0,1.2-1,2.2-2.2,2.2s-2.2-1-2.2-2.2s1-2.2,2.2-2.2C533.8,152.2,534.8,153.1,534.8,154.3z"/>
	<path class="st1" d="M541.4,147.8c0,1.2-1,2.2-2.2,2.2s-2.2-1-2.2-2.2s1-2.2,2.2-2.2S541.4,146.6,541.4,147.8z"/>
	<path class="st1" d="M541.4,154.3c0,1.2-1,2.2-2.2,2.2s-2.2-1-2.2-2.2s1-2.2,2.2-2.2C540.4,152.2,541.4,153.1,541.4,154.3z"/>
	<path class="st1" d="M548,160.9c0,1.2-1,2.2-2.2,2.2s-2.2-1-2.2-2.2s1-2.2,2.2-2.2S548,159.7,548,160.9z"/>
	<path class="st1" d="M522.7,160.9c0,1.2-1,2.2-2.2,2.2s-2.2-1-2.2-2.2s1-2.2,2.2-2.2C521.8,158.7,522.7,159.7,522.7,160.9z"/>
	<path class="st1" d="M528.2,160.9c0,1.2-1,2.2-2.2,2.2s-2.2-1-2.2-2.2s1-2.2,2.2-2.2S528.2,159.7,528.2,160.9z"/>
	<path class="st1" d="M534.8,160.9c0,1.2-1,2.2-2.2,2.2s-2.2-1-2.2-2.2s1-2.2,2.2-2.2S534.8,159.7,534.8,160.9z"/>
	<path class="st1" d="M541.4,160.9c0,1.2-1,2.2-2.2,2.2s-2.2-1-2.2-2.2s1-2.2,2.2-2.2S541.4,159.7,541.4,160.9z"/>
	<path class="st1" d="M548,167.5c0,1.2-1,2.2-2.2,2.2s-2.2-1-2.2-2.2s1-2.2,2.2-2.2S548,166.3,548,167.5z"/>
	<path class="st1" d="M541.4,167.5c0,1.2-1,2.2-2.2,2.2s-2.2-1-2.2-2.2s1-2.2,2.2-2.2S541.4,166.3,541.4,167.5z"/>
	<path class="st1" d="M566.6,160.9c0,1.2-1,2.2-2.2,2.2s-2.2-1-2.2-2.2s1-2.2,2.2-2.2S566.6,159.7,566.6,160.9z"/>
	<path class="st1" d="M573.2,160.9c0,1.2-1,2.2-2.2,2.2s-2.2-1-2.2-2.2s1-2.2,2.2-2.2S573.2,159.7,573.2,160.9z"/>
	<path class="st1" d="M578.6,160.9c0,1.2-1,2.2-2.2,2.2s-2.2-1-2.2-2.2s1-2.2,2.2-2.2C577.7,158.7,578.6,159.7,578.6,160.9z"/>
	<path class="st1" d="M578.6,167.5c0,1.2-1,2.2-2.2,2.2s-2.2-1-2.2-2.2s1-2.2,2.2-2.2C577.7,165.3,578.6,166.3,578.6,167.5z"/>
	<path class="st1" d="M585.2,160.9c0,1.2-1,2.2-2.2,2.2s-2.2-1-2.2-2.2s1-2.2,2.2-2.2S585.2,159.7,585.2,160.9z"/>
	<path class="st1" d="M585.2,167.5c0,1.2-1,2.2-2.2,2.2s-2.2-1-2.2-2.2s1-2.2,2.2-2.2S585.2,166.3,585.2,167.5z"/>
	<path class="st1" d="M566.6,167.5c0,1.2-1,2.2-2.2,2.2s-2.2-1-2.2-2.2s1-2.2,2.2-2.2S566.6,166.3,566.6,167.5z"/>
	<path class="st1" d="M573.2,167.5c0,1.2-1,2.2-2.2,2.2s-2.2-1-2.2-2.2s1-2.2,2.2-2.2S573.2,166.3,573.2,167.5z"/>
	<path class="st1" d="M591.8,160.9c0,1.2-1,2.2-2.2,2.2s-2.2-1-2.2-2.2s1-2.2,2.2-2.2S591.8,159.7,591.8,160.9z"/>
	<path class="st1" d="M591.8,167.5c0,1.2-1,2.2-2.2,2.2s-2.2-1-2.2-2.2s1-2.2,2.2-2.2S591.8,166.3,591.8,167.5z"/>
	<path class="st1" d="M598.4,173c0,1.2-1,2.2-2.2,2.2s-2.2-1-2.2-2.2s1-2.2,2.2-2.2S598.4,171.8,598.4,173z"/>
	<path class="st1" d="M598.4,179.6c0,1.2-1,2.2-2.2,2.2s-2.2-1-2.2-2.2s1-2.2,2.2-2.2C597.4,177.4,598.4,178.3,598.4,179.6z"/>
	<path class="st1" d="M603.9,173c0,1.2-1,2.2-2.2,2.2s-2.2-1-2.2-2.2s1-2.2,2.2-2.2S603.9,171.8,603.9,173z"/>
	<path class="st1" d="M603.9,179.6c0,1.2-1,2.2-2.2,2.2s-2.2-1-2.2-2.2s1-2.2,2.2-2.2C602.9,177.4,603.9,178.3,603.9,179.6z"/>
	<path class="st1" d="M610.4,173c0,1.2-1,2.2-2.2,2.2s-2.2-1-2.2-2.2s1-2.2,2.2-2.2S610.4,171.8,610.4,173z"/>
	<path class="st1" d="M610.4,179.6c0,1.2-1,2.2-2.2,2.2s-2.2-1-2.2-2.2s1-2.2,2.2-2.2S610.4,178.3,610.4,179.6z"/>
	<path class="st1" d="M617,173c0,1.2-1,2.2-2.2,2.2s-2.2-1-2.2-2.2s1-2.2,2.2-2.2S617,171.8,617,173z"/>
	<path class="st1" d="M617,179.6c0,1.2-1,2.2-2.2,2.2s-2.2-1-2.2-2.2s1-2.2,2.2-2.2C616,177.4,617,178.3,617,179.6z"/>
	<path class="st1" d="M623.6,173c0,1.2-1,2.2-2.2,2.2s-2.2-1-2.2-2.2s1-2.2,2.2-2.2S623.6,171.8,623.6,173z"/>
	<path class="st1" d="M623.6,179.6c0,1.2-1,2.2-2.2,2.2s-2.2-1-2.2-2.2s1-2.2,2.2-2.2C622.6,177.4,623.6,178.3,623.6,179.6z"/>
	<path class="st1" d="M598.4,186.1c0,1.2-1,2.2-2.2,2.2s-2.2-1-2.2-2.2s1-2.2,2.2-2.2C597.4,183.9,598.4,184.9,598.4,186.1z"/>
	<path class="st1" d="M598.4,192.7c0,1.2-1,2.2-2.2,2.2s-2.2-1-2.2-2.2s1-2.2,2.2-2.2S598.4,191.5,598.4,192.7z"/>
	<path class="st1" d="M603.9,186.1c0,1.2-1,2.2-2.2,2.2s-2.2-1-2.2-2.2s1-2.2,2.2-2.2C602.9,183.9,603.9,184.9,603.9,186.1z"/>
	<path class="st1" d="M603.9,192.7c0,1.2-1,2.2-2.2,2.2s-2.2-1-2.2-2.2s1-2.2,2.2-2.2S603.9,191.5,603.9,192.7z"/>
	<path class="st1" d="M610.4,186.1c0,1.2-1,2.2-2.2,2.2s-2.2-1-2.2-2.2s1-2.2,2.2-2.2S610.4,184.9,610.4,186.1z"/>
	<path class="st1" d="M610.4,192.7c0,1.2-1,2.2-2.2,2.2s-2.2-1-2.2-2.2s1-2.2,2.2-2.2S610.4,191.5,610.4,192.7z"/>
	<path class="st1" d="M617,186.1c0,1.2-1,2.2-2.2,2.2s-2.2-1-2.2-2.2s1-2.2,2.2-2.2C616,183.9,617,184.9,617,186.1z"/>
	<path class="st1" d="M578.6,179.6c0,1.2-1,2.2-2.2,2.2s-2.2-1-2.2-2.2s1-2.2,2.2-2.2C577.7,177.4,578.6,178.3,578.6,179.6z"/>
	<path class="st1" d="M585.2,173c0,1.2-1,2.2-2.2,2.2s-2.2-1-2.2-2.2s1-2.2,2.2-2.2S585.2,171.8,585.2,173z"/>
	<path class="st1" d="M585.2,179.6c0,1.2-1,2.2-2.2,2.2s-2.2-1-2.2-2.2s1-2.2,2.2-2.2C584.2,177.4,585.2,178.3,585.2,179.6z"/>
	<path class="st1" d="M591.8,173c0,1.2-1,2.2-2.2,2.2s-2.2-1-2.2-2.2s1-2.2,2.2-2.2S591.8,171.8,591.8,173z"/>
	<path class="st1" d="M573.2,173c0,1.2-1,2.2-2.2,2.2s-2.2-1-2.2-2.2s1-2.2,2.2-2.2S573.2,171.8,573.2,173z"/>
	<path class="st1" d="M579.7,173c0,1.2-1,2.2-2.2,2.2s-2.2-1-2.2-2.2s1-2.2,2.2-2.2C578.8,170.8,579.7,171.8,579.7,173z"/>
	<path class="st1" d="M591.8,179.6c0,1.2-1,2.2-2.2,2.2s-2.2-1-2.2-2.2s1-2.2,2.2-2.2C590.8,177.4,591.8,178.3,591.8,179.6z"/>
	<path class="st1" d="M585.2,186.1c0,1.2-1,2.2-2.2,2.2s-2.2-1-2.2-2.2s1-2.2,2.2-2.2C584.2,183.9,585.2,184.9,585.2,186.1z"/>
	<path class="st1" d="M585.2,192.7c0,1.2-1,2.2-2.2,2.2s-2.2-1-2.2-2.2s1-2.2,2.2-2.2S585.2,191.5,585.2,192.7z"/>
	<path class="st1" d="M591.8,186.1c0,1.2-1,2.2-2.2,2.2s-2.2-1-2.2-2.2s1-2.2,2.2-2.2C590.8,183.9,591.8,184.9,591.8,186.1z"/>
	<path class="st1" d="M591.8,192.7c0,1.2-1,2.2-2.2,2.2s-2.2-1-2.2-2.2s1-2.2,2.2-2.2S591.8,191.5,591.8,192.7z"/>
	<path class="st1" d="M629.1,122.6c0,1.2-1,2.2-2.2,2.2s-2.2-1-2.2-2.2s1-2.2,2.2-2.2S629.1,121.4,629.1,122.6z"/>
	<path class="st1" d="M629.1,129.1c0,1.2-1,2.2-2.2,2.2s-2.2-1-2.2-2.2s1-2.2,2.2-2.2S629.1,127.9,629.1,129.1z"/>
	<path class="st1" d="M635.7,122.6c0,1.2-1,2.2-2.2,2.2s-2.2-1-2.2-2.2s1-2.2,2.2-2.2S635.7,121.4,635.7,122.6z"/>
	<path class="st1" d="M635.7,129.1c0,1.2-1,2.2-2.2,2.2s-2.2-1-2.2-2.2s1-2.2,2.2-2.2C634.7,127,635.7,127.9,635.7,129.1z"/>
	<path class="st1" d="M642.2,122.6c0,1.2-1,2.2-2.2,2.2s-2.2-1-2.2-2.2s1-2.2,2.2-2.2S642.2,121.4,642.2,122.6z"/>
	<path class="st1" d="M642.2,129.1c0,1.2-1,2.2-2.2,2.2s-2.2-1-2.2-2.2s1-2.2,2.2-2.2C641.2,127,642.2,127.9,642.2,129.1z"/>
	<path class="st1" d="M648.8,122.6c0,1.2-1,2.2-2.2,2.2s-2.2-1-2.2-2.2s1-2.2,2.2-2.2S648.8,121.4,648.8,122.6z"/>
	<path class="st1" d="M648.8,129.1c0,1.2-1,2.2-2.2,2.2s-2.2-1-2.2-2.2s1-2.2,2.2-2.2C647.8,127,648.8,127.9,648.8,129.1z"/>
	<path class="st1" d="M629.1,135.7c0,1.2-1,2.2-2.2,2.2s-2.2-1-2.2-2.2s1-2.2,2.2-2.2S629.1,134.5,629.1,135.7z"/>
	<path class="st1" d="M629.1,142.3c0,1.2-1,2.2-2.2,2.2s-2.2-1-2.2-2.2s1-2.2,2.2-2.2S629.1,141.1,629.1,142.3z"/>
	<path class="st1" d="M635.7,135.7c0,1.2-1,2.2-2.2,2.2s-2.2-1-2.2-2.2s1-2.2,2.2-2.2S635.7,134.5,635.7,135.7z"/>
	<path class="st1" d="M635.7,142.3c0,1.2-1,2.2-2.2,2.2s-2.2-1-2.2-2.2s1-2.2,2.2-2.2S635.7,141.1,635.7,142.3z"/>
	<path class="st1" d="M642.2,135.7c0,1.2-1,2.2-2.2,2.2s-2.2-1-2.2-2.2s1-2.2,2.2-2.2S642.2,134.5,642.2,135.7z"/>
	<path class="st1" d="M642.2,142.3c0,1.2-1,2.2-2.2,2.2s-2.2-1-2.2-2.2s1-2.2,2.2-2.2S642.2,141.1,642.2,142.3z"/>
	<path class="st1" d="M648.8,135.7c0,1.2-1,2.2-2.2,2.2s-2.2-1-2.2-2.2s1-2.2,2.2-2.2S648.8,134.5,648.8,135.7z"/>
	<path class="st1" d="M648.8,142.3c0,1.2-1,2.2-2.2,2.2s-2.2-1-2.2-2.2s1-2.2,2.2-2.2S648.8,141.1,648.8,142.3z"/>
	<path class="st1" d="M629.1,147.8c0,1.2-1,2.2-2.2,2.2s-2.2-1-2.2-2.2s1-2.2,2.2-2.2S629.1,146.6,629.1,147.8z"/>
	<path class="st1" d="M629.1,154.3c0,1.2-1,2.2-2.2,2.2s-2.2-1-2.2-2.2s1-2.2,2.2-2.2S629.1,153.1,629.1,154.3z"/>
	<path class="st1" d="M635.7,147.8c0,1.2-1,2.2-2.2,2.2s-2.2-1-2.2-2.2s1-2.2,2.2-2.2S635.7,146.6,635.7,147.8z"/>
	<path class="st1" d="M635.7,154.3c0,1.2-1,2.2-2.2,2.2s-2.2-1-2.2-2.2s1-2.2,2.2-2.2C634.7,152.2,635.7,153.1,635.7,154.3z"/>
	<path class="st1" d="M642.2,147.8c0,1.2-1,2.2-2.2,2.2s-2.2-1-2.2-2.2s1-2.2,2.2-2.2S642.2,146.6,642.2,147.8z"/>
	<path class="st1" d="M642.2,154.3c0,1.2-1,2.2-2.2,2.2s-2.2-1-2.2-2.2s1-2.2,2.2-2.2C641.2,152.2,642.2,153.1,642.2,154.3z"/>
	<path class="st1" d="M648.8,147.8c0,1.2-1,2.2-2.2,2.2s-2.2-1-2.2-2.2s1-2.2,2.2-2.2S648.8,146.6,648.8,147.8z"/>
	<path class="st1" d="M648.8,154.3c0,1.2-1,2.2-2.2,2.2s-2.2-1-2.2-2.2s1-2.2,2.2-2.2C647.8,152.2,648.8,153.1,648.8,154.3z"/>
	<path class="st1" d="M629.1,160.9c0,1.2-1,2.2-2.2,2.2s-2.2-1-2.2-2.2s1-2.2,2.2-2.2S629.1,159.7,629.1,160.9z"/>
	<path class="st1" d="M629.1,167.5c0,1.2-1,2.2-2.2,2.2s-2.2-1-2.2-2.2s1-2.2,2.2-2.2S629.1,166.3,629.1,167.5z"/>
	<path class="st1" d="M635.7,160.9c0,1.2-1,2.2-2.2,2.2s-2.2-1-2.2-2.2s1-2.2,2.2-2.2S635.7,159.7,635.7,160.9z"/>
	<path class="st1" d="M635.7,167.5c0,1.2-1,2.2-2.2,2.2s-2.2-1-2.2-2.2s1-2.2,2.2-2.2S635.7,166.3,635.7,167.5z"/>
	<path class="st1" d="M642.2,160.9c0,1.2-1,2.2-2.2,2.2s-2.2-1-2.2-2.2s1-2.2,2.2-2.2S642.2,159.7,642.2,160.9z"/>
	<path class="st1" d="M642.2,167.5c0,1.2-1,2.2-2.2,2.2s-2.2-1-2.2-2.2s1-2.2,2.2-2.2S642.2,166.3,642.2,167.5z"/>
	<path class="st1" d="M648.8,160.9c0,1.2-1,2.2-2.2,2.2s-2.2-1-2.2-2.2s1-2.2,2.2-2.2S648.8,159.7,648.8,160.9z"/>
	<path class="st1" d="M648.8,167.5c0,1.2-1,2.2-2.2,2.2s-2.2-1-2.2-2.2s1-2.2,2.2-2.2S648.8,166.3,648.8,167.5z"/>
	<path class="st1" d="M629.1,173c0,1.2-1,2.2-2.2,2.2s-2.2-1-2.2-2.2s1-2.2,2.2-2.2S629.1,171.8,629.1,173z"/>
	<path class="st1" d="M635.7,173c0,1.2-1,2.2-2.2,2.2s-2.2-1-2.2-2.2s1-2.2,2.2-2.2S635.7,171.8,635.7,173z"/>
	<path class="st1" d="M642.2,173c0,1.2-1,2.2-2.2,2.2s-2.2-1-2.2-2.2s1-2.2,2.2-2.2S642.2,171.8,642.2,173z"/>
	<path class="st1" d="M642.2,179.6c0,1.2-1,2.2-2.2,2.2s-2.2-1-2.2-2.2s1-2.2,2.2-2.2C641.2,177.4,642.2,178.3,642.2,179.6z"/>
	<path class="st1" d="M648.8,173c0,1.2-1,2.2-2.2,2.2s-2.2-1-2.2-2.2s1-2.2,2.2-2.2S648.8,171.8,648.8,173z"/>
	<path class="st1" d="M648.8,179.6c0,1.2-1,2.2-2.2,2.2s-2.2-1-2.2-2.2s1-2.2,2.2-2.2C647.8,177.4,648.8,178.3,648.8,179.6z"/>
	<path class="st1" d="M648.8,186.1c0,1.2-1,2.2-2.2,2.2s-2.2-1-2.2-2.2s1-2.2,2.2-2.2C647.8,183.9,648.8,184.9,648.8,186.1z"/>
	<path class="st1" d="M648.8,192.7c0,1.2-1,2.2-2.2,2.2s-2.2-1-2.2-2.2s1-2.2,2.2-2.2S648.8,191.5,648.8,192.7z"/>
	<path class="st1" d="M516.2,174.1c0,1.2-1,2.2-2.2,2.2s-2.2-1-2.2-2.2s1-2.2,2.2-2.2C515.2,171.9,516.2,172.9,516.2,174.1z"/>
	<path class="st1" d="M516.2,179.6c0,1.2-1,2.2-2.2,2.2s-2.2-1-2.2-2.2s1-2.2,2.2-2.2C515.2,177.4,516.2,178.3,516.2,179.6z"/>
	<path class="st1" d="M516.2,186.1c0,1.2-1,2.2-2.2,2.2s-2.2-1-2.2-2.2s1-2.2,2.2-2.2C515.2,183.9,516.2,184.9,516.2,186.1z"/>
	<path class="st1" d="M516.2,192.7c0,1.2-1,2.2-2.2,2.2s-2.2-1-2.2-2.2s1-2.2,2.2-2.2S516.2,191.5,516.2,192.7z"/>
	<path class="st1" d="M516.2,198.2c0,1.2-1,2.2-2.2,2.2s-2.2-1-2.2-2.2s1-2.2,2.2-2.2S516.2,197,516.2,198.2z"/>
	<path class="st1" d="M516.2,167.5c0,1.2-1,2.2-2.2,2.2s-2.2-1-2.2-2.2s1-2.2,2.2-2.2S516.2,166.3,516.2,167.5z"/>
	<path class="st1" d="M654.3,129.1c0,1.2-1,2.2-2.2,2.2s-2.2-1-2.2-2.2s1-2.2,2.2-2.2C653.3,127,654.3,127.9,654.3,129.1z"/>
	<path class="st1" d="M660.9,129.1c0,1.2-1,2.2-2.2,2.2s-2.2-1-2.2-2.2s1-2.2,2.2-2.2C659.9,127,660.9,127.9,660.9,129.1z"/>
	<path class="st1" d="M667.4,129.1c0,1.2-1,2.2-2.2,2.2s-2.2-1-2.2-2.2s1-2.2,2.2-2.2C666.5,127,667.4,127.9,667.4,129.1z"/>
	<path class="st1" d="M654.3,122.6c0,1.2-1,2.2-2.2,2.2s-2.2-1-2.2-2.2s1-2.2,2.2-2.2S654.3,121.4,654.3,122.6z"/>
	<path class="st1" d="M660.9,122.6c0,1.2-1,2.2-2.2,2.2s-2.2-1-2.2-2.2s1-2.2,2.2-2.2S660.9,121.4,660.9,122.6z"/>
	<path class="st1" d="M667.4,122.6c0,1.2-1,2.2-2.2,2.2s-2.2-1-2.2-2.2s1-2.2,2.2-2.2C666.5,120.4,667.4,121.4,667.4,122.6z"/>
	<path class="st1" d="M680.6,129.1c0,1.2-1,2.2-2.2,2.2s-2.2-1-2.2-2.2s1-2.2,2.2-2.2C679.6,127,680.6,127.9,680.6,129.1z"/>
	<path class="st1" d="M686.1,129.1c0,1.2-1,2.2-2.2,2.2s-2.2-1-2.2-2.2s1-2.2,2.2-2.2C685.1,127,686.1,127.9,686.1,129.1z"/>
	<path class="st1" d="M692.7,129.1c0,1.2-1,2.2-2.2,2.2s-2.2-1-2.2-2.2s1-2.2,2.2-2.2C691.7,127,692.7,127.9,692.7,129.1z"/>
	<path class="st1" d="M699.2,129.1c0,1.2-1,2.2-2.2,2.2s-2.2-1-2.2-2.2s1-2.2,2.2-2.2C698.3,127,699.2,127.9,699.2,129.1z"/>
	<path class="st1" d="M705.8,129.1c0,1.2-1,2.2-2.2,2.2s-2.2-1-2.2-2.2s1-2.2,2.2-2.2C704.8,127,705.8,127.9,705.8,129.1z"/>
	<path class="st1" d="M717.9,129.1c0,1.2-1,2.2-2.2,2.2s-2.2-1-2.2-2.2s1-2.2,2.2-2.2C716.9,127,717.9,127.9,717.9,129.1z"/>
	<path class="st1" d="M724.4,129.1c0,1.2-1,2.2-2.2,2.2s-2.2-1-2.2-2.2s1-2.2,2.2-2.2C723.5,127,724.4,127.9,724.4,129.1z"/>
	<path class="st1" d="M724.4,135.7c0,1.2-1,2.2-2.2,2.2s-2.2-1-2.2-2.2s1-2.2,2.2-2.2C723.5,133.5,724.4,134.5,724.4,135.7z"/>
	<path class="st1" d="M731,135.7c0,1.2-1,2.2-2.2,2.2s-2.2-1-2.2-2.2s1-2.2,2.2-2.2S731,134.5,731,135.7z"/>
	<path class="st1" d="M756.2,110.5c0,1.2-1,2.2-2.2,2.2s-2.2-1-2.2-2.2s1-2.2,2.2-2.2C755.3,108.3,756.2,109.3,756.2,110.5z"/>
	<path class="st1" d="M756.2,122.6c0,1.2-1,2.2-2.2,2.2s-2.2-1-2.2-2.2s1-2.2,2.2-2.2C755.3,120.4,756.2,121.4,756.2,122.6z"/>
	<path class="st1" d="M749.7,110.5c0,1.2-1,2.2-2.2,2.2s-2.2-1-2.2-2.2s1-2.2,2.2-2.2S749.7,109.3,749.7,110.5z"/>
	<path class="st1" d="M756.2,129.1c0,1.2-1,2.2-2.2,2.2s-2.2-1-2.2-2.2s1-2.2,2.2-2.2C755.3,127,756.2,127.9,756.2,129.1z"/>
	<path class="st1" d="M756.2,135.7c0,1.2-1,2.2-2.2,2.2s-2.2-1-2.2-2.2s1-2.2,2.2-2.2C755.3,133.5,756.2,134.5,756.2,135.7z"/>
	<path class="st1" d="M749.7,135.7c0,1.2-1,2.2-2.2,2.2s-2.2-1-2.2-2.2s1-2.2,2.2-2.2S749.7,134.5,749.7,135.7z"/>
	<path class="st1" d="M743.1,135.7c0,1.2-1,2.2-2.2,2.2s-2.2-1-2.2-2.2s1-2.2,2.2-2.2S743.1,134.5,743.1,135.7z"/>
	<path class="st1" d="M680.6,122.6c0,1.2-1,2.2-2.2,2.2s-2.2-1-2.2-2.2s1-2.2,2.2-2.2S680.6,121.4,680.6,122.6z"/>
	<path class="st1" d="M686.1,122.6c0,1.2-1,2.2-2.2,2.2s-2.2-1-2.2-2.2s1-2.2,2.2-2.2S686.1,121.4,686.1,122.6z"/>
	<path class="st1" d="M674,129.1c0,1.2-1,2.2-2.2,2.2s-2.2-1-2.2-2.2s1-2.2,2.2-2.2C673,127,674,127.9,674,129.1z"/>
	<path class="st1" d="M674,122.6c0,1.2-1,2.2-2.2,2.2s-2.2-1-2.2-2.2s1-2.2,2.2-2.2S674,121.4,674,122.6z"/>
	<path class="st1" d="M692.7,122.6c0,1.2-1,2.2-2.2,2.2s-2.2-1-2.2-2.2s1-2.2,2.2-2.2S692.7,121.4,692.7,122.6z"/>
	<path class="st1" d="M699.2,122.6c0,1.2-1,2.2-2.2,2.2s-2.2-1-2.2-2.2s1-2.2,2.2-2.2C698.3,120.4,699.2,121.4,699.2,122.6z"/>
	<path class="st1" d="M705.8,122.6c0,1.2-1,2.2-2.2,2.2s-2.2-1-2.2-2.2s1-2.2,2.2-2.2S705.8,121.4,705.8,122.6z"/>
	<path class="st1" d="M654.3,142.3c0,1.2-1,2.2-2.2,2.2s-2.2-1-2.2-2.2s1-2.2,2.2-2.2S654.3,141.1,654.3,142.3z"/>
	<path class="st1" d="M660.9,142.3c0,1.2-1,2.2-2.2,2.2s-2.2-1-2.2-2.2s1-2.2,2.2-2.2S660.9,141.1,660.9,142.3z"/>
	<path class="st1" d="M667.4,142.3c0,1.2-1,2.2-2.2,2.2s-2.2-1-2.2-2.2s1-2.2,2.2-2.2C666.5,140.1,667.4,141.1,667.4,142.3z"/>
	<path class="st1" d="M654.3,135.7c0,1.2-1,2.2-2.2,2.2s-2.2-1-2.2-2.2s1-2.2,2.2-2.2S654.3,134.5,654.3,135.7z"/>
	<path class="st1" d="M660.9,135.7c0,1.2-1,2.2-2.2,2.2s-2.2-1-2.2-2.2s1-2.2,2.2-2.2S660.9,134.5,660.9,135.7z"/>
	<path class="st1" d="M667.4,135.7c0,1.2-1,2.2-2.2,2.2s-2.2-1-2.2-2.2s1-2.2,2.2-2.2C666.5,133.5,667.4,134.5,667.4,135.7z"/>
	<path class="st1" d="M680.6,142.3c0,1.2-1,2.2-2.2,2.2s-2.2-1-2.2-2.2s1-2.2,2.2-2.2S680.6,141.1,680.6,142.3z"/>
	<path class="st1" d="M686.1,142.3c0,1.2-1,2.2-2.2,2.2s-2.2-1-2.2-2.2s1-2.2,2.2-2.2S686.1,141.1,686.1,142.3z"/>
	<path class="st1" d="M692.7,142.3c0,1.2-1,2.2-2.2,2.2s-2.2-1-2.2-2.2s1-2.2,2.2-2.2S692.7,141.1,692.7,142.3z"/>
	<path class="st1" d="M699.2,142.3c0,1.2-1,2.2-2.2,2.2s-2.2-1-2.2-2.2s1-2.2,2.2-2.2C698.3,140.1,699.2,141.1,699.2,142.3z"/>
	<path class="st1" d="M705.8,142.3c0,1.2-1,2.2-2.2,2.2s-2.2-1-2.2-2.2s1-2.2,2.2-2.2S705.8,141.1,705.8,142.3z"/>
	<path class="st1" d="M680.6,135.7c0,1.2-1,2.2-2.2,2.2s-2.2-1-2.2-2.2s1-2.2,2.2-2.2S680.6,134.5,680.6,135.7z"/>
	<path class="st1" d="M686.1,135.7c0,1.2-1,2.2-2.2,2.2s-2.2-1-2.2-2.2s1-2.2,2.2-2.2S686.1,134.5,686.1,135.7z"/>
	<path class="st1" d="M674,142.3c0,1.2-1,2.2-2.2,2.2s-2.2-1-2.2-2.2s1-2.2,2.2-2.2S674,141.1,674,142.3z"/>
	<path class="st1" d="M674,135.7c0,1.2-1,2.2-2.2,2.2s-2.2-1-2.2-2.2s1-2.2,2.2-2.2S674,134.5,674,135.7z"/>
	<path class="st1" d="M692.7,135.7c0,1.2-1,2.2-2.2,2.2s-2.2-1-2.2-2.2s1-2.2,2.2-2.2S692.7,134.5,692.7,135.7z"/>
	<path class="st1" d="M699.2,135.7c0,1.2-1,2.2-2.2,2.2s-2.2-1-2.2-2.2s1-2.2,2.2-2.2C698.3,133.5,699.2,134.5,699.2,135.7z"/>
	<path class="st1" d="M705.8,135.7c0,1.2-1,2.2-2.2,2.2s-2.2-1-2.2-2.2s1-2.2,2.2-2.2S705.8,134.5,705.8,135.7z"/>
	<path class="st1" d="M654.3,154.4c0,1.2-1,2.2-2.2,2.2s-2.2-1-2.2-2.2s1-2.2,2.2-2.2S654.3,153.1,654.3,154.4z"/>
	<path class="st1" d="M660.9,154.4c0,1.2-1,2.2-2.2,2.2s-2.2-1-2.2-2.2s1-2.2,2.2-2.2S660.9,153.1,660.9,154.4z"/>
	<path class="st1" d="M667.4,154.4c0,1.2-1,2.2-2.2,2.2s-2.2-1-2.2-2.2s1-2.2,2.2-2.2C666.5,152.2,667.4,153.1,667.4,154.4z"/>
	<path class="st1" d="M654.3,148.9c0,1.2-1,2.2-2.2,2.2s-2.2-1-2.2-2.2s1-2.2,2.2-2.2S654.3,147.7,654.3,148.9z"/>
	<path class="st1" d="M660.9,148.9c0,1.2-1,2.2-2.2,2.2s-2.2-1-2.2-2.2s1-2.2,2.2-2.2S660.9,147.7,660.9,148.9z"/>
	<path class="st1" d="M667.4,148.9c0,1.2-1,2.2-2.2,2.2s-2.2-1-2.2-2.2s1-2.2,2.2-2.2C666.5,146.7,667.4,147.7,667.4,148.9z"/>
	<path class="st1" d="M680.6,154.4c0,1.2-1,2.2-2.2,2.2s-2.2-1-2.2-2.2s1-2.2,2.2-2.2S680.6,153.1,680.6,154.4z"/>
	<path class="st1" d="M686.1,154.4c0,1.2-1,2.2-2.2,2.2s-2.2-1-2.2-2.2s1-2.2,2.2-2.2S686.1,153.1,686.1,154.4z"/>
	<path class="st1" d="M692.7,154.4c0,1.2-1,2.2-2.2,2.2s-2.2-1-2.2-2.2s1-2.2,2.2-2.2S692.7,153.1,692.7,154.4z"/>
	<path class="st1" d="M699.2,154.4c0,1.2-1,2.2-2.2,2.2s-2.2-1-2.2-2.2s1-2.2,2.2-2.2C698.3,152.2,699.2,153.1,699.2,154.4z"/>
	<path class="st1" d="M705.8,154.4c0,1.2-1,2.2-2.2,2.2s-2.2-1-2.2-2.2s1-2.2,2.2-2.2S705.8,153.1,705.8,154.4z"/>
	<path class="st1" d="M680.6,148.9c0,1.2-1,2.2-2.2,2.2s-2.2-1-2.2-2.2s1-2.2,2.2-2.2S680.6,147.7,680.6,148.9z"/>
	<path class="st1" d="M686.1,148.9c0,1.2-1,2.2-2.2,2.2s-2.2-1-2.2-2.2s1-2.2,2.2-2.2S686.1,147.7,686.1,148.9z"/>
	<path class="st1" d="M674,154.4c0,1.2-1,2.2-2.2,2.2s-2.2-1-2.2-2.2s1-2.2,2.2-2.2S674,153.1,674,154.4z"/>
	<path class="st1" d="M674,148.9c0,1.2-1,2.2-2.2,2.2s-2.2-1-2.2-2.2s1-2.2,2.2-2.2S674,147.7,674,148.9z"/>
	<path class="st1" d="M692.7,148.9c0,1.2-1,2.2-2.2,2.2s-2.2-1-2.2-2.2s1-2.2,2.2-2.2S692.7,147.7,692.7,148.9z"/>
	<path class="st1" d="M699.2,148.9c0,1.2-1,2.2-2.2,2.2s-2.2-1-2.2-2.2s1-2.2,2.2-2.2C698.3,146.7,699.2,147.7,699.2,148.9z"/>
	<path class="st1" d="M705.8,148.9c0,1.2-1,2.2-2.2,2.2s-2.2-1-2.2-2.2s1-2.2,2.2-2.2S705.8,147.7,705.8,148.9z"/>
	<path class="st1" d="M654.3,167.5c0,1.2-1,2.2-2.2,2.2s-2.2-1-2.2-2.2s1-2.2,2.2-2.2S654.3,166.3,654.3,167.5z"/>
	<path class="st1" d="M660.9,167.5c0,1.2-1,2.2-2.2,2.2s-2.2-1-2.2-2.2s1-2.2,2.2-2.2S660.9,166.3,660.9,167.5z"/>
	<path class="st1" d="M667.4,167.5c0,1.2-1,2.2-2.2,2.2s-2.2-1-2.2-2.2s1-2.2,2.2-2.2C666.5,165.3,667.4,166.3,667.4,167.5z"/>
	<path class="st1" d="M654.3,160.9c0,1.2-1,2.2-2.2,2.2s-2.2-1-2.2-2.2s1-2.2,2.2-2.2S654.3,159.7,654.3,160.9z"/>
	<path class="st1" d="M660.9,160.9c0,1.2-1,2.2-2.2,2.2s-2.2-1-2.2-2.2s1-2.2,2.2-2.2S660.9,159.7,660.9,160.9z"/>
	<path class="st1" d="M667.4,160.9c0,1.2-1,2.2-2.2,2.2s-2.2-1-2.2-2.2s1-2.2,2.2-2.2C666.5,158.7,667.4,159.7,667.4,160.9z"/>
	<path class="st1" d="M680.6,167.5c0,1.2-1,2.2-2.2,2.2s-2.2-1-2.2-2.2s1-2.2,2.2-2.2S680.6,166.3,680.6,167.5z"/>
	<path class="st1" d="M686.1,167.5c0,1.2-1,2.2-2.2,2.2s-2.2-1-2.2-2.2s1-2.2,2.2-2.2S686.1,166.3,686.1,167.5z"/>
	<path class="st1" d="M692.7,167.5c0,1.2-1,2.2-2.2,2.2s-2.2-1-2.2-2.2s1-2.2,2.2-2.2S692.7,166.3,692.7,167.5z"/>
	<path class="st1" d="M699.2,167.5c0,1.2-1,2.2-2.2,2.2s-2.2-1-2.2-2.2s1-2.2,2.2-2.2C698.3,165.3,699.2,166.3,699.2,167.5z"/>
	<path class="st1" d="M705.8,167.5c0,1.2-1,2.2-2.2,2.2s-2.2-1-2.2-2.2s1-2.2,2.2-2.2S705.8,166.3,705.8,167.5z"/>
	<path class="st1" d="M680.6,160.9c0,1.2-1,2.2-2.2,2.2s-2.2-1-2.2-2.2s1-2.2,2.2-2.2S680.6,159.7,680.6,160.9z"/>
	<path class="st1" d="M686.1,160.9c0,1.2-1,2.2-2.2,2.2s-2.2-1-2.2-2.2s1-2.2,2.2-2.2S686.1,159.7,686.1,160.9z"/>
	<path class="st1" d="M674,167.5c0,1.2-1,2.2-2.2,2.2s-2.2-1-2.2-2.2s1-2.2,2.2-2.2S674,166.3,674,167.5z"/>
	<path class="st1" d="M674,160.9c0,1.2-1,2.2-2.2,2.2s-2.2-1-2.2-2.2s1-2.2,2.2-2.2S674,159.7,674,160.9z"/>
	<path class="st1" d="M692.7,160.9c0,1.2-1,2.2-2.2,2.2s-2.2-1-2.2-2.2s1-2.2,2.2-2.2S692.7,159.7,692.7,160.9z"/>
	<path class="st1" d="M699.2,160.9c0,1.2-1,2.2-2.2,2.2s-2.2-1-2.2-2.2s1-2.2,2.2-2.2C698.3,158.7,699.2,159.7,699.2,160.9z"/>
	<path class="st1" d="M705.8,160.9c0,1.2-1,2.2-2.2,2.2s-2.2-1-2.2-2.2s1-2.2,2.2-2.2S705.8,159.7,705.8,160.9z"/>
	<path class="st1" d="M711.3,154.4c0,1.2-1,2.2-2.2,2.2s-2.2-1-2.2-2.2s1-2.2,2.2-2.2S711.3,153.1,711.3,154.4z"/>
	<path class="st1" d="M716.8,154.4c0,1.2-1,2.2-2.2,2.2s-2.2-1-2.2-2.2s1-2.2,2.2-2.2S716.8,153.1,716.8,154.4z"/>
	<path class="st1" d="M720.1,174.1c0,1.2-1,2.2-2.2,2.2s-2.2-1-2.2-2.2s1-2.2,2.2-2.2C719.1,171.9,720.1,172.9,720.1,174.1z"/>
	<path class="st1" d="M724.4,191.6c0,1.2-1,2.2-2.2,2.2s-2.2-1-2.2-2.2s1-2.2,2.2-2.2C723.5,189.4,724.4,190.4,724.4,191.6z"/>
	<path class="st1" d="M724.4,198.2c0,1.2-1,2.2-2.2,2.2s-2.2-1-2.2-2.2s1-2.2,2.2-2.2C723.5,196,724.4,197,724.4,198.2z"/>
	<path class="st1" d="M729.9,205.9c0,1.2-1,2.2-2.2,2.2s-2.2-1-2.2-2.2s1-2.2,2.2-2.2S729.9,204.6,729.9,205.9z"/>
	<path class="st1" d="M737.6,211.3c0,1.2-1,2.2-2.2,2.2s-2.2-1-2.2-2.2s1-2.2,2.2-2.2S737.6,210.1,737.6,211.3z"/>
	<path class="st1" d="M732.1,216.8c0,1.2-1,2.2-2.2,2.2s-2.2-1-2.2-2.2s1-2.2,2.2-2.2S732.1,215.6,732.1,216.8z"/>
	<path class="st1" d="M717.9,216.8c0,1.2-1,2.2-2.2,2.2s-2.2-1-2.2-2.2s1-2.2,2.2-2.2S717.9,215.6,717.9,216.8z"/>
	<path class="st1" d="M736.5,223.4c0,1.2-1,2.2-2.2,2.2s-2.2-1-2.2-2.2s1-2.2,2.2-2.2S736.5,222.2,736.5,223.4z"/>
	<path class="st1" d="M742,223.4c0,1.2-1,2.2-2.2,2.2s-2.2-1-2.2-2.2s1-2.2,2.2-2.2S742,222.2,742,223.4z"/>
	<path class="st1" d="M711.3,148.9c0,1.2-1,2.2-2.2,2.2s-2.2-1-2.2-2.2s1-2.2,2.2-2.2S711.3,147.7,711.3,148.9z"/>
	<path class="st1" d="M711.3,167.5c0,1.2-1,2.2-2.2,2.2s-2.2-1-2.2-2.2s1-2.2,2.2-2.2S711.3,166.3,711.3,167.5z"/>
	<path class="st1" d="M711.3,160.9c0,1.2-1,2.2-2.2,2.2s-2.2-1-2.2-2.2s1-2.2,2.2-2.2S711.3,159.7,711.3,160.9z"/>
	<path class="st1" d="M654.3,179.6c0,1.2-1,2.2-2.2,2.2s-2.2-1-2.2-2.2s1-2.2,2.2-2.2C653.3,177.4,654.3,178.3,654.3,179.6z"/>
	<path class="st1" d="M660.9,179.6c0,1.2-1,2.2-2.2,2.2s-2.2-1-2.2-2.2s1-2.2,2.2-2.2C659.9,177.4,660.9,178.3,660.9,179.6z"/>
	<path class="st1" d="M667.4,179.6c0,1.2-1,2.2-2.2,2.2s-2.2-1-2.2-2.2s1-2.2,2.2-2.2C666.5,177.4,667.4,178.3,667.4,179.6z"/>
	<path class="st1" d="M654.3,173c0,1.2-1,2.2-2.2,2.2s-2.2-1-2.2-2.2s1-2.2,2.2-2.2S654.3,171.8,654.3,173z"/>
	<path class="st1" d="M660.9,173c0,1.2-1,2.2-2.2,2.2s-2.2-1-2.2-2.2s1-2.2,2.2-2.2S660.9,171.8,660.9,173z"/>
	<path class="st1" d="M667.4,173c0,1.2-1,2.2-2.2,2.2s-2.2-1-2.2-2.2s1-2.2,2.2-2.2C666.5,170.8,667.4,171.8,667.4,173z"/>
	<path class="st1" d="M680.6,179.6c0,1.2-1,2.2-2.2,2.2s-2.2-1-2.2-2.2s1-2.2,2.2-2.2C679.6,177.4,680.6,178.3,680.6,179.6z"/>
	<path class="st1" d="M686.1,179.6c0,1.2-1,2.2-2.2,2.2s-2.2-1-2.2-2.2s1-2.2,2.2-2.2C685.1,177.4,686.1,178.3,686.1,179.6z"/>
	<path class="st1" d="M692.7,179.6c0,1.2-1,2.2-2.2,2.2s-2.2-1-2.2-2.2s1-2.2,2.2-2.2C691.7,177.4,692.7,178.3,692.7,179.6z"/>
	<path class="st1" d="M680.6,173c0,1.2-1,2.2-2.2,2.2s-2.2-1-2.2-2.2s1-2.2,2.2-2.2S680.6,171.8,680.6,173z"/>
	<path class="st1" d="M686.1,173c0,1.2-1,2.2-2.2,2.2s-2.2-1-2.2-2.2s1-2.2,2.2-2.2S686.1,171.8,686.1,173z"/>
	<path class="st1" d="M674,179.6c0,1.2-1,2.2-2.2,2.2s-2.2-1-2.2-2.2s1-2.2,2.2-2.2C673,177.4,674,178.3,674,179.6z"/>
	<path class="st1" d="M674,173c0,1.2-1,2.2-2.2,2.2s-2.2-1-2.2-2.2s1-2.2,2.2-2.2S674,171.8,674,173z"/>
	<path class="st1" d="M692.7,173c0,1.2-1,2.2-2.2,2.2s-2.2-1-2.2-2.2s1-2.2,2.2-2.2S692.7,171.8,692.7,173z"/>
	<path class="st1" d="M699.2,173c0,1.2-1,2.2-2.2,2.2s-2.2-1-2.2-2.2s1-2.2,2.2-2.2C698.3,170.8,699.2,171.8,699.2,173z"/>
	<path class="st1" d="M705.8,173c0,1.2-1,2.2-2.2,2.2s-2.2-1-2.2-2.2s1-2.2,2.2-2.2S705.8,171.8,705.8,173z"/>
	<path class="st1" d="M736.5,280.4c0,1.2-1,2.2-2.2,2.2s-2.2-1-2.2-2.2s1-2.2,2.2-2.2C735.5,278.2,736.5,279.2,736.5,280.4z"/>
	<path class="st1" d="M749.7,247.5c0,1.2-1,2.2-2.2,2.2s-2.2-1-2.2-2.2s1-2.2,2.2-2.2S749.7,246.3,749.7,247.5z"/>
	<path class="st1" d="M749.7,242c0,1.2-1,2.2-2.2,2.2s-2.2-1-2.2-2.2s1-2.2,2.2-2.2S749.7,240.8,749.7,242z"/>
	<path class="st1" d="M761.7,287c0,1.2-1,2.2-2.2,2.2s-2.2-1-2.2-2.2s1-2.2,2.2-2.2S761.7,285.8,761.7,287z"/>
	<path class="st1" d="M768.3,287c0,1.2-1,2.2-2.2,2.2s-2.2-1-2.2-2.2s1-2.2,2.2-2.2S768.3,285.8,768.3,287z"/>
	<path class="st1" d="M774.9,255.2c0,1.2-1,2.2-2.2,2.2s-2.2-1-2.2-2.2s1-2.2,2.2-2.2S774.9,254,774.9,255.2z"/>
	<path class="st1" d="M761.7,255.2c0,1.2-1,2.2-2.2,2.2s-2.2-1-2.2-2.2s1-2.2,2.2-2.2S761.7,254,761.7,255.2z"/>
	<path class="st1" d="M774.9,261.8c0,1.2-1,2.2-2.2,2.2s-2.2-1-2.2-2.2s1-2.2,2.2-2.2C773.9,259.6,774.9,260.5,774.9,261.8z"/>
	<path class="st1" d="M768.3,261.8c0,1.2-1,2.2-2.2,2.2s-2.2-1-2.2-2.2s1-2.2,2.2-2.2C767.3,259.6,768.3,260.5,768.3,261.8z"/>
	<path class="st1" d="M806.7,280.4c0,1.2-1,2.2-2.2,2.2s-2.2-1-2.2-2.2s1-2.2,2.2-2.2C805.7,278.2,806.7,279.2,806.7,280.4z"/>
	<path class="st1" d="M813.2,280.4c0,1.2-1,2.2-2.2,2.2s-2.2-1-2.2-2.2s1-2.2,2.2-2.2C812.3,278.2,813.2,279.2,813.2,280.4z"/>
	<path class="st1" d="M788,287c0,1.2-1,2.2-2.2,2.2s-2.2-1-2.2-2.2s1-2.2,2.2-2.2C787.1,284.8,788,285.8,788,287z"/>
	<path class="st1" d="M781.5,255.2c0,1.2-1,2.2-2.2,2.2s-2.2-1-2.2-2.2s1-2.2,2.2-2.2S781.5,254,781.5,255.2z"/>
	<path class="st1" d="M781.5,267.2c0,1.2-1,2.2-2.2,2.2s-2.2-1-2.2-2.2s1-2.2,2.2-2.2S781.5,266,781.5,267.2z"/>
	<path class="st1" d="M781.5,261.8c0,1.2-1,2.2-2.2,2.2s-2.2-1-2.2-2.2s1-2.2,2.2-2.2C780.5,259.6,781.5,260.5,781.5,261.8z"/>
	<path class="st1" d="M781.5,272.7c0,1.2-1,2.2-2.2,2.2s-2.2-1-2.2-2.2s1-2.2,2.2-2.2S781.5,271.5,781.5,272.7z"/>
	<path class="st1" d="M786.9,267.2c0,1.2-1,2.2-2.2,2.2s-2.2-1-2.2-2.2s1-2.2,2.2-2.2C786,265,786.9,266,786.9,267.2z"/>
	<path class="st1" d="M786.9,261.8c0,1.2-1,2.2-2.2,2.2s-2.2-1-2.2-2.2s1-2.2,2.2-2.2C786,259.6,786.9,260.5,786.9,261.8z"/>
	<path class="st1" d="M786.9,272.7c0,1.2-1,2.2-2.2,2.2s-2.2-1-2.2-2.2s1-2.2,2.2-2.2C786,270.5,786.9,271.5,786.9,272.7z"/>
	<path class="st1" d="M793.5,267.2c0,1.2-1,2.2-2.2,2.2s-2.2-1-2.2-2.2s1-2.2,2.2-2.2S793.5,266,793.5,267.2z"/>
	<path class="st1" d="M793.5,261.8c0,1.2-1,2.2-2.2,2.2s-2.2-1-2.2-2.2s1-2.2,2.2-2.2C792.5,259.6,793.5,260.5,793.5,261.8z"/>
	<path class="st1" d="M793.5,272.7c0,1.2-1,2.2-2.2,2.2s-2.2-1-2.2-2.2s1-2.2,2.2-2.2S793.5,271.5,793.5,272.7z"/>
	<path class="st1" d="M800.1,267.2c0,1.2-1,2.2-2.2,2.2s-2.2-1-2.2-2.2s1-2.2,2.2-2.2S800.1,266,800.1,267.2z"/>
	<path class="st1" d="M800.1,272.7c0,1.2-1,2.2-2.2,2.2s-2.2-1-2.2-2.2s1-2.2,2.2-2.2S800.1,271.5,800.1,272.7z"/>
	<path class="st1" d="M805.6,272.7c0,1.2-1,2.2-2.2,2.2s-2.2-1-2.2-2.2s1-2.2,2.2-2.2S805.6,271.5,805.6,272.7z"/>
	<path class="st1" d="M812.1,267.2c0,1.2-1,2.2-2.2,2.2s-2.2-1-2.2-2.2s1-2.2,2.2-2.2C811.2,265,812.1,266,812.1,267.2z"/>
	<path class="st1" d="M818.7,261.8c0,1.2-1,2.2-2.2,2.2s-2.2-1-2.2-2.2s1-2.2,2.2-2.2C817.7,259.6,818.7,260.5,818.7,261.8z"/>
	<path class="st1" d="M824.2,268.3c0,1.2-1,2.2-2.2,2.2s-2.2-1-2.2-2.2s1-2.2,2.2-2.2C823.2,266.1,824.2,267.1,824.2,268.3z"/>
	<path class="st1" d="M654.3,192.7c0,1.2-1,2.2-2.2,2.2s-2.2-1-2.2-2.2s1-2.2,2.2-2.2S654.3,191.5,654.3,192.7z"/>
	<path class="st1" d="M660.9,192.7c0,1.2-1,2.2-2.2,2.2s-2.2-1-2.2-2.2s1-2.2,2.2-2.2S660.9,191.5,660.9,192.7z"/>
	<path class="st1" d="M667.4,192.7c0,1.2-1,2.2-2.2,2.2s-2.2-1-2.2-2.2s1-2.2,2.2-2.2C666.5,190.5,667.4,191.5,667.4,192.7z"/>
	<path class="st1" d="M654.3,186.1c0,1.2-1,2.2-2.2,2.2s-2.2-1-2.2-2.2s1-2.2,2.2-2.2C653.3,183.9,654.3,184.9,654.3,186.1z"/>
	<path class="st1" d="M660.9,186.1c0,1.2-1,2.2-2.2,2.2s-2.2-1-2.2-2.2s1-2.2,2.2-2.2C659.9,183.9,660.9,184.9,660.9,186.1z"/>
	<path class="st1" d="M667.4,186.1c0,1.2-1,2.2-2.2,2.2s-2.2-1-2.2-2.2s1-2.2,2.2-2.2C666.5,183.9,667.4,184.9,667.4,186.1z"/>
	<path class="st1" d="M680.6,192.7c0,1.2-1,2.2-2.2,2.2s-2.2-1-2.2-2.2s1-2.2,2.2-2.2S680.6,191.5,680.6,192.7z"/>
	<path class="st1" d="M674,192.7c0,1.2-1,2.2-2.2,2.2s-2.2-1-2.2-2.2s1-2.2,2.2-2.2S674,191.5,674,192.7z"/>
	<path class="st1" d="M674,186.1c0,1.2-1,2.2-2.2,2.2s-2.2-1-2.2-2.2s1-2.2,2.2-2.2C673,183.9,674,184.9,674,186.1z"/>
	<path class="st1" d="M704.7,236.5c0,1.2-1,2.2-2.2,2.2s-2.2-1-2.2-2.2s1-2.2,2.2-2.2C703.7,234.4,704.7,235.3,704.7,236.5z"/>
	<path class="st1" d="M711.3,236.5c0,1.2-1,2.2-2.2,2.2s-2.2-1-2.2-2.2s1-2.2,2.2-2.2C710.3,234.4,711.3,235.3,711.3,236.5z"/>
	<path class="st1" d="M717.9,236.5c0,1.2-1,2.2-2.2,2.2s-2.2-1-2.2-2.2s1-2.2,2.2-2.2C716.9,234.4,717.9,235.3,717.9,236.5z"/>
	<path class="st1" d="M717.9,230c0,1.2-1,2.2-2.2,2.2s-2.2-1-2.2-2.2s1-2.2,2.2-2.2S717.9,228.8,717.9,230z"/>
	<path class="st1" d="M704.7,249.7c0,1.2-1,2.2-2.2,2.2s-2.2-1-2.2-2.2s1-2.2,2.2-2.2S704.7,248.5,704.7,249.7z"/>
	<path class="st1" d="M711.3,249.7c0,1.2-1,2.2-2.2,2.2s-2.2-1-2.2-2.2s1-2.2,2.2-2.2S711.3,248.5,711.3,249.7z"/>
	<path class="st1" d="M717.9,249.7c0,1.2-1,2.2-2.2,2.2s-2.2-1-2.2-2.2s1-2.2,2.2-2.2S717.9,248.5,717.9,249.7z"/>
	<path class="st1" d="M724.4,249.7c0,1.2-1,2.2-2.2,2.2s-2.2-1-2.2-2.2s1-2.2,2.2-2.2C723.5,247.5,724.4,248.5,724.4,249.7z"/>
	<path class="st1" d="M724.4,255.2c0,1.2-1,2.2-2.2,2.2s-2.2-1-2.2-2.2s1-2.2,2.2-2.2C723.5,253,724.4,254,724.4,255.2z"/>
	<path class="st1" d="M729.9,255.2c0,1.2-1,2.2-2.2,2.2s-2.2-1-2.2-2.2s1-2.2,2.2-2.2S729.9,254,729.9,255.2z"/>
	<path class="st1" d="M724.4,261.8c0,1.2-1,2.2-2.2,2.2s-2.2-1-2.2-2.2s1-2.2,2.2-2.2C723.5,259.6,724.4,260.5,724.4,261.8z"/>
	<path class="st1" d="M729.9,261.8c0,1.2-1,2.2-2.2,2.2s-2.2-1-2.2-2.2s1-2.2,2.2-2.2C728.9,259.6,729.9,260.5,729.9,261.8z"/>
	<path class="st1" d="M704.7,243.1c0,1.2-1,2.2-2.2,2.2s-2.2-1-2.2-2.2s1-2.2,2.2-2.2C703.7,240.9,704.7,241.9,704.7,243.1z"/>
	<path class="st1" d="M711.3,243.1c0,1.2-1,2.2-2.2,2.2s-2.2-1-2.2-2.2s1-2.2,2.2-2.2C710.3,240.9,711.3,241.9,711.3,243.1z"/>
	<path class="st1" d="M699.2,249.7c0,1.2-1,2.2-2.2,2.2s-2.2-1-2.2-2.2s1-2.2,2.2-2.2C698.3,247.5,699.2,248.5,699.2,249.7z"/>
	<path class="st1" d="M699.2,243.1c0,1.2-1,2.2-2.2,2.2s-2.2-1-2.2-2.2s1-2.2,2.2-2.2C698.3,240.9,699.2,241.9,699.2,243.1z"/>
	<path class="st1" d="M717.9,243.1c0,1.2-1,2.2-2.2,2.2s-2.2-1-2.2-2.2s1-2.2,2.2-2.2C716.9,240.9,717.9,241.9,717.9,243.1z"/>
	<path class="st1" d="M704.7,255.2c0,1.2-1,2.2-2.2,2.2s-2.2-1-2.2-2.2s1-2.2,2.2-2.2S704.7,254,704.7,255.2z"/>
	<path class="st1" d="M711.3,255.2c0,1.2-1,2.2-2.2,2.2s-2.2-1-2.2-2.2s1-2.2,2.2-2.2S711.3,254,711.3,255.2z"/>
	<path class="st1" d="M699.2,255.2c0,1.2-1,2.2-2.2,2.2s-2.2-1-2.2-2.2s1-2.2,2.2-2.2C698.3,253,699.2,254,699.2,255.2z"/>
	<path class="st1" d="M704.7,273.8c0,1.2-1,2.2-2.2,2.2s-2.2-1-2.2-2.2s1-2.2,2.2-2.2C703.7,271.6,704.7,272.6,704.7,273.8z"/>
	<path class="st1" d="M699.2,273.8c0,1.2-1,2.2-2.2,2.2s-2.2-1-2.2-2.2s1-2.2,2.2-2.2C698.3,271.6,699.2,272.6,699.2,273.8z"/>
	<path class="st1" d="M686.1,268.3c0,1.2-1,2.2-2.2,2.2s-2.2-1-2.2-2.2s1-2.2,2.2-2.2C685.1,266.1,686.1,267.1,686.1,268.3z"/>
	<path class="st1" d="M660.9,204.8c0,1.2-1,2.2-2.2,2.2s-2.2-1-2.2-2.2s1-2.2,2.2-2.2S660.9,203.6,660.9,204.8z"/>
	<path class="st1" d="M667.4,204.8c0,1.2-1,2.2-2.2,2.2s-2.2-1-2.2-2.2s1-2.2,2.2-2.2C666.5,202.6,667.4,203.6,667.4,204.8z"/>
	<path class="st1" d="M660.9,199.3c0,1.2-1,2.2-2.2,2.2s-2.2-1-2.2-2.2s1-2.2,2.2-2.2S660.9,198.1,660.9,199.3z"/>
	<path class="st1" d="M667.4,199.3c0,1.2-1,2.2-2.2,2.2s-2.2-1-2.2-2.2s1-2.2,2.2-2.2C666.5,197.1,667.4,198.1,667.4,199.3z"/>
	<path class="st1" d="M660.9,243.1c0,1.2-1,2.2-2.2,2.2s-2.2-1-2.2-2.2s1-2.2,2.2-2.2C659.9,240.9,660.9,241.9,660.9,243.1z"/>
	<path class="st1" d="M667.4,243.1c0,1.2-1,2.2-2.2,2.2s-2.2-1-2.2-2.2s1-2.2,2.2-2.2C666.5,240.9,667.4,241.9,667.4,243.1z"/>
	<path class="st1" d="M674,243.1c0,1.2-1,2.2-2.2,2.2s-2.2-1-2.2-2.2s1-2.2,2.2-2.2C673,240.9,674,241.9,674,243.1z"/>
	<path class="st1" d="M674,255.2c0,1.2-1,2.2-2.2,2.2s-2.2-1-2.2-2.2s1-2.2,2.2-2.2S674,254,674,255.2z"/>
	<path class="st1" d="M667.4,248.6c0,1.2-1,2.2-2.2,2.2s-2.2-1-2.2-2.2s1-2.2,2.2-2.2C666.5,246.4,667.4,247.4,667.4,248.6z"/>
	<path class="st1" d="M674,248.6c0,1.2-1,2.2-2.2,2.2s-2.2-1-2.2-2.2s1-2.2,2.2-2.2C673,246.4,674,247.4,674,248.6z"/>
	<path class="st1" d="M674,261.8c0,1.2-1,2.2-2.2,2.2s-2.2-1-2.2-2.2s1-2.2,2.2-2.2C673,259.6,674,260.5,674,261.8z"/>
	<path class="st1" d="M679.5,255.2c0,1.2-1,2.2-2.2,2.2s-2.2-1-2.2-2.2s1-2.2,2.2-2.2S679.5,254,679.5,255.2z"/>
	<path class="st1" d="M679.5,261.8c0,1.2-1,2.2-2.2,2.2s-2.2-1-2.2-2.2s1-2.2,2.2-2.2C678.5,259.6,679.5,260.5,679.5,261.8z"/>
	<path class="st1" d="M680.6,204.8c0,1.2-1,2.2-2.2,2.2s-2.2-1-2.2-2.2s1-2.2,2.2-2.2S680.6,203.6,680.6,204.8z"/>
	<path class="st1" d="M686.1,204.8c0,1.2-1,2.2-2.2,2.2s-2.2-1-2.2-2.2s1-2.2,2.2-2.2S686.1,203.6,686.1,204.8z"/>
	<path class="st1" d="M680.6,199.3c0,1.2-1,2.2-2.2,2.2s-2.2-1-2.2-2.2s1-2.2,2.2-2.2S680.6,198.1,680.6,199.3z"/>
	<path class="st1" d="M686.1,199.3c0,1.2-1,2.2-2.2,2.2s-2.2-1-2.2-2.2s1-2.2,2.2-2.2S686.1,198.1,686.1,199.3z"/>
	<path class="st1" d="M674,204.8c0,1.2-1,2.2-2.2,2.2s-2.2-1-2.2-2.2s1-2.2,2.2-2.2S674,203.6,674,204.8z"/>
	<path class="st1" d="M674,199.3c0,1.2-1,2.2-2.2,2.2s-2.2-1-2.2-2.2s1-2.2,2.2-2.2S674,198.1,674,199.3z"/>
	<path class="st1" d="M660.9,211.3c0,1.2-1,2.2-2.2,2.2s-2.2-1-2.2-2.2s1-2.2,2.2-2.2S660.9,210.1,660.9,211.3z"/>
	<path class="st1" d="M680.6,211.3c0,1.2-1,2.2-2.2,2.2s-2.2-1-2.2-2.2s1-2.2,2.2-2.2S680.6,210.1,680.6,211.3z"/>
	<path class="st1" d="M686.1,211.3c0,1.2-1,2.2-2.2,2.2s-2.2-1-2.2-2.2s1-2.2,2.2-2.2S686.1,210.1,686.1,211.3z"/>
	<path class="st1" d="M692.7,211.3c0,1.2-1,2.2-2.2,2.2s-2.2-1-2.2-2.2s1-2.2,2.2-2.2S692.7,210.1,692.7,211.3z"/>
	<path class="st1" d="M674,211.3c0,1.2-1,2.2-2.2,2.2s-2.2-1-2.2-2.2s1-2.2,2.2-2.2S674,210.1,674,211.3z"/>
	<path class="st1" d="M667.4,224.5c0,1.2-1,2.2-2.2,2.2s-2.2-1-2.2-2.2s1-2.2,2.2-2.2C666.5,222.3,667.4,223.3,667.4,224.5z"/>
	<path class="st1" d="M660.9,217.9c0,1.2-1,2.2-2.2,2.2s-2.2-1-2.2-2.2s1-2.2,2.2-2.2S660.9,216.7,660.9,217.9z"/>
	<path class="st1" d="M660.9,236.5c0,1.2-1,2.2-2.2,2.2s-2.2-1-2.2-2.2s1-2.2,2.2-2.2C659.9,234.4,660.9,235.3,660.9,236.5z"/>
	<path class="st1" d="M667.4,231.1c0,1.2-1,2.2-2.2,2.2s-2.2-1-2.2-2.2s1-2.2,2.2-2.2C666.5,228.9,667.4,229.9,667.4,231.1z"/>
	<path class="st1" d="M680.6,217.9c0,1.2-1,2.2-2.2,2.2s-2.2-1-2.2-2.2s1-2.2,2.2-2.2S680.6,216.7,680.6,217.9z"/>
	<path class="st1" d="M674,236.5c0,1.2-1,2.2-2.2,2.2s-2.2-1-2.2-2.2s1-2.2,2.2-2.2C673,234.4,674,235.3,674,236.5z"/>
	<path class="st1" d="M674,231.1c0,1.2-1,2.2-2.2,2.2s-2.2-1-2.2-2.2s1-2.2,2.2-2.2C673,228.9,674,229.9,674,231.1z"/>
	<path class="st1" d="M717.9,122.6c0,1.2-1,2.2-2.2,2.2s-2.2-1-2.2-2.2s1-2.2,2.2-2.2S717.9,121.4,717.9,122.6z"/>
	<path class="st1" d="M509.6,174.1c0,1.2-1,2.2-2.2,2.2s-2.2-1-2.2-2.2s1-2.2,2.2-2.2C508.6,171.9,509.6,172.9,509.6,174.1z"/>
	<path class="st1" d="M509.6,179.6c0,1.2-1,2.2-2.2,2.2s-2.2-1-2.2-2.2s1-2.2,2.2-2.2C508.6,177.4,509.6,178.3,509.6,179.6z"/>
	<path class="st1" d="M509.6,186.1c0,1.2-1,2.2-2.2,2.2s-2.2-1-2.2-2.2s1-2.2,2.2-2.2C508.6,183.9,509.6,184.9,509.6,186.1z"/>
	<path class="st1" d="M509.6,192.7c0,1.2-1,2.2-2.2,2.2s-2.2-1-2.2-2.2s1-2.2,2.2-2.2S509.6,191.5,509.6,192.7z"/>
	<path class="st1" d="M504.1,198.2c0,1.2-1,2.2-2.2,2.2s-2.2-1-2.2-2.2s1-2.2,2.2-2.2S504.1,197,504.1,198.2z"/>
	<path class="st1" d="M509.6,199.3c0,1.2-1,2.2-2.2,2.2s-2.2-1-2.2-2.2s1-2.2,2.2-2.2S509.6,198.1,509.6,199.3z"/>
	<path class="st1" d="M528.2,174.1c0,1.2-1,2.2-2.2,2.2s-2.2-1-2.2-2.2s1-2.2,2.2-2.2C527.2,171.9,528.2,172.9,528.2,174.1z"/>
	<path class="st1" d="M528.2,179.6c0,1.2-1,2.2-2.2,2.2s-2.2-1-2.2-2.2s1-2.2,2.2-2.2C527.2,177.4,528.2,178.3,528.2,179.6z"/>
	<path class="st1" d="M528.2,186.1c0,1.2-1,2.2-2.2,2.2s-2.2-1-2.2-2.2s1-2.2,2.2-2.2C527.2,183.9,528.2,184.9,528.2,186.1z"/>
	<path class="st1" d="M528.2,192.7c0,1.2-1,2.2-2.2,2.2s-2.2-1-2.2-2.2s1-2.2,2.2-2.2S528.2,191.5,528.2,192.7z"/>
	<path class="st1" d="M528.2,198.2c0,1.2-1,2.2-2.2,2.2s-2.2-1-2.2-2.2s1-2.2,2.2-2.2S528.2,197,528.2,198.2z"/>
	<path class="st1" d="M522.7,174.1c0,1.2-1,2.2-2.2,2.2s-2.2-1-2.2-2.2s1-2.2,2.2-2.2C521.8,171.9,522.7,172.9,522.7,174.1z"/>
	<path class="st1" d="M522.7,179.6c0,1.2-1,2.2-2.2,2.2s-2.2-1-2.2-2.2s1-2.2,2.2-2.2C521.8,177.4,522.7,178.3,522.7,179.6z"/>
	<path class="st1" d="M522.7,186.1c0,1.2-1,2.2-2.2,2.2s-2.2-1-2.2-2.2s1-2.2,2.2-2.2C521.8,183.9,522.7,184.9,522.7,186.1z"/>
	<path class="st1" d="M522.7,192.7c0,1.2-1,2.2-2.2,2.2s-2.2-1-2.2-2.2s1-2.2,2.2-2.2C521.8,190.5,522.7,191.5,522.7,192.7z"/>
	<path class="st1" d="M541.4,179.6c0,1.2-1,2.2-2.2,2.2s-2.2-1-2.2-2.2s1-2.2,2.2-2.2C540.4,177.4,541.4,178.3,541.4,179.6z"/>
	<path class="st1" d="M541.4,186.1c0,1.2-1,2.2-2.2,2.2s-2.2-1-2.2-2.2s1-2.2,2.2-2.2C540.4,183.9,541.4,184.9,541.4,186.1z"/>
	<path class="st1" d="M535.9,179.6c0,1.2-1,2.2-2.2,2.2s-2.2-1-2.2-2.2s1-2.2,2.2-2.2C534.9,177.4,535.9,178.3,535.9,179.6z"/>
	<path class="st1" d="M541.4,173c0,1.2-1,2.2-2.2,2.2s-2.2-1-2.2-2.2s1-2.2,2.2-2.2S541.4,171.8,541.4,173z"/>
	<path class="st1" d="M535.9,174.1c0,1.2-1,2.2-2.2,2.2s-2.2-1-2.2-2.2s1-2.2,2.2-2.2C534.9,171.9,535.9,172.9,535.9,174.1z"/>
	<path class="st1" d="M535.9,167.5c0,1.2-1,2.2-2.2,2.2s-2.2-1-2.2-2.2s1-2.2,2.2-2.2S535.9,166.3,535.9,167.5z"/>
	<path class="st1" d="M535.9,186.1c0,1.2-1,2.2-2.2,2.2s-2.2-1-2.2-2.2s1-2.2,2.2-2.2C534.9,183.9,535.9,184.9,535.9,186.1z"/>
	<path class="st1" d="M535.9,192.7c0,1.2-1,2.2-2.2,2.2s-2.2-1-2.2-2.2s1-2.2,2.2-2.2S535.9,191.5,535.9,192.7z"/>
	<path class="st1" d="M522.7,199.3c0,1.2-1,2.2-2.2,2.2s-2.2-1-2.2-2.2s1-2.2,2.2-2.2C521.8,197.1,522.7,198.1,522.7,199.3z"/>
	<path class="st1" d="M509.6,160.9c0,1.2-1,2.2-2.2,2.2s-2.2-1-2.2-2.2s1-2.2,2.2-2.2S509.6,159.7,509.6,160.9z"/>
	<path class="st1" d="M509.6,167.5c0,1.2-1,2.2-2.2,2.2s-2.2-1-2.2-2.2s1-2.2,2.2-2.2S509.6,166.3,509.6,167.5z"/>
	<path class="st1" d="M509.6,147.8c0,1.2-1,2.2-2.2,2.2s-2.2-1-2.2-2.2s1-2.2,2.2-2.2S509.6,146.6,509.6,147.8z"/>
	<path class="st1" d="M509.6,154.4c0,1.2-1,2.2-2.2,2.2s-2.2-1-2.2-2.2s1-2.2,2.2-2.2S509.6,153.1,509.6,154.4z"/>
	<path class="st1" d="M591.8,199.3c0,1.2-1,2.2-2.2,2.2s-2.2-1-2.2-2.2s1-2.2,2.2-2.2S591.8,198.1,591.8,199.3z"/>
	<path class="st1" d="M598.4,199.3c0,1.2-1,2.2-2.2,2.2s-2.2-1-2.2-2.2s1-2.2,2.2-2.2S598.4,198.1,598.4,199.3z"/>
	<path class="st1" d="M603.9,199.3c0,1.2-1,2.2-2.2,2.2s-2.2-1-2.2-2.2s1-2.2,2.2-2.2S603.9,198.1,603.9,199.3z"/>
	<path class="st1" d="M610.4,224.5c0,1.2-1,2.2-2.2,2.2s-2.2-1-2.2-2.2s1-2.2,2.2-2.2C609.5,222.3,610.4,223.3,610.4,224.5z"/>
	<path class="st1" d="M591.8,204.8c0,1.2-1,2.2-2.2,2.2s-2.2-1-2.2-2.2s1-2.2,2.2-2.2S591.8,203.6,591.8,204.8z"/>
	<path class="st1" d="M598.4,204.8c0,1.2-1,2.2-2.2,2.2s-2.2-1-2.2-2.2s1-2.2,2.2-2.2S598.4,203.6,598.4,204.8z"/>
	<path class="st1" d="M603.9,204.8c0,1.2-1,2.2-2.2,2.2s-2.2-1-2.2-2.2s1-2.2,2.2-2.2S603.9,203.6,603.9,204.8z"/>
	<path class="st1" d="M598.4,211.3c0,1.2-1,2.2-2.2,2.2s-2.2-1-2.2-2.2s1-2.2,2.2-2.2S598.4,210.1,598.4,211.3z"/>
	<path class="st1" d="M598.4,217.9c0,1.2-1,2.2-2.2,2.2s-2.2-1-2.2-2.2s1-2.2,2.2-2.2S598.4,216.7,598.4,217.9z"/>
	<path class="st1" d="M603.9,211.3c0,1.2-1,2.2-2.2,2.2s-2.2-1-2.2-2.2s1-2.2,2.2-2.2S603.9,210.1,603.9,211.3z"/>
	<path class="st1" d="M603.9,217.9c0,1.2-1,2.2-2.2,2.2s-2.2-1-2.2-2.2s1-2.2,2.2-2.2S603.9,216.7,603.9,217.9z"/>
</g>
</svg>
