<?xml version="1.0" encoding="utf-8"?>
<!-- Generator: Adobe Illustrator 28.2.0, SVG Export Plug-In . SVG Version: 6.00 Build 0)  -->
<svg version="1.1" id="Calque_1" xmlns="http://www.w3.org/2000/svg" xmlns:xlink="http://www.w3.org/1999/xlink" x="0px" y="0px"
	 viewBox="0 0 835 422" style="enable-background:new 0 0 835 422;" xml:space="preserve">
<style type="text/css">
	.st0{opacity:0.2;}
	.st1{fill-rule:evenodd;clip-rule:evenodd;fill:#F05801;}
</style>
<g class="st0">
	<path class="st1" d="M756.2,292.4c0,1.2-1,2.2-2.2,2.2c-1.2,0-2.2-1-2.2-2.2c0-1.2,1-2.2,2.2-2.2
		C755.3,290.2,756.2,291.2,756.2,292.4z"/>
	<path class="st1" d="M761.7,292.4c0,1.2-1,2.2-2.2,2.2c-1.2,0-2.2-1-2.2-2.2c0-1.2,1-2.2,2.2-2.2
		C760.7,290.2,761.7,291.2,761.7,292.4z"/>
	<path class="st1" d="M743.1,292.4c0,1.2-1,2.2-2.2,2.2c-1.2,0-2.2-1-2.2-2.2c0-1.2,1-2.2,2.2-2.2
		C742.1,290.2,743.1,291.2,743.1,292.4z"/>
	<path class="st1" d="M761.7,287c0,1.2-1,2.2-2.2,2.2c-1.2,0-2.2-1-2.2-2.2c0-1.2,1-2.2,2.2-2.2C760.7,284.8,761.7,285.8,761.7,287z
		"/>
	<path class="st1" d="M768.3,287c0,1.2-1,2.2-2.2,2.2c-1.2,0-2.2-1-2.2-2.2c0-1.2,1-2.2,2.2-2.2C767.3,284.8,768.3,285.8,768.3,287z
		"/>
	<path class="st1" d="M736.5,305.6c0,1.2-1,2.2-2.2,2.2c-1.2,0-2.2-1-2.2-2.2c0-1.2,1-2.2,2.2-2.2
		C735.5,303.4,736.5,304.4,736.5,305.6z"/>
	<path class="st1" d="M736.5,299c0,1.2-1,2.2-2.2,2.2c-1.2,0-2.2-1-2.2-2.2c0-1.2,1-2.2,2.2-2.2C735.5,296.8,736.5,297.8,736.5,299z
		"/>
	<path class="st1" d="M749.7,305.6c0,1.2-1,2.2-2.2,2.2c-1.2,0-2.2-1-2.2-2.2c0-1.2,1-2.2,2.2-2.2
		C748.7,303.4,749.7,304.4,749.7,305.6z"/>
	<path class="st1" d="M756.2,305.6c0,1.2-1,2.2-2.2,2.2c-1.2,0-2.2-1-2.2-2.2c0-1.2,1-2.2,2.2-2.2
		C755.3,303.4,756.2,304.4,756.2,305.6z"/>
	<path class="st1" d="M761.7,305.6c0,1.2-1,2.2-2.2,2.2c-1.2,0-2.2-1-2.2-2.2c0-1.2,1-2.2,2.2-2.2
		C760.7,303.4,761.7,304.4,761.7,305.6z"/>
	<path class="st1" d="M768.3,305.6c0,1.2-1,2.2-2.2,2.2c-1.2,0-2.2-1-2.2-2.2c0-1.2,1-2.2,2.2-2.2
		C767.3,303.4,768.3,304.4,768.3,305.6z"/>
	<path class="st1" d="M749.7,299c0,1.2-1,2.2-2.2,2.2c-1.2,0-2.2-1-2.2-2.2c0-1.2,1-2.2,2.2-2.2C748.7,296.8,749.7,297.8,749.7,299z
		"/>
	<path class="st1" d="M756.2,299c0,1.2-1,2.2-2.2,2.2c-1.2,0-2.2-1-2.2-2.2c0-1.2,1-2.2,2.2-2.2C755.3,296.8,756.2,297.8,756.2,299z
		"/>
	<path class="st1" d="M743.1,305.6c0,1.2-1,2.2-2.2,2.2c-1.2,0-2.2-1-2.2-2.2c0-1.2,1-2.2,2.2-2.2
		C742.1,303.4,743.1,304.4,743.1,305.6z"/>
	<path class="st1" d="M743.1,299c0,1.2-1,2.2-2.2,2.2c-1.2,0-2.2-1-2.2-2.2c0-1.2,1-2.2,2.2-2.2C742.1,296.8,743.1,297.8,743.1,299z
		"/>
	<path class="st1" d="M761.7,299c0,1.2-1,2.2-2.2,2.2c-1.2,0-2.2-1-2.2-2.2c0-1.2,1-2.2,2.2-2.2C760.7,296.8,761.7,297.8,761.7,299z
		"/>
	<path class="st1" d="M768.3,299c0,1.2-1,2.2-2.2,2.2c-1.2,0-2.2-1-2.2-2.2c0-1.2,1-2.2,2.2-2.2C767.3,296.8,768.3,297.8,768.3,299z
		"/>
	<path class="st1" d="M736.5,318.7c0,1.2-1,2.2-2.2,2.2c-1.2,0-2.2-1-2.2-2.2c0-1.2,1-2.2,2.2-2.2
		C735.5,316.5,736.5,317.5,736.5,318.7z"/>
	<path class="st1" d="M736.5,312.2c0,1.2-1,2.2-2.2,2.2c-1.2,0-2.2-1-2.2-2.2c0-1.2,1-2.2,2.2-2.2C735.5,310,736.5,311,736.5,312.2z
		"/>
	<path class="st1" d="M749.7,318.7c0,1.2-1,2.2-2.2,2.2c-1.2,0-2.2-1-2.2-2.2c0-1.2,1-2.2,2.2-2.2
		C748.7,316.5,749.7,317.5,749.7,318.7z"/>
	<path class="st1" d="M756.2,318.7c0,1.2-1,2.2-2.2,2.2c-1.2,0-2.2-1-2.2-2.2c0-1.2,1-2.2,2.2-2.2
		C755.3,316.5,756.2,317.5,756.2,318.7z"/>
	<path class="st1" d="M761.7,318.7c0,1.2-1,2.2-2.2,2.2c-1.2,0-2.2-1-2.2-2.2c0-1.2,1-2.2,2.2-2.2
		C760.7,316.5,761.7,317.5,761.7,318.7z"/>
	<path class="st1" d="M768.3,318.7c0,1.2-1,2.2-2.2,2.2c-1.2,0-2.2-1-2.2-2.2c0-1.2,1-2.2,2.2-2.2
		C767.3,316.5,768.3,317.5,768.3,318.7z"/>
	<path class="st1" d="M749.7,312.2c0,1.2-1,2.2-2.2,2.2c-1.2,0-2.2-1-2.2-2.2c0-1.2,1-2.2,2.2-2.2C748.7,310,749.7,311,749.7,312.2z
		"/>
	<path class="st1" d="M756.2,312.2c0,1.2-1,2.2-2.2,2.2c-1.2,0-2.2-1-2.2-2.2c0-1.2,1-2.2,2.2-2.2C755.3,310,756.2,311,756.2,312.2z
		"/>
	<path class="st1" d="M743.1,318.7c0,1.2-1,2.2-2.2,2.2c-1.2,0-2.2-1-2.2-2.2c0-1.2,1-2.2,2.2-2.2
		C742.1,316.5,743.1,317.5,743.1,318.7z"/>
	<path class="st1" d="M743.1,312.2c0,1.2-1,2.2-2.2,2.2c-1.2,0-2.2-1-2.2-2.2c0-1.2,1-2.2,2.2-2.2C742.1,310,743.1,311,743.1,312.2z
		"/>
	<path class="st1" d="M761.7,312.2c0,1.2-1,2.2-2.2,2.2c-1.2,0-2.2-1-2.2-2.2c0-1.2,1-2.2,2.2-2.2C760.7,310,761.7,311,761.7,312.2z
		"/>
	<path class="st1" d="M768.3,312.2c0,1.2-1,2.2-2.2,2.2c-1.2,0-2.2-1-2.2-2.2c0-1.2,1-2.2,2.2-2.2C767.3,310,768.3,311,768.3,312.2z
		"/>
	<path class="st1" d="M736.5,330.8c0,1.2-1,2.2-2.2,2.2c-1.2,0-2.2-1-2.2-2.2c0-1.2,1-2.2,2.2-2.2
		C735.5,328.6,736.5,329.6,736.5,330.8z"/>
	<path class="st1" d="M736.5,324.2c0,1.2-1,2.2-2.2,2.2c-1.2,0-2.2-1-2.2-2.2s1-2.2,2.2-2.2C735.5,322,736.5,323,736.5,324.2z"/>
	<path class="st1" d="M749.7,330.8c0,1.2-1,2.2-2.2,2.2c-1.2,0-2.2-1-2.2-2.2c0-1.2,1-2.2,2.2-2.2
		C748.7,328.6,749.7,329.6,749.7,330.8z"/>
	<path class="st1" d="M756.2,330.8c0,1.2-1,2.2-2.2,2.2c-1.2,0-2.2-1-2.2-2.2c0-1.2,1-2.2,2.2-2.2
		C755.3,328.6,756.2,329.6,756.2,330.8z"/>
	<path class="st1" d="M761.7,330.8c0,1.2-1,2.2-2.2,2.2c-1.2,0-2.2-1-2.2-2.2c0-1.2,1-2.2,2.2-2.2
		C760.7,328.6,761.7,329.6,761.7,330.8z"/>
	<path class="st1" d="M749.7,324.2c0,1.2-1,2.2-2.2,2.2c-1.2,0-2.2-1-2.2-2.2s1-2.2,2.2-2.2C748.7,322,749.7,323,749.7,324.2z"/>
	<path class="st1" d="M756.2,324.2c0,1.2-1,2.2-2.2,2.2c-1.2,0-2.2-1-2.2-2.2s1-2.2,2.2-2.2C755.3,322,756.2,323,756.2,324.2z"/>
	<path class="st1" d="M743.1,330.8c0,1.2-1,2.2-2.2,2.2c-1.2,0-2.2-1-2.2-2.2c0-1.2,1-2.2,2.2-2.2
		C742.1,328.6,743.1,329.6,743.1,330.8z"/>
	<path class="st1" d="M743.1,324.2c0,1.2-1,2.2-2.2,2.2c-1.2,0-2.2-1-2.2-2.2s1-2.2,2.2-2.2C742.1,322,743.1,323,743.1,324.2z"/>
	<path class="st1" d="M761.7,324.2c0,1.2-1,2.2-2.2,2.2c-1.2,0-2.2-1-2.2-2.2s1-2.2,2.2-2.2C760.7,322,761.7,323,761.7,324.2z"/>
	<path class="st1" d="M768.3,324.2c0,1.2-1,2.2-2.2,2.2c-1.2,0-2.2-1-2.2-2.2s1-2.2,2.2-2.2C767.3,322,768.3,323,768.3,324.2z"/>
	<path class="st1" d="M736.5,337.4c0,1.2-1,2.2-2.2,2.2c-1.2,0-2.2-1-2.2-2.2c0-1.2,1-2.2,2.2-2.2
		C735.5,335.2,736.5,336.2,736.5,337.4z"/>
	<path class="st1" d="M749.7,337.4c0,1.2-1,2.2-2.2,2.2c-1.2,0-2.2-1-2.2-2.2c0-1.2,1-2.2,2.2-2.2
		C748.7,335.2,749.7,336.2,749.7,337.4z"/>
	<path class="st1" d="M756.2,337.4c0,1.2-1,2.2-2.2,2.2c-1.2,0-2.2-1-2.2-2.2c0-1.2,1-2.2,2.2-2.2
		C755.3,335.2,756.2,336.2,756.2,337.4z"/>
	<path class="st1" d="M761.7,337.4c0,1.2-1,2.2-2.2,2.2c-1.2,0-2.2-1-2.2-2.2c0-1.2,1-2.2,2.2-2.2
		C760.7,335.2,761.7,336.2,761.7,337.4z"/>
	<path class="st1" d="M768.3,337.4c0,1.2-1,2.2-2.2,2.2c-1.2,0-2.2-1-2.2-2.2c0-1.2,1-2.2,2.2-2.2
		C767.3,335.2,768.3,336.2,768.3,337.4z"/>
	<path class="st1" d="M774.9,337.4c0,1.2-1,2.2-2.2,2.2c-1.2,0-2.2-1-2.2-2.2c0-1.2,1-2.2,2.2-2.2
		C773.9,335.2,774.9,336.2,774.9,337.4z"/>
	<path class="st1" d="M743.1,337.4c0,1.2-1,2.2-2.2,2.2c-1.2,0-2.2-1-2.2-2.2c0-1.2,1-2.2,2.2-2.2
		C742.1,335.2,743.1,336.2,743.1,337.4z"/>
	<path class="st1" d="M736.5,342.9c0,1.2-1,2.2-2.2,2.2c-1.2,0-2.2-1-2.2-2.2c0-1.2,1-2.2,2.2-2.2
		C735.5,340.7,736.5,341.6,736.5,342.9z"/>
	<path class="st1" d="M736.5,349.4c0,1.2-1,2.2-2.2,2.2c-1.2,0-2.2-1-2.2-2.2c0-1.2,1-2.2,2.2-2.2
		C735.5,347.2,736.5,348.2,736.5,349.4z"/>
	<path class="st1" d="M731,305.6c0,1.2-1,2.2-2.2,2.2s-2.2-1-2.2-2.2c0-1.2,1-2.2,2.2-2.2S731,304.4,731,305.6z"/>
	<path class="st1" d="M731,318.7c0,1.2-1,2.2-2.2,2.2s-2.2-1-2.2-2.2c0-1.2,1-2.2,2.2-2.2S731,317.5,731,318.7z"/>
	<path class="st1" d="M731,312.2c0,1.2-1,2.2-2.2,2.2s-2.2-1-2.2-2.2c0-1.2,1-2.2,2.2-2.2S731,311,731,312.2z"/>
	<path class="st1" d="M731,330.8c0,1.2-1,2.2-2.2,2.2s-2.2-1-2.2-2.2c0-1.2,1-2.2,2.2-2.2S731,329.6,731,330.8z"/>
	<path class="st1" d="M731,324.2c0,1.2-1,2.2-2.2,2.2s-2.2-1-2.2-2.2s1-2.2,2.2-2.2S731,323,731,324.2z"/>
	<path class="st1" d="M731,337.4c0,1.2-1,2.2-2.2,2.2s-2.2-1-2.2-2.2c0-1.2,1-2.2,2.2-2.2S731,336.2,731,337.4z"/>
	<path class="st1" d="M731,342.9c0,1.2-1,2.2-2.2,2.2s-2.2-1-2.2-2.2c0-1.2,1-2.2,2.2-2.2S731,341.6,731,342.9z"/>
	<path class="st1" d="M731,349.4c0,1.2-1,2.2-2.2,2.2s-2.2-1-2.2-2.2c0-1.2,1-2.2,2.2-2.2S731,348.2,731,349.4z"/>
	<path class="st1" d="M724.4,318.7c0,1.2-1,2.2-2.2,2.2c-1.2,0-2.2-1-2.2-2.2c0-1.2,1-2.2,2.2-2.2
		C723.5,316.5,724.4,317.5,724.4,318.7z"/>
	<path class="st1" d="M724.4,312.2c0,1.2-1,2.2-2.2,2.2c-1.2,0-2.2-1-2.2-2.2c0-1.2,1-2.2,2.2-2.2C723.5,310,724.4,311,724.4,312.2z
		"/>
	<path class="st1" d="M724.4,330.8c0,1.2-1,2.2-2.2,2.2c-1.2,0-2.2-1-2.2-2.2c0-1.2,1-2.2,2.2-2.2
		C723.5,328.6,724.4,329.6,724.4,330.8z"/>
	<path class="st1" d="M724.4,324.2c0,1.2-1,2.2-2.2,2.2c-1.2,0-2.2-1-2.2-2.2s1-2.2,2.2-2.2C723.5,322,724.4,323,724.4,324.2z"/>
	<path class="st1" d="M724.4,337.4c0,1.2-1,2.2-2.2,2.2c-1.2,0-2.2-1-2.2-2.2c0-1.2,1-2.2,2.2-2.2
		C723.5,335.2,724.4,336.2,724.4,337.4z"/>
	<path class="st1" d="M724.4,342.9c0,1.2-1,2.2-2.2,2.2c-1.2,0-2.2-1-2.2-2.2c0-1.2,1-2.2,2.2-2.2
		C723.5,340.7,724.4,341.6,724.4,342.9z"/>
	<path class="st1" d="M724.4,349.4c0,1.2-1,2.2-2.2,2.2c-1.2,0-2.2-1-2.2-2.2c0-1.2,1-2.2,2.2-2.2
		C723.5,347.2,724.4,348.2,724.4,349.4z"/>
	<path class="st1" d="M717.9,318.7c0,1.2-1,2.2-2.2,2.2c-1.2,0-2.2-1-2.2-2.2c0-1.2,1-2.2,2.2-2.2
		C716.9,316.5,717.9,317.5,717.9,318.7z"/>
	<path class="st1" d="M717.9,312.2c0,1.2-1,2.2-2.2,2.2c-1.2,0-2.2-1-2.2-2.2c0-1.2,1-2.2,2.2-2.2C716.9,310,717.9,311,717.9,312.2z
		"/>
	<path class="st1" d="M717.9,330.8c0,1.2-1,2.2-2.2,2.2c-1.2,0-2.2-1-2.2-2.2c0-1.2,1-2.2,2.2-2.2
		C716.9,328.6,717.9,329.6,717.9,330.8z"/>
	<path class="st1" d="M717.9,324.2c0,1.2-1,2.2-2.2,2.2c-1.2,0-2.2-1-2.2-2.2s1-2.2,2.2-2.2C716.9,322,717.9,323,717.9,324.2z"/>
	<path class="st1" d="M717.9,337.4c0,1.2-1,2.2-2.2,2.2c-1.2,0-2.2-1-2.2-2.2c0-1.2,1-2.2,2.2-2.2
		C716.9,335.2,717.9,336.2,717.9,337.4z"/>
	<path class="st1" d="M717.9,342.9c0,1.2-1,2.2-2.2,2.2c-1.2,0-2.2-1-2.2-2.2c0-1.2,1-2.2,2.2-2.2
		C716.9,340.7,717.9,341.6,717.9,342.9z"/>
	<path class="st1" d="M717.9,349.4c0,1.2-1,2.2-2.2,2.2c-1.2,0-2.2-1-2.2-2.2c0-1.2,1-2.2,2.2-2.2
		C716.9,347.2,717.9,348.2,717.9,349.4z"/>
	<path class="st1" d="M711.3,318.7c0,1.2-1,2.2-2.2,2.2c-1.2,0-2.2-1-2.2-2.2c0-1.2,1-2.2,2.2-2.2
		C710.3,316.5,711.3,317.5,711.3,318.7z"/>
	<path class="st1" d="M711.3,330.8c0,1.2-1,2.2-2.2,2.2c-1.2,0-2.2-1-2.2-2.2c0-1.2,1-2.2,2.2-2.2
		C710.3,328.6,711.3,329.6,711.3,330.8z"/>
	<path class="st1" d="M711.3,324.2c0,1.2-1,2.2-2.2,2.2c-1.2,0-2.2-1-2.2-2.2s1-2.2,2.2-2.2C710.3,322,711.3,323,711.3,324.2z"/>
	<path class="st1" d="M711.3,337.4c0,1.2-1,2.2-2.2,2.2c-1.2,0-2.2-1-2.2-2.2c0-1.2,1-2.2,2.2-2.2
		C710.3,335.2,711.3,336.2,711.3,337.4z"/>
	<path class="st1" d="M711.3,342.9c0,1.2-1,2.2-2.2,2.2c-1.2,0-2.2-1-2.2-2.2c0-1.2,1-2.2,2.2-2.2
		C710.3,340.7,711.3,341.6,711.3,342.9z"/>
	<path class="st1" d="M711.3,349.4c0,1.2-1,2.2-2.2,2.2c-1.2,0-2.2-1-2.2-2.2c0-1.2,1-2.2,2.2-2.2
		C710.3,347.2,711.3,348.2,711.3,349.4z"/>
	<path class="st1" d="M705.8,318.7c0,1.2-1,2.2-2.2,2.2c-1.2,0-2.2-1-2.2-2.2c0-1.2,1-2.2,2.2-2.2
		C704.8,316.5,705.8,317.5,705.8,318.7z"/>
	<path class="st1" d="M705.8,330.8c0,1.2-1,2.2-2.2,2.2c-1.2,0-2.2-1-2.2-2.2c0-1.2,1-2.2,2.2-2.2
		C704.8,328.6,705.8,329.6,705.8,330.8z"/>
	<path class="st1" d="M705.8,324.2c0,1.2-1,2.2-2.2,2.2c-1.2,0-2.2-1-2.2-2.2s1-2.2,2.2-2.2C704.8,322,705.8,323,705.8,324.2z"/>
	<path class="st1" d="M705.8,337.4c0,1.2-1,2.2-2.2,2.2c-1.2,0-2.2-1-2.2-2.2c0-1.2,1-2.2,2.2-2.2
		C704.8,335.2,705.8,336.2,705.8,337.4z"/>
	<path class="st1" d="M705.8,342.9c0,1.2-1,2.2-2.2,2.2c-1.2,0-2.2-1-2.2-2.2c0-1.2,1-2.2,2.2-2.2
		C704.8,340.7,705.8,341.6,705.8,342.9z"/>
	<path class="st1" d="M705.8,349.4c0,1.2-1,2.2-2.2,2.2c-1.2,0-2.2-1-2.2-2.2c0-1.2,1-2.2,2.2-2.2
		C704.8,347.2,705.8,348.2,705.8,349.4z"/>
	<path class="st1" d="M699.2,330.8c0,1.2-1,2.2-2.2,2.2c-1.2,0-2.2-1-2.2-2.2c0-1.2,1-2.2,2.2-2.2
		C698.3,328.6,699.2,329.6,699.2,330.8z"/>
	<path class="st1" d="M699.2,324.2c0,1.2-1,2.2-2.2,2.2c-1.2,0-2.2-1-2.2-2.2s1-2.2,2.2-2.2C698.3,322,699.2,323,699.2,324.2z"/>
	<path class="st1" d="M699.2,337.4c0,1.2-1,2.2-2.2,2.2c-1.2,0-2.2-1-2.2-2.2c0-1.2,1-2.2,2.2-2.2
		C698.3,335.2,699.2,336.2,699.2,337.4z"/>
	<path class="st1" d="M699.2,342.9c0,1.2-1,2.2-2.2,2.2c-1.2,0-2.2-1-2.2-2.2c0-1.2,1-2.2,2.2-2.2
		C698.3,340.7,699.2,341.6,699.2,342.9z"/>
	<path class="st1" d="M699.2,349.4c0,1.2-1,2.2-2.2,2.2c-1.2,0-2.2-1-2.2-2.2c0-1.2,1-2.2,2.2-2.2
		C698.3,347.2,699.2,348.2,699.2,349.4z"/>
	<path class="st1" d="M711.3,356c0,1.2-1,2.2-2.2,2.2c-1.2,0-2.2-1-2.2-2.2c0-1.2,1-2.2,2.2-2.2C710.3,353.8,711.3,354.8,711.3,356z
		"/>
	<path class="st1" d="M705.8,356c0,1.2-1,2.2-2.2,2.2c-1.2,0-2.2-1-2.2-2.2c0-1.2,1-2.2,2.2-2.2C704.8,353.8,705.8,354.8,705.8,356z
		"/>
	<path class="st1" d="M699.2,356c0,1.2-1,2.2-2.2,2.2c-1.2,0-2.2-1-2.2-2.2c0-1.2,1-2.2,2.2-2.2C698.3,353.8,699.2,354.8,699.2,356z
		"/>
	<path class="st1" d="M749.7,349.4c0,1.2-1,2.2-2.2,2.2c-1.2,0-2.2-1-2.2-2.2c0-1.2,1-2.2,2.2-2.2
		C748.7,347.2,749.7,348.2,749.7,349.4z"/>
	<path class="st1" d="M756.2,349.4c0,1.2-1,2.2-2.2,2.2c-1.2,0-2.2-1-2.2-2.2c0-1.2,1-2.2,2.2-2.2
		C755.3,347.2,756.2,348.2,756.2,349.4z"/>
	<path class="st1" d="M761.7,349.4c0,1.2-1,2.2-2.2,2.2c-1.2,0-2.2-1-2.2-2.2c0-1.2,1-2.2,2.2-2.2
		C760.7,347.2,761.7,348.2,761.7,349.4z"/>
	<path class="st1" d="M768.3,349.4c0,1.2-1,2.2-2.2,2.2c-1.2,0-2.2-1-2.2-2.2c0-1.2,1-2.2,2.2-2.2
		C767.3,347.2,768.3,348.2,768.3,349.4z"/>
	<path class="st1" d="M774.9,349.4c0,1.2-1,2.2-2.2,2.2c-1.2,0-2.2-1-2.2-2.2c0-1.2,1-2.2,2.2-2.2
		C773.9,347.2,774.9,348.2,774.9,349.4z"/>
	<path class="st1" d="M749.7,342.9c0,1.2-1,2.2-2.2,2.2c-1.2,0-2.2-1-2.2-2.2c0-1.2,1-2.2,2.2-2.2
		C748.7,340.7,749.7,341.6,749.7,342.9z"/>
	<path class="st1" d="M756.2,342.9c0,1.2-1,2.2-2.2,2.2c-1.2,0-2.2-1-2.2-2.2c0-1.2,1-2.2,2.2-2.2
		C755.3,340.7,756.2,341.6,756.2,342.9z"/>
	<path class="st1" d="M743.1,349.4c0,1.2-1,2.2-2.2,2.2c-1.2,0-2.2-1-2.2-2.2c0-1.2,1-2.2,2.2-2.2
		C742.1,347.2,743.1,348.2,743.1,349.4z"/>
	<path class="st1" d="M743.1,342.9c0,1.2-1,2.2-2.2,2.2c-1.2,0-2.2-1-2.2-2.2c0-1.2,1-2.2,2.2-2.2
		C742.1,340.7,743.1,341.6,743.1,342.9z"/>
	<path class="st1" d="M761.7,342.9c0,1.2-1,2.2-2.2,2.2c-1.2,0-2.2-1-2.2-2.2c0-1.2,1-2.2,2.2-2.2
		C760.7,340.7,761.7,341.6,761.7,342.9z"/>
	<path class="st1" d="M768.3,342.9c0,1.2-1,2.2-2.2,2.2c-1.2,0-2.2-1-2.2-2.2c0-1.2,1-2.2,2.2-2.2
		C767.3,340.7,768.3,341.6,768.3,342.9z"/>
	<path class="st1" d="M774.9,342.9c0,1.2-1,2.2-2.2,2.2c-1.2,0-2.2-1-2.2-2.2c0-1.2,1-2.2,2.2-2.2
		C773.9,340.7,774.9,341.6,774.9,342.9z"/>
	<path class="st1" d="M761.7,362.6c0,1.2-1,2.2-2.2,2.2c-1.2,0-2.2-1-2.2-2.2c0-1.2,1-2.2,2.2-2.2
		C760.7,360.4,761.7,361.4,761.7,362.6z"/>
	<path class="st1" d="M768.3,362.6c0,1.2-1,2.2-2.2,2.2c-1.2,0-2.2-1-2.2-2.2c0-1.2,1-2.2,2.2-2.2
		C767.3,360.4,768.3,361.4,768.3,362.6z"/>
	<path class="st1" d="M774.9,362.6c0,1.2-1,2.2-2.2,2.2c-1.2,0-2.2-1-2.2-2.2c0-1.2,1-2.2,2.2-2.2
		C773.9,360.4,774.9,361.4,774.9,362.6z"/>
	<path class="st1" d="M749.7,356c0,1.2-1,2.2-2.2,2.2c-1.2,0-2.2-1-2.2-2.2c0-1.2,1-2.2,2.2-2.2C748.7,353.8,749.7,354.8,749.7,356z
		"/>
	<path class="st1" d="M761.7,356c0,1.2-1,2.2-2.2,2.2c-1.2,0-2.2-1-2.2-2.2c0-1.2,1-2.2,2.2-2.2C760.7,353.8,761.7,354.8,761.7,356z
		"/>
	<path class="st1" d="M768.3,356c0,1.2-1,2.2-2.2,2.2c-1.2,0-2.2-1-2.2-2.2c0-1.2,1-2.2,2.2-2.2C767.3,353.8,768.3,354.8,768.3,356z
		"/>
	<path class="st1" d="M774.9,356c0,1.2-1,2.2-2.2,2.2c-1.2,0-2.2-1-2.2-2.2c0-1.2,1-2.2,2.2-2.2C773.9,353.8,774.9,354.8,774.9,356z
		"/>
	<path class="st1" d="M761.7,369.2c0,1.2-1,2.2-2.2,2.2c-1.2,0-2.2-1-2.2-2.2c0-1.2,1-2.2,2.2-2.2
		C760.7,367,761.7,367.9,761.7,369.2z"/>
	<path class="st1" d="M768.3,369.2c0,1.2-1,2.2-2.2,2.2c-1.2,0-2.2-1-2.2-2.2c0-1.2,1-2.2,2.2-2.2
		C767.3,367,768.3,367.9,768.3,369.2z"/>
	<path class="st1" d="M774.9,369.2c0,1.2-1,2.2-2.2,2.2c-1.2,0-2.2-1-2.2-2.2c0-1.2,1-2.2,2.2-2.2
		C773.9,367,774.9,367.9,774.9,369.2z"/>
	<path class="st1" d="M768.3,381.2c0,1.2-1,2.2-2.2,2.2c-1.2,0-2.2-1-2.2-2.2c0-1.2,1-2.2,2.2-2.2C767.3,379,768.3,380,768.3,381.2z
		"/>
	<path class="st1" d="M793.5,292.4c0,1.2-1,2.2-2.2,2.2c-1.2,0-2.2-1-2.2-2.2c0-1.2,1-2.2,2.2-2.2
		C792.5,290.2,793.5,291.2,793.5,292.4z"/>
	<path class="st1" d="M788,292.4c0,1.2-1,2.2-2.2,2.2c-1.2,0-2.2-1-2.2-2.2c0-1.2,1-2.2,2.2-2.2C787.1,290.2,788,291.2,788,292.4z"
		/>
	<path class="st1" d="M788,287c0,1.2-1,2.2-2.2,2.2c-1.2,0-2.2-1-2.2-2.2c0-1.2,1-2.2,2.2-2.2C787.1,284.8,788,285.8,788,287z"/>
	<path class="st1" d="M793.5,305.6c0,1.2-1,2.2-2.2,2.2c-1.2,0-2.2-1-2.2-2.2c0-1.2,1-2.2,2.2-2.2
		C792.5,303.4,793.5,304.4,793.5,305.6z"/>
	<path class="st1" d="M793.5,299c0,1.2-1,2.2-2.2,2.2c-1.2,0-2.2-1-2.2-2.2c0-1.2,1-2.2,2.2-2.2C792.5,296.8,793.5,297.8,793.5,299z
		"/>
	<path class="st1" d="M788,305.6c0,1.2-1,2.2-2.2,2.2c-1.2,0-2.2-1-2.2-2.2c0-1.2,1-2.2,2.2-2.2C787.1,303.4,788,304.4,788,305.6z"
		/>
	<path class="st1" d="M788,299c0,1.2-1,2.2-2.2,2.2c-1.2,0-2.2-1-2.2-2.2c0-1.2,1-2.2,2.2-2.2C787.1,296.8,788,297.8,788,299z"/>
	<path class="st1" d="M793.5,318.7c0,1.2-1,2.2-2.2,2.2c-1.2,0-2.2-1-2.2-2.2c0-1.2,1-2.2,2.2-2.2
		C792.5,316.5,793.5,317.5,793.5,318.7z"/>
	<path class="st1" d="M800.1,318.7c0,1.2-1,2.2-2.2,2.2c-1.2,0-2.2-1-2.2-2.2c0-1.2,1-2.2,2.2-2.2
		C799.1,316.5,800.1,317.5,800.1,318.7z"/>
	<path class="st1" d="M793.5,312.2c0,1.2-1,2.2-2.2,2.2c-1.2,0-2.2-1-2.2-2.2c0-1.2,1-2.2,2.2-2.2C792.5,310,793.5,311,793.5,312.2z
		"/>
	<path class="st1" d="M800.1,312.2c0,1.2-1,2.2-2.2,2.2c-1.2,0-2.2-1-2.2-2.2c0-1.2,1-2.2,2.2-2.2C799.1,310,800.1,311,800.1,312.2z
		"/>
	<path class="st1" d="M788,318.7c0,1.2-1,2.2-2.2,2.2c-1.2,0-2.2-1-2.2-2.2c0-1.2,1-2.2,2.2-2.2C787.1,316.5,788,317.5,788,318.7z"
		/>
	<path class="st1" d="M788,312.2c0,1.2-1,2.2-2.2,2.2c-1.2,0-2.2-1-2.2-2.2c0-1.2,1-2.2,2.2-2.2C787.1,310,788,311,788,312.2z"/>
	<path class="st1" d="M793.5,330.8c0,1.2-1,2.2-2.2,2.2c-1.2,0-2.2-1-2.2-2.2c0-1.2,1-2.2,2.2-2.2
		C792.5,328.6,793.5,329.6,793.5,330.8z"/>
	<path class="st1" d="M800.1,330.8c0,1.2-1,2.2-2.2,2.2c-1.2,0-2.2-1-2.2-2.2c0-1.2,1-2.2,2.2-2.2
		C799.1,328.6,800.1,329.6,800.1,330.8z"/>
	<path class="st1" d="M806.7,330.8c0,1.2-1,2.2-2.2,2.2c-1.2,0-2.2-1-2.2-2.2c0-1.2,1-2.2,2.2-2.2
		C805.7,328.6,806.7,329.6,806.7,330.8z"/>
	<path class="st1" d="M793.5,324.2c0,1.2-1,2.2-2.2,2.2c-1.2,0-2.2-1-2.2-2.2s1-2.2,2.2-2.2C792.5,322,793.5,323,793.5,324.2z"/>
	<path class="st1" d="M800.1,324.2c0,1.2-1,2.2-2.2,2.2c-1.2,0-2.2-1-2.2-2.2s1-2.2,2.2-2.2C799.1,322,800.1,323,800.1,324.2z"/>
	<path class="st1" d="M788,330.8c0,1.2-1,2.2-2.2,2.2c-1.2,0-2.2-1-2.2-2.2c0-1.2,1-2.2,2.2-2.2C787.1,328.6,788,329.6,788,330.8z"
		/>
	<path class="st1" d="M768.3,330.8c0,1.2-1,2.2-2.2,2.2c-1.2,0-2.2-1-2.2-2.2c0-1.2,1-2.2,2.2-2.2
		C767.3,328.6,768.3,329.6,768.3,330.8z"/>
	<path class="st1" d="M774.9,305.6c0,1.2-1,2.2-2.2,2.2c-1.2,0-2.2-1-2.2-2.2c0-1.2,1-2.2,2.2-2.2
		C773.9,303.4,774.9,304.4,774.9,305.6z"/>
	<path class="st1" d="M781.5,305.6c0,1.2-1,2.2-2.2,2.2c-1.2,0-2.2-1-2.2-2.2c0-1.2,1-2.2,2.2-2.2
		C780.5,303.4,781.5,304.4,781.5,305.6z"/>
	<path class="st1" d="M774.9,318.7c0,1.2-1,2.2-2.2,2.2c-1.2,0-2.2-1-2.2-2.2c0-1.2,1-2.2,2.2-2.2
		C773.9,316.5,774.9,317.5,774.9,318.7z"/>
	<path class="st1" d="M781.5,318.7c0,1.2-1,2.2-2.2,2.2c-1.2,0-2.2-1-2.2-2.2c0-1.2,1-2.2,2.2-2.2
		C780.5,316.5,781.5,317.5,781.5,318.7z"/>
	<path class="st1" d="M774.9,312.2c0,1.2-1,2.2-2.2,2.2c-1.2,0-2.2-1-2.2-2.2c0-1.2,1-2.2,2.2-2.2C773.9,310,774.9,311,774.9,312.2z
		"/>
	<path class="st1" d="M781.5,312.2c0,1.2-1,2.2-2.2,2.2c-1.2,0-2.2-1-2.2-2.2c0-1.2,1-2.2,2.2-2.2C780.5,310,781.5,311,781.5,312.2z
		"/>
	<path class="st1" d="M774.9,330.8c0,1.2-1,2.2-2.2,2.2c-1.2,0-2.2-1-2.2-2.2c0-1.2,1-2.2,2.2-2.2
		C773.9,328.6,774.9,329.6,774.9,330.8z"/>
	<path class="st1" d="M774.9,324.2c0,1.2-1,2.2-2.2,2.2c-1.2,0-2.2-1-2.2-2.2s1-2.2,2.2-2.2C773.9,322,774.9,323,774.9,324.2z"/>
	<path class="st1" d="M781.5,324.2c0,1.2-1,2.2-2.2,2.2c-1.2,0-2.2-1-2.2-2.2s1-2.2,2.2-2.2C780.5,322,781.5,323,781.5,324.2z"/>
	<path class="st1" d="M780.4,330.8c0,1.2-1,2.2-2.2,2.2c-1.2,0-2.2-1-2.2-2.2c0-1.2,1-2.2,2.2-2.2
		C779.4,328.6,780.4,329.6,780.4,330.8z"/>
	<path class="st1" d="M788,324.2c0,1.2-1,2.2-2.2,2.2c-1.2,0-2.2-1-2.2-2.2s1-2.2,2.2-2.2C787.1,322,788,323,788,324.2z"/>
	<path class="st1" d="M806.7,324.2c0,1.2-1,2.2-2.2,2.2c-1.2,0-2.2-1-2.2-2.2s1-2.2,2.2-2.2C805.7,322,806.7,323,806.7,324.2z"/>
	<path class="st1" d="M781.5,337.4c0,1.2-1,2.2-2.2,2.2c-1.2,0-2.2-1-2.2-2.2c0-1.2,1-2.2,2.2-2.2
		C780.5,335.2,781.5,336.2,781.5,337.4z"/>
	<path class="st1" d="M793.5,337.4c0,1.2-1,2.2-2.2,2.2c-1.2,0-2.2-1-2.2-2.2c0-1.2,1-2.2,2.2-2.2
		C792.5,335.2,793.5,336.2,793.5,337.4z"/>
	<path class="st1" d="M800.1,337.4c0,1.2-1,2.2-2.2,2.2c-1.2,0-2.2-1-2.2-2.2c0-1.2,1-2.2,2.2-2.2
		C799.1,335.2,800.1,336.2,800.1,337.4z"/>
	<path class="st1" d="M806.7,337.4c0,1.2-1,2.2-2.2,2.2c-1.2,0-2.2-1-2.2-2.2c0-1.2,1-2.2,2.2-2.2
		C805.7,335.2,806.7,336.2,806.7,337.4z"/>
	<path class="st1" d="M788,337.4c0,1.2-1,2.2-2.2,2.2c-1.2,0-2.2-1-2.2-2.2c0-1.2,1-2.2,2.2-2.2C787.1,335.2,788,336.2,788,337.4z"
		/>
	<path class="st1" d="M781.5,349.4c0,1.2-1,2.2-2.2,2.2c-1.2,0-2.2-1-2.2-2.2c0-1.2,1-2.2,2.2-2.2
		C780.5,347.2,781.5,348.2,781.5,349.4z"/>
	<path class="st1" d="M781.5,342.9c0,1.2-1,2.2-2.2,2.2c-1.2,0-2.2-1-2.2-2.2c0-1.2,1-2.2,2.2-2.2
		C780.5,340.7,781.5,341.6,781.5,342.9z"/>
	<path class="st1" d="M793.5,349.4c0,1.2-1,2.2-2.2,2.2c-1.2,0-2.2-1-2.2-2.2c0-1.2,1-2.2,2.2-2.2
		C792.5,347.2,793.5,348.2,793.5,349.4z"/>
	<path class="st1" d="M800.1,349.4c0,1.2-1,2.2-2.2,2.2c-1.2,0-2.2-1-2.2-2.2c0-1.2,1-2.2,2.2-2.2
		C799.1,347.2,800.1,348.2,800.1,349.4z"/>
	<path class="st1" d="M793.5,342.9c0,1.2-1,2.2-2.2,2.2c-1.2,0-2.2-1-2.2-2.2c0-1.2,1-2.2,2.2-2.2
		C792.5,340.7,793.5,341.6,793.5,342.9z"/>
	<path class="st1" d="M800.1,342.9c0,1.2-1,2.2-2.2,2.2c-1.2,0-2.2-1-2.2-2.2c0-1.2,1-2.2,2.2-2.2
		C799.1,340.7,800.1,341.6,800.1,342.9z"/>
	<path class="st1" d="M788,349.4c0,1.2-1,2.2-2.2,2.2c-1.2,0-2.2-1-2.2-2.2c0-1.2,1-2.2,2.2-2.2C787.1,347.2,788,348.2,788,349.4z"
		/>
	<path class="st1" d="M788,342.9c0,1.2-1,2.2-2.2,2.2c-1.2,0-2.2-1-2.2-2.2c0-1.2,1-2.2,2.2-2.2C787.1,340.7,788,341.6,788,342.9z"
		/>
	<path class="st1" d="M806.7,342.9c0,1.2-1,2.2-2.2,2.2c-1.2,0-2.2-1-2.2-2.2c0-1.2,1-2.2,2.2-2.2
		C805.7,340.7,806.7,341.6,806.7,342.9z"/>
	<path class="st1" d="M781.5,362.6c0,1.2-1,2.2-2.2,2.2c-1.2,0-2.2-1-2.2-2.2c0-1.2,1-2.2,2.2-2.2
		C780.5,360.4,781.5,361.4,781.5,362.6z"/>
	<path class="st1" d="M781.5,356c0,1.2-1,2.2-2.2,2.2c-1.2,0-2.2-1-2.2-2.2c0-1.2,1-2.2,2.2-2.2C780.5,353.8,781.5,354.8,781.5,356z
		"/>
	<path class="st1" d="M793.5,356c0,1.2-1,2.2-2.2,2.2c-1.2,0-2.2-1-2.2-2.2c0-1.2,1-2.2,2.2-2.2C792.5,353.8,793.5,354.8,793.5,356z
		"/>
	<path class="st1" d="M788,362.6c0,1.2-1,2.2-2.2,2.2c-1.2,0-2.2-1-2.2-2.2c0-1.2,1-2.2,2.2-2.2C787.1,360.4,788,361.4,788,362.6z"
		/>
	<path class="st1" d="M788,356c0,1.2-1,2.2-2.2,2.2c-1.2,0-2.2-1-2.2-2.2c0-1.2,1-2.2,2.2-2.2C787.1,353.8,788,354.8,788,356z"/>
	<path class="st1" d="M781.5,369.2c0,1.2-1,2.2-2.2,2.2c-1.2,0-2.2-1-2.2-2.2c0-1.2,1-2.2,2.2-2.2
		C780.5,367,781.5,367.9,781.5,369.2z"/>
	<path class="st1" d="M805.6,385.6c0,1.2-1,2.2-2.2,2.2c-1.2,0-2.2-1-2.2-2.2c0-1.2,1-2.2,2.2-2.2
		C804.6,383.4,805.6,384.4,805.6,385.6z"/>
	<path class="st1" d="M811.1,385.6c0,1.2-1,2.2-2.2,2.2c-1.2,0-2.2-1-2.2-2.2c0-1.2,1-2.2,2.2-2.2
		C810.1,383.4,811.1,384.4,811.1,385.6z"/>
	<path class="st1" d="M799,392.2c0,1.2-1,2.2-2.2,2.2c-1.2,0-2.2-1-2.2-2.2c0-1.2,1-2.2,2.2-2.2C798,390,799,391,799,392.2z"/>
	<path class="st1" d="M794.6,392.2c0,1.2-1,2.2-2.2,2.2c-1.2,0-2.2-1-2.2-2.2c0-1.2,1-2.2,2.2-2.2C793.6,390,794.6,391,794.6,392.2z
		"/>
	<path class="st1" d="M834.1,369.2c0,1.2-1,2.2-2.2,2.2c-1.2,0-2.2-1-2.2-2.2c0-1.2,1-2.2,2.2-2.2
		C833.1,367,834.1,367.9,834.1,369.2z"/>
	<path class="st1" d="M827.5,324.2c0,1.2-1,2.2-2.2,2.2c-1.2,0-2.2-1-2.2-2.2c0-1.2,1-2.2,2.2-2.2C826.5,322,827.5,323,827.5,324.2z
		"/>
	<path class="st1" d="M823.1,317.6c0,1.2-1,2.2-2.2,2.2c-1.2,0-2.2-1-2.2-2.2c0-1.2,1-2.2,2.2-2.2
		C822.1,315.5,823.1,316.4,823.1,317.6z"/>
	<path class="st1" d="M828.6,374.6c0,1.2-1,2.2-2.2,2.2c-1.2,0-2.2-1-2.2-2.2c0-1.2,1-2.2,2.2-2.2
		C827.6,372.4,828.6,373.4,828.6,374.6z"/>
	<path class="st1" d="M816.5,380.1c0,1.2-1,2.2-2.2,2.2c-1.2,0-2.2-1-2.2-2.2c0-1.2,1-2.2,2.2-2.2
		C815.6,377.9,816.5,378.9,816.5,380.1z"/>
</g>
</svg>
