<?xml version="1.0" encoding="utf-8"?>
<!-- Generator: Adobe Illustrator 28.2.0, SVG Export Plug-In . SVG Version: 6.00 Build 0)  -->
<svg version="1.1" id="Calque_1" xmlns="http://www.w3.org/2000/svg" xmlns:xlink="http://www.w3.org/1999/xlink" x="0px" y="0px"
	 viewBox="0 0 835 422" style="enable-background:new 0 0 835 422;" xml:space="preserve">
<style type="text/css">
	.st0{opacity:0.2;}
	.st1{fill-rule:evenodd;clip-rule:evenodd;fill:#F05801;}
</style>
<g class="st0">
	<path class="st1" d="M376.9,122.6c0,1.2-1,2.2-2.2,2.2s-2.2-1-2.2-2.2s1-2.2,2.2-2.2C376,120.4,376.9,121.4,376.9,122.6z"/>
	<path class="st1" d="M371.5,129.1c0,1.2-1,2.2-2.2,2.2s-2.2-1-2.2-2.2s1-2.2,2.2-2.2C370.5,127,371.5,127.9,371.5,129.1z"/>
	<path class="st1" d="M358.3,129.1c0,1.2-1,2.2-2.2,2.2s-2.2-1-2.2-2.2s1-2.2,2.2-2.2C357.3,127,358.3,127.9,358.3,129.1z"/>
	<path class="st1" d="M364.9,129.1c0,1.2-1,2.2-2.2,2.2s-2.2-1-2.2-2.2s1-2.2,2.2-2.2C363.9,127,364.9,127.9,364.9,129.1z"/>
	<path class="st1" d="M371.5,122.6c0,1.2-1,2.2-2.2,2.2s-2.2-1-2.2-2.2s1-2.2,2.2-2.2S371.5,121.4,371.5,122.6z"/>
	<path class="st1" d="M358.3,122.6c0,1.2-1,2.2-2.2,2.2s-2.2-1-2.2-2.2s1-2.2,2.2-2.2S358.3,121.4,358.3,122.6z"/>
	<path class="st1" d="M352.8,122.6c0,1.2-1,2.2-2.2,2.2s-2.2-1-2.2-2.2s1-2.2,2.2-2.2S352.8,121.4,352.8,122.6z"/>
	<path class="st1" d="M364.9,122.6c0,1.2-1,2.2-2.2,2.2s-2.2-1-2.2-2.2s1-2.2,2.2-2.2S364.9,121.4,364.9,122.6z"/>
	<path class="st1" d="M376.9,116c0,1.2-1,2.2-2.2,2.2s-2.2-1-2.2-2.2s1-2.2,2.2-2.2C376,113.8,376.9,114.8,376.9,116z"/>
	<path class="st1" d="M383.5,116c0,1.2-1,2.2-2.2,2.2s-2.2-1-2.2-2.2s1-2.2,2.2-2.2S383.5,114.8,383.5,116z"/>
	<path class="st1" d="M376.9,110.5c0,1.2-1,2.2-2.2,2.2s-2.2-1-2.2-2.2s1-2.2,2.2-2.2C376,108.3,376.9,109.3,376.9,110.5z"/>
	<path class="st1" d="M383.5,110.5c0,1.2-1,2.2-2.2,2.2s-2.2-1-2.2-2.2s1-2.2,2.2-2.2S383.5,109.3,383.5,110.5z"/>
	<path class="st1" d="M390.1,110.5c0,1.2-1,2.2-2.2,2.2s-2.2-1-2.2-2.2s1-2.2,2.2-2.2S390.1,109.3,390.1,110.5z"/>
	<path class="st1" d="M396.7,110.5c0,1.2-1,2.2-2.2,2.2s-2.2-1-2.2-2.2s1-2.2,2.2-2.2S396.7,109.3,396.7,110.5z"/>
	<path class="st1" d="M376.9,103.9c0,1.2-1,2.2-2.2,2.2s-2.2-1-2.2-2.2s1-2.2,2.2-2.2C376,101.7,376.9,102.7,376.9,103.9z"/>
	<path class="st1" d="M383.5,103.9c0,1.2-1,2.2-2.2,2.2s-2.2-1-2.2-2.2s1-2.2,2.2-2.2C382.5,101.7,383.5,102.7,383.5,103.9z"/>
	<path class="st1" d="M390.1,103.9c0,1.2-1,2.2-2.2,2.2s-2.2-1-2.2-2.2s1-2.2,2.2-2.2C389.1,101.7,390.1,102.7,390.1,103.9z"/>
	<path class="st1" d="M396.7,103.9c0,1.2-1,2.2-2.2,2.2s-2.2-1-2.2-2.2s1-2.2,2.2-2.2S396.7,102.7,396.7,103.9z"/>
	<path class="st1" d="M376.9,98.5c0,1.2-1,2.2-2.2,2.2s-2.2-1-2.2-2.2s1-2.2,2.2-2.2C376,96.3,376.9,97.2,376.9,98.5z"/>
	<path class="st1" d="M371.5,98.5c0,1.2-1,2.2-2.2,2.2s-2.2-1-2.2-2.2s1-2.2,2.2-2.2S371.5,97.2,371.5,98.5z"/>
	<path class="st1" d="M364.9,78.7c0,1.2-1,2.2-2.2,2.2s-2.2-1-2.2-2.2s1-2.2,2.2-2.2S364.9,77.5,364.9,78.7z"/>
	<path class="st1" d="M358.3,78.7c0,1.2-1,2.2-2.2,2.2s-2.2-1-2.2-2.2s1-2.2,2.2-2.2S358.3,77.5,358.3,78.7z"/>
	<path class="st1" d="M346.2,46.9c0,1.2-1,2.2-2.2,2.2s-2.2-1-2.2-2.2s1-2.2,2.2-2.2C345.3,44.8,346.2,45.7,346.2,46.9z"/>
	<path class="st1" d="M339.7,46.9c0,1.2-1,2.2-2.2,2.2s-2.2-1-2.2-2.2s1-2.2,2.2-2.2C338.7,44.8,339.7,45.7,339.7,46.9z"/>
	<path class="st1" d="M334.2,46.9c0,1.2-1,2.2-2.2,2.2s-2.2-1-2.2-2.2s1-2.2,2.2-2.2C333.2,44.8,334.2,45.7,334.2,46.9z"/>
	<path class="st1" d="M376.9,85.3c0,1.2-1,2.2-2.2,2.2s-2.2-1-2.2-2.2s1-2.2,2.2-2.2C376,83.1,376.9,84.1,376.9,85.3z"/>
	<path class="st1" d="M371.5,85.3c0,1.2-1,2.2-2.2,2.2s-2.2-1-2.2-2.2s1-2.2,2.2-2.2C370.5,83.1,371.5,84.1,371.5,85.3z"/>
	<path class="st1" d="M358.3,85.3c0,1.2-1,2.2-2.2,2.2s-2.2-1-2.2-2.2s1-2.2,2.2-2.2C357.3,83.1,358.3,84.1,358.3,85.3z"/>
	<path class="st1" d="M383.5,98.5c0,1.2-1,2.2-2.2,2.2s-2.2-1-2.2-2.2s1-2.2,2.2-2.2S383.5,97.2,383.5,98.5z"/>
	<path class="st1" d="M390.1,98.5c0,1.2-1,2.2-2.2,2.2s-2.2-1-2.2-2.2s1-2.2,2.2-2.2S390.1,97.2,390.1,98.5z"/>
	<path class="st1" d="M396.7,98.5c0,1.2-1,2.2-2.2,2.2s-2.2-1-2.2-2.2s1-2.2,2.2-2.2S396.7,97.2,396.7,98.5z"/>
	<path class="st1" d="M383.5,91.9c0,1.2-1,2.2-2.2,2.2s-2.2-1-2.2-2.2s1-2.2,2.2-2.2C382.5,89.7,383.5,90.7,383.5,91.9z"/>
	<path class="st1" d="M371.5,72.2c0,1.2-1,2.2-2.2,2.2s-2.2-1-2.2-2.2s1-2.2,2.2-2.2S371.5,70.9,371.5,72.2z"/>
	<path class="st1" d="M376.9,78.7c0,1.2-1,2.2-2.2,2.2s-2.2-1-2.2-2.2s1-2.2,2.2-2.2C376,76.5,376.9,77.5,376.9,78.7z"/>
	<path class="st1" d="M390.1,91.9c0,1.2-1,2.2-2.2,2.2s-2.2-1-2.2-2.2s1-2.2,2.2-2.2C389.1,89.7,390.1,90.7,390.1,91.9z"/>
	<path class="st1" d="M396.7,91.9c0,1.2-1,2.2-2.2,2.2s-2.2-1-2.2-2.2s1-2.2,2.2-2.2S396.7,90.7,396.7,91.9z"/>
	<path class="st1" d="M371.5,116c0,1.2-1,2.2-2.2,2.2s-2.2-1-2.2-2.2s1-2.2,2.2-2.2S371.5,114.8,371.5,116z"/>
	<path class="st1" d="M358.3,116c0,1.2-1,2.2-2.2,2.2s-2.2-1-2.2-2.2s1-2.2,2.2-2.2S358.3,114.8,358.3,116z"/>
	<path class="st1" d="M364.9,116c0,1.2-1,2.2-2.2,2.2s-2.2-1-2.2-2.2s1-2.2,2.2-2.2S364.9,114.8,364.9,116z"/>
	<path class="st1" d="M358.3,110.5c0,1.2-1,2.2-2.2,2.2s-2.2-1-2.2-2.2s1-2.2,2.2-2.2S358.3,109.3,358.3,110.5z"/>
	<path class="st1" d="M364.9,110.5c0,1.2-1,2.2-2.2,2.2s-2.2-1-2.2-2.2s1-2.2,2.2-2.2S364.9,109.3,364.9,110.5z"/>
	<path class="st1" d="M421.9,122.6c0,1.2-1,2.2-2.2,2.2s-2.2-1-2.2-2.2s1-2.2,2.2-2.2S421.9,121.4,421.9,122.6z"/>
	<path class="st1" d="M415.3,129.1c0,1.2-1,2.2-2.2,2.2s-2.2-1-2.2-2.2s1-2.2,2.2-2.2C414.3,127,415.3,127.9,415.3,129.1z"/>
	<path class="st1" d="M402.1,122.6c0,1.2-1,2.2-2.2,2.2s-2.2-1-2.2-2.2s1-2.2,2.2-2.2C401.2,120.4,402.1,121.4,402.1,122.6z"/>
	<path class="st1" d="M433.9,116c0,1.2-1,2.2-2.2,2.2s-2.2-1-2.2-2.2s1-2.2,2.2-2.2S433.9,114.8,433.9,116z"/>
	<path class="st1" d="M433.9,122.6c0,1.2-1,2.2-2.2,2.2s-2.2-1-2.2-2.2s1-2.2,2.2-2.2S433.9,121.4,433.9,122.6z"/>
	<path class="st1" d="M440.5,116c0,1.2-1,2.2-2.2,2.2s-2.2-1-2.2-2.2s1-2.2,2.2-2.2S440.5,114.8,440.5,116z"/>
	<path class="st1" d="M447.1,116c0,1.2-1,2.2-2.2,2.2s-2.2-1-2.2-2.2s1-2.2,2.2-2.2S447.1,114.8,447.1,116z"/>
	<path class="st1" d="M440.5,129.1c0,1.2-1,2.2-2.2,2.2s-2.2-1-2.2-2.2s1-2.2,2.2-2.2C439.5,127,440.5,127.9,440.5,129.1z"/>
	<path class="st1" d="M453.7,116c0,1.2-1,2.2-2.2,2.2s-2.2-1-2.2-2.2s1-2.2,2.2-2.2S453.7,114.8,453.7,116z"/>
	<path class="st1" d="M453.7,122.6c0,1.2-1,2.2-2.2,2.2s-2.2-1-2.2-2.2s1-2.2,2.2-2.2S453.7,121.4,453.7,122.6z"/>
	<path class="st1" d="M459.2,122.6c0,1.2-1,2.2-2.2,2.2s-2.2-1-2.2-2.2s1-2.2,2.2-2.2S459.2,121.4,459.2,122.6z"/>
	<path class="st1" d="M465.7,116c0,1.2-1,2.2-2.2,2.2s-2.2-1-2.2-2.2s1-2.2,2.2-2.2C464.8,113.8,465.7,114.8,465.7,116z"/>
	<path class="st1" d="M465.7,122.6c0,1.2-1,2.2-2.2,2.2s-2.2-1-2.2-2.2s1-2.2,2.2-2.2C464.8,120.4,465.7,121.4,465.7,122.6z"/>
	<path class="st1" d="M472.3,116c0,1.2-1,2.2-2.2,2.2s-2.2-1-2.2-2.2s1-2.2,2.2-2.2S472.3,114.8,472.3,116z"/>
	<path class="st1" d="M472.3,122.6c0,1.2-1,2.2-2.2,2.2s-2.2-1-2.2-2.2s1-2.2,2.2-2.2S472.3,121.4,472.3,122.6z"/>
	<path class="st1" d="M453.7,129.1c0,1.2-1,2.2-2.2,2.2s-2.2-1-2.2-2.2s1-2.2,2.2-2.2C452.7,127,453.7,127.9,453.7,129.1z"/>
	<path class="st1" d="M459.2,129.2c0,1.2-1.1,2.2-2.3,2.1c-1.2,0-2.2-1.1-2.1-2.3c0-1.2,1.1-2.2,2.3-2.1S459.2,128,459.2,129.2z"/>
	<path class="st1" d="M465.7,129.1c0,1.2-1,2.2-2.2,2.2s-2.2-1-2.2-2.2s1-2.2,2.2-2.2C464.8,127,465.7,127.9,465.7,129.1z"/>
	<path class="st1" d="M472.3,129.1c0,1.2-1,2.2-2.2,2.2s-2.2-1-2.2-2.2s1-2.2,2.2-2.2C471.3,127,472.3,127.9,472.3,129.1z"/>
	<path class="st1" d="M421.9,103.9c0,1.2-1,2.2-2.2,2.2s-2.2-1-2.2-2.2s1-2.2,2.2-2.2C420.9,101.7,421.9,102.7,421.9,103.9z"/>
	<path class="st1" d="M421.9,110.5c0,1.2-1,2.2-2.2,2.2s-2.2-1-2.2-2.2s1-2.2,2.2-2.2S421.9,109.3,421.9,110.5z"/>
	<path class="st1" d="M428.5,103.9c0,1.2-1,2.2-2.2,2.2s-2.2-1-2.2-2.2s1-2.2,2.2-2.2C427.5,101.7,428.5,102.7,428.5,103.9z"/>
	<path class="st1" d="M428.5,110.5c0,1.2-1,2.2-2.2,2.2s-2.2-1-2.2-2.2s1-2.2,2.2-2.2S428.5,109.3,428.5,110.5z"/>
	<path class="st1" d="M433.9,103.9c0,1.2-1,2.2-2.2,2.2s-2.2-1-2.2-2.2s1-2.2,2.2-2.2S433.9,102.7,433.9,103.9z"/>
	<path class="st1" d="M433.9,110.5c0,1.2-1,2.2-2.2,2.2s-2.2-1-2.2-2.2s1-2.2,2.2-2.2S433.9,109.3,433.9,110.5z"/>
	<path class="st1" d="M440.5,103.9c0,1.2-1,2.2-2.2,2.2s-2.2-1-2.2-2.2s1-2.2,2.2-2.2C439.5,101.7,440.5,102.7,440.5,103.9z"/>
	<path class="st1" d="M440.5,110.5c0,1.2-1,2.2-2.2,2.2s-2.2-1-2.2-2.2s1-2.2,2.2-2.2S440.5,109.3,440.5,110.5z"/>
	<path class="st1" d="M447.1,103.9c0,1.2-1,2.2-2.2,2.2s-2.2-1-2.2-2.2s1-2.2,2.2-2.2C446.1,101.7,447.1,102.7,447.1,103.9z"/>
	<path class="st1" d="M447.1,110.5c0,1.2-1,2.2-2.2,2.2s-2.2-1-2.2-2.2s1-2.2,2.2-2.2S447.1,109.3,447.1,110.5z"/>
	<path class="st1" d="M453.7,103.9c0,1.2-1,2.2-2.2,2.2s-2.2-1-2.2-2.2s1-2.2,2.2-2.2C452.7,101.7,453.7,102.7,453.7,103.9z"/>
	<path class="st1" d="M453.7,110.5c0,1.2-1,2.2-2.2,2.2s-2.2-1-2.2-2.2s1-2.2,2.2-2.2S453.7,109.3,453.7,110.5z"/>
	<path class="st1" d="M465.7,103.9c0,1.2-1,2.2-2.2,2.2s-2.2-1-2.2-2.2s1-2.2,2.2-2.2C464.8,101.7,465.7,102.7,465.7,103.9z"/>
	<path class="st1" d="M421.9,90.8c0,1.2-1,2.2-2.2,2.2s-2.2-1-2.2-2.2s1-2.2,2.2-2.2C420.9,88.6,421.9,89.6,421.9,90.8z"/>
	<path class="st1" d="M421.9,97.4c0,1.2-1,2.2-2.2,2.2s-2.2-1-2.2-2.2s1-2.2,2.2-2.2C420.9,95.2,421.9,96.2,421.9,97.4z"/>
	<path class="st1" d="M428.5,90.8c0,1.2-1,2.2-2.2,2.2s-2.2-1-2.2-2.2s1-2.2,2.2-2.2C427.5,88.6,428.5,89.6,428.5,90.8z"/>
	<path class="st1" d="M428.5,97.4c0,1.2-1,2.2-2.2,2.2s-2.2-1-2.2-2.2s1-2.2,2.2-2.2C427.5,95.2,428.5,96.2,428.5,97.4z"/>
	<path class="st1" d="M433.9,90.8c0,1.2-1,2.2-2.2,2.2s-2.2-1-2.2-2.2s1-2.2,2.2-2.2S433.9,89.6,433.9,90.8z"/>
	<path class="st1" d="M433.9,97.4c0,1.2-1,2.2-2.2,2.2s-2.2-1-2.2-2.2s1-2.2,2.2-2.2S433.9,96.2,433.9,97.4z"/>
	<path class="st1" d="M440.5,90.8c0,1.2-1,2.2-2.2,2.2s-2.2-1-2.2-2.2s1-2.2,2.2-2.2C439.5,88.6,440.5,89.6,440.5,90.8z"/>
	<path class="st1" d="M440.5,97.4c0,1.2-1,2.2-2.2,2.2s-2.2-1-2.2-2.2s1-2.2,2.2-2.2C439.5,95.2,440.5,96.2,440.5,97.4z"/>
	<path class="st1" d="M447.1,90.8c0,1.2-1,2.2-2.2,2.2s-2.2-1-2.2-2.2s1-2.2,2.2-2.2C446.1,88.6,447.1,89.6,447.1,90.8z"/>
	<path class="st1" d="M447.1,97.4c0,1.2-1,2.2-2.2,2.2s-2.2-1-2.2-2.2s1-2.2,2.2-2.2C446.1,95.2,447.1,96.2,447.1,97.4z"/>
	<path class="st1" d="M453.7,90.8c0,1.2-1,2.2-2.2,2.2s-2.2-1-2.2-2.2s1-2.2,2.2-2.2C452.7,88.6,453.7,89.6,453.7,90.8z"/>
	<path class="st1" d="M453.7,97.4c0,1.2-1,2.2-2.2,2.2s-2.2-1-2.2-2.2s1-2.2,2.2-2.2C452.7,95.2,453.7,96.2,453.7,97.4z"/>
	<path class="st1" d="M459.2,90.8c0,1.2-1,2.2-2.2,2.2s-2.2-1-2.2-2.2s1-2.2,2.2-2.2C458.2,88.6,459.2,89.6,459.2,90.8z"/>
	<path class="st1" d="M459.2,97.4c0,1.2-1,2.2-2.2,2.2s-2.2-1-2.2-2.2s1-2.2,2.2-2.2C458.2,95.2,459.2,96.2,459.2,97.4z"/>
	<path class="st1" d="M465.7,90.8c0,1.2-1,2.2-2.2,2.2s-2.2-1-2.2-2.2s1-2.2,2.2-2.2C464.8,88.6,465.7,89.6,465.7,90.8z"/>
	<path class="st1" d="M465.7,97.4c0,1.2-1,2.2-2.2,2.2s-2.2-1-2.2-2.2s1-2.2,2.2-2.2C464.8,95.2,465.7,96.2,465.7,97.4z"/>
	<path class="st1" d="M472.3,78.7c0,1.2-1,2.2-2.2,2.2s-2.2-1-2.2-2.2s1-2.2,2.2-2.2S472.3,77.5,472.3,78.7z"/>
	<path class="st1" d="M421.9,85.3c0,1.2-1,2.2-2.2,2.2s-2.2-1-2.2-2.2s1-2.2,2.2-2.2C420.9,83.1,421.9,84.1,421.9,85.3z"/>
	<path class="st1" d="M428.5,85.3c0,1.2-1,2.2-2.2,2.2s-2.2-1-2.2-2.2s1-2.2,2.2-2.2C427.5,83.1,428.5,84.1,428.5,85.3z"/>
	<path class="st1" d="M433.9,85.3c0,1.2-1,2.2-2.2,2.2s-2.2-1-2.2-2.2s1-2.2,2.2-2.2S433.9,84.1,433.9,85.3z"/>
	<path class="st1" d="M440.5,85.3c0,1.2-1,2.2-2.2,2.2s-2.2-1-2.2-2.2s1-2.2,2.2-2.2C439.5,83.1,440.5,84.1,440.5,85.3z"/>
	<path class="st1" d="M447.1,85.3c0,1.2-1,2.2-2.2,2.2s-2.2-1-2.2-2.2s1-2.2,2.2-2.2C446.1,83.1,447.1,84.1,447.1,85.3z"/>
	<path class="st1" d="M453.7,85.3c0,1.2-1,2.2-2.2,2.2s-2.2-1-2.2-2.2s1-2.2,2.2-2.2C452.7,83.1,453.7,84.1,453.7,85.3z"/>
	<path class="st1" d="M459.2,85.3c0,1.2-1,2.2-2.2,2.2s-2.2-1-2.2-2.2s1-2.2,2.2-2.2C458.2,83.1,459.2,84.1,459.2,85.3z"/>
	<path class="st1" d="M465.7,85.3c0,1.2-1,2.2-2.2,2.2s-2.2-1-2.2-2.2s1-2.2,2.2-2.2C464.8,83.1,465.7,84.1,465.7,85.3z"/>
	<path class="st1" d="M421.9,78.7c0,1.2-1,2.2-2.2,2.2s-2.2-1-2.2-2.2s1-2.2,2.2-2.2S421.9,77.5,421.9,78.7z"/>
	<path class="st1" d="M428.5,78.7c0,1.2-1,2.2-2.2,2.2s-2.2-1-2.2-2.2s1-2.2,2.2-2.2S428.5,77.5,428.5,78.7z"/>
	<path class="st1" d="M409.8,103.9c0,1.2-1,2.2-2.2,2.2s-2.2-1-2.2-2.2s1-2.2,2.2-2.2C408.8,101.7,409.8,102.7,409.8,103.9z"/>
	<path class="st1" d="M409.8,110.5c0,1.2-1,2.2-2.2,2.2s-2.2-1-2.2-2.2s1-2.2,2.2-2.2S409.8,109.3,409.8,110.5z"/>
	<path class="st1" d="M415.3,103.9c0,1.2-1,2.2-2.2,2.2s-2.2-1-2.2-2.2s1-2.2,2.2-2.2C414.3,101.7,415.3,102.7,415.3,103.9z"/>
	<path class="st1" d="M415.3,117.1c0,1.2-1,2.2-2.2,2.2s-2.2-1-2.2-2.2s1-2.2,2.2-2.2S415.3,115.9,415.3,117.1z"/>
	<path class="st1" d="M409.8,90.8c0,1.2-1,2.2-2.2,2.2s-2.2-1-2.2-2.2s1-2.2,2.2-2.2C408.8,88.6,409.8,89.6,409.8,90.8z"/>
	<path class="st1" d="M409.8,97.4c0,1.2-1,2.2-2.2,2.2s-2.2-1-2.2-2.2s1-2.2,2.2-2.2C408.8,95.2,409.8,96.2,409.8,97.4z"/>
	<path class="st1" d="M415.3,90.8c0,1.2-1,2.2-2.2,2.2s-2.2-1-2.2-2.2s1-2.2,2.2-2.2C414.3,88.6,415.3,89.6,415.3,90.8z"/>
	<path class="st1" d="M415.3,97.4c0,1.2-1,2.2-2.2,2.2s-2.2-1-2.2-2.2s1-2.2,2.2-2.2C414.3,95.2,415.3,96.2,415.3,97.4z"/>
	<path class="st1" d="M409.8,85.3c0,1.2-1,2.2-2.2,2.2s-2.2-1-2.2-2.2s1-2.2,2.2-2.2C408.8,83.1,409.8,84.1,409.8,85.3z"/>
	<path class="st1" d="M415.3,85.3c0,1.2-1,2.2-2.2,2.2s-2.2-1-2.2-2.2s1-2.2,2.2-2.2C414.3,83.1,415.3,84.1,415.3,85.3z"/>
	<path class="st1" d="M409.8,78.7c0,1.2-1,2.2-2.2,2.2s-2.2-1-2.2-2.2s1-2.2,2.2-2.2S409.8,77.5,409.8,78.7z"/>
	<path class="st1" d="M403.2,72.2c0,1.2-1,2.2-2.2,2.2s-2.2-1-2.2-2.2s1-2.2,2.2-2.2C402.3,70,403.2,70.9,403.2,72.2z"/>
	<path class="st1" d="M403.2,103.9c0,1.2-1,2.2-2.2,2.2s-2.2-1-2.2-2.2s1-2.2,2.2-2.2C402.3,101.7,403.2,102.7,403.2,103.9z"/>
	<path class="st1" d="M403.2,90.8c0,1.2-1,2.2-2.2,2.2s-2.2-1-2.2-2.2s1-2.2,2.2-2.2C402.3,88.6,403.2,89.6,403.2,90.8z"/>
	<path class="st1" d="M403.2,97.4c0,1.2-1,2.2-2.2,2.2s-2.2-1-2.2-2.2s1-2.2,2.2-2.2C402.3,95.2,403.2,96.2,403.2,97.4z"/>
	<path class="st1" d="M403.2,85.3c0,1.2-1,2.2-2.2,2.2s-2.2-1-2.2-2.2s1-2.2,2.2-2.2C402.3,83.1,403.2,84.1,403.2,85.3z"/>
	<path class="st1" d="M396.7,85.3c0,1.2-1,2.2-2.2,2.2s-2.2-1-2.2-2.2s1-2.2,2.2-2.2S396.7,84.1,396.7,85.3z"/>
	<path class="st1" d="M390.1,85.3c0,1.2-1,2.2-2.2,2.2s-2.2-1-2.2-2.2s1-2.2,2.2-2.2C389.1,83.1,390.1,84.1,390.1,85.3z"/>
	<path class="st1" d="M403.2,78.7c0,1.2-1,2.2-2.2,2.2s-2.2-1-2.2-2.2s1-2.2,2.2-2.2C402.3,76.5,403.2,77.5,403.2,78.7z"/>
	<path class="st1" d="M415.3,78.7c0,1.2-1,2.2-2.2,2.2s-2.2-1-2.2-2.2s1-2.2,2.2-2.2S415.3,77.5,415.3,78.7z"/>
	<path class="st1" d="M433.9,78.7c0,1.2-1,2.2-2.2,2.2s-2.2-1-2.2-2.2s1-2.2,2.2-2.2S433.9,77.5,433.9,78.7z"/>
	<path class="st1" d="M440.5,78.7c0,1.2-1,2.2-2.2,2.2s-2.2-1-2.2-2.2s1-2.2,2.2-2.2S440.5,77.5,440.5,78.7z"/>
	<path class="st1" d="M447.1,78.7c0,1.2-1,2.2-2.2,2.2s-2.2-1-2.2-2.2s1-2.2,2.2-2.2S447.1,77.5,447.1,78.7z"/>
	<path class="st1" d="M453.7,78.7c0,1.2-1,2.2-2.2,2.2s-2.2-1-2.2-2.2s1-2.2,2.2-2.2S453.7,77.5,453.7,78.7z"/>
	<path class="st1" d="M459.2,78.7c0,1.2-1,2.2-2.2,2.2s-2.2-1-2.2-2.2s1-2.2,2.2-2.2S459.2,77.5,459.2,78.7z"/>
	<path class="st1" d="M465.7,78.7c0,1.2-1,2.2-2.2,2.2s-2.2-1-2.2-2.2s1-2.2,2.2-2.2C464.8,76.5,465.7,77.5,465.7,78.7z"/>
	<path class="st1" d="M472.3,90.8c0,1.2-1,2.2-2.2,2.2s-2.2-1-2.2-2.2s1-2.2,2.2-2.2C471.3,88.6,472.3,89.6,472.3,90.8z"/>
	<path class="st1" d="M472.3,98.5c0,1.2-1,2.2-2.2,2.2s-2.2-1-2.2-2.2s1-2.2,2.2-2.2S472.3,97.2,472.3,98.5z"/>
	<path class="st1" d="M433.9,72.2c0,1.2-1,2.2-2.2,2.2s-2.2-1-2.2-2.2s1-2.2,2.2-2.2S433.9,70.9,433.9,72.2z"/>
	<path class="st1" d="M440.5,72.2c0,1.2-1,2.2-2.2,2.2s-2.2-1-2.2-2.2s1-2.2,2.2-2.2S440.5,70.9,440.5,72.2z"/>
	<path class="st1" d="M447.1,72.2c0,1.2-1,2.2-2.2,2.2s-2.2-1-2.2-2.2s1-2.2,2.2-2.2S447.1,70.9,447.1,72.2z"/>
	<path class="st1" d="M453.7,72.2c0,1.2-1,2.2-2.2,2.2s-2.2-1-2.2-2.2s1-2.2,2.2-2.2S453.7,70.9,453.7,72.2z"/>
	<path class="st1" d="M459.2,72.2c0,1.2-1,2.2-2.2,2.2s-2.2-1-2.2-2.2s1-2.2,2.2-2.2S459.2,70.9,459.2,72.2z"/>
	<path class="st1" d="M465.7,72.2c0,1.2-1,2.2-2.2,2.2s-2.2-1-2.2-2.2s1-2.2,2.2-2.2C464.8,70,465.7,70.9,465.7,72.2z"/>
	<path class="st1" d="M472.3,72.2c0,1.2-1,2.2-2.2,2.2s-2.2-1-2.2-2.2s1-2.2,2.2-2.2S472.3,70.9,472.3,72.2z"/>
	<path class="st1" d="M440.5,66.7c0,1.2-1,2.2-2.2,2.2s-2.2-1-2.2-2.2s1-2.2,2.2-2.2S440.5,65.5,440.5,66.7z"/>
	<path class="st1" d="M447.1,66.7c0,1.2-1,2.2-2.2,2.2s-2.2-1-2.2-2.2s1-2.2,2.2-2.2S447.1,65.5,447.1,66.7z"/>
	<path class="st1" d="M453.7,66.7c0,1.2-1,2.2-2.2,2.2s-2.2-1-2.2-2.2s1-2.2,2.2-2.2S453.7,65.5,453.7,66.7z"/>
	<path class="st1" d="M459.2,66.7c0,1.2-1,2.2-2.2,2.2s-2.2-1-2.2-2.2s1-2.2,2.2-2.2S459.2,65.5,459.2,66.7z"/>
	<path class="st1" d="M465.7,66.7c0,1.2-1,2.2-2.2,2.2s-2.2-1-2.2-2.2s1-2.2,2.2-2.2C464.8,64.5,465.7,65.5,465.7,66.7z"/>
	<path class="st1" d="M421.9,60.1c0,1.2-1,2.2-2.2,2.2s-2.2-1-2.2-2.2s1-2.2,2.2-2.2C420.9,57.9,421.9,58.9,421.9,60.1z"/>
	<path class="st1" d="M421.9,53.5c0,1.2-1,2.2-2.2,2.2s-2.2-1-2.2-2.2s1-2.2,2.2-2.2S421.9,52.3,421.9,53.5z"/>
	<path class="st1" d="M409.8,72.2c0,1.2-1,2.2-2.2,2.2s-2.2-1-2.2-2.2s1-2.2,2.2-2.2S409.8,70.9,409.8,72.2z"/>
	<path class="st1" d="M415.3,72.2c0,1.2-1,2.2-2.2,2.2s-2.2-1-2.2-2.2s1-2.2,2.2-2.2S415.3,70.9,415.3,72.2z"/>
	<path class="st1" d="M409.8,66.7c0,1.2-1,2.2-2.2,2.2s-2.2-1-2.2-2.2s1-2.2,2.2-2.2S409.8,65.5,409.8,66.7z"/>
	<path class="st1" d="M415.3,66.7c0,1.2-1,2.2-2.2,2.2s-2.2-1-2.2-2.2s1-2.2,2.2-2.2S415.3,65.5,415.3,66.7z"/>
	<path class="st1" d="M409.8,60.1c0,1.2-1,2.2-2.2,2.2s-2.2-1-2.2-2.2s1-2.2,2.2-2.2C408.8,57.9,409.8,58.9,409.8,60.1z"/>
	<path class="st1" d="M403.2,53.5c0,1.2-1,2.2-2.2,2.2s-2.2-1-2.2-2.2s1-2.2,2.2-2.2C402.3,51.3,403.2,52.3,403.2,53.5z"/>
	<path class="st1" d="M403.2,60.1c0,1.2-1,2.2-2.2,2.2s-2.2-1-2.2-2.2s1-2.2,2.2-2.2C402.3,57.9,403.2,58.9,403.2,60.1z"/>
	<path class="st1" d="M396.7,53.5c0,1.2-1,2.2-2.2,2.2s-2.2-1-2.2-2.2s1-2.2,2.2-2.2S396.7,52.3,396.7,53.5z"/>
	<path class="st1" d="M396.7,60.1c0,1.2-1,2.2-2.2,2.2s-2.2-1-2.2-2.2s1-2.2,2.2-2.2C395.7,57.9,396.7,58.9,396.7,60.1z"/>
	<path class="st1" d="M415.3,60.1c0,1.2-1,2.2-2.2,2.2s-2.2-1-2.2-2.2s1-2.2,2.2-2.2C414.3,57.9,415.3,58.9,415.3,60.1z"/>
	<path class="st1" d="M409.8,53.5c0,1.2-1,2.2-2.2,2.2s-2.2-1-2.2-2.2s1-2.2,2.2-2.2S409.8,52.3,409.8,53.5z"/>
	<path class="st1" d="M415.3,53.5c0,1.2-1,2.2-2.2,2.2s-2.2-1-2.2-2.2s1-2.2,2.2-2.2S415.3,52.3,415.3,53.5z"/>
	<path class="st1" d="M409.8,46.9c0,1.2-1,2.2-2.2,2.2s-2.2-1-2.2-2.2s1-2.2,2.2-2.2C408.8,44.8,409.8,45.7,409.8,46.9z"/>
	<path class="st1" d="M415.3,46.9c0,1.2-1,2.2-2.2,2.2s-2.2-1-2.2-2.2s1-2.2,2.2-2.2C414.3,44.8,415.3,45.7,415.3,46.9z"/>
	<path class="st1" d="M415.3,41.5c0,1.2-1,2.2-2.2,2.2s-2.2-1-2.2-2.2s1-2.2,2.2-2.2S415.3,40.3,415.3,41.5z"/>
	<path class="st1" d="M433.9,60.1c0,1.2-1,2.2-2.2,2.2s-2.2-1-2.2-2.2s1-2.2,2.2-2.2S433.9,58.9,433.9,60.1z"/>
	<path class="st1" d="M440.5,60.1c0,1.2-1,2.2-2.2,2.2s-2.2-1-2.2-2.2s1-2.2,2.2-2.2C439.5,57.9,440.5,58.9,440.5,60.1z"/>
	<path class="st1" d="M447.1,60.1c0,1.2-1,2.2-2.2,2.2s-2.2-1-2.2-2.2s1-2.2,2.2-2.2C446.1,57.9,447.1,58.9,447.1,60.1z"/>
	<path class="st1" d="M453.7,60.1c0,1.2-1,2.2-2.2,2.2s-2.2-1-2.2-2.2s1-2.2,2.2-2.2C452.7,57.9,453.7,58.9,453.7,60.1z"/>
	<path class="st1" d="M459.2,60.1c0,1.2-1,2.2-2.2,2.2s-2.2-1-2.2-2.2s1-2.2,2.2-2.2C458.2,57.9,459.2,58.9,459.2,60.1z"/>
	<path class="st1" d="M465.7,60.1c0,1.2-1,2.2-2.2,2.2s-2.2-1-2.2-2.2s1-2.2,2.2-2.2C464.8,57.9,465.7,58.9,465.7,60.1z"/>
	<path class="st1" d="M465.7,41.5c0,1.2-1,2.2-2.2,2.2s-2.2-1-2.2-2.2s1-2.2,2.2-2.2S465.7,40.3,465.7,41.5z"/>
	<path class="st1" d="M472.3,66.7c0,1.2-1,2.2-2.2,2.2s-2.2-1-2.2-2.2s1-2.2,2.2-2.2S472.3,65.5,472.3,66.7z"/>
	<path class="st1" d="M472.3,60.1c0,1.2-1,2.2-2.2,2.2s-2.2-1-2.2-2.2s1-2.2,2.2-2.2C471.3,57.9,472.3,58.9,472.3,60.1z"/>
	<path class="st1" d="M472.3,53.5c0,1.2-1,2.2-2.2,2.2s-2.2-1-2.2-2.2s1-2.2,2.2-2.2S472.3,52.3,472.3,53.5z"/>
	<path class="st1" d="M465.7,53.5c0,1.2-1,2.2-2.2,2.2s-2.2-1-2.2-2.2s1-2.2,2.2-2.2S465.7,52.3,465.7,53.5z"/>
	<path class="st1" d="M472.3,46.9c0,1.2-1,2.2-2.2,2.2s-2.2-1-2.2-2.2s1-2.2,2.2-2.2C471.3,44.8,472.3,45.7,472.3,46.9z"/>
	<path class="st1" d="M453.7,53.5c0,1.2-1,2.2-2.2,2.2s-2.2-1-2.2-2.2s1-2.2,2.2-2.2S453.7,52.3,453.7,53.5z"/>
	<path class="st1" d="M459.2,53.5c0,1.2-1,2.2-2.2,2.2s-2.2-1-2.2-2.2s1-2.2,2.2-2.2S459.2,52.3,459.2,53.5z"/>
	<path class="st1" d="M453.7,46.9c0,1.2-1,2.2-2.2,2.2s-2.2-1-2.2-2.2s1-2.2,2.2-2.2C452.7,44.8,453.7,45.7,453.7,46.9z"/>
	<path class="st1" d="M459.2,46.9c0,1.2-1,2.2-2.2,2.2s-2.2-1-2.2-2.2s1-2.2,2.2-2.2C458.2,44.8,459.2,45.7,459.2,46.9z"/>
	<path class="st1" d="M440.5,53.5c0,1.2-1,2.2-2.2,2.2s-2.2-1-2.2-2.2s1-2.2,2.2-2.2S440.5,52.3,440.5,53.5z"/>
	<path class="st1" d="M447.1,53.5c0,1.2-1,2.2-2.2,2.2s-2.2-1-2.2-2.2s1-2.2,2.2-2.2S447.1,52.3,447.1,53.5z"/>
	<path class="st1" d="M440.5,46.9c0,1.2-1,2.2-2.2,2.2s-2.2-1-2.2-2.2s1-2.2,2.2-2.2C439.5,44.8,440.5,45.7,440.5,46.9z"/>
	<path class="st1" d="M447.1,46.9c0,1.2-1,2.2-2.2,2.2s-2.2-1-2.2-2.2s1-2.2,2.2-2.2C446.1,44.8,447.1,45.7,447.1,46.9z"/>
	<path class="st1" d="M435,53.5c0,1.2-1,2.2-2.2,2.2s-2.2-1-2.2-2.2s1-2.2,2.2-2.2C434.1,51.3,435,52.3,435,53.5z"/>
	<path class="st1" d="M435,46.9c0,1.2-1,2.2-2.2,2.2s-2.2-1-2.2-2.2s1-2.2,2.2-2.2C434.1,44.8,435,45.7,435,46.9z"/>
	<path class="st1" d="M453.7,41.5c0,1.2-1,2.2-2.2,2.2s-2.2-1-2.2-2.2s1-2.2,2.2-2.2S453.7,40.3,453.7,41.5z"/>
	<path class="st1" d="M459.2,41.5c0,1.2-1,2.2-2.2,2.2s-2.2-1-2.2-2.2s1-2.2,2.2-2.2S459.2,40.3,459.2,41.5z"/>
	<path class="st1" d="M440.5,41.5c0,1.2-1,2.2-2.2,2.2s-2.2-1-2.2-2.2s1-2.2,2.2-2.2S440.5,40.3,440.5,41.5z"/>
	<path class="st1" d="M447.1,41.5c0,1.2-1,2.2-2.2,2.2s-2.2-1-2.2-2.2s1-2.2,2.2-2.2S447.1,40.3,447.1,41.5z"/>
	<path class="st1" d="M435,41.5c0,1.2-1,2.2-2.2,2.2s-2.2-1-2.2-2.2s1-2.2,2.2-2.2C434.1,39.3,435,40.3,435,41.5z"/>
	<path class="st1" d="M453.7,34.9c0,1.2-1,2.2-2.2,2.2s-2.2-1-2.2-2.2s1-2.2,2.2-2.2S453.7,33.7,453.7,34.9z"/>
	<path class="st1" d="M459.2,34.9c0,1.2-1,2.2-2.2,2.2s-2.2-1-2.2-2.2s1-2.2,2.2-2.2S459.2,33.7,459.2,34.9z"/>
	<path class="st1" d="M440.5,34.9c0,1.2-1,2.2-2.2,2.2s-2.2-1-2.2-2.2s1-2.2,2.2-2.2S440.5,33.7,440.5,34.9z"/>
	<path class="st1" d="M447.1,34.9c0,1.2-1,2.2-2.2,2.2s-2.2-1-2.2-2.2s1-2.2,2.2-2.2S447.1,33.7,447.1,34.9z"/>
	<path class="st1" d="M435,34.9c0,1.2-1,2.2-2.2,2.2s-2.2-1-2.2-2.2s1-2.2,2.2-2.2C434.1,32.7,435,33.7,435,34.9z"/>
	<path class="st1" d="M428.5,46.9c0,1.2-1,2.2-2.2,2.2s-2.2-1-2.2-2.2s1-2.2,2.2-2.2C427.5,44.8,428.5,45.7,428.5,46.9z"/>
	<path class="st1" d="M428.5,41.5c0,1.2-1,2.2-2.2,2.2s-2.2-1-2.2-2.2s1-2.2,2.2-2.2S428.5,40.3,428.5,41.5z"/>
	<path class="st1" d="M428.5,34.9c0,1.2-1,2.2-2.2,2.2s-2.2-1-2.2-2.2s1-2.2,2.2-2.2S428.5,33.7,428.5,34.9z"/>
	<path class="st1" d="M421.9,46.9c0,1.2-1,2.2-2.2,2.2s-2.2-1-2.2-2.2s1-2.2,2.2-2.2C420.9,44.8,421.9,45.7,421.9,46.9z"/>
	<path class="st1" d="M421.9,41.5c0,1.2-1,2.2-2.2,2.2s-2.2-1-2.2-2.2s1-2.2,2.2-2.2S421.9,40.3,421.9,41.5z"/>
	<path class="st1" d="M421.9,34.9c0,1.2-1,2.2-2.2,2.2s-2.2-1-2.2-2.2s1-2.2,2.2-2.2S421.9,33.7,421.9,34.9z"/>
	<path class="st1" d="M435,16.3c0,1.2-1,2.2-2.2,2.2s-2.2-1-2.2-2.2s1-2.2,2.2-2.2C434.1,14.1,435,15.1,435,16.3z"/>
	<path class="st1" d="M428.5,16.3c0,1.2-1,2.2-2.2,2.2s-2.2-1-2.2-2.2s1-2.2,2.2-2.2C427.5,14.1,428.5,15.1,428.5,16.3z"/>
	<path class="st1" d="M435,9.7c0,1.2-1,2.2-2.2,2.2s-2.2-1-2.2-2.2s1-2.2,2.2-2.2C434.1,7.5,435,8.5,435,9.7z"/>
	<path class="st1" d="M428.5,9.7c0,1.2-1,2.2-2.2,2.2s-2.2-1-2.2-2.2s1-2.2,2.2-2.2S428.5,8.5,428.5,9.7z"/>
	<path class="st1" d="M421.9,16.3c0,1.2-1,2.2-2.2,2.2s-2.2-1-2.2-2.2s1-2.2,2.2-2.2C420.9,14.1,421.9,15.1,421.9,16.3z"/>
	<path class="st1" d="M415.3,16.3c0,1.2-1,2.2-2.2,2.2s-2.2-1-2.2-2.2s1-2.2,2.2-2.2C414.3,14.1,415.3,15.1,415.3,16.3z"/>
	<path class="st1" d="M472.3,85.3c0,1.2-1,2.2-2.2,2.2s-2.2-1-2.2-2.2s1-2.2,2.2-2.2C471.3,83.1,472.3,84.1,472.3,85.3z"/>
</g>
</svg>
