<?xml version="1.0" encoding="utf-8"?>
<!-- Generator: Adobe Illustrator 28.2.0, SVG Export Plug-In . SVG Version: 6.00 Build 0)  -->
<svg version="1.1" id="Calque_1" xmlns="http://www.w3.org/2000/svg" xmlns:xlink="http://www.w3.org/1999/xlink" x="0px" y="0px"
	 viewBox="0 0 835 422" style="enable-background:new 0 0 835 422;" xml:space="preserve">
<style type="text/css">
	.st0{opacity:0.2;}
	.st1{fill-rule:evenodd;clip-rule:evenodd;fill:#F05801;}
</style>
<g class="st0">
	<path class="st1" d="M490.9,90.8c0,1.2-1,2.2-2.2,2.2c-1.2,0-2.2-1-2.2-2.2c0-1.2,1-2.2,2.2-2.2C490,88.6,490.9,89.6,490.9,90.8z"
		/>
	<path class="st1" d="M497.5,90.8c0,1.2-1,2.2-2.2,2.2c-1.2,0-2.2-1-2.2-2.2c0-1.2,1-2.2,2.2-2.2C496.5,88.6,497.5,89.6,497.5,90.8z
		"/>
	<path class="st1" d="M504.1,90.8c0,1.2-1,2.2-2.2,2.2c-1.2,0-2.2-1-2.2-2.2c0-1.2,1-2.2,2.2-2.2C503.1,88.6,504.1,89.6,504.1,90.8z
		"/>
	<path class="st1" d="M509.6,90.8c0,1.2-1,2.2-2.2,2.2s-2.2-1-2.2-2.2c0-1.2,1-2.2,2.2-2.2S509.6,89.6,509.6,90.8z"/>
	<path class="st1" d="M516.2,90.8c0,1.2-1,2.2-2.2,2.2c-1.2,0-2.2-1-2.2-2.2c0-1.2,1-2.2,2.2-2.2C515.2,88.6,516.2,89.6,516.2,90.8z
		"/>
	<path class="st1" d="M522.7,90.8c0,1.2-1,2.2-2.2,2.2c-1.2,0-2.2-1-2.2-2.2c0-1.2,1-2.2,2.2-2.2C521.8,88.6,522.7,89.6,522.7,90.8z
		"/>
	<path class="st1" d="M529.3,90.8c0,1.2-1,2.2-2.2,2.2c-1.2,0-2.2-1-2.2-2.2c0-1.2,1-2.2,2.2-2.2C528.3,88.6,529.3,89.6,529.3,90.8z
		"/>
	<path class="st1" d="M534.8,90.8c0,1.2-1,2.2-2.2,2.2c-1.2,0-2.2-1-2.2-2.2c0-1.2,1-2.2,2.2-2.2C533.8,88.6,534.8,89.6,534.8,90.8z
		"/>
	<path class="st1" d="M541.4,90.8c0,1.2-1,2.2-2.2,2.2c-1.2,0-2.2-1-2.2-2.2c0-1.2,1-2.2,2.2-2.2C540.4,88.6,541.4,89.6,541.4,90.8z
		"/>
	<path class="st1" d="M490.9,85.3c0,1.2-1,2.2-2.2,2.2c-1.2,0-2.2-1-2.2-2.2c0-1.2,1-2.2,2.2-2.2C490,83.1,490.9,84.1,490.9,85.3z"
		/>
	<path class="st1" d="M497.5,85.3c0,1.2-1,2.2-2.2,2.2c-1.2,0-2.2-1-2.2-2.2c0-1.2,1-2.2,2.2-2.2C496.5,83.1,497.5,84.1,497.5,85.3z
		"/>
	<path class="st1" d="M504.1,85.3c0,1.2-1,2.2-2.2,2.2c-1.2,0-2.2-1-2.2-2.2c0-1.2,1-2.2,2.2-2.2C503.1,83.1,504.1,84.1,504.1,85.3z
		"/>
	<path class="st1" d="M509.6,85.3c0,1.2-1,2.2-2.2,2.2s-2.2-1-2.2-2.2c0-1.2,1-2.2,2.2-2.2S509.6,84.1,509.6,85.3z"/>
	<path class="st1" d="M516.2,85.3c0,1.2-1,2.2-2.2,2.2c-1.2,0-2.2-1-2.2-2.2c0-1.2,1-2.2,2.2-2.2C515.2,83.1,516.2,84.1,516.2,85.3z
		"/>
	<path class="st1" d="M522.7,85.3c0,1.2-1,2.2-2.2,2.2c-1.2,0-2.2-1-2.2-2.2c0-1.2,1-2.2,2.2-2.2C521.8,83.1,522.7,84.1,522.7,85.3z
		"/>
	<path class="st1" d="M529.3,85.3c0,1.2-1,2.2-2.2,2.2c-1.2,0-2.2-1-2.2-2.2c0-1.2,1-2.2,2.2-2.2C528.3,83.1,529.3,84.1,529.3,85.3z
		"/>
	<path class="st1" d="M534.8,85.3c0,1.2-1,2.2-2.2,2.2c-1.2,0-2.2-1-2.2-2.2c0-1.2,1-2.2,2.2-2.2C533.8,83.1,534.8,84.1,534.8,85.3z
		"/>
	<path class="st1" d="M490.9,78.7c0,1.2-1,2.2-2.2,2.2c-1.2,0-2.2-1-2.2-2.2c0-1.2,1-2.2,2.2-2.2C490,76.5,490.9,77.5,490.9,78.7z"
		/>
	<path class="st1" d="M497.5,78.7c0,1.2-1,2.2-2.2,2.2c-1.2,0-2.2-1-2.2-2.2c0-1.2,1-2.2,2.2-2.2C496.5,76.5,497.5,77.5,497.5,78.7z
		"/>
	<path class="st1" d="M478.9,90.8c0,1.2-1,2.2-2.2,2.2c-1.2,0-2.2-1-2.2-2.2c0-1.2,1-2.2,2.2-2.2C477.9,88.6,478.9,89.6,478.9,90.8z
		"/>
	<path class="st1" d="M485.5,90.8c0,1.2-1,2.2-2.2,2.2c-1.2,0-2.2-1-2.2-2.2c0-1.2,1-2.2,2.2-2.2C484.5,88.6,485.5,89.6,485.5,90.8z
		"/>
	<path class="st1" d="M478.9,85.3c0,1.2-1,2.2-2.2,2.2c-1.2,0-2.2-1-2.2-2.2c0-1.2,1-2.2,2.2-2.2C477.9,83.1,478.9,84.1,478.9,85.3z
		"/>
	<path class="st1" d="M485.5,85.3c0,1.2-1,2.2-2.2,2.2c-1.2,0-2.2-1-2.2-2.2c0-1.2,1-2.2,2.2-2.2C484.5,83.1,485.5,84.1,485.5,85.3z
		"/>
	<path class="st1" d="M490.9,103.9c0,1.2-1,2.2-2.2,2.2c-1.2,0-2.2-1-2.2-2.2c0-1.2,1-2.2,2.2-2.2
		C490,101.7,490.9,102.7,490.9,103.9z"/>
	<path class="st1" d="M497.5,103.9c0,1.2-1,2.2-2.2,2.2c-1.2,0-2.2-1-2.2-2.2c0-1.2,1-2.2,2.2-2.2
		C496.5,101.7,497.5,102.7,497.5,103.9z"/>
	<path class="st1" d="M504.1,103.9c0,1.2-1,2.2-2.2,2.2c-1.2,0-2.2-1-2.2-2.2c0-1.2,1-2.2,2.2-2.2
		C503.1,101.7,504.1,102.7,504.1,103.9z"/>
	<path class="st1" d="M490.9,98.5c0,1.2-1,2.2-2.2,2.2c-1.2,0-2.2-1-2.2-2.2c0-1.2,1-2.2,2.2-2.2C490,96.3,490.9,97.2,490.9,98.5z"
		/>
	<path class="st1" d="M497.5,98.5c0,1.2-1,2.2-2.2,2.2c-1.2,0-2.2-1-2.2-2.2c0-1.2,1-2.2,2.2-2.2C496.5,96.3,497.5,97.2,497.5,98.5z
		"/>
	<path class="st1" d="M504.1,98.5c0,1.2-1,2.2-2.2,2.2c-1.2,0-2.2-1-2.2-2.2c0-1.2,1-2.2,2.2-2.2C503.1,96.3,504.1,97.2,504.1,98.5z
		"/>
	<path class="st1" d="M478.9,103.9c0,1.2-1,2.2-2.2,2.2c-1.2,0-2.2-1-2.2-2.2c0-1.2,1-2.2,2.2-2.2
		C477.9,101.7,478.9,102.7,478.9,103.9z"/>
	<path class="st1" d="M485.5,103.9c0,1.2-1,2.2-2.2,2.2c-1.2,0-2.2-1-2.2-2.2c0-1.2,1-2.2,2.2-2.2
		C484.5,101.7,485.5,102.7,485.5,103.9z"/>
	<path class="st1" d="M478.9,98.5c0,1.2-1,2.2-2.2,2.2c-1.2,0-2.2-1-2.2-2.2c0-1.2,1-2.2,2.2-2.2C477.9,96.3,478.9,97.2,478.9,98.5z
		"/>
	<path class="st1" d="M485.5,98.5c0,1.2-1,2.2-2.2,2.2c-1.2,0-2.2-1-2.2-2.2c0-1.2,1-2.2,2.2-2.2C484.5,96.3,485.5,97.2,485.5,98.5z
		"/>
	<path class="st1" d="M490.9,117.1c0,1.2-1,2.2-2.2,2.2c-1.2,0-2.2-1-2.2-2.2c0-1.2,1-2.2,2.2-2.2
		C490,114.9,490.9,115.9,490.9,117.1z"/>
	<path class="st1" d="M497.5,117.1c0,1.2-1,2.2-2.2,2.2c-1.2,0-2.2-1-2.2-2.2c0-1.2,1-2.2,2.2-2.2
		C496.5,114.9,497.5,115.9,497.5,117.1z"/>
	<path class="st1" d="M504.1,117.1c0,1.2-1,2.2-2.2,2.2c-1.2,0-2.2-1-2.2-2.2c0-1.2,1-2.2,2.2-2.2
		C503.1,114.9,504.1,115.9,504.1,117.1z"/>
	<path class="st1" d="M490.9,110.5c0,1.2-1,2.2-2.2,2.2c-1.2,0-2.2-1-2.2-2.2c0-1.2,1-2.2,2.2-2.2
		C490,108.3,490.9,109.3,490.9,110.5z"/>
	<path class="st1" d="M497.5,110.5c0,1.2-1,2.2-2.2,2.2c-1.2,0-2.2-1-2.2-2.2c0-1.2,1-2.2,2.2-2.2
		C496.5,108.3,497.5,109.3,497.5,110.5z"/>
	<path class="st1" d="M504.1,110.5c0,1.2-1,2.2-2.2,2.2c-1.2,0-2.2-1-2.2-2.2c0-1.2,1-2.2,2.2-2.2
		C503.1,108.3,504.1,109.3,504.1,110.5z"/>
	<path class="st1" d="M485.5,110.5c0,1.2-1,2.2-2.2,2.2c-1.2,0-2.2-1-2.2-2.2c0-1.2,1-2.2,2.2-2.2
		C484.5,108.3,485.5,109.3,485.5,110.5z"/>
	<path class="st1" d="M478.9,78.7c0,1.2-1,2.2-2.2,2.2c-1.2,0-2.2-1-2.2-2.2c0-1.2,1-2.2,2.2-2.2C477.9,76.5,478.9,77.5,478.9,78.7z
		"/>
	<path class="st1" d="M485.5,78.7c0,1.2-1,2.2-2.2,2.2c-1.2,0-2.2-1-2.2-2.2c0-1.2,1-2.2,2.2-2.2C484.5,76.5,485.5,77.5,485.5,78.7z
		"/>
	<path class="st1" d="M504.1,78.7c0,1.2-1,2.2-2.2,2.2c-1.2,0-2.2-1-2.2-2.2c0-1.2,1-2.2,2.2-2.2C503.1,76.5,504.1,77.5,504.1,78.7z
		"/>
	<path class="st1" d="M509.6,78.7c0,1.2-1,2.2-2.2,2.2s-2.2-1-2.2-2.2c0-1.2,1-2.2,2.2-2.2S509.6,77.5,509.6,78.7z"/>
	<path class="st1" d="M516.2,78.7c0,1.2-1,2.2-2.2,2.2c-1.2,0-2.2-1-2.2-2.2c0-1.2,1-2.2,2.2-2.2C515.2,76.5,516.2,77.5,516.2,78.7z
		"/>
	<path class="st1" d="M522.7,78.7c0,1.2-1,2.2-2.2,2.2c-1.2,0-2.2-1-2.2-2.2c0-1.2,1-2.2,2.2-2.2C521.8,76.5,522.7,77.5,522.7,78.7z
		"/>
	<path class="st1" d="M529.3,78.7c0,1.2-1,2.2-2.2,2.2c-1.2,0-2.2-1-2.2-2.2c0-1.2,1-2.2,2.2-2.2C528.3,76.5,529.3,77.5,529.3,78.7z
		"/>
	<path class="st1" d="M534.8,78.7c0,1.2-1,2.2-2.2,2.2c-1.2,0-2.2-1-2.2-2.2c0-1.2,1-2.2,2.2-2.2C533.8,76.5,534.8,77.5,534.8,78.7z
		"/>
	<path class="st1" d="M490.9,72.2c0,1.2-1,2.2-2.2,2.2c-1.2,0-2.2-1-2.2-2.2c0-1.2,1-2.2,2.2-2.2C490,70,490.9,70.9,490.9,72.2z"/>
	<path class="st1" d="M497.5,72.2c0,1.2-1,2.2-2.2,2.2c-1.2,0-2.2-1-2.2-2.2c0-1.2,1-2.2,2.2-2.2C496.5,70,497.5,70.9,497.5,72.2z"
		/>
	<path class="st1" d="M504.1,72.2c0,1.2-1,2.2-2.2,2.2c-1.2,0-2.2-1-2.2-2.2c0-1.2,1-2.2,2.2-2.2C503.1,70,504.1,70.9,504.1,72.2z"
		/>
	<path class="st1" d="M509.6,72.2c0,1.2-1,2.2-2.2,2.2s-2.2-1-2.2-2.2c0-1.2,1-2.2,2.2-2.2S509.6,70.9,509.6,72.2z"/>
	<path class="st1" d="M516.2,72.2c0,1.2-1,2.2-2.2,2.2c-1.2,0-2.2-1-2.2-2.2c0-1.2,1-2.2,2.2-2.2C515.2,70,516.2,70.9,516.2,72.2z"
		/>
	<path class="st1" d="M522.7,72.2c0,1.2-1,2.2-2.2,2.2c-1.2,0-2.2-1-2.2-2.2c0-1.2,1-2.2,2.2-2.2C521.8,70,522.7,70.9,522.7,72.2z"
		/>
	<path class="st1" d="M529.3,72.2c0,1.2-1,2.2-2.2,2.2c-1.2,0-2.2-1-2.2-2.2c0-1.2,1-2.2,2.2-2.2C528.3,70,529.3,70.9,529.3,72.2z"
		/>
	<path class="st1" d="M534.8,72.2c0,1.2-1,2.2-2.2,2.2c-1.2,0-2.2-1-2.2-2.2c0-1.2,1-2.2,2.2-2.2C533.8,70,534.8,70.9,534.8,72.2z"
		/>
	<path class="st1" d="M541.4,72.2c0,1.2-1,2.2-2.2,2.2c-1.2,0-2.2-1-2.2-2.2c0-1.2,1-2.2,2.2-2.2C540.4,70,541.4,70.9,541.4,72.2z"
		/>
	<path class="st1" d="M490.9,66.7c0,1.2-1,2.2-2.2,2.2c-1.2,0-2.2-1-2.2-2.2s1-2.2,2.2-2.2C490,64.5,490.9,65.5,490.9,66.7z"/>
	<path class="st1" d="M497.5,66.7c0,1.2-1,2.2-2.2,2.2c-1.2,0-2.2-1-2.2-2.2s1-2.2,2.2-2.2C496.5,64.5,497.5,65.5,497.5,66.7z"/>
	<path class="st1" d="M504.1,66.7c0,1.2-1,2.2-2.2,2.2c-1.2,0-2.2-1-2.2-2.2s1-2.2,2.2-2.2C503.1,64.5,504.1,65.5,504.1,66.7z"/>
	<path class="st1" d="M509.6,66.7c0,1.2-1,2.2-2.2,2.2s-2.2-1-2.2-2.2s1-2.2,2.2-2.2S509.6,65.5,509.6,66.7z"/>
	<path class="st1" d="M516.2,66.7c0,1.2-1,2.2-2.2,2.2c-1.2,0-2.2-1-2.2-2.2s1-2.2,2.2-2.2C515.2,64.5,516.2,65.5,516.2,66.7z"/>
	<path class="st1" d="M522.7,66.7c0,1.2-1,2.2-2.2,2.2c-1.2,0-2.2-1-2.2-2.2s1-2.2,2.2-2.2C521.8,64.5,522.7,65.5,522.7,66.7z"/>
	<path class="st1" d="M529.3,66.7c0,1.2-1,2.2-2.2,2.2c-1.2,0-2.2-1-2.2-2.2s1-2.2,2.2-2.2C528.3,64.5,529.3,65.5,529.3,66.7z"/>
	<path class="st1" d="M534.8,66.7c0,1.2-1,2.2-2.2,2.2c-1.2,0-2.2-1-2.2-2.2s1-2.2,2.2-2.2C533.8,64.5,534.8,65.5,534.8,66.7z"/>
	<path class="st1" d="M490.9,60.1c0,1.2-1,2.2-2.2,2.2c-1.2,0-2.2-1-2.2-2.2c0-1.2,1-2.2,2.2-2.2C490,57.9,490.9,58.9,490.9,60.1z"
		/>
	<path class="st1" d="M497.5,60.1c0,1.2-1,2.2-2.2,2.2c-1.2,0-2.2-1-2.2-2.2c0-1.2,1-2.2,2.2-2.2C496.5,57.9,497.5,58.9,497.5,60.1z
		"/>
	<path class="st1" d="M478.9,72.2c0,1.2-1,2.2-2.2,2.2c-1.2,0-2.2-1-2.2-2.2c0-1.2,1-2.2,2.2-2.2C477.9,70,478.9,70.9,478.9,72.2z"
		/>
	<path class="st1" d="M485.5,72.2c0,1.2-1,2.2-2.2,2.2c-1.2,0-2.2-1-2.2-2.2c0-1.2,1-2.2,2.2-2.2C484.5,70,485.5,70.9,485.5,72.2z"
		/>
	<path class="st1" d="M478.9,66.7c0,1.2-1,2.2-2.2,2.2c-1.2,0-2.2-1-2.2-2.2s1-2.2,2.2-2.2C477.9,64.5,478.9,65.5,478.9,66.7z"/>
	<path class="st1" d="M485.5,66.7c0,1.2-1,2.2-2.2,2.2c-1.2,0-2.2-1-2.2-2.2s1-2.2,2.2-2.2C484.5,64.5,485.5,65.5,485.5,66.7z"/>
	<path class="st1" d="M478.9,60.1c0,1.2-1,2.2-2.2,2.2c-1.2,0-2.2-1-2.2-2.2c0-1.2,1-2.2,2.2-2.2C477.9,57.9,478.9,58.9,478.9,60.1z
		"/>
	<path class="st1" d="M485.5,60.1c0,1.2-1,2.2-2.2,2.2c-1.2,0-2.2-1-2.2-2.2c0-1.2,1-2.2,2.2-2.2C484.5,57.9,485.5,58.9,485.5,60.1z
		"/>
	<path class="st1" d="M504.1,60.1c0,1.2-1,2.2-2.2,2.2c-1.2,0-2.2-1-2.2-2.2c0-1.2,1-2.2,2.2-2.2C503.1,57.9,504.1,58.9,504.1,60.1z
		"/>
	<path class="st1" d="M509.6,60.1c0,1.2-1,2.2-2.2,2.2s-2.2-1-2.2-2.2c0-1.2,1-2.2,2.2-2.2S509.6,58.9,509.6,60.1z"/>
	<path class="st1" d="M516.2,60.1c0,1.2-1,2.2-2.2,2.2c-1.2,0-2.2-1-2.2-2.2c0-1.2,1-2.2,2.2-2.2C515.2,57.9,516.2,58.9,516.2,60.1z
		"/>
	<path class="st1" d="M522.7,60.1c0,1.2-1,2.2-2.2,2.2c-1.2,0-2.2-1-2.2-2.2c0-1.2,1-2.2,2.2-2.2C521.8,57.9,522.7,58.9,522.7,60.1z
		"/>
	<path class="st1" d="M529.3,60.1c0,1.2-1,2.2-2.2,2.2c-1.2,0-2.2-1-2.2-2.2c0-1.2,1-2.2,2.2-2.2C528.3,57.9,529.3,58.9,529.3,60.1z
		"/>
	<path class="st1" d="M534.8,60.1c0,1.2-1,2.2-2.2,2.2c-1.2,0-2.2-1-2.2-2.2c0-1.2,1-2.2,2.2-2.2C533.8,57.9,534.8,58.9,534.8,60.1z
		"/>
	<path class="st1" d="M490.9,53.5c0,1.2-1,2.2-2.2,2.2c-1.2,0-2.2-1-2.2-2.2c0-1.2,1-2.2,2.2-2.2C490,51.3,490.9,52.3,490.9,53.5z"
		/>
	<path class="st1" d="M497.5,53.5c0,1.2-1,2.2-2.2,2.2c-1.2,0-2.2-1-2.2-2.2c0-1.2,1-2.2,2.2-2.2C496.5,51.3,497.5,52.3,497.5,53.5z
		"/>
	<path class="st1" d="M504.1,53.5c0,1.2-1,2.2-2.2,2.2c-1.2,0-2.2-1-2.2-2.2c0-1.2,1-2.2,2.2-2.2C503.1,51.3,504.1,52.3,504.1,53.5z
		"/>
	<path class="st1" d="M509.6,53.5c0,1.2-1,2.2-2.2,2.2s-2.2-1-2.2-2.2c0-1.2,1-2.2,2.2-2.2S509.6,52.3,509.6,53.5z"/>
	<path class="st1" d="M516.2,53.5c0,1.2-1,2.2-2.2,2.2c-1.2,0-2.2-1-2.2-2.2c0-1.2,1-2.2,2.2-2.2C515.2,51.3,516.2,52.3,516.2,53.5z
		"/>
	<path class="st1" d="M522.7,53.5c0,1.2-1,2.2-2.2,2.2c-1.2,0-2.2-1-2.2-2.2c0-1.2,1-2.2,2.2-2.2C521.8,51.3,522.7,52.3,522.7,53.5z
		"/>
	<path class="st1" d="M529.3,53.5c0,1.2-1,2.2-2.2,2.2c-1.2,0-2.2-1-2.2-2.2c0-1.2,1-2.2,2.2-2.2C528.3,51.3,529.3,52.3,529.3,53.5z
		"/>
	<path class="st1" d="M534.8,53.5c0,1.2-1,2.2-2.2,2.2c-1.2,0-2.2-1-2.2-2.2c0-1.2,1-2.2,2.2-2.2C533.8,51.3,534.8,52.3,534.8,53.5z
		"/>
	<path class="st1" d="M490.9,46.9c0,1.2-1,2.2-2.2,2.2c-1.2,0-2.2-1-2.2-2.2c0-1.2,1-2.2,2.2-2.2C490,44.8,490.9,45.7,490.9,46.9z"
		/>
	<path class="st1" d="M497.5,46.9c0,1.2-1,2.2-2.2,2.2c-1.2,0-2.2-1-2.2-2.2c0-1.2,1-2.2,2.2-2.2C496.5,44.8,497.5,45.7,497.5,46.9z
		"/>
	<path class="st1" d="M478.9,53.5c0,1.2-1,2.2-2.2,2.2c-1.2,0-2.2-1-2.2-2.2c0-1.2,1-2.2,2.2-2.2C477.9,51.3,478.9,52.3,478.9,53.5z
		"/>
	<path class="st1" d="M485.5,53.5c0,1.2-1,2.2-2.2,2.2c-1.2,0-2.2-1-2.2-2.2c0-1.2,1-2.2,2.2-2.2C484.5,51.3,485.5,52.3,485.5,53.5z
		"/>
	<path class="st1" d="M478.9,46.9c0,1.2-1,2.2-2.2,2.2c-1.2,0-2.2-1-2.2-2.2c0-1.2,1-2.2,2.2-2.2C477.9,44.8,478.9,45.7,478.9,46.9z
		"/>
	<path class="st1" d="M485.5,46.9c0,1.2-1,2.2-2.2,2.2c-1.2,0-2.2-1-2.2-2.2c0-1.2,1-2.2,2.2-2.2C484.5,44.8,485.5,45.7,485.5,46.9z
		"/>
	<path class="st1" d="M504.1,46.9c0,1.2-1,2.2-2.2,2.2c-1.2,0-2.2-1-2.2-2.2c0-1.2,1-2.2,2.2-2.2C503.1,44.8,504.1,45.7,504.1,46.9z
		"/>
	<path class="st1" d="M509.6,46.9c0,1.2-1,2.2-2.2,2.2s-2.2-1-2.2-2.2c0-1.2,1-2.2,2.2-2.2S509.6,45.7,509.6,46.9z"/>
	<path class="st1" d="M516.2,46.9c0,1.2-1,2.2-2.2,2.2c-1.2,0-2.2-1-2.2-2.2c0-1.2,1-2.2,2.2-2.2C515.2,44.8,516.2,45.7,516.2,46.9z
		"/>
	<path class="st1" d="M522.7,46.9c0,1.2-1,2.2-2.2,2.2c-1.2,0-2.2-1-2.2-2.2c0-1.2,1-2.2,2.2-2.2C521.8,44.8,522.7,45.7,522.7,46.9z
		"/>
	<path class="st1" d="M529.3,46.9c0,1.2-1,2.2-2.2,2.2c-1.2,0-2.2-1-2.2-2.2c0-1.2,1-2.2,2.2-2.2C528.3,44.8,529.3,45.7,529.3,46.9z
		"/>
	<path class="st1" d="M534.8,46.9c0,1.2-1,2.2-2.2,2.2c-1.2,0-2.2-1-2.2-2.2c0-1.2,1-2.2,2.2-2.2C533.8,44.8,534.8,45.7,534.8,46.9z
		"/>
	<path class="st1" d="M490.9,41.5c0,1.2-1,2.2-2.2,2.2c-1.2,0-2.2-1-2.2-2.2c0-1.2,1-2.2,2.2-2.2C490,39.3,490.9,40.3,490.9,41.5z"
		/>
	<path class="st1" d="M497.5,41.5c0,1.2-1,2.2-2.2,2.2c-1.2,0-2.2-1-2.2-2.2c0-1.2,1-2.2,2.2-2.2C496.5,39.3,497.5,40.3,497.5,41.5z
		"/>
	<path class="st1" d="M478.9,41.5c0,1.2-1,2.2-2.2,2.2c-1.2,0-2.2-1-2.2-2.2c0-1.2,1-2.2,2.2-2.2C477.9,39.3,478.9,40.3,478.9,41.5z
		"/>
	<path class="st1" d="M485.5,41.5c0,1.2-1,2.2-2.2,2.2c-1.2,0-2.2-1-2.2-2.2c0-1.2,1-2.2,2.2-2.2C484.5,39.3,485.5,40.3,485.5,41.5z
		"/>
	<path class="st1" d="M504.1,41.5c0,1.2-1,2.2-2.2,2.2c-1.2,0-2.2-1-2.2-2.2c0-1.2,1-2.2,2.2-2.2C503.1,39.3,504.1,40.3,504.1,41.5z
		"/>
	<path class="st1" d="M497.5,28.3c0,1.2-1,2.2-2.2,2.2c-1.2,0-2.2-1-2.2-2.2c0-1.2,1-2.2,2.2-2.2C496.5,26.1,497.5,27.1,497.5,28.3z
		"/>
	<path class="st1" d="M497.5,21.7c0,1.2-1,2.2-2.2,2.2c-1.2,0-2.2-1-2.2-2.2c0-1.2,1-2.2,2.2-2.2C496.5,19.5,497.5,20.5,497.5,21.7z
		"/>
	<path class="st1" d="M504.1,21.7c0,1.2-1,2.2-2.2,2.2c-1.2,0-2.2-1-2.2-2.2c0-1.2,1-2.2,2.2-2.2C503.1,19.5,504.1,20.5,504.1,21.7z
		"/>
	<path class="st1" d="M509.6,41.5c0,1.2-1,2.2-2.2,2.2s-2.2-1-2.2-2.2c0-1.2,1-2.2,2.2-2.2S509.6,40.3,509.6,41.5z"/>
	<path class="st1" d="M516.2,41.5c0,1.2-1,2.2-2.2,2.2c-1.2,0-2.2-1-2.2-2.2c0-1.2,1-2.2,2.2-2.2C515.2,39.3,516.2,40.3,516.2,41.5z
		"/>
	<path class="st1" d="M509.6,34.9c0,1.2-1,2.2-2.2,2.2s-2.2-1-2.2-2.2c0-1.2,1-2.2,2.2-2.2S509.6,33.7,509.6,34.9z"/>
	<path class="st1" d="M516.2,34.9c0,1.2-1,2.2-2.2,2.2c-1.2,0-2.2-1-2.2-2.2c0-1.2,1-2.2,2.2-2.2C515.2,32.7,516.2,33.7,516.2,34.9z
		"/>
	<path class="st1" d="M522.7,41.5c0,1.2-1,2.2-2.2,2.2c-1.2,0-2.2-1-2.2-2.2c0-1.2,1-2.2,2.2-2.2C521.8,39.3,522.7,40.3,522.7,41.5z
		"/>
	<path class="st1" d="M529.3,41.5c0,1.2-1,2.2-2.2,2.2c-1.2,0-2.2-1-2.2-2.2c0-1.2,1-2.2,2.2-2.2C528.3,39.3,529.3,40.3,529.3,41.5z
		"/>
	<path class="st1" d="M534.8,41.5c0,1.2-1,2.2-2.2,2.2c-1.2,0-2.2-1-2.2-2.2c0-1.2,1-2.2,2.2-2.2C533.8,39.3,534.8,40.3,534.8,41.5z
		"/>
	<path class="st1" d="M529.3,34.9c0,1.2-1,2.2-2.2,2.2c-1.2,0-2.2-1-2.2-2.2c0-1.2,1-2.2,2.2-2.2C528.3,32.7,529.3,33.7,529.3,34.9z
		"/>
	<path class="st1" d="M534.8,34.9c0,1.2-1,2.2-2.2,2.2c-1.2,0-2.2-1-2.2-2.2c0-1.2,1-2.2,2.2-2.2C533.8,32.7,534.8,33.7,534.8,34.9z
		"/>
	<path class="st1" d="M560,90.8c0,1.2-1,2.2-2.2,2.2s-2.2-1-2.2-2.2c0-1.2,1-2.2,2.2-2.2S560,89.6,560,90.8z"/>
	<path class="st1" d="M566.6,90.8c0,1.2-1,2.2-2.2,2.2c-1.2,0-2.2-1-2.2-2.2c0-1.2,1-2.2,2.2-2.2C565.6,88.6,566.6,89.6,566.6,90.8z
		"/>
	<path class="st1" d="M573.2,90.8c0,1.2-1,2.2-2.2,2.2c-1.2,0-2.2-1-2.2-2.2c0-1.2,1-2.2,2.2-2.2C572.2,88.6,573.2,89.6,573.2,90.8z
		"/>
	<path class="st1" d="M578.6,90.8c0,1.2-1,2.2-2.2,2.2c-1.2,0-2.2-1-2.2-2.2c0-1.2,1-2.2,2.2-2.2C577.7,88.6,578.6,89.6,578.6,90.8z
		"/>
	<path class="st1" d="M585.2,90.8c0,1.2-1,2.2-2.2,2.2c-1.2,0-2.2-1-2.2-2.2c0-1.2,1-2.2,2.2-2.2C584.2,88.6,585.2,89.6,585.2,90.8z
		"/>
	<path class="st1" d="M591.8,90.8c0,1.2-1,2.2-2.2,2.2c-1.2,0-2.2-1-2.2-2.2c0-1.2,1-2.2,2.2-2.2C590.8,88.6,591.8,89.6,591.8,90.8z
		"/>
	<path class="st1" d="M598.4,90.8c0,1.2-1,2.2-2.2,2.2c-1.2,0-2.2-1-2.2-2.2c0-1.2,1-2.2,2.2-2.2C597.4,88.6,598.4,89.6,598.4,90.8z
		"/>
	<path class="st1" d="M603.9,90.8c0,1.2-1,2.2-2.2,2.2c-1.2,0-2.2-1-2.2-2.2c0-1.2,1-2.2,2.2-2.2C602.9,88.6,603.9,89.6,603.9,90.8z
		"/>
	<path class="st1" d="M610.4,90.8c0,1.2-1,2.2-2.2,2.2c-1.2,0-2.2-1-2.2-2.2c0-1.2,1-2.2,2.2-2.2C609.5,88.6,610.4,89.6,610.4,90.8z
		"/>
	<path class="st1" d="M560,85.3c0,1.2-1,2.2-2.2,2.2s-2.2-1-2.2-2.2c0-1.2,1-2.2,2.2-2.2S560,84.1,560,85.3z"/>
	<path class="st1" d="M566.6,85.3c0,1.2-1,2.2-2.2,2.2c-1.2,0-2.2-1-2.2-2.2c0-1.2,1-2.2,2.2-2.2C565.6,83.1,566.6,84.1,566.6,85.3z
		"/>
	<path class="st1" d="M573.2,85.3c0,1.2-1,2.2-2.2,2.2c-1.2,0-2.2-1-2.2-2.2c0-1.2,1-2.2,2.2-2.2C572.2,83.1,573.2,84.1,573.2,85.3z
		"/>
	<path class="st1" d="M578.6,85.3c0,1.2-1,2.2-2.2,2.2c-1.2,0-2.2-1-2.2-2.2c0-1.2,1-2.2,2.2-2.2C577.7,83.1,578.6,84.1,578.6,85.3z
		"/>
	<path class="st1" d="M585.2,85.3c0,1.2-1,2.2-2.2,2.2c-1.2,0-2.2-1-2.2-2.2c0-1.2,1-2.2,2.2-2.2C584.2,83.1,585.2,84.1,585.2,85.3z
		"/>
	<path class="st1" d="M591.8,85.3c0,1.2-1,2.2-2.2,2.2c-1.2,0-2.2-1-2.2-2.2c0-1.2,1-2.2,2.2-2.2C590.8,83.1,591.8,84.1,591.8,85.3z
		"/>
	<path class="st1" d="M598.4,85.3c0,1.2-1,2.2-2.2,2.2c-1.2,0-2.2-1-2.2-2.2c0-1.2,1-2.2,2.2-2.2C597.4,83.1,598.4,84.1,598.4,85.3z
		"/>
	<path class="st1" d="M603.9,85.3c0,1.2-1,2.2-2.2,2.2c-1.2,0-2.2-1-2.2-2.2c0-1.2,1-2.2,2.2-2.2C602.9,83.1,603.9,84.1,603.9,85.3z
		"/>
	<path class="st1" d="M560,78.7c0,1.2-1,2.2-2.2,2.2s-2.2-1-2.2-2.2c0-1.2,1-2.2,2.2-2.2S560,77.5,560,78.7z"/>
	<path class="st1" d="M566.6,78.7c0,1.2-1,2.2-2.2,2.2c-1.2,0-2.2-1-2.2-2.2c0-1.2,1-2.2,2.2-2.2C565.6,76.5,566.6,77.5,566.6,78.7z
		"/>
	<path class="st1" d="M548,90.8c0,1.2-1,2.2-2.2,2.2c-1.2,0-2.2-1-2.2-2.2c0-1.2,1-2.2,2.2-2.2C547,88.6,548,89.6,548,90.8z"/>
	<path class="st1" d="M553.4,90.8c0,1.2-1,2.2-2.2,2.2c-1.2,0-2.2-1-2.2-2.2c0-1.2,1-2.2,2.2-2.2C552.4,88.6,553.4,89.6,553.4,90.8z
		"/>
	<path class="st1" d="M548,85.3c0,1.2-1,2.2-2.2,2.2c-1.2,0-2.2-1-2.2-2.2c0-1.2,1-2.2,2.2-2.2C547,83.1,548,84.1,548,85.3z"/>
	<path class="st1" d="M553.4,85.3c0,1.2-1,2.2-2.2,2.2c-1.2,0-2.2-1-2.2-2.2c0-1.2,1-2.2,2.2-2.2C552.4,83.1,553.4,84.1,553.4,85.3z
		"/>
	<path class="st1" d="M548,78.7c0,1.2-1,2.2-2.2,2.2c-1.2,0-2.2-1-2.2-2.2c0-1.2,1-2.2,2.2-2.2C547,76.5,548,77.5,548,78.7z"/>
	<path class="st1" d="M541.4,85.3c0,1.2-1,2.2-2.2,2.2c-1.2,0-2.2-1-2.2-2.2c0-1.2,1-2.2,2.2-2.2C540.4,83.1,541.4,84.1,541.4,85.3z
		"/>
	<path class="st1" d="M541.4,78.7c0,1.2-1,2.2-2.2,2.2c-1.2,0-2.2-1-2.2-2.2c0-1.2,1-2.2,2.2-2.2C540.4,76.5,541.4,77.5,541.4,78.7z
		"/>
	<path class="st1" d="M553.4,78.7c0,1.2-1,2.2-2.2,2.2c-1.2,0-2.2-1-2.2-2.2c0-1.2,1-2.2,2.2-2.2C552.4,76.5,553.4,77.5,553.4,78.7z
		"/>
	<path class="st1" d="M573.2,78.7c0,1.2-1,2.2-2.2,2.2c-1.2,0-2.2-1-2.2-2.2c0-1.2,1-2.2,2.2-2.2C572.2,76.5,573.2,77.5,573.2,78.7z
		"/>
	<path class="st1" d="M578.6,78.7c0,1.2-1,2.2-2.2,2.2c-1.2,0-2.2-1-2.2-2.2c0-1.2,1-2.2,2.2-2.2C577.7,76.5,578.6,77.5,578.6,78.7z
		"/>
	<path class="st1" d="M585.2,78.7c0,1.2-1,2.2-2.2,2.2c-1.2,0-2.2-1-2.2-2.2c0-1.2,1-2.2,2.2-2.2C584.2,76.5,585.2,77.5,585.2,78.7z
		"/>
	<path class="st1" d="M591.8,78.7c0,1.2-1,2.2-2.2,2.2c-1.2,0-2.2-1-2.2-2.2c0-1.2,1-2.2,2.2-2.2C590.8,76.5,591.8,77.5,591.8,78.7z
		"/>
	<path class="st1" d="M598.4,78.7c0,1.2-1,2.2-2.2,2.2c-1.2,0-2.2-1-2.2-2.2c0-1.2,1-2.2,2.2-2.2C597.4,76.5,598.4,77.5,598.4,78.7z
		"/>
	<path class="st1" d="M603.9,78.7c0,1.2-1,2.2-2.2,2.2c-1.2,0-2.2-1-2.2-2.2c0-1.2,1-2.2,2.2-2.2C602.9,76.5,603.9,77.5,603.9,78.7z
		"/>
	<path class="st1" d="M598.4,110.5c0,1.2-1,2.2-2.2,2.2c-1.2,0-2.2-1-2.2-2.2c0-1.2,1-2.2,2.2-2.2
		C597.4,108.3,598.4,109.3,598.4,110.5z"/>
	<path class="st1" d="M598.4,117.1c0,1.2-1,2.2-2.2,2.2c-1.2,0-2.2-1-2.2-2.2c0-1.2,1-2.2,2.2-2.2
		C597.4,114.9,598.4,115.9,598.4,117.1z"/>
	<path class="st1" d="M603.9,110.5c0,1.2-1,2.2-2.2,2.2c-1.2,0-2.2-1-2.2-2.2c0-1.2,1-2.2,2.2-2.2
		C602.9,108.3,603.9,109.3,603.9,110.5z"/>
	<path class="st1" d="M603.9,117.1c0,1.2-1,2.2-2.2,2.2c-1.2,0-2.2-1-2.2-2.2c0-1.2,1-2.2,2.2-2.2
		C602.9,114.9,603.9,115.9,603.9,117.1z"/>
	<path class="st1" d="M610.4,110.5c0,1.2-1,2.2-2.2,2.2s-2.2-1-2.2-2.2c0-1.2,1-2.2,2.2-2.2S610.4,109.3,610.4,110.5z"/>
	<path class="st1" d="M610.4,117.1c0,1.2-1,2.2-2.2,2.2s-2.2-1-2.2-2.2c0-1.2,1-2.2,2.2-2.2S610.4,115.9,610.4,117.1z"/>
	<path class="st1" d="M617,110.5c0,1.2-1,2.2-2.2,2.2c-1.2,0-2.2-1-2.2-2.2c0-1.2,1-2.2,2.2-2.2C616,108.3,617,109.3,617,110.5z"/>
	<path class="st1" d="M617,117.1c0,1.2-1,2.2-2.2,2.2c-1.2,0-2.2-1-2.2-2.2c0-1.2,1-2.2,2.2-2.2C616,114.9,617,115.9,617,117.1z"/>
	<path class="st1" d="M623.6,110.5c0,1.2-1,2.2-2.2,2.2c-1.2,0-2.2-1-2.2-2.2c0-1.2,1-2.2,2.2-2.2
		C622.6,108.3,623.6,109.3,623.6,110.5z"/>
	<path class="st1" d="M623.6,117.1c0,1.2-1,2.2-2.2,2.2c-1.2,0-2.2-1-2.2-2.2c0-1.2,1-2.2,2.2-2.2
		C622.6,114.9,623.6,115.9,623.6,117.1z"/>
	<path class="st1" d="M566.6,110.5c0,1.2-1,2.2-2.2,2.2c-1.2,0-2.2-1-2.2-2.2c0-1.2,1-2.2,2.2-2.2
		C565.6,108.3,566.6,109.3,566.6,110.5z"/>
	<path class="st1" d="M566.6,117.1c0,1.2-1,2.2-2.2,2.2c-1.2,0-2.2-1-2.2-2.2c0-1.2,1-2.2,2.2-2.2
		C565.6,114.9,566.6,115.9,566.6,117.1z"/>
	<path class="st1" d="M573.2,110.5c0,1.2-1,2.2-2.2,2.2c-1.2,0-2.2-1-2.2-2.2c0-1.2,1-2.2,2.2-2.2
		C572.2,108.3,573.2,109.3,573.2,110.5z"/>
	<path class="st1" d="M573.2,117.1c0,1.2-1,2.2-2.2,2.2c-1.2,0-2.2-1-2.2-2.2c0-1.2,1-2.2,2.2-2.2
		C572.2,114.9,573.2,115.9,573.2,117.1z"/>
	<path class="st1" d="M578.6,110.5c0,1.2-1,2.2-2.2,2.2c-1.2,0-2.2-1-2.2-2.2c0-1.2,1-2.2,2.2-2.2
		C577.7,108.3,578.6,109.3,578.6,110.5z"/>
	<path class="st1" d="M578.6,117.1c0,1.2-1,2.2-2.2,2.2c-1.2,0-2.2-1-2.2-2.2c0-1.2,1-2.2,2.2-2.2
		C577.7,114.9,578.6,115.9,578.6,117.1z"/>
	<path class="st1" d="M585.2,110.5c0,1.2-1,2.2-2.2,2.2c-1.2,0-2.2-1-2.2-2.2c0-1.2,1-2.2,2.2-2.2
		C584.2,108.3,585.2,109.3,585.2,110.5z"/>
	<path class="st1" d="M585.2,117.1c0,1.2-1,2.2-2.2,2.2c-1.2,0-2.2-1-2.2-2.2c0-1.2,1-2.2,2.2-2.2
		C584.2,114.9,585.2,115.9,585.2,117.1z"/>
	<path class="st1" d="M591.8,110.5c0,1.2-1,2.2-2.2,2.2c-1.2,0-2.2-1-2.2-2.2c0-1.2,1-2.2,2.2-2.2
		C590.8,108.3,591.8,109.3,591.8,110.5z"/>
	<path class="st1" d="M591.8,117.1c0,1.2-1,2.2-2.2,2.2c-1.2,0-2.2-1-2.2-2.2c0-1.2,1-2.2,2.2-2.2
		C590.8,114.9,591.8,115.9,591.8,117.1z"/>
	<path class="st1" d="M548,110.5c0,1.2-1,2.2-2.2,2.2c-1.2,0-2.2-1-2.2-2.2c0-1.2,1-2.2,2.2-2.2C547,108.3,548,109.3,548,110.5z"/>
	<path class="st1" d="M548,117.1c0,1.2-1,2.2-2.2,2.2c-1.2,0-2.2-1-2.2-2.2c0-1.2,1-2.2,2.2-2.2C547,114.9,548,115.9,548,117.1z"/>
	<path class="st1" d="M553.4,110.5c0,1.2-1,2.2-2.2,2.2c-1.2,0-2.2-1-2.2-2.2c0-1.2,1-2.2,2.2-2.2
		C552.5,108.3,553.4,109.3,553.4,110.5z"/>
	<path class="st1" d="M553.4,117.1c0,1.2-1,2.2-2.2,2.2c-1.2,0-2.2-1-2.2-2.2c0-1.2,1-2.2,2.2-2.2
		C552.5,114.9,553.4,115.9,553.4,117.1z"/>
	<path class="st1" d="M560,110.5c0,1.2-1,2.2-2.2,2.2c-1.2,0-2.2-1-2.2-2.2c0-1.2,1-2.2,2.2-2.2C559,108.3,560,109.3,560,110.5z"/>
	<path class="st1" d="M560,117.1c0,1.2-1,2.2-2.2,2.2c-1.2,0-2.2-1-2.2-2.2c0-1.2,1-2.2,2.2-2.2C559,114.9,560,115.9,560,117.1z"/>
	<path class="st1" d="M516.2,110.5c0,1.2-1,2.2-2.2,2.2c-1.2,0-2.2-1-2.2-2.2c0-1.2,1-2.2,2.2-2.2
		C515.2,108.3,516.2,109.3,516.2,110.5z"/>
	<path class="st1" d="M516.2,117.1c0,1.2-1,2.2-2.2,2.2c-1.2,0-2.2-1-2.2-2.2c0-1.2,1-2.2,2.2-2.2
		C515.2,114.9,516.2,115.9,516.2,117.1z"/>
	<path class="st1" d="M522.7,110.5c0,1.2-1,2.2-2.2,2.2c-1.2,0-2.2-1-2.2-2.2c0-1.2,1-2.2,2.2-2.2
		C521.8,108.3,522.7,109.3,522.7,110.5z"/>
	<path class="st1" d="M522.7,117.1c0,1.2-1,2.2-2.2,2.2c-1.2,0-2.2-1-2.2-2.2c0-1.2,1-2.2,2.2-2.2
		C521.8,114.9,522.7,115.9,522.7,117.1z"/>
	<path class="st1" d="M528.2,110.5c0,1.2-1,2.2-2.2,2.2c-1.2,0-2.2-1-2.2-2.2c0-1.2,1-2.2,2.2-2.2
		C527.2,108.3,528.2,109.3,528.2,110.5z"/>
	<path class="st1" d="M528.2,117.1c0,1.2-1,2.2-2.2,2.2c-1.2,0-2.2-1-2.2-2.2c0-1.2,1-2.2,2.2-2.2
		C527.2,114.9,528.2,115.9,528.2,117.1z"/>
	<path class="st1" d="M534.8,110.5c0,1.2-1,2.2-2.2,2.2c-1.2,0-2.2-1-2.2-2.2c0-1.2,1-2.2,2.2-2.2
		C533.8,108.3,534.8,109.3,534.8,110.5z"/>
	<path class="st1" d="M534.8,117.1c0,1.2-1,2.2-2.2,2.2c-1.2,0-2.2-1-2.2-2.2c0-1.2,1-2.2,2.2-2.2
		C533.8,114.9,534.8,115.9,534.8,117.1z"/>
	<path class="st1" d="M541.4,110.5c0,1.2-1,2.2-2.2,2.2c-1.2,0-2.2-1-2.2-2.2c0-1.2,1-2.2,2.2-2.2
		C540.4,108.3,541.4,109.3,541.4,110.5z"/>
	<path class="st1" d="M541.4,117.1c0,1.2-1,2.2-2.2,2.2c-1.2,0-2.2-1-2.2-2.2c0-1.2,1-2.2,2.2-2.2
		C540.4,114.9,541.4,115.9,541.4,117.1z"/>
	<path class="st1" d="M509.6,110.5c0,1.2-1,2.2-2.2,2.2c-1.2,0-2.2-1-2.2-2.2c0-1.2,1-2.2,2.2-2.2
		C508.6,108.3,509.6,109.3,509.6,110.5z"/>
	<path class="st1" d="M509.6,117.1c0,1.2-1,2.2-2.2,2.2c-1.2,0-2.2-1-2.2-2.2c0-1.2,1-2.2,2.2-2.2
		C508.6,114.9,509.6,115.9,509.6,117.1z"/>
	<path class="st1" d="M629.1,110.5c0,1.2-1,2.2-2.2,2.2s-2.2-1-2.2-2.2c0-1.2,1-2.2,2.2-2.2S629.1,109.3,629.1,110.5z"/>
	<path class="st1" d="M629.1,117.1c0,1.2-1,2.2-2.2,2.2s-2.2-1-2.2-2.2c0-1.2,1-2.2,2.2-2.2S629.1,115.9,629.1,117.1z"/>
	<path class="st1" d="M635.7,110.5c0,1.2-1,2.2-2.2,2.2c-1.2,0-2.2-1-2.2-2.2c0-1.2,1-2.2,2.2-2.2
		C634.7,108.3,635.7,109.3,635.7,110.5z"/>
	<path class="st1" d="M635.7,117.1c0,1.2-1,2.2-2.2,2.2c-1.2,0-2.2-1-2.2-2.2c0-1.2,1-2.2,2.2-2.2
		C634.7,114.9,635.7,115.9,635.7,117.1z"/>
	<path class="st1" d="M642.2,110.5c0,1.2-1,2.2-2.2,2.2c-1.2,0-2.2-1-2.2-2.2c0-1.2,1-2.2,2.2-2.2
		C641.2,108.3,642.2,109.3,642.2,110.5z"/>
	<path class="st1" d="M642.2,117.1c0,1.2-1,2.2-2.2,2.2c-1.2,0-2.2-1-2.2-2.2c0-1.2,1-2.2,2.2-2.2
		C641.2,114.9,642.2,115.9,642.2,117.1z"/>
	<path class="st1" d="M648.8,110.5c0,1.2-1,2.2-2.2,2.2c-1.2,0-2.2-1-2.2-2.2c0-1.2,1-2.2,2.2-2.2
		C647.8,108.3,648.8,109.3,648.8,110.5z"/>
	<path class="st1" d="M648.8,117.1c0,1.2-1,2.2-2.2,2.2c-1.2,0-2.2-1-2.2-2.2c0-1.2,1-2.2,2.2-2.2
		C647.8,114.9,648.8,115.9,648.8,117.1z"/>
	<path class="st1" d="M598.4,97.4c0,1.2-1,2.2-2.2,2.2c-1.2,0-2.2-1-2.2-2.2c0-1.2,1-2.2,2.2-2.2C597.4,95.2,598.4,96.1,598.4,97.4z
		"/>
	<path class="st1" d="M598.4,103.9c0,1.2-1,2.2-2.2,2.2c-1.2,0-2.2-1-2.2-2.2c0-1.2,1-2.2,2.2-2.2
		C597.4,101.7,598.4,102.7,598.4,103.9z"/>
	<path class="st1" d="M603.9,97.4c0,1.2-1,2.2-2.2,2.2c-1.2,0-2.2-1-2.2-2.2c0-1.2,1-2.2,2.2-2.2C602.9,95.2,603.9,96.1,603.9,97.4z
		"/>
	<path class="st1" d="M603.9,103.9c0,1.2-1,2.2-2.2,2.2c-1.2,0-2.2-1-2.2-2.2c0-1.2,1-2.2,2.2-2.2
		C602.9,101.7,603.9,102.7,603.9,103.9z"/>
	<path class="st1" d="M610.4,97.4c0,1.2-1,2.2-2.2,2.2s-2.2-1-2.2-2.2c0-1.2,1-2.2,2.2-2.2S610.4,96.1,610.4,97.4z"/>
	<path class="st1" d="M610.4,103.9c0,1.2-1,2.2-2.2,2.2s-2.2-1-2.2-2.2c0-1.2,1-2.2,2.2-2.2S610.4,102.7,610.4,103.9z"/>
	<path class="st1" d="M617,97.4c0,1.2-1,2.2-2.2,2.2c-1.2,0-2.2-1-2.2-2.2c0-1.2,1-2.2,2.2-2.2C616,95.2,617,96.1,617,97.4z"/>
	<path class="st1" d="M617,103.9c0,1.2-1,2.2-2.2,2.2c-1.2,0-2.2-1-2.2-2.2c0-1.2,1-2.2,2.2-2.2C616,101.7,617,102.7,617,103.9z"/>
	<path class="st1" d="M623.6,97.4c0,1.2-1,2.2-2.2,2.2c-1.2,0-2.2-1-2.2-2.2c0-1.2,1-2.2,2.2-2.2C622.6,95.2,623.6,96.1,623.6,97.4z
		"/>
	<path class="st1" d="M623.6,103.9c0,1.2-1,2.2-2.2,2.2c-1.2,0-2.2-1-2.2-2.2c0-1.2,1-2.2,2.2-2.2
		C622.6,101.7,623.6,102.7,623.6,103.9z"/>
	<path class="st1" d="M566.6,97.4c0,1.2-1,2.2-2.2,2.2c-1.2,0-2.2-1-2.2-2.2c0-1.2,1-2.2,2.2-2.2C565.6,95.2,566.6,96.1,566.6,97.4z
		"/>
	<path class="st1" d="M566.6,103.9c0,1.2-1,2.2-2.2,2.2c-1.2,0-2.2-1-2.2-2.2c0-1.2,1-2.2,2.2-2.2
		C565.6,101.7,566.6,102.7,566.6,103.9z"/>
	<path class="st1" d="M573.2,97.4c0,1.2-1,2.2-2.2,2.2c-1.2,0-2.2-1-2.2-2.2c0-1.2,1-2.2,2.2-2.2C572.2,95.2,573.2,96.1,573.2,97.4z
		"/>
	<path class="st1" d="M573.2,103.9c0,1.2-1,2.2-2.2,2.2c-1.2,0-2.2-1-2.2-2.2c0-1.2,1-2.2,2.2-2.2
		C572.2,101.7,573.2,102.7,573.2,103.9z"/>
	<path class="st1" d="M578.6,97.4c0,1.2-1,2.2-2.2,2.2c-1.2,0-2.2-1-2.2-2.2c0-1.2,1-2.2,2.2-2.2C577.7,95.2,578.6,96.1,578.6,97.4z
		"/>
	<path class="st1" d="M578.6,103.9c0,1.2-1,2.2-2.2,2.2c-1.2,0-2.2-1-2.2-2.2c0-1.2,1-2.2,2.2-2.2
		C577.7,101.7,578.6,102.7,578.6,103.9z"/>
	<path class="st1" d="M585.2,97.4c0,1.2-1,2.2-2.2,2.2c-1.2,0-2.2-1-2.2-2.2c0-1.2,1-2.2,2.2-2.2C584.2,95.2,585.2,96.1,585.2,97.4z
		"/>
	<path class="st1" d="M585.2,103.9c0,1.2-1,2.2-2.2,2.2c-1.2,0-2.2-1-2.2-2.2c0-1.2,1-2.2,2.2-2.2
		C584.2,101.7,585.2,102.7,585.2,103.9z"/>
	<path class="st1" d="M591.8,97.4c0,1.2-1,2.2-2.2,2.2c-1.2,0-2.2-1-2.2-2.2c0-1.2,1-2.2,2.2-2.2C590.8,95.2,591.8,96.1,591.8,97.4z
		"/>
	<path class="st1" d="M591.8,103.9c0,1.2-1,2.2-2.2,2.2c-1.2,0-2.2-1-2.2-2.2c0-1.2,1-2.2,2.2-2.2
		C590.8,101.7,591.8,102.7,591.8,103.9z"/>
	<path class="st1" d="M548,97.4c0,1.2-1,2.2-2.2,2.2c-1.2,0-2.2-1-2.2-2.2c0-1.2,1-2.2,2.2-2.2C547,95.2,548,96.1,548,97.4z"/>
	<path class="st1" d="M548,103.9c0,1.2-1,2.2-2.2,2.2c-1.2,0-2.2-1-2.2-2.2c0-1.2,1-2.2,2.2-2.2C547,101.7,548,102.7,548,103.9z"/>
	<path class="st1" d="M553.4,97.4c0,1.2-1,2.2-2.2,2.2c-1.2,0-2.2-1-2.2-2.2c0-1.2,1-2.2,2.2-2.2C552.5,95.2,553.4,96.1,553.4,97.4z
		"/>
	<path class="st1" d="M553.4,103.9c0,1.2-1,2.2-2.2,2.2c-1.2,0-2.2-1-2.2-2.2c0-1.2,1-2.2,2.2-2.2
		C552.5,101.7,553.4,102.7,553.4,103.9z"/>
	<path class="st1" d="M560,97.4c0,1.2-1,2.2-2.2,2.2c-1.2,0-2.2-1-2.2-2.2c0-1.2,1-2.2,2.2-2.2C559,95.2,560,96.1,560,97.4z"/>
	<path class="st1" d="M560,103.9c0,1.2-1,2.2-2.2,2.2c-1.2,0-2.2-1-2.2-2.2c0-1.2,1-2.2,2.2-2.2C559,101.7,560,102.7,560,103.9z"/>
	<path class="st1" d="M560,34.9c0,1.2-1,2.2-2.2,2.2s-2.2-1-2.2-2.2c0-1.2,1-2.2,2.2-2.2S560,33.7,560,34.9z"/>
	<path class="st1" d="M566.6,34.9c0,1.2-1,2.2-2.2,2.2c-1.2,0-2.2-1-2.2-2.2c0-1.2,1-2.2,2.2-2.2C565.6,32.7,566.6,33.7,566.6,34.9z
		"/>
	<path class="st1" d="M573.2,34.9c0,1.2-1,2.2-2.2,2.2c-1.2,0-2.2-1-2.2-2.2c0-1.2,1-2.2,2.2-2.2C572.2,32.7,573.2,33.7,573.2,34.9z
		"/>
	<path class="st1" d="M578.6,34.9c0,1.2-1,2.2-2.2,2.2c-1.2,0-2.2-1-2.2-2.2c0-1.2,1-2.2,2.2-2.2C577.7,32.7,578.6,33.7,578.6,34.9z
		"/>
	<path class="st1" d="M585.2,34.9c0,1.2-1,2.2-2.2,2.2c-1.2,0-2.2-1-2.2-2.2c0-1.2,1-2.2,2.2-2.2C584.2,32.7,585.2,33.7,585.2,34.9z
		"/>
	<path class="st1" d="M591.8,34.9c0,1.2-1,2.2-2.2,2.2c-1.2,0-2.2-1-2.2-2.2c0-1.2,1-2.2,2.2-2.2C590.8,32.7,591.8,33.7,591.8,34.9z
		"/>
	<path class="st1" d="M598.4,34.9c0,1.2-1,2.2-2.2,2.2c-1.2,0-2.2-1-2.2-2.2c0-1.2,1-2.2,2.2-2.2C597.4,32.7,598.4,33.7,598.4,34.9z
		"/>
	<path class="st1" d="M603.9,34.9c0,1.2-1,2.2-2.2,2.2c-1.2,0-2.2-1-2.2-2.2c0-1.2,1-2.2,2.2-2.2C602.9,32.7,603.9,33.7,603.9,34.9z
		"/>
	<path class="st1" d="M560,28.3c0,1.2-1,2.2-2.2,2.2s-2.2-1-2.2-2.2c0-1.2,1-2.2,2.2-2.2S560,27.1,560,28.3z"/>
	<path class="st1" d="M566.6,28.3c0,1.2-1,2.2-2.2,2.2c-1.2,0-2.2-1-2.2-2.2c0-1.2,1-2.2,2.2-2.2C565.6,26.1,566.6,27.1,566.6,28.3z
		"/>
	<path class="st1" d="M573.2,28.3c0,1.2-1,2.2-2.2,2.2c-1.2,0-2.2-1-2.2-2.2c0-1.2,1-2.2,2.2-2.2C572.2,26.1,573.2,27.1,573.2,28.3z
		"/>
	<path class="st1" d="M578.6,28.3c0,1.2-1,2.2-2.2,2.2c-1.2,0-2.2-1-2.2-2.2c0-1.2,1-2.2,2.2-2.2C577.7,26.1,578.6,27.1,578.6,28.3z
		"/>
	<path class="st1" d="M585.2,28.3c0,1.2-1,2.2-2.2,2.2c-1.2,0-2.2-1-2.2-2.2c0-1.2,1-2.2,2.2-2.2C584.2,26.1,585.2,27.1,585.2,28.3z
		"/>
	<path class="st1" d="M591.8,28.3c0,1.2-1,2.2-2.2,2.2c-1.2,0-2.2-1-2.2-2.2c0-1.2,1-2.2,2.2-2.2C590.8,26.1,591.8,27.1,591.8,28.3z
		"/>
	<path class="st1" d="M598.4,28.3c0,1.2-1,2.2-2.2,2.2c-1.2,0-2.2-1-2.2-2.2c0-1.2,1-2.2,2.2-2.2C597.4,26.1,598.4,27.1,598.4,28.3z
		"/>
	<path class="st1" d="M603.9,28.3c0,1.2-1,2.2-2.2,2.2c-1.2,0-2.2-1-2.2-2.2c0-1.2,1-2.2,2.2-2.2C602.9,26.1,603.9,27.1,603.9,28.3z
		"/>
	<path class="st1" d="M560,21.7c0,1.2-1,2.2-2.2,2.2s-2.2-1-2.2-2.2c0-1.2,1-2.2,2.2-2.2S560,20.5,560,21.7z"/>
	<path class="st1" d="M566.6,21.7c0,1.2-1,2.2-2.2,2.2c-1.2,0-2.2-1-2.2-2.2c0-1.2,1-2.2,2.2-2.2C565.6,19.5,566.6,20.5,566.6,21.7z
		"/>
	<path class="st1" d="M560,9.7c0,1.2-1,2.2-2.2,2.2s-2.2-1-2.2-2.2c0-1.2,1-2.2,2.2-2.2S560,8.5,560,9.7z"/>
	<path class="st1" d="M554.5,9.7c0,1.2-1,2.2-2.2,2.2c-1.2,0-2.2-1-2.2-2.2c0-1.2,1-2.2,2.2-2.2C553.5,7.5,554.5,8.5,554.5,9.7z"/>
	<path class="st1" d="M566.6,9.7c0,1.2-1,2.2-2.2,2.2c-1.2,0-2.2-1-2.2-2.2c0-1.2,1-2.2,2.2-2.2C565.6,7.5,566.6,8.5,566.6,9.7z"/>
	<path class="st1" d="M548,34.9c0,1.2-1,2.2-2.2,2.2c-1.2,0-2.2-1-2.2-2.2c0-1.2,1-2.2,2.2-2.2C547,32.7,548,33.7,548,34.9z"/>
	<path class="st1" d="M553.4,34.9c0,1.2-1,2.2-2.2,2.2c-1.2,0-2.2-1-2.2-2.2c0-1.2,1-2.2,2.2-2.2C552.4,32.7,553.4,33.7,553.4,34.9z
		"/>
	<path class="st1" d="M548,28.3c0,1.2-1,2.2-2.2,2.2c-1.2,0-2.2-1-2.2-2.2c0-1.2,1-2.2,2.2-2.2C547,26.1,548,27.1,548,28.3z"/>
	<path class="st1" d="M541.4,34.9c0,1.2-1,2.2-2.2,2.2c-1.2,0-2.2-1-2.2-2.2c0-1.2,1-2.2,2.2-2.2C540.4,32.7,541.4,33.7,541.4,34.9z
		"/>
	<path class="st1" d="M541.4,28.3c0,1.2-1,2.2-2.2,2.2c-1.2,0-2.2-1-2.2-2.2c0-1.2,1-2.2,2.2-2.2C540.4,26.1,541.4,27.1,541.4,28.3z
		"/>
	<path class="st1" d="M529.3,28.3c0,1.2-1,2.2-2.2,2.2c-1.2,0-2.2-1-2.2-2.2c0-1.2,1-2.2,2.2-2.2C528.3,26.1,529.3,27.1,529.3,28.3z
		"/>
	<path class="st1" d="M522.7,28.3c0,1.2-1,2.2-2.2,2.2c-1.2,0-2.2-1-2.2-2.2c0-1.2,1-2.2,2.2-2.2C521.8,26.1,522.7,27.1,522.7,28.3z
		"/>
	<path class="st1" d="M553.4,28.3c0,1.2-1,2.2-2.2,2.2c-1.2,0-2.2-1-2.2-2.2c0-1.2,1-2.2,2.2-2.2C552.4,26.1,553.4,27.1,553.4,28.3z
		"/>
	<path class="st1" d="M573.2,21.7c0,1.2-1,2.2-2.2,2.2c-1.2,0-2.2-1-2.2-2.2c0-1.2,1-2.2,2.2-2.2C572.2,19.5,573.2,20.5,573.2,21.7z
		"/>
	<path class="st1" d="M578.6,21.7c0,1.2-1,2.2-2.2,2.2c-1.2,0-2.2-1-2.2-2.2c0-1.2,1-2.2,2.2-2.2C577.7,19.5,578.6,20.5,578.6,21.7z
		"/>
	<path class="st1" d="M585.2,21.7c0,1.2-1,2.2-2.2,2.2c-1.2,0-2.2-1-2.2-2.2c0-1.2,1-2.2,2.2-2.2C584.2,19.5,585.2,20.5,585.2,21.7z
		"/>
	<path class="st1" d="M591.8,21.7c0,1.2-1,2.2-2.2,2.2c-1.2,0-2.2-1-2.2-2.2c0-1.2,1-2.2,2.2-2.2C590.8,19.5,591.8,20.5,591.8,21.7z
		"/>
	<path class="st1" d="M598.4,21.7c0,1.2-1,2.2-2.2,2.2c-1.2,0-2.2-1-2.2-2.2c0-1.2,1-2.2,2.2-2.2C597.4,19.5,598.4,20.5,598.4,21.7z
		"/>
	<path class="st1" d="M578.6,15.2c0,1.2-1,2.2-2.2,2.2c-1.2,0-2.2-1-2.2-2.2c0-1.2,1-2.2,2.2-2.2C577.7,13,578.6,14,578.6,15.2z"/>
	<path class="st1" d="M585.2,15.2c0,1.2-1,2.2-2.2,2.2c-1.2,0-2.2-1-2.2-2.2c0-1.2,1-2.2,2.2-2.2C584.2,13,585.2,14,585.2,15.2z"/>
	<path class="st1" d="M591.8,15.2c0,1.2-1,2.2-2.2,2.2c-1.2,0-2.2-1-2.2-2.2c0-1.2,1-2.2,2.2-2.2C590.8,13,591.8,14,591.8,15.2z"/>
	<path class="st1" d="M598.4,15.2c0,1.2-1,2.2-2.2,2.2c-1.2,0-2.2-1-2.2-2.2c0-1.2,1-2.2,2.2-2.2C597.4,13,598.4,14,598.4,15.2z"/>
	<path class="st1" d="M598.4,66.7c0,1.2-1,2.2-2.2,2.2c-1.2,0-2.2-1-2.2-2.2c0-1.2,1-2.2,2.2-2.2C597.4,64.5,598.4,65.5,598.4,66.7z
		"/>
	<path class="st1" d="M598.4,73.3c0,1.2-1,2.2-2.2,2.2c-1.2,0-2.2-1-2.2-2.2c0-1.2,1-2.2,2.2-2.2C597.4,71.1,598.4,72,598.4,73.3z"
		/>
	<path class="st1" d="M603.9,66.7c0,1.2-1,2.2-2.2,2.2c-1.2,0-2.2-1-2.2-2.2c0-1.2,1-2.2,2.2-2.2C602.9,64.5,603.9,65.5,603.9,66.7z
		"/>
	<path class="st1" d="M603.9,73.3c0,1.2-1,2.2-2.2,2.2c-1.2,0-2.2-1-2.2-2.2c0-1.2,1-2.2,2.2-2.2C602.9,71.1,603.9,72,603.9,73.3z"
		/>
	<path class="st1" d="M566.6,66.7c0,1.2-1,2.2-2.2,2.2c-1.2,0-2.2-1-2.2-2.2c0-1.2,1-2.2,2.2-2.2C565.6,64.5,566.6,65.5,566.6,66.7z
		"/>
	<path class="st1" d="M566.6,73.3c0,1.2-1,2.2-2.2,2.2c-1.2,0-2.2-1-2.2-2.2c0-1.2,1-2.2,2.2-2.2C565.6,71.1,566.6,72,566.6,73.3z"
		/>
	<path class="st1" d="M573.2,66.7c0,1.2-1,2.2-2.2,2.2c-1.2,0-2.2-1-2.2-2.2c0-1.2,1-2.2,2.2-2.2C572.2,64.5,573.2,65.5,573.2,66.7z
		"/>
	<path class="st1" d="M573.2,73.3c0,1.2-1,2.2-2.2,2.2c-1.2,0-2.2-1-2.2-2.2c0-1.2,1-2.2,2.2-2.2C572.2,71.1,573.2,72,573.2,73.3z"
		/>
	<path class="st1" d="M578.6,66.7c0,1.2-1,2.2-2.2,2.2c-1.2,0-2.2-1-2.2-2.2c0-1.2,1-2.2,2.2-2.2C577.7,64.5,578.6,65.5,578.6,66.7z
		"/>
	<path class="st1" d="M578.6,73.3c0,1.2-1,2.2-2.2,2.2c-1.2,0-2.2-1-2.2-2.2c0-1.2,1-2.2,2.2-2.2C577.7,71.1,578.6,72,578.6,73.3z"
		/>
	<path class="st1" d="M585.2,66.7c0,1.2-1,2.2-2.2,2.2c-1.2,0-2.2-1-2.2-2.2c0-1.2,1-2.2,2.2-2.2C584.2,64.5,585.2,65.5,585.2,66.7z
		"/>
	<path class="st1" d="M585.2,73.3c0,1.2-1,2.2-2.2,2.2c-1.2,0-2.2-1-2.2-2.2c0-1.2,1-2.2,2.2-2.2C584.2,71.1,585.2,72,585.2,73.3z"
		/>
	<path class="st1" d="M591.8,66.7c0,1.2-1,2.2-2.2,2.2c-1.2,0-2.2-1-2.2-2.2c0-1.2,1-2.2,2.2-2.2C590.8,64.5,591.8,65.5,591.8,66.7z
		"/>
	<path class="st1" d="M591.8,73.3c0,1.2-1,2.2-2.2,2.2c-1.2,0-2.2-1-2.2-2.2c0-1.2,1-2.2,2.2-2.2C590.8,71.1,591.8,72,591.8,73.3z"
		/>
	<path class="st1" d="M548,66.7c0,1.2-1,2.2-2.2,2.2c-1.2,0-2.2-1-2.2-2.2c0-1.2,1-2.2,2.2-2.2C547,64.5,548,65.5,548,66.7z"/>
	<path class="st1" d="M548,73.3c0,1.2-1,2.2-2.2,2.2c-1.2,0-2.2-1-2.2-2.2c0-1.2,1-2.2,2.2-2.2C547,71.1,548,72,548,73.3z"/>
	<path class="st1" d="M553.4,66.7c0,1.2-1,2.2-2.2,2.2c-1.2,0-2.2-1-2.2-2.2c0-1.2,1-2.2,2.2-2.2C552.5,64.5,553.4,65.5,553.4,66.7z
		"/>
	<path class="st1" d="M553.4,73.3c0,1.2-1,2.2-2.2,2.2c-1.2,0-2.2-1-2.2-2.2c0-1.2,1-2.2,2.2-2.2C552.5,71.1,553.4,72,553.4,73.3z"
		/>
	<path class="st1" d="M560,66.7c0,1.2-1,2.2-2.2,2.2c-1.2,0-2.2-1-2.2-2.2c0-1.2,1-2.2,2.2-2.2C559,64.5,560,65.5,560,66.7z"/>
	<path class="st1" d="M560,73.3c0,1.2-1,2.2-2.2,2.2c-1.2,0-2.2-1-2.2-2.2c0-1.2,1-2.2,2.2-2.2C559,71.1,560,72,560,73.3z"/>
	<path class="st1" d="M598.4,53.5c0,1.2-1,2.2-2.2,2.2c-1.2,0-2.2-1-2.2-2.2c0-1.2,1-2.2,2.2-2.2C597.4,51.3,598.4,52.3,598.4,53.5z
		"/>
	<path class="st1" d="M598.4,60.1c0,1.2-1,2.2-2.2,2.2c-1.2,0-2.2-1-2.2-2.2c0-1.2,1-2.2,2.2-2.2C597.4,57.9,598.4,58.9,598.4,60.1z
		"/>
	<path class="st1" d="M603.9,53.5c0,1.2-1,2.2-2.2,2.2c-1.2,0-2.2-1-2.2-2.2c0-1.2,1-2.2,2.2-2.2C602.9,51.3,603.9,52.3,603.9,53.5z
		"/>
	<path class="st1" d="M603.9,60.1c0,1.2-1,2.2-2.2,2.2c-1.2,0-2.2-1-2.2-2.2c0-1.2,1-2.2,2.2-2.2C602.9,57.9,603.9,58.9,603.9,60.1z
		"/>
	<path class="st1" d="M566.6,53.5c0,1.2-1,2.2-2.2,2.2c-1.2,0-2.2-1-2.2-2.2c0-1.2,1-2.2,2.2-2.2C565.6,51.3,566.6,52.3,566.6,53.5z
		"/>
	<path class="st1" d="M566.6,60.1c0,1.2-1,2.2-2.2,2.2c-1.2,0-2.2-1-2.2-2.2c0-1.2,1-2.2,2.2-2.2C565.6,57.9,566.6,58.9,566.6,60.1z
		"/>
	<path class="st1" d="M573.2,53.5c0,1.2-1,2.2-2.2,2.2c-1.2,0-2.2-1-2.2-2.2c0-1.2,1-2.2,2.2-2.2C572.2,51.3,573.2,52.3,573.2,53.5z
		"/>
	<path class="st1" d="M573.2,60.1c0,1.2-1,2.2-2.2,2.2c-1.2,0-2.2-1-2.2-2.2c0-1.2,1-2.2,2.2-2.2C572.2,57.9,573.2,58.9,573.2,60.1z
		"/>
	<path class="st1" d="M578.6,53.5c0,1.2-1,2.2-2.2,2.2c-1.2,0-2.2-1-2.2-2.2c0-1.2,1-2.2,2.2-2.2C577.7,51.3,578.6,52.3,578.6,53.5z
		"/>
	<path class="st1" d="M578.6,60.1c0,1.2-1,2.2-2.2,2.2c-1.2,0-2.2-1-2.2-2.2c0-1.2,1-2.2,2.2-2.2C577.7,57.9,578.6,58.9,578.6,60.1z
		"/>
	<path class="st1" d="M585.2,53.5c0,1.2-1,2.2-2.2,2.2c-1.2,0-2.2-1-2.2-2.2c0-1.2,1-2.2,2.2-2.2C584.2,51.3,585.2,52.3,585.2,53.5z
		"/>
	<path class="st1" d="M585.2,60.1c0,1.2-1,2.2-2.2,2.2c-1.2,0-2.2-1-2.2-2.2c0-1.2,1-2.2,2.2-2.2C584.2,57.9,585.2,58.9,585.2,60.1z
		"/>
	<path class="st1" d="M591.8,53.5c0,1.2-1,2.2-2.2,2.2c-1.2,0-2.2-1-2.2-2.2c0-1.2,1-2.2,2.2-2.2C590.8,51.3,591.8,52.3,591.8,53.5z
		"/>
	<path class="st1" d="M591.8,60.1c0,1.2-1,2.2-2.2,2.2c-1.2,0-2.2-1-2.2-2.2c0-1.2,1-2.2,2.2-2.2C590.8,57.9,591.8,58.9,591.8,60.1z
		"/>
	<path class="st1" d="M548,53.5c0,1.2-1,2.2-2.2,2.2c-1.2,0-2.2-1-2.2-2.2c0-1.2,1-2.2,2.2-2.2C547,51.3,548,52.3,548,53.5z"/>
	<path class="st1" d="M548,60.1c0,1.2-1,2.2-2.2,2.2c-1.2,0-2.2-1-2.2-2.2c0-1.2,1-2.2,2.2-2.2C547,57.9,548,58.9,548,60.1z"/>
	<path class="st1" d="M553.4,53.5c0,1.2-1,2.2-2.2,2.2c-1.2,0-2.2-1-2.2-2.2c0-1.2,1-2.2,2.2-2.2C552.5,51.3,553.4,52.3,553.4,53.5z
		"/>
	<path class="st1" d="M553.4,60.1c0,1.2-1,2.2-2.2,2.2c-1.2,0-2.2-1-2.2-2.2c0-1.2,1-2.2,2.2-2.2C552.5,57.9,553.4,58.9,553.4,60.1z
		"/>
	<path class="st1" d="M560,53.5c0,1.2-1,2.2-2.2,2.2c-1.2,0-2.2-1-2.2-2.2c0-1.2,1-2.2,2.2-2.2C559,51.3,560,52.3,560,53.5z"/>
	<path class="st1" d="M560,60.1c0,1.2-1,2.2-2.2,2.2c-1.2,0-2.2-1-2.2-2.2c0-1.2,1-2.2,2.2-2.2C559,57.9,560,58.9,560,60.1z"/>
	<path class="st1" d="M598.4,40.4c0,1.2-1,2.2-2.2,2.2c-1.2,0-2.2-1-2.2-2.2c0-1.2,1-2.2,2.2-2.2C597.4,38.2,598.4,39.2,598.4,40.4z
		"/>
	<path class="st1" d="M598.4,46.9c0,1.2-1,2.2-2.2,2.2c-1.2,0-2.2-1-2.2-2.2c0-1.2,1-2.2,2.2-2.2C597.4,44.8,598.4,45.7,598.4,46.9z
		"/>
	<path class="st1" d="M603.9,40.4c0,1.2-1,2.2-2.2,2.2c-1.2,0-2.2-1-2.2-2.2c0-1.2,1-2.2,2.2-2.2C602.9,38.2,603.9,39.2,603.9,40.4z
		"/>
	<path class="st1" d="M603.9,46.9c0,1.2-1,2.2-2.2,2.2c-1.2,0-2.2-1-2.2-2.2c0-1.2,1-2.2,2.2-2.2C602.9,44.8,603.9,45.7,603.9,46.9z
		"/>
	<path class="st1" d="M566.6,40.4c0,1.2-1,2.2-2.2,2.2c-1.2,0-2.2-1-2.2-2.2c0-1.2,1-2.2,2.2-2.2C565.6,38.2,566.6,39.2,566.6,40.4z
		"/>
	<path class="st1" d="M566.6,46.9c0,1.2-1,2.2-2.2,2.2c-1.2,0-2.2-1-2.2-2.2c0-1.2,1-2.2,2.2-2.2C565.6,44.8,566.6,45.7,566.6,46.9z
		"/>
	<path class="st1" d="M573.2,40.4c0,1.2-1,2.2-2.2,2.2c-1.2,0-2.2-1-2.2-2.2c0-1.2,1-2.2,2.2-2.2C572.2,38.2,573.2,39.2,573.2,40.4z
		"/>
	<path class="st1" d="M573.2,46.9c0,1.2-1,2.2-2.2,2.2c-1.2,0-2.2-1-2.2-2.2c0-1.2,1-2.2,2.2-2.2C572.2,44.8,573.2,45.7,573.2,46.9z
		"/>
	<path class="st1" d="M578.6,40.4c0,1.2-1,2.2-2.2,2.2c-1.2,0-2.2-1-2.2-2.2c0-1.2,1-2.2,2.2-2.2C577.7,38.2,578.6,39.2,578.6,40.4z
		"/>
	<path class="st1" d="M578.6,46.9c0,1.2-1,2.2-2.2,2.2c-1.2,0-2.2-1-2.2-2.2c0-1.2,1-2.2,2.2-2.2C577.7,44.8,578.6,45.7,578.6,46.9z
		"/>
	<path class="st1" d="M585.2,40.4c0,1.2-1,2.2-2.2,2.2c-1.2,0-2.2-1-2.2-2.2c0-1.2,1-2.2,2.2-2.2C584.2,38.2,585.2,39.2,585.2,40.4z
		"/>
	<path class="st1" d="M585.2,46.9c0,1.2-1,2.2-2.2,2.2c-1.2,0-2.2-1-2.2-2.2c0-1.2,1-2.2,2.2-2.2C584.2,44.8,585.2,45.7,585.2,46.9z
		"/>
	<path class="st1" d="M591.8,40.4c0,1.2-1,2.2-2.2,2.2c-1.2,0-2.2-1-2.2-2.2c0-1.2,1-2.2,2.2-2.2C590.8,38.2,591.8,39.2,591.8,40.4z
		"/>
	<path class="st1" d="M591.8,46.9c0,1.2-1,2.2-2.2,2.2c-1.2,0-2.2-1-2.2-2.2c0-1.2,1-2.2,2.2-2.2C590.8,44.8,591.8,45.7,591.8,46.9z
		"/>
	<path class="st1" d="M548,40.4c0,1.2-1,2.2-2.2,2.2c-1.2,0-2.2-1-2.2-2.2c0-1.2,1-2.2,2.2-2.2C547,38.2,548,39.2,548,40.4z"/>
	<path class="st1" d="M548,46.9c0,1.2-1,2.2-2.2,2.2c-1.2,0-2.2-1-2.2-2.2c0-1.2,1-2.2,2.2-2.2C547,44.8,548,45.7,548,46.9z"/>
	<path class="st1" d="M541.4,66.7c0,1.2-1,2.2-2.2,2.2c-1.2,0-2.2-1-2.2-2.2c0-1.2,1-2.2,2.2-2.2C540.4,64.5,541.4,65.5,541.4,66.7z
		"/>
	<path class="st1" d="M541.4,53.5c0,1.2-1,2.2-2.2,2.2c-1.2,0-2.2-1-2.2-2.2c0-1.2,1-2.2,2.2-2.2C540.4,51.3,541.4,52.3,541.4,53.5z
		"/>
	<path class="st1" d="M541.4,60.1c0,1.2-1,2.2-2.2,2.2c-1.2,0-2.2-1-2.2-2.2c0-1.2,1-2.2,2.2-2.2C540.4,57.9,541.4,58.9,541.4,60.1z
		"/>
	<path class="st1" d="M541.4,40.4c0,1.2-1,2.2-2.2,2.2c-1.2,0-2.2-1-2.2-2.2c0-1.2,1-2.2,2.2-2.2C540.4,38.2,541.4,39.2,541.4,40.4z
		"/>
	<path class="st1" d="M541.4,46.9c0,1.2-1,2.2-2.2,2.2c-1.2,0-2.2-1-2.2-2.2c0-1.2,1-2.2,2.2-2.2C540.4,44.8,541.4,45.7,541.4,46.9z
		"/>
	<path class="st1" d="M553.4,40.4c0,1.2-1,2.2-2.2,2.2c-1.2,0-2.2-1-2.2-2.2c0-1.2,1-2.2,2.2-2.2C552.5,38.2,553.4,39.2,553.4,40.4z
		"/>
	<path class="st1" d="M553.4,46.9c0,1.2-1,2.2-2.2,2.2c-1.2,0-2.2-1-2.2-2.2c0-1.2,1-2.2,2.2-2.2C552.5,44.8,553.4,45.7,553.4,46.9z
		"/>
	<path class="st1" d="M560,40.4c0,1.2-1,2.2-2.2,2.2c-1.2,0-2.2-1-2.2-2.2c0-1.2,1-2.2,2.2-2.2C559,38.2,560,39.2,560,40.4z"/>
	<path class="st1" d="M560,46.9c0,1.2-1,2.2-2.2,2.2c-1.2,0-2.2-1-2.2-2.2c0-1.2,1-2.2,2.2-2.2C559,44.8,560,45.7,560,46.9z"/>
	<path class="st1" d="M623.6,85.3c0,1.2-1,2.2-2.2,2.2c-1.2,0-2.2-1-2.2-2.2c0-1.2,1-2.2,2.2-2.2C622.6,83.1,623.6,84.1,623.6,85.3z
		"/>
	<path class="st1" d="M629.1,85.3c0,1.2-1,2.2-2.2,2.2c-1.2,0-2.2-1-2.2-2.2c0-1.2,1-2.2,2.2-2.2C628.1,83.1,629.1,84.1,629.1,85.3z
		"/>
	<path class="st1" d="M635.7,85.3c0,1.2-1,2.2-2.2,2.2c-1.2,0-2.2-1-2.2-2.2c0-1.2,1-2.2,2.2-2.2C634.7,83.1,635.7,84.1,635.7,85.3z
		"/>
	<path class="st1" d="M642.2,85.3c0,1.2-1,2.2-2.2,2.2c-1.2,0-2.2-1-2.2-2.2c0-1.2,1-2.2,2.2-2.2C641.2,83.1,642.2,84.1,642.2,85.3z
		"/>
	<path class="st1" d="M648.8,85.3c0,1.2-1,2.2-2.2,2.2s-2.2-1-2.2-2.2c0-1.2,1-2.2,2.2-2.2S648.8,84.1,648.8,85.3z"/>
	<path class="st1" d="M654.3,85.3c0,1.2-1,2.2-2.2,2.2c-1.2,0-2.2-1-2.2-2.2c0-1.2,1-2.2,2.2-2.2C653.3,83.1,654.3,84.1,654.3,85.3z
		"/>
	<path class="st1" d="M660.9,85.3c0,1.2-1,2.2-2.2,2.2c-1.2,0-2.2-1-2.2-2.2c0-1.2,1-2.2,2.2-2.2C659.9,83.1,660.9,84.1,660.9,85.3z
		"/>
	<path class="st1" d="M667.4,85.3c0,1.2-1,2.2-2.2,2.2c-1.2,0-2.2-1-2.2-2.2c0-1.2,1-2.2,2.2-2.2C666.5,83.1,667.4,84.1,667.4,85.3z
		"/>
	<path class="st1" d="M623.6,78.7c0,1.2-1,2.2-2.2,2.2c-1.2,0-2.2-1-2.2-2.2c0-1.2,1-2.2,2.2-2.2C622.6,76.5,623.6,77.5,623.6,78.7z
		"/>
	<path class="st1" d="M629.1,78.7c0,1.2-1,2.2-2.2,2.2c-1.2,0-2.2-1-2.2-2.2c0-1.2,1-2.2,2.2-2.2C628.1,76.5,629.1,77.5,629.1,78.7z
		"/>
	<path class="st1" d="M610.4,85.3c0,1.2-1,2.2-2.2,2.2c-1.2,0-2.2-1-2.2-2.2c0-1.2,1-2.2,2.2-2.2C609.5,83.1,610.4,84.1,610.4,85.3z
		"/>
	<path class="st1" d="M617,85.3c0,1.2-1,2.2-2.2,2.2c-1.2,0-2.2-1-2.2-2.2c0-1.2,1-2.2,2.2-2.2C616,83.1,617,84.1,617,85.3z"/>
	<path class="st1" d="M623.6,91.9c0,1.2-1,2.2-2.2,2.2c-1.2,0-2.2-1-2.2-2.2c0-1.2,1-2.2,2.2-2.2C622.6,89.7,623.6,90.7,623.6,91.9z
		"/>
	<path class="st1" d="M629.1,91.9c0,1.2-1,2.2-2.2,2.2c-1.2,0-2.2-1-2.2-2.2c0-1.2,1-2.2,2.2-2.2C628.1,89.7,629.1,90.7,629.1,91.9z
		"/>
	<path class="st1" d="M635.7,91.9c0,1.2-1,2.2-2.2,2.2c-1.2,0-2.2-1-2.2-2.2c0-1.2,1-2.2,2.2-2.2C634.7,89.7,635.7,90.7,635.7,91.9z
		"/>
	<path class="st1" d="M642.2,91.9c0,1.2-1,2.2-2.2,2.2c-1.2,0-2.2-1-2.2-2.2c0-1.2,1-2.2,2.2-2.2C641.2,89.7,642.2,90.7,642.2,91.9z
		"/>
	<path class="st1" d="M648.8,91.9c0,1.2-1,2.2-2.2,2.2s-2.2-1-2.2-2.2c0-1.2,1-2.2,2.2-2.2S648.8,90.7,648.8,91.9z"/>
	<path class="st1" d="M617,91.9c0,1.2-1,2.2-2.2,2.2c-1.2,0-2.2-1-2.2-2.2c0-1.2,1-2.2,2.2-2.2C616,89.7,617,90.7,617,91.9z"/>
	<path class="st1" d="M610.4,78.7c0,1.2-1,2.2-2.2,2.2c-1.2,0-2.2-1-2.2-2.2c0-1.2,1-2.2,2.2-2.2C609.5,76.5,610.4,77.5,610.4,78.7z
		"/>
	<path class="st1" d="M617,78.7c0,1.2-1,2.2-2.2,2.2c-1.2,0-2.2-1-2.2-2.2c0-1.2,1-2.2,2.2-2.2C616,76.5,617,77.5,617,78.7z"/>
	<path class="st1" d="M635.7,78.7c0,1.2-1,2.2-2.2,2.2c-1.2,0-2.2-1-2.2-2.2c0-1.2,1-2.2,2.2-2.2C634.7,76.5,635.7,77.5,635.7,78.7z
		"/>
	<path class="st1" d="M642.2,78.7c0,1.2-1,2.2-2.2,2.2c-1.2,0-2.2-1-2.2-2.2c0-1.2,1-2.2,2.2-2.2C641.2,76.5,642.2,77.5,642.2,78.7z
		"/>
	<path class="st1" d="M648.8,78.7c0,1.2-1,2.2-2.2,2.2s-2.2-1-2.2-2.2c0-1.2,1-2.2,2.2-2.2S648.8,77.5,648.8,78.7z"/>
	<path class="st1" d="M654.3,78.7c0,1.2-1,2.2-2.2,2.2c-1.2,0-2.2-1-2.2-2.2c0-1.2,1-2.2,2.2-2.2C653.3,76.5,654.3,77.5,654.3,78.7z
		"/>
	<path class="st1" d="M660.9,78.7c0,1.2-1,2.2-2.2,2.2c-1.2,0-2.2-1-2.2-2.2c0-1.2,1-2.2,2.2-2.2C659.9,76.5,660.9,77.5,660.9,78.7z
		"/>
	<path class="st1" d="M667.4,78.7c0,1.2-1,2.2-2.2,2.2c-1.2,0-2.2-1-2.2-2.2c0-1.2,1-2.2,2.2-2.2C666.5,76.5,667.4,77.5,667.4,78.7z
		"/>
	<path class="st1" d="M623.6,34.9c0,1.2-1,2.2-2.2,2.2c-1.2,0-2.2-1-2.2-2.2c0-1.2,1-2.2,2.2-2.2C622.6,32.7,623.6,33.7,623.6,34.9z
		"/>
	<path class="st1" d="M629.1,34.9c0,1.2-1,2.2-2.2,2.2c-1.2,0-2.2-1-2.2-2.2c0-1.2,1-2.2,2.2-2.2C628.1,32.7,629.1,33.7,629.1,34.9z
		"/>
	<path class="st1" d="M635.7,34.9c0,1.2-1,2.2-2.2,2.2c-1.2,0-2.2-1-2.2-2.2c0-1.2,1-2.2,2.2-2.2C634.7,32.7,635.7,33.7,635.7,34.9z
		"/>
	<path class="st1" d="M642.2,34.9c0,1.2-1,2.2-2.2,2.2c-1.2,0-2.2-1-2.2-2.2c0-1.2,1-2.2,2.2-2.2C641.2,32.7,642.2,33.7,642.2,34.9z
		"/>
	<path class="st1" d="M648.8,34.9c0,1.2-1,2.2-2.2,2.2s-2.2-1-2.2-2.2c0-1.2,1-2.2,2.2-2.2S648.8,33.7,648.8,34.9z"/>
	<path class="st1" d="M654.3,34.9c0,1.2-1,2.2-2.2,2.2c-1.2,0-2.2-1-2.2-2.2c0-1.2,1-2.2,2.2-2.2C653.3,32.7,654.3,33.7,654.3,34.9z
		"/>
	<path class="st1" d="M660.9,34.9c0,1.2-1,2.2-2.2,2.2c-1.2,0-2.2-1-2.2-2.2c0-1.2,1-2.2,2.2-2.2C659.9,32.7,660.9,33.7,660.9,34.9z
		"/>
	<path class="st1" d="M667.4,34.9c0,1.2-1,2.2-2.2,2.2c-1.2,0-2.2-1-2.2-2.2c0-1.2,1-2.2,2.2-2.2C666.5,32.7,667.4,33.7,667.4,34.9z
		"/>
	<path class="st1" d="M623.6,28.3c0,1.2-1,2.2-2.2,2.2c-1.2,0-2.2-1-2.2-2.2c0-1.2,1-2.2,2.2-2.2C622.6,26.1,623.6,27.1,623.6,28.3z
		"/>
	<path class="st1" d="M629.1,28.3c0,1.2-1,2.2-2.2,2.2c-1.2,0-2.2-1-2.2-2.2c0-1.2,1-2.2,2.2-2.2C628.1,26.1,629.1,27.1,629.1,28.3z
		"/>
	<path class="st1" d="M635.7,28.3c0,1.2-1,2.2-2.2,2.2c-1.2,0-2.2-1-2.2-2.2c0-1.2,1-2.2,2.2-2.2C634.7,26.1,635.7,27.1,635.7,28.3z
		"/>
	<path class="st1" d="M642.2,28.3c0,1.2-1,2.2-2.2,2.2c-1.2,0-2.2-1-2.2-2.2c0-1.2,1-2.2,2.2-2.2C641.2,26.1,642.2,27.1,642.2,28.3z
		"/>
	<path class="st1" d="M648.8,28.3c0,1.2-1,2.2-2.2,2.2s-2.2-1-2.2-2.2c0-1.2,1-2.2,2.2-2.2S648.8,27.1,648.8,28.3z"/>
	<path class="st1" d="M610.4,34.9c0,1.2-1,2.2-2.2,2.2c-1.2,0-2.2-1-2.2-2.2c0-1.2,1-2.2,2.2-2.2C609.5,32.7,610.4,33.7,610.4,34.9z
		"/>
	<path class="st1" d="M617,34.9c0,1.2-1,2.2-2.2,2.2c-1.2,0-2.2-1-2.2-2.2c0-1.2,1-2.2,2.2-2.2C616,32.7,617,33.7,617,34.9z"/>
	<path class="st1" d="M610.4,28.3c0,1.2-1,2.2-2.2,2.2c-1.2,0-2.2-1-2.2-2.2c0-1.2,1-2.2,2.2-2.2C609.5,26.1,610.4,27.1,610.4,28.3z
		"/>
	<path class="st1" d="M617,28.3c0,1.2-1,2.2-2.2,2.2c-1.2,0-2.2-1-2.2-2.2c0-1.2,1-2.2,2.2-2.2C616,26.1,617,27.1,617,28.3z"/>
	<path class="st1" d="M660.9,66.7c0,1.2-1,2.2-2.2,2.2c-1.2,0-2.2-1-2.2-2.2c0-1.2,1-2.2,2.2-2.2C659.9,64.5,660.9,65.5,660.9,66.7z
		"/>
	<path class="st1" d="M660.9,73.3c0,1.2-1,2.2-2.2,2.2c-1.2,0-2.2-1-2.2-2.2c0-1.2,1-2.2,2.2-2.2C659.9,71.1,660.9,72,660.9,73.3z"
		/>
	<path class="st1" d="M667.4,66.7c0,1.2-1,2.2-2.2,2.2c-1.2,0-2.2-1-2.2-2.2c0-1.2,1-2.2,2.2-2.2C666.5,64.5,667.4,65.5,667.4,66.7z
		"/>
	<path class="st1" d="M667.4,73.3c0,1.2-1,2.2-2.2,2.2c-1.2,0-2.2-1-2.2-2.2c0-1.2,1-2.2,2.2-2.2C666.5,71.1,667.4,72,667.4,73.3z"
		/>
	<path class="st1" d="M630.2,66.7c0,1.2-1,2.2-2.2,2.2c-1.2,0-2.2-1-2.2-2.2c0-1.2,1-2.2,2.2-2.2C629.2,64.5,630.2,65.5,630.2,66.7z
		"/>
	<path class="st1" d="M630.2,73.3c0,1.2-1,2.2-2.2,2.2c-1.2,0-2.2-1-2.2-2.2c0-1.2,1-2.2,2.2-2.2C629.2,71.1,630.2,72,630.2,73.3z"
		/>
	<path class="st1" d="M635.7,66.7c0,1.2-1,2.2-2.2,2.2c-1.2,0-2.2-1-2.2-2.2c0-1.2,1-2.2,2.2-2.2C634.7,64.5,635.7,65.5,635.7,66.7z
		"/>
	<path class="st1" d="M635.7,73.3c0,1.2-1,2.2-2.2,2.2c-1.2,0-2.2-1-2.2-2.2c0-1.2,1-2.2,2.2-2.2C634.7,71.1,635.7,72,635.7,73.3z"
		/>
	<path class="st1" d="M642.2,66.7c0,1.2-1,2.2-2.2,2.2c-1.2,0-2.2-1-2.2-2.2c0-1.2,1-2.2,2.2-2.2C641.2,64.5,642.2,65.5,642.2,66.7z
		"/>
	<path class="st1" d="M642.2,73.3c0,1.2-1,2.2-2.2,2.2c-1.2,0-2.2-1-2.2-2.2c0-1.2,1-2.2,2.2-2.2C641.2,71.1,642.2,72,642.2,73.3z"
		/>
	<path class="st1" d="M648.8,66.7c0,1.2-1,2.2-2.2,2.2c-1.2,0-2.2-1-2.2-2.2c0-1.2,1-2.2,2.2-2.2C647.8,64.5,648.8,65.5,648.8,66.7z
		"/>
	<path class="st1" d="M648.8,73.3c0,1.2-1,2.2-2.2,2.2c-1.2,0-2.2-1-2.2-2.2c0-1.2,1-2.2,2.2-2.2C647.8,71.1,648.8,72,648.8,73.3z"
		/>
	<path class="st1" d="M655.4,66.7c0,1.2-1,2.2-2.2,2.2c-1.2,0-2.2-1-2.2-2.2c0-1.2,1-2.2,2.2-2.2C654.4,64.5,655.4,65.5,655.4,66.7z
		"/>
	<path class="st1" d="M655.4,73.3c0,1.2-1,2.2-2.2,2.2c-1.2,0-2.2-1-2.2-2.2c0-1.2,1-2.2,2.2-2.2C654.4,71.1,655.4,72,655.4,73.3z"
		/>
	<path class="st1" d="M610.4,66.7c0,1.2-1,2.2-2.2,2.2c-1.2,0-2.2-1-2.2-2.2c0-1.2,1-2.2,2.2-2.2C609.5,64.5,610.4,65.5,610.4,66.7z
		"/>
	<path class="st1" d="M610.4,73.3c0,1.2-1,2.2-2.2,2.2c-1.2,0-2.2-1-2.2-2.2c0-1.2,1-2.2,2.2-2.2C609.5,71.1,610.4,72,610.4,73.3z"
		/>
	<path class="st1" d="M617,66.7c0,1.2-1,2.2-2.2,2.2c-1.2,0-2.2-1-2.2-2.2c0-1.2,1-2.2,2.2-2.2C616,64.5,617,65.5,617,66.7z"/>
	<path class="st1" d="M617,73.3c0,1.2-1,2.2-2.2,2.2c-1.2,0-2.2-1-2.2-2.2c0-1.2,1-2.2,2.2-2.2C616,71.1,617,72,617,73.3z"/>
	<path class="st1" d="M623.6,66.7c0,1.2-1,2.2-2.2,2.2c-1.2,0-2.2-1-2.2-2.2c0-1.2,1-2.2,2.2-2.2C622.6,64.5,623.6,65.5,623.6,66.7z
		"/>
	<path class="st1" d="M623.6,73.3c0,1.2-1,2.2-2.2,2.2c-1.2,0-2.2-1-2.2-2.2c0-1.2,1-2.2,2.2-2.2C622.6,71.1,623.6,72,623.6,73.3z"
		/>
	<path class="st1" d="M660.9,53.5c0,1.2-1,2.2-2.2,2.2c-1.2,0-2.2-1-2.2-2.2c0-1.2,1-2.2,2.2-2.2C659.9,51.3,660.9,52.3,660.9,53.5z
		"/>
	<path class="st1" d="M660.9,60.1c0,1.2-1,2.2-2.2,2.2c-1.2,0-2.2-1-2.2-2.2c0-1.2,1-2.2,2.2-2.2C659.9,57.9,660.9,58.9,660.9,60.1z
		"/>
	<path class="st1" d="M667.4,53.5c0,1.2-1,2.2-2.2,2.2c-1.2,0-2.2-1-2.2-2.2c0-1.2,1-2.2,2.2-2.2C666.5,51.3,667.4,52.3,667.4,53.5z
		"/>
	<path class="st1" d="M667.4,60.1c0,1.2-1,2.2-2.2,2.2c-1.2,0-2.2-1-2.2-2.2c0-1.2,1-2.2,2.2-2.2C666.5,57.9,667.4,58.9,667.4,60.1z
		"/>
	<path class="st1" d="M630.2,53.5c0,1.2-1,2.2-2.2,2.2c-1.2,0-2.2-1-2.2-2.2c0-1.2,1-2.2,2.2-2.2C629.2,51.3,630.2,52.3,630.2,53.5z
		"/>
	<path class="st1" d="M630.2,60.1c0,1.2-1,2.2-2.2,2.2c-1.2,0-2.2-1-2.2-2.2c0-1.2,1-2.2,2.2-2.2C629.2,57.9,630.2,58.9,630.2,60.1z
		"/>
	<path class="st1" d="M635.7,53.5c0,1.2-1,2.2-2.2,2.2c-1.2,0-2.2-1-2.2-2.2c0-1.2,1-2.2,2.2-2.2C634.7,51.3,635.7,52.3,635.7,53.5z
		"/>
	<path class="st1" d="M635.7,60.1c0,1.2-1,2.2-2.2,2.2c-1.2,0-2.2-1-2.2-2.2c0-1.2,1-2.2,2.2-2.2C634.7,57.9,635.7,58.9,635.7,60.1z
		"/>
	<path class="st1" d="M642.2,53.5c0,1.2-1,2.2-2.2,2.2c-1.2,0-2.2-1-2.2-2.2c0-1.2,1-2.2,2.2-2.2C641.2,51.3,642.2,52.3,642.2,53.5z
		"/>
	<path class="st1" d="M642.2,60.1c0,1.2-1,2.2-2.2,2.2c-1.2,0-2.2-1-2.2-2.2c0-1.2,1-2.2,2.2-2.2C641.2,57.9,642.2,58.9,642.2,60.1z
		"/>
	<path class="st1" d="M648.8,53.5c0,1.2-1,2.2-2.2,2.2c-1.2,0-2.2-1-2.2-2.2c0-1.2,1-2.2,2.2-2.2C647.8,51.3,648.8,52.3,648.8,53.5z
		"/>
	<path class="st1" d="M648.8,60.1c0,1.2-1,2.2-2.2,2.2c-1.2,0-2.2-1-2.2-2.2c0-1.2,1-2.2,2.2-2.2C647.8,57.9,648.8,58.9,648.8,60.1z
		"/>
	<path class="st1" d="M655.4,53.5c0,1.2-1,2.2-2.2,2.2c-1.2,0-2.2-1-2.2-2.2c0-1.2,1-2.2,2.2-2.2C654.4,51.3,655.4,52.3,655.4,53.5z
		"/>
	<path class="st1" d="M655.4,60.1c0,1.2-1,2.2-2.2,2.2c-1.2,0-2.2-1-2.2-2.2c0-1.2,1-2.2,2.2-2.2C654.4,57.9,655.4,58.9,655.4,60.1z
		"/>
	<path class="st1" d="M610.4,53.5c0,1.2-1,2.2-2.2,2.2c-1.2,0-2.2-1-2.2-2.2c0-1.2,1-2.2,2.2-2.2C609.5,51.3,610.4,52.3,610.4,53.5z
		"/>
	<path class="st1" d="M610.4,60.1c0,1.2-1,2.2-2.2,2.2c-1.2,0-2.2-1-2.2-2.2c0-1.2,1-2.2,2.2-2.2C609.5,57.9,610.4,58.9,610.4,60.1z
		"/>
	<path class="st1" d="M617,53.5c0,1.2-1,2.2-2.2,2.2c-1.2,0-2.2-1-2.2-2.2c0-1.2,1-2.2,2.2-2.2C616,51.3,617,52.3,617,53.5z"/>
	<path class="st1" d="M617,60.1c0,1.2-1,2.2-2.2,2.2c-1.2,0-2.2-1-2.2-2.2c0-1.2,1-2.2,2.2-2.2C616,57.9,617,58.9,617,60.1z"/>
	<path class="st1" d="M623.6,53.5c0,1.2-1,2.2-2.2,2.2c-1.2,0-2.2-1-2.2-2.2c0-1.2,1-2.2,2.2-2.2C622.6,51.3,623.6,52.3,623.6,53.5z
		"/>
	<path class="st1" d="M623.6,60.1c0,1.2-1,2.2-2.2,2.2c-1.2,0-2.2-1-2.2-2.2c0-1.2,1-2.2,2.2-2.2C622.6,57.9,623.6,58.9,623.6,60.1z
		"/>
	<path class="st1" d="M660.9,40.4c0,1.2-1,2.2-2.2,2.2c-1.2,0-2.2-1-2.2-2.2c0-1.2,1-2.2,2.2-2.2C659.9,38.2,660.9,39.2,660.9,40.4z
		"/>
	<path class="st1" d="M660.9,46.9c0,1.2-1,2.2-2.2,2.2c-1.2,0-2.2-1-2.2-2.2c0-1.2,1-2.2,2.2-2.2C659.9,44.8,660.9,45.7,660.9,46.9z
		"/>
	<path class="st1" d="M667.4,40.4c0,1.2-1,2.2-2.2,2.2c-1.2,0-2.2-1-2.2-2.2c0-1.2,1-2.2,2.2-2.2C666.5,38.2,667.4,39.2,667.4,40.4z
		"/>
	<path class="st1" d="M667.4,46.9c0,1.2-1,2.2-2.2,2.2c-1.2,0-2.2-1-2.2-2.2c0-1.2,1-2.2,2.2-2.2C666.5,44.8,667.4,45.7,667.4,46.9z
		"/>
	<path class="st1" d="M630.2,40.4c0,1.2-1,2.2-2.2,2.2c-1.2,0-2.2-1-2.2-2.2c0-1.2,1-2.2,2.2-2.2C629.2,38.2,630.2,39.2,630.2,40.4z
		"/>
	<path class="st1" d="M630.2,46.9c0,1.2-1,2.2-2.2,2.2c-1.2,0-2.2-1-2.2-2.2c0-1.2,1-2.2,2.2-2.2C629.2,44.8,630.2,45.7,630.2,46.9z
		"/>
	<path class="st1" d="M635.7,40.4c0,1.2-1,2.2-2.2,2.2c-1.2,0-2.2-1-2.2-2.2c0-1.2,1-2.2,2.2-2.2C634.7,38.2,635.7,39.2,635.7,40.4z
		"/>
	<path class="st1" d="M635.7,46.9c0,1.2-1,2.2-2.2,2.2c-1.2,0-2.2-1-2.2-2.2c0-1.2,1-2.2,2.2-2.2C634.7,44.8,635.7,45.7,635.7,46.9z
		"/>
	<path class="st1" d="M642.2,40.4c0,1.2-1,2.2-2.2,2.2c-1.2,0-2.2-1-2.2-2.2c0-1.2,1-2.2,2.2-2.2C641.2,38.2,642.2,39.2,642.2,40.4z
		"/>
	<path class="st1" d="M642.2,46.9c0,1.2-1,2.2-2.2,2.2c-1.2,0-2.2-1-2.2-2.2c0-1.2,1-2.2,2.2-2.2C641.2,44.8,642.2,45.7,642.2,46.9z
		"/>
	<path class="st1" d="M648.8,40.4c0,1.2-1,2.2-2.2,2.2c-1.2,0-2.2-1-2.2-2.2c0-1.2,1-2.2,2.2-2.2C647.8,38.2,648.8,39.2,648.8,40.4z
		"/>
	<path class="st1" d="M648.8,46.9c0,1.2-1,2.2-2.2,2.2c-1.2,0-2.2-1-2.2-2.2c0-1.2,1-2.2,2.2-2.2C647.8,44.8,648.8,45.7,648.8,46.9z
		"/>
	<path class="st1" d="M655.4,40.4c0,1.2-1,2.2-2.2,2.2c-1.2,0-2.2-1-2.2-2.2c0-1.2,1-2.2,2.2-2.2C654.4,38.2,655.4,39.2,655.4,40.4z
		"/>
	<path class="st1" d="M655.4,46.9c0,1.2-1,2.2-2.2,2.2c-1.2,0-2.2-1-2.2-2.2c0-1.2,1-2.2,2.2-2.2C654.4,44.8,655.4,45.7,655.4,46.9z
		"/>
	<path class="st1" d="M610.4,40.4c0,1.2-1,2.2-2.2,2.2c-1.2,0-2.2-1-2.2-2.2c0-1.2,1-2.2,2.2-2.2C609.5,38.2,610.4,39.2,610.4,40.4z
		"/>
	<path class="st1" d="M610.4,46.9c0,1.2-1,2.2-2.2,2.2c-1.2,0-2.2-1-2.2-2.2c0-1.2,1-2.2,2.2-2.2C609.5,44.8,610.4,45.7,610.4,46.9z
		"/>
	<path class="st1" d="M617,40.4c0,1.2-1,2.2-2.2,2.2c-1.2,0-2.2-1-2.2-2.2c0-1.2,1-2.2,2.2-2.2C616,38.2,617,39.2,617,40.4z"/>
	<path class="st1" d="M617,46.9c0,1.2-1,2.2-2.2,2.2c-1.2,0-2.2-1-2.2-2.2c0-1.2,1-2.2,2.2-2.2C616,44.8,617,45.7,617,46.9z"/>
	<path class="st1" d="M623.6,40.4c0,1.2-1,2.2-2.2,2.2c-1.2,0-2.2-1-2.2-2.2c0-1.2,1-2.2,2.2-2.2C622.6,38.2,623.6,39.2,623.6,40.4z
		"/>
	<path class="st1" d="M623.6,46.9c0,1.2-1,2.2-2.2,2.2c-1.2,0-2.2-1-2.2-2.2c0-1.2,1-2.2,2.2-2.2C622.6,44.8,623.6,45.7,623.6,46.9z
		"/>
	<path class="st1" d="M680.6,85.3c0,1.2-1,2.2-2.2,2.2c-1.2,0-2.2-1-2.2-2.2c0-1.2,1-2.2,2.2-2.2C679.6,83.1,680.6,84.1,680.6,85.3z
		"/>
	<path class="st1" d="M686.1,85.3c0,1.2-1,2.2-2.2,2.2c-1.2,0-2.2-1-2.2-2.2c0-1.2,1-2.2,2.2-2.2C685.1,83.1,686.1,84.1,686.1,85.3z
		"/>
	<path class="st1" d="M692.7,85.3c0,1.2-1,2.2-2.2,2.2c-1.2,0-2.2-1-2.2-2.2c0-1.2,1-2.2,2.2-2.2C691.7,83.1,692.7,84.1,692.7,85.3z
		"/>
	<path class="st1" d="M699.2,85.3c0,1.2-1,2.2-2.2,2.2c-1.2,0-2.2-1-2.2-2.2c0-1.2,1-2.2,2.2-2.2C698.3,83.1,699.2,84.1,699.2,85.3z
		"/>
	<path class="st1" d="M705.8,85.3c0,1.2-1,2.2-2.2,2.2c-1.2,0-2.2-1-2.2-2.2c0-1.2,1-2.2,2.2-2.2C704.8,83.1,705.8,84.1,705.8,85.3z
		"/>
	<path class="st1" d="M711.3,85.3c0,1.2-1,2.2-2.2,2.2c-1.2,0-2.2-1-2.2-2.2c0-1.2,1-2.2,2.2-2.2C710.3,83.1,711.3,84.1,711.3,85.3z
		"/>
	<path class="st1" d="M717.9,85.3c0,1.2-1,2.2-2.2,2.2c-1.2,0-2.2-1-2.2-2.2c0-1.2,1-2.2,2.2-2.2C716.9,83.1,717.9,84.1,717.9,85.3z
		"/>
	<path class="st1" d="M724.4,85.3c0,1.2-1,2.2-2.2,2.2c-1.2,0-2.2-1-2.2-2.2c0-1.2,1-2.2,2.2-2.2C723.5,83.1,724.4,84.1,724.4,85.3z
		"/>
	<path class="st1" d="M717.9,90.8c0,1.2-1,2.2-2.2,2.2c-1.2,0-2.2-1-2.2-2.2c0-1.2,1-2.2,2.2-2.2C716.9,88.6,717.9,89.6,717.9,90.8z
		"/>
	<path class="st1" d="M724.4,90.8c0,1.2-1,2.2-2.2,2.2c-1.2,0-2.2-1-2.2-2.2c0-1.2,1-2.2,2.2-2.2C723.5,88.6,724.4,89.6,724.4,90.8z
		"/>
	<path class="st1" d="M680.6,78.7c0,1.2-1,2.2-2.2,2.2c-1.2,0-2.2-1-2.2-2.2c0-1.2,1-2.2,2.2-2.2C679.6,76.5,680.6,77.5,680.6,78.7z
		"/>
	<path class="st1" d="M686.1,78.7c0,1.2-1,2.2-2.2,2.2c-1.2,0-2.2-1-2.2-2.2c0-1.2,1-2.2,2.2-2.2C685.1,76.5,686.1,77.5,686.1,78.7z
		"/>
	<path class="st1" d="M674,85.3c0,1.2-1,2.2-2.2,2.2c-1.2,0-2.2-1-2.2-2.2c0-1.2,1-2.2,2.2-2.2C673,83.1,674,84.1,674,85.3z"/>
	<path class="st1" d="M674,78.7c0,1.2-1,2.2-2.2,2.2c-1.2,0-2.2-1-2.2-2.2c0-1.2,1-2.2,2.2-2.2C673,76.5,674,77.5,674,78.7z"/>
	<path class="st1" d="M692.7,78.7c0,1.2-1,2.2-2.2,2.2c-1.2,0-2.2-1-2.2-2.2c0-1.2,1-2.2,2.2-2.2C691.7,76.5,692.7,77.5,692.7,78.7z
		"/>
	<path class="st1" d="M699.2,78.7c0,1.2-1,2.2-2.2,2.2c-1.2,0-2.2-1-2.2-2.2c0-1.2,1-2.2,2.2-2.2C698.3,76.5,699.2,77.5,699.2,78.7z
		"/>
	<path class="st1" d="M705.8,78.7c0,1.2-1,2.2-2.2,2.2c-1.2,0-2.2-1-2.2-2.2c0-1.2,1-2.2,2.2-2.2C704.8,76.5,705.8,77.5,705.8,78.7z
		"/>
	<path class="st1" d="M711.3,78.7c0,1.2-1,2.2-2.2,2.2c-1.2,0-2.2-1-2.2-2.2c0-1.2,1-2.2,2.2-2.2C710.3,76.5,711.3,77.5,711.3,78.7z
		"/>
	<path class="st1" d="M717.9,78.7c0,1.2-1,2.2-2.2,2.2c-1.2,0-2.2-1-2.2-2.2c0-1.2,1-2.2,2.2-2.2C716.9,76.5,717.9,77.5,717.9,78.7z
		"/>
	<path class="st1" d="M724.4,78.7c0,1.2-1,2.2-2.2,2.2c-1.2,0-2.2-1-2.2-2.2c0-1.2,1-2.2,2.2-2.2C723.5,76.5,724.4,77.5,724.4,78.7z
		"/>
	<path class="st1" d="M680.6,34.9c0,1.2-1,2.2-2.2,2.2c-1.2,0-2.2-1-2.2-2.2c0-1.2,1-2.2,2.2-2.2C679.6,32.7,680.6,33.7,680.6,34.9z
		"/>
	<path class="st1" d="M686.1,34.9c0,1.2-1,2.2-2.2,2.2c-1.2,0-2.2-1-2.2-2.2c0-1.2,1-2.2,2.2-2.2C685.1,32.7,686.1,33.7,686.1,34.9z
		"/>
	<path class="st1" d="M692.7,34.9c0,1.2-1,2.2-2.2,2.2c-1.2,0-2.2-1-2.2-2.2c0-1.2,1-2.2,2.2-2.2C691.7,32.7,692.7,33.7,692.7,34.9z
		"/>
	<path class="st1" d="M699.2,34.9c0,1.2-1,2.2-2.2,2.2c-1.2,0-2.2-1-2.2-2.2c0-1.2,1-2.2,2.2-2.2C698.3,32.7,699.2,33.7,699.2,34.9z
		"/>
	<path class="st1" d="M705.8,34.9c0,1.2-1,2.2-2.2,2.2c-1.2,0-2.2-1-2.2-2.2c0-1.2,1-2.2,2.2-2.2C704.8,32.7,705.8,33.7,705.8,34.9z
		"/>
	<path class="st1" d="M711.3,34.9c0,1.2-1,2.2-2.2,2.2c-1.2,0-2.2-1-2.2-2.2c0-1.2,1-2.2,2.2-2.2C710.3,32.7,711.3,33.7,711.3,34.9z
		"/>
	<path class="st1" d="M717.9,34.9c0,1.2-1,2.2-2.2,2.2c-1.2,0-2.2-1-2.2-2.2c0-1.2,1-2.2,2.2-2.2C716.9,32.7,717.9,33.7,717.9,34.9z
		"/>
	<path class="st1" d="M724.4,34.9c0,1.2-1,2.2-2.2,2.2c-1.2,0-2.2-1-2.2-2.2c0-1.2,1-2.2,2.2-2.2C723.5,32.7,724.4,33.7,724.4,34.9z
		"/>
	<path class="st1" d="M674,34.9c0,1.2-1,2.2-2.2,2.2c-1.2,0-2.2-1-2.2-2.2c0-1.2,1-2.2,2.2-2.2C673,32.7,674,33.7,674,34.9z"/>
	<path class="st1" d="M680.6,28.3c0,1.2-1,2.2-2.2,2.2c-1.2,0-2.2-1-2.2-2.2c0-1.2,1-2.2,2.2-2.2C679.6,26.1,680.6,27.1,680.6,28.3z
		"/>
	<path class="st1" d="M686.1,28.3c0,1.2-1,2.2-2.2,2.2c-1.2,0-2.2-1-2.2-2.2c0-1.2,1-2.2,2.2-2.2C685.1,26.1,686.1,27.1,686.1,28.3z
		"/>
	<path class="st1" d="M674,28.3c0,1.2-1,2.2-2.2,2.2c-1.2,0-2.2-1-2.2-2.2c0-1.2,1-2.2,2.2-2.2C673,26.1,674,27.1,674,28.3z"/>
	<path class="st1" d="M674,20.6c0,1.2-1,2.2-2.2,2.2c-1.2,0-2.2-1-2.2-2.2c0-1.2,1-2.2,2.2-2.2C673,18.5,674,19.4,674,20.6z"/>
	<path class="st1" d="M687.2,66.7c0,1.2-1,2.2-2.2,2.2c-1.2,0-2.2-1-2.2-2.2c0-1.2,1-2.2,2.2-2.2C686.2,64.5,687.2,65.5,687.2,66.7z
		"/>
	<path class="st1" d="M687.2,73.3c0,1.2-1,2.2-2.2,2.2c-1.2,0-2.2-1-2.2-2.2c0-1.2,1-2.2,2.2-2.2C686.2,71.1,687.2,72,687.2,73.3z"
		/>
	<path class="st1" d="M692.7,66.7c0,1.2-1,2.2-2.2,2.2c-1.2,0-2.2-1-2.2-2.2c0-1.2,1-2.2,2.2-2.2C691.7,64.5,692.7,65.5,692.7,66.7z
		"/>
	<path class="st1" d="M692.7,73.3c0,1.2-1,2.2-2.2,2.2c-1.2,0-2.2-1-2.2-2.2c0-1.2,1-2.2,2.2-2.2C691.7,71.1,692.7,72,692.7,73.3z"
		/>
	<path class="st1" d="M699.2,66.7c0,1.2-1,2.2-2.2,2.2c-1.2,0-2.2-1-2.2-2.2c0-1.2,1-2.2,2.2-2.2C698.3,64.5,699.2,65.5,699.2,66.7z
		"/>
	<path class="st1" d="M699.2,73.3c0,1.2-1,2.2-2.2,2.2c-1.2,0-2.2-1-2.2-2.2c0-1.2,1-2.2,2.2-2.2C698.3,71.1,699.2,72,699.2,73.3z"
		/>
	<path class="st1" d="M705.8,66.7c0,1.2-1,2.2-2.2,2.2c-1.2,0-2.2-1-2.2-2.2c0-1.2,1-2.2,2.2-2.2C704.8,64.5,705.8,65.5,705.8,66.7z
		"/>
	<path class="st1" d="M705.8,73.3c0,1.2-1,2.2-2.2,2.2c-1.2,0-2.2-1-2.2-2.2c0-1.2,1-2.2,2.2-2.2C704.8,71.1,705.8,72,705.8,73.3z"
		/>
	<path class="st1" d="M712.4,66.7c0,1.2-1,2.2-2.2,2.2c-1.2,0-2.2-1-2.2-2.2c0-1.2,1-2.2,2.2-2.2C711.4,64.5,712.4,65.5,712.4,66.7z
		"/>
	<path class="st1" d="M712.4,73.3c0,1.2-1,2.2-2.2,2.2c-1.2,0-2.2-1-2.2-2.2c0-1.2,1-2.2,2.2-2.2C711.4,71.1,712.4,72,712.4,73.3z"
		/>
	<path class="st1" d="M674,66.7c0,1.2-1,2.2-2.2,2.2c-1.2,0-2.2-1-2.2-2.2c0-1.2,1-2.2,2.2-2.2C673,64.5,674,65.5,674,66.7z"/>
	<path class="st1" d="M674,73.3c0,1.2-1,2.2-2.2,2.2c-1.2,0-2.2-1-2.2-2.2c0-1.2,1-2.2,2.2-2.2C673,71.1,674,72,674,73.3z"/>
	<path class="st1" d="M680.6,66.7c0,1.2-1,2.2-2.2,2.2c-1.2,0-2.2-1-2.2-2.2c0-1.2,1-2.2,2.2-2.2C679.6,64.5,680.6,65.5,680.6,66.7z
		"/>
	<path class="st1" d="M680.6,73.3c0,1.2-1,2.2-2.2,2.2c-1.2,0-2.2-1-2.2-2.2c0-1.2,1-2.2,2.2-2.2C679.6,71.1,680.6,72,680.6,73.3z"
		/>
	<path class="st1" d="M654.3,103.9c0,1.2-1,2.2-2.2,2.2c-1.2,0-2.2-1-2.2-2.2c0-1.2,1-2.2,2.2-2.2
		C653.3,101.7,654.3,102.7,654.3,103.9z"/>
	<path class="st1" d="M660.9,103.9c0,1.2-1,2.2-2.2,2.2c-1.2,0-2.2-1-2.2-2.2c0-1.2,1-2.2,2.2-2.2
		C659.9,101.7,660.9,102.7,660.9,103.9z"/>
	<path class="st1" d="M667.4,103.9c0,1.2-1,2.2-2.2,2.2c-1.2,0-2.2-1-2.2-2.2c0-1.2,1-2.2,2.2-2.2
		C666.5,101.7,667.4,102.7,667.4,103.9z"/>
	<path class="st1" d="M654.3,97.4c0,1.2-1,2.2-2.2,2.2c-1.2,0-2.2-1-2.2-2.2c0-1.2,1-2.2,2.2-2.2C653.3,95.2,654.3,96.2,654.3,97.4z
		"/>
	<path class="st1" d="M660.9,97.4c0,1.2-1,2.2-2.2,2.2c-1.2,0-2.2-1-2.2-2.2c0-1.2,1-2.2,2.2-2.2C659.9,95.2,660.9,96.2,660.9,97.4z
		"/>
	<path class="st1" d="M667.4,97.4c0,1.2-1,2.2-2.2,2.2c-1.2,0-2.2-1-2.2-2.2c0-1.2,1-2.2,2.2-2.2C666.5,95.2,667.4,96.2,667.4,97.4z
		"/>
	<path class="st1" d="M660.9,90.8c0,1.2-1,2.2-2.2,2.2c-1.2,0-2.2-1-2.2-2.2c0-1.2,1-2.2,2.2-2.2C659.9,88.6,660.9,89.6,660.9,90.8z
		"/>
	<path class="st1" d="M667.4,90.8c0,1.2-1,2.2-2.2,2.2c-1.2,0-2.2-1-2.2-2.2c0-1.2,1-2.2,2.2-2.2C666.5,88.6,667.4,89.6,667.4,90.8z
		"/>
	<path class="st1" d="M655.4,90.8c0,1.2-1,2.2-2.2,2.2c-1.2,0-2.2-1-2.2-2.2c0-1.2,1-2.2,2.2-2.2C654.4,88.6,655.4,89.6,655.4,90.8z
		"/>
	<path class="st1" d="M680.6,103.9c0,1.2-1,2.2-2.2,2.2c-1.2,0-2.2-1-2.2-2.2c0-1.2,1-2.2,2.2-2.2
		C679.6,101.7,680.6,102.7,680.6,103.9z"/>
	<path class="st1" d="M686.1,103.9c0,1.2-1,2.2-2.2,2.2c-1.2,0-2.2-1-2.2-2.2c0-1.2,1-2.2,2.2-2.2
		C685.1,101.7,686.1,102.7,686.1,103.9z"/>
	<path class="st1" d="M692.7,103.9c0,1.2-1,2.2-2.2,2.2c-1.2,0-2.2-1-2.2-2.2c0-1.2,1-2.2,2.2-2.2
		C691.7,101.7,692.7,102.7,692.7,103.9z"/>
	<path class="st1" d="M699.2,103.9c0,1.2-1,2.2-2.2,2.2c-1.2,0-2.2-1-2.2-2.2c0-1.2,1-2.2,2.2-2.2
		C698.3,101.7,699.2,102.7,699.2,103.9z"/>
	<path class="st1" d="M705.8,103.9c0,1.2-1,2.2-2.2,2.2c-1.2,0-2.2-1-2.2-2.2c0-1.2,1-2.2,2.2-2.2
		C704.8,101.7,705.8,102.7,705.8,103.9z"/>
	<path class="st1" d="M711.3,103.9c0,1.2-1,2.2-2.2,2.2c-1.2,0-2.2-1-2.2-2.2c0-1.2,1-2.2,2.2-2.2
		C710.3,101.7,711.3,102.7,711.3,103.9z"/>
	<path class="st1" d="M717.9,103.9c0,1.2-1,2.2-2.2,2.2c-1.2,0-2.2-1-2.2-2.2c0-1.2,1-2.2,2.2-2.2
		C716.9,101.7,717.9,102.7,717.9,103.9z"/>
	<path class="st1" d="M724.4,103.9c0,1.2-1,2.2-2.2,2.2c-1.2,0-2.2-1-2.2-2.2c0-1.2,1-2.2,2.2-2.2
		C723.5,101.7,724.4,102.7,724.4,103.9z"/>
	<path class="st1" d="M680.6,97.4c0,1.2-1,2.2-2.2,2.2c-1.2,0-2.2-1-2.2-2.2c0-1.2,1-2.2,2.2-2.2C679.6,95.2,680.6,96.2,680.6,97.4z
		"/>
	<path class="st1" d="M686.1,97.4c0,1.2-1,2.2-2.2,2.2c-1.2,0-2.2-1-2.2-2.2c0-1.2,1-2.2,2.2-2.2C685.1,95.2,686.1,96.2,686.1,97.4z
		"/>
	<path class="st1" d="M674,103.9c0,1.2-1,2.2-2.2,2.2c-1.2,0-2.2-1-2.2-2.2c0-1.2,1-2.2,2.2-2.2C673,101.7,674,102.7,674,103.9z"/>
	<path class="st1" d="M674,97.4c0,1.2-1,2.2-2.2,2.2c-1.2,0-2.2-1-2.2-2.2c0-1.2,1-2.2,2.2-2.2C673,95.2,674,96.2,674,97.4z"/>
	<path class="st1" d="M692.7,97.4c0,1.2-1,2.2-2.2,2.2c-1.2,0-2.2-1-2.2-2.2c0-1.2,1-2.2,2.2-2.2C691.7,95.2,692.7,96.2,692.7,97.4z
		"/>
	<path class="st1" d="M699.2,97.4c0,1.2-1,2.2-2.2,2.2c-1.2,0-2.2-1-2.2-2.2c0-1.2,1-2.2,2.2-2.2C698.3,95.2,699.2,96.2,699.2,97.4z
		"/>
	<path class="st1" d="M705.8,97.4c0,1.2-1,2.2-2.2,2.2c-1.2,0-2.2-1-2.2-2.2c0-1.2,1-2.2,2.2-2.2C704.8,95.2,705.8,96.2,705.8,97.4z
		"/>
	<path class="st1" d="M711.3,97.4c0,1.2-1,2.2-2.2,2.2c-1.2,0-2.2-1-2.2-2.2c0-1.2,1-2.2,2.2-2.2C710.3,95.2,711.3,96.2,711.3,97.4z
		"/>
	<path class="st1" d="M717.9,97.4c0,1.2-1,2.2-2.2,2.2c-1.2,0-2.2-1-2.2-2.2c0-1.2,1-2.2,2.2-2.2C716.9,95.2,717.9,96.2,717.9,97.4z
		"/>
	<path class="st1" d="M724.4,97.4c0,1.2-1,2.2-2.2,2.2c-1.2,0-2.2-1-2.2-2.2c0-1.2,1-2.2,2.2-2.2C723.5,95.2,724.4,96.2,724.4,97.4z
		"/>
	<path class="st1" d="M654.3,117.1c0,1.2-1,2.2-2.2,2.2c-1.2,0-2.2-1-2.2-2.2c0-1.2,1-2.2,2.2-2.2
		C653.3,114.9,654.3,115.9,654.3,117.1z"/>
	<path class="st1" d="M660.9,117.1c0,1.2-1,2.2-2.2,2.2c-1.2,0-2.2-1-2.2-2.2c0-1.2,1-2.2,2.2-2.2
		C659.9,114.9,660.9,115.9,660.9,117.1z"/>
	<path class="st1" d="M667.4,117.1c0,1.2-1,2.2-2.2,2.2c-1.2,0-2.2-1-2.2-2.2c0-1.2,1-2.2,2.2-2.2
		C666.5,114.9,667.4,115.9,667.4,117.1z"/>
	<path class="st1" d="M654.3,110.5c0,1.2-1,2.2-2.2,2.2c-1.2,0-2.2-1-2.2-2.2c0-1.2,1-2.2,2.2-2.2
		C653.3,108.3,654.3,109.3,654.3,110.5z"/>
	<path class="st1" d="M660.9,110.5c0,1.2-1,2.2-2.2,2.2c-1.2,0-2.2-1-2.2-2.2c0-1.2,1-2.2,2.2-2.2
		C659.9,108.3,660.9,109.3,660.9,110.5z"/>
	<path class="st1" d="M667.4,110.5c0,1.2-1,2.2-2.2,2.2c-1.2,0-2.2-1-2.2-2.2c0-1.2,1-2.2,2.2-2.2
		C666.5,108.3,667.4,109.3,667.4,110.5z"/>
	<path class="st1" d="M680.6,117.1c0,1.2-1,2.2-2.2,2.2c-1.2,0-2.2-1-2.2-2.2c0-1.2,1-2.2,2.2-2.2
		C679.6,114.9,680.6,115.9,680.6,117.1z"/>
	<path class="st1" d="M686.1,117.1c0,1.2-1,2.2-2.2,2.2c-1.2,0-2.2-1-2.2-2.2c0-1.2,1-2.2,2.2-2.2
		C685.1,114.9,686.1,115.9,686.1,117.1z"/>
	<path class="st1" d="M692.7,117.1c0,1.2-1,2.2-2.2,2.2c-1.2,0-2.2-1-2.2-2.2c0-1.2,1-2.2,2.2-2.2
		C691.7,114.9,692.7,115.9,692.7,117.1z"/>
	<path class="st1" d="M699.2,117.1c0,1.2-1,2.2-2.2,2.2c-1.2,0-2.2-1-2.2-2.2c0-1.2,1-2.2,2.2-2.2
		C698.3,114.9,699.2,115.9,699.2,117.1z"/>
	<path class="st1" d="M705.8,117.1c0,1.2-1,2.2-2.2,2.2c-1.2,0-2.2-1-2.2-2.2c0-1.2,1-2.2,2.2-2.2
		C704.8,114.9,705.8,115.9,705.8,117.1z"/>
	<path class="st1" d="M711.3,117.1c0,1.2-1,2.2-2.2,2.2c-1.2,0-2.2-1-2.2-2.2c0-1.2,1-2.2,2.2-2.2
		C710.3,114.9,711.3,115.9,711.3,117.1z"/>
	<path class="st1" d="M717.9,117.1c0,1.2-1,2.2-2.2,2.2c-1.2,0-2.2-1-2.2-2.2c0-1.2,1-2.2,2.2-2.2
		C716.9,114.9,717.9,115.9,717.9,117.1z"/>
	<path class="st1" d="M724.4,117.1c0,1.2-1,2.2-2.2,2.2c-1.2,0-2.2-1-2.2-2.2c0-1.2,1-2.2,2.2-2.2
		C723.5,114.9,724.4,115.9,724.4,117.1z"/>
	<path class="st1" d="M680.6,110.5c0,1.2-1,2.2-2.2,2.2c-1.2,0-2.2-1-2.2-2.2c0-1.2,1-2.2,2.2-2.2
		C679.6,108.3,680.6,109.3,680.6,110.5z"/>
	<path class="st1" d="M686.1,110.5c0,1.2-1,2.2-2.2,2.2c-1.2,0-2.2-1-2.2-2.2c0-1.2,1-2.2,2.2-2.2
		C685.1,108.3,686.1,109.3,686.1,110.5z"/>
	<path class="st1" d="M674,117.1c0,1.2-1,2.2-2.2,2.2c-1.2,0-2.2-1-2.2-2.2c0-1.2,1-2.2,2.2-2.2C673,114.9,674,115.9,674,117.1z"/>
	<path class="st1" d="M674,110.5c0,1.2-1,2.2-2.2,2.2c-1.2,0-2.2-1-2.2-2.2c0-1.2,1-2.2,2.2-2.2C673,108.3,674,109.3,674,110.5z"/>
	<path class="st1" d="M692.7,110.5c0,1.2-1,2.2-2.2,2.2c-1.2,0-2.2-1-2.2-2.2c0-1.2,1-2.2,2.2-2.2
		C691.7,108.3,692.7,109.3,692.7,110.5z"/>
	<path class="st1" d="M699.2,110.5c0,1.2-1,2.2-2.2,2.2c-1.2,0-2.2-1-2.2-2.2c0-1.2,1-2.2,2.2-2.2
		C698.3,108.3,699.2,109.3,699.2,110.5z"/>
	<path class="st1" d="M705.8,110.5c0,1.2-1,2.2-2.2,2.2c-1.2,0-2.2-1-2.2-2.2c0-1.2,1-2.2,2.2-2.2
		C704.8,108.3,705.8,109.3,705.8,110.5z"/>
	<path class="st1" d="M711.3,110.5c0,1.2-1,2.2-2.2,2.2c-1.2,0-2.2-1-2.2-2.2c0-1.2,1-2.2,2.2-2.2
		C710.3,108.3,711.3,109.3,711.3,110.5z"/>
	<path class="st1" d="M717.9,110.5c0,1.2-1,2.2-2.2,2.2c-1.2,0-2.2-1-2.2-2.2c0-1.2,1-2.2,2.2-2.2
		C716.9,108.3,717.9,109.3,717.9,110.5z"/>
	<path class="st1" d="M724.4,110.5c0,1.2-1,2.2-2.2,2.2c-1.2,0-2.2-1-2.2-2.2c0-1.2,1-2.2,2.2-2.2
		C723.5,108.3,724.4,109.3,724.4,110.5z"/>
	<path class="st1" d="M731,85.3c0,1.2-1,2.2-2.2,2.2c-1.2,0-2.2-1-2.2-2.2c0-1.2,1-2.2,2.2-2.2C730,83.1,731,84.1,731,85.3z"/>
	<path class="st1" d="M731,90.8c0,1.2-1,2.2-2.2,2.2c-1.2,0-2.2-1-2.2-2.2c0-1.2,1-2.2,2.2-2.2C730,88.6,731,89.6,731,90.8z"/>
	<path class="st1" d="M731,103.9c0,1.2-1,2.2-2.2,2.2c-1.2,0-2.2-1-2.2-2.2c0-1.2,1-2.2,2.2-2.2C730,101.7,731,102.7,731,103.9z"/>
	<path class="st1" d="M731,97.4c0,1.2-1,2.2-2.2,2.2c-1.2,0-2.2-1-2.2-2.2c0-1.2,1-2.2,2.2-2.2C730,95.2,731,96.2,731,97.4z"/>
	<path class="st1" d="M743.1,90.8c0,1.2-1,2.2-2.2,2.2c-1.2,0-2.2-1-2.2-2.2c0-1.2,1-2.2,2.2-2.2C742.1,88.6,743.1,89.6,743.1,90.8z
		"/>
	<path class="st1" d="M743.1,97.4c0,1.2-1,2.2-2.2,2.2c-1.2,0-2.2-1-2.2-2.2c0-1.2,1-2.2,2.2-2.2C742.1,95.2,743.1,96.2,743.1,97.4z
		"/>
	<path class="st1" d="M736.5,85.3c0,1.2-1,2.2-2.2,2.2c-1.2,0-2.2-1-2.2-2.2c0-1.2,1-2.2,2.2-2.2C735.5,83.1,736.5,84.1,736.5,85.3z
		"/>
	<path class="st1" d="M736.5,97.4c0,1.2-1,2.2-2.2,2.2c-1.2,0-2.2-1-2.2-2.2c0-1.2,1-2.2,2.2-2.2C735.5,95.2,736.5,96.2,736.5,97.4z
		"/>
	<path class="st1" d="M731,110.5c0,1.2-1,2.2-2.2,2.2c-1.2,0-2.2-1-2.2-2.2c0-1.2,1-2.2,2.2-2.2C730,108.3,731,109.3,731,110.5z"/>
	<path class="st1" d="M687.2,90.8c0,1.2-1,2.2-2.2,2.2c-1.2,0-2.2-1-2.2-2.2c0-1.2,1-2.2,2.2-2.2C686.2,88.6,687.2,89.6,687.2,90.8z
		"/>
	<path class="st1" d="M692.7,90.8c0,1.2-1,2.2-2.2,2.2c-1.2,0-2.2-1-2.2-2.2c0-1.2,1-2.2,2.2-2.2C691.7,88.6,692.7,89.6,692.7,90.8z
		"/>
	<path class="st1" d="M699.2,90.8c0,1.2-1,2.2-2.2,2.2c-1.2,0-2.2-1-2.2-2.2c0-1.2,1-2.2,2.2-2.2C698.3,88.6,699.2,89.6,699.2,90.8z
		"/>
	<path class="st1" d="M705.8,90.8c0,1.2-1,2.2-2.2,2.2c-1.2,0-2.2-1-2.2-2.2c0-1.2,1-2.2,2.2-2.2C704.8,88.6,705.8,89.6,705.8,90.8z
		"/>
	<path class="st1" d="M712.4,90.8c0,1.2-1,2.2-2.2,2.2c-1.2,0-2.2-1-2.2-2.2c0-1.2,1-2.2,2.2-2.2C711.4,88.6,712.4,89.6,712.4,90.8z
		"/>
	<path class="st1" d="M674,90.8c0,1.2-1,2.2-2.2,2.2c-1.2,0-2.2-1-2.2-2.2c0-1.2,1-2.2,2.2-2.2C673,88.6,674,89.6,674,90.8z"/>
	<path class="st1" d="M680.6,90.8c0,1.2-1,2.2-2.2,2.2c-1.2,0-2.2-1-2.2-2.2c0-1.2,1-2.2,2.2-2.2C679.6,88.6,680.6,89.6,680.6,90.8z
		"/>
	<path class="st1" d="M717.9,53.5c0,1.2-1,2.2-2.2,2.2c-1.2,0-2.2-1-2.2-2.2c0-1.2,1-2.2,2.2-2.2C716.9,51.3,717.9,52.3,717.9,53.5z
		"/>
	<path class="st1" d="M717.9,60.1c0,1.2-1,2.2-2.2,2.2c-1.2,0-2.2-1-2.2-2.2c0-1.2,1-2.2,2.2-2.2C716.9,57.9,717.9,58.9,717.9,60.1z
		"/>
	<path class="st1" d="M724.4,53.5c0,1.2-1,2.2-2.2,2.2c-1.2,0-2.2-1-2.2-2.2c0-1.2,1-2.2,2.2-2.2C723.5,51.3,724.4,52.3,724.4,53.5z
		"/>
	<path class="st1" d="M724.4,60.1c0,1.2-1,2.2-2.2,2.2c-1.2,0-2.2-1-2.2-2.2c0-1.2,1-2.2,2.2-2.2C723.5,57.9,724.4,58.9,724.4,60.1z
		"/>
	<path class="st1" d="M687.2,53.5c0,1.2-1,2.2-2.2,2.2c-1.2,0-2.2-1-2.2-2.2c0-1.2,1-2.2,2.2-2.2C686.2,51.3,687.2,52.3,687.2,53.5z
		"/>
	<path class="st1" d="M687.2,60.1c0,1.2-1,2.2-2.2,2.2c-1.2,0-2.2-1-2.2-2.2c0-1.2,1-2.2,2.2-2.2C686.2,57.9,687.2,58.9,687.2,60.1z
		"/>
	<path class="st1" d="M692.7,53.5c0,1.2-1,2.2-2.2,2.2c-1.2,0-2.2-1-2.2-2.2c0-1.2,1-2.2,2.2-2.2C691.7,51.3,692.7,52.3,692.7,53.5z
		"/>
	<path class="st1" d="M692.7,60.1c0,1.2-1,2.2-2.2,2.2c-1.2,0-2.2-1-2.2-2.2c0-1.2,1-2.2,2.2-2.2C691.7,57.9,692.7,58.9,692.7,60.1z
		"/>
	<path class="st1" d="M699.2,53.5c0,1.2-1,2.2-2.2,2.2c-1.2,0-2.2-1-2.2-2.2c0-1.2,1-2.2,2.2-2.2C698.3,51.3,699.2,52.3,699.2,53.5z
		"/>
	<path class="st1" d="M699.2,60.1c0,1.2-1,2.2-2.2,2.2c-1.2,0-2.2-1-2.2-2.2c0-1.2,1-2.2,2.2-2.2C698.3,57.9,699.2,58.9,699.2,60.1z
		"/>
	<path class="st1" d="M705.8,53.5c0,1.2-1,2.2-2.2,2.2c-1.2,0-2.2-1-2.2-2.2c0-1.2,1-2.2,2.2-2.2C704.8,51.3,705.8,52.3,705.8,53.5z
		"/>
	<path class="st1" d="M705.8,60.1c0,1.2-1,2.2-2.2,2.2c-1.2,0-2.2-1-2.2-2.2c0-1.2,1-2.2,2.2-2.2C704.8,57.9,705.8,58.9,705.8,60.1z
		"/>
	<path class="st1" d="M712.4,53.5c0,1.2-1,2.2-2.2,2.2c-1.2,0-2.2-1-2.2-2.2c0-1.2,1-2.2,2.2-2.2C711.4,51.3,712.4,52.3,712.4,53.5z
		"/>
	<path class="st1" d="M712.4,60.1c0,1.2-1,2.2-2.2,2.2c-1.2,0-2.2-1-2.2-2.2c0-1.2,1-2.2,2.2-2.2C711.4,57.9,712.4,58.9,712.4,60.1z
		"/>
	<path class="st1" d="M674,53.5c0,1.2-1,2.2-2.2,2.2c-1.2,0-2.2-1-2.2-2.2c0-1.2,1-2.2,2.2-2.2C673,51.3,674,52.3,674,53.5z"/>
	<path class="st1" d="M674,60.1c0,1.2-1,2.2-2.2,2.2c-1.2,0-2.2-1-2.2-2.2c0-1.2,1-2.2,2.2-2.2C673,57.9,674,58.9,674,60.1z"/>
	<path class="st1" d="M680.6,53.5c0,1.2-1,2.2-2.2,2.2c-1.2,0-2.2-1-2.2-2.2c0-1.2,1-2.2,2.2-2.2C679.6,51.3,680.6,52.3,680.6,53.5z
		"/>
	<path class="st1" d="M680.6,60.1c0,1.2-1,2.2-2.2,2.2c-1.2,0-2.2-1-2.2-2.2c0-1.2,1-2.2,2.2-2.2C679.6,57.9,680.6,58.9,680.6,60.1z
		"/>
	<path class="st1" d="M717.9,40.4c0,1.2-1,2.2-2.2,2.2c-1.2,0-2.2-1-2.2-2.2c0-1.2,1-2.2,2.2-2.2C716.9,38.2,717.9,39.2,717.9,40.4z
		"/>
	<path class="st1" d="M717.9,46.9c0,1.2-1,2.2-2.2,2.2c-1.2,0-2.2-1-2.2-2.2c0-1.2,1-2.2,2.2-2.2C716.9,44.8,717.9,45.7,717.9,46.9z
		"/>
	<path class="st1" d="M724.4,40.4c0,1.2-1,2.2-2.2,2.2c-1.2,0-2.2-1-2.2-2.2c0-1.2,1-2.2,2.2-2.2C723.5,38.2,724.4,39.2,724.4,40.4z
		"/>
	<path class="st1" d="M724.4,46.9c0,1.2-1,2.2-2.2,2.2c-1.2,0-2.2-1-2.2-2.2c0-1.2,1-2.2,2.2-2.2C723.5,44.8,724.4,45.7,724.4,46.9z
		"/>
	<path class="st1" d="M687.2,40.4c0,1.2-1,2.2-2.2,2.2c-1.2,0-2.2-1-2.2-2.2c0-1.2,1-2.2,2.2-2.2C686.2,38.2,687.2,39.2,687.2,40.4z
		"/>
	<path class="st1" d="M687.2,46.9c0,1.2-1,2.2-2.2,2.2c-1.2,0-2.2-1-2.2-2.2c0-1.2,1-2.2,2.2-2.2C686.2,44.8,687.2,45.7,687.2,46.9z
		"/>
	<path class="st1" d="M692.7,40.4c0,1.2-1,2.2-2.2,2.2c-1.2,0-2.2-1-2.2-2.2c0-1.2,1-2.2,2.2-2.2C691.7,38.2,692.7,39.2,692.7,40.4z
		"/>
	<path class="st1" d="M692.7,46.9c0,1.2-1,2.2-2.2,2.2c-1.2,0-2.2-1-2.2-2.2c0-1.2,1-2.2,2.2-2.2C691.7,44.8,692.7,45.7,692.7,46.9z
		"/>
	<path class="st1" d="M699.2,40.4c0,1.2-1,2.2-2.2,2.2c-1.2,0-2.2-1-2.2-2.2c0-1.2,1-2.2,2.2-2.2C698.3,38.2,699.2,39.2,699.2,40.4z
		"/>
	<path class="st1" d="M699.2,46.9c0,1.2-1,2.2-2.2,2.2c-1.2,0-2.2-1-2.2-2.2c0-1.2,1-2.2,2.2-2.2C698.3,44.8,699.2,45.7,699.2,46.9z
		"/>
	<path class="st1" d="M705.8,40.4c0,1.2-1,2.2-2.2,2.2c-1.2,0-2.2-1-2.2-2.2c0-1.2,1-2.2,2.2-2.2C704.8,38.2,705.8,39.2,705.8,40.4z
		"/>
	<path class="st1" d="M705.8,46.9c0,1.2-1,2.2-2.2,2.2c-1.2,0-2.2-1-2.2-2.2c0-1.2,1-2.2,2.2-2.2C704.8,44.8,705.8,45.7,705.8,46.9z
		"/>
	<path class="st1" d="M712.4,40.4c0,1.2-1,2.2-2.2,2.2c-1.2,0-2.2-1-2.2-2.2c0-1.2,1-2.2,2.2-2.2C711.4,38.2,712.4,39.2,712.4,40.4z
		"/>
	<path class="st1" d="M712.4,46.9c0,1.2-1,2.2-2.2,2.2c-1.2,0-2.2-1-2.2-2.2c0-1.2,1-2.2,2.2-2.2C711.4,44.8,712.4,45.7,712.4,46.9z
		"/>
	<path class="st1" d="M731,34.9c0,1.2-1,2.2-2.2,2.2c-1.2,0-2.2-1-2.2-2.2c0-1.2,1-2.2,2.2-2.2C730,32.7,731,33.7,731,34.9z"/>
	<path class="st1" d="M736.5,34.9c0,1.2-1,2.2-2.2,2.2c-1.2,0-2.2-1-2.2-2.2c0-1.2,1-2.2,2.2-2.2C735.5,32.7,736.5,33.7,736.5,34.9z
		"/>
	<path class="st1" d="M743.1,34.9c0,1.2-1,2.2-2.2,2.2c-1.2,0-2.2-1-2.2-2.2c0-1.2,1-2.2,2.2-2.2C742.1,32.7,743.1,33.7,743.1,34.9z
		"/>
	<path class="st1" d="M749.7,34.9c0,1.2-1,2.2-2.2,2.2c-1.2,0-2.2-1-2.2-2.2c0-1.2,1-2.2,2.2-2.2C748.7,32.7,749.7,33.7,749.7,34.9z
		"/>
	<path class="st1" d="M756.2,34.9c0,1.2-1,2.2-2.2,2.2c-1.2,0-2.2-1-2.2-2.2c0-1.2,1-2.2,2.2-2.2C755.3,32.7,756.2,33.7,756.2,34.9z
		"/>
	<path class="st1" d="M761.7,34.9c0,1.2-1,2.2-2.2,2.2c-1.2,0-2.2-1-2.2-2.2c0-1.2,1-2.2,2.2-2.2C760.7,32.7,761.7,33.7,761.7,34.9z
		"/>
	<path class="st1" d="M761.7,53.5c0,1.2-1,2.2-2.2,2.2c-1.2,0-2.2-1-2.2-2.2c0-1.2,1-2.2,2.2-2.2C760.7,51.3,761.7,52.3,761.7,53.5z
		"/>
	<path class="st1" d="M761.7,60.1c0,1.2-1,2.2-2.2,2.2c-1.2,0-2.2-1-2.2-2.2c0-1.2,1-2.2,2.2-2.2C760.7,57.9,761.7,58.9,761.7,60.1z
		"/>
	<path class="st1" d="M768.3,53.5c0,1.2-1,2.2-2.2,2.2c-1.2,0-2.2-1-2.2-2.2c0-1.2,1-2.2,2.2-2.2C767.3,51.3,768.3,52.3,768.3,53.5z
		"/>
	<path class="st1" d="M768.3,60.1c0,1.2-1,2.2-2.2,2.2c-1.2,0-2.2-1-2.2-2.2c0-1.2,1-2.2,2.2-2.2C767.3,57.9,768.3,58.9,768.3,60.1z
		"/>
	<path class="st1" d="M768.3,73.3c0,1.2-1,2.2-2.2,2.2c-1.2,0-2.2-1-2.2-2.2c0-1.2,1-2.2,2.2-2.2C767.3,71.1,768.3,72,768.3,73.3z"
		/>
	<path class="st1" d="M768.3,79.8c0,1.2-1,2.2-2.2,2.2c-1.2,0-2.2-1-2.2-2.2c0-1.2,1-2.2,2.2-2.2C767.3,77.6,768.3,78.6,768.3,79.8z
		"/>
	<path class="st1" d="M731,53.5c0,1.2-1,2.2-2.2,2.2c-1.2,0-2.2-1-2.2-2.2c0-1.2,1-2.2,2.2-2.2C730,51.3,731,52.3,731,53.5z"/>
	<path class="st1" d="M731,60.1c0,1.2-1,2.2-2.2,2.2c-1.2,0-2.2-1-2.2-2.2c0-1.2,1-2.2,2.2-2.2C730,57.9,731,58.9,731,60.1z"/>
	<path class="st1" d="M736.5,53.5c0,1.2-1,2.2-2.2,2.2c-1.2,0-2.2-1-2.2-2.2c0-1.2,1-2.2,2.2-2.2C735.5,51.3,736.5,52.3,736.5,53.5z
		"/>
	<path class="st1" d="M736.5,60.1c0,1.2-1,2.2-2.2,2.2c-1.2,0-2.2-1-2.2-2.2c0-1.2,1-2.2,2.2-2.2C735.5,57.9,736.5,58.9,736.5,60.1z
		"/>
	<path class="st1" d="M743.1,53.5c0,1.2-1,2.2-2.2,2.2c-1.2,0-2.2-1-2.2-2.2c0-1.2,1-2.2,2.2-2.2C742.1,51.3,743.1,52.3,743.1,53.5z
		"/>
	<path class="st1" d="M749.7,53.5c0,1.2-1,2.2-2.2,2.2c-1.2,0-2.2-1-2.2-2.2c0-1.2,1-2.2,2.2-2.2C748.7,51.3,749.7,52.3,749.7,53.5z
		"/>
	<path class="st1" d="M756.2,53.5c0,1.2-1,2.2-2.2,2.2c-1.2,0-2.2-1-2.2-2.2c0-1.2,1-2.2,2.2-2.2C755.3,51.3,756.2,52.3,756.2,53.5z
		"/>
	<path class="st1" d="M761.7,40.4c0,1.2-1,2.2-2.2,2.2c-1.2,0-2.2-1-2.2-2.2c0-1.2,1-2.2,2.2-2.2C760.7,38.2,761.7,39.2,761.7,40.4z
		"/>
	<path class="st1" d="M761.7,46.9c0,1.2-1,2.2-2.2,2.2c-1.2,0-2.2-1-2.2-2.2c0-1.2,1-2.2,2.2-2.2C760.7,44.8,761.7,45.7,761.7,46.9z
		"/>
	<path class="st1" d="M768.3,40.4c0,1.2-1,2.2-2.2,2.2c-1.2,0-2.2-1-2.2-2.2c0-1.2,1-2.2,2.2-2.2C767.3,38.2,768.3,39.2,768.3,40.4z
		"/>
	<path class="st1" d="M768.3,46.9c0,1.2-1,2.2-2.2,2.2c-1.2,0-2.2-1-2.2-2.2c0-1.2,1-2.2,2.2-2.2C767.3,44.8,768.3,45.7,768.3,46.9z
		"/>
	<path class="st1" d="M774.9,53.5c0,1.2-1,2.2-2.2,2.2c-1.2,0-2.2-1-2.2-2.2c0-1.2,1-2.2,2.2-2.2C773.9,51.3,774.9,52.3,774.9,53.5z
		"/>
	<path class="st1" d="M781.5,53.5c0,1.2-1,2.2-2.2,2.2c-1.2,0-2.2-1-2.2-2.2c0-1.2,1-2.2,2.2-2.2C780.5,51.3,781.5,52.3,781.5,53.5z
		"/>
	<path class="st1" d="M786.9,53.5c0,1.2-1,2.2-2.2,2.2c-1.2,0-2.2-1-2.2-2.2c0-1.2,1-2.2,2.2-2.2C786,51.3,786.9,52.3,786.9,53.5z"
		/>
	<path class="st1" d="M793.5,47c0,1.2-1,2.2-2.2,2.2c-1.2,0-2.2-1-2.2-2.2c0-1.2,1-2.2,2.2-2.2C792.5,44.8,793.5,45.7,793.5,47z"/>
	<path class="st1" d="M774.9,60.1c0,1.2-1,2.2-2.2,2.2c-1.2,0-2.2-1-2.2-2.2c0-1.2,1-2.2,2.2-2.2C773.9,57.9,774.9,58.9,774.9,60.1z
		"/>
	<path class="st1" d="M756.2,66.7c0,1.2-1,2.2-2.2,2.2s-2.2-1-2.2-2.2c0-1.2,1-2.2,2.2-2.2S756.2,65.5,756.2,66.7z"/>
	<path class="st1" d="M762.8,66.7c0,1.2-1,2.2-2.2,2.2s-2.2-1-2.2-2.2c0-1.2,1-2.2,2.2-2.2S762.8,65.5,762.8,66.7z"/>
	<path class="st1" d="M761.7,73.3c0,1.2-1,2.2-2.2,2.2c-1.2,0-2.2-1-2.2-2.2c0-1.2,1-2.2,2.2-2.2C760.7,71.1,761.7,72,761.7,73.3z"
		/>
	<path class="st1" d="M762.8,78.7c0,1.2-1,2.2-2.2,2.2s-2.2-1-2.2-2.2c0-1.2,1-2.2,2.2-2.2S762.8,77.5,762.8,78.7z"/>
	<path class="st1" d="M774.9,40.4c0,1.2-1,2.2-2.2,2.2c-1.2,0-2.2-1-2.2-2.2c0-1.2,1-2.2,2.2-2.2C773.9,38.2,774.9,39.2,774.9,40.4z
		"/>
	<path class="st1" d="M780.4,40.4c0,1.2-1,2.2-2.2,2.2c-1.2,0-2.2-1-2.2-2.2c0-1.2,1-2.2,2.2-2.2C779.4,38.2,780.4,39.2,780.4,40.4z
		"/>
	<path class="st1" d="M774.9,46.9c0,1.2-1,2.2-2.2,2.2c-1.2,0-2.2-1-2.2-2.2c0-1.2,1-2.2,2.2-2.2C773.9,44.8,774.9,45.7,774.9,46.9z
		"/>
	<path class="st1" d="M731,40.4c0,1.2-1,2.2-2.2,2.2c-1.2,0-2.2-1-2.2-2.2c0-1.2,1-2.2,2.2-2.2C730,38.2,731,39.2,731,40.4z"/>
	<path class="st1" d="M731,46.9c0,1.2-1,2.2-2.2,2.2c-1.2,0-2.2-1-2.2-2.2c0-1.2,1-2.2,2.2-2.2C730,44.8,731,45.7,731,46.9z"/>
	<path class="st1" d="M736.5,40.4c0,1.2-1,2.2-2.2,2.2c-1.2,0-2.2-1-2.2-2.2c0-1.2,1-2.2,2.2-2.2C735.5,38.2,736.5,39.2,736.5,40.4z
		"/>
	<path class="st1" d="M736.5,46.9c0,1.2-1,2.2-2.2,2.2c-1.2,0-2.2-1-2.2-2.2c0-1.2,1-2.2,2.2-2.2C735.5,44.8,736.5,45.7,736.5,46.9z
		"/>
	<path class="st1" d="M743.1,40.4c0,1.2-1,2.2-2.2,2.2c-1.2,0-2.2-1-2.2-2.2c0-1.2,1-2.2,2.2-2.2C742.1,38.2,743.1,39.2,743.1,40.4z
		"/>
	<path class="st1" d="M743.1,46.9c0,1.2-1,2.2-2.2,2.2c-1.2,0-2.2-1-2.2-2.2c0-1.2,1-2.2,2.2-2.2C742.1,44.8,743.1,45.7,743.1,46.9z
		"/>
	<path class="st1" d="M749.7,40.4c0,1.2-1,2.2-2.2,2.2c-1.2,0-2.2-1-2.2-2.2c0-1.2,1-2.2,2.2-2.2C748.7,38.2,749.7,39.2,749.7,40.4z
		"/>
	<path class="st1" d="M749.7,46.9c0,1.2-1,2.2-2.2,2.2c-1.2,0-2.2-1-2.2-2.2c0-1.2,1-2.2,2.2-2.2C748.7,44.8,749.7,45.7,749.7,46.9z
		"/>
	<path class="st1" d="M756.2,40.4c0,1.2-1,2.2-2.2,2.2c-1.2,0-2.2-1-2.2-2.2c0-1.2,1-2.2,2.2-2.2C755.3,38.2,756.2,39.2,756.2,40.4z
		"/>
	<path class="st1" d="M756.2,46.9c0,1.2-1,2.2-2.2,2.2c-1.2,0-2.2-1-2.2-2.2c0-1.2,1-2.2,2.2-2.2C755.3,44.8,756.2,45.7,756.2,46.9z
		"/>
	<path class="st1" d="M674,40.4c0,1.2-1,2.2-2.2,2.2c-1.2,0-2.2-1-2.2-2.2c0-1.2,1-2.2,2.2-2.2C673,38.2,674,39.2,674,40.4z"/>
	<path class="st1" d="M674,46.9c0,1.2-1,2.2-2.2,2.2c-1.2,0-2.2-1-2.2-2.2c0-1.2,1-2.2,2.2-2.2C673,44.8,674,45.7,674,46.9z"/>
	<path class="st1" d="M680.6,40.4c0,1.2-1,2.2-2.2,2.2c-1.2,0-2.2-1-2.2-2.2c0-1.2,1-2.2,2.2-2.2C679.6,38.2,680.6,39.2,680.6,40.4z
		"/>
	<path class="st1" d="M680.6,46.9c0,1.2-1,2.2-2.2,2.2c-1.2,0-2.2-1-2.2-2.2c0-1.2,1-2.2,2.2-2.2C679.6,44.8,680.6,45.7,680.6,46.9z
		"/>
	<path class="st1" d="M516.2,97.4c0,1.2-1,2.2-2.2,2.2c-1.2,0-2.2-1-2.2-2.2c0-1.2,1-2.2,2.2-2.2C515.2,95.2,516.2,96.1,516.2,97.4z
		"/>
	<path class="st1" d="M509.6,97.4c0,1.2-1,2.2-2.2,2.2c-1.2,0-2.2-1-2.2-2.2c0-1.2,1-2.2,2.2-2.2C508.6,95.2,509.6,96.1,509.6,97.4z
		"/>
	<path class="st1" d="M516.2,103.9c0,1.2-1,2.2-2.2,2.2c-1.2,0-2.2-1-2.2-2.2c0-1.2,1-2.2,2.2-2.2
		C515.2,101.7,516.2,102.7,516.2,103.9z"/>
	<path class="st1" d="M522.7,97.4c0,1.2-1,2.2-2.2,2.2c-1.2,0-2.2-1-2.2-2.2c0-1.2,1-2.2,2.2-2.2C521.8,95.2,522.7,96.1,522.7,97.4z
		"/>
	<path class="st1" d="M522.7,103.9c0,1.2-1,2.2-2.2,2.2c-1.2,0-2.2-1-2.2-2.2c0-1.2,1-2.2,2.2-2.2
		C521.8,101.7,522.7,102.7,522.7,103.9z"/>
	<path class="st1" d="M528.2,97.4c0,1.2-1,2.2-2.2,2.2c-1.2,0-2.2-1-2.2-2.2c0-1.2,1-2.2,2.2-2.2C527.2,95.2,528.2,96.1,528.2,97.4z
		"/>
	<path class="st1" d="M528.2,103.9c0,1.2-1,2.2-2.2,2.2c-1.2,0-2.2-1-2.2-2.2c0-1.2,1-2.2,2.2-2.2
		C527.2,101.7,528.2,102.7,528.2,103.9z"/>
	<path class="st1" d="M534.8,97.4c0,1.2-1,2.2-2.2,2.2c-1.2,0-2.2-1-2.2-2.2c0-1.2,1-2.2,2.2-2.2C533.8,95.2,534.8,96.1,534.8,97.4z
		"/>
	<path class="st1" d="M534.8,103.9c0,1.2-1,2.2-2.2,2.2c-1.2,0-2.2-1-2.2-2.2c0-1.2,1-2.2,2.2-2.2
		C533.8,101.7,534.8,102.7,534.8,103.9z"/>
	<path class="st1" d="M541.4,97.4c0,1.2-1,2.2-2.2,2.2c-1.2,0-2.2-1-2.2-2.2c0-1.2,1-2.2,2.2-2.2C540.4,95.2,541.4,96.1,541.4,97.4z
		"/>
	<path class="st1" d="M541.4,103.9c0,1.2-1,2.2-2.2,2.2c-1.2,0-2.2-1-2.2-2.2c0-1.2,1-2.2,2.2-2.2
		C540.4,101.7,541.4,102.7,541.4,103.9z"/>
	<path class="st1" d="M509.6,103.9c0,1.2-1,2.2-2.2,2.2c-1.2,0-2.2-1-2.2-2.2c0-1.2,1-2.2,2.2-2.2
		C508.6,101.7,509.6,102.7,509.6,103.9z"/>
	<path class="st1" d="M629.1,97.4c0,1.2-1,2.2-2.2,2.2s-2.2-1-2.2-2.2c0-1.2,1-2.2,2.2-2.2S629.1,96.1,629.1,97.4z"/>
	<path class="st1" d="M629.1,103.9c0,1.2-1,2.2-2.2,2.2s-2.2-1-2.2-2.2c0-1.2,1-2.2,2.2-2.2S629.1,102.7,629.1,103.9z"/>
	<path class="st1" d="M635.7,97.4c0,1.2-1,2.2-2.2,2.2c-1.2,0-2.2-1-2.2-2.2c0-1.2,1-2.2,2.2-2.2C634.7,95.2,635.7,96.1,635.7,97.4z
		"/>
	<path class="st1" d="M635.7,103.9c0,1.2-1,2.2-2.2,2.2c-1.2,0-2.2-1-2.2-2.2c0-1.2,1-2.2,2.2-2.2
		C634.7,101.7,635.7,102.7,635.7,103.9z"/>
	<path class="st1" d="M642.2,97.4c0,1.2-1,2.2-2.2,2.2c-1.2,0-2.2-1-2.2-2.2c0-1.2,1-2.2,2.2-2.2C641.2,95.2,642.2,96.1,642.2,97.4z
		"/>
	<path class="st1" d="M642.2,103.9c0,1.2-1,2.2-2.2,2.2c-1.2,0-2.2-1-2.2-2.2c0-1.2,1-2.2,2.2-2.2
		C641.2,101.7,642.2,102.7,642.2,103.9z"/>
	<path class="st1" d="M648.8,97.4c0,1.2-1,2.2-2.2,2.2c-1.2,0-2.2-1-2.2-2.2c0-1.2,1-2.2,2.2-2.2C647.8,95.2,648.8,96.1,648.8,97.4z
		"/>
	<path class="st1" d="M648.8,103.9c0,1.2-1,2.2-2.2,2.2c-1.2,0-2.2-1-2.2-2.2c0-1.2,1-2.2,2.2-2.2
		C647.8,101.7,648.8,102.7,648.8,103.9z"/>
</g>
</svg>
