<svg width="24" height="24" viewBox="0 0 24 24" fill="none" xmlns="http://www.w3.org/2000/svg">
<path d="M14.25 9.2332V8.0168C14.25 7.85529 14.119 7.7243 13.9575 7.7243H12.9V6.6668C12.9 6.50613 12.7699 6.375 12.6082 6.375H11.3918C11.2301 6.375 11.1 6.50613 11.1 6.6668V7.7243H10.0418C9.88008 7.725 9.75 7.85508 9.75 8.0168V9.2318C9.75 9.3933 9.88103 9.5243 10.0425 9.5243H11.1V10.5818C11.1 10.7449 11.2301 10.875 11.3918 10.875H12.6068C12.7683 10.875 12.8993 10.744 12.8993 10.5825V9.525H13.9568C14.1199 9.525 14.25 9.39492 14.25 9.2332ZM10.4531 13.125H9.04688C8.81484 13.125 8.625 13.3148 8.625 13.5469V14.9531C8.625 15.1852 8.81484 15.375 9.04688 15.375H10.4531C10.6852 15.375 10.875 15.1852 10.875 14.9531V13.5469C10.875 13.3148 10.6852 13.125 10.4531 13.125ZM10.4531 16.5H9.04688C8.81484 16.5 8.625 16.6898 8.625 16.9219V18.3281C8.625 18.5602 8.81484 18.75 9.04688 18.75H10.4531C10.6852 18.75 10.875 18.5602 10.875 18.3281V16.9219C10.875 16.6898 10.6852 16.5 10.4531 16.5ZM16.5 3H7.5C6.25723 3 5.25 4.00723 5.25 5.25V20.1562C5.25 20.6238 5.62793 21 6.09375 21C6.55957 21 6.9375 20.6221 6.9375 20.1562V5.25C6.9375 4.93929 7.18936 4.6875 7.5 4.6875H16.5C16.8106 4.6875 17.0625 4.93929 17.0625 5.25V20.1562C17.0625 20.6221 17.4404 21 17.9062 21C18.3721 21 18.75 20.6238 18.75 20.1562V5.25C18.75 4.00723 17.741 3 16.5 3ZM14.9531 13.125H13.5469C13.3148 13.125 13.125 13.3148 13.125 13.5469V14.9531C13.125 15.1852 13.3148 15.375 13.5469 15.375H14.9531C15.1852 15.375 15.375 15.1852 15.375 14.9531V13.5469C15.375 13.3148 15.1852 13.125 14.9531 13.125ZM14.9531 16.5H13.5469C13.3148 16.5 13.125 16.6898 13.125 16.9219V18.3281C13.125 18.5602 13.3148 18.75 13.5469 18.75H14.9531C15.1852 18.75 15.375 18.5602 15.375 18.3281V16.9219C15.375 16.6898 15.1852 16.5 14.9531 16.5Z" fill="#4F0FFF"/>
</svg>
