<svg width="24" height="24" viewBox="0 0 24 24" fill="none" xmlns="http://www.w3.org/2000/svg">
<rect width="24" height="24" fill="#CCCCCC"/>
<g id="Version pour int&#195;&#169;gration">
<path d="M-4581 -1678C-4581 -1679.1 -4580.1 -1680 -4579 -1680H18713C18714.1 -1680 18715 -1679.1 18715 -1678V13198C18715 13199.1 18714.1 13200 18713 13200H-4579C-4580.11 13200 -4581 13199.1 -4581 13198V-1678Z" fill="white"/>
<path d="M-4579 -1679H18713V-1681H-4579V-1679ZM18714 -1678V13198H18716V-1678H18714ZM18713 13199H-4579V13201H18713V13199ZM-4580 13198V-1678H-4582V13198H-4580ZM-4579 13199C-4579.55 13199 -4580 13198.6 -4580 13198H-4582C-4582 13199.7 -4580.66 13201 -4579 13201V13199ZM18714 13198C18714 13198.6 18713.6 13199 18713 13199V13201C18714.7 13201 18716 13199.7 18716 13198H18714ZM18713 -1679C18713.6 -1679 18714 -1678.55 18714 -1678H18716C18716 -1679.66 18714.7 -1681 18713 -1681V-1679ZM-4579 -1681C-4580.66 -1681 -4582 -1679.66 -4582 -1678H-4580C-4580 -1678.55 -4579.55 -1679 -4579 -1679V-1681Z" fill="black" fill-opacity="0.1"/>
<g id="notebook">
<path id="Vector" d="M14 3H8C7.46957 3 6.96086 3.21071 6.58579 3.58579C6.21071 3.96086 6 4.46957 6 5V19C6 19.5304 6.21071 20.0391 6.58579 20.4142C6.96086 20.7893 7.46957 21 8 21H20C20.5304 21 21.0391 20.7893 21.4142 20.4142C21.7893 20.0391 22 19.5304 22 19V5C22 4.46957 21.7893 3.96086 21.4142 3.58579C21.0391 3.21071 20.5304 3 20 3H14Z" stroke="#4F0FFF" stroke-width="2" stroke-linecap="round" stroke-linejoin="round"/>
<path id="Vector_2" d="M14 3H5C4.46957 3 3.96086 3.21071 3.58579 3.58579C3.21071 3.96086 3 4.46957 3 5V19C3 19.5304 3.21071 20.0391 3.58579 20.4142C3.96086 20.7893 4.46957 21 5 21H14M10 8.013L18 8M10 12.026L18 12.013M10 16.026L18 16.013" stroke="#4F0FFF" stroke-width="2" stroke-linecap="round" stroke-linejoin="round"/>
</g>
</g>
</svg>
