<svg width="24" height="24" viewBox="0 0 24 24" fill="none" xmlns="http://www.w3.org/2000/svg">
<path d="M8 7V5C8 4.46957 8.21071 3.96086 8.58579 3.58579C8.96086 3.21071 9.46957 3 10 3H14C14.5304 3 15.0391 3.21071 15.4142 3.58579C15.7893 3.96086 16 4.46957 16 5V7M3 10C3 9.068 3 8.602 3.152 8.235C3.25251 7.99218 3.3999 7.77155 3.58572 7.58572C3.77155 7.3999 3.99218 7.25251 4.235 7.152C4.602 7 5.068 7 6 7H18C18.932 7 19.398 7 19.765 7.152C20.0078 7.25251 20.2284 7.3999 20.4143 7.58572C20.6001 7.77155 20.7475 7.99218 20.848 8.235C21 8.602 21 9.068 21 10V17C21 18.886 21 19.828 20.414 20.414C19.828 21 18.886 21 17 21H7C5.114 21 4.172 21 3.586 20.414C3 19.828 3 18.886 3 17V10Z" stroke="#4F0FFF" stroke-width="2" stroke-linecap="round" stroke-linejoin="round"/>
<path d="M3 10C3.19177 11.3076 3.7289 12.5403 4.556 13.571C6.195 15.644 8.918 17 12 17C15.082 17 17.805 15.644 19.444 13.571C20.2711 12.5403 20.8082 11.3076 21 10M11.5 13H12.5" stroke="#4F0FFF" stroke-width="2" stroke-linecap="round" stroke-linejoin="round"/>
</svg>
