<svg width="24" height="25" viewBox="0 0 24 25" fill="none" xmlns="http://www.w3.org/2000/svg">
<rect width="24" height="25" />
<g id="Version pour int&#195;&#169;gration">
<path d="M-4752 -2484C-4752 -2485.1 -4751.1 -2486 -4750 -2486H18542C18543.1 -2486 18544 -2485.1 18544 -2484V12392C18544 12393.1 18543.1 12394 18542 12394H-4750C-4751.11 12394 -4752 12393.1 -4752 12392V-2484Z" fill="white"/>
<path d="M-4750 -2485H18542V-2487H-4750V-2485ZM18543 -2484V12392H18545V-2484H18543ZM18542 12393H-4750V12395H18542V12393ZM-4751 12392V-2484H-4753V12392H-4751ZM-4750 12393C-4750.55 12393 -4751 12392.6 -4751 12392H-4753C-4753 12393.7 -4751.66 12395 -4750 12395V12393ZM18543 12392C18543 12392.6 18542.6 12393 18542 12393V12395C18543.7 12395 18545 12393.7 18545 12392H18543ZM18542 -2485C18542.6 -2485 18543 -2484.55 18543 -2484H18545C18545 -2485.66 18543.7 -2487 18542 -2487V-2485ZM-4750 -2487C-4751.66 -2487 -4753 -2485.66 -4753 -2484H-4751C-4751 -2484.55 -4750.55 -2485 -4750 -2485V-2487Z" fill="black" fill-opacity="0.1"/>
<g id="Desktop - Contact us">
<g clip-path="url(#clip0_0_1)">
<rect x="-164" y="-311" width="1440" height="1246" fill="white"/>
<g id="Frame 218">
<g id="Frame 217">
<g id="Group 64">
<g id="Frame 1108">
<g id="Frame 1098">
<g id="Frame 1100">
<rect x="-17.5" y="-9.43359" width="114" height="43" rx="21.5" stroke="#6F6F6F"/>
<g id="notebook">
<path id="Vector" d="M14 3.06641H8C7.46957 3.06641 6.96086 3.27712 6.58579 3.65219C6.21071 4.02727 6 4.53597 6 5.06641V19.0664C6 19.5968 6.21071 20.1055 6.58579 20.4806C6.96086 20.8557 7.46957 21.0664 8 21.0664H20C20.5304 21.0664 21.0391 20.8557 21.4142 20.4806C21.7893 20.1055 22 19.5968 22 19.0664V5.06641C22 4.53597 21.7893 4.02727 21.4142 3.65219C21.0391 3.27712 20.5304 3.06641 20 3.06641H14Z" stroke="#F05801" stroke-width="2" stroke-linecap="round" stroke-linejoin="round"/>
<path id="Vector_2" d="M14 3.06641H5C4.46957 3.06641 3.96086 3.27712 3.58579 3.65219C3.21071 4.02727 3 4.53597 3 5.06641V19.0664C3 19.5968 3.21071 20.1055 3.58579 20.4806C3.96086 20.8557 4.46957 21.0664 5 21.0664H14M10 8.07941L18 8.06641M10 12.0924L18 12.0794M10 16.0924L18 16.0794" stroke="#F05801" stroke-width="2" stroke-linecap="round" stroke-linejoin="round"/>
</g>
</g>
</g>
</g>
</g>
</g>
</g>
</g>
<rect x="-163.5" y="-310.5" width="1439" height="1245" stroke="black"/>
</g>
</g>
<defs>
<clipPath id="clip0_0_1">
<rect x="-164" y="-311" width="1440" height="1246" fill="white"/>
</clipPath>
</defs>
</svg>
