<svg width="24" height="24" viewBox="0 0 24 24" fill="none" xmlns="http://www.w3.org/2000/svg">
<path d="M15.631 7.155C16.009 7.01533 16.4151 6.96908 16.8148 7.0202C17.2144 7.07132 17.5959 7.2183 17.9265 7.4486C18.2571 7.67891 18.5272 7.98572 18.7137 8.3429C18.9002 8.70009 18.9976 9.09706 18.9976 9.5C18.9976 9.90294 18.9002 10.2999 18.7137 10.6571C18.5272 11.0143 18.2571 11.3211 17.9265 11.5514C17.5959 11.7817 17.2144 11.9287 16.8148 11.9798C16.4151 12.0309 16.009 11.9847 15.631 11.845M3 19C3.691 16.693 5.47 16 9.5 16C13.53 16 15.309 16.693 16 19M17 15C19.403 15.095 20.53 15.638 21 17M13 9.5C13 9.95963 12.9095 10.4148 12.7336 10.8394C12.5577 11.264 12.2999 11.6499 11.9749 11.9749C11.6499 12.2999 11.264 12.5577 10.8394 12.7336C10.4148 12.9095 9.95963 13 9.5 13C9.04037 13 8.58525 12.9095 8.16061 12.7336C7.73597 12.5577 7.35013 12.2999 7.02513 11.9749C6.70012 11.6499 6.44231 11.264 6.26642 10.8394C6.09053 10.4148 6 9.95963 6 9.5C6 8.57174 6.36875 7.6815 7.02513 7.02513C7.6815 6.36875 8.57174 6 9.5 6C10.4283 6 11.3185 6.36875 11.9749 7.02513C12.6313 7.6815 13 8.57174 13 9.5Z" stroke="#4F0FFF" stroke-width="2" stroke-linecap="round" stroke-linejoin="round"/>
</svg>
