<svg width="52" height="52" viewBox="0 0 52 52" fill="none" xmlns="http://www.w3.org/2000/svg">
<g id="arrow-right-circle">
<path id="Vector" d="M34.6667 26H17.3333M45.5 26C45.5 28.5608 44.9956 31.0965 44.0157 33.4623C43.0357 35.8282 41.5993 37.9778 39.7886 39.7886C37.9778 41.5993 35.8282 43.0357 33.4623 44.0157C31.0965 44.9956 28.5608 45.5 26 45.5C23.4392 45.5 20.9035 44.9956 18.5377 44.0157C16.1718 43.0357 14.0222 41.5993 12.2114 39.7886C10.4007 37.9778 8.96432 35.8282 7.98435 33.4623C7.00438 31.0965 6.5 28.5608 6.5 26C6.5 20.8283 8.55446 15.8684 12.2114 12.2114C15.8684 8.55446 20.8283 6.5 26 6.5C31.1717 6.5 36.1316 8.55446 39.7886 12.2114C43.4455 15.8684 45.5 20.8283 45.5 26Z" stroke="white" stroke-width="2.16667" stroke-linecap="round" stroke-linejoin="round"/>
<path id="Vector_2" d="M28.168 32.5L34.4795 26.1885C34.5042 26.1638 34.5239 26.1344 34.5373 26.102C34.5507 26.0697 34.5576 26.035 34.5576 26C34.5576 25.965 34.5507 25.9303 34.5373 25.898C34.5239 25.8656 34.5042 25.8362 34.4795 25.8115L28.168 19.5" stroke="white" stroke-width="2.16667" stroke-linecap="round" stroke-linejoin="round"/>
</g>
</svg>
