<svg width="52" height="52" viewBox="0 0 52 52" fill="none" xmlns="http://www.w3.org/2000/svg">
<g id="arrow-right-circle">
<path id="Vector" d="M17.3333 26L34.6667 26M6.5 26C6.5 23.4392 7.00438 20.9035 7.98435 18.5377C8.96432 16.1718 10.4007 14.0222 12.2114 12.2114C14.0222 10.4007 16.1718 8.96431 18.5377 7.98434C20.9035 7.00438 23.4392 6.5 26 6.5C28.5608 6.5 31.0965 7.00438 33.4623 7.98434C35.8282 8.96431 37.9778 10.4007 39.7886 12.2114C41.5993 14.0222 43.0357 16.1718 44.0157 18.5377C44.9956 20.9035 45.5 23.4392 45.5 26C45.5 31.1717 43.4455 36.1316 39.7886 39.7886C36.1316 43.4455 31.1717 45.5 26 45.5C20.8283 45.5 15.8684 43.4455 12.2114 39.7886C8.55446 36.1316 6.5 31.1717 6.5 26Z" stroke="white" stroke-width="2.16667" stroke-linecap="round" stroke-linejoin="round"/>
<path id="Vector_2" d="M23.832 19.5L17.5205 25.8115C17.4958 25.8362 17.4761 25.8656 17.4627 25.898C17.4493 25.9303 17.4424 25.965 17.4424 26C17.4424 26.035 17.4493 26.0697 17.4627 26.102C17.4761 26.1344 17.4958 26.1638 17.5205 26.1885L23.832 32.5" stroke="white" stroke-width="2.16667" stroke-linecap="round" stroke-linejoin="round"/>
</g>
</svg>
