<svg width="37" height="37" viewBox="0 0 37 37" fill="none" xmlns="http://www.w3.org/2000/svg">
<path d="M14.0445 18.3777H16.9691L17.4971 18.9443V21.5982L16.9691 22.1572H13.4609V21.5311H16.7329L16.9135 21.3298V19.2052L16.7329 19.0039H14.0445H13.4609V18.3777V15.7834V15.4852V15.1572H17.4971V15.7834H14.0445V18.3777Z" fill="#F05801" stroke="#F05801" stroke-width="0.551302" stroke-miterlimit="8"/>
<path fill-rule="evenodd" clip-rule="evenodd" d="M23.5442 21.5311V15.1572H22.9607V16.9687H21.1406V17.595H22.9607V21.5311H22.1201V22.1572H24.3917V21.5311H23.5442Z" fill="#F05801" stroke="#F05801" stroke-width="0.551302" stroke-miterlimit="8"/>
<path d="M29.1719 23.7798C29.1719 30.1027 24.3944 35.2295 18.5023 35.2295C12.6103 35.2295 7.83286 30.1027 7.83286 23.7798V21.2734" stroke="#F05801" stroke-width="1.65391" stroke-miterlimit="8"/>
<path d="M29.1719 13.2178C29.1719 6.89486 24.3944 1.76803 18.5023 1.76803C12.6103 1.76803 7.83286 6.89486 7.83286 13.2178V15.7241" stroke="#F05801" stroke-width="1.65391" stroke-miterlimit="8"/>
</svg>
